# Blender 4.4.1
# www.blender.org
mtllib cross.mtl
o 平面.001
v -0.000000 -0.565685 0.848528
v -0.000000 -0.848528 0.565685
v 0.000000 0.848528 -0.565685
v 0.000000 0.565685 -0.848528
v 0.000000 0.565685 0.848528
v 0.000000 0.848528 0.565685
v -0.000000 -0.848528 -0.565685
v -0.000000 -0.565685 -0.848528
vn 1.0000 -0.0000 -0.0000
vt 0.809920 0.997541
vt 0.768779 0.652791
vt 0.961725 0.804595
vt 0.997545 0.761477
vt 0.002455 0.041044
vt 0.032816 0.002455
vt 0.616975 0.845736
vt 0.967184 0.800066
s 0
usemtl マテリアル
f 2/1/1 3/2/1 1/3/1
f 7/4/1 6/5/1 5/6/1
f 2/1/1 4/7/1 3/2/1
f 7/4/1 8/8/1 6/5/1
