# Blender 4.4.1
# www.blender.org
mtllib bullet.mtl
o 円錐
v 0.000000 0.201054 0.965512
v 0.076940 0.185750 0.965512
v 0.142167 0.142167 0.965512
v 0.185750 0.076940 0.965512
v 0.201054 0.000000 0.965512
v 0.185750 -0.076940 0.965512
v 0.142167 -0.142167 0.965512
v 0.076940 -0.185750 0.965512
v 0.000000 -0.201054 0.965512
v -0.076940 -0.185750 0.965512
v -0.142167 -0.142167 0.965512
v -0.185750 -0.076940 0.965512
v -0.201054 0.000000 0.965512
v -0.185750 0.076940 0.965512
v -0.142167 0.142167 0.965512
v -0.076940 0.185750 0.965512
v 0.000000 0.000000 1.367620
v 0.000000 0.092517 -1.000084
v 0.000000 0.092517 1.000085
v 0.035405 0.085475 -1.000084
v 0.035405 0.085475 1.000085
v 0.065420 0.065420 -1.000084
v 0.065420 0.065420 1.000085
v 0.085475 0.035405 -1.000084
v 0.085475 0.035405 1.000085
v 0.092517 0.000000 -1.000084
v 0.092517 0.000000 1.000085
v 0.085475 -0.035405 -1.000084
v 0.085475 -0.035405 1.000085
v 0.065420 -0.065420 -1.000084
v 0.065420 -0.065420 1.000085
v 0.035405 -0.085475 -1.000084
v 0.035405 -0.085475 1.000085
v 0.000000 -0.092517 -1.000084
v 0.000000 -0.092517 1.000085
v -0.035405 -0.085475 -1.000084
v -0.035405 -0.085475 1.000085
v -0.065420 -0.065420 -1.000084
v -0.065420 -0.065420 1.000085
v -0.085475 -0.035405 -1.000084
v -0.085475 -0.035405 1.000085
v -0.092517 0.000000 -1.000084
v -0.092517 0.000000 1.000085
v -0.085475 0.035405 -1.000084
v -0.085475 0.035405 1.000085
v -0.065420 0.065420 -1.000084
v -0.065420 0.065420 1.000085
v -0.035405 0.085475 -1.000084
v -0.035405 0.085475 1.000085
vn 0.4988 0.7465 0.4403
vn 0.7465 0.4988 0.4403
vn 0.8806 0.1752 0.4403
vn 0.8806 -0.1752 0.4403
vn 0.7465 -0.4988 0.4403
vn 0.4988 -0.7465 0.4403
vn 0.1752 -0.8806 0.4403
vn -0.1752 -0.8806 0.4403
vn -0.4988 -0.7465 0.4403
vn -0.7465 -0.4988 0.4403
vn -0.8806 -0.1752 0.4403
vn -0.8806 0.1752 0.4403
vn -0.7465 0.4988 0.4403
vn -0.4988 0.7465 0.4403
vn -0.1752 0.8806 0.4403
vn -0.0000 -0.0000 -1.0000
vn 0.1752 0.8806 0.4403
vn 0.5556 0.8315 -0.0000
vn 0.8315 0.5556 -0.0000
vn 0.9808 0.1951 -0.0000
vn 0.9808 -0.1951 -0.0000
vn 0.8315 -0.5556 -0.0000
vn 0.5556 -0.8315 -0.0000
vn 0.1951 -0.9808 -0.0000
vn -0.1951 -0.9808 -0.0000
vn -0.5556 -0.8315 -0.0000
vn -0.8315 -0.5556 -0.0000
vn -0.9808 -0.1951 -0.0000
vn -0.9808 0.1951 -0.0000
vn -0.8315 0.5556 -0.0000
vn -0.5556 0.8315 -0.0000
vn -0.1951 0.9808 -0.0000
vn -0.0000 -0.0000 1.0000
vn 0.1951 0.9808 -0.0000
vt 0.332845 0.349690
vt 0.627616 0.179936
vt 0.652637 0.233760
vt 0.593620 0.131280
vt 0.551684 0.089275
vt 0.503085 0.055199
vt 0.449303 0.030090
vt 0.391974 0.014712
vt 0.332845 0.009533
vt 0.502113 0.644741
vt 0.448247 0.669673
vt 0.550824 0.610826
vt 0.592898 0.568959
vt 0.627055 0.520416
vt 0.652253 0.466675
vt 0.667725 0.409372
vt 0.673001 0.350251
vt 0.667920 0.291114
vt 0.397530 0.711453
vt 0.608530 0.753424
vt 0.566560 0.964425
vt 0.009533 0.365665
vt 0.313779 0.425021
vt 0.009533 0.425021
vt 0.009533 0.306310
vt 0.313779 0.365665
vt 0.009533 0.246955
vt 0.313779 0.306310
vt 0.009533 0.187599
vt 0.313779 0.246955
vt 0.009533 0.128244
vt 0.313779 0.187599
vt 0.009533 0.068888
vt 0.313779 0.128244
vt 0.009533 0.009533
vt 0.313779 0.068888
vt 0.009533 0.899864
vt 0.313779 0.959220
vt 0.009533 0.959220
vt 0.009533 0.840509
vt 0.313779 0.899864
vt 0.009533 0.781153
vt 0.313779 0.840509
vt 0.009533 0.721798
vt 0.313779 0.781153
vt 0.009533 0.662443
vt 0.313779 0.721798
vt 0.009533 0.603087
vt 0.313779 0.662443
vt 0.009533 0.543732
vt 0.313779 0.603087
vt 0.009533 0.484376
vt 0.313779 0.543732
vt 0.990467 0.129055
vt 0.870945 0.307933
vt 0.692067 0.188411
vt 0.925996 0.922454
vt 0.714995 0.964425
vt 0.673025 0.753424
vt 0.313779 0.484376
vt 0.511722 0.987139
vt 0.452367 0.987139
vt 0.397530 0.964425
vt 0.355559 0.922454
vt 0.332845 0.867617
vt 0.332845 0.808261
vt 0.355559 0.753424
vt 0.452367 0.688739
vt 0.511722 0.688739
vt 0.566559 0.711453
vt 0.631244 0.808261
vt 0.631245 0.867617
vt 0.608530 0.922454
vt 0.313779 0.009533
vt 0.692067 0.129055
vt 0.714782 0.074218
vt 0.756752 0.032247
vt 0.811590 0.009533
vt 0.870945 0.009533
vt 0.925782 0.032247
vt 0.967753 0.074218
vt 0.990467 0.188411
vt 0.967753 0.243248
vt 0.925782 0.285219
vt 0.811589 0.307933
vt 0.756752 0.285218
vt 0.714781 0.243248
vt 0.714995 0.711454
vt 0.769833 0.688739
vt 0.829188 0.688739
vt 0.884025 0.711454
vt 0.925996 0.753424
vt 0.948710 0.808261
vt 0.948710 0.867617
vt 0.884025 0.964425
vt 0.829188 0.987139
vt 0.769833 0.987139
vt 0.673025 0.922454
vt 0.650310 0.867617
vt 0.650310 0.808261
s 0
usemtl マテリアル
f 17/1/1 3/2/1 2/3/1
f 17/1/2 4/4/2 3/2/2
f 17/1/3 5/5/3 4/4/3
f 17/1/4 6/6/4 5/5/4
f 17/1/5 7/7/5 6/6/5
f 17/1/6 8/8/6 7/7/6
f 17/1/7 9/9/7 8/8/7
f 17/1/8 10/10/8 9/11/8
f 17/1/9 11/12/9 10/10/9
f 17/1/10 12/13/10 11/12/10
f 17/1/11 13/14/11 12/13/11
f 17/1/12 14/15/12 13/14/12
f 17/1/13 15/16/13 14/15/13
f 17/1/14 16/17/14 15/16/14
f 17/1/15 1/18/15 16/17/15
f 8/19/16 12/20/16 16/21/16
f 17/1/17 2/3/17 1/18/17
f 23/22/18 20/23/18 21/24/18
f 25/25/19 22/26/19 23/22/19
f 27/27/20 24/28/20 25/25/20
f 29/29/21 26/30/21 27/27/21
f 31/31/22 28/32/22 29/29/22
f 33/33/23 30/34/23 31/31/23
f 35/35/24 32/36/24 33/33/24
f 37/37/25 34/38/25 35/39/25
f 39/40/26 36/41/26 37/37/26
f 41/42/27 38/43/27 39/40/27
f 43/44/28 40/45/28 41/42/28
f 45/46/29 42/47/29 43/44/29
f 47/48/30 44/49/30 45/46/30
f 49/50/31 46/51/31 47/48/31
f 19/52/32 48/53/32 49/50/32
f 37/54/33 29/55/33 21/56/33
f 32/57/16 40/58/16 48/59/16
f 21/24/34 18/60/34 19/52/34
f 16/21/16 1/61/16 2/62/16
f 2/62/16 3/63/16 16/21/16
f 3/63/16 4/64/16 16/21/16
f 4/64/16 5/65/16 6/66/16
f 6/66/16 7/67/16 4/64/16
f 7/67/16 8/19/16 4/64/16
f 8/19/16 9/68/16 10/69/16
f 10/69/16 11/70/16 8/19/16
f 11/70/16 12/20/16 8/19/16
f 12/20/16 13/71/16 14/72/16
f 14/72/16 15/73/16 12/20/16
f 15/73/16 16/21/16 12/20/16
f 16/21/16 4/64/16 8/19/16
f 23/22/18 22/26/18 20/23/18
f 25/25/19 24/28/19 22/26/19
f 27/27/20 26/30/20 24/28/20
f 29/29/21 28/32/21 26/30/21
f 31/31/22 30/34/22 28/32/22
f 33/33/23 32/36/23 30/34/23
f 35/35/24 34/74/24 32/36/24
f 37/37/25 36/41/25 34/38/25
f 39/40/26 38/43/26 36/41/26
f 41/42/27 40/45/27 38/43/27
f 43/44/28 42/47/28 40/45/28
f 45/46/29 44/49/29 42/47/29
f 47/48/30 46/51/30 44/49/30
f 49/50/31 48/53/31 46/51/31
f 19/52/32 18/60/32 48/53/32
f 21/56/33 19/75/33 49/76/33
f 49/76/33 47/77/33 45/78/33
f 45/78/33 43/79/33 41/80/33
f 41/80/33 39/81/33 37/54/33
f 37/54/33 35/82/33 33/83/33
f 33/83/33 31/84/33 29/55/33
f 29/55/33 27/85/33 25/86/33
f 25/86/33 23/87/33 21/56/33
f 21/56/33 49/76/33 45/78/33
f 45/78/33 41/80/33 37/54/33
f 37/54/33 33/83/33 29/55/33
f 29/55/33 25/86/33 21/56/33
f 21/56/33 45/78/33 37/54/33
f 48/59/16 18/88/16 20/89/16
f 20/89/16 22/90/16 24/91/16
f 24/91/16 26/92/16 28/93/16
f 28/93/16 30/94/16 32/57/16
f 32/57/16 34/95/16 36/96/16
f 36/96/16 38/97/16 40/58/16
f 40/58/16 42/98/16 44/99/16
f 44/99/16 46/100/16 48/59/16
f 48/59/16 20/89/16 24/91/16
f 24/91/16 28/93/16 32/57/16
f 32/57/16 36/96/16 40/58/16
f 40/58/16 44/99/16 48/59/16
f 48/59/16 24/91/16 32/57/16
f 21/24/34 20/23/34 18/60/34
