# Blender 4.4.3
# www.blender.org
mtllib slipDamage.mtl
o トーラス
v -1.536799 0.000000 0.000000
v -1.495620 0.017890 0.000000
v -1.383119 0.030986 0.000000
v -1.229439 0.035779 0.000000
v -1.075759 0.030986 0.000000
v -0.963258 0.017890 0.000000
v -0.922079 0.000000 0.000000
v -0.963258 -0.017890 0.000000
v -1.075759 -0.030986 0.000000
v -1.229439 -0.035779 0.000000
v -1.383119 -0.030986 0.000000
v -1.495620 -0.017890 0.000000
v -1.523651 0.000000 0.200592
v -1.482825 0.017890 0.195218
v -1.371286 0.030986 0.180533
v -1.218921 0.035779 0.160474
v -1.066556 0.030986 0.140415
v -0.955017 0.017890 0.125730
v -0.914191 0.000000 0.120355
v -0.955017 -0.017890 0.125730
v -1.066556 -0.030986 0.140415
v -1.218921 -0.035779 0.160474
v -1.371286 -0.030986 0.180533
v -1.482825 -0.017890 0.195218
v -1.484433 0.000000 0.397753
v -1.444658 0.017890 0.387095
v -1.335990 0.030986 0.357977
v -1.187547 0.035779 0.318202
v -1.039103 0.030986 0.278427
v -0.930435 0.017890 0.249309
v -0.890660 0.000000 0.238652
v -0.930435 -0.017890 0.249309
v -1.039103 -0.030986 0.278427
v -1.187547 -0.035779 0.318202
v -1.335990 -0.030986 0.357977
v -1.444658 -0.017890 0.387095
v -1.419817 0.000000 0.588107
v -1.381773 0.017890 0.572349
v -1.277835 0.030986 0.529297
v -1.135854 0.035779 0.470486
v -0.993872 0.030986 0.411675
v -0.889934 0.017890 0.368623
v -0.851890 0.000000 0.352864
v -0.889934 -0.017890 0.368623
v -0.993872 -0.030986 0.411675
v -1.135854 -0.035779 0.470486
v -1.277835 -0.030986 0.529297
v -1.381773 -0.017890 0.572349
v -1.330907 0.000000 0.768399
v -1.295245 0.017890 0.747810
v -1.197816 0.030986 0.691560
v -1.064725 0.035779 0.614720
v -0.931635 0.030986 0.537880
v -0.834205 0.017890 0.481629
v -0.798544 0.000000 0.461040
v -0.834205 -0.017890 0.481629
v -0.931635 -0.030986 0.537880
v -1.064725 -0.035779 0.614720
v -1.197816 -0.030986 0.691560
v -1.295245 -0.017890 0.747810
v -1.219224 0.000000 0.935544
v -1.186555 0.017890 0.910476
v -1.097302 0.030986 0.841989
v -0.975380 0.035779 0.748435
v -0.853457 0.030986 0.654880
v -0.764204 0.017890 0.586394
v -0.731535 0.000000 0.561326
v -0.764204 -0.017890 0.586394
v -0.853457 -0.030986 0.654880
v -0.975380 -0.035779 0.748435
v -1.097302 -0.030986 0.841989
v -1.186555 -0.017890 0.910476
v -1.086681 0.000000 1.086681
v -1.057563 0.017890 1.057563
v -0.978013 0.030986 0.978013
v -0.869344 0.035779 0.869345
v -0.760676 0.030986 0.760677
v -0.681126 0.017890 0.681126
v -0.652008 0.000000 0.652008
v -0.681126 -0.017890 0.681126
v -0.760676 -0.030986 0.760677
v -0.869344 -0.035779 0.869345
v -0.978013 -0.030986 0.978013
v -1.057563 -0.017890 1.057563
v -0.935544 0.000000 1.219224
v -0.910476 0.017890 1.186555
v -0.841990 0.030986 1.097302
v -0.748435 0.035779 0.975379
v -0.654881 0.030986 0.853457
v -0.586394 0.017890 0.764203
v -0.561326 0.000000 0.731534
v -0.586394 -0.017890 0.764203
v -0.654881 -0.030986 0.853457
v -0.748435 -0.035779 0.975379
v -0.841990 -0.030986 1.097302
v -0.910476 -0.017890 1.186555
v -0.768399 0.000000 1.330907
v -0.747810 0.017890 1.295245
v -0.691559 0.030986 1.197816
v -0.614719 0.035779 1.064725
v -0.537879 0.030986 0.931635
v -0.481629 0.017890 0.834206
v -0.461040 0.000000 0.798544
v -0.481629 -0.017890 0.834206
v -0.537879 -0.030986 0.931635
v -0.614719 -0.035779 1.064725
v -0.691559 -0.030986 1.197816
v -0.747810 -0.017890 1.295245
v -0.588108 0.000000 1.419817
v -0.572349 0.017890 1.381773
v -0.529297 0.030986 1.277835
v -0.470486 0.035779 1.135853
v -0.411675 0.030986 0.993872
v -0.368623 0.017890 0.889934
v -0.352865 0.000000 0.851890
v -0.368623 -0.017890 0.889934
v -0.411675 -0.030986 0.993872
v -0.470486 -0.035779 1.135853
v -0.529297 -0.030986 1.277835
v -0.572349 -0.017890 1.381773
v -0.397753 0.000000 1.484433
v -0.387095 0.017890 1.444658
v -0.357978 0.030986 1.335990
v -0.318202 0.035779 1.187547
v -0.278427 0.030986 1.039103
v -0.249309 0.017890 0.930435
v -0.238652 0.000000 0.890660
v -0.249309 -0.017890 0.930435
v -0.278427 -0.030986 1.039103
v -0.318202 -0.035779 1.187547
v -0.357978 -0.030986 1.335990
v -0.387095 -0.017890 1.444658
v -0.200592 0.000000 1.523651
v -0.195217 0.017890 1.482825
v -0.180533 0.030986 1.371286
v -0.160474 0.035779 1.218921
v -0.140415 0.030986 1.066556
v -0.125730 0.017890 0.955017
v -0.120355 0.000000 0.914191
v -0.125730 -0.017890 0.955017
v -0.140415 -0.030986 1.066556
v -0.160474 -0.035779 1.218921
v -0.180533 -0.030986 1.371286
v -0.195217 -0.017890 1.482825
v -0.000000 0.000000 1.536799
v -0.000000 0.017890 1.495620
v -0.000000 0.030986 1.383119
v -0.000000 0.035779 1.229439
v -0.000000 0.030986 1.075759
v -0.000000 0.017890 0.963258
v -0.000000 0.000000 0.922079
v -0.000000 -0.017890 0.963258
v -0.000000 -0.030986 1.075759
v -0.000000 -0.035779 1.229439
v -0.000000 -0.030986 1.383119
v -0.000000 -0.017890 1.495620
v 0.200593 0.000000 1.523651
v 0.195218 0.017890 1.482825
v 0.180533 0.030986 1.371286
v 0.160474 0.035779 1.218921
v 0.140415 0.030986 1.066556
v 0.125730 0.017890 0.955017
v 0.120356 0.000000 0.914191
v 0.125730 -0.017890 0.955017
v 0.140415 -0.030986 1.066556
v 0.160474 -0.035779 1.218921
v 0.180533 -0.030986 1.371286
v 0.195218 -0.017890 1.482825
v 0.397753 0.000000 1.484434
v 0.387095 0.017890 1.444658
v 0.357977 0.030986 1.335990
v 0.318202 0.035779 1.187547
v 0.278427 0.030986 1.039104
v 0.249309 0.017890 0.930435
v 0.238652 0.000000 0.890660
v 0.249309 -0.017890 0.930435
v 0.278427 -0.030986 1.039104
v 0.318202 -0.035779 1.187547
v 0.357977 -0.030986 1.335990
v 0.387095 -0.017890 1.444658
v 0.588108 0.000000 1.419817
v 0.572349 0.017890 1.381773
v 0.529297 0.030986 1.277835
v 0.470486 0.035779 1.135853
v 0.411675 0.030986 0.993872
v 0.368623 0.017890 0.889934
v 0.352865 0.000000 0.851890
v 0.368623 -0.017890 0.889934
v 0.411675 -0.030986 0.993872
v 0.470486 -0.035779 1.135853
v 0.529297 -0.030986 1.277835
v 0.572349 -0.017890 1.381773
v 0.768399 0.000000 1.330907
v 0.747810 0.017890 1.295245
v 0.691559 0.030986 1.197816
v 0.614719 0.035779 1.064725
v 0.537879 0.030986 0.931635
v 0.481629 0.017890 0.834206
v 0.461039 0.000000 0.798544
v 0.481629 -0.017890 0.834206
v 0.537879 -0.030986 0.931635
v 0.614719 -0.035779 1.064725
v 0.691559 -0.030986 1.197816
v 0.747810 -0.017890 1.295245
v 0.935544 0.000000 1.219224
v 0.910476 0.017890 1.186555
v 0.841989 0.030986 1.097302
v 0.748435 0.035779 0.975379
v 0.654881 0.030986 0.853457
v 0.586394 0.017890 0.764204
v 0.561326 0.000000 0.731535
v 0.586394 -0.017890 0.764204
v 0.654881 -0.030986 0.853457
v 0.748435 -0.035779 0.975379
v 0.841989 -0.030986 1.097302
v 0.910476 -0.017890 1.186555
v 1.086681 0.000000 1.086680
v 1.057563 0.017890 1.057563
v 0.978013 0.030986 0.978012
v 0.869345 0.035779 0.869344
v 0.760677 0.030986 0.760676
v 0.681126 0.017890 0.681126
v 0.652009 0.000000 0.652008
v 0.681126 -0.017890 0.681126
v 0.760677 -0.030986 0.760676
v 0.869345 -0.035779 0.869344
v 0.978013 -0.030986 0.978012
v 1.057563 -0.017890 1.057563
v 1.219224 0.000000 0.935544
v 1.186555 0.017890 0.910476
v 1.097302 0.030986 0.841989
v 0.975379 0.035779 0.748435
v 0.853457 0.030986 0.654881
v 0.764204 0.017890 0.586394
v 0.731535 0.000000 0.561326
v 0.764204 -0.017890 0.586394
v 0.853457 -0.030986 0.654881
v 0.975379 -0.035779 0.748435
v 1.097302 -0.030986 0.841989
v 1.186555 -0.017890 0.910476
v 1.330906 0.000000 0.768400
v 1.295245 0.017890 0.747810
v 1.197816 0.030986 0.691560
v 1.064725 0.035779 0.614720
v 0.931634 0.030986 0.537880
v 0.834205 0.017890 0.481629
v 0.798544 0.000000 0.461040
v 0.834205 -0.017890 0.481629
v 0.931634 -0.030986 0.537880
v 1.064725 -0.035779 0.614720
v 1.197816 -0.030986 0.691560
v 1.295245 -0.017890 0.747810
v 1.419817 0.000000 0.588107
v 1.381773 0.017890 0.572349
v 1.277835 0.030986 0.529297
v 1.135853 0.035779 0.470486
v 0.993872 0.030986 0.411675
v 0.889934 0.017890 0.368623
v 0.851890 0.000000 0.352864
v 0.889934 -0.017890 0.368623
v 0.993872 -0.030986 0.411675
v 1.135853 -0.035779 0.470486
v 1.277835 -0.030986 0.529297
v 1.381773 -0.017890 0.572349
v 1.484434 0.000000 0.397753
v 1.444658 0.017890 0.387095
v 1.335990 0.030986 0.357977
v 1.187547 0.035779 0.318202
v 1.039104 0.030986 0.278427
v 0.930435 0.017890 0.249309
v 0.890660 0.000000 0.238652
v 0.930435 -0.017890 0.249309
v 1.039104 -0.030986 0.278427
v 1.187547 -0.035779 0.318202
v 1.335990 -0.030986 0.357977
v 1.444658 -0.017890 0.387095
v 1.523651 0.000000 0.200593
v 1.482825 0.017890 0.195218
v 1.371286 0.030986 0.180533
v 1.218921 0.035779 0.160474
v 1.066556 0.030986 0.140415
v 0.955017 0.017890 0.125730
v 0.914191 0.000000 0.120356
v 0.955017 -0.017890 0.125730
v 1.066556 -0.030986 0.140415
v 1.218921 -0.035779 0.160474
v 1.371286 -0.030986 0.180533
v 1.482825 -0.017890 0.195218
v 1.536799 0.000000 0.000000
v 1.495620 0.017890 0.000000
v 1.383119 0.030986 0.000000
v 1.229439 0.035779 0.000000
v 1.075759 0.030986 0.000000
v 0.963258 0.017890 0.000000
v 0.922079 0.000000 0.000000
v 0.963258 -0.017890 0.000000
v 1.075759 -0.030986 0.000000
v 1.229439 -0.035779 0.000000
v 1.383119 -0.030986 0.000000
v 1.495620 -0.017890 0.000000
v 1.523651 0.000000 -0.200593
v 1.482825 0.017890 -0.195218
v 1.371286 0.030986 -0.180533
v 1.218921 0.035779 -0.160474
v 1.066556 0.030986 -0.140415
v 0.955017 0.017890 -0.125730
v 0.914191 0.000000 -0.120356
v 0.955017 -0.017890 -0.125730
v 1.066556 -0.030986 -0.140415
v 1.218921 -0.035779 -0.160474
v 1.371286 -0.030986 -0.180533
v 1.482825 -0.017890 -0.195218
v 1.484434 0.000000 -0.397753
v 1.444658 0.017890 -0.387095
v 1.335990 0.030986 -0.357977
v 1.187547 0.035779 -0.318202
v 1.039104 0.030986 -0.278427
v 0.930435 0.017890 -0.249309
v 0.890660 0.000000 -0.238652
v 0.930435 -0.017890 -0.249309
v 1.039104 -0.030986 -0.278427
v 1.187547 -0.035779 -0.318202
v 1.335990 -0.030986 -0.357977
v 1.444658 -0.017890 -0.387095
v 1.419817 0.000000 -0.588107
v 1.381773 0.017890 -0.572349
v 1.277835 0.030986 -0.529296
v 1.135854 0.035779 -0.470485
v 0.993872 0.030986 -0.411675
v 0.889934 0.017890 -0.368622
v 0.851890 0.000000 -0.352864
v 0.889934 -0.017890 -0.368622
v 0.993872 -0.030986 -0.411675
v 1.135854 -0.035779 -0.470485
v 1.277835 -0.030986 -0.529296
v 1.381773 -0.017890 -0.572349
v 1.330907 0.000000 -0.768399
v 1.295245 0.017890 -0.747810
v 1.197816 0.030986 -0.691559
v 1.064725 0.035779 -0.614719
v 0.931635 0.030986 -0.537879
v 0.834206 0.017890 -0.481629
v 0.798544 0.000000 -0.461039
v 0.834206 -0.017890 -0.481629
v 0.931635 -0.030986 -0.537879
v 1.064725 -0.035779 -0.614719
v 1.197816 -0.030986 -0.691559
v 1.295245 -0.017890 -0.747810
v 1.219224 0.000000 -0.935544
v 1.186555 0.017890 -0.910476
v 1.097302 0.030986 -0.841989
v 0.975379 0.035779 -0.748435
v 0.853457 0.030986 -0.654881
v 0.764204 0.017890 -0.586394
v 0.731535 0.000000 -0.561326
v 0.764204 -0.017890 -0.586394
v 0.853457 -0.030986 -0.654881
v 0.975379 -0.035779 -0.748435
v 1.097302 -0.030986 -0.841989
v 1.186555 -0.017890 -0.910476
v 1.086681 0.000000 -1.086680
v 1.057563 0.017890 -1.057563
v 0.978013 0.030986 -0.978012
v 0.869345 0.035779 -0.869344
v 0.760677 0.030986 -0.760676
v 0.681126 0.017890 -0.681126
v 0.652009 0.000000 -0.652008
v 0.681126 -0.017890 -0.681126
v 0.760677 -0.030986 -0.760676
v 0.869345 -0.035779 -0.869344
v 0.978013 -0.030986 -0.978012
v 1.057563 -0.017890 -1.057563
v 0.935544 0.000000 -1.219224
v 0.910477 0.017890 -1.186555
v 0.841990 0.030986 -1.097301
v 0.748435 0.035779 -0.975379
v 0.654881 0.030986 -0.853457
v 0.586394 0.017890 -0.764203
v 0.561327 0.000000 -0.731534
v 0.586394 -0.017890 -0.764203
v 0.654881 -0.030986 -0.853457
v 0.748435 -0.035779 -0.975379
v 0.841990 -0.030986 -1.097301
v 0.910477 -0.017890 -1.186555
v 0.768399 0.000000 -1.330907
v 0.747810 0.017890 -1.295245
v 0.691559 0.030986 -1.197816
v 0.614719 0.035779 -1.064725
v 0.537879 0.030986 -0.931635
v 0.481629 0.017890 -0.834206
v 0.461039 0.000000 -0.798544
v 0.481629 -0.017890 -0.834206
v 0.537879 -0.030986 -0.931635
v 0.614719 -0.035779 -1.064725
v 0.691559 -0.030986 -1.197816
v 0.747810 -0.017890 -1.295245
v 0.588108 0.000000 -1.419817
v 0.572349 0.017890 -1.381773
v 0.529297 0.030986 -1.277835
v 0.470486 0.035779 -1.135853
v 0.411675 0.030986 -0.993872
v 0.368623 0.017890 -0.889934
v 0.352865 0.000000 -0.851890
v 0.368623 -0.017890 -0.889934
v 0.411675 -0.030986 -0.993872
v 0.470486 -0.035779 -1.135853
v 0.529297 -0.030986 -1.277835
v 0.572349 -0.017890 -1.381773
v 0.397753 0.000000 -1.484433
v 0.387096 0.017890 -1.444658
v 0.357978 0.030986 -1.335990
v 0.318203 0.035779 -1.187547
v 0.278427 0.030986 -1.039103
v 0.249310 0.017890 -0.930435
v 0.238652 0.000000 -0.890660
v 0.249310 -0.017890 -0.930435
v 0.278427 -0.030986 -1.039103
v 0.318203 -0.035779 -1.187547
v 0.357978 -0.030986 -1.335990
v 0.387096 -0.017890 -1.444658
v 0.200593 0.000000 -1.523651
v 0.195219 0.017890 -1.482825
v 0.180534 0.030986 -1.371286
v 0.160475 0.035779 -1.218921
v 0.140415 0.030986 -1.066556
v 0.125731 0.017890 -0.955017
v 0.120356 0.000000 -0.914191
v 0.125731 -0.017890 -0.955017
v 0.140415 -0.030986 -1.066556
v 0.160475 -0.035779 -1.218921
v 0.180534 -0.030986 -1.371286
v 0.195219 -0.017890 -1.482825
v -0.000000 0.000000 -1.536799
v -0.000000 0.017890 -1.495620
v -0.000000 0.030986 -1.383119
v -0.000000 0.035779 -1.229439
v -0.000000 0.030986 -1.075759
v -0.000000 0.017890 -0.963258
v -0.000000 0.000000 -0.922079
v -0.000000 -0.017890 -0.963258
v -0.000000 -0.030986 -1.075759
v -0.000000 -0.035779 -1.229439
v -0.000000 -0.030986 -1.383119
v -0.000000 -0.017890 -1.495620
v -0.200592 0.000000 -1.523651
v -0.195217 0.017890 -1.482825
v -0.180533 0.030986 -1.371286
v -0.160474 0.035779 -1.218921
v -0.140415 0.030986 -1.066556
v -0.125730 0.017890 -0.955017
v -0.120355 0.000000 -0.914191
v -0.125730 -0.017890 -0.955017
v -0.140415 -0.030986 -1.066556
v -0.160474 -0.035779 -1.218921
v -0.180533 -0.030986 -1.371286
v -0.195217 -0.017890 -1.482825
v -0.397752 0.000000 -1.484434
v -0.387094 0.017890 -1.444658
v -0.357977 0.030986 -1.335990
v -0.318202 0.035779 -1.187547
v -0.278426 0.030986 -1.039104
v -0.249309 0.017890 -0.930435
v -0.238651 0.000000 -0.890660
v -0.249309 -0.017890 -0.930435
v -0.278426 -0.030986 -1.039104
v -0.318202 -0.035779 -1.187547
v -0.357977 -0.030986 -1.335990
v -0.387094 -0.017890 -1.444658
v -0.588108 0.000000 -1.419817
v -0.572349 0.017890 -1.381773
v -0.529297 0.030986 -1.277835
v -0.470486 0.035779 -1.135853
v -0.411675 0.030986 -0.993872
v -0.368623 0.017890 -0.889934
v -0.352865 0.000000 -0.851890
v -0.368623 -0.017890 -0.889934
v -0.411675 -0.030986 -0.993872
v -0.470486 -0.035779 -1.135853
v -0.529297 -0.030986 -1.277835
v -0.572349 -0.017890 -1.381773
v -0.768399 0.000000 -1.330907
v -0.747810 0.017890 -1.295245
v -0.691559 0.030986 -1.197816
v -0.614719 0.035779 -1.064725
v -0.537879 0.030986 -0.931635
v -0.481629 0.017890 -0.834206
v -0.461040 0.000000 -0.798544
v -0.481629 -0.017890 -0.834206
v -0.537879 -0.030986 -0.931635
v -0.614719 -0.035779 -1.064725
v -0.691559 -0.030986 -1.197816
v -0.747810 -0.017890 -1.295245
v -0.935543 0.000000 -1.219225
v -0.910476 0.017890 -1.186556
v -0.841989 0.030986 -1.097302
v -0.748435 0.035779 -0.975380
v -0.654880 0.030986 -0.853457
v -0.586394 0.017890 -0.764204
v -0.561326 0.000000 -0.731535
v -0.586394 -0.017890 -0.764204
v -0.654880 -0.030986 -0.853457
v -0.748435 -0.035779 -0.975380
v -0.841989 -0.030986 -1.097302
v -0.910476 -0.017890 -1.186556
v -1.086680 0.000000 -1.086681
v -1.057563 0.017890 -1.057564
v -0.978012 0.030986 -0.978013
v -0.869344 0.035779 -0.869345
v -0.760676 0.030986 -0.760677
v -0.681126 0.017890 -0.681126
v -0.652008 0.000000 -0.652009
v -0.681126 -0.017890 -0.681126
v -0.760676 -0.030986 -0.760677
v -0.869344 -0.035779 -0.869345
v -0.978012 -0.030986 -0.978013
v -1.057563 -0.017890 -1.057564
v -1.219224 0.000000 -0.935544
v -1.186555 0.017890 -0.910476
v -1.097302 0.030986 -0.841989
v -0.975380 0.035779 -0.748435
v -0.853457 0.030986 -0.654880
v -0.764204 0.017890 -0.586394
v -0.731535 0.000000 -0.561326
v -0.764204 -0.017890 -0.586394
v -0.853457 -0.030986 -0.654880
v -0.975380 -0.035779 -0.748435
v -1.097302 -0.030986 -0.841989
v -1.186555 -0.017890 -0.910476
v -1.330907 0.000000 -0.768399
v -1.295245 0.017890 -0.747810
v -1.197816 0.030986 -0.691560
v -1.064725 0.035779 -0.614720
v -0.931635 0.030986 -0.537880
v -0.834205 0.017890 -0.481629
v -0.798544 0.000000 -0.461040
v -0.834205 -0.017890 -0.481629
v -0.931635 -0.030986 -0.537880
v -1.064725 -0.035779 -0.614720
v -1.197816 -0.030986 -0.691560
v -1.295245 -0.017890 -0.747810
v -1.419817 0.000000 -0.588108
v -1.381773 0.017890 -0.572350
v -1.277835 0.030986 -0.529297
v -1.135853 0.035779 -0.470486
v -0.993872 0.030986 -0.411676
v -0.889934 0.017890 -0.368623
v -0.851890 0.000000 -0.352865
v -0.889934 -0.017890 -0.368623
v -0.993872 -0.030986 -0.411676
v -1.135853 -0.035779 -0.470486
v -1.277835 -0.030986 -0.529297
v -1.381773 -0.017890 -0.572350
v -1.484434 0.000000 -0.397752
v -1.444658 0.017890 -0.387095
v -1.335990 0.030986 -0.357977
v -1.187547 0.035779 -0.318202
v -1.039104 0.030986 -0.278427
v -0.930435 0.017890 -0.249309
v -0.890660 0.000000 -0.238651
v -0.930435 -0.017890 -0.249309
v -1.039104 -0.030986 -0.278427
v -1.187547 -0.035779 -0.318202
v -1.335990 -0.030986 -0.357977
v -1.444658 -0.017890 -0.387095
v -1.523651 0.000000 -0.200592
v -1.482825 0.017890 -0.195218
v -1.371286 0.030986 -0.180533
v -1.218921 0.035779 -0.160474
v -1.066556 0.030986 -0.140415
v -0.955017 0.017890 -0.125730
v -0.914191 0.000000 -0.120355
v -0.955017 -0.017890 -0.125730
v -1.066556 -0.030986 -0.140415
v -1.218921 -0.035779 -0.160474
v -1.371286 -0.030986 -0.180533
v -1.482825 -0.017890 -0.195218
vn -0.3983 0.9169 0.0261
vn -0.1156 0.9933 0.0076
vn -0.0312 0.9995 0.0020
vn 0.0312 0.9995 -0.0020
vn 0.1156 0.9933 -0.0076
vn 0.3983 0.9169 -0.0261
vn 0.3983 -0.9169 -0.0261
vn 0.1156 -0.9933 -0.0076
vn 0.0312 -0.9995 -0.0020
vn -0.0312 -0.9995 0.0020
vn -0.1156 -0.9933 0.0076
vn -0.3983 -0.9169 0.0261
vn -0.3915 0.9169 0.0779
vn -0.1136 0.9933 0.0226
vn -0.0306 0.9995 0.0061
vn 0.0306 0.9995 -0.0061
vn 0.1136 0.9933 -0.0226
vn 0.3915 0.9169 -0.0779
vn 0.3915 -0.9169 -0.0779
vn 0.1136 -0.9933 -0.0226
vn 0.0306 -0.9995 -0.0061
vn -0.0306 -0.9995 0.0061
vn -0.1136 -0.9933 0.0226
vn -0.3915 -0.9169 0.0779
vn -0.3780 0.9169 0.1283
vn -0.1097 0.9933 0.0372
vn -0.0296 0.9995 0.0100
vn 0.0296 0.9995 -0.0100
vn 0.1097 0.9933 -0.0372
vn 0.3780 0.9169 -0.1283
vn 0.3780 -0.9169 -0.1283
vn 0.1097 -0.9933 -0.0372
vn 0.0296 -0.9995 -0.0100
vn -0.0296 -0.9995 0.0100
vn -0.1097 -0.9933 0.0372
vn -0.3780 -0.9169 0.1283
vn -0.3580 0.9169 0.1766
vn -0.1039 0.9933 0.0512
vn -0.0280 0.9995 0.0138
vn 0.0280 0.9995 -0.0138
vn 0.1039 0.9933 -0.0512
vn 0.3580 0.9169 -0.1766
vn 0.3580 -0.9169 -0.1766
vn 0.1039 -0.9933 -0.0512
vn 0.0280 -0.9995 -0.0138
vn -0.0280 -0.9995 0.0138
vn -0.1039 -0.9933 0.0512
vn -0.3580 -0.9169 0.1766
vn -0.3319 0.9169 0.2218
vn -0.0963 0.9933 0.0644
vn -0.0260 0.9995 0.0174
vn 0.0260 0.9995 -0.0174
vn 0.0963 0.9933 -0.0644
vn 0.3319 0.9169 -0.2218
vn 0.3319 -0.9169 -0.2218
vn 0.0963 -0.9933 -0.0644
vn 0.0260 -0.9995 -0.0174
vn -0.0260 -0.9995 0.0174
vn -0.0963 -0.9933 0.0644
vn -0.3319 -0.9169 0.2218
vn -0.3001 0.9169 0.2632
vn -0.0871 0.9933 0.0764
vn -0.0235 0.9995 0.0206
vn 0.0235 0.9995 -0.0206
vn 0.0871 0.9933 -0.0764
vn 0.3001 0.9169 -0.2632
vn 0.3001 -0.9169 -0.2632
vn 0.0871 -0.9933 -0.0764
vn 0.0235 -0.9995 -0.0206
vn -0.0235 -0.9995 0.0206
vn -0.0871 -0.9933 0.0764
vn -0.3001 -0.9169 0.2632
vn -0.2632 0.9169 0.3001
vn -0.0764 0.9933 0.0871
vn -0.0206 0.9995 0.0235
vn 0.0206 0.9995 -0.0235
vn 0.0764 0.9933 -0.0871
vn 0.2632 0.9169 -0.3001
vn 0.2632 -0.9169 -0.3001
vn 0.0764 -0.9933 -0.0871
vn 0.0206 -0.9995 -0.0235
vn -0.0206 -0.9995 0.0235
vn -0.0764 -0.9933 0.0871
vn -0.2632 -0.9169 0.3001
vn -0.2218 0.9169 0.3319
vn -0.0644 0.9933 0.0963
vn -0.0174 0.9995 0.0260
vn 0.0174 0.9995 -0.0260
vn 0.0644 0.9933 -0.0963
vn 0.2218 0.9169 -0.3319
vn 0.2218 -0.9169 -0.3319
vn 0.0644 -0.9933 -0.0963
vn 0.0174 -0.9995 -0.0260
vn -0.0174 -0.9995 0.0260
vn -0.0644 -0.9933 0.0963
vn -0.2218 -0.9169 0.3319
vn -0.1766 0.9169 0.3580
vn -0.0512 0.9933 0.1039
vn -0.0138 0.9995 0.0280
vn 0.0138 0.9995 -0.0280
vn 0.0512 0.9933 -0.1039
vn 0.1766 0.9169 -0.3580
vn 0.1766 -0.9169 -0.3580
vn 0.0512 -0.9933 -0.1039
vn 0.0138 -0.9995 -0.0280
vn -0.0138 -0.9995 0.0280
vn -0.0512 -0.9933 0.1039
vn -0.1766 -0.9169 0.3580
vn -0.1283 0.9169 0.3780
vn -0.0372 0.9933 0.1097
vn -0.0100 0.9995 0.0296
vn 0.0100 0.9995 -0.0296
vn 0.0372 0.9933 -0.1097
vn 0.1283 0.9169 -0.3780
vn 0.1283 -0.9169 -0.3780
vn 0.0372 -0.9933 -0.1097
vn 0.0100 -0.9995 -0.0296
vn -0.0100 -0.9995 0.0296
vn -0.0372 -0.9933 0.1097
vn -0.1283 -0.9169 0.3780
vn -0.0779 0.9169 0.3915
vn -0.0226 0.9933 0.1136
vn -0.0061 0.9995 0.0306
vn 0.0061 0.9995 -0.0306
vn 0.0226 0.9933 -0.1136
vn 0.0779 0.9169 -0.3915
vn 0.0779 -0.9169 -0.3915
vn 0.0226 -0.9933 -0.1136
vn 0.0061 -0.9995 -0.0306
vn -0.0061 -0.9995 0.0306
vn -0.0226 -0.9933 0.1136
vn -0.0779 -0.9169 0.3915
vn -0.0261 0.9169 0.3983
vn -0.0076 0.9933 0.1156
vn -0.0020 0.9995 0.0312
vn 0.0020 0.9995 -0.0312
vn 0.0076 0.9933 -0.1156
vn 0.0261 0.9169 -0.3983
vn 0.0261 -0.9169 -0.3983
vn 0.0076 -0.9933 -0.1156
vn 0.0020 -0.9995 -0.0312
vn -0.0020 -0.9995 0.0312
vn -0.0076 -0.9933 0.1156
vn -0.0261 -0.9169 0.3983
vn 0.0261 0.9169 0.3983
vn 0.0076 0.9933 0.1156
vn 0.0020 0.9995 0.0312
vn -0.0020 0.9995 -0.0312
vn -0.0076 0.9933 -0.1156
vn -0.0261 0.9169 -0.3983
vn -0.0261 -0.9169 -0.3983
vn -0.0076 -0.9933 -0.1156
vn -0.0020 -0.9995 -0.0312
vn 0.0020 -0.9995 0.0312
vn 0.0076 -0.9933 0.1156
vn 0.0261 -0.9169 0.3983
vn 0.0779 0.9169 0.3915
vn 0.0226 0.9933 0.1136
vn 0.0061 0.9995 0.0306
vn -0.0061 0.9995 -0.0306
vn -0.0226 0.9933 -0.1136
vn -0.0779 0.9169 -0.3915
vn -0.0779 -0.9169 -0.3915
vn -0.0226 -0.9933 -0.1136
vn -0.0061 -0.9995 -0.0306
vn 0.0061 -0.9995 0.0306
vn 0.0226 -0.9933 0.1136
vn 0.0779 -0.9169 0.3915
vn 0.1283 0.9169 0.3780
vn 0.0372 0.9933 0.1097
vn 0.0100 0.9995 0.0296
vn -0.0100 0.9995 -0.0296
vn -0.0372 0.9933 -0.1097
vn -0.1283 0.9169 -0.3780
vn -0.1283 -0.9169 -0.3780
vn -0.0372 -0.9933 -0.1097
vn -0.0100 -0.9995 -0.0296
vn 0.0100 -0.9995 0.0296
vn 0.0372 -0.9933 0.1097
vn 0.1283 -0.9169 0.3780
vn 0.1766 0.9169 0.3580
vn 0.0512 0.9933 0.1039
vn 0.0138 0.9995 0.0280
vn -0.0138 0.9995 -0.0280
vn -0.0512 0.9933 -0.1039
vn -0.1766 0.9169 -0.3580
vn -0.1766 -0.9169 -0.3580
vn -0.0512 -0.9933 -0.1039
vn -0.0138 -0.9995 -0.0280
vn 0.0138 -0.9995 0.0280
vn 0.0512 -0.9933 0.1039
vn 0.1766 -0.9169 0.3580
vn 0.2218 0.9169 0.3319
vn 0.0644 0.9933 0.0963
vn 0.0174 0.9995 0.0260
vn -0.0174 0.9995 -0.0260
vn -0.0644 0.9933 -0.0963
vn -0.2218 0.9169 -0.3319
vn -0.2218 -0.9169 -0.3319
vn -0.0644 -0.9933 -0.0963
vn -0.0174 -0.9995 -0.0260
vn 0.0174 -0.9995 0.0260
vn 0.0644 -0.9933 0.0963
vn 0.2218 -0.9169 0.3319
vn 0.2632 0.9169 0.3001
vn 0.0764 0.9933 0.0871
vn 0.0206 0.9995 0.0235
vn -0.0206 0.9995 -0.0235
vn -0.0764 0.9933 -0.0871
vn -0.2632 0.9169 -0.3001
vn -0.2632 -0.9169 -0.3001
vn -0.0764 -0.9933 -0.0871
vn -0.0206 -0.9995 -0.0235
vn 0.0206 -0.9995 0.0235
vn 0.0764 -0.9933 0.0871
vn 0.2632 -0.9169 0.3001
vn 0.3001 0.9169 0.2632
vn 0.0871 0.9933 0.0764
vn 0.0235 0.9995 0.0206
vn -0.0235 0.9995 -0.0206
vn -0.0871 0.9933 -0.0764
vn -0.3001 0.9169 -0.2632
vn -0.3001 -0.9169 -0.2632
vn -0.0871 -0.9933 -0.0764
vn -0.0235 -0.9995 -0.0206
vn 0.0235 -0.9995 0.0206
vn 0.0871 -0.9933 0.0764
vn 0.3001 -0.9169 0.2632
vn 0.3319 0.9169 0.2218
vn 0.0963 0.9933 0.0644
vn 0.0260 0.9995 0.0174
vn -0.0260 0.9995 -0.0174
vn -0.0963 0.9933 -0.0644
vn -0.3319 0.9169 -0.2218
vn -0.3319 -0.9169 -0.2218
vn -0.0963 -0.9933 -0.0644
vn -0.0260 -0.9995 -0.0174
vn 0.0260 -0.9995 0.0174
vn 0.0963 -0.9933 0.0644
vn 0.3319 -0.9169 0.2218
vn 0.3580 0.9169 0.1766
vn 0.1039 0.9933 0.0512
vn 0.0280 0.9995 0.0138
vn -0.0280 0.9995 -0.0138
vn -0.1039 0.9933 -0.0512
vn -0.3580 0.9169 -0.1766
vn -0.3580 -0.9169 -0.1766
vn -0.1039 -0.9933 -0.0512
vn -0.0280 -0.9995 -0.0138
vn 0.0280 -0.9995 0.0138
vn 0.1039 -0.9933 0.0512
vn 0.3580 -0.9169 0.1766
vn 0.3780 0.9169 0.1283
vn 0.1097 0.9933 0.0372
vn 0.0296 0.9995 0.0100
vn -0.0296 0.9995 -0.0100
vn -0.1097 0.9933 -0.0372
vn -0.3780 0.9169 -0.1283
vn -0.3780 -0.9169 -0.1283
vn -0.1097 -0.9933 -0.0372
vn -0.0296 -0.9995 -0.0100
vn 0.0296 -0.9995 0.0100
vn 0.1097 -0.9933 0.0372
vn 0.3780 -0.9169 0.1283
vn 0.3915 0.9169 0.0779
vn 0.1136 0.9933 0.0226
vn 0.0306 0.9995 0.0061
vn -0.0306 0.9995 -0.0061
vn -0.1136 0.9933 -0.0226
vn -0.3915 0.9169 -0.0779
vn -0.3915 -0.9169 -0.0779
vn -0.1136 -0.9933 -0.0226
vn -0.0306 -0.9995 -0.0061
vn 0.0306 -0.9995 0.0061
vn 0.1136 -0.9933 0.0226
vn 0.3915 -0.9169 0.0779
vn 0.3983 0.9169 0.0261
vn 0.1156 0.9933 0.0076
vn 0.0312 0.9995 0.0020
vn -0.0312 0.9995 -0.0020
vn -0.1156 0.9933 -0.0076
vn -0.3983 0.9169 -0.0261
vn -0.3983 -0.9169 -0.0261
vn -0.1156 -0.9933 -0.0076
vn -0.0312 -0.9995 -0.0020
vn 0.0312 -0.9995 0.0020
vn 0.1156 -0.9933 0.0076
vn 0.3983 -0.9169 0.0261
vt 0.242159 0.231865
vt 0.221699 0.234294
vt 0.232460 0.223415
vt 0.658365 0.068668
vt 0.654934 0.088633
vt 0.647484 0.076031
vt 0.665659 0.594500
vt 0.648326 0.602497
vt 0.653315 0.590347
vt 0.816638 0.807338
vt 0.798703 0.806874
vt 0.806832 0.798737
vt 0.609625 0.808122
vt 0.592735 0.809518
vt 0.601349 0.799746
vt 0.944082 0.502964
vt 0.937710 0.518271
vt 0.933004 0.510201
vt 0.973149 0.898028
vt 0.986057 0.908246
vt 0.973021 0.907336
vt 0.773743 0.181652
vt 0.780484 0.196396
vt 0.769512 0.193652
vt 0.291038 0.658740
vt 0.290594 0.640854
vt 0.299153 0.650635
vt 0.799494 0.274272
vt 0.818805 0.274792
vt 0.808928 0.283596
vt 0.174830 0.664810
vt 0.163296 0.681390
vt 0.160755 0.668559
vt 0.258930 0.293580
vt 0.258675 0.272856
vt 0.268426 0.281515
vt 0.216987 0.254459
vt 0.230365 0.243907
vt 0.672950 0.097819
vt 0.666581 0.082799
vt 0.652631 0.621095
vt 0.660019 0.608226
vt 0.796817 0.824705
vt 0.807291 0.816670
vt 0.616811 0.817453
vt 0.599854 0.816655
vt 0.949393 0.512647
vt 0.941113 0.526937
vt 0.972081 0.888800
vt 0.986153 0.897251
vt 0.782839 0.184265
vt 0.791491 0.197638
vt 0.273241 0.660602
vt 0.281272 0.650156
vt 0.796087 0.255379
vt 0.808053 0.264307
vt 0.194062 0.670924
vt 0.179015 0.677116
vt 0.239469 0.300983
vt 0.248134 0.286290
vt 0.196279 0.251389
vt 0.209580 0.243673
vt 0.677341 0.113665
vt 0.660566 0.102132
vt 0.643620 0.632891
vt 0.641783 0.613888
vt 0.779613 0.819620
vt 0.789575 0.813872
vt 0.610990 0.833400
vt 0.605954 0.824660
vt 0.953593 0.522814
vt 0.943586 0.535904
vt 0.969848 0.879802
vt 0.984826 0.886377
vt 0.801499 0.185324
vt 0.792104 0.185423
vt 0.278303 0.677768
vt 0.284050 0.667837
vt 0.788955 0.266335
vt 0.783110 0.248132
vt 0.200871 0.651956
vt 0.188288 0.659213
vt 0.245118 0.320863
vt 0.251116 0.306776
vt 0.202144 0.263252
vt 0.182077 0.257275
vt 0.679508 0.129987
vt 0.664378 0.116299
vt 0.624532 0.633627
vt 0.633806 0.624324
vt 0.773176 0.836364
vt 0.785381 0.831309
vt 0.627138 0.838575
vt 0.622634 0.827699
vt 0.957612 0.544253
vt 0.956203 0.533478
vt 0.978223 0.865454
vt 0.982132 0.875822
vt 0.810794 0.183988
vt 0.802501 0.197442
vt 0.261593 0.684179
vt 0.266644 0.672008
vt 0.765348 0.255021
vt 0.777510 0.259886
vt 0.221008 0.652880
vt 0.208092 0.662737
vt 0.241038 0.335580
vt 0.232837 0.316672
vt 0.169768 0.274092
vt 0.186212 0.269571
vt 0.666445 0.145498
vt 0.666391 0.130845
vt 0.621374 0.652460
vt 0.633139 0.643408
vt 0.760411 0.839781
vt 0.768984 0.824018
vt 0.617387 0.852463
vt 0.614783 0.842715
vt 0.957628 0.555197
vt 0.944696 0.545113
vt 0.966269 0.871181
vt 0.972697 0.855779
vt 0.819858 0.181466
vt 0.813337 0.195848
vt 0.273910 0.688369
vt 0.258175 0.696912
vt 0.752678 0.251808
vt 0.769343 0.242668
vt 0.222633 0.632824
vt 0.212392 0.643082
vt 0.226124 0.349815
vt 0.228362 0.333060
vt 0.152821 0.276043
vt 0.167262 0.261208
vt 0.677374 0.162556
vt 0.679508 0.146370
vt 0.608528 0.659892
vt 0.614126 0.641640
vt 0.747316 0.841490
vt 0.757871 0.826989
vt 0.630099 0.849973
vt 0.618642 0.862455
vt 0.956212 0.566095
vt 0.944641 0.554405
vt 0.956178 0.855591
vt 0.961744 0.863040
vt 0.828568 0.177819
vt 0.823864 0.192917
vt 0.270939 0.699455
vt 0.256451 0.709983
vt 0.740356 0.237367
vt 0.755012 0.239063
vt 0.242167 0.628453
vt 0.232428 0.641316
vt 0.238933 0.350650
vt 0.226090 0.366564
vt 0.136748 0.262994
vt 0.152059 0.263159
vt 0.660877 0.174121
vt 0.664584 0.160004
vt 0.594821 0.665579
vt 0.602758 0.648214
vt 0.734119 0.841486
vt 0.746470 0.828492
vt 0.631627 0.873440
vt 0.631627 0.861618
vt 0.953377 0.576737
vt 0.943398 0.563627
vt 0.958286 0.839242
vt 0.966003 0.847008
vt 0.843485 0.183290
vt 0.833949 0.188719
vt 0.269435 0.710835
vt 0.256451 0.723169
vt 0.739713 0.250292
vt 0.725622 0.237601
vt 0.238599 0.608903
vt 0.231418 0.621356
vt 0.240757 0.380933
vt 0.238827 0.365828
vt 0.135803 0.276082
vt 0.121512 0.261024
vt 0.673174 0.178260
vt 0.655277 0.187610
vt 0.577955 0.656659
vt 0.590632 0.653251
vt 0.723571 0.826984
vt 0.734969 0.828486
vt 0.617269 0.882577
vt 0.618578 0.872541
vt 0.937398 0.581217
vt 0.940972 0.572617
vt 0.942444 0.843227
vt 0.949704 0.848955
vt 0.844404 0.167351
vt 0.836766 0.173057
vt 0.270939 0.733700
vt 0.269440 0.722315
vt 0.713773 0.252387
vt 0.726672 0.250488
vt 0.244065 0.595660
vt 0.250113 0.614524
vt 0.244660 0.395674
vt 0.227964 0.383407
vt 0.102644 0.269193
vt 0.118937 0.273585
vt 0.658899 0.207567
vt 0.667026 0.193334
vt 0.565794 0.671358
vt 0.580496 0.669421
vt 0.708279 0.836345
vt 0.721032 0.839762
vt 0.626954 0.896499
vt 0.630001 0.885134
vt 0.943657 0.596475
vt 0.949167 0.586925
vt 0.940302 0.826778
vt 0.949710 0.832572
vt 0.860373 0.169117
vt 0.852346 0.176718
vt 0.261593 0.748982
vt 0.258174 0.736243
vt 0.696895 0.243782
vt 0.711055 0.239753
vt 0.260472 0.584316
vt 0.256183 0.599771
vt 0.250505 0.409805
vt 0.232451 0.399778
vt 0.086916 0.262681
vt 0.106788 0.256933
vt 0.639120 0.211947
vt 0.647942 0.200288
vt 0.551818 0.658378
vt 0.564941 0.658372
vt 0.696076 0.831292
vt 0.712466 0.824003
vt 0.610719 0.901673
vt 0.614612 0.892325
vt 0.936945 0.605220
vt 0.932734 0.589278
vt 0.934378 0.838572
vt 0.930037 0.822536
vt 0.857476 0.153312
vt 0.851339 0.160735
vt 0.278321 0.755399
vt 0.273921 0.744789
vt 0.689263 0.261138
vt 0.701234 0.255960
vt 0.249689 0.567197
vt 0.247678 0.581744
vt 0.247419 0.430252
vt 0.238755 0.415589
vt 0.072106 0.254127
vt 0.092637 0.250980
vt 0.648918 0.220518
vt 0.628773 0.222278
vt 0.536274 0.669421
vt 0.550967 0.671358
vt 0.684629 0.824682
vt 0.701843 0.819597
vt 0.616564 0.917524
vt 0.622453 0.907415
vt 0.929150 0.613007
vt 0.927059 0.596658
vt 0.925852 0.834938
vt 0.919410 0.819730
vt 0.873534 0.151291
vt 0.867465 0.160601
vt 0.273257 0.772590
vt 0.266648 0.761168
vt 0.678058 0.267826
vt 0.683371 0.249623
vt 0.249763 0.552544
vt 0.262755 0.568105
vt 0.258182 0.423065
vt 0.257648 0.443920
vt 0.058512 0.243678
vt 0.079326 0.243228
vt 0.624480 0.242066
vt 0.637428 0.232070
vt 0.521958 0.665581
vt 0.538809 0.656662
vt 0.682764 0.806831
vt 0.691885 0.813839
vt 0.599831 0.918449
vt 0.605770 0.910485
vt 0.920406 0.619704
vt 0.920472 0.603230
vt 0.907791 0.831215
vt 0.916928 0.832478
vt 0.867039 0.136477
vt 0.862732 0.145187
vt 0.291084 0.774444
vt 0.284079 0.765338
vt 0.659150 0.266304
vt 0.670719 0.257172
vt 0.247904 0.538034
vt 0.262838 0.551710
vt 0.278429 0.446345
vt 0.267624 0.435243
vt 0.046386 0.231522
vt 0.067110 0.233795
vt 0.610272 0.250301
vt 0.617156 0.231186
vt 0.508267 0.659904
vt 0.526137 0.653264
vt 0.664831 0.807268
vt 0.674154 0.816621
vt 0.609604 0.926870
vt 0.592845 0.925542
vt 0.910866 0.625199
vt 0.913085 0.608880
vt 0.898588 0.831159
vt 0.908599 0.818348
vt 0.870339 0.127300
vt 0.878502 0.141320
vt 0.290657 0.792369
vt 0.281307 0.783052
vt 0.667816 0.275923
vt 0.648854 0.276863
vt 0.256505 0.519705
vt 0.260731 0.535476
vt 0.283279 0.466791
vt 0.269776 0.456066
vt 0.046832 0.210541
vt 0.056214 0.222836
vt 0.590966 0.244145
vt 0.604442 0.238495
vt 0.502664 0.641675
vt 0.514019 0.648239
vt 0.667648 0.789565
vt 0.674639 0.798693
vt 0.601413 0.935241
vt 0.584963 0.931669
vt 0.900690 0.629400
vt 0.905026 0.613511
vt 0.886886 0.819537
vt 0.897797 0.818351
vt 0.872591 0.117778
vt 0.882309 0.130824
vt 0.308351 0.789532
vt 0.299222 0.782555
vt 0.650861 0.295744
vt 0.658698 0.285279
vt 0.238611 0.510402
vt 0.244157 0.523911
vt 0.304143 0.463624
vt 0.290748 0.455708
vt 0.027375 0.202973
vt 0.035947 0.217875
vt 0.579419 0.260688
vt 0.595133 0.256474
vt 0.495438 0.652487
vt 0.492264 0.633685
vt 0.650222 0.785354
vt 0.656813 0.796788
vt 0.582087 0.948226
vt 0.592141 0.942375
vt 0.890045 0.632238
vt 0.896430 0.617042
vt 0.889422 0.832370
vt 0.876259 0.822489
vt 0.886257 0.108782
vt 0.884913 0.119947
vt 0.312590 0.806949
vt 0.301145 0.800380
vt 0.644437 0.307139
vt 0.640008 0.288667
vt 0.242198 0.490501
vt 0.250279 0.504675
vt 0.318408 0.469649
vt 0.298330 0.475471
vt 0.020819 0.187076
vt 0.039129 0.197119
vt 0.563252 0.262831
vt 0.576844 0.247903
vt 0.473222 0.632974
vt 0.483689 0.643458
vt 0.657521 0.768977
vt 0.661913 0.779604
vt 0.567104 0.940602
vt 0.576327 0.936725
vt 0.878213 0.620568
vt 0.887443 0.619410
vt 0.872050 0.838235
vt 0.880533 0.834726
vt 0.873732 0.098223
vt 0.873689 0.108039
vt 0.328940 0.799624
vt 0.318315 0.795254
vt 0.627220 0.315204
vt 0.632756 0.301519
vt 0.222415 0.486118
vt 0.231274 0.497780
vt 0.333273 0.473790
vt 0.314222 0.482034
vt 0.016387 0.170456
vt 0.033240 0.182802
vt 0.546926 0.262838
vt 0.562359 0.249801
vt 0.464216 0.621214
vt 0.482999 0.624406
vt 0.641778 0.760406
vt 0.645187 0.773153
vt 0.560034 0.955921
vt 0.571339 0.952836
vt 0.879100 0.633664
vt 0.868896 0.620486
vt 0.864118 0.842823
vt 0.866261 0.826787
vt 0.885035 0.086213
vt 0.886315 0.097473
vt 0.337533 0.815340
vt 0.324791 0.811962
vt 0.639533 0.319274
vt 0.623489 0.329493
vt 0.220714 0.465900
vt 0.232242 0.477531
vt 0.347689 0.488998
vt 0.330669 0.486469
vt 0.027274 0.152470
vt 0.029265 0.167835
vt 0.530731 0.260704
vt 0.547746 0.249791
vt 0.468484 0.602639
vt 0.475027 0.613998
vt 0.640056 0.747315
vt 0.654557 0.757867
vt 0.548411 0.957591
vt 0.557418 0.943273
vt 0.868016 0.633644
vt 0.859653 0.619150
vt 0.856855 0.848428
vt 0.857023 0.832257
vt 0.872641 0.088475
vt 0.882323 0.075130
vt 0.340046 0.802570
vt 0.350602 0.817035
vt 0.634582 0.344942
vt 0.636229 0.331946
vt 0.200419 0.466849
vt 0.212028 0.475809
vt 0.364153 0.475892
vt 0.348622 0.475711
vt 0.014154 0.153394
vt 0.027307 0.136967
vt 0.514947 0.256467
vt 0.533254 0.247868
vt 0.451175 0.594696
vt 0.456826 0.608381
vt 0.653054 0.734962
vt 0.653065 0.746462
vt 0.537400 0.944724
vt 0.547474 0.944638
vt 0.856950 0.632141
vt 0.850712 0.616708
vt 0.850358 0.854958
vt 0.848350 0.838731
vt 0.866700 0.069827
vt 0.870253 0.078973
vt 0.362935 0.804003
vt 0.351443 0.804033
vt 0.621666 0.358926
vt 0.621628 0.344148
vt 0.193514 0.447811
vt 0.207669 0.455936
vt 0.379496 0.474058
vt 0.365000 0.489001
vt 0.014154 0.136169
vt 0.029386 0.121582
vt 0.499832 0.250195
vt 0.519135 0.244059
vt 0.460091 0.577865
vt 0.463480 0.590525
vt 0.641767 0.721035
vt 0.640058 0.734118
vt 0.525028 0.956224
vt 0.536661 0.957628
vt 0.836246 0.624717
vt 0.846364 0.628963
vt 0.833970 0.854871
vt 0.840767 0.846419
vt 0.872664 0.054344
vt 0.878182 0.064427
vt 0.374206 0.802387
vt 0.363789 0.817040
vt 0.636340 0.371040
vt 0.634619 0.358047
vt 0.187760 0.459507
vt 0.178405 0.441513
vt 0.394445 0.469956
vt 0.381946 0.486803
vt 0.016396 0.119045
vt 0.033528 0.106577
vt 0.485629 0.241968
vt 0.505628 0.238424
vt 0.447356 0.580404
vt 0.458367 0.564871
vt 0.657515 0.712458
vt 0.654546 0.723563
vt 0.513623 0.953312
vt 0.527412 0.943473
vt 0.826593 0.619093
vt 0.842157 0.612999
vt 0.844733 0.862286
vt 0.828114 0.864363
vt 0.856145 0.053285
vt 0.861972 0.061215
vt 0.385696 0.799211
vt 0.376912 0.815350
vt 0.639719 0.383702
vt 0.623605 0.373581
vt 0.174201 0.453996
vt 0.162539 0.437336
vt 0.408859 0.464166
vt 0.398679 0.482614
vt 0.027754 0.086461
vt 0.020893 0.102252
vt 0.481407 0.222146
vt 0.492971 0.231052
vt 0.445372 0.550975
vt 0.445415 0.565752
vt 0.645171 0.708275
vt 0.661910 0.701832
vt 0.508281 0.937137
vt 0.517651 0.940933
vt 0.826913 0.602450
vt 0.834169 0.608190
vt 0.836251 0.878984
vt 0.840030 0.870398
vt 0.849314 0.046179
vt 0.865861 0.045058
vt 0.396808 0.794596
vt 0.390049 0.811921
vt 0.644718 0.395817
vt 0.627420 0.387870
vt 0.145544 0.448278
vt 0.160045 0.450190
vt 0.422307 0.456562
vt 0.414696 0.475964
vt 0.036281 0.071759
vt 0.039321 0.092249
vt 0.461270 0.220353
vt 0.472764 0.231899
vt 0.447228 0.536318
vt 0.458327 0.551766
vt 0.656818 0.684639
vt 0.650225 0.696076
vt 0.492334 0.943127
vt 0.502659 0.948924
vt 0.818013 0.611988
vt 0.820517 0.595835
vt 0.833659 0.887963
vt 0.823777 0.874654
vt 0.848870 0.029490
vt 0.857887 0.036726
vt 0.414531 0.799803
vt 0.402748 0.806685
vt 0.640444 0.414381
vt 0.633061 0.401547
vt 0.130005 0.435280
vt 0.146357 0.435280
vt 0.442984 0.457111
vt 0.429529 0.467385
vt 0.056552 0.066763
vt 0.047124 0.078965
vt 0.462315 0.200218
vt 0.471132 0.211777
vt 0.463272 0.526094
vt 0.459971 0.538768
vt 0.664857 0.674169
vt 0.667654 0.691875
vt 0.482825 0.936011
vt 0.499466 0.932143
vt 0.804435 0.595250
vt 0.810619 0.603970
vt 0.832262 0.897171
vt 0.820835 0.885313
vt 0.841590 0.040022
vt 0.838890 0.023474
vt 0.416356 0.781582
vt 0.407081 0.788704
vt 0.659227 0.417586
vt 0.651261 0.407173
vt 0.116392 0.450297
vt 0.130908 0.448395
vt 0.445521 0.436539
vt 0.434613 0.447387
vt 0.058800 0.046046
vt 0.046679 0.058188
vt 0.443416 0.193301
vt 0.451494 0.207367
vt 0.456493 0.508333
vt 0.450954 0.522024
vt 0.674181 0.664836
vt 0.674648 0.682751
vt 0.484145 0.918892
vt 0.491368 0.926029
vt 0.799218 0.585959
vt 0.815082 0.588486
vt 0.832054 0.906453
vt 0.819292 0.896183
vt 0.823958 0.031127
vt 0.833072 0.035000
vt 0.434499 0.781900
vt 0.425157 0.791482
vt 0.659909 0.436636
vt 0.649443 0.426147
vt 0.097988 0.441774
vt 0.113796 0.437508
vt 0.465993 0.431772
vt 0.455218 0.445315
vt 0.079815 0.046510
vt 0.067500 0.055875
vt 0.449600 0.174205
vt 0.455103 0.187601
vt 0.474594 0.502559
vt 0.468177 0.513958
vt 0.691893 0.667621
vt 0.682775 0.674621
vt 0.474298 0.927669
vt 0.477858 0.910897
vt 0.795195 0.575965
vt 0.810675 0.580484
vt 0.820200 0.918114
vt 0.819141 0.907082
vt 0.814402 0.028512
vt 0.828119 0.018959
vt 0.431472 0.764111
vt 0.424519 0.773326
vt 0.678890 0.434858
vt 0.668493 0.426864
vt 0.088752 0.459825
vt 0.102274 0.454213
vt 0.462916 0.411000
vt 0.454984 0.424262
vt 0.087490 0.026908
vt 0.072460 0.035557
vt 0.433226 0.162749
vt 0.437375 0.178304
vt 0.463745 0.495481
vt 0.482430 0.492095
vt 0.696077 0.650188
vt 0.684647 0.656795
vt 0.461018 0.908003
vt 0.467031 0.918232
vt 0.792507 0.565463
vt 0.807359 0.571966
vt 0.833245 0.915721
vt 0.822991 0.928901
vt 0.805411 0.014404
vt 0.816899 0.015932
vt 0.448875 0.759697
vt 0.442438 0.771243
vt 0.690244 0.441425
vt 0.671660 0.445669
vt 0.068765 0.456381
vt 0.082915 0.448151
vt 0.468798 0.396625
vt 0.474592 0.416836
vt 0.103454 0.020667
vt 0.093322 0.038866
vt 0.431284 0.146776
vt 0.445904 0.160275
vt 0.482877 0.473125
vt 0.472588 0.483682
vt 0.708275 0.645128
vt 0.701850 0.661870
vt 0.456475 0.897049
vt 0.472769 0.902132
vt 0.804169 0.553849
vt 0.805179 0.563036
vt 0.838886 0.933426
vt 0.835473 0.924771
vt 0.804577 0.027185
vt 0.793799 0.014404
vt 0.441376 0.743457
vt 0.437117 0.754097
vt 0.698175 0.458767
vt 0.684489 0.453088
vt 0.076131 0.467275
vt 0.055878 0.466449
vt 0.485826 0.384194
vt 0.481431 0.400954
vt 0.119844 0.016312
vt 0.107507 0.032924
vt 0.431292 0.130730
vt 0.444093 0.146006
vt 0.494444 0.463991
vt 0.491546 0.482736
vt 0.721030 0.641704
vt 0.712473 0.657467
vt 0.466150 0.883020
vt 0.468789 0.892795
vt 0.791182 0.554671
vt 0.804163 0.544511
vt 0.843390 0.941536
vt 0.827144 0.939125
vt 0.784812 0.028525
vt 0.794661 0.027230
vt 0.444183 0.732371
vt 0.453727 0.747455
vt 0.702361 0.446454
vt 0.712492 0.462611
vt 0.064536 0.476203
vt 0.044359 0.478046
vt 0.472912 0.381694
vt 0.487983 0.367225
vt 0.136819 0.014072
vt 0.122394 0.029073
vt 0.446182 0.117111
vt 0.444228 0.131623
vt 0.512994 0.467950
vt 0.501791 0.474642
vt 0.734127 0.639973
vt 0.723583 0.654488
vt 0.451702 0.873888
vt 0.453337 0.885659
vt 0.792541 0.532887
vt 0.791182 0.543751
vt 0.839065 0.957354
vt 0.832546 0.948653
vt 0.771003 0.018990
vt 0.782262 0.015929
vt 0.458439 0.721674
vt 0.456931 0.734712
vt 0.728042 0.451565
vt 0.715033 0.449848
vt 0.045454 0.498425
vt 0.054272 0.486662
vt 0.474995 0.366422
vt 0.487983 0.350295
vt 0.154132 0.014111
vt 0.137680 0.027179
vt 0.433319 0.114567
vt 0.449867 0.102951
vt 0.507097 0.456434
vt 0.524964 0.462769
vt 0.746493 0.652987
vt 0.734988 0.652986
vt 0.464719 0.862827
vt 0.464817 0.872970
vt 0.795287 0.522262
vt 0.805336 0.535279
vt 0.855460 0.955596
vt 0.848892 0.948977
vt 0.766059 0.035040
vt 0.775234 0.031181
vt 0.445334 0.709617
vt 0.445505 0.721027
vt 0.741166 0.451566
vt 0.727195 0.464551
vt 0.038198 0.511196
vt 0.034382 0.491162
vt 0.473000 0.335788
vt 0.475094 0.351087
vt 0.168373 0.029425
vt 0.153153 0.027358
vt 0.443734 0.083810
vt 0.437557 0.098819
vt 0.520622 0.450589
vt 0.537504 0.459194
vt 0.747345 0.639967
vt 0.757903 0.654483
vt 0.451717 0.862020
vt 0.466045 0.852790
vt 0.799400 0.512061
vt 0.807689 0.526286
vt 0.855427 0.972251
vt 0.846624 0.965436
vt 0.757475 0.040094
vt 0.760222 0.023535
vt 0.443670 0.698331
vt 0.458228 0.708563
vt 0.754179 0.449851
vt 0.742024 0.464551
vt 0.032708 0.524795
vt 0.026323 0.505532
vt 0.469030 0.320874
vt 0.486030 0.333214
vt 0.187532 0.021274
vt 0.171074 0.016756
vt 0.451646 0.069765
vt 0.455416 0.089419
vt 0.534786 0.446556
vt 0.550405 0.457294
vt 0.773207 0.645115
vt 0.760446 0.641698
vt 0.456232 0.838806
vt 0.453206 0.850295
vt 0.804824 0.502462
vt 0.811197 0.517679
vt 0.862746 0.961351
vt 0.864974 0.977778
vt 0.740979 0.036714
vt 0.750155 0.029481
vt 0.452719 0.683012
vt 0.456308 0.695604
vt 0.766858 0.446450
vt 0.756726 0.462613
vt 0.029045 0.538962
vt 0.020246 0.520751
vt 0.463102 0.306644
vt 0.481450 0.316533
vt 0.197207 0.039536
vt 0.183178 0.033624
vt 0.461359 0.057069
vt 0.462402 0.076880
vt 0.564094 0.444168
vt 0.549357 0.444403
vt 0.779644 0.661865
vt 0.769013 0.657466
vt 0.472483 0.833614
vt 0.468681 0.843003
vt 0.811487 0.493628
vt 0.815809 0.509603
vt 0.879237 0.969695
vt 0.870730 0.966075
vt 0.742685 0.053391
vt 0.749638 0.046250
vt 0.436019 0.676888
vt 0.440546 0.687361
vt 0.784750 0.453088
vt 0.771048 0.458772
vt 0.014256 0.552723
vt 0.016210 0.536574
vt 0.455371 0.293354
vt 0.474773 0.300731
vt 0.203013 0.028157
vt 0.210303 0.047308
vt 0.472528 0.045641
vt 0.471031 0.065425
vt 0.578748 0.445863
vt 0.563447 0.457091
vt 0.796853 0.656781
vt 0.785411 0.650177
vt 0.460816 0.827873
vt 0.477557 0.824865
vt 0.819312 0.485713
vt 0.821459 0.502202
vt 0.885623 0.984772
vt 0.875100 0.981970
vt 0.736796 0.061423
vt 0.732863 0.045093
vt 0.440813 0.659753
vt 0.447526 0.670996
vt 0.790351 0.434841
vt 0.778982 0.441414
vt 0.027432 0.568093
vt 0.027251 0.553455
vt 0.445977 0.281225
vt 0.466130 0.285986
vt 0.230838 0.047043
vt 0.217489 0.036652
vt 0.485162 0.035676
vt 0.481110 0.055190
vt 0.593083 0.449467
vt 0.576413 0.458609
vt 0.798731 0.674628
vt 0.789602 0.667625
vt 0.473878 0.808262
vt 0.466697 0.817653
vt 0.835312 0.489915
vt 0.828057 0.495615
vt 0.897170 0.973439
vt 0.888103 0.972159
vt 0.731964 0.070125
vt 0.725950 0.054499
vt 0.423084 0.658128
vt 0.430161 0.667092
vt 0.800757 0.426830
vt 0.797596 0.445661
vt 0.016682 0.585280
vt 0.014332 0.569078
vt 0.435083 0.270459
vt 0.455655 0.272525
vt 0.242728 0.059171
vt 0.222272 0.056721
vt 0.499062 0.027400
vt 0.492480 0.046317
vt 0.601248 0.466684
vt 0.589083 0.461823
vt 0.816663 0.674176
vt 0.807332 0.664832
vt 0.482243 0.799875
vt 0.483727 0.816843
vt 0.837537 0.473748
vt 0.828175 0.479198
vt 0.906301 0.973521
vt 0.896335 0.986153
vt 0.716223 0.075470
vt 0.720369 0.064717
vt 0.423318 0.640319
vt 0.432699 0.649469
vt 0.810032 0.417529
vt 0.809362 0.436612
vt 0.033359 0.596624
vt 0.029460 0.582565
vt 0.422884 0.261239
vt 0.443515 0.260574
vt 0.252923 0.072802
vt 0.232918 0.067660
vt 0.513992 0.020979
vt 0.504963 0.038963
vt 0.619827 0.462180
vt 0.606855 0.454934
vt 0.824702 0.684653
vt 0.806865 0.682762
vt 0.498953 0.803540
vt 0.490898 0.809691
vt 0.847585 0.469492
vt 0.843332 0.485302
vt 0.915396 0.972369
vt 0.907013 0.986153
vt 0.725925 0.089002
vt 0.728307 0.079369
vt 0.414896 0.650156
vt 0.412823 0.632452
vt 0.828858 0.414301
vt 0.819844 0.426097
vt 0.027425 0.615968
vt 0.021090 0.600933
vt 0.409601 0.253724
vt 0.429920 0.250348
vt 0.261256 0.087690
vt 0.242045 0.079940
vt 0.529723 0.016550
vt 0.518349 0.033275
vt 0.631791 0.471104
vt 0.612697 0.473128
vt 0.819614 0.701854
vt 0.813859 0.691893
vt 0.501963 0.786710
vt 0.491654 0.792648
vt 0.860738 0.479397
vt 0.851846 0.481774
vt 0.924283 0.970020
vt 0.917705 0.985018
vt 0.724782 0.098776
vt 0.713497 0.086531
vt 0.395772 0.637684
vt 0.405740 0.643305
vt 0.824552 0.395703
vt 0.818009 0.407093
vt 0.039110 0.610054
vt 0.035797 0.629974
vt 0.399399 0.235798
vt 0.415116 0.242037
vt 0.267607 0.103605
vt 0.249485 0.093356
vt 0.546842 0.027323
vt 0.532392 0.029380
vt 0.632669 0.490392
vt 0.623228 0.481072
vt 0.831299 0.696094
vt 0.824009 0.712483
vt 0.517090 0.794594
vt 0.507760 0.798506
vt 0.858217 0.466582
vt 0.869857 0.478213
vt 0.932829 0.966506
vt 0.928388 0.982423
vt 0.725371 0.107650
vt 0.712040 0.097715
vt 0.385157 0.633391
vt 0.401395 0.626004
vt 0.829548 0.383555
vt 0.836248 0.401428
vt 0.055449 0.634040
vt 0.046505 0.622599
vt 0.380729 0.244271
vt 0.395481 0.248041
vt 0.258782 0.122694
vt 0.255102 0.107691
vt 0.562105 0.014209
vt 0.545886 0.014372
vt 0.651896 0.493515
vt 0.642548 0.481595
vt 0.839774 0.721055
vt 0.836352 0.708292
vt 0.524309 0.779248
vt 0.512940 0.782274
vt 0.879847 0.465449
vt 0.869092 0.465436
vt 0.948105 0.972832
vt 0.938499 0.978157
vt 0.712599 0.121941
vt 0.711715 0.109018
vt 0.376530 0.617767
vt 0.389232 0.621082
vt 0.845686 0.373368
vt 0.841888 0.387703
vt 0.057327 0.653999
vt 0.045831 0.642656
vt 0.365522 0.242485
vt 0.383133 0.231677
vt 0.271866 0.120373
vt 0.260446 0.138088
vt 0.578276 0.016145
vt 0.561409 0.027210
vt 0.647578 0.512648
vt 0.640837 0.500968
vt 0.828488 0.735003
vt 0.826980 0.723598
vt 0.536890 0.790675
vt 0.526877 0.792015
vt 0.888134 0.479500
vt 0.879039 0.478249
vt 0.948251 0.956234
vt 0.940847 0.961886
vt 0.730858 0.131166
vt 0.727380 0.118850
vt 0.362701 0.629061
vt 0.374071 0.630506
vt 0.834597 0.357834
vt 0.832914 0.370860
vt 0.077417 0.652919
vt 0.065817 0.644201
vt 0.350066 0.242736
vt 0.366256 0.229335
vt 0.273535 0.137459
vt 0.260612 0.153515
vt 0.594117 0.020180
vt 0.575894 0.028993
vt 0.659635 0.506707
vt 0.652778 0.525266
vt 0.841490 0.747358
vt 0.841490 0.734153
vt 0.547768 0.777659
vt 0.535979 0.777693
vt 0.890595 0.466838
vt 0.897017 0.481944
vt 0.954842 0.949572
vt 0.956803 0.966106
vt 0.721042 0.150251
vt 0.715581 0.136138
vt 0.351237 0.629098
vt 0.363504 0.616110
vt 0.834566 0.344697
vt 0.847592 0.358673
vt 0.084423 0.671675
vt 0.070282 0.663805
vt 0.334595 0.244622
vt 0.349086 0.229568
vt 0.273375 0.154298
vt 0.258765 0.168712
vt 0.609368 0.026282
vt 0.590059 0.032657
vt 0.669457 0.535853
vt 0.665554 0.520952
vt 0.826973 0.757913
vt 0.828481 0.746507
vt 0.559470 0.779161
vt 0.546988 0.790659
vt 0.901136 0.469634
vt 0.905540 0.485551
vt 0.960684 0.942208
vt 0.964840 0.958435
vt 0.735790 0.143119
vt 0.728788 0.163313
vt 0.339871 0.630609
vt 0.350368 0.616143
vt 0.832700 0.331819
vt 0.847602 0.343853
vt 0.090013 0.660042
vt 0.099346 0.677740
vt 0.319586 0.248421
vt 0.332070 0.231735
vt 0.271452 0.170978
vt 0.254989 0.183536
vt 0.616435 0.045353
vt 0.603640 0.038162
vt 0.658316 0.551484
vt 0.656452 0.538603
vt 0.839766 0.760459
vt 0.824002 0.769026
vt 0.570885 0.782150
vt 0.557019 0.791960
vt 0.911279 0.473808
vt 0.913546 0.490269
vt 0.965477 0.934152
vt 0.971678 0.949591
vt 0.749368 0.164514
vt 0.742107 0.154358
vt 0.328793 0.633564
vt 0.337334 0.617868
vt 0.829026 0.318481
vt 0.845736 0.329080
vt 0.117339 0.669031
vt 0.103414 0.665445
vt 0.305239 0.254108
vt 0.315464 0.235987
vt 0.261117 0.203374
vt 0.267383 0.187455
vt 0.636689 0.044259
vt 0.623612 0.034426
vt 0.671357 0.565457
vt 0.671358 0.550625
vt 0.831286 0.785414
vt 0.836339 0.773216
vt 0.581828 0.786643
vt 0.566748 0.794506
vt 0.929723 0.486103
vt 0.920857 0.479310
vt 0.981584 0.929807
vt 0.977280 0.940003
vt 0.748217 0.182898
vt 0.738150 0.174412
vt 0.318198 0.637945
vt 0.324626 0.621261
vt 0.835895 0.299911
vt 0.841814 0.314171
vt 0.131609 0.670670
vt 0.114976 0.681711
vt 0.284611 0.250684
vt 0.299551 0.242330
vt 0.252688 0.218445
vt 0.249261 0.197783
vt 0.638555 0.064450
vt 0.628087 0.054207
vt 0.656683 0.577650
vt 0.658353 0.564621
vt 0.813840 0.789612
vt 0.819595 0.779652
vt 0.584763 0.803379
vt 0.576039 0.798342
vt 0.927456 0.502687
vt 0.920862 0.496025
vt 0.971686 0.916564
vt 0.969160 0.925555
vt 0.764951 0.177617
vt 0.756730 0.171984
vt 0.308260 0.643665
vt 0.312461 0.626283
vt 0.817092 0.294174
vt 0.823827 0.305859
vt 0.146241 0.670528
vt 0.130953 0.683583
vt 0.279440 0.270795
vt 0.291781 0.261607
vt 0.241646 0.211187
vt 0.648305 0.055786
vt 0.669456 0.580160
vt 0.824682 0.796854
vt 0.591990 0.792596
vt 0.937382 0.494178
vt 0.984526 0.919162
vt 0.758723 0.189164
vt 0.301050 0.632852
vt 0.828153 0.286711
vt 0.147158 0.683485
vt 0.270906 0.260918
s 0
usemtl マテリアル
f 1/1/1 14/2/1 2/3/1
f 2/4/2 15/5/2 3/6/2
f 3/7/3 16/8/3 4/9/3
f 4/10/4 17/11/4 5/12/4
f 17/13/5 6/14/5 5/15/5
f 6/16/6 19/17/6 7/18/6
f 19/19/7 8/20/7 7/21/7
f 8/22/8 21/23/8 9/24/8
f 21/25/9 10/26/9 9/27/9
f 22/28/10 11/29/10 10/30/10
f 23/31/11 12/32/11 11/33/11
f 24/34/12 1/35/12 12/36/12
f 25/37/13 14/2/13 13/38/13
f 26/39/14 15/5/14 14/40/14
f 27/41/15 16/8/15 15/42/15
f 28/43/16 17/11/16 16/44/16
f 29/45/17 18/46/17 17/13/17
f 18/47/18 31/48/18 19/17/18
f 31/49/19 20/50/19 19/19/19
f 20/51/20 33/52/20 21/23/20
f 21/25/21 34/53/21 22/54/21
f 22/28/22 35/55/22 23/56/22
f 23/31/23 36/57/23 24/58/23
f 24/34/24 25/59/24 13/60/24
f 25/37/25 38/61/25 26/62/25
f 38/63/26 27/64/26 26/39/26
f 39/65/27 28/66/27 27/41/27
f 28/43/28 41/67/28 29/68/28
f 29/45/29 42/69/29 30/70/29
f 30/71/30 43/72/30 31/48/30
f 43/73/31 32/74/31 31/49/31
f 44/75/32 33/52/32 32/76/32
f 45/77/33 34/53/33 33/78/33
f 34/79/34 47/80/34 35/55/34
f 47/81/35 36/57/35 35/82/35
f 48/83/36 25/59/36 36/84/36
f 37/85/37 50/86/37 38/61/37
f 50/87/38 39/88/38 38/63/38
f 39/65/39 52/89/39 40/90/39
f 52/91/40 41/67/40 40/92/40
f 53/93/41 42/69/41 41/94/41
f 54/95/42 43/72/42 42/96/42
f 43/73/43 56/97/43 44/98/43
f 56/99/44 45/100/44 44/75/44
f 45/77/45 58/101/45 46/102/45
f 58/103/46 47/80/46 46/104/46
f 47/81/47 60/105/47 48/106/47
f 60/107/48 37/108/48 48/83/48
f 61/109/49 50/86/49 49/110/49
f 50/87/50 63/111/50 51/112/50
f 63/113/51 52/89/51 51/114/51
f 64/115/52 53/116/52 52/91/52
f 53/93/53 66/117/53 54/118/53
f 66/119/54 55/120/54 54/95/54
f 55/121/55 68/122/55 56/97/55
f 68/123/56 57/124/56 56/99/56
f 57/125/57 70/126/57 58/101/57
f 70/127/58 59/128/58 58/103/58
f 71/129/59 60/105/59 59/130/59
f 60/107/60 61/131/60 49/132/60
f 73/133/61 62/134/61 61/109/61
f 74/135/62 63/111/62 62/136/62
f 75/137/63 64/138/63 63/113/63
f 76/139/64 65/140/64 64/115/64
f 65/141/65 78/142/65 66/117/65
f 78/143/66 67/144/66 66/119/66
f 79/145/67 68/122/67 67/146/67
f 80/147/68 69/148/68 68/123/68
f 69/149/69 82/150/69 70/126/69
f 70/127/70 83/151/70 71/152/70
f 71/129/71 84/153/71 72/154/71
f 72/155/72 73/156/72 61/131/72
f 73/133/73 86/157/73 74/158/73
f 74/135/74 87/159/74 75/160/74
f 87/161/75 76/162/75 75/137/75
f 88/163/76 77/164/76 76/139/76
f 89/165/77 78/142/77 77/166/77
f 90/167/78 79/168/78 78/143/78
f 79/145/79 92/169/79 80/170/79
f 80/147/80 93/171/80 81/172/80
f 81/173/81 94/174/81 82/150/81
f 82/175/82 95/176/82 83/151/82
f 95/177/83 84/153/83 83/178/83
f 96/179/84 73/156/84 84/180/84
f 85/181/85 98/182/85 86/157/85
f 86/183/86 99/184/86 87/159/86
f 87/161/87 100/185/87 88/186/87
f 88/163/88 101/187/88 89/188/88
f 89/165/89 102/189/89 90/190/89
f 90/167/90 103/191/90 91/192/90
f 103/193/91 92/169/91 91/194/91
f 104/195/92 93/171/92 92/196/92
f 105/197/93 94/174/93 93/198/93
f 106/199/94 95/176/94 94/200/94
f 107/201/95 96/202/95 95/177/95
f 108/203/96 85/204/96 96/179/96
f 109/205/97 98/182/97 97/206/97
f 110/207/98 99/184/98 98/208/98
f 111/209/99 100/185/99 99/210/99
f 112/211/100 101/187/100 100/212/100
f 113/213/101 102/189/101 101/214/101
f 114/215/102 103/191/102 102/216/102
f 103/193/103 116/217/103 104/218/103
f 104/195/104 117/219/104 105/220/104
f 105/197/105 118/221/105 106/222/105
f 106/199/106 119/223/106 107/224/106
f 107/201/107 120/225/107 108/226/107
f 120/227/108 97/228/108 108/203/108
f 121/229/109 110/230/109 109/205/109
f 110/207/110 123/231/110 111/232/110
f 111/209/111 124/233/111 112/234/111
f 124/235/112 113/236/112 112/211/112
f 113/213/113 126/237/113 114/238/113
f 126/239/114 115/240/114 114/215/114
f 115/241/115 128/242/115 116/217/115
f 128/243/116 117/219/116 116/244/116
f 129/245/117 118/221/117 117/246/117
f 130/247/118 119/223/118 118/248/118
f 131/249/119 120/225/119 119/250/119
f 120/227/120 121/251/120 109/252/120
f 133/253/121 122/254/121 121/229/121
f 122/255/122 135/256/122 123/231/122
f 135/257/123 124/233/123 123/258/123
f 136/259/124 125/260/124 124/235/124
f 137/261/125 126/237/125 125/262/125
f 138/263/126 127/264/126 126/239/126
f 127/265/127 140/266/127 128/242/127
f 128/243/128 141/267/128 129/268/128
f 129/245/129 142/269/129 130/270/129
f 142/271/130 131/272/130 130/247/130
f 143/273/131 132/274/131 131/249/131
f 132/275/132 133/276/132 121/251/132
f 145/277/133 134/278/133 133/253/133
f 146/279/134 135/256/134 134/280/134
f 147/281/135 136/282/135 135/257/135
f 136/259/136 149/283/136 137/284/136
f 137/261/137 150/285/137 138/286/137
f 150/287/138 139/288/138 138/263/138
f 151/289/139 140/266/139 139/290/139
f 152/291/140 141/267/140 140/292/140
f 153/293/141 142/269/141 141/294/141
f 142/271/142 155/295/142 143/296/142
f 155/297/143 144/298/143 143/273/143
f 156/299/144 133/276/144 144/300/144
f 157/301/145 146/302/145 145/277/145
f 158/303/146 147/304/146 146/279/146
f 159/305/147 148/306/147 147/281/147
f 160/307/148 149/283/148 148/308/148
f 149/309/149 162/310/149 150/285/149
f 162/311/150 151/312/150 150/287/150
f 163/313/151 152/314/151 151/289/151
f 164/315/152 153/316/152 152/291/152
f 153/293/153 166/317/153 154/318/153
f 154/319/154 167/320/154 155/295/154
f 155/297/155 168/321/155 156/322/155
f 156/299/156 157/323/156 145/324/156
f 157/301/157 170/325/157 158/326/157
f 158/303/158 171/327/158 159/328/158
f 159/305/159 172/329/159 160/330/159
f 160/307/160 173/331/160 161/332/160
f 161/333/161 174/334/161 162/310/161
f 174/335/162 163/336/162 162/311/162
f 163/313/163 176/337/163 164/338/163
f 176/339/164 165/340/164 164/315/164
f 177/341/165 166/317/165 165/342/165
f 178/343/166 167/320/166 166/344/166
f 179/345/167 168/321/167 167/346/167
f 180/347/168 157/323/168 168/348/168
f 181/349/169 170/325/169 169/350/169
f 182/351/170 171/327/170 170/352/170
f 171/353/171 184/354/171 172/329/171
f 184/355/172 173/331/172 172/356/172
f 185/357/173 174/334/173 173/358/173
f 186/359/174 175/360/174 174/335/174
f 175/361/175 188/362/175 176/337/175
f 176/339/176 189/363/176 177/364/176
f 177/341/177 190/365/177 178/366/177
f 190/367/178 179/368/178 178/343/178
f 179/345/179 192/369/179 180/370/179
f 192/371/180 169/372/180 180/347/180
f 193/373/181 182/374/181 181/349/181
f 194/375/182 183/376/182 182/351/182
f 195/377/183 184/354/183 183/378/183
f 184/355/184 197/379/184 185/380/184
f 185/357/185 198/381/185 186/382/185
f 186/359/186 199/383/186 187/384/186
f 199/385/187 188/362/187 187/386/187
f 200/387/188 189/363/188 188/388/188
f 201/389/189 190/365/189 189/390/189
f 190/367/190 203/391/190 191/392/190
f 203/393/191 192/369/191 191/394/191
f 204/395/192 181/396/192 192/371/192
f 205/397/193 194/398/193 193/373/193
f 206/399/194 195/400/194 194/375/194
f 207/401/195 196/402/195 195/377/195
f 208/403/196 197/379/196 196/404/196
f 209/405/197 198/381/197 197/406/197
f 198/407/198 211/408/198 199/383/198
f 211/409/199 200/410/199 199/385/199
f 200/387/200 213/411/200 201/412/200
f 201/389/201 214/413/201 202/414/201
f 202/415/202 215/416/202 203/391/202
f 203/393/203 216/417/203 204/418/203
f 204/395/204 205/419/204 193/420/204
f 205/397/205 218/421/205 206/422/205
f 218/423/206 207/424/206 206/399/206
f 207/401/207 220/425/207 208/426/207
f 220/427/208 209/428/208 208/403/208
f 221/429/209 210/430/209 209/405/209
f 210/431/210 223/432/210 211/408/210
f 223/433/211 212/434/211 211/409/211
f 212/435/212 225/436/212 213/411/212
f 213/437/213 226/438/213 214/413/213
f 226/439/214 215/416/214 214/440/214
f 227/441/215 216/417/215 215/442/215
f 228/443/216 205/419/216 216/444/216
f 217/445/217 230/446/217 218/421/217
f 230/447/218 219/448/218 218/423/218
f 231/449/219 220/425/219 219/450/219
f 220/427/220 233/451/220 221/452/220
f 221/429/221 234/453/221 222/454/221
f 222/455/222 235/456/222 223/432/222
f 235/457/223 224/458/223 223/433/223
f 236/459/224 225/436/224 224/460/224
f 237/461/225 226/438/225 225/462/225
f 226/439/226 239/463/226 227/464/226
f 227/441/227 240/465/227 228/466/227
f 240/467/228 217/468/228 228/443/228
f 229/469/229 242/470/229 230/446/229
f 242/471/230 231/472/230 230/447/230
f 231/449/231 244/473/231 232/474/231
f 244/475/232 233/451/232 232/476/232
f 245/477/233 234/453/233 233/478/233
f 246/479/234 235/456/234 234/480/234
f 235/457/235 248/481/235 236/482/235
f 236/459/236 249/483/236 237/484/236
f 249/485/237 238/486/237 237/461/237
f 250/487/238 239/463/238 238/488/238
f 239/489/239 252/490/239 240/465/239
f 252/491/240 229/492/240 240/467/240
f 241/493/241 254/494/241 242/470/241
f 254/495/242 243/496/242 242/471/242
f 243/497/243 256/498/243 244/473/243
f 244/475/244 257/499/244 245/500/244
f 257/501/245 246/502/245 245/477/245
f 258/503/246 247/504/246 246/479/246
f 247/505/247 260/506/247 248/481/247
f 260/507/248 249/483/248 248/508/248
f 261/509/249 250/510/249 249/485/249
f 262/511/250 251/512/250 250/487/250
f 251/513/251 264/514/251 252/490/251
f 264/515/252 241/516/252 252/491/252
f 265/517/253 254/494/253 253/518/253
f 254/495/254 267/519/254 255/520/254
f 267/521/255 256/498/255 255/522/255
f 256/523/256 269/524/256 257/499/256
f 257/501/257 270/525/257 258/526/257
f 258/503/258 271/527/258 259/528/258
f 271/529/259 260/506/259 259/530/259
f 272/531/260 261/532/260 260/507/260
f 273/533/261 262/534/261 261/509/261
f 274/535/262 263/536/262 262/511/262
f 275/537/263 264/514/263 263/538/263
f 276/539/264 253/540/264 264/515/264
f 277/541/265 266/542/265 265/517/265
f 278/543/266 267/519/266 266/544/266
f 279/545/267 268/546/267 267/521/267
f 280/547/268 269/524/268 268/548/268
f 281/549/269 270/525/269 269/550/269
f 270/551/270 283/552/270 271/527/270
f 283/553/271 272/554/271 271/529/271
f 272/531/272 285/555/272 273/556/272
f 273/533/273 286/557/273 274/558/273
f 274/535/274 287/559/274 275/560/274
f 275/537/275 288/561/275 276/562/275
f 276/539/276 277/563/276 265/564/276
f 277/541/277 290/565/277 278/566/277
f 278/543/278 291/567/278 279/568/278
f 279/545/279 292/569/279 280/570/279
f 292/571/280 281/572/280 280/547/280
f 293/573/281 282/574/281 281/549/281
f 294/575/282 283/552/282 282/576/282
f 295/577/283 284/578/283 283/553/283
f 284/579/284 297/580/284 285/555/284
f 297/581/285 286/557/285 285/582/285
f 298/583/286 287/559/286 286/584/286
f 299/585/287 288/561/287 287/586/287
f 300/587/288 277/563/288 288/588/288
f 301/589/6 290/565/6 289/590/6
f 302/591/5 291/567/5 290/592/5
f 303/593/4 292/569/4 291/594/4
f 304/595/3 293/596/3 292/571/3
f 293/573/2 306/597/2 294/598/2
f 306/599/1 295/600/1 294/575/1
f 307/601/12 296/602/12 295/577/12
f 308/603/11 297/580/11 296/604/11
f 297/581/10 310/605/10 298/606/10
f 298/583/9 311/607/9 299/608/9
f 299/585/8 312/609/8 300/610/8
f 300/587/7 301/611/7 289/612/7
f 301/589/18 314/613/18 302/614/18
f 302/591/17 315/615/17 303/616/17
f 303/593/16 316/617/16 304/618/16
f 304/595/15 317/619/15 305/620/15
f 305/621/14 318/622/14 306/597/14
f 318/623/13 307/624/13 306/599/13
f 307/601/24 320/625/24 308/626/24
f 320/627/23 309/628/23 308/603/23
f 321/629/22 310/605/22 309/630/22
f 322/631/21 311/607/21 310/632/21
f 323/633/20 312/609/20 311/634/20
f 324/635/19 301/611/19 312/636/19
f 325/637/30 314/613/30 313/638/30
f 326/639/29 315/615/29 314/640/29
f 315/641/28 328/642/28 316/617/28
f 328/643/27 317/619/27 316/644/27
f 329/645/26 318/622/26 317/646/26
f 330/647/25 319/648/25 318/623/25
f 319/649/36 332/650/36 320/625/36
f 320/627/35 333/651/35 321/652/35
f 321/629/34 334/653/34 322/654/34
f 334/655/33 323/656/33 322/631/33
f 323/633/32 336/657/32 324/658/32
f 336/659/31 313/660/31 324/635/31
f 337/661/42 326/662/42 325/637/42
f 338/663/41 327/664/41 326/639/41
f 339/665/40 328/642/40 327/666/40
f 340/667/39 329/668/39 328/643/39
f 341/669/38 330/670/38 329/645/38
f 330/647/37 343/671/37 331/672/37
f 343/673/48 332/650/48 331/674/48
f 332/675/47 345/676/47 333/651/47
f 345/677/46 334/653/46 333/678/46
f 334/655/45 347/679/45 335/680/45
f 335/681/44 348/682/44 336/657/44
f 336/659/43 337/683/43 325/684/43
f 349/685/54 338/686/54 337/661/54
f 350/687/53 339/688/53 338/663/53
f 351/689/52 340/690/52 339/665/52
f 352/691/51 341/692/51 340/667/51
f 341/669/50 354/693/50 342/694/50
f 342/695/49 355/696/49 343/671/49
f 355/697/60 344/698/60 343/673/60
f 356/699/59 345/676/59 344/700/59
f 357/701/58 346/702/58 345/677/58
f 346/703/57 359/704/57 347/679/57
f 347/705/56 360/706/56 348/682/56
f 348/707/55 349/708/55 337/683/55
f 361/709/66 350/710/66 349/685/66
f 350/687/65 363/711/65 351/712/65
f 351/689/64 364/713/64 352/714/64
f 364/715/63 353/716/63 352/691/63
f 365/717/62 354/693/62 353/718/62
f 366/719/61 355/696/61 354/720/61
f 355/697/72 368/721/72 356/722/72
f 356/699/71 369/723/71 357/724/71
f 357/701/70 370/725/70 358/726/70
f 370/727/69 359/704/69 358/728/69
f 371/729/68 360/706/68 359/730/68
f 360/731/67 361/732/67 349/708/67
f 373/733/78 362/734/78 361/709/78
f 362/735/77 375/736/77 363/711/77
f 363/737/76 376/738/76 364/713/76
f 364/715/75 377/739/75 365/740/75
f 365/717/74 378/741/74 366/742/74
f 378/743/73 367/744/73 366/719/73
f 379/745/84 368/721/84 367/746/84
f 380/747/83 369/723/83 368/748/83
f 381/749/82 370/725/82 369/750/82
f 382/751/81 371/752/81 370/727/81
f 383/753/80 372/754/80 371/729/80
f 384/755/79 361/732/79 372/756/79
f 373/733/90 386/757/90 374/758/90
f 386/759/89 375/736/89 374/760/89
f 375/761/88 388/762/88 376/738/88
f 376/763/87 389/764/87 377/739/87
f 377/765/86 390/766/86 378/741/86
f 390/767/85 379/768/85 378/743/85
f 379/745/96 392/769/96 380/770/96
f 392/771/95 381/772/95 380/747/95
f 393/773/94 382/774/94 381/749/94
f 394/775/93 383/776/93 382/751/93
f 395/777/92 384/778/92 383/753/92
f 396/779/91 373/780/91 384/755/91
f 397/781/102 386/757/102 385/782/102
f 398/783/101 387/784/101 386/759/101
f 387/785/100 400/786/100 388/762/100
f 400/787/99 389/764/99 388/788/99
f 401/789/98 390/766/98 389/790/98
f 402/791/97 391/792/97 390/767/97
f 391/793/108 404/794/108 392/769/108
f 392/771/107 405/795/107 393/796/107
f 393/773/106 406/797/106 394/798/106
f 406/799/105 395/800/105 394/775/105
f 407/801/104 396/802/104 395/777/104
f 408/803/103 385/804/103 396/779/103
f 397/781/114 410/805/114 398/806/114
f 410/807/113 399/808/113 398/783/113
f 411/809/112 400/786/112 399/810/112
f 400/787/111 413/811/111 401/812/111
f 401/789/110 414/813/110 402/814/110
f 414/815/109 403/816/109 402/791/109
f 415/817/120 404/794/120 403/818/120
f 416/819/119 405/795/119 404/820/119
f 417/821/118 406/797/118 405/822/118
f 406/799/117 419/823/117 407/824/117
f 407/801/116 420/825/116 408/826/116
f 420/827/115 397/828/115 408/803/115
f 409/829/126 422/830/126 410/805/126
f 422/831/125 411/832/125 410/807/125
f 423/833/124 412/834/124 411/809/124
f 424/835/123 413/811/123 412/836/123
f 413/837/122 426/838/122 414/813/122
f 426/839/121 415/840/121 414/815/121
f 415/817/132 428/841/132 416/842/132
f 428/843/131 417/844/131 416/819/131
f 417/821/130 430/845/130 418/846/130
f 430/847/129 419/823/129 418/848/129
f 431/849/128 420/825/128 419/850/128
f 432/851/127 409/852/127 420/827/127
f 433/853/138 422/830/138 421/854/138
f 434/855/137 423/856/137 422/831/137
f 435/857/136 424/858/136 423/833/136
f 424/835/135 437/859/135 425/860/135
f 437/861/134 426/838/134 425/862/134
f 426/839/133 439/863/133 427/864/133
f 439/865/144 428/841/144 427/866/144
f 440/867/143 429/868/143 428/843/143
f 441/869/142 430/845/142 429/870/142
f 442/871/141 431/872/141 430/847/141
f 431/849/140 444/873/140 432/874/140
f 444/875/139 421/876/139 432/851/139
f 445/877/150 434/878/150 433/853/150
f 446/879/149 435/880/149 434/855/149
f 435/857/148 448/881/148 436/882/148
f 448/883/147 437/859/147 436/884/147
f 449/885/146 438/886/146 437/861/146
f 450/887/145 439/863/145 438/888/145
f 451/889/156 440/890/156 439/865/156
f 440/867/155 453/891/155 441/892/155
f 441/869/154 454/893/154 442/894/154
f 454/895/153 443/896/153 442/871/153
f 455/897/152 444/873/152 443/898/152
f 456/899/151 433/900/151 444/875/151
f 457/901/162 446/902/162 445/877/162
f 458/903/161 447/904/161 446/879/161
f 459/905/160 448/881/160 447/906/160
f 460/907/159 449/908/159 448/883/159
f 449/885/158 462/909/158 450/910/158
f 462/911/157 451/912/157 450/887/157
f 463/913/168 452/914/168 451/889/168
f 464/915/167 453/891/167 452/916/167
f 453/917/166 466/918/166 454/893/166
f 454/895/165 467/919/165 455/920/165
f 455/897/164 468/921/164 456/922/164
f 468/923/163 445/924/163 456/899/163
f 469/925/174 458/926/174 457/901/174
f 470/927/173 459/928/173 458/903/173
f 471/929/172 460/930/172 459/905/172
f 460/907/171 473/931/171 461/932/171
f 473/933/170 462/909/170 461/934/170
f 462/911/169 475/935/169 463/936/169
f 475/937/180 464/938/180 463/913/180
f 476/939/179 465/940/179 464/915/179
f 477/941/178 466/918/178 465/942/178
f 478/943/177 467/919/177 466/944/177
f 467/945/176 480/946/176 468/921/176
f 468/923/175 469/947/175 457/948/175
f 481/949/186 470/950/186 469/925/186
f 470/927/185 483/951/185 471/952/185
f 471/929/184 484/953/184 472/954/184
f 472/955/183 485/956/183 473/931/183
f 473/933/182 486/957/182 474/958/182
f 474/959/181 487/960/181 475/935/181
f 487/961/192 476/962/192 475/937/192
f 488/963/191 477/964/191 476/939/191
f 489/965/190 478/966/190 477/941/190
f 490/967/189 479/968/189 478/943/189
f 491/969/188 480/946/188 479/970/188
f 492/971/187 469/947/187 480/972/187
f 481/949/198 494/973/198 482/974/198
f 494/975/197 483/951/197 482/976/197
f 495/977/196 484/953/196 483/978/196
f 496/979/195 485/956/195 484/980/195
f 497/981/194 486/957/194 485/982/194
f 498/983/193 487/960/193 486/984/193
f 487/961/204 500/985/204 488/986/204
f 488/963/203 501/987/203 489/988/203
f 489/965/202 502/989/202 490/990/202
f 490/967/201 503/991/201 491/992/201
f 491/969/200 504/993/200 492/994/200
f 504/995/199 481/996/199 492/971/199
f 493/997/210 506/998/210 494/973/210
f 506/999/209 495/1000/209 494/975/209
f 495/977/208 508/1001/208 496/1002/208
f 496/979/207 509/1003/207 497/1004/207
f 497/981/206 510/1005/206 498/1006/206
f 498/983/205 511/1007/205 499/1008/205
f 511/1009/216 500/985/216 499/1010/216
f 512/1011/215 501/987/215 500/1012/215
f 513/1013/214 502/989/214 501/1014/214
f 514/1015/213 503/991/213 502/1016/213
f 515/1017/212 504/993/212 503/1018/212
f 516/1019/211 493/1020/211 504/995/211
f 505/1021/222 518/1022/222 506/998/222
f 518/1023/221 507/1024/221 506/999/221
f 507/1025/220 520/1026/220 508/1001/220
f 520/1027/219 509/1003/219 508/1028/219
f 521/1029/218 510/1005/218 509/1030/218
f 510/1031/217 523/1032/217 511/1007/217
f 523/1033/228 512/1034/228 511/1009/228
f 512/1011/227 525/1035/227 513/1036/227
f 525/1037/226 514/1038/226 513/1013/226
f 526/1039/225 515/1040/225 514/1015/225
f 515/1017/224 528/1041/224 516/1042/224
f 528/1043/223 505/1044/223 516/1019/223
f 517/1045/234 530/1046/234 518/1022/234
f 530/1047/233 519/1048/233 518/1023/233
f 531/1049/232 520/1026/232 519/1050/232
f 520/1027/231 533/1051/231 521/1052/231
f 533/1053/230 522/1054/230 521/1029/230
f 522/1055/229 535/1056/229 523/1032/229
f 535/1057/240 524/1058/240 523/1033/240
f 524/1059/239 537/1060/239 525/1035/239
f 537/1061/238 526/1062/238 525/1037/238
f 538/1063/237 527/1064/237 526/1039/237
f 527/1065/236 540/1066/236 528/1041/236
f 540/1067/235 517/1068/235 528/1043/235
f 529/1069/246 542/1070/246 530/1046/246
f 530/1047/245 543/1071/245 531/1072/245
f 531/1049/244 544/1073/244 532/1074/244
f 532/1075/243 545/1076/243 533/1051/243
f 545/1077/242 534/1078/242 533/1053/242
f 534/1079/241 547/1080/241 535/1056/241
f 547/1081/252 536/1082/252 535/1057/252
f 548/1083/251 537/1060/251 536/1084/251
f 549/1085/250 538/1086/250 537/1061/250
f 550/1087/249 539/1088/249 538/1063/249
f 551/1089/248 540/1066/248 539/1090/248
f 552/1091/247 529/1092/247 540/1067/247
f 553/1093/258 542/1070/258 541/1094/258
f 554/1095/257 543/1071/257 542/1096/257
f 555/1097/256 544/1073/256 543/1098/256
f 556/1099/255 545/1076/255 544/1100/255
f 557/1101/254 546/1102/254 545/1077/254
f 558/1103/253 547/1080/253 546/1104/253
f 547/1081/264 560/1105/264 548/1106/264
f 548/1083/263 561/1107/263 549/1108/263
f 561/1109/262 550/1110/262 549/1085/262
f 550/1087/261 563/1111/261 551/1112/261
f 563/1113/260 552/1114/260 551/1089/260
f 552/1091/259 553/1115/259 541/1116/259
f 565/1117/270 554/1118/270 553/1093/270
f 554/1095/269 567/1119/269 555/1120/269
f 555/1097/268 568/1121/268 556/1122/268
f 556/1099/267 569/1123/267 557/1124/267
f 557/1101/266 570/1125/266 558/1126/266
f 558/1103/265 571/1127/265 559/1128/265
f 571/1129/276 560/1105/276 559/1130/276
f 572/1131/275 561/1107/275 560/1132/275
f 573/1133/274 562/1134/274 561/1109/274
f 574/1135/273 563/1111/273 562/1136/273
f 575/1137/272 564/1138/272 563/1113/272
f 576/1139/271 553/1115/271 564/1140/271
f 1/1/282 566/1141/282 565/1117/282
f 2/4/281 567/1119/281 566/1142/281
f 3/7/280 568/1121/280 567/1143/280
f 4/10/279 569/1123/279 568/1144/279
f 569/1145/278 6/14/278 570/1125/278
f 6/16/277 571/1127/277 570/1146/277
f 571/1129/288 8/20/288 572/1147/288
f 8/22/287 573/1148/287 572/1131/287
f 573/1133/286 10/26/286 574/1149/286
f 574/1135/285 11/29/285 575/1150/285
f 575/1137/284 12/32/284 576/1151/284
f 576/1139/283 1/35/283 565/1152/283
f 1/1/1 13/38/1 14/2/1
f 2/4/2 14/40/2 15/5/2
f 3/7/3 15/42/3 16/8/3
f 4/10/4 16/44/4 17/11/4
f 17/13/5 18/46/5 6/14/5
f 6/16/6 18/47/6 19/17/6
f 19/19/7 20/50/7 8/20/7
f 8/22/8 20/51/8 21/23/8
f 21/25/9 22/54/9 10/26/9
f 22/28/10 23/56/10 11/29/10
f 23/31/11 24/58/11 12/32/11
f 24/34/12 13/60/12 1/35/12
f 25/37/13 26/62/13 14/2/13
f 26/39/14 27/64/14 15/5/14
f 27/41/15 28/66/15 16/8/15
f 28/43/16 29/68/16 17/11/16
f 29/45/17 30/70/17 18/46/17
f 18/47/18 30/71/18 31/48/18
f 31/49/19 32/74/19 20/50/19
f 20/51/20 32/76/20 33/52/20
f 21/25/21 33/78/21 34/53/21
f 22/28/22 34/79/22 35/55/22
f 23/31/23 35/82/23 36/57/23
f 24/34/24 36/84/24 25/59/24
f 25/37/25 37/85/25 38/61/25
f 38/63/26 39/88/26 27/64/26
f 39/65/27 40/90/27 28/66/27
f 28/43/28 40/92/28 41/67/28
f 29/45/29 41/94/29 42/69/29
f 30/71/30 42/96/30 43/72/30
f 43/73/31 44/98/31 32/74/31
f 44/75/32 45/100/32 33/52/32
f 45/77/33 46/102/33 34/53/33
f 34/79/34 46/104/34 47/80/34
f 47/81/35 48/106/35 36/57/35
f 48/83/36 37/108/36 25/59/36
f 37/85/37 49/110/37 50/86/37
f 50/87/38 51/112/38 39/88/38
f 39/65/39 51/114/39 52/89/39
f 52/91/40 53/116/40 41/67/40
f 53/93/41 54/118/41 42/69/41
f 54/95/42 55/120/42 43/72/42
f 43/73/43 55/121/43 56/97/43
f 56/99/44 57/124/44 45/100/44
f 45/77/45 57/125/45 58/101/45
f 58/103/46 59/128/46 47/80/46
f 47/81/47 59/130/47 60/105/47
f 60/107/48 49/132/48 37/108/48
f 61/109/49 62/134/49 50/86/49
f 50/87/50 62/136/50 63/111/50
f 63/113/51 64/138/51 52/89/51
f 64/115/52 65/140/52 53/116/52
f 53/93/53 65/141/53 66/117/53
f 66/119/54 67/144/54 55/120/54
f 55/121/55 67/146/55 68/122/55
f 68/123/56 69/148/56 57/124/56
f 57/125/57 69/149/57 70/126/57
f 70/127/58 71/152/58 59/128/58
f 71/129/59 72/154/59 60/105/59
f 60/107/60 72/155/60 61/131/60
f 73/133/61 74/158/61 62/134/61
f 74/135/62 75/160/62 63/111/62
f 75/137/63 76/162/63 64/138/63
f 76/139/64 77/164/64 65/140/64
f 65/141/65 77/166/65 78/142/65
f 78/143/66 79/168/66 67/144/66
f 79/145/67 80/170/67 68/122/67
f 80/147/68 81/172/68 69/148/68
f 69/149/69 81/173/69 82/150/69
f 70/127/70 82/175/70 83/151/70
f 71/129/71 83/178/71 84/153/71
f 72/155/72 84/180/72 73/156/72
f 73/133/73 85/181/73 86/157/73
f 74/135/74 86/183/74 87/159/74
f 87/161/75 88/186/75 76/162/75
f 88/163/76 89/188/76 77/164/76
f 89/165/77 90/190/77 78/142/77
f 90/167/78 91/192/78 79/168/78
f 79/145/79 91/194/79 92/169/79
f 80/147/80 92/196/80 93/171/80
f 81/173/81 93/198/81 94/174/81
f 82/175/82 94/200/82 95/176/82
f 95/177/83 96/202/83 84/153/83
f 96/179/84 85/204/84 73/156/84
f 85/181/85 97/206/85 98/182/85
f 86/183/86 98/208/86 99/184/86
f 87/161/87 99/210/87 100/185/87
f 88/163/88 100/212/88 101/187/88
f 89/165/89 101/214/89 102/189/89
f 90/167/90 102/216/90 103/191/90
f 103/193/91 104/218/91 92/169/91
f 104/195/92 105/220/92 93/171/92
f 105/197/93 106/222/93 94/174/93
f 106/199/94 107/224/94 95/176/94
f 107/201/95 108/226/95 96/202/95
f 108/203/96 97/228/96 85/204/96
f 109/205/97 110/230/97 98/182/97
f 110/207/98 111/232/98 99/184/98
f 111/209/99 112/234/99 100/185/99
f 112/211/100 113/236/100 101/187/100
f 113/213/101 114/238/101 102/189/101
f 114/215/102 115/240/102 103/191/102
f 103/193/103 115/241/103 116/217/103
f 104/195/104 116/244/104 117/219/104
f 105/197/105 117/246/105 118/221/105
f 106/199/106 118/248/106 119/223/106
f 107/201/107 119/250/107 120/225/107
f 120/227/108 109/252/108 97/228/108
f 121/229/109 122/254/109 110/230/109
f 110/207/110 122/255/110 123/231/110
f 111/209/111 123/258/111 124/233/111
f 124/235/112 125/260/112 113/236/112
f 113/213/113 125/262/113 126/237/113
f 126/239/114 127/264/114 115/240/114
f 115/241/115 127/265/115 128/242/115
f 128/243/116 129/268/116 117/219/116
f 129/245/117 130/270/117 118/221/117
f 130/247/118 131/272/118 119/223/118
f 131/249/119 132/274/119 120/225/119
f 120/227/120 132/275/120 121/251/120
f 133/253/121 134/278/121 122/254/121
f 122/255/122 134/280/122 135/256/122
f 135/257/123 136/282/123 124/233/123
f 136/259/124 137/284/124 125/260/124
f 137/261/125 138/286/125 126/237/125
f 138/263/126 139/288/126 127/264/126
f 127/265/127 139/290/127 140/266/127
f 128/243/128 140/292/128 141/267/128
f 129/245/129 141/294/129 142/269/129
f 142/271/130 143/296/130 131/272/130
f 143/273/131 144/298/131 132/274/131
f 132/275/132 144/300/132 133/276/132
f 145/277/133 146/302/133 134/278/133
f 146/279/134 147/304/134 135/256/134
f 147/281/135 148/306/135 136/282/135
f 136/259/136 148/308/136 149/283/136
f 137/261/137 149/309/137 150/285/137
f 150/287/138 151/312/138 139/288/138
f 151/289/139 152/314/139 140/266/139
f 152/291/140 153/316/140 141/267/140
f 153/293/141 154/318/141 142/269/141
f 142/271/142 154/319/142 155/295/142
f 155/297/143 156/322/143 144/298/143
f 156/299/144 145/324/144 133/276/144
f 157/301/145 158/326/145 146/302/145
f 158/303/146 159/328/146 147/304/146
f 159/305/147 160/330/147 148/306/147
f 160/307/148 161/332/148 149/283/148
f 149/309/149 161/333/149 162/310/149
f 162/311/150 163/336/150 151/312/150
f 163/313/151 164/338/151 152/314/151
f 164/315/152 165/340/152 153/316/152
f 153/293/153 165/342/153 166/317/153
f 154/319/154 166/344/154 167/320/154
f 155/297/155 167/346/155 168/321/155
f 156/299/156 168/348/156 157/323/156
f 157/301/157 169/350/157 170/325/157
f 158/303/158 170/352/158 171/327/158
f 159/305/159 171/353/159 172/329/159
f 160/307/160 172/356/160 173/331/160
f 161/333/161 173/358/161 174/334/161
f 174/335/162 175/360/162 163/336/162
f 163/313/163 175/361/163 176/337/163
f 176/339/164 177/364/164 165/340/164
f 177/341/165 178/366/165 166/317/165
f 178/343/166 179/368/166 167/320/166
f 179/345/167 180/370/167 168/321/167
f 180/347/168 169/372/168 157/323/168
f 181/349/169 182/374/169 170/325/169
f 182/351/170 183/376/170 171/327/170
f 171/353/171 183/378/171 184/354/171
f 184/355/172 185/380/172 173/331/172
f 185/357/173 186/382/173 174/334/173
f 186/359/174 187/384/174 175/360/174
f 175/361/175 187/386/175 188/362/175
f 176/339/176 188/388/176 189/363/176
f 177/341/177 189/390/177 190/365/177
f 190/367/178 191/392/178 179/368/178
f 179/345/179 191/394/179 192/369/179
f 192/371/180 181/396/180 169/372/180
f 193/373/181 194/398/181 182/374/181
f 194/375/182 195/400/182 183/376/182
f 195/377/183 196/402/183 184/354/183
f 184/355/184 196/404/184 197/379/184
f 185/357/185 197/406/185 198/381/185
f 186/359/186 198/407/186 199/383/186
f 199/385/187 200/410/187 188/362/187
f 200/387/188 201/412/188 189/363/188
f 201/389/189 202/414/189 190/365/189
f 190/367/190 202/415/190 203/391/190
f 203/393/191 204/418/191 192/369/191
f 204/395/192 193/420/192 181/396/192
f 205/397/193 206/422/193 194/398/193
f 206/399/194 207/424/194 195/400/194
f 207/401/195 208/426/195 196/402/195
f 208/403/196 209/428/196 197/379/196
f 209/405/197 210/430/197 198/381/197
f 198/407/198 210/431/198 211/408/198
f 211/409/199 212/434/199 200/410/199
f 200/387/200 212/435/200 213/411/200
f 201/389/201 213/437/201 214/413/201
f 202/415/202 214/440/202 215/416/202
f 203/393/203 215/442/203 216/417/203
f 204/395/204 216/444/204 205/419/204
f 205/397/205 217/445/205 218/421/205
f 218/423/206 219/448/206 207/424/206
f 207/401/207 219/450/207 220/425/207
f 220/427/208 221/452/208 209/428/208
f 221/429/209 222/454/209 210/430/209
f 210/431/210 222/455/210 223/432/210
f 223/433/211 224/458/211 212/434/211
f 212/435/212 224/460/212 225/436/212
f 213/437/213 225/462/213 226/438/213
f 226/439/214 227/464/214 215/416/214
f 227/441/215 228/466/215 216/417/215
f 228/443/216 217/468/216 205/419/216
f 217/445/217 229/469/217 230/446/217
f 230/447/218 231/472/218 219/448/218
f 231/449/219 232/474/219 220/425/219
f 220/427/220 232/476/220 233/451/220
f 221/429/221 233/478/221 234/453/221
f 222/455/222 234/480/222 235/456/222
f 235/457/223 236/482/223 224/458/223
f 236/459/224 237/484/224 225/436/224
f 237/461/225 238/486/225 226/438/225
f 226/439/226 238/488/226 239/463/226
f 227/441/227 239/489/227 240/465/227
f 240/467/228 229/492/228 217/468/228
f 229/469/229 241/493/229 242/470/229
f 242/471/230 243/496/230 231/472/230
f 231/449/231 243/497/231 244/473/231
f 244/475/232 245/500/232 233/451/232
f 245/477/233 246/502/233 234/453/233
f 246/479/234 247/504/234 235/456/234
f 235/457/235 247/505/235 248/481/235
f 236/459/236 248/508/236 249/483/236
f 249/485/237 250/510/237 238/486/237
f 250/487/238 251/512/238 239/463/238
f 239/489/239 251/513/239 252/490/239
f 252/491/240 241/516/240 229/492/240
f 241/493/241 253/518/241 254/494/241
f 254/495/242 255/520/242 243/496/242
f 243/497/243 255/522/243 256/498/243
f 244/475/244 256/523/244 257/499/244
f 257/501/245 258/526/245 246/502/245
f 258/503/246 259/528/246 247/504/246
f 247/505/247 259/530/247 260/506/247
f 260/507/248 261/532/248 249/483/248
f 261/509/249 262/534/249 250/510/249
f 262/511/250 263/536/250 251/512/250
f 251/513/251 263/538/251 264/514/251
f 264/515/252 253/540/252 241/516/252
f 265/517/253 266/542/253 254/494/253
f 254/495/254 266/544/254 267/519/254
f 267/521/255 268/546/255 256/498/255
f 256/523/256 268/548/256 269/524/256
f 257/501/257 269/550/257 270/525/257
f 258/503/258 270/551/258 271/527/258
f 271/529/259 272/554/259 260/506/259
f 272/531/260 273/556/260 261/532/260
f 273/533/261 274/558/261 262/534/261
f 274/535/262 275/560/262 263/536/262
f 275/537/263 276/562/263 264/514/263
f 276/539/264 265/564/264 253/540/264
f 277/541/265 278/566/265 266/542/265
f 278/543/266 279/568/266 267/519/266
f 279/545/267 280/570/267 268/546/267
f 280/547/268 281/572/268 269/524/268
f 281/549/269 282/574/269 270/525/269
f 270/551/270 282/576/270 283/552/270
f 283/553/271 284/578/271 272/554/271
f 272/531/272 284/579/272 285/555/272
f 273/533/273 285/582/273 286/557/273
f 274/535/274 286/584/274 287/559/274
f 275/537/275 287/586/275 288/561/275
f 276/539/276 288/588/276 277/563/276
f 277/541/277 289/590/277 290/565/277
f 278/543/278 290/592/278 291/567/278
f 279/545/279 291/594/279 292/569/279
f 292/571/280 293/596/280 281/572/280
f 293/573/281 294/598/281 282/574/281
f 294/575/282 295/600/282 283/552/282
f 295/577/283 296/602/283 284/578/283
f 284/579/284 296/604/284 297/580/284
f 297/581/285 298/606/285 286/557/285
f 298/583/286 299/608/286 287/559/286
f 299/585/287 300/610/287 288/561/287
f 300/587/288 289/612/288 277/563/288
f 301/589/6 302/614/6 290/565/6
f 302/591/5 303/616/5 291/567/5
f 303/593/4 304/618/4 292/569/4
f 304/595/3 305/620/3 293/596/3
f 293/573/2 305/621/2 306/597/2
f 306/599/1 307/624/1 295/600/1
f 307/601/12 308/626/12 296/602/12
f 308/603/11 309/628/11 297/580/11
f 297/581/10 309/630/10 310/605/10
f 298/583/9 310/632/9 311/607/9
f 299/585/8 311/634/8 312/609/8
f 300/587/7 312/636/7 301/611/7
f 301/589/18 313/638/18 314/613/18
f 302/591/17 314/640/17 315/615/17
f 303/593/16 315/641/16 316/617/16
f 304/595/15 316/644/15 317/619/15
f 305/621/14 317/646/14 318/622/14
f 318/623/13 319/648/13 307/624/13
f 307/601/24 319/649/24 320/625/24
f 320/627/23 321/652/23 309/628/23
f 321/629/22 322/654/22 310/605/22
f 322/631/21 323/656/21 311/607/21
f 323/633/20 324/658/20 312/609/20
f 324/635/19 313/660/19 301/611/19
f 325/637/30 326/662/30 314/613/30
f 326/639/29 327/664/29 315/615/29
f 315/641/28 327/666/28 328/642/28
f 328/643/27 329/668/27 317/619/27
f 329/645/26 330/670/26 318/622/26
f 330/647/25 331/672/25 319/648/25
f 319/649/36 331/674/36 332/650/36
f 320/627/35 332/675/35 333/651/35
f 321/629/34 333/678/34 334/653/34
f 334/655/33 335/680/33 323/656/33
f 323/633/32 335/681/32 336/657/32
f 336/659/31 325/684/31 313/660/31
f 337/661/42 338/686/42 326/662/42
f 338/663/41 339/688/41 327/664/41
f 339/665/40 340/690/40 328/642/40
f 340/667/39 341/692/39 329/668/39
f 341/669/38 342/694/38 330/670/38
f 330/647/37 342/695/37 343/671/37
f 343/673/48 344/698/48 332/650/48
f 332/675/47 344/700/47 345/676/47
f 345/677/46 346/702/46 334/653/46
f 334/655/45 346/703/45 347/679/45
f 335/681/44 347/705/44 348/682/44
f 336/659/43 348/707/43 337/683/43
f 349/685/54 350/710/54 338/686/54
f 350/687/53 351/712/53 339/688/53
f 351/689/52 352/714/52 340/690/52
f 352/691/51 353/716/51 341/692/51
f 341/669/50 353/718/50 354/693/50
f 342/695/49 354/720/49 355/696/49
f 355/697/60 356/722/60 344/698/60
f 356/699/59 357/724/59 345/676/59
f 357/701/58 358/726/58 346/702/58
f 346/703/57 358/728/57 359/704/57
f 347/705/56 359/730/56 360/706/56
f 348/707/55 360/731/55 349/708/55
f 361/709/66 362/734/66 350/710/66
f 350/687/65 362/735/65 363/711/65
f 351/689/64 363/737/64 364/713/64
f 364/715/63 365/740/63 353/716/63
f 365/717/62 366/742/62 354/693/62
f 366/719/61 367/744/61 355/696/61
f 355/697/72 367/746/72 368/721/72
f 356/699/71 368/748/71 369/723/71
f 357/701/70 369/750/70 370/725/70
f 370/727/69 371/752/69 359/704/69
f 371/729/68 372/754/68 360/706/68
f 360/731/67 372/756/67 361/732/67
f 373/733/78 374/758/78 362/734/78
f 362/735/77 374/760/77 375/736/77
f 363/737/76 375/761/76 376/738/76
f 364/715/75 376/763/75 377/739/75
f 365/717/74 377/765/74 378/741/74
f 378/743/73 379/768/73 367/744/73
f 379/745/84 380/770/84 368/721/84
f 380/747/83 381/772/83 369/723/83
f 381/749/82 382/774/82 370/725/82
f 382/751/81 383/776/81 371/752/81
f 383/753/80 384/778/80 372/754/80
f 384/755/79 373/780/79 361/732/79
f 373/733/90 385/782/90 386/757/90
f 386/759/89 387/784/89 375/736/89
f 375/761/88 387/785/88 388/762/88
f 376/763/87 388/788/87 389/764/87
f 377/765/86 389/790/86 390/766/86
f 390/767/85 391/792/85 379/768/85
f 379/745/96 391/793/96 392/769/96
f 392/771/95 393/796/95 381/772/95
f 393/773/94 394/798/94 382/774/94
f 394/775/93 395/800/93 383/776/93
f 395/777/92 396/802/92 384/778/92
f 396/779/91 385/804/91 373/780/91
f 397/781/102 398/806/102 386/757/102
f 398/783/101 399/808/101 387/784/101
f 387/785/100 399/810/100 400/786/100
f 400/787/99 401/812/99 389/764/99
f 401/789/98 402/814/98 390/766/98
f 402/791/97 403/816/97 391/792/97
f 391/793/108 403/818/108 404/794/108
f 392/771/107 404/820/107 405/795/107
f 393/773/106 405/822/106 406/797/106
f 406/799/105 407/824/105 395/800/105
f 407/801/104 408/826/104 396/802/104
f 408/803/103 397/828/103 385/804/103
f 397/781/114 409/829/114 410/805/114
f 410/807/113 411/832/113 399/808/113
f 411/809/112 412/834/112 400/786/112
f 400/787/111 412/836/111 413/811/111
f 401/789/110 413/837/110 414/813/110
f 414/815/109 415/840/109 403/816/109
f 415/817/120 416/842/120 404/794/120
f 416/819/119 417/844/119 405/795/119
f 417/821/118 418/846/118 406/797/118
f 406/799/117 418/848/117 419/823/117
f 407/801/116 419/850/116 420/825/116
f 420/827/115 409/852/115 397/828/115
f 409/829/126 421/854/126 422/830/126
f 422/831/125 423/856/125 411/832/125
f 423/833/124 424/858/124 412/834/124
f 424/835/123 425/860/123 413/811/123
f 413/837/122 425/862/122 426/838/122
f 426/839/121 427/864/121 415/840/121
f 415/817/132 427/866/132 428/841/132
f 428/843/131 429/868/131 417/844/131
f 417/821/130 429/870/130 430/845/130
f 430/847/129 431/872/129 419/823/129
f 431/849/128 432/874/128 420/825/128
f 432/851/127 421/876/127 409/852/127
f 433/853/138 434/878/138 422/830/138
f 434/855/137 435/880/137 423/856/137
f 435/857/136 436/882/136 424/858/136
f 424/835/135 436/884/135 437/859/135
f 437/861/134 438/886/134 426/838/134
f 426/839/133 438/888/133 439/863/133
f 439/865/144 440/890/144 428/841/144
f 440/867/143 441/892/143 429/868/143
f 441/869/142 442/894/142 430/845/142
f 442/871/141 443/896/141 431/872/141
f 431/849/140 443/898/140 444/873/140
f 444/875/139 433/900/139 421/876/139
f 445/877/150 446/902/150 434/878/150
f 446/879/149 447/904/149 435/880/149
f 435/857/148 447/906/148 448/881/148
f 448/883/147 449/908/147 437/859/147
f 449/885/146 450/910/146 438/886/146
f 450/887/145 451/912/145 439/863/145
f 451/889/156 452/914/156 440/890/156
f 440/867/155 452/916/155 453/891/155
f 441/869/154 453/917/154 454/893/154
f 454/895/153 455/920/153 443/896/153
f 455/897/152 456/922/152 444/873/152
f 456/899/151 445/924/151 433/900/151
f 457/901/162 458/926/162 446/902/162
f 458/903/161 459/928/161 447/904/161
f 459/905/160 460/930/160 448/881/160
f 460/907/159 461/932/159 449/908/159
f 449/885/158 461/934/158 462/909/158
f 462/911/157 463/936/157 451/912/157
f 463/913/168 464/938/168 452/914/168
f 464/915/167 465/940/167 453/891/167
f 453/917/166 465/942/166 466/918/166
f 454/895/165 466/944/165 467/919/165
f 455/897/164 467/945/164 468/921/164
f 468/923/163 457/948/163 445/924/163
f 469/925/174 470/950/174 458/926/174
f 470/927/173 471/952/173 459/928/173
f 471/929/172 472/954/172 460/930/172
f 460/907/171 472/955/171 473/931/171
f 473/933/170 474/958/170 462/909/170
f 462/911/169 474/959/169 475/935/169
f 475/937/180 476/962/180 464/938/180
f 476/939/179 477/964/179 465/940/179
f 477/941/178 478/966/178 466/918/178
f 478/943/177 479/968/177 467/919/177
f 467/945/176 479/970/176 480/946/176
f 468/923/175 480/972/175 469/947/175
f 481/949/186 482/974/186 470/950/186
f 470/927/185 482/976/185 483/951/185
f 471/929/184 483/978/184 484/953/184
f 472/955/183 484/980/183 485/956/183
f 473/933/182 485/982/182 486/957/182
f 474/959/181 486/984/181 487/960/181
f 487/961/192 488/986/192 476/962/192
f 488/963/191 489/988/191 477/964/191
f 489/965/190 490/990/190 478/966/190
f 490/967/189 491/992/189 479/968/189
f 491/969/188 492/994/188 480/946/188
f 492/971/187 481/996/187 469/947/187
f 481/949/198 493/997/198 494/973/198
f 494/975/197 495/1000/197 483/951/197
f 495/977/196 496/1002/196 484/953/196
f 496/979/195 497/1004/195 485/956/195
f 497/981/194 498/1006/194 486/957/194
f 498/983/193 499/1008/193 487/960/193
f 487/961/204 499/1010/204 500/985/204
f 488/963/203 500/1012/203 501/987/203
f 489/965/202 501/1014/202 502/989/202
f 490/967/201 502/1016/201 503/991/201
f 491/969/200 503/1018/200 504/993/200
f 504/995/199 493/1020/199 481/996/199
f 493/997/210 505/1021/210 506/998/210
f 506/999/209 507/1024/209 495/1000/209
f 495/977/208 507/1025/208 508/1001/208
f 496/979/207 508/1028/207 509/1003/207
f 497/981/206 509/1030/206 510/1005/206
f 498/983/205 510/1031/205 511/1007/205
f 511/1009/216 512/1034/216 500/985/216
f 512/1011/215 513/1036/215 501/987/215
f 513/1013/214 514/1038/214 502/989/214
f 514/1015/213 515/1040/213 503/991/213
f 515/1017/212 516/1042/212 504/993/212
f 516/1019/211 505/1044/211 493/1020/211
f 505/1021/222 517/1045/222 518/1022/222
f 518/1023/221 519/1048/221 507/1024/221
f 507/1025/220 519/1050/220 520/1026/220
f 520/1027/219 521/1052/219 509/1003/219
f 521/1029/218 522/1054/218 510/1005/218
f 510/1031/217 522/1055/217 523/1032/217
f 523/1033/228 524/1058/228 512/1034/228
f 512/1011/227 524/1059/227 525/1035/227
f 525/1037/226 526/1062/226 514/1038/226
f 526/1039/225 527/1064/225 515/1040/225
f 515/1017/224 527/1065/224 528/1041/224
f 528/1043/223 517/1068/223 505/1044/223
f 517/1045/234 529/1069/234 530/1046/234
f 530/1047/233 531/1072/233 519/1048/233
f 531/1049/232 532/1074/232 520/1026/232
f 520/1027/231 532/1075/231 533/1051/231
f 533/1053/230 534/1078/230 522/1054/230
f 522/1055/229 534/1079/229 535/1056/229
f 535/1057/240 536/1082/240 524/1058/240
f 524/1059/239 536/1084/239 537/1060/239
f 537/1061/238 538/1086/238 526/1062/238
f 538/1063/237 539/1088/237 527/1064/237
f 527/1065/236 539/1090/236 540/1066/236
f 540/1067/235 529/1092/235 517/1068/235
f 529/1069/246 541/1094/246 542/1070/246
f 530/1047/245 542/1096/245 543/1071/245
f 531/1049/244 543/1098/244 544/1073/244
f 532/1075/243 544/1100/243 545/1076/243
f 545/1077/242 546/1102/242 534/1078/242
f 534/1079/241 546/1104/241 547/1080/241
f 547/1081/252 548/1106/252 536/1082/252
f 548/1083/251 549/1108/251 537/1060/251
f 549/1085/250 550/1110/250 538/1086/250
f 550/1087/249 551/1112/249 539/1088/249
f 551/1089/248 552/1114/248 540/1066/248
f 552/1091/247 541/1116/247 529/1092/247
f 553/1093/258 554/1118/258 542/1070/258
f 554/1095/257 555/1120/257 543/1071/257
f 555/1097/256 556/1122/256 544/1073/256
f 556/1099/255 557/1124/255 545/1076/255
f 557/1101/254 558/1126/254 546/1102/254
f 558/1103/253 559/1128/253 547/1080/253
f 547/1081/264 559/1130/264 560/1105/264
f 548/1083/263 560/1132/263 561/1107/263
f 561/1109/262 562/1134/262 550/1110/262
f 550/1087/261 562/1136/261 563/1111/261
f 563/1113/260 564/1138/260 552/1114/260
f 552/1091/259 564/1140/259 553/1115/259
f 565/1117/270 566/1141/270 554/1118/270
f 554/1095/269 566/1142/269 567/1119/269
f 555/1097/268 567/1143/268 568/1121/268
f 556/1099/267 568/1144/267 569/1123/267
f 557/1101/266 569/1145/266 570/1125/266
f 558/1103/265 570/1146/265 571/1127/265
f 571/1129/276 572/1147/276 560/1105/276
f 572/1131/275 573/1148/275 561/1107/275
f 573/1133/274 574/1149/274 562/1134/274
f 574/1135/273 575/1150/273 563/1111/273
f 575/1137/272 576/1151/272 564/1138/272
f 576/1139/271 565/1152/271 553/1115/271
f 1/1/282 2/3/282 566/1141/282
f 2/4/281 3/6/281 567/1119/281
f 3/7/280 4/9/280 568/1121/280
f 4/10/279 5/12/279 569/1123/279
f 569/1145/278 5/15/278 6/14/278
f 6/16/277 7/18/277 571/1127/277
f 571/1129/288 7/21/288 8/20/288
f 8/22/287 9/24/287 573/1148/287
f 573/1133/286 9/27/286 10/26/286
f 574/1135/285 10/30/285 11/29/285
f 575/1137/284 11/33/284 12/32/284
f 576/1139/283 12/36/283 1/35/283
o トーラス.001
v -1.000000 0.000000 1.000000
v -1.000000 0.000000 -1.000000
v 1.000000 0.000000 1.000000
v 1.000000 0.000000 -1.000000
vn -0.0000 1.0000 -0.0000
vt 0.014716 0.914971
vt 0.213800 0.721375
vt 0.213800 0.914864
vt 0.016669 0.721748
s 0
usemtl マテリアル
f 579/1153/289 578/1154/289 577/1155/289
f 579/1153/289 580/1156/289 578/1154/289
