# Blender 4.4.1
# www.blender.org
mtllib player.mtl
o 立方体
v 0.460742 -0.460742 -1.203750
v 0.460742 0.460742 -1.203750
v 0.460742 -0.460742 1.203750
v 0.460742 0.460742 1.203750
v -0.460742 -0.460742 -1.203750
v -0.460742 0.460742 -1.203750
v -0.460742 -0.460742 1.203750
v -0.460742 0.460742 1.203750
v 0.000000 -0.566850 1.203750
v 0.000000 0.566850 1.203750
v 0.000000 -0.566850 -1.203750
v 0.000000 0.566850 -1.203750
v 0.566850 0.000000 -1.203750
v 0.566850 0.000000 1.203750
v -0.566850 0.000000 1.203750
v -0.566850 0.000000 -1.203750
v 0.000000 0.000000 -1.203750
v 0.000000 0.000000 1.203750
v -0.283425 0.566850 1.203750
v -0.283425 -0.566850 -1.203750
v -0.283425 -0.566850 1.203750
v -0.283425 0.566850 -1.203750
v -0.283425 0.000000 -1.203750
v -0.283425 0.000000 1.203750
v 0.278544 -0.566850 1.203750
v 0.278544 0.566850 -1.203750
v 0.278544 0.566850 1.203750
v 0.278544 -0.566850 -1.203750
v 0.278544 0.000000 1.203750
v 0.278544 0.000000 -1.203750
v 0.566850 0.283425 -1.203750
v 0.566850 0.283425 1.203750
v -0.566850 0.283425 1.203750
v -0.566850 0.283425 -1.203750
v 0.000000 0.283425 -1.203750
v 0.000000 0.283425 1.203750
v -0.283425 0.283425 -1.203750
v -0.283425 0.283425 1.203750
v 0.278544 0.283425 1.203750
v 0.278544 0.283425 -1.203750
v 0.566850 -0.289188 1.203750
v -0.566850 -0.289188 1.203750
v -0.566850 -0.289188 -1.203750
v 0.000000 -0.289188 -1.203750
v 0.000000 -0.289188 1.203750
v 0.566850 -0.289188 -1.203750
v -0.283425 -0.289188 1.203750
v -0.283425 -0.289188 -1.203750
v 0.278544 -0.289188 -1.203750
v 0.278544 -0.289188 1.203750
v 0.000000 0.138722 -1.173307
v 0.000000 0.138722 -1.641956
v -0.027063 0.136057 -1.173307
v -0.027063 0.136057 -1.641956
v -0.053087 0.128163 -1.173307
v -0.053087 0.128163 -1.641956
v -0.077070 0.115343 -1.173307
v -0.077070 0.115343 -1.641956
v -0.098092 0.098092 -1.173307
v -0.098092 0.098092 -1.641956
v -0.115343 0.077070 -1.173307
v -0.115343 0.077070 -1.641956
v -0.128163 0.053087 -1.173307
v -0.128163 0.053087 -1.641956
v -0.136057 0.027063 -1.173307
v -0.136057 0.027063 -1.641956
v -0.138722 0.000000 -1.173307
v -0.138722 -0.000000 -1.641956
v -0.136057 -0.027063 -1.173307
v -0.136057 -0.027063 -1.641956
v -0.128163 -0.053087 -1.173307
v -0.128163 -0.053087 -1.641956
v -0.115343 -0.077070 -1.173307
v -0.115343 -0.077070 -1.641956
v -0.098092 -0.098092 -1.173307
v -0.098092 -0.098092 -1.641956
v -0.077070 -0.115343 -1.173307
v -0.077070 -0.115343 -1.641956
v -0.053087 -0.128163 -1.173307
v -0.053087 -0.128163 -1.641956
v -0.027063 -0.136057 -1.173307
v -0.027063 -0.136057 -1.641956
v 0.000000 -0.138722 -1.173307
v 0.000000 -0.138722 -1.641956
v 0.027063 -0.136057 -1.173307
v 0.027063 -0.136057 -1.641956
v 0.053087 -0.128163 -1.173307
v 0.053087 -0.128163 -1.641956
v 0.077070 -0.115343 -1.173307
v 0.077070 -0.115343 -1.641956
v 0.098092 -0.098092 -1.173307
v 0.098092 -0.098092 -1.641956
v 0.115343 -0.077070 -1.173307
v 0.115343 -0.077070 -1.641956
v 0.128163 -0.053087 -1.173307
v 0.128163 -0.053087 -1.641956
v 0.136057 -0.027063 -1.173307
v 0.136057 -0.027063 -1.641956
v 0.138722 0.000000 -1.173307
v 0.138722 -0.000000 -1.641956
v 0.136057 0.027063 -1.173307
v 0.136057 0.027063 -1.641956
v 0.128163 0.053087 -1.173307
v 0.128163 0.053087 -1.641956
v 0.115343 0.077070 -1.173307
v 0.115343 0.077070 -1.641956
v 0.098092 0.098092 -1.173307
v 0.098092 0.098092 -1.641956
v 0.077070 0.115343 -1.173307
v 0.077070 0.115343 -1.641956
v 0.053087 0.128163 -1.173307
v 0.053087 0.128163 -1.641956
v 0.027063 0.136057 -1.173307
v 0.027063 0.136057 -1.641956
v 0.000000 0.487314 -1.535889
v 0.000000 0.487314 -1.725204
v -0.095070 0.477950 -1.535889
v -0.095070 0.477950 -1.725204
v -0.186487 0.450219 -1.535889
v -0.186487 0.450219 -1.725204
v -0.270737 0.405187 -1.535889
v -0.270737 0.405187 -1.725204
v -0.344583 0.344583 -1.535889
v -0.344583 0.344583 -1.725204
v -0.405187 0.270737 -1.535889
v -0.405187 0.270737 -1.725204
v -0.450219 0.186487 -1.535889
v -0.450219 0.186487 -1.725204
v -0.477950 0.095070 -1.535889
v -0.477950 0.095070 -1.725204
v -0.487314 0.000000 -1.535889
v -0.487314 -0.000000 -1.725204
v -0.477950 -0.095070 -1.535889
v -0.477950 -0.095070 -1.725204
v -0.450219 -0.186487 -1.535889
v -0.450219 -0.186487 -1.725204
v -0.405187 -0.270737 -1.535889
v -0.405187 -0.270737 -1.725204
v -0.344583 -0.344583 -1.535889
v -0.344583 -0.344583 -1.725204
v -0.270737 -0.405187 -1.535889
v -0.270737 -0.405187 -1.725204
v -0.186487 -0.450219 -1.535889
v -0.186487 -0.450219 -1.725204
v -0.095070 -0.477950 -1.535889
v -0.095070 -0.477950 -1.725204
v 0.000000 -0.487314 -1.535889
v 0.000000 -0.487314 -1.725204
v 0.095070 -0.477950 -1.535889
v 0.095070 -0.477950 -1.725204
v 0.186487 -0.450219 -1.535889
v 0.186487 -0.450219 -1.725204
v 0.270737 -0.405187 -1.535889
v 0.270737 -0.405187 -1.725204
v 0.344583 -0.344583 -1.535889
v 0.344583 -0.344583 -1.725204
v 0.405187 -0.270737 -1.535889
v 0.405187 -0.270737 -1.725204
v 0.450219 -0.186487 -1.535889
v 0.450219 -0.186487 -1.725204
v 0.477950 -0.095070 -1.535889
v 0.477950 -0.095070 -1.725204
v 0.487314 0.000000 -1.535889
v 0.487314 -0.000000 -1.725204
v 0.477950 0.095070 -1.535889
v 0.477950 0.095070 -1.725204
v 0.450219 0.186487 -1.535889
v 0.450219 0.186487 -1.725204
v 0.405187 0.270737 -1.535889
v 0.405187 0.270737 -1.725204
v 0.344583 0.344583 -1.535889
v 0.344583 0.344583 -1.725204
v 0.270737 0.405187 -1.535889
v 0.270737 0.405187 -1.725204
v 0.186487 0.450219 -1.535889
v 0.186487 0.450219 -1.725204
v 0.095070 0.477950 -1.535889
v 0.095070 0.477950 -1.725204
v 0.000000 0.992423 0.472118
v 0.000000 0.992423 -0.026274
v -0.020246 0.990429 0.472118
v -0.020246 0.990429 -0.026274
v -0.039714 0.984524 0.472118
v -0.039714 0.984524 -0.026274
v -0.057655 0.974934 0.472118
v -0.057655 0.974934 -0.026274
v -0.073381 0.962028 0.472118
v -0.073381 0.962028 -0.026274
v -0.086287 0.946302 0.472118
v -0.086287 0.946302 -0.026274
v -0.095877 0.928360 0.472118
v -0.095877 0.928360 -0.026274
v -0.101783 0.908892 0.472118
v -0.101783 0.908892 -0.026274
v -0.103777 0.888646 0.472118
v -0.103777 0.888646 -0.026274
v -0.101783 0.868400 0.472118
v -0.101783 0.868400 -0.026274
v -0.095877 0.848933 0.472118
v -0.095877 0.848933 -0.026274
v -0.086287 0.830991 0.472118
v -0.086287 0.830991 -0.026274
v -0.073381 0.815265 0.472118
v -0.073381 0.815265 -0.026274
v -0.057655 0.802359 0.472118
v -0.057655 0.802359 -0.026274
v -0.039714 0.792769 0.472118
v -0.039714 0.792769 -0.026274
v -0.020246 0.786864 0.472118
v -0.020246 0.786864 -0.026274
v 0.000000 0.784870 0.472118
v 0.000000 0.784870 -0.026274
v 0.020246 0.786864 0.472118
v 0.020246 0.786864 -0.026274
v 0.039714 0.792769 0.472118
v 0.039714 0.792769 -0.026274
v 0.057655 0.802359 0.472118
v 0.057655 0.802359 -0.026274
v 0.073381 0.815265 0.472118
v 0.073381 0.815265 -0.026274
v 0.086287 0.830991 0.472118
v 0.086287 0.830991 -0.026274
v 0.095877 0.848933 0.472118
v 0.095877 0.848933 -0.026274
v 0.101783 0.868400 0.472118
v 0.101783 0.868400 -0.026274
v 0.103777 0.888646 0.472118
v 0.103777 0.888646 -0.026274
v 0.101783 0.908892 0.472118
v 0.101783 0.908892 -0.026274
v 0.095877 0.928360 0.472118
v 0.095877 0.928360 -0.026274
v 0.086287 0.946302 0.472118
v 0.086287 0.946302 -0.026274
v 0.073381 0.962028 0.472118
v 0.073381 0.962028 -0.026274
v 0.057655 0.974934 0.472118
v 0.057655 0.974934 -0.026274
v 0.039714 0.984524 0.472118
v 0.039714 0.984524 -0.026274
v 0.020246 0.990429 0.472118
v 0.020246 0.990429 -0.026274
v 0.000000 0.498093 0.103777
v 0.000000 0.996485 0.103777
v -0.020246 0.498093 0.101783
v -0.020246 0.996485 0.101783
v -0.039714 0.498093 0.095877
v -0.039714 0.996485 0.095877
v -0.057655 0.498093 0.086287
v -0.057655 0.996485 0.086287
v -0.073381 0.498093 0.073381
v -0.073381 0.996485 0.073381
v -0.086287 0.498093 0.057655
v -0.086287 0.996485 0.057655
v -0.095877 0.498093 0.039714
v -0.095877 0.996485 0.039714
v -0.101783 0.498093 0.020246
v -0.101783 0.996485 0.020246
v -0.103777 0.498093 0.000000
v -0.103777 0.996485 0.000000
v -0.101783 0.498093 -0.020246
v -0.101783 0.996485 -0.020246
v -0.095877 0.498093 -0.039714
v -0.095877 0.996485 -0.039714
v -0.086287 0.498093 -0.057655
v -0.086287 0.996485 -0.057655
v -0.073381 0.498093 -0.073381
v -0.073381 0.996485 -0.073381
v -0.057655 0.498093 -0.086287
v -0.057655 0.996485 -0.086287
v -0.039714 0.498093 -0.095877
v -0.039714 0.996485 -0.095877
v -0.020246 0.498093 -0.101783
v -0.020246 0.996485 -0.101783
v 0.000000 0.498093 -0.103777
v 0.000000 0.996485 -0.103777
v 0.020246 0.498093 -0.101783
v 0.020246 0.996485 -0.101783
v 0.039714 0.498093 -0.095877
v 0.039714 0.996485 -0.095877
v 0.057655 0.498093 -0.086287
v 0.057655 0.996485 -0.086287
v 0.073381 0.498093 -0.073381
v 0.073381 0.996485 -0.073381
v 0.086287 0.498093 -0.057655
v 0.086287 0.996485 -0.057655
v 0.095877 0.498093 -0.039714
v 0.095877 0.996485 -0.039714
v 0.101783 0.498093 -0.020246
v 0.101783 0.996485 -0.020246
v 0.103777 0.498093 0.000000
v 0.103777 0.996485 0.000000
v 0.101783 0.498093 0.020246
v 0.101783 0.996485 0.020246
v 0.095877 0.498093 0.039714
v 0.095877 0.996485 0.039714
v 0.086287 0.498093 0.057655
v 0.086287 0.996485 0.057655
v 0.073381 0.498093 0.073381
v 0.073381 0.996485 0.073381
v 0.057655 0.498093 0.086287
v 0.057655 0.996485 0.086287
v 0.039714 0.498093 0.095877
v 0.039714 0.996485 0.095877
v 0.020246 0.498093 0.101783
v 0.020246 0.996485 0.101783
vn 0.8581 0.5135 -0.0000
vn -0.0000 -0.0000 1.0000
vn -0.8581 0.5135 -0.0000
vn -0.0000 -0.0000 -1.0000
vn -0.5135 -0.8581 -0.0000
vn 0.5033 0.8641 -0.0000
vn -0.0000 1.0000 -0.0000
vn -0.0000 -1.0000 -0.0000
vn -1.0000 -0.0000 -0.0000
vn 1.0000 -0.0000 -0.0000
vn -0.5135 0.8581 -0.0000
vn 0.5033 -0.8641 -0.0000
vn 0.8505 -0.5260 -0.0000
vn -0.8505 -0.5260 -0.0000
vn -0.0980 0.9952 -0.0000
vn -0.2903 0.9569 -0.0000
vn -0.4714 0.8819 -0.0000
vn -0.6344 0.7730 -0.0000
vn -0.7730 0.6344 -0.0000
vn -0.8819 0.4714 -0.0000
vn -0.9569 0.2903 -0.0000
vn -0.9952 0.0980 -0.0000
vn -0.9952 -0.0980 -0.0000
vn -0.9569 -0.2903 -0.0000
vn -0.8819 -0.4714 -0.0000
vn -0.7730 -0.6344 -0.0000
vn -0.6344 -0.7730 -0.0000
vn -0.4714 -0.8819 -0.0000
vn -0.2903 -0.9569 -0.0000
vn -0.0980 -0.9952 -0.0000
vn 0.0980 -0.9952 -0.0000
vn 0.2903 -0.9569 -0.0000
vn 0.4714 -0.8819 -0.0000
vn 0.6344 -0.7730 -0.0000
vn 0.7730 -0.6344 -0.0000
vn 0.8819 -0.4714 -0.0000
vn 0.9569 -0.2903 -0.0000
vn 0.9952 -0.0980 -0.0000
vn 0.9952 0.0980 -0.0000
vn 0.9569 0.2903 -0.0000
vn 0.8819 0.4714 -0.0000
vn 0.7730 0.6344 -0.0000
vn 0.6344 0.7730 -0.0000
vn 0.4714 0.8819 -0.0000
vn 0.2903 0.9569 -0.0000
vn 0.0980 0.9952 -0.0000
vn -0.0980 -0.0000 0.9952
vn -0.2903 -0.0000 0.9569
vn -0.4714 -0.0000 0.8819
vn -0.6344 -0.0000 0.7730
vn -0.7730 -0.0000 0.6344
vn -0.8819 -0.0000 0.4714
vn -0.9569 -0.0000 0.2903
vn -0.9952 -0.0000 0.0980
vn -0.9952 -0.0000 -0.0980
vn -0.9569 -0.0000 -0.2903
vn -0.8819 -0.0000 -0.4714
vn -0.7730 -0.0000 -0.6344
vn -0.6344 -0.0000 -0.7730
vn -0.4714 -0.0000 -0.8819
vn -0.2903 -0.0000 -0.9569
vn -0.0980 -0.0000 -0.9952
vn 0.0980 -0.0000 -0.9952
vn 0.2903 -0.0000 -0.9569
vn 0.4714 -0.0000 -0.8819
vn 0.6344 -0.0000 -0.7730
vn 0.7730 -0.0000 -0.6344
vn 0.8819 -0.0000 -0.4714
vn 0.9569 -0.0000 -0.2903
vn 0.9952 -0.0000 -0.0980
vn 0.9952 -0.0000 0.0980
vn 0.9569 -0.0000 0.2903
vn 0.8819 -0.0000 0.4714
vn 0.7730 -0.0000 0.6344
vn 0.6344 -0.0000 0.7730
vn 0.4714 -0.0000 0.8819
vn 0.2903 -0.0000 0.9569
vn 0.0980 -0.0000 0.9952
vn -0.0000 -0.0001 -1.0000
vn -0.0000 0.0001 -1.0000
vt 0.562500 0.000000
vt 0.625000 0.250000
vt 0.562500 0.250000
vt 0.562500 0.437500
vt 0.625000 0.500000
vt 0.562500 0.500000
vt 0.625000 0.750000
vt 0.562500 0.750000
vt 0.562500 0.936424
vt 0.625000 1.000000
vt 0.562500 1.000000
vt 0.312500 0.500000
vt 0.375000 0.750000
vt 0.312500 0.750000
vt 0.875000 0.500000
vt 0.811424 0.750000
vt 0.811424 0.500000
vt 0.750000 0.500000
vt 0.687500 0.750000
vt 0.687500 0.500000
vt 0.250000 0.500000
vt 0.188576 0.750000
vt 0.188576 0.500000
vt 0.625000 0.812500
vt 0.562500 0.875000
vt 0.562500 0.812500
vt 0.625000 0.313576
vt 0.562500 0.375000
vt 0.562500 0.313576
vt 0.500000 0.313576
vt 0.436229 0.375000
vt 0.436229 0.313576
vt 0.500000 0.812500
vt 0.436229 0.875000
vt 0.436229 0.812500
vt 0.500000 0.936424
vt 0.436229 1.000000
vt 0.436229 0.936424
vt 0.500000 0.500000
vt 0.436229 0.750000
vt 0.436229 0.500000
vt 0.500000 0.437500
vt 0.436229 0.437500
vt 0.500000 0.000000
vt 0.436229 0.250000
vt 0.436229 0.000000
vt 0.500000 0.375000
vt 0.500000 0.750000
vt 0.250000 0.750000
vt 0.625000 0.375000
vt 0.500000 0.875000
vt 0.500000 0.250000
vt 0.125000 0.750000
vt 0.125000 0.500000
vt 0.750000 0.750000
vt 0.625000 0.875000
vt 0.500000 1.000000
vt 0.375000 0.250000
vt 0.375000 0.313576
vt 0.375000 0.936424
vt 0.375000 0.875000
vt 0.375000 0.812500
vt 0.375000 0.437500
vt 0.375000 0.375000
vt 0.375000 0.000000
vt 0.375000 0.500000
vt 0.375000 1.000000
vt 1.000000 1.000000
vt 0.968750 0.500000
vt 1.000000 0.500000
vt 0.968750 1.000000
vt 0.937500 0.500000
vt 0.906250 1.000000
vt 0.906250 0.500000
vt 0.875000 1.000000
vt 0.843750 0.500000
vt 0.843750 1.000000
vt 0.812500 0.500000
vt 0.812500 1.000000
vt 0.781250 0.500000
vt 0.781250 1.000000
vt 0.750000 1.000000
vt 0.718750 0.500000
vt 0.718750 1.000000
vt 0.687500 1.000000
vt 0.656250 0.500000
vt 0.656250 1.000000
vt 0.593750 0.500000
vt 0.531250 1.000000
vt 0.531250 0.500000
vt 0.468750 0.500000
vt 0.468750 1.000000
vt 0.437500 0.500000
vt 0.437500 1.000000
vt 0.406250 0.500000
vt 0.406250 1.000000
vt 0.343750 0.500000
vt 0.343750 1.000000
vt 0.312500 1.000000
vt 0.281250 0.500000
vt 0.281250 1.000000
vt 0.250000 1.000000
vt 0.218750 0.500000
vt 0.218750 1.000000
vt 0.187500 0.500000
vt 0.187500 1.000000
vt 0.156250 0.500000
vt 0.156250 1.000000
vt 0.125000 1.000000
vt 0.093750 0.500000
vt 0.093750 1.000000
vt 0.062500 0.500000
vt 0.158156 0.028269
vt 0.471731 0.158156
vt 0.341844 0.471731
vt 0.062500 1.000000
vt 0.031250 0.500000
vt 0.000000 1.000000
vt 0.000000 0.500000
vt 0.796822 0.014612
vt 0.514612 0.203178
vt 0.703178 0.485388
vt 0.937500 1.000000
vt 0.593750 1.000000
vt 0.031250 1.000000
vt 0.625000 0.000000
vt 0.625000 0.437500
vt 0.625000 0.936424
vt 0.875000 0.750000
vt 0.296822 0.485388
vt 0.250000 0.490000
vt 0.203178 0.485388
vt 0.158156 0.471731
vt 0.116663 0.449553
vt 0.080294 0.419706
vt 0.050447 0.383337
vt 0.028269 0.341844
vt 0.014612 0.296822
vt 0.010000 0.250000
vt 0.014612 0.203178
vt 0.028269 0.158156
vt 0.050447 0.116663
vt 0.080294 0.080294
vt 0.116663 0.050447
vt 0.203178 0.014612
vt 0.250000 0.010000
vt 0.296822 0.014612
vt 0.341844 0.028269
vt 0.383337 0.050447
vt 0.419706 0.080294
vt 0.449553 0.116663
vt 0.485388 0.203178
vt 0.490000 0.250000
vt 0.485388 0.296822
vt 0.471731 0.341844
vt 0.449553 0.383337
vt 0.419706 0.419706
vt 0.383337 0.449553
vt 0.750000 0.490000
vt 0.796822 0.485388
vt 0.841844 0.471731
vt 0.883337 0.449553
vt 0.919706 0.419706
vt 0.949553 0.383337
vt 0.971731 0.341844
vt 0.985388 0.296822
vt 0.990000 0.250000
vt 0.985388 0.203178
vt 0.971731 0.158156
vt 0.949553 0.116663
vt 0.919706 0.080294
vt 0.883337 0.050447
vt 0.841844 0.028269
vt 0.750000 0.010000
vt 0.703178 0.014612
vt 0.658156 0.028269
vt 0.616663 0.050447
vt 0.580294 0.080294
vt 0.550447 0.116663
vt 0.528269 0.158156
vt 0.510000 0.250000
vt 0.514612 0.296822
vt 0.528269 0.341844
vt 0.550447 0.383337
vt 0.580294 0.419706
vt 0.616663 0.449553
vt 0.658156 0.471731
s 0
f 31/1/1 4/2/1 32/3/1
f 38/4/2 8/5/2 33/6/2
f 33/6/3 6/7/3 34/8/3
f 40/9/4 2/10/4 31/11/4
f 21/12/5 5/13/5 20/14/5
f 4/15/6 26/16/6 27/17/6
f 10/18/7 22/19/7 19/20/7
f 9/21/8 28/22/8 25/23/8
f 22/24/4 35/25/4 37/26/4
f 27/27/2 36/28/2 39/29/2
f 29/30/2 45/31/2 50/32/2
f 23/33/4 44/34/4 48/35/4
f 30/36/4 46/37/4 49/38/4
f 15/39/9 43/40/9 42/41/9
f 24/42/2 42/41/2 47/43/2
f 13/44/10 41/45/10 46/46/10
f 18/47/2 47/43/2 45/31/2
f 16/48/4 48/35/4 43/40/4
f 6/7/4 37/26/4 34/8/4
f 19/20/11 6/7/11 8/5/11
f 21/12/8 11/49/8 9/21/8
f 10/50/2 38/4/2 36/28/2
f 17/51/4 49/38/4 44/34/4
f 14/52/2 50/32/2 41/45/2
f 4/2/2 39/29/2 32/3/2
f 25/23/12 1/53/12 3/54/12
f 27/17/7 12/55/7 10/18/7
f 12/56/4 40/9/4 35/25/4
f 35/25/4 30/36/4 17/51/4
f 32/3/2 29/30/2 14/52/2
f 36/28/2 24/42/2 18/47/2
f 34/8/4 23/33/4 16/48/4
f 39/29/2 18/47/2 29/30/2
f 37/26/4 17/51/4 23/33/4
f 40/9/4 13/57/4 30/36/4
f 33/6/9 16/48/9 15/39/9
f 38/4/2 15/39/2 24/42/2
f 31/1/10 14/52/10 13/44/10
f 3/58/2 50/32/2 25/59/2
f 44/34/4 28/60/4 11/61/4
f 5/13/4 48/35/4 20/62/4
f 45/31/2 21/63/2 9/64/2
f 46/46/13 3/58/13 1/65/13
f 47/43/2 7/66/2 21/63/2
f 42/41/14 5/13/14 7/66/14
f 49/38/4 1/67/4 28/60/4
f 48/35/4 11/61/4 20/62/4
f 50/32/2 9/64/2 25/59/2
f 52/68/15 53/69/15 51/70/15
f 54/71/16 55/72/16 53/69/16
f 55/72/17 58/73/17 57/74/17
f 58/73/18 59/15/18 57/74/18
f 60/75/19 61/76/19 59/15/19
f 62/77/20 63/78/20 61/76/20
f 64/79/21 65/80/21 63/78/21
f 66/81/22 67/18/22 65/80/22
f 68/82/23 69/83/23 67/18/23
f 70/84/24 71/20/24 69/83/24
f 72/85/25 73/86/25 71/20/25
f 74/87/26 75/5/26 73/86/26
f 76/10/27 77/88/27 75/5/27
f 77/88/28 80/11/28 79/6/28
f 79/6/29 82/89/29 81/90/29
f 82/89/30 83/39/30 81/90/30
f 84/57/31 85/91/31 83/39/31
f 86/92/32 87/93/32 85/91/32
f 88/94/33 89/95/33 87/93/33
f 90/96/34 91/66/34 89/95/34
f 92/67/35 93/97/35 91/66/35
f 94/98/36 95/12/36 93/97/36
f 96/99/37 97/100/37 95/12/37
f 98/101/38 99/21/38 97/100/38
f 100/102/39 101/103/39 99/21/39
f 102/104/40 103/105/40 101/103/40
f 104/106/41 105/107/41 103/105/41
f 106/108/42 107/54/42 105/107/42
f 108/109/43 109/110/43 107/54/43
f 110/111/44 111/112/44 109/110/44
f 88/113/4 72/114/4 56/115/4
f 112/116/45 113/117/45 111/112/45
f 113/117/46 52/118/46 51/119/46
f 81/120/2 97/121/2 113/122/2
f 116/68/15 117/69/15 115/70/15
f 118/71/16 119/72/16 117/69/16
f 120/123/17 121/74/17 119/72/17
f 122/73/18 123/15/18 121/74/18
f 124/75/19 125/76/19 123/15/19
f 126/77/20 127/78/20 125/76/20
f 128/79/21 129/80/21 127/78/21
f 130/81/22 131/18/22 129/80/22
f 132/82/23 133/83/23 131/18/23
f 134/84/24 135/20/24 133/83/24
f 136/85/25 137/86/25 135/20/25
f 138/87/26 139/5/26 137/86/26
f 140/10/27 141/88/27 139/5/27
f 142/124/28 143/6/28 141/88/28
f 144/11/29 145/90/29 143/6/29
f 146/89/30 147/39/30 145/90/30
f 148/57/31 149/91/31 147/39/31
f 150/92/32 151/93/32 149/91/32
f 152/94/33 153/95/33 151/93/33
f 154/96/34 155/66/34 153/95/34
f 156/67/35 157/97/35 155/66/35
f 158/98/36 159/12/36 157/97/36
f 160/99/37 161/100/37 159/12/37
f 162/101/38 163/21/38 161/100/38
f 164/102/39 165/103/39 163/21/39
f 166/104/40 167/105/40 165/103/40
f 168/106/41 169/107/41 167/105/41
f 170/108/42 171/54/42 169/107/42
f 172/109/43 173/110/43 171/54/43
f 174/111/44 175/112/44 173/110/44
f 152/113/4 136/114/4 120/115/4
f 176/116/45 177/117/45 175/112/45
f 178/125/46 115/119/46 177/117/46
f 145/120/2 161/121/2 177/122/2
f 180/68/15 181/69/15 179/70/15
f 182/71/16 183/72/16 181/69/16
f 184/123/17 185/74/17 183/72/17
f 186/73/18 187/15/18 185/74/18
f 188/75/19 189/76/19 187/15/19
f 190/77/20 191/78/20 189/76/20
f 192/79/21 193/80/21 191/78/21
f 194/81/22 195/18/22 193/80/22
f 196/82/23 197/83/23 195/18/23
f 198/84/24 199/20/24 197/83/24
f 200/85/25 201/86/25 199/20/25
f 202/87/26 203/5/26 201/86/26
f 204/10/27 205/88/27 203/5/27
f 206/124/28 207/6/28 205/88/28
f 208/11/29 209/90/29 207/6/29
f 210/89/30 211/39/30 209/90/30
f 212/57/31 213/91/31 211/39/31
f 213/91/32 216/94/32 215/93/32
f 216/94/33 217/95/33 215/93/33
f 217/95/34 220/67/34 219/66/34
f 219/66/35 222/98/35 221/97/35
f 222/98/36 223/12/36 221/97/36
f 224/99/37 225/100/37 223/12/37
f 226/101/38 227/21/38 225/100/38
f 228/102/39 229/103/39 227/21/39
f 230/104/40 231/105/40 229/103/40
f 232/106/41 233/107/41 231/105/41
f 234/108/42 235/54/42 233/107/42
f 236/109/43 237/110/43 235/54/43
f 238/111/44 239/112/44 237/110/44
f 216/113/4 200/114/4 184/115/4
f 240/116/45 241/117/45 239/112/45
f 242/125/46 179/119/46 241/117/46
f 209/120/2 225/121/2 241/122/2
f 244/68/47 245/69/47 243/70/47
f 246/71/48 247/72/48 245/69/48
f 248/123/49 249/74/49 247/72/49
f 250/73/50 251/15/50 249/74/50
f 252/75/51 253/76/51 251/15/51
f 254/77/52 255/78/52 253/76/52
f 256/79/53 257/80/53 255/78/53
f 258/81/54 259/18/54 257/80/54
f 260/82/55 261/83/55 259/18/55
f 262/84/56 263/20/56 261/83/56
f 264/85/57 265/86/57 263/20/57
f 266/87/58 267/5/58 265/86/58
f 268/10/59 269/88/59 267/5/59
f 270/124/60 271/6/60 269/88/60
f 272/11/61 273/90/61 271/6/61
f 274/89/62 275/39/62 273/90/62
f 276/57/63 277/91/63 275/39/63
f 278/92/64 279/93/64 277/91/64
f 280/94/65 281/95/65 279/93/65
f 282/96/66 283/66/66 281/95/66
f 284/67/67 285/97/67 283/66/67
f 286/98/68 287/12/68 285/97/68
f 288/99/69 289/100/69 287/12/69
f 290/101/70 291/21/70 289/100/70
f 292/102/71 293/103/71 291/21/71
f 294/104/72 295/105/72 293/103/72
f 296/106/73 297/107/73 295/105/73
f 298/108/74 299/54/74 297/107/74
f 300/109/75 301/110/75 299/54/75
f 302/111/76 303/112/76 301/110/76
f 280/113/7 264/114/7 248/115/7
f 304/116/77 305/117/77 303/112/77
f 306/125/78 243/119/78 305/117/78
f 273/120/8 289/121/8 305/122/8
f 31/1/1 2/126/1 4/2/1
f 38/4/2 19/127/2 8/5/2
f 33/6/3 8/5/3 6/7/3
f 40/9/4 26/128/4 2/10/4
f 21/12/5 7/66/5 5/13/5
f 4/15/6 2/129/6 26/16/6
f 10/18/7 12/55/7 22/19/7
f 9/21/8 11/49/8 28/22/8
f 22/24/4 12/56/4 35/25/4
f 27/27/2 10/50/2 36/28/2
f 29/30/2 18/47/2 45/31/2
f 23/33/4 17/51/4 44/34/4
f 30/36/4 13/57/4 46/37/4
f 15/39/9 16/48/9 43/40/9
f 24/42/2 15/39/2 42/41/2
f 13/44/10 14/52/10 41/45/10
f 18/47/2 24/42/2 47/43/2
f 16/48/4 23/33/4 48/35/4
f 6/7/4 22/24/4 37/26/4
f 19/20/11 22/19/11 6/7/11
f 21/12/8 20/14/8 11/49/8
f 10/50/2 19/127/2 38/4/2
f 17/51/4 30/36/4 49/38/4
f 14/52/2 29/30/2 50/32/2
f 4/2/2 27/27/2 39/29/2
f 25/23/12 28/22/12 1/53/12
f 27/17/7 26/16/7 12/55/7
f 12/56/4 26/128/4 40/9/4
f 35/25/4 40/9/4 30/36/4
f 32/3/2 39/29/2 29/30/2
f 36/28/2 38/4/2 24/42/2
f 34/8/4 37/26/4 23/33/4
f 39/29/2 36/28/2 18/47/2
f 37/26/4 35/25/4 17/51/4
f 40/9/4 31/11/4 13/57/4
f 33/6/9 34/8/9 16/48/9
f 38/4/2 33/6/2 15/39/2
f 31/1/10 32/3/10 14/52/10
f 3/58/2 41/45/2 50/32/2
f 44/34/4 49/38/4 28/60/4
f 5/13/4 43/40/4 48/35/4
f 45/31/2 47/43/2 21/63/2
f 46/46/13 41/45/13 3/58/13
f 47/43/2 42/41/2 7/66/2
f 42/41/14 43/40/14 5/13/14
f 49/38/4 46/37/4 1/67/4
f 48/35/4 44/34/4 11/61/4
f 50/32/2 45/31/2 9/64/2
f 52/68/15 54/71/15 53/69/15
f 54/71/16 56/123/16 55/72/16
f 55/72/17 56/123/17 58/73/17
f 58/73/18 60/75/18 59/15/18
f 60/75/19 62/77/19 61/76/19
f 62/77/20 64/79/20 63/78/20
f 64/79/21 66/81/21 65/80/21
f 66/81/22 68/82/22 67/18/22
f 68/82/23 70/84/23 69/83/23
f 70/84/24 72/85/24 71/20/24
f 72/85/25 74/87/25 73/86/25
f 74/87/26 76/10/26 75/5/26
f 76/10/27 78/124/27 77/88/27
f 77/88/28 78/124/28 80/11/28
f 79/6/29 80/11/29 82/89/29
f 82/89/30 84/57/30 83/39/30
f 84/57/31 86/92/31 85/91/31
f 86/92/32 88/94/32 87/93/32
f 88/94/33 90/96/33 89/95/33
f 90/96/34 92/67/34 91/66/34
f 92/67/35 94/98/35 93/97/35
f 94/98/36 96/99/36 95/12/36
f 96/99/37 98/101/37 97/100/37
f 98/101/38 100/102/38 99/21/38
f 100/102/39 102/104/39 101/103/39
f 102/104/40 104/106/40 103/105/40
f 104/106/41 106/108/41 105/107/41
f 106/108/42 108/109/42 107/54/42
f 108/109/43 110/111/43 109/110/43
f 110/111/44 112/116/44 111/112/44
f 56/115/79 54/130/79 52/131/79
f 52/131/79 114/132/79 112/133/79
f 112/133/4 110/134/4 108/135/4
f 108/135/4 106/136/4 104/137/4
f 104/137/4 102/138/4 100/139/4
f 100/139/4 98/140/4 96/141/4
f 96/141/4 94/142/4 92/143/4
f 92/143/4 90/144/4 88/113/4
f 88/113/80 86/145/80 84/146/80
f 84/146/80 82/147/80 80/148/80
f 80/148/4 78/149/4 76/150/4
f 76/150/4 74/151/4 72/114/4
f 72/114/4 70/152/4 68/153/4
f 68/153/4 66/154/4 64/155/4
f 64/155/4 62/156/4 60/157/4
f 60/157/4 58/158/4 56/115/4
f 56/115/4 52/131/4 112/133/4
f 112/133/4 108/135/4 104/137/4
f 104/137/4 100/139/4 96/141/4
f 96/141/4 92/143/4 88/113/4
f 88/113/4 84/146/4 80/148/4
f 80/148/4 76/150/4 72/114/4
f 72/114/4 68/153/4 64/155/4
f 64/155/4 60/157/4 56/115/4
f 56/115/4 112/133/4 104/137/4
f 104/137/4 96/141/4 88/113/4
f 88/113/4 80/148/4 72/114/4
f 72/114/4 64/155/4 56/115/4
f 56/115/4 104/137/4 88/113/4
f 112/116/45 114/125/45 113/117/45
f 113/117/46 114/125/46 52/118/46
f 113/122/2 51/159/2 53/160/2
f 53/160/2 55/161/2 57/162/2
f 57/162/2 59/163/2 61/164/2
f 61/164/2 63/165/2 65/166/2
f 65/166/2 67/167/2 69/168/2
f 69/168/2 71/169/2 73/170/2
f 73/170/2 75/171/2 77/172/2
f 77/172/2 79/173/2 81/120/2
f 81/120/2 83/174/2 85/175/2
f 85/175/2 87/176/2 89/177/2
f 89/177/2 91/178/2 93/179/2
f 93/179/2 95/180/2 97/121/2
f 97/121/2 99/181/2 101/182/2
f 101/182/2 103/183/2 105/184/2
f 105/184/2 107/185/2 109/186/2
f 109/186/2 111/187/2 113/122/2
f 113/122/2 53/160/2 57/162/2
f 57/162/2 61/164/2 65/166/2
f 65/166/2 69/168/2 73/170/2
f 73/170/2 77/172/2 81/120/2
f 81/120/2 85/175/2 89/177/2
f 89/177/2 93/179/2 97/121/2
f 97/121/2 101/182/2 105/184/2
f 105/184/2 109/186/2 113/122/2
f 113/122/2 57/162/2 65/166/2
f 65/166/2 73/170/2 81/120/2
f 81/120/2 89/177/2 97/121/2
f 97/121/2 105/184/2 113/122/2
f 113/122/2 65/166/2 81/120/2
f 116/68/15 118/71/15 117/69/15
f 118/71/16 120/123/16 119/72/16
f 120/123/17 122/73/17 121/74/17
f 122/73/18 124/75/18 123/15/18
f 124/75/19 126/77/19 125/76/19
f 126/77/20 128/79/20 127/78/20
f 128/79/21 130/81/21 129/80/21
f 130/81/22 132/82/22 131/18/22
f 132/82/23 134/84/23 133/83/23
f 134/84/24 136/85/24 135/20/24
f 136/85/25 138/87/25 137/86/25
f 138/87/26 140/10/26 139/5/26
f 140/10/27 142/124/27 141/88/27
f 142/124/28 144/11/28 143/6/28
f 144/11/29 146/89/29 145/90/29
f 146/89/30 148/57/30 147/39/30
f 148/57/31 150/92/31 149/91/31
f 150/92/32 152/94/32 151/93/32
f 152/94/33 154/96/33 153/95/33
f 154/96/34 156/67/34 155/66/34
f 156/67/35 158/98/35 157/97/35
f 158/98/36 160/99/36 159/12/36
f 160/99/37 162/101/37 161/100/37
f 162/101/38 164/102/38 163/21/38
f 164/102/39 166/104/39 165/103/39
f 166/104/40 168/106/40 167/105/40
f 168/106/41 170/108/41 169/107/41
f 170/108/42 172/109/42 171/54/42
f 172/109/43 174/111/43 173/110/43
f 174/111/44 176/116/44 175/112/44
f 120/115/4 118/130/4 116/131/4
f 116/131/4 178/132/4 176/133/4
f 176/133/4 174/134/4 172/135/4
f 172/135/4 170/136/4 168/137/4
f 168/137/4 166/138/4 164/139/4
f 164/139/4 162/140/4 160/141/4
f 160/141/4 158/142/4 156/143/4
f 156/143/4 154/144/4 152/113/4
f 152/113/4 150/145/4 148/146/4
f 148/146/4 146/147/4 144/148/4
f 144/148/4 142/149/4 140/150/4
f 140/150/4 138/151/4 136/114/4
f 136/114/4 134/152/4 132/153/4
f 132/153/4 130/154/4 128/155/4
f 128/155/4 126/156/4 124/157/4
f 124/157/4 122/158/4 120/115/4
f 120/115/4 116/131/4 176/133/4
f 176/133/4 172/135/4 168/137/4
f 168/137/4 164/139/4 160/141/4
f 160/141/4 156/143/4 152/113/4
f 152/113/4 148/146/4 144/148/4
f 144/148/4 140/150/4 136/114/4
f 136/114/4 132/153/4 128/155/4
f 128/155/4 124/157/4 120/115/4
f 120/115/4 176/133/4 168/137/4
f 168/137/4 160/141/4 152/113/4
f 152/113/4 144/148/4 136/114/4
f 136/114/4 128/155/4 120/115/4
f 120/115/4 168/137/4 152/113/4
f 176/116/45 178/125/45 177/117/45
f 178/125/46 116/118/46 115/119/46
f 177/122/2 115/159/2 117/160/2
f 117/160/2 119/161/2 121/162/2
f 121/162/2 123/163/2 125/164/2
f 125/164/2 127/165/2 129/166/2
f 129/166/2 131/167/2 133/168/2
f 133/168/2 135/169/2 137/170/2
f 137/170/2 139/171/2 141/172/2
f 141/172/2 143/173/2 145/120/2
f 145/120/2 147/174/2 149/175/2
f 149/175/2 151/176/2 153/177/2
f 153/177/2 155/178/2 157/179/2
f 157/179/2 159/180/2 161/121/2
f 161/121/2 163/181/2 165/182/2
f 165/182/2 167/183/2 169/184/2
f 169/184/2 171/185/2 173/186/2
f 173/186/2 175/187/2 177/122/2
f 177/122/2 117/160/2 121/162/2
f 121/162/2 125/164/2 129/166/2
f 129/166/2 133/168/2 137/170/2
f 137/170/2 141/172/2 145/120/2
f 145/120/2 149/175/2 153/177/2
f 153/177/2 157/179/2 161/121/2
f 161/121/2 165/182/2 169/184/2
f 169/184/2 173/186/2 177/122/2
f 177/122/2 121/162/2 129/166/2
f 129/166/2 137/170/2 145/120/2
f 145/120/2 153/177/2 161/121/2
f 161/121/2 169/184/2 177/122/2
f 177/122/2 129/166/2 145/120/2
f 180/68/15 182/71/15 181/69/15
f 182/71/16 184/123/16 183/72/16
f 184/123/17 186/73/17 185/74/17
f 186/73/18 188/75/18 187/15/18
f 188/75/19 190/77/19 189/76/19
f 190/77/20 192/79/20 191/78/20
f 192/79/21 194/81/21 193/80/21
f 194/81/22 196/82/22 195/18/22
f 196/82/23 198/84/23 197/83/23
f 198/84/24 200/85/24 199/20/24
f 200/85/25 202/87/25 201/86/25
f 202/87/26 204/10/26 203/5/26
f 204/10/27 206/124/27 205/88/27
f 206/124/28 208/11/28 207/6/28
f 208/11/29 210/89/29 209/90/29
f 210/89/30 212/57/30 211/39/30
f 212/57/31 214/92/31 213/91/31
f 213/91/32 214/92/32 216/94/32
f 216/94/33 218/96/33 217/95/33
f 217/95/34 218/96/34 220/67/34
f 219/66/35 220/67/35 222/98/35
f 222/98/36 224/99/36 223/12/36
f 224/99/37 226/101/37 225/100/37
f 226/101/38 228/102/38 227/21/38
f 228/102/39 230/104/39 229/103/39
f 230/104/40 232/106/40 231/105/40
f 232/106/41 234/108/41 233/107/41
f 234/108/42 236/109/42 235/54/42
f 236/109/43 238/111/43 237/110/43
f 238/111/44 240/116/44 239/112/44
f 184/115/4 182/130/4 180/131/4
f 180/131/4 242/132/4 240/133/4
f 240/133/4 238/134/4 236/135/4
f 236/135/4 234/136/4 232/137/4
f 232/137/4 230/138/4 228/139/4
f 228/139/4 226/140/4 224/141/4
f 224/141/4 222/142/4 220/143/4
f 220/143/4 218/144/4 216/113/4
f 216/113/4 214/145/4 212/146/4
f 212/146/4 210/147/4 208/148/4
f 208/148/4 206/149/4 204/150/4
f 204/150/4 202/151/4 200/114/4
f 200/114/4 198/152/4 196/153/4
f 196/153/4 194/154/4 192/155/4
f 192/155/4 190/156/4 188/157/4
f 188/157/4 186/158/4 184/115/4
f 184/115/4 180/131/4 240/133/4
f 240/133/4 236/135/4 232/137/4
f 232/137/4 228/139/4 224/141/4
f 224/141/4 220/143/4 216/113/4
f 216/113/4 212/146/4 208/148/4
f 208/148/4 204/150/4 200/114/4
f 200/114/4 196/153/4 192/155/4
f 192/155/4 188/157/4 184/115/4
f 184/115/4 240/133/4 232/137/4
f 232/137/4 224/141/4 216/113/4
f 216/113/4 208/148/4 200/114/4
f 200/114/4 192/155/4 184/115/4
f 184/115/4 232/137/4 216/113/4
f 240/116/45 242/125/45 241/117/45
f 242/125/46 180/118/46 179/119/46
f 241/122/2 179/159/2 181/160/2
f 181/160/2 183/161/2 185/162/2
f 185/162/2 187/163/2 189/164/2
f 189/164/2 191/165/2 193/166/2
f 193/166/2 195/167/2 197/168/2
f 197/168/2 199/169/2 201/170/2
f 201/170/2 203/171/2 205/172/2
f 205/172/2 207/173/2 209/120/2
f 209/120/2 211/174/2 213/175/2
f 213/175/2 215/176/2 217/177/2
f 217/177/2 219/178/2 221/179/2
f 221/179/2 223/180/2 225/121/2
f 225/121/2 227/181/2 229/182/2
f 229/182/2 231/183/2 233/184/2
f 233/184/2 235/185/2 237/186/2
f 237/186/2 239/187/2 241/122/2
f 241/122/2 181/160/2 185/162/2
f 185/162/2 189/164/2 193/166/2
f 193/166/2 197/168/2 201/170/2
f 201/170/2 205/172/2 209/120/2
f 209/120/2 213/175/2 217/177/2
f 217/177/2 221/179/2 225/121/2
f 225/121/2 229/182/2 233/184/2
f 233/184/2 237/186/2 241/122/2
f 241/122/2 185/162/2 193/166/2
f 193/166/2 201/170/2 209/120/2
f 209/120/2 217/177/2 225/121/2
f 225/121/2 233/184/2 241/122/2
f 241/122/2 193/166/2 209/120/2
f 244/68/47 246/71/47 245/69/47
f 246/71/48 248/123/48 247/72/48
f 248/123/49 250/73/49 249/74/49
f 250/73/50 252/75/50 251/15/50
f 252/75/51 254/77/51 253/76/51
f 254/77/52 256/79/52 255/78/52
f 256/79/53 258/81/53 257/80/53
f 258/81/54 260/82/54 259/18/54
f 260/82/55 262/84/55 261/83/55
f 262/84/56 264/85/56 263/20/56
f 264/85/57 266/87/57 265/86/57
f 266/87/58 268/10/58 267/5/58
f 268/10/59 270/124/59 269/88/59
f 270/124/60 272/11/60 271/6/60
f 272/11/61 274/89/61 273/90/61
f 274/89/62 276/57/62 275/39/62
f 276/57/63 278/92/63 277/91/63
f 278/92/64 280/94/64 279/93/64
f 280/94/65 282/96/65 281/95/65
f 282/96/66 284/67/66 283/66/66
f 284/67/67 286/98/67 285/97/67
f 286/98/68 288/99/68 287/12/68
f 288/99/69 290/101/69 289/100/69
f 290/101/70 292/102/70 291/21/70
f 292/102/71 294/104/71 293/103/71
f 294/104/72 296/106/72 295/105/72
f 296/106/73 298/108/73 297/107/73
f 298/108/74 300/109/74 299/54/74
f 300/109/75 302/111/75 301/110/75
f 302/111/76 304/116/76 303/112/76
f 248/115/7 246/130/7 244/131/7
f 244/131/7 306/132/7 304/133/7
f 304/133/7 302/134/7 300/135/7
f 300/135/7 298/136/7 296/137/7
f 296/137/7 294/138/7 292/139/7
f 292/139/7 290/140/7 288/141/7
f 288/141/7 286/142/7 284/143/7
f 284/143/7 282/144/7 280/113/7
f 280/113/7 278/145/7 276/146/7
f 276/146/7 274/147/7 272/148/7
f 272/148/7 270/149/7 268/150/7
f 268/150/7 266/151/7 264/114/7
f 264/114/7 262/152/7 260/153/7
f 260/153/7 258/154/7 256/155/7
f 256/155/7 254/156/7 252/157/7
f 252/157/7 250/158/7 248/115/7
f 248/115/7 244/131/7 304/133/7
f 304/133/7 300/135/7 296/137/7
f 296/137/7 292/139/7 288/141/7
f 288/141/7 284/143/7 280/113/7
f 280/113/7 276/146/7 272/148/7
f 272/148/7 268/150/7 264/114/7
f 264/114/7 260/153/7 256/155/7
f 256/155/7 252/157/7 248/115/7
f 248/115/7 304/133/7 296/137/7
f 296/137/7 288/141/7 280/113/7
f 280/113/7 272/148/7 264/114/7
f 264/114/7 256/155/7 248/115/7
f 248/115/7 296/137/7 280/113/7
f 304/116/77 306/125/77 305/117/77
f 306/125/78 244/118/78 243/119/78
f 305/122/8 243/159/8 245/160/8
f 245/160/8 247/161/8 249/162/8
f 249/162/8 251/163/8 253/164/8
f 253/164/8 255/165/8 257/166/8
f 257/166/8 259/167/8 261/168/8
f 261/168/8 263/169/8 265/170/8
f 265/170/8 267/171/8 269/172/8
f 269/172/8 271/173/8 273/120/8
f 273/120/8 275/174/8 277/175/8
f 277/175/8 279/176/8 281/177/8
f 281/177/8 283/178/8 285/179/8
f 285/179/8 287/180/8 289/121/8
f 289/121/8 291/181/8 293/182/8
f 293/182/8 295/183/8 297/184/8
f 297/184/8 299/185/8 301/186/8
f 301/186/8 303/187/8 305/122/8
f 305/122/8 245/160/8 249/162/8
f 249/162/8 253/164/8 257/166/8
f 257/166/8 261/168/8 265/170/8
f 265/170/8 269/172/8 273/120/8
f 273/120/8 277/175/8 281/177/8
f 281/177/8 285/179/8 289/121/8
f 289/121/8 293/182/8 297/184/8
f 297/184/8 301/186/8 305/122/8
f 305/122/8 249/162/8 257/166/8
f 257/166/8 265/170/8 273/120/8
f 273/120/8 281/177/8 289/121/8
f 289/121/8 297/184/8 305/122/8
f 305/122/8 257/166/8 273/120/8
