# Blender 4.4.1
# www.blender.org
mtllib stone2.mtl
o 立方体.024
v -12.846096 -0.579160 -59.583519
v -16.501610 3.225694 -60.639057
v -16.216532 -0.579162 -62.179359
v -17.550636 -0.579160 -57.006096
v -11.626279 -0.579160 -55.743366
v -13.895125 3.225696 -55.950554
v -13.639704 3.225694 -59.218090
v -14.933684 7.030552 -58.281055
v -16.501610 7.030550 -60.639057
v -17.213964 10.835406 -57.548618
v -15.416595 7.030552 -55.781918
v -15.774453 10.835408 -55.465775
v -15.340506 7.030552 -52.407612
v -14.950666 3.225696 -52.295044
v -14.562702 -0.579160 -48.033302
v -12.395517 -0.579160 -51.533981
v -16.006208 3.225696 -48.639530
v -17.038214 7.030552 -49.480015
v -17.880268 10.835408 -49.180668
v -18.412468 7.030554 -47.166649
v -17.086245 10.588234 -52.382931
v -17.767820 12.747682 -53.108505
v -18.885681 12.935205 -49.470989
v -19.677992 12.169614 -48.818417
v -21.481134 12.860354 -49.721172
v -20.759407 13.615737 -52.112957
v -22.643284 14.165910 -51.979771
v -22.261688 15.405169 -54.406120
v -19.375736 13.561941 -53.572792
v -17.524920 12.910513 -55.333660
v -18.483009 13.468150 -56.392956
v -21.206150 14.096649 -58.061634
v -19.168880 12.974454 -57.467632
v -17.436138 12.063866 -57.180172
v -18.602139 10.835406 -59.061558
v -20.157120 7.030550 -61.694592
v -21.084930 12.374983 -59.793961
v -21.129303 10.835406 -60.614178
v -23.812630 7.030550 -62.750134
v -23.613701 10.835406 -61.085682
v -25.733986 7.030550 -61.876736
v -26.079428 11.976776 -60.110050
v -23.862141 12.721460 -60.381306
v -25.986607 10.835406 -61.021152
v -26.857494 10.835406 -59.249004
v -28.127335 7.030550 -60.060154
v -29.815933 7.030552 -56.637146
v -27.229641 3.225694 -63.265274
v -27.945049 10.835408 -56.519226
v -29.436247 3.225694 -60.704662
v -27.468143 -0.579162 -63.805679
v -30.600739 3.225696 -56.410542
v -29.647892 -0.579162 -60.392818
v -31.888670 -0.579160 -56.891224
v -25.917202 -0.579160 -55.461670
v -24.861664 -0.579160 -59.117176
v -23.426563 -0.579162 -63.997910
v -21.206150 -0.579160 -58.061634
v -18.606178 -0.579160 -53.350582
v -19.668280 -0.579162 -63.555588
v -22.261688 -0.579160 -54.406120
v -23.317230 -0.579160 -50.750614
v -26.972742 -0.579160 -51.806156
v -32.429718 -0.305160 -53.070736
v -28.270433 -0.579160 -47.007263
v -31.690310 -0.579160 -49.183628
v -28.525232 3.225696 -47.539192
v -30.632122 3.225696 -49.804260
v -29.925795 7.030552 -50.324696
v -28.333790 7.030552 -48.569881
v -31.254004 3.225696 -52.702354
v -30.238415 7.030552 -52.749126
v -28.883348 9.975974 -53.206841
v -27.417301 12.302507 -53.351944
v -28.502735 10.835408 -51.317406
v -26.162682 10.835408 -50.116493
v -27.718906 11.872961 -51.424255
v -25.864090 12.682421 -51.188000
v -23.032703 12.736623 -49.990292
v -24.227898 10.835408 -49.056297
v -25.787556 13.802909 -52.392567
v -26.868059 11.610368 -55.725204
v -24.931942 15.376033 -55.177170
v -26.590506 12.672094 -58.373001
v -24.252481 14.950107 -57.802223
v -24.446436 7.030554 -47.061447
v -21.330301 10.835408 -48.269871
v -19.281164 10.835408 -48.043964
v -20.098171 7.030554 -46.004379
v -17.980604 3.225696 -46.063347
v -20.725548 3.225698 -45.635490
v -20.821049 -0.579158 -44.876926
v -24.540741 3.225696 -46.553406
v -24.821308 -0.579158 -45.397282
v -17.068260 -0.579158 -44.961464
v -19.661720 -0.579160 -49.695068
v -20.157120 3.225694 -61.694592
v -23.812630 3.225694 -62.750134
v 42.861061 -0.579159 -35.228569
v 46.665916 3.225697 -35.228565
v 46.819340 -0.579159 -33.669640
v 46.665916 -0.579159 -39.009953
v 40.623787 -0.579159 -38.579586
v 42.861061 3.225697 -39.009949
v 43.522148 3.225697 -35.799809
v 44.505383 7.030553 -37.059032
v 46.665916 7.030553 -35.228565
v 46.492962 10.835409 -38.395329
v 44.276031 7.030553 -39.594051
v 42.861065 3.225697 -42.814808
v 44.532139 10.835410 -39.997059
v 43.266827 7.030553 -42.814812
v 44.937195 10.588235 -43.322819
v 44.085724 7.030553 -46.098469
v 42.861057 3.225695 -46.619663
v 44.811684 10.835408 -46.619663
v 44.764263 7.030551 -48.702278
v 45.842247 10.835408 -48.100388
v 44.043282 3.225695 -49.642464
v 46.061371 7.030551 -50.286572
v 46.561783 3.225695 -50.815029
v 47.873627 10.835408 -48.451817
v 50.532207 7.030552 -50.477287
v 50.481869 3.225695 -50.991554
v 54.583443 3.225695 -51.149826
v 54.685444 7.030551 -50.106483
v 53.028622 10.835407 -48.018280
v 50.875664 10.835407 -48.500118
v 49.986485 12.736621 -47.271206
v 53.039005 12.682420 -46.905991
v 53.299648 13.802909 -45.727474
v 50.164276 14.165907 -45.251785
v 55.131573 12.302506 -45.257866
v 54.886559 11.872960 -47.193565
v 55.609978 10.835408 -47.513676
v 56.701786 7.030552 -48.862209
v 56.499817 9.975973 -45.803986
v 57.674721 7.030553 -46.619663
v 58.347431 7.030553 -42.767048
v 56.517269 10.835409 -42.361320
v 57.674725 7.030553 -39.009953
v 55.262276 11.610369 -42.825405
v 56.229694 10.835410 -39.436981
v 55.730171 12.672098 -40.204533
v 55.721043 11.976779 -38.393879
v 53.666035 12.721463 -37.518154
v 54.275635 13.699349 -42.814804
v 53.325565 13.813623 -40.104294
v 50.470772 14.096651 -39.009953
v 50.470772 15.405170 -42.814808
v 48.391293 13.615736 -44.601200
v 47.391602 13.468151 -39.857677
v 47.466911 13.561942 -42.814804
v 46.177238 12.910515 -40.609608
v 45.793312 12.747684 -42.814804
v 45.858173 12.935205 -46.619663
v 46.438347 12.169612 -47.466427
v 48.421158 12.860353 -47.099327
v 46.604206 12.063868 -38.810940
v 48.246368 10.835410 -37.326878
v 47.899746 12.974458 -37.758194
v 50.834892 12.374988 -37.311985
v 53.622757 10.835410 -36.772495
v 51.105064 10.835410 -36.536282
v 54.275631 7.030553 -35.228569
v 50.470768 7.030553 -35.228565
v 50.470768 3.225697 -35.228565
v 54.275631 3.225697 -35.228569
v 50.517395 -0.579158 -33.305008
v 54.250874 -0.579159 -33.922665
v 54.275631 -0.579159 -39.009949
v 58.080486 -0.579159 -35.228565
v 50.470772 -0.579159 -39.009953
v 50.470772 -0.579159 -42.814808
v 54.275635 -0.579159 -42.814804
v 59.227886 -0.579159 -39.112179
v 60.409302 -0.579159 -43.097958
v 59.869232 -0.305161 -46.918591
v 54.275627 -0.579161 -46.619663
v 50.470772 -0.579161 -46.619667
v 54.191074 -0.579161 -51.590191
v 58.080486 -0.579161 -50.447994
v 57.236015 3.225695 -49.558155
v 58.637474 3.225695 -46.946346
v 59.038570 3.225697 -43.202484
v 59.111057 3.225697 -38.753860
v 57.701424 3.225697 -35.681595
v 55.879272 7.030554 -36.600704
v 55.884621 10.835409 -37.492794
v 50.430695 -0.579161 -52.180126
v 46.443096 -0.579161 -51.570305
v 42.861061 -0.579161 -50.447990
v 46.665916 -0.579161 -46.619659
v 46.665920 -0.579159 -42.814808
v 41.306030 -0.579161 -46.801640
v 40.195072 -0.579159 -42.837143
v 33.462616 -0.579163 -61.748039
v 32.869431 3.225695 -57.989704
v 31.305645 -0.579161 -58.081200
v 36.604584 -0.579161 -57.400181
v 37.121456 -0.579163 -63.435528
v 37.197765 3.225693 -61.158516
v 33.923817 3.225693 -61.005989
v 35.014355 7.030550 -59.838448
v 32.869431 7.030550 -57.989704
v 36.024429 10.835405 -57.666840
v 37.554123 7.030550 -59.669788
v 40.956100 3.225693 -60.565334
v 37.912281 10.835406 -59.353985
v 40.892838 7.030549 -60.164532
v 41.134224 10.588231 -58.435379
v 44.008682 7.030550 -58.843712
v 44.714432 3.225693 -59.972149
v 44.410328 10.835406 -58.045383
v 46.474865 7.030550 -57.767540
v 45.712273 10.835408 -56.796574
v 47.515965 3.225695 -58.333138
v 47.837566 7.030550 -56.239300
v 48.281551 3.225695 -55.662621
v 45.742710 10.835408 -54.735233
v 47.328945 7.030552 -51.793396
v 47.844761 3.225695 -51.762936
v 47.361664 3.225695 -47.686844
v 46.315178 7.030551 -47.748741
v 44.510807 10.835407 -49.710869
v 45.322395 10.835407 -51.762386
v 44.247143 12.736621 -52.832275
v 43.410500 12.682420 -49.874020
v 43.406517 11.872960 -48.004219
v 42.205757 13.802909 -49.800293
v 42.224697 14.165907 -52.971493
v 41.456295 12.302506 -48.063980
v 43.609932 10.835408 -47.239742
v 39.033188 11.610367 -48.314098
v 41.782425 9.975973 -46.627323
v 38.379135 10.835407 -47.146797
v 38.494576 7.030553 -45.275764
v 34.888294 7.030553 -46.525986
v 35.535385 10.835408 -47.886772
v 36.371422 12.672096 -48.260529
v 34.584339 11.976777 -48.551823
v 34.039700 12.721461 -50.718235
v 39.336430 15.376031 -50.303310
v 36.647293 14.950107 -50.651352
v 36.011402 14.096649 -53.641850
v 39.769733 15.405169 -53.048668
v 41.858479 13.615736 -54.824219
v 37.328812 13.468149 -56.551216
v 40.238041 13.561940 -56.015800
v 40.498959 12.747679 -57.668945
v 38.260860 12.910511 -57.633503
v 36.417625 12.063865 -57.492165
v 34.695686 10.835408 -56.101444
v 36.347679 12.974456 -55.737141
v 34.277431 12.374985 -53.546894
v 33.309906 10.835408 -50.877235
v 33.469090 10.835408 -53.400959
v 31.683067 7.030551 -50.473042
v 32.276249 7.030550 -54.231373
v 32.276249 3.225695 -54.231373
v 31.683067 3.225695 -50.473042
v 30.368946 -0.579161 -54.485207
v 30.396994 -0.579161 -50.701088
v 35.418221 -0.579161 -49.883518
v 31.089886 -0.579161 -46.714706
v 36.011402 -0.579161 -53.641850
v 39.176552 -0.579161 -49.290337
v 39.769733 -0.579161 -53.048668
v 40.362915 -0.579161 -56.806999
v 43.528069 -0.579161 -52.455486
v 42.934883 -0.579161 -48.697155
v 46.123215 -0.579159 -44.341976
v 42.358105 -0.305159 -43.125343
v 47.857819 -0.579161 -48.005760
v 49.026787 -0.579161 -51.628185
v 49.046097 -0.579161 -55.662106
v 44.121250 -0.579161 -56.213818
v 48.495945 -0.579161 -59.375309
v 45.136612 -0.579163 -61.479794
v 41.393787 -0.579163 -63.195236
v 45.375919 3.225697 -45.314854
v 38.499989 -0.579159 -43.187515
v 38.816933 3.225697 -44.525196
v 42.577553 3.225697 -44.337719
v 42.404961 7.030553 -45.339619
v 44.771759 7.030554 -45.951046
v 34.411407 3.225697 -45.147137
v 34.747124 -0.579159 -44.975880
v 31.596472 3.225695 -47.018509
v 32.788418 7.030552 -48.675091
v 33.668758 10.835407 -48.530727
v 44.247177 12.935203 -57.011677
v 44.321404 12.860353 -54.405262
v 44.993134 12.169612 -56.306591
v 17.429195 -0.579161 -47.626038
v 21.234049 3.225695 -47.626038
v 21.387474 -0.579159 -46.067108
v 21.234051 -0.579161 -51.407425
v 15.191922 -0.579161 -50.977058
v 17.429195 3.225695 -51.407417
v 18.090279 3.225695 -48.197277
v 19.073517 7.030551 -49.456505
v 21.234049 7.030551 -47.626038
v 21.061096 10.835407 -50.792797
v 18.844164 7.030551 -51.991520
v 17.429193 3.225695 -55.212276
v 19.100269 10.835408 -52.394527
v 17.834959 7.030550 -55.212280
v 19.505327 10.588233 -55.720287
v 18.653854 7.030550 -58.495937
v 19.379818 10.835406 -59.017128
v 19.332397 7.030549 -61.099751
v 17.429195 3.225693 -59.017132
v 18.611412 3.225693 -62.039940
v 15.874166 -0.579161 -59.199112
v 17.429193 -0.579163 -62.845459
v 21.011227 -0.579163 -63.967773
v 21.234053 -0.579161 -59.017136
v 25.038908 -0.579161 -59.017139
v 21.234051 -0.579161 -55.212276
v 25.038904 -0.579161 -55.212276
v 28.843760 -0.579161 -59.017132
v 28.843765 -0.579161 -55.212273
v 25.038902 -0.579161 -51.407421
v 28.819006 -0.579161 -46.320133
v 28.843765 -0.579161 -51.407421
v 25.085531 -0.579159 -45.702477
v 25.038902 3.225695 -47.626034
v 28.843765 3.225695 -47.626038
v 28.843765 7.030551 -47.626038
v 25.038902 7.030551 -47.626034
v 25.673199 10.835408 -48.933750
v 22.814501 10.835408 -49.724346
v 25.403027 12.374985 -49.709457
v 22.467880 12.974456 -50.155663
v 21.172340 12.063866 -51.208412
v 21.959732 13.468149 -52.255150
v 20.745373 12.910513 -53.007072
v 22.035046 13.561940 -55.212276
v 20.361444 12.747682 -55.212273
v 22.959425 13.615734 -56.998669
v 20.426308 12.935203 -59.017139
v 22.989288 12.860352 -59.496803
v 21.006481 12.169610 -59.863899
v 20.410381 10.835406 -60.497856
v 22.441765 10.835406 -60.849285
v 20.629501 7.030549 -62.684040
v 25.100342 7.030550 -62.874760
v 25.443796 10.835405 -60.897579
v 24.554617 12.736619 -59.668674
v 24.732410 14.165905 -57.649258
v 27.607138 12.682418 -59.303459
v 29.454693 11.872958 -59.591034
v 27.596756 10.835405 -60.415745
v 27.867779 13.802907 -58.124943
v 29.699707 12.302505 -57.655334
v 30.178108 10.835406 -59.911140
v 29.830410 11.610367 -55.222870
v 28.843765 13.699347 -55.212273
v 31.067949 9.975971 -58.201458
v 31.085400 10.835407 -54.758789
v 30.797829 10.835408 -51.834450
v 30.298302 12.672096 -52.602001
v 32.915565 7.030550 -55.164520
v 32.242851 7.030551 -51.407425
v 33.679192 3.225695 -51.151333
v 30.452755 10.835407 -49.890259
v 30.447403 7.030552 -48.998177
v 32.269554 3.225695 -48.079063
v 32.648621 -0.579161 -47.626038
v 33.796017 -0.579161 -51.509644
v 33.606705 3.225695 -55.599953
v 34.977432 -0.579161 -55.495430
v 34.437363 -0.305161 -59.316055
v 32.648621 -0.579163 -62.845467
v 31.804146 3.225693 -61.955631
v 33.205605 3.225693 -59.343819
v 32.242851 7.030550 -59.017128
v 31.269918 7.030550 -61.259678
v 29.253578 7.030549 -62.503956
v 29.151585 3.225693 -63.547302
v 28.759209 -0.579163 -63.987659
v 25.050005 3.225693 -63.389027
v 24.998825 -0.579163 -64.577599
v 21.129917 3.225693 -63.212494
v 28.190887 10.835408 -49.169968
v 30.289175 11.976777 -50.791351
v 28.234165 12.721461 -49.915627
v 25.038902 14.096649 -51.407421
v 27.893700 13.813622 -52.501762
v 25.038904 15.405169 -55.212276
v 14.763203 -0.579161 -55.234612
v 3.570136 -0.579163 -63.467976
v 2.976954 3.225693 -59.709648
v 1.413166 -0.579163 -59.801140
v 6.712100 -0.579161 -59.120125
v 7.228981 -0.579163 -65.155472
v 7.305283 3.225693 -62.878452
v 4.031335 3.225693 -62.725929
v 5.121872 7.030549 -61.558392
v 2.976954 7.030550 -59.709648
v 6.131954 10.835405 -59.386784
v 7.661648 7.030549 -61.389732
v 8.019803 10.835406 -61.073925
v 11.000357 7.030549 -61.884468
v 11.063616 3.225693 -62.285271
v 15.244128 -0.579163 -63.199730
v 11.501311 -0.579163 -64.915184
v 14.821949 3.225693 -61.692089
v 14.116205 7.030549 -60.563652
v 14.517845 10.835406 -59.765324
v 16.582386 7.030550 -59.487480
v 11.241742 10.588231 -60.155319
v 10.606475 12.747679 -59.388885
v 14.354694 12.935203 -58.731625
v 15.100654 12.169610 -58.026539
v 14.428922 12.860353 -56.125206
v 11.965996 13.615736 -56.544167
v 12.332214 14.165907 -54.691433
v 9.877252 15.405169 -54.768608
v 10.345557 13.561938 -57.735741
v 8.368385 12.910511 -59.353436
v 7.436335 13.468147 -58.271164
v 6.118918 14.096649 -55.361790
v 6.455200 12.974454 -57.457081
v 6.525144 12.063865 -59.212105
v 4.803209 10.835406 -57.821388
v 2.383772 7.030550 -55.951313
v 4.384952 12.374985 -55.266838
v 3.576611 10.835408 -55.120907
v 1.790589 7.030551 -52.192982
v 3.417427 10.835408 -52.597176
v 2.895943 7.030552 -50.395031
v 4.691860 11.976777 -50.271763
v 4.147222 12.721461 -52.438175
v 3.776280 10.835407 -50.250671
v 5.642904 10.835408 -49.606716
v 4.995812 7.030551 -48.245930
v 8.602093 7.030553 -46.995705
v 1.703990 3.225695 -48.738453
v 8.486654 10.835407 -48.866741
v 4.518926 3.225695 -46.867081
v 1.197406 -0.579161 -48.434650
v 8.924456 3.225695 -46.245140
v 4.854647 -0.579161 -46.695824
v 8.607512 -0.579159 -44.907459
v 9.284069 -0.579161 -51.010277
v 5.525736 -0.579161 -51.603458
v 0.504515 -0.579161 -52.421036
v 6.118918 -0.579161 -55.361790
v 0.476466 -0.579161 -56.205151
v 9.877252 -0.579161 -54.768608
v 10.470433 -0.579161 -58.526943
v 13.635585 -0.579161 -54.175426
v 13.042402 -0.579161 -50.417095
v 12.465624 -0.305159 -44.845284
v 17.965342 -0.579161 -49.725700
v 16.230738 -0.579159 -46.061920
v 17.469183 3.225695 -49.406784
v 15.483440 3.225695 -47.034798
v 14.879283 7.030552 -47.670986
v 16.422699 7.030551 -49.468685
v 12.685073 3.225695 -46.057659
v 12.512478 7.030553 -47.059566
v 11.889946 9.975973 -48.347263
v 11.563817 12.302506 -49.783924
v 13.717457 10.835408 -48.959682
v 14.618323 10.835407 -51.430813
v 13.514046 11.872960 -49.724159
v 13.518021 12.682420 -51.593960
v 14.354666 12.736621 -54.552216
v 15.429922 10.835407 -53.482327
v 12.313276 13.802909 -51.520237
v 9.140715 11.610367 -50.034039
v 9.443948 15.376031 -52.023251
v 6.478945 12.672096 -49.980469
v 6.754811 14.950107 -52.371292
v 17.436470 7.030552 -53.513336
v 15.850237 10.835408 -56.455181
v 15.819799 10.835406 -58.516514
v 17.945084 7.030550 -57.959248
v 17.623480 3.225693 -60.053074
v 18.389069 3.225695 -57.382557
v 19.153614 -0.579161 -57.382050
v 17.952286 3.225695 -53.482876
v 19.134308 -0.579161 -53.348125
v 18.603468 -0.579163 -61.095245
v 14.228766 -0.579161 -57.933762
v 2.383772 3.225695 -55.951313
v 1.790589 3.225695 -52.192982
v -42.611614 -0.579161 -53.936653
v -46.267128 3.225695 -54.992195
v -45.982048 -0.579161 -56.532497
v -47.316162 -0.579161 -51.359238
v -41.391800 -0.579161 -50.096500
v -43.660648 3.225695 -50.303688
v -43.405228 3.225695 -53.571224
v -44.699203 7.030551 -52.634197
v -46.267128 7.030550 -54.992195
v -46.979481 10.835407 -51.901756
v -45.182114 7.030551 -50.135059
v -44.716187 3.225695 -46.648182
v -45.539974 10.835408 -49.818913
v -45.106026 7.030553 -46.760750
v -46.851765 10.588233 -46.736069
v -46.803734 7.030553 -43.833145
v -45.771725 3.225697 -42.992668
v -47.645786 10.835410 -43.533810
v -48.177986 7.030553 -41.519791
v -49.046684 10.835410 -42.397102
v -47.746124 3.225697 -40.416485
v -49.863686 7.030553 -40.357521
v -50.491070 3.225697 -39.988628
v -51.095818 10.835410 -42.623013
v -54.211956 7.030554 -41.414581
v -54.306263 3.225697 -40.906544
v -58.290749 3.225697 -41.892338
v -58.099304 7.030553 -42.923023
v -55.928204 10.835407 -44.469631
v -53.993416 10.835409 -43.409431
v -52.798225 12.736621 -44.343426
v -55.629608 12.682420 -45.541142
v -55.553082 13.802909 -46.745705
v -52.408802 14.165907 -46.332909
v -57.182823 12.302506 -47.705090
v -57.484425 11.872960 -45.777401
v -58.268253 10.835408 -45.670544
v -59.691315 7.030554 -44.677837
v -58.648869 9.975973 -47.559986
v -60.003937 7.030553 -47.102264
v -59.581451 7.030551 -50.990284
v -57.710571 10.835407 -50.872364
v -57.892853 7.030550 -54.413292
v -56.633583 11.610367 -50.078342
v -56.623016 10.835408 -53.602142
v -56.356022 12.672096 -52.726139
v -55.844952 11.976777 -54.463184
v -53.627663 12.721461 -54.734444
v -54.697464 15.376031 -49.530312
v -54.017998 14.950107 -52.155361
v -50.971672 14.096649 -52.414776
v -52.027210 15.405169 -48.759262
v -50.524929 13.615736 -46.466099
v -48.248531 13.468149 -50.746094
v -49.141254 13.561940 -47.925930
v -47.290440 12.910513 -49.686802
v -47.533340 12.747682 -47.461643
v -48.651203 12.935206 -43.824123
v -49.443512 12.169614 -43.171555
v -51.246651 12.860355 -44.074314
v -47.201664 12.063866 -51.533314
v -48.367661 10.835408 -53.414696
v -48.934399 12.974456 -51.820774
v -50.850452 12.374985 -54.147099
v -53.379219 10.835408 -55.438824
v -50.894825 10.835408 -54.967316
v -53.578152 7.030550 -57.103283
v -49.922638 7.030550 -56.047733
v -49.922638 3.225695 -56.047733
v -53.578152 3.225695 -57.103283
v -49.433796 -0.579161 -57.908726
v -53.192078 -0.579161 -58.351048
v -54.627186 -0.579161 -53.470318
v -57.233669 -0.579161 -58.158821
v -50.971672 -0.579161 -52.414776
v -52.027210 -0.579161 -48.759262
v -55.682724 -0.579161 -49.814808
v -59.413406 -0.579161 -54.745960
v -61.654186 -0.579161 -51.244366
v -62.195236 -0.305161 -47.423870
v -56.738262 -0.579159 -46.159290
v -53.082752 -0.579159 -45.103748
v -58.035946 -0.579159 -41.360401
v -61.455826 -0.579159 -43.536770
v -60.397644 3.225697 -44.157398
v -61.019524 3.225695 -47.055492
v -60.366257 3.225695 -50.763676
v -59.201771 3.225695 -55.057800
v -56.995159 3.225695 -57.618412
v -55.499504 7.030552 -56.229877
v -55.752125 10.835407 -55.374290
v -54.586830 -0.579159 -39.750423
v -50.586567 -0.579159 -39.230068
v -46.833782 -0.579159 -39.314602
v -49.427238 -0.579159 -44.048210
v -48.371696 -0.579161 -47.703724
v -44.328220 -0.579159 -42.386444
v -42.161037 -0.579159 -45.887123
v -4.376741 -0.579163 -65.559395
v -7.301317 3.225692 -63.125507
v -8.416456 -0.579163 -64.225639
v -4.882449 -0.579163 -60.218979
v -0.513502 -0.579163 -64.414795
v -1.957871 3.225692 -62.652859
v -4.519465 3.225692 -64.697433
v -4.469723 7.030548 -63.100578
v -7.301317 7.030549 -63.125507
v -5.142676 10.835405 -60.802040
v -2.671844 7.030549 -61.298767
v 0.476007 3.225693 -59.728279
v -2.610900 10.835405 -60.825169
v 0.164120 7.030550 -59.468719
v -0.794838 10.588230 -58.009743
v 1.635167 7.030550 -56.420921
v 2.909890 3.225694 -56.803699
v 1.410558 10.835407 -55.555935
v 2.779205 7.030550 -53.985481
v 1.565606 10.835407 -53.758556
v 3.934806 3.225694 -53.724007
v 2.795631 7.030551 -51.938000
v 2.749039 3.225694 -51.211693
v 0.229002 10.835407 -52.189003
v -0.518847 7.030551 -48.931499
v -0.151197 3.225694 -48.568417
v -3.202598 3.225694 -45.823078
v -3.948404 7.030551 -46.559784
v -4.010675 10.835407 -49.224712
v -2.047596 10.835407 -50.231548
v -2.150239 12.736621 -51.744919
v -4.730161 12.682419 -50.073013
v -5.966317 11.872960 -48.670132
v -5.684374 13.802908 -50.812149
v -3.578676 14.165907 -53.183407
v -7.392864 12.302505 -50.001266
v -6.317598 10.835408 -47.961330
v -9.049328 11.610365 -51.787357
v -8.095219 9.975972 -48.706257
v -10.310829 10.835407 -51.341278
v -11.458036 7.030551 -49.858707
v -13.344296 7.030551 -53.176888
v -11.960421 10.835407 -53.773006
v -11.085479 12.672095 -53.502575
v -12.236697 11.976777 -54.900146
v -11.217310 12.721459 -56.887814
v -7.509471 15.376031 -53.082634
v -9.301320 14.950107 -55.117790
v -7.807026 14.096647 -57.785099
v -5.373144 15.405167 -54.860516
v -2.632049 13.615735 -54.817616
v -4.897964 13.468147 -59.103172
v -3.064248 13.561939 -56.782017
v -1.777844 12.747679 -57.852589
v -3.483570 12.910510 -59.302006
v -4.962321 12.063865 -60.411423
v -7.173881 10.835405 -60.501686
v -6.172371 12.974454 -59.138313
v -9.173057 12.374982 -58.857296
v -11.661025 10.835405 -57.488644
v -9.876925 10.835405 -59.280716
v -13.150471 7.030550 -58.257751
v -10.225894 7.030549 -60.691628
v -10.225894 3.225693 -60.691628
v -13.150471 3.225694 -58.257751
v -11.492185 -0.579163 -62.140339
v -13.966798 -0.579161 -59.277363
v -10.731605 -0.579161 -55.351212
v -16.075050 -0.579161 -55.823868
v -7.807026 -0.579161 -57.785099
v -8.297722 -0.579161 -52.426636
v -2.448570 -0.579161 -57.294395
v -5.373144 -0.579161 -54.860516
v -2.939265 -0.579161 -51.935944
v 3.323400 -0.579161 -50.707073
v -0.014688 -0.579161 -54.369823
v -2.619313 -0.579159 -45.735577
v -5.863843 -0.579161 -49.502056
v 0.648446 -0.579161 -47.687561
v -6.339522 -0.579159 -44.125553
v -9.972107 -0.305160 -45.694187
v -6.259628 3.225697 -45.349712
v -12.831202 -0.579161 -48.285419
v -11.710737 3.225694 -49.081909
v -9.007569 3.225694 -46.460781
v -8.476528 7.030553 -47.327740
v -6.294189 7.030553 -46.226387
v -14.612140 3.225694 -52.454945
v -14.472731 -0.579161 -52.104794
v -15.493895 3.225694 -55.718128
v -13.505368 7.030550 -56.177250
v -12.938839 10.835407 -55.488132
v 5.358786 -0.579161 -53.861084
v 4.221554 -0.579161 -57.658546
v 2.539490 -0.579163 -61.416489
v 0.606179 12.935204 -54.886517
v -1.057009 12.860353 -52.878342
v 0.701884 12.169612 -53.864532
v -43.798141 -0.579163 -64.279976
v -44.391323 3.225693 -60.521637
v -45.955109 -0.579163 -60.613132
v -40.656174 -0.579163 -59.932114
v -40.139297 -0.579163 -65.967468
v -40.062988 3.225692 -63.690449
v -43.336941 3.225692 -63.537918
v -42.246399 7.030548 -62.370384
v -44.391323 7.030549 -60.521637
v -41.236320 10.835405 -60.198776
v -39.706627 7.030549 -62.201717
v -36.304657 3.225692 -63.097267
v -39.348473 10.835405 -61.885914
v -36.367920 7.030549 -62.696465
v -36.126530 10.588230 -60.967316
v -33.252071 7.030549 -61.375648
v -32.850430 10.835405 -60.577312
v -30.785889 7.030548 -60.299469
v -32.546318 3.225692 -62.504086
v -29.744793 3.225693 -60.865063
v -32.124146 -0.579163 -64.011726
v -28.764807 -0.579163 -61.907242
v -28.214657 -0.579161 -58.194038
v -33.139507 -0.579161 -58.745750
v -33.732689 -0.579161 -54.987419
v -36.897842 -0.579161 -59.338932
v -37.491024 -0.579161 -55.580601
v -35.866966 -0.579163 -65.727180
v -34.325871 -0.579161 -51.229084
v -38.084206 -0.579161 -51.822266
v -41.249355 -0.579161 -56.173782
v -46.863758 -0.579161 -53.233021
v -41.842537 -0.579161 -52.415447
v -46.891808 -0.579161 -57.017139
v -44.984505 3.225694 -56.763306
v -45.577686 3.225694 -53.004971
v -45.577686 7.030551 -53.004971
v -44.984505 7.030550 -56.763306
v -43.791664 10.835407 -55.932896
v -42.565067 10.835405 -58.633377
v -42.983322 12.374984 -56.078831
v -40.913074 12.974454 -58.269073
v -40.843132 12.063865 -60.024097
v -39.931942 13.468147 -59.083153
v -38.999889 12.910510 -60.165432
v -37.022720 13.561937 -58.547729
v -36.761799 12.747679 -60.200874
v -35.402283 13.615733 -57.356155
v -33.013580 12.935202 -59.543613
v -32.939354 12.860351 -56.937195
v -32.267620 12.169610 -58.838528
v -31.548475 10.835405 -59.328503
v -31.518040 10.835405 -57.267170
v -29.423189 7.030550 -58.771236
v -29.931807 7.030550 -54.325329
v -31.938354 10.835407 -54.294315
v -33.013611 12.736621 -55.364204
v -35.036060 14.165907 -55.503426
v -33.850254 12.682419 -52.405949
v -33.854229 11.872960 -50.536152
v -32.749950 10.835407 -52.242802
v -35.054993 13.802908 -52.332226
v -35.804455 12.302505 -50.595913
v -33.650818 10.835408 -49.771675
v -38.227562 11.610365 -50.846027
v -35.478329 9.975972 -49.159256
v -38.881618 10.835407 -49.678730
v -41.725368 10.835407 -50.418705
v -40.889328 12.672095 -50.792461
v -38.766182 7.030551 -47.807697
v -42.372459 7.030551 -49.057919
v -42.849350 3.225694 -47.679070
v -43.591995 10.835407 -51.062660
v -44.472332 7.030551 -51.207020
v -45.664288 3.225694 -49.550446
v -46.170868 -0.579161 -49.246639
v -42.513626 -0.579161 -47.507809
v -38.443821 3.225694 -47.057129
v -38.760761 -0.579159 -45.719448
v -34.902653 -0.305160 -45.657276
v -31.137537 -0.579161 -46.873909
v -31.884834 3.225695 -47.846783
v -34.683205 3.225694 -46.869652
v -34.855797 7.030551 -47.871555
v -32.488995 7.030551 -48.482975
v -30.945580 7.030550 -50.280674
v -29.899086 3.225694 -50.218777
v -29.402937 -0.579161 -50.537693
v -29.415989 3.225694 -54.294868
v -28.233967 -0.579161 -54.160118
v -28.979202 3.225694 -58.194550
v -43.950848 10.835407 -53.409168
v -42.676414 11.976777 -51.083755
v -43.221054 12.721461 -53.250168
v -41.249355 14.096649 -56.173782
v -40.613464 14.950107 -53.183285
v -37.924328 15.376031 -52.835243
v -37.491024 15.405167 -55.580601
vn 0.4260 0.2228 -0.8768
vn 0.8259 0.2968 -0.4793
vn 0.7253 -0.5121 -0.4601
vn 0.3967 -0.5224 -0.7548
vn -0.0000 -1.0000 -0.0000
vn 0.8942 -0.4451 -0.0470
vn 0.9089 0.4007 0.1152
vn 0.8843 0.4020 -0.2375
vn 0.5748 0.2619 -0.7752
vn 0.7627 0.3785 -0.5245
vn 0.9597 0.2770 0.0477
vn 0.9186 0.3753 -0.1236
vn 0.9374 0.2088 0.2787
vn 0.8804 0.3847 0.2773
vn 0.8407 0.3374 0.4235
vn 0.7278 -0.5185 0.4487
vn 0.8363 -0.4322 0.3373
vn 0.8662 0.2520 0.4315
vn 0.8695 0.3675 0.3301
vn 0.8017 0.3526 0.4826
vn 0.6832 0.2778 0.6754
vn 0.6670 0.7126 0.2177
vn 0.4315 0.7446 0.5093
vn -0.0954 0.7772 0.6220
vn 0.0914 0.5566 0.8258
vn 0.2799 0.9084 0.3105
vn 0.0113 0.8702 0.4925
vn 0.1884 0.9701 0.1533
vn 0.4259 0.8758 0.2271
vn 0.5196 0.8134 -0.2616
vn 0.6407 0.7674 -0.0254
vn 0.3398 0.8065 -0.4839
vn 0.4926 0.6199 -0.6108
vn 0.6605 0.5443 -0.5172
vn 0.5147 0.5050 -0.6929
vn 0.2972 0.1981 -0.9340
vn 0.3272 0.3986 -0.8568
vn 0.3684 0.5563 -0.7448
vn -0.0795 0.1894 -0.9787
vn 0.0326 0.3804 -0.9243
vn -0.3907 0.2760 -0.8782
vn -0.4369 0.4070 -0.8022
vn -0.5587 0.5686 -0.6039
vn -0.0616 0.5866 -0.8075
vn -0.8645 0.3297 -0.3794
vn -0.7546 0.3572 -0.5504
vn -0.3414 0.2632 -0.9023
vn -0.9132 0.3274 -0.2428
vn -0.8654 0.1816 -0.4671
vn -0.8161 0.5484 -0.1820
vn -0.3601 -0.5543 -0.7504
vn -0.6554 -0.6735 -0.3419
vn -0.9422 0.2363 -0.2374
vn -0.7948 -0.5408 -0.2756
vn -0.0086 -1.0000 0.0044
vn 0.0657 -0.5495 -0.8329
vn 0.2138 -0.4944 -0.8425
vn -0.0163 -0.9998 -0.0110
vn -0.7282 -0.5389 0.4234
vn -0.8594 -0.5112 0.0053
vn -0.3302 -0.6377 0.6959
vn -0.4837 0.1884 0.8547
vn -0.8552 0.2651 0.4454
vn -0.5228 0.3617 0.7719
vn -0.8560 0.3286 0.3991
vn -0.9602 0.2789 0.0182
vn -0.9438 0.3306 0.0051
vn -0.8908 0.4512 -0.0546
vn -0.6791 0.7272 -0.1003
vn -0.7597 0.5252 0.3834
vn -0.3850 0.4935 0.7799
vn -0.5865 0.6823 0.4364
vn -0.4015 0.6757 0.6182
vn -0.2312 0.6901 0.6858
vn -0.3258 0.4979 0.8038
vn -0.5334 0.7560 0.3794
vn -0.6789 0.7289 -0.0885
vn -0.4628 0.8848 0.0543
vn -0.7625 0.5748 -0.2971
vn -0.1970 0.8778 -0.4366
vn -0.2759 0.3202 0.9063
vn -0.1736 0.5019 0.8473
vn 0.2938 0.4679 0.8335
vn 0.1282 0.2995 0.9454
vn 0.4907 0.2641 0.8303
vn -0.0489 0.1526 0.9871
vn -0.0444 -0.5957 0.8020
vn -0.2429 0.1816 0.9529
vn -0.2308 -0.5576 0.7974
vn 0.4035 -0.4858 0.7754
vn 0.2645 0.2041 -0.9425
vn 0.1410 0.1928 -0.9711
vn -0.1660 0.2228 0.9606
vn -0.6606 0.2968 0.6896
vn -0.5692 -0.5121 0.6432
vn -0.1718 -0.5224 0.8352
vn -0.8461 -0.4451 0.2932
vn -0.9052 0.4007 0.1415
vn -0.7837 0.4020 0.4735
vn -0.3372 0.2619 0.9043
vn -0.5872 0.3785 0.7155
vn -0.9353 0.2770 0.2204
vn -0.9779 0.2088 -0.0077
vn -0.9228 0.3847 -0.0222
vn -0.8483 0.3753 0.3736
vn -0.9519 0.2520 -0.1743
vn -0.9269 0.3675 -0.0759
vn -0.9252 0.3374 -0.1737
vn -0.8437 0.2778 -0.4593
vn -0.9041 0.3526 -0.2412
vn -0.5135 0.4679 -0.7193
vn -0.3854 0.2995 -0.8728
vn -0.7018 0.2641 -0.6616
vn -0.2268 0.1526 -0.9619
vn 0.0137 0.3202 -0.9473
vn -0.0683 0.5019 -0.8622
vn -0.0309 0.1816 -0.9829
vn 0.2276 0.1884 -0.9554
vn 0.2881 0.3617 -0.8867
vn 0.0900 0.4979 -0.8626
vn 0.1536 0.4935 -0.8561
vn 0.0319 0.6901 -0.7230
vn 0.2142 0.6757 -0.7053
vn -0.1440 0.8720 -0.4679
vn 0.4424 0.6823 -0.5820
vn 0.3667 0.7972 -0.4796
vn 0.7282 0.6613 -0.1799
vn 0.6236 0.5252 -0.5791
vn 0.7117 0.3286 -0.6209
vn 0.8709 0.4512 -0.1947
vn 0.9447 0.3274 -0.0200
vn 0.9053 0.3306 -0.2667
vn 0.8346 0.5484 -0.0516
vn 0.8777 0.3572 0.3195
vn 0.9358 0.3297 0.1247
vn 0.7219 0.6884 -0.0704
vn 0.7430 0.6653 0.0729
vn 0.6346 0.7709 -0.0548
vn 0.7042 0.5686 0.4252
vn 0.2799 0.6558 0.7011
vn 0.3425 0.9069 0.2453
vn -0.0689 0.9961 -0.0544
vn -0.0166 0.8854 0.4645
vn -0.3551 0.9084 -0.2206
vn -0.4722 0.8758 -0.1000
vn -0.4758 0.8425 0.2527
vn -0.7012 0.7126 -0.0241
vn -0.6085 0.7674 0.2021
vn -0.5558 0.7446 -0.3696
vn -0.0809 0.7772 -0.6240
vn -0.3169 0.5566 -0.7680
vn -0.6475 0.4580 0.6091
vn -0.3176 0.3652 0.8751
vn -0.4160 0.5582 0.7179
vn -0.0505 0.5259 0.8491
vn 0.2251 0.3804 0.8970
vn -0.0767 0.3986 0.9139
vn 0.3479 0.1894 0.9182
vn -0.0264 0.1981 0.9798
vn 0.0073 0.2041 0.9789
vn 0.1680 -0.5495 0.8184
vn 0.1339 0.1928 0.9721
vn 0.0283 -0.4944 0.8688
vn 0.5541 -0.5543 0.6210
vn 0.0070 -1.0000 -0.0067
vn 0.7245 -0.6735 0.1466
vn 0.8400 -0.5408 0.0443
vn 0.8242 -0.5112 -0.2435
vn 0.0187 -0.9998 0.0060
vn 0.5821 -0.5389 -0.6088
vn 0.1242 -0.6377 -0.7602
vn 0.6980 0.2651 -0.6652
vn 0.9174 0.2789 -0.2838
vn 0.9711 0.2363 -0.0333
vn 0.9610 0.1816 0.2087
vn 0.5784 0.2632 0.7722
vn 0.6190 0.2760 0.7353
vn 0.6423 0.4070 0.6495
vn 0.0006 -0.5576 -0.8301
vn -0.1798 -0.5957 -0.7828
vn -0.6027 -0.4858 -0.6330
vn -0.8238 -0.5185 -0.2292
vn -0.8971 -0.4322 -0.0920
vn -0.9230 0.2228 -0.3138
vn -0.5782 0.2968 -0.7600
vn -0.5466 -0.5121 -0.6625
vn -0.7982 -0.5224 -0.2999
vn -0.1577 -0.4451 -0.8815
vn 0.0013 0.4007 -0.9162
vn -0.3455 0.4020 -0.8479
vn -0.8407 0.2619 -0.4741
vn -0.6152 0.3785 -0.6916
vn -0.0719 0.2770 -0.9582
vn 0.1658 0.3847 -0.9080
vn 0.1601 0.2088 -0.9648
vn -0.2367 0.3753 -0.8962
vn 0.3206 0.2520 -0.9131
vn 0.2195 0.3675 -0.9037
vn 0.3158 0.3374 -0.8868
vn 0.5853 0.2778 -0.7618
vn 0.3792 0.3526 -0.8555
vn 0.7906 0.4679 -0.3951
vn 0.9222 0.2995 -0.2446
vn 0.7629 0.2641 -0.5901
vn 0.9855 0.1526 -0.0741
vn 0.9335 0.3202 0.1612
vn 0.8623 0.5019 0.0670
vn 0.9757 0.1816 0.1227
vn 0.9082 0.1884 0.3738
vn 0.8309 0.3617 0.4228
vn 0.8380 0.4979 0.2234
vn 0.8217 0.4935 0.2851
vn 0.7092 0.6901 0.1442
vn 0.6633 0.6757 0.3216
vn 0.5059 0.6823 0.5277
vn -0.0151 0.7272 0.6863
vn 0.4873 0.8702 -0.0724
vn 0.4427 0.7560 0.4821
vn 0.4748 0.5252 0.7062
vn 0.0565 0.4512 0.8906
vn -0.0034 0.7289 0.6846
vn -0.0792 0.5484 0.8324
vn -0.1275 0.3274 0.9363
vn -0.4524 0.3572 0.8172
vn -0.2691 0.3297 0.9049
vn -0.2000 0.5748 0.7935
vn 0.1114 0.8848 0.4525
vn -0.5298 0.5686 0.6294
vn -0.7936 0.5866 0.1615
vn -0.4088 0.8778 0.2497
vn 0.1287 0.9701 -0.2060
vn -0.5224 0.8065 -0.2770
vn 0.2733 0.9084 -0.3164
vn 0.1724 0.8758 -0.4508
vn -0.3241 0.8134 -0.4831
vn 0.1331 0.7126 -0.6888
vn -0.1048 0.7674 -0.6326
vn -0.5952 0.5443 -0.5911
vn -0.7515 0.5050 -0.4246
vn -0.6673 0.6199 -0.4129
vn -0.7848 0.5563 -0.2730
vn -0.9211 0.3804 0.0825
vn -0.8908 0.3986 -0.2182
vn -0.9612 0.1894 0.2005
vn -0.9637 0.1981 -0.1789
vn -0.9681 0.2041 -0.1454
vn -0.8346 -0.5495 0.0383
vn -0.9811 0.1928 -0.0192
vn -0.8625 -0.4944 -0.1075
vn -0.6998 -0.5543 0.4505
vn 0.0055 -1.0000 0.0080
vn -0.0089 -0.9998 0.0175
vn 0.5106 -0.5389 0.6699
vn 0.1120 -0.5112 0.8521
vn 0.7315 -0.6377 0.2412
vn 0.8199 -0.5576 0.1300
vn 0.8013 -0.5957 -0.0556
vn 0.7192 -0.4858 -0.4967
vn 0.3548 -0.5185 -0.7780
vn 0.2308 -0.4322 -0.8718
vn 0.5482 0.2651 0.7932
vn 0.1373 0.2789 0.9505
vn -0.1747 -0.5408 0.8228
vn -0.1185 0.2363 0.9644
vn 0.5024 0.3286 0.7998
vn 0.1223 0.3306 0.9358
vn -0.3560 0.1816 0.9167
vn -0.2578 -0.6735 0.6928
vn -0.8529 0.2632 0.4509
vn -0.8229 0.2760 0.4967
vn -0.7417 0.4070 0.5332
vn 0.4518 0.7446 -0.4914
vn 0.6290 0.7772 0.0174
vn 0.8080 0.5566 -0.1933
vn 0.0137 0.3202 -0.9472
vn 0.5821 -0.5390 -0.6088
vn 0.7117 0.3287 -0.6209
vn 0.7626 0.3785 -0.5245
vn -0.8560 0.3287 0.3991
vn 0.5146 0.5050 -0.6929
vn -0.9602 0.2789 0.0181
vn -0.4869 0.2228 -0.8446
vn 0.0666 0.2968 -0.9526
vn 0.0261 -0.5121 -0.8585
vn -0.4022 -0.5224 -0.7519
vn 0.4628 -0.4451 -0.7666
vn 0.6053 0.4007 -0.6878
vn 0.2995 0.4020 -0.8653
vn -0.3193 0.2619 -0.9108
vn -0.0063 0.3785 -0.9256
vn 0.5779 0.2770 -0.7677
vn 0.7235 0.3847 -0.5732
vn 0.7566 0.2088 -0.6196
vn 0.4131 0.3753 -0.8298
vn 0.8432 0.2520 -0.4749
vn 0.7611 0.3675 -0.5346
vn 0.8222 0.3374 -0.4583
vn 0.9423 0.2778 -0.1866
vn 0.8493 0.3526 -0.3929
vn 0.8548 0.4679 0.2244
vn 0.8545 0.2995 0.4243
vn 0.9626 0.2641 0.0596
vn 0.7897 0.1526 0.5943
vn 0.5954 0.3202 0.7368
vn 0.6040 0.5019 0.6191
vn 0.6525 0.1816 0.7357
vn 0.4362 0.1884 0.8799
vn 0.3458 0.3617 0.8658
vn 0.4826 0.4979 0.7206
vn 0.4296 0.4935 0.7563
vn 0.4380 0.6901 0.5761
vn 0.2865 0.6757 0.6792
vn 0.0322 0.6823 0.7303
vn -0.4640 0.7272 0.5059
vn 0.4140 0.8702 0.2670
vn 0.0148 0.7560 0.6544
vn -0.1088 0.5252 0.8440
vn -0.5449 0.4512 0.7068
vn -0.4541 0.7289 0.5124
vn -0.6085 0.5484 0.5735
vn -0.7133 0.3274 0.6197
vn -0.8790 0.3572 0.3159
vn -0.7991 0.3297 0.5028
vn -0.6737 0.5748 0.4645
vn -0.2147 0.8848 0.4136
vn -0.8133 0.5686 0.1237
vn -0.7031 0.5866 -0.4020
vn -0.4719 0.8778 -0.0819
vn 0.2326 0.9701 -0.0700
vn -0.2100 0.8065 -0.5528
vn 0.4141 0.9084 -0.0576
vn 0.4269 0.8758 -0.2252
vn 0.0750 0.8134 -0.5769
vn 0.5544 0.7126 -0.4300
vn 0.3384 0.7674 -0.5446
vn -0.0576 0.5443 -0.8369
vn -0.2849 0.5050 -0.8148
vn -0.2293 0.6199 -0.7505
vn -0.4099 0.5563 -0.7228
vn -0.7468 0.3804 -0.5455
vn -0.5257 0.3986 -0.7515
vn -0.8548 0.1894 -0.4832
vn -0.6065 0.1981 -0.7700
vn -0.6318 0.2041 -0.7478
vn -0.6526 -0.5495 -0.5216
vn -0.7248 0.1928 -0.6615
vn -0.5775 -0.4944 -0.6497
vn -0.8232 -0.5543 -0.1229
vn -0.0011 -1.0000 0.0096
vn 0.6390 -0.5957 0.4867
vn 0.5306 -0.5576 0.6384
vn 0.3908 -0.6377 0.6638
vn -0.0182 -0.9998 0.0073
vn -0.0580 -0.5389 0.8403
vn -0.4778 -0.5112 0.7144
vn -0.1110 0.2651 0.9578
vn -0.5236 0.2789 0.8050
vn -0.6740 -0.5408 0.5033
vn -0.7251 0.2363 0.6468
vn -0.1498 0.3287 0.9325
vn -0.5253 0.3306 0.7841
vn -0.8721 0.1816 0.4543
vn -0.6507 -0.6735 0.3507
vn -0.9385 0.2632 -0.2235
vn -0.9461 0.2760 -0.1693
vn -0.9092 0.4070 -0.0884
vn 0.8682 -0.4858 0.1010
vn 0.7798 -0.5185 -0.3508
vn 0.7484 -0.4322 -0.5031
vn 0.6637 0.7446 -0.0714
vn 0.4614 0.7772 0.4279
vn 0.7349 0.5566 0.3876
vn 0.5106 -0.5390 0.6699
vn -0.5298 0.5686 0.6293
vt 0.437500 0.937500
vt 0.437500 1.000000
vt 0.375000 1.000000
vt 0.375000 0.937500
vt 0.187500 0.687886
vt 0.187500 0.750000
vt 0.125000 0.750000
vt 0.125000 0.687886
vt 0.375000 0.000000
vt 0.437500 0.062114
vt 0.375000 0.062114
vt 0.437500 0.000000
vt 0.500000 1.000000
vt 0.500000 0.000000
vt 0.500000 0.937500
vt 0.562500 1.000000
vt 0.562500 0.000000
vt 0.500000 0.062114
vt 0.562500 0.062114
vt 0.500000 0.124614
vt 0.437500 0.124614
vt 0.437500 0.187114
vt 0.375000 0.187114
vt 0.375000 0.124614
vt 0.500000 0.187114
vt 0.562500 0.124614
vt 0.562500 0.187114
vt 0.500000 0.250000
vt 0.625000 0.124614
vt 0.625000 0.187114
vt 0.812500 0.500000
vt 0.875000 0.500000
vt 0.875000 0.562886
vt 0.625000 0.250000
vt 0.812500 0.562886
vt 0.875000 0.625386
vt 0.750000 0.562886
vt 0.750000 0.625386
vt 0.812500 0.625386
vt 0.812500 0.687886
vt 0.875000 0.687886
vt 0.750000 0.687886
vt 0.812500 0.750000
vt 0.875000 0.750000
vt 0.562500 0.937500
vt 0.625000 0.937500
vt 0.625000 1.000000
vt 0.625000 0.000000
vt 0.625000 0.062114
vt 0.500000 0.875000
vt 0.562500 0.875000
vt 0.625000 0.875000
vt 0.500000 0.812500
vt 0.562500 0.812500
vt 0.500000 0.750000
vt 0.562500 0.750000
vt 0.625000 0.750000
vt 0.625000 0.812500
vt 0.562500 0.687886
vt 0.500000 0.687886
vt 0.437500 0.750000
vt 0.500000 0.625386
vt 0.437500 0.687886
vt 0.562500 0.625386
vt 0.375000 0.750000
vt 0.375000 0.687886
vt 0.437500 0.625386
vt 0.312500 0.687886
vt 0.375000 0.625386
vt 0.312500 0.625386
vt 0.250000 0.687886
vt 0.312500 0.750000
vt 0.250000 0.750000
vt 0.187500 0.625386
vt 0.250000 0.625386
vt 0.250000 0.562886
vt 0.312500 0.562886
vt 0.375000 0.500000
vt 0.375000 0.562886
vt 0.312500 0.500000
vt 0.437500 0.437500
vt 0.437500 0.500000
vt 0.375000 0.437500
vt 0.500000 0.437500
vt 0.500000 0.500000
vt 0.437500 0.562886
vt 0.500000 0.562886
vt 0.562500 0.562886
vt 0.625000 0.562886
vt 0.562500 0.500000
vt 0.562500 0.437500
vt 0.625000 0.500000
vt 0.625000 0.437500
vt 0.687500 0.500000
vt 0.750000 0.500000
vt 0.562500 0.375000
vt 0.625000 0.375000
vt 0.687500 0.562886
vt 0.625000 0.625386
vt 0.687500 0.625386
vt 0.625000 0.687886
vt 0.687500 0.687886
vt 0.687500 0.750000
vt 0.500000 0.375000
vt 0.562500 0.312500
vt 0.625000 0.312500
vt 0.562500 0.250000
vt 0.500000 0.312500
vt 0.437500 0.250000
vt 0.437500 0.312500
vt 0.375000 0.312500
vt 0.437500 0.375000
vt 0.375000 0.375000
vt 0.250000 0.500000
vt 0.187500 0.500000
vt 0.125000 0.500000
vt 0.187500 0.562886
vt 0.375000 0.250000
vt 0.125000 0.562886
vt 0.437500 0.875000
vt 0.375000 0.875000
vt 0.375000 0.812500
vt 0.437500 0.812500
vt 0.125000 0.625386
vt 0.750000 0.750000
s 1
f 2/1/1 7/2/2 1/3/3
f 2/1/1 1/3/3 3/4/4
f 4/5/5 3/6/4 1/7/3
f 4/5/5 1/7/3 5/8/6
f 1/9/3 6/10/7 5/11/6
f 1/9/3 7/12/2 6/10/7
f 2/1/1 8/13/8 7/2/2
f 8/14/8 6/10/7 7/12/2
f 2/1/1 9/15/9 8/13/8
f 9/15/9 10/16/10 8/13/8
f 10/17/10 11/18/11 8/14/8
f 8/14/8 11/18/11 6/10/7
f 10/17/10 12/19/12 11/18/11
f 12/19/12 13/20/13 11/18/11
f 11/18/11 13/20/13 14/21/14
f 11/18/11 14/21/14 6/10/7
f 14/21/14 17/22/15 15/23/16
f 14/21/14 15/23/16 16/24/17
f 6/10/7 14/21/14 16/24/17
f 14/21/14 18/25/18 17/22/15
f 14/21/14 13/20/13 18/25/18
f 21/26/19 18/25/18 13/20/13
f 21/26/19 19/27/20 18/25/18
f 19/27/20 20/28/21 18/25/18
f 17/22/15 18/25/18 20/28/21
f 12/19/12 21/26/19 13/20/13
f 12/19/12 22/29/22 21/26/19
f 21/26/19 22/29/22 23/30/23
f 21/26/19 23/30/23 19/27/20
f 25/31/24 24/32/25 23/33/23
f 19/27/20 23/30/23 24/34/25
f 26/35/26 23/33/23 22/36/22
f 25/31/24 23/33/23 26/35/26
f 25/31/24 26/35/26 27/37/27
f 26/35/26 28/38/28 27/37/27
f 26/35/26 29/39/29 28/38/28
f 26/35/26 22/36/22 29/39/29
f 28/38/28 29/39/29 31/40/30
f 29/39/29 22/36/22 30/41/31
f 29/39/29 30/41/31 31/40/30
f 28/38/28 31/40/30 32/42/32
f 32/42/32 31/40/30 33/43/33
f 31/40/30 30/41/31 34/44/34
f 31/40/30 34/44/34 33/43/33
f 35/45/35 33/46/33 34/47/34
f 35/45/35 34/47/34 10/16/10
f 34/48/34 12/19/12 10/17/10
f 34/48/34 30/49/31 12/19/12
f 9/15/9 35/45/35 10/16/10
f 36/50/36 38/51/37 35/45/35
f 36/50/36 35/45/35 9/15/9
f 37/52/38 33/46/33 35/45/35
f 37/52/38 35/45/35 38/51/37
f 39/53/39 40/54/40 38/51/37
f 39/53/39 38/51/37 36/50/36
f 40/54/40 37/52/38 38/51/37
f 41/55/41 44/56/42 40/54/40
f 41/55/41 40/54/40 39/53/39
f 42/57/43 43/58/44 40/54/40
f 42/57/43 40/54/40 44/56/42
f 40/54/40 43/58/44 37/52/38
f 45/59/45 42/57/43 44/56/42
f 46/60/46 45/59/45 44/56/42
f 46/60/46 44/56/42 41/55/41
f 46/60/46 41/55/41 48/61/47
f 47/62/48 46/60/46 50/63/49
f 49/64/50 46/60/46 47/62/48
f 46/60/46 48/61/47 50/63/49
f 49/64/50 45/59/45 46/60/46
f 50/63/49 48/61/47 51/65/51
f 50/63/49 51/65/51 53/66/52
f 52/67/53 50/63/49 53/66/52
f 47/62/48 50/63/49 52/67/53
f 56/68/5 53/66/52 51/65/51
f 52/67/53 53/66/52 54/69/54
f 55/70/55 54/69/54 53/66/52
f 55/70/55 53/66/52 56/68/5
f 58/71/5 56/68/5 57/72/56
f 56/68/5 51/65/51 57/72/56
f 55/70/55 56/68/5 58/71/5
f 58/71/5 60/73/57 3/6/4
f 58/71/5 3/6/4 4/5/5
f 59/74/5 61/75/5 58/71/5
f 59/74/5 58/71/5 4/5/5
f 58/71/5 57/72/56 60/73/57
f 55/70/55 58/71/5 61/75/5
f 62/76/5 61/75/5 59/74/5
f 63/77/58 61/75/5 62/76/5
f 63/77/58 55/70/55 61/75/5
f 66/78/59 64/79/60 63/77/58
f 64/79/60 55/70/55 63/77/58
f 65/80/61 63/77/58 62/76/5
f 66/78/59 63/77/58 65/80/61
f 67/81/62 68/82/63 66/78/59
f 67/81/62 66/78/59 65/83/61
f 68/82/63 64/79/60 66/78/59
f 70/84/64 69/85/65 68/82/63
f 69/85/65 71/86/66 68/82/63
f 70/84/64 68/82/63 67/81/62
f 68/82/63 71/86/66 64/79/60
f 64/79/60 71/86/66 52/67/53
f 69/85/65 72/87/67 71/86/66
f 72/87/67 52/67/53 71/86/66
f 69/85/65 73/88/68 72/87/67
f 72/87/67 47/62/48 52/67/53
f 73/88/68 47/62/48 72/87/67
f 73/88/68 49/64/50 47/62/48
f 74/89/69 49/64/50 73/88/68
f 75/90/70 74/89/69 73/88/68
f 69/85/65 75/90/70 73/88/68
f 70/84/64 76/91/71 75/90/70
f 76/91/71 77/92/72 75/90/70
f 70/84/64 75/90/70 69/85/65
f 75/90/70 77/92/72 74/89/69
f 76/91/71 78/93/73 77/92/72
f 78/94/73 74/89/69 77/92/72
f 78/94/73 79/95/74 27/37/27
f 80/96/75 79/97/74 78/93/73
f 80/96/75 78/93/73 76/91/71
f 78/94/73 81/98/76 74/89/69
f 78/94/73 27/37/27 81/98/76
f 81/98/76 82/99/77 74/89/69
f 81/98/76 83/100/78 82/99/77
f 27/37/27 83/100/78 81/98/76
f 83/100/78 84/101/79 82/99/77
f 83/100/78 85/102/80 84/101/79
f 27/37/27 28/38/28 83/100/78
f 28/38/28 85/102/80 83/100/78
f 28/38/28 32/42/32 85/102/80
f 32/42/32 43/103/44 85/102/80
f 84/101/79 85/102/80 43/103/44
f 49/64/50 82/99/77 84/101/79
f 45/59/45 84/101/79 42/57/43
f 84/101/79 43/103/44 42/57/43
f 49/64/50 84/101/79 45/59/45
f 74/89/69 82/99/77 49/64/50
f 86/104/81 80/96/75 76/91/71
f 87/105/82 80/96/75 86/104/81
f 87/105/82 79/97/74 80/96/75
f 24/34/25 25/106/24 87/105/82
f 24/34/25 87/105/82 88/107/83
f 88/107/83 87/105/82 89/108/84
f 87/105/82 86/104/81 89/108/84
f 87/105/82 25/106/24 79/97/74
f 88/107/83 89/108/84 20/28/21
f 90/109/85 20/28/21 89/108/84
f 91/110/86 89/108/84 86/104/81
f 90/109/85 89/108/84 91/110/86
f 90/109/85 91/110/86 92/111/87
f 92/111/87 91/110/86 93/112/88
f 91/110/86 86/104/81 93/112/88
f 86/104/81 67/81/62 93/112/88
f 93/112/88 67/81/62 65/83/61
f 93/112/88 65/83/61 94/113/89
f 92/111/87 93/112/88 94/113/89
f 65/80/61 62/76/5 94/114/89
f 92/115/87 94/114/89 62/76/5
f 95/116/90 92/115/87 96/117/5
f 90/109/85 92/111/87 95/118/90
f 92/115/87 62/76/5 96/117/5
f 95/116/90 96/117/5 15/119/16
f 15/119/16 96/117/5 59/74/5
f 62/76/5 59/74/5 96/117/5
f 17/22/15 90/109/85 95/118/90
f 17/22/15 95/118/90 15/23/16
f 17/22/15 20/28/21 90/109/85
f 19/27/20 88/107/83 20/28/21
f 19/27/20 24/34/25 88/107/83
f 86/104/81 70/84/64 67/81/62
f 86/104/81 76/91/71 70/84/64
f 25/31/24 27/37/27 79/95/74
f 64/79/60 52/67/53 54/69/54
f 64/79/60 54/69/54 55/70/55
f 97/120/91 3/4/4 60/121/57
f 57/122/56 97/120/91 60/121/57
f 97/120/91 2/1/1 3/4/4
f 57/122/56 98/123/92 97/120/91
f 39/53/39 97/120/91 98/123/92
f 39/53/39 36/50/36 97/120/91
f 36/50/36 2/1/1 97/120/91
f 41/55/41 39/53/39 98/123/92
f 41/55/41 98/123/92 48/61/47
f 51/65/51 48/61/47 98/123/92
f 51/65/51 98/123/92 57/122/56
f 59/74/5 4/5/5 5/8/6
f 15/119/16 59/74/5 16/124/17
f 59/74/5 5/8/6 16/124/17
f 32/42/32 37/125/38 43/103/44
f 32/42/32 33/43/33 37/125/38
f 36/50/36 9/15/9 2/1/1
f 12/19/12 30/49/31 22/29/22
f 6/10/7 16/24/17 5/11/6
f 100/1/93 105/2/94 99/3/95
f 100/1/93 99/3/95 101/4/96
f 102/5/5 101/6/96 99/7/95
f 102/5/5 99/7/95 103/8/97
f 99/9/95 104/10/98 103/11/97
f 99/9/95 105/12/94 104/10/98
f 100/1/93 106/13/99 105/2/94
f 106/14/99 104/10/98 105/12/94
f 100/1/93 107/15/100 106/13/99
f 107/15/100 108/16/101 106/13/99
f 108/17/101 109/18/102 106/14/99
f 106/14/99 109/18/102 104/10/98
f 109/18/102 112/20/103 110/21/104
f 109/18/102 110/21/104 104/10/98
f 108/17/101 111/19/105 109/18/102
f 111/19/105 112/20/103 109/18/102
f 110/21/104 112/20/103 114/25/106
f 111/19/105 113/26/107 112/20/103
f 113/26/107 114/25/106 112/20/103
f 110/21/104 114/25/106 115/22/108
f 115/22/108 114/25/106 117/28/109
f 113/26/107 116/27/110 114/25/106
f 116/27/110 117/28/109 114/25/106
f 116/27/110 118/107/111 117/28/109
f 118/107/111 120/108/112 117/28/109
f 115/22/108 117/28/109 119/109/113
f 119/109/113 117/28/109 120/108/112
f 121/110/114 120/108/112 123/104/115
f 119/109/113 120/108/112 121/110/114
f 118/107/111 122/105/116 120/108/112
f 122/105/116 123/104/115 120/108/112
f 121/110/114 123/104/115 124/112/117
f 123/104/115 125/81/118 124/112/117
f 123/104/115 126/84/119 125/81/118
f 122/105/116 128/96/120 123/104/115
f 123/104/115 127/91/121 126/84/119
f 123/104/115 128/96/120 127/91/121
f 128/96/120 129/97/122 130/93/123
f 122/105/116 129/97/122 128/96/120
f 128/96/120 130/93/123 127/91/121
f 130/94/123 129/95/122 132/37/124
f 127/91/121 130/93/123 134/92/125
f 130/94/123 131/98/126 133/89/127
f 130/94/123 132/37/124 131/98/126
f 130/94/123 133/89/127 134/92/125
f 127/91/121 134/92/125 135/90/128
f 135/90/128 134/92/125 133/89/127
f 126/84/119 127/91/121 135/90/128
f 126/84/119 135/90/128 136/85/129
f 136/85/129 135/90/128 137/88/130
f 135/90/128 133/89/127 137/88/130
f 137/88/130 139/62/131 138/87/132
f 136/85/129 137/88/130 138/87/132
f 137/88/130 140/64/133 139/62/131
f 133/89/127 140/64/133 137/88/130
f 140/64/133 141/60/134 139/62/131
f 140/64/133 143/59/135 141/60/134
f 133/89/127 142/99/136 140/64/133
f 140/64/133 142/99/136 144/101/137
f 140/64/133 144/101/137 143/59/135
f 147/100/138 144/101/137 142/99/136
f 143/59/135 144/101/137 145/57/139
f 144/101/137 146/103/140 145/57/139
f 144/101/137 148/102/141 146/103/140
f 147/100/138 148/102/141 144/101/137
f 150/38/142 148/102/141 147/100/138
f 150/38/142 149/42/143 148/102/141
f 149/42/143 146/103/140 148/102/141
f 131/98/126 132/37/124 150/38/142
f 131/98/126 150/38/142 147/100/138
f 151/35/144 150/38/142 132/37/124
f 151/35/144 153/39/145 150/38/142
f 150/38/142 152/40/146 149/42/143
f 150/38/142 153/39/145 152/40/146
f 153/39/145 155/36/147 154/41/148
f 153/39/145 154/41/148 152/40/146
f 151/35/144 155/36/147 153/39/145
f 111/19/105 154/49/148 155/29/147
f 151/35/144 156/33/149 155/36/147
f 111/19/105 155/29/147 113/26/107
f 113/26/107 155/29/147 156/30/149
f 158/31/150 157/32/151 156/33/149
f 116/27/110 156/30/149 157/34/151
f 158/31/150 156/33/149 151/35/144
f 113/26/107 156/30/149 116/27/110
f 157/34/151 158/106/150 122/105/116
f 122/105/116 158/106/150 129/97/122
f 158/31/150 132/37/124 129/95/122
f 158/31/150 151/35/144 132/37/124
f 116/27/110 157/34/151 118/107/111
f 157/34/151 122/105/116 118/107/111
f 159/48/152 154/49/148 111/19/105
f 152/40/146 154/41/148 159/44/152
f 160/45/153 161/46/154 159/47/152
f 160/45/153 159/47/152 108/16/101
f 159/48/152 111/19/105 108/17/101
f 152/40/146 159/44/152 161/43/154
f 162/52/155 161/46/154 160/45/153
f 149/42/143 161/43/154 162/125/155
f 149/42/143 152/40/146 161/43/154
f 163/54/156 146/58/140 162/52/155
f 149/42/143 162/125/155 146/103/140
f 163/54/156 162/52/155 164/51/157
f 162/52/155 160/45/153 164/51/157
f 165/53/158 163/54/156 164/51/157
f 165/53/158 164/51/157 166/50/159
f 166/50/159 164/51/157 160/45/153
f 165/53/158 166/50/159 167/120/160
f 166/50/159 100/1/93 167/120/160
f 166/50/159 107/15/100 100/1/93
f 166/50/159 160/45/153 107/15/100
f 170/122/161 168/123/162 167/120/160
f 165/53/158 167/120/160 168/123/162
f 167/120/160 100/1/93 101/4/96
f 167/120/160 101/4/96 169/121/163
f 170/122/161 167/120/160 169/121/163
f 173/71/5 170/72/161 169/73/163
f 173/71/5 171/68/5 170/72/161
f 171/68/5 172/65/164 170/72/161
f 172/65/164 168/123/162 170/122/161
f 173/71/5 169/73/163 101/6/96
f 173/71/5 101/6/96 102/5/5
f 174/75/5 173/71/5 102/5/5
f 175/70/165 173/71/5 174/75/5
f 175/70/165 171/68/5 173/71/5
f 175/70/165 176/66/166 171/68/5
f 175/70/165 177/69/167 176/66/166
f 178/79/168 177/69/167 175/70/165
f 178/79/168 175/70/165 179/77/169
f 179/77/169 175/70/165 174/75/5
f 182/78/170 178/79/168 179/77/169
f 181/80/171 179/77/169 180/76/5
f 179/77/169 174/75/5 180/76/5
f 182/78/170 179/77/169 181/80/171
f 125/81/118 183/82/172 182/78/170
f 125/81/118 182/78/170 181/83/171
f 183/82/172 178/79/168 182/78/170
f 126/84/119 136/85/129 183/82/172
f 126/84/119 183/82/172 125/81/118
f 183/82/172 184/86/173 178/79/168
f 136/85/129 184/86/173 183/82/172
f 178/79/168 184/86/173 185/67/174
f 136/85/129 138/87/132 184/86/173
f 138/87/132 185/67/174 184/86/173
f 185/67/174 186/63/175 176/66/166
f 185/67/174 176/66/166 177/69/167
f 178/79/168 185/67/174 177/69/167
f 138/87/132 139/62/131 185/67/174
f 139/62/131 186/63/175 185/67/174
f 186/63/175 172/65/164 176/66/166
f 139/62/131 141/60/134 186/63/175
f 141/60/134 187/61/176 186/63/175
f 186/63/175 187/61/176 172/65/164
f 141/60/134 188/55/177 187/61/176
f 188/55/177 168/123/162 187/61/176
f 172/65/164 187/61/176 168/123/162
f 188/55/177 189/56/178 163/54/156
f 141/60/134 189/56/178 188/55/177
f 188/55/177 165/53/158 168/123/162
f 188/55/177 163/54/156 165/53/158
f 141/60/134 143/59/135 189/56/178
f 143/59/135 145/57/139 189/56/178
f 145/57/139 163/54/156 189/56/178
f 124/112/117 125/81/118 181/83/171
f 124/112/117 181/83/171 190/113/179
f 181/80/171 180/76/5 190/114/179
f 191/115/180 190/114/179 180/76/5
f 191/111/180 124/112/117 190/113/179
f 192/116/181 191/115/180 193/117/5
f 119/109/113 191/111/180 192/118/181
f 119/109/113 121/110/114 191/111/180
f 191/111/180 121/110/114 124/112/117
f 191/115/180 180/76/5 193/117/5
f 193/117/5 180/76/5 174/75/5
f 195/119/182 193/117/5 194/74/5
f 193/117/5 174/75/5 194/74/5
f 192/116/181 193/117/5 195/119/182
f 110/21/104 115/22/108 195/23/182
f 115/22/108 192/118/181 195/23/182
f 110/21/104 195/23/182 196/24/183
f 195/119/182 194/74/5 196/124/183
f 194/74/5 103/8/97 196/124/183
f 104/10/98 196/24/183 103/11/97
f 104/10/98 110/21/104 196/24/183
f 174/75/5 102/5/5 194/74/5
f 194/74/5 102/5/5 103/8/97
f 115/22/108 119/109/113 192/118/181
f 171/68/5 176/66/166 172/65/164
f 145/57/139 146/58/140 163/54/156
f 107/15/100 160/45/153 108/16/101
f 133/89/127 131/98/126 147/100/138
f 133/89/127 147/100/138 142/99/136
f 198/1/184 203/2/185 197/3/186
f 198/1/184 197/3/186 199/4/187
f 200/5/5 199/6/187 197/7/186
f 200/5/5 197/7/186 201/8/188
f 197/9/186 202/10/189 201/11/188
f 197/9/186 203/12/185 202/10/189
f 198/1/184 204/13/190 203/2/185
f 204/14/190 202/10/189 203/12/185
f 198/1/184 205/15/191 204/13/190
f 205/15/191 206/16/192 204/13/190
f 206/17/192 207/18/193 204/14/190
f 204/14/190 207/18/193 202/10/189
f 207/18/193 208/21/194 202/10/189
f 207/18/193 210/20/195 208/21/194
f 206/17/192 209/19/196 207/18/193
f 209/19/196 210/20/195 207/18/193
f 208/21/194 210/20/195 212/25/197
f 209/19/196 211/26/198 210/20/195
f 211/26/198 212/25/197 210/20/195
f 208/21/194 212/25/197 213/22/199
f 213/22/199 212/25/197 215/28/200
f 211/26/198 214/27/201 212/25/197
f 214/27/201 215/28/200 212/25/197
f 214/27/201 216/107/202 215/28/200
f 216/107/202 218/108/203 215/28/200
f 213/22/199 215/28/200 217/109/204
f 217/109/204 215/28/200 218/108/203
f 219/110/205 218/108/203 221/104/206
f 217/109/204 218/108/203 219/110/205
f 216/107/202 220/105/207 218/108/203
f 220/105/207 221/104/206 218/108/203
f 219/110/205 221/104/206 222/112/208
f 221/104/206 223/81/209 222/112/208
f 221/104/206 224/84/210 223/81/209
f 220/105/207 226/96/211 221/104/206
f 221/104/206 225/91/212 224/84/210
f 221/104/206 226/96/211 225/91/212
f 220/105/207 227/97/213 226/96/211
f 226/96/211 227/97/213 228/93/214
f 226/96/211 228/93/214 225/91/212
f 225/91/212 228/93/214 229/92/215
f 228/94/214 232/89/216 229/92/215
f 228/94/214 227/95/213 231/37/217
f 228/94/214 230/98/218 232/89/216
f 228/94/214 231/37/217 230/98/218
f 233/90/219 229/92/215 232/89/216
f 233/90/219 232/89/216 235/88/220
f 230/98/218 234/99/221 232/89/216
f 232/89/216 234/99/221 236/64/222
f 232/89/216 236/64/222 235/88/220
f 235/88/220 236/64/222 237/62/223
f 236/64/222 238/60/224 237/62/223
f 236/64/222 239/59/225 238/60/224
f 236/64/222 234/99/221 240/101/226
f 236/64/222 240/101/226 239/59/225
f 243/100/227 240/101/226 234/99/221
f 239/59/225 240/101/226 241/57/228
f 240/101/226 242/103/229 241/57/228
f 240/101/226 244/102/230 242/103/229
f 243/100/227 244/102/230 240/101/226
f 246/38/231 244/102/230 243/100/227
f 246/38/231 245/42/232 244/102/230
f 245/42/232 242/103/229 244/102/230
f 231/37/217 246/38/231 243/100/227
f 247/35/233 246/38/231 231/37/217
f 247/35/233 249/39/234 246/38/231
f 246/38/231 248/40/235 245/42/232
f 246/38/231 249/39/234 248/40/235
f 247/35/233 250/36/236 249/39/234
f 249/39/234 250/36/236 251/41/237
f 249/39/234 251/41/237 248/40/235
f 252/48/238 251/49/237 209/19/196
f 248/40/235 251/41/237 252/44/238
f 209/19/196 251/49/237 250/29/236
f 253/45/239 254/46/240 252/47/238
f 253/45/239 252/47/238 206/16/192
f 252/48/238 209/19/196 206/17/192
f 248/40/235 252/44/238 254/43/240
f 255/52/241 254/46/240 253/45/239
f 245/42/232 254/43/240 255/125/241
f 245/42/232 248/40/235 254/43/240
f 245/42/232 255/125/241 242/103/229
f 256/54/242 242/58/229 255/52/241
f 256/54/242 255/52/241 257/51/243
f 255/52/241 253/45/239 257/51/243
f 258/53/244 256/54/242 257/51/243
f 259/50/245 257/51/243 253/45/239
f 258/53/244 257/51/243 259/50/245
f 258/53/244 259/50/245 260/120/246
f 259/50/245 198/1/184 260/120/246
f 259/50/245 205/15/191 198/1/184
f 259/50/245 253/45/239 205/15/191
f 263/122/247 261/123/248 260/120/246
f 258/53/244 260/120/246 261/123/248
f 260/120/246 198/1/184 199/4/187
f 260/120/246 199/4/187 262/121/249
f 263/122/247 260/120/246 262/121/249
f 266/71/5 263/72/247 262/73/249
f 266/71/5 264/68/5 263/72/247
f 264/68/5 265/65/250 263/72/247
f 265/65/250 261/123/248 263/122/247
f 267/70/251 264/68/5 266/71/5
f 267/70/251 266/71/5 268/75/5
f 266/71/5 262/73/249 199/6/187
f 266/71/5 199/6/187 200/5/5
f 268/75/5 266/71/5 200/5/5
f 270/76/5 268/75/5 269/74/5
f 268/75/5 200/5/5 269/74/5
f 271/77/252 268/75/5 270/76/5
f 271/77/252 267/70/251 268/75/5
f 272/78/253 273/79/254 271/77/252
f 272/78/253 271/77/252 274/80/255
f 273/79/254 267/70/251 271/77/252
f 274/80/255 271/77/252 270/76/5
f 223/81/209 272/78/253 274/83/255
f 222/112/208 223/81/209 274/83/255
f 222/112/208 274/83/255 275/113/256
f 274/80/255 270/76/5 275/114/256
f 276/115/257 275/114/256 270/76/5
f 276/111/257 222/112/208 275/113/256
f 276/111/257 219/110/205 222/112/208
f 278/116/258 276/115/257 277/117/5
f 276/115/257 270/76/5 277/117/5
f 217/109/204 219/110/205 276/111/257
f 217/109/204 276/111/257 278/118/258
f 213/22/199 217/109/204 278/118/258
f 213/22/199 278/118/258 279/23/259
f 278/116/258 277/117/5 279/119/259
f 208/21/194 213/22/199 279/23/259
f 279/119/259 277/117/5 269/74/5
f 208/21/194 279/23/259 280/24/260
f 279/119/259 269/74/5 280/124/260
f 269/74/5 201/8/188 280/124/260
f 202/10/189 280/24/260 201/11/188
f 202/10/189 208/21/194 280/24/260
f 270/76/5 269/74/5 277/117/5
f 281/82/261 273/79/254 272/78/253
f 281/82/261 284/86/262 273/79/254
f 273/79/254 282/69/263 267/70/251
f 273/79/254 283/67/264 282/69/263
f 273/79/254 284/86/262 283/67/264
f 286/85/265 285/87/266 284/86/262
f 285/87/266 283/67/264 284/86/262
f 286/85/265 284/86/262 281/82/261
f 286/85/265 233/90/219 235/88/220
f 224/84/210 233/90/219 286/85/265
f 224/84/210 286/85/265 281/82/261
f 286/85/265 235/88/220 285/87/266
f 285/87/266 237/62/223 283/67/264
f 235/88/220 237/62/223 285/87/266
f 237/62/223 287/63/267 283/67/264
f 283/67/264 287/63/267 288/66/268
f 283/67/264 288/66/268 282/69/263
f 287/63/267 265/65/250 288/66/268
f 267/70/251 282/69/263 288/66/268
f 267/70/251 288/66/268 264/68/5
f 264/68/5 288/66/268 265/65/250
f 237/62/223 238/60/224 287/63/267
f 238/60/224 289/61/269 287/63/267
f 287/63/267 289/61/269 265/65/250
f 238/60/224 290/55/270 289/61/269
f 290/55/270 261/123/248 289/61/269
f 265/65/250 289/61/269 261/123/248
f 290/55/270 291/56/271 256/54/242
f 238/60/224 291/56/271 290/55/270
f 290/55/270 258/53/244 261/123/248
f 290/55/270 256/54/242 258/53/244
f 238/60/224 239/59/225 291/56/271
f 239/59/225 241/57/228 291/56/271
f 241/57/228 256/54/242 291/56/271
f 223/81/209 281/82/261 272/78/253
f 224/84/210 281/82/261 223/81/209
f 269/74/5 200/5/5 201/8/188
f 241/57/228 242/58/229 256/54/242
f 205/15/191 253/45/239 206/16/192
f 247/35/233 292/33/272 250/36/236
f 209/19/196 250/29/236 211/26/198
f 211/26/198 250/29/236 292/30/272
f 293/31/273 294/32/274 292/33/272
f 293/31/273 292/33/272 247/35/233
f 211/26/198 292/30/272 214/27/201
f 214/27/201 292/30/272 294/34/274
f 214/27/201 294/34/274 216/107/202
f 294/34/274 220/105/207 216/107/202
f 294/34/274 293/106/273 220/105/207
f 220/105/207 293/106/273 227/97/213
f 293/31/273 231/37/217 227/95/213
f 293/31/273 247/35/233 231/37/217
f 230/98/218 243/100/227 234/99/221
f 231/37/217 243/100/227 230/98/218
f 224/84/210 225/91/212 233/90/219
f 225/91/212 229/92/215 233/90/219
f 296/1/93 301/2/94 295/3/95
f 296/1/93 295/3/95 297/4/96
f 298/5/5 297/6/96 295/7/95
f 298/5/5 295/7/95 299/8/97
f 295/9/95 300/10/98 299/11/97
f 295/9/95 301/12/94 300/10/98
f 296/1/93 302/13/99 301/2/94
f 302/14/99 300/10/98 301/12/94
f 296/1/93 303/15/100 302/13/99
f 303/15/100 304/16/101 302/13/99
f 304/17/101 305/18/102 302/14/99
f 302/14/99 305/18/102 300/10/98
f 305/18/102 306/21/104 300/10/98
f 305/18/102 308/20/103 306/21/104
f 304/17/101 307/19/105 305/18/102
f 307/19/105 308/20/103 305/18/102
f 306/21/104 308/20/103 310/25/106
f 307/19/105 309/26/107 308/20/103
f 309/26/107 310/25/106 308/20/103
f 309/26/107 311/27/110 310/25/106
f 311/27/110 312/28/109 310/25/106
f 313/22/108 310/25/106 312/28/109
f 306/21/104 310/25/106 313/22/108
f 313/22/108 312/28/109 314/109/113
f 313/22/108 314/109/113 316/118/181
f 306/21/104 313/22/108 315/23/182
f 313/22/108 316/118/181 315/23/182
f 316/116/181 318/117/5 315/119/182
f 314/109/113 317/111/180 316/118/181
f 316/116/181 317/115/180 318/117/5
f 317/115/180 319/76/5 318/117/5
f 318/117/5 319/76/5 321/75/5
f 315/119/182 318/117/5 320/74/5
f 318/117/5 321/75/5 320/74/5
f 322/77/169 321/75/5 319/76/5
f 322/77/169 323/70/165 321/75/5
f 323/70/165 324/71/5 321/75/5
f 321/75/5 324/71/5 298/5/5
f 321/75/5 298/5/5 320/74/5
f 324/71/5 326/68/5 325/72/161
f 324/71/5 325/72/161 327/73/163
f 323/70/165 326/68/5 324/71/5
f 324/71/5 327/73/163 297/6/96
f 324/71/5 297/6/96 298/5/5
f 328/120/160 297/4/96 327/121/163
f 325/122/161 328/120/160 327/121/163
f 325/122/161 329/123/162 328/120/160
f 330/53/158 328/120/160 329/123/162
f 330/53/158 331/50/159 328/120/160
f 331/50/159 296/1/93 328/120/160
f 328/120/160 296/1/93 297/4/96
f 331/50/159 332/51/157 333/45/153
f 330/53/158 332/51/157 331/50/159
f 331/50/159 303/15/100 296/1/93
f 331/50/159 333/45/153 303/15/100
f 303/15/100 333/45/153 304/16/101
f 334/52/155 335/46/154 333/45/153
f 334/52/155 333/45/153 332/51/157
f 333/45/153 335/46/154 336/47/152
f 333/45/153 336/47/152 304/16/101
f 336/48/152 307/19/105 304/17/101
f 337/40/146 338/41/148 336/44/152
f 337/40/146 336/44/152 335/43/154
f 336/48/152 338/49/148 307/19/105
f 339/39/145 340/36/147 338/41/148
f 339/39/145 338/41/148 337/40/146
f 307/19/105 338/49/148 340/29/147
f 341/35/144 342/33/149 340/36/147
f 341/35/144 340/36/147 339/39/145
f 307/19/105 340/29/147 309/26/107
f 309/26/107 340/29/147 342/30/149
f 343/31/150 344/32/151 342/33/149
f 343/31/150 342/33/149 341/35/144
f 309/26/107 342/30/149 311/27/110
f 311/27/110 342/30/149 344/34/151
f 311/27/110 344/34/151 345/107/111
f 344/34/151 346/105/116 345/107/111
f 344/34/151 343/106/150 346/105/116
f 345/107/111 346/105/116 347/108/112
f 346/105/116 348/104/275 347/108/112
f 346/105/116 349/96/120 348/104/275
f 346/105/116 350/97/122 349/96/120
f 346/105/116 343/106/150 350/97/122
f 343/31/150 351/37/124 350/95/122
f 349/96/120 350/97/122 352/93/123
f 352/94/123 350/95/122 351/37/124
f 354/91/121 352/93/123 353/92/125
f 352/94/123 356/89/127 353/92/125
f 349/96/120 352/93/123 354/91/121
f 352/94/123 355/98/126 356/89/127
f 352/94/123 351/37/124 355/98/126
f 357/90/128 353/92/125 356/89/127
f 357/90/128 356/89/127 360/88/130
f 356/89/127 358/99/136 361/64/133
f 356/89/127 359/100/138 358/99/136
f 356/89/127 355/98/126 359/100/138
f 356/89/127 361/64/133 360/88/130
f 360/88/130 361/64/133 364/62/131
f 361/64/133 358/99/136 363/101/137
f 361/64/133 362/59/135 365/60/134
f 361/64/133 363/101/137 362/59/135
f 361/64/133 365/60/134 364/62/131
f 364/62/131 365/60/134 366/63/175
f 365/60/134 369/61/176 366/63/175
f 365/60/134 362/59/135 367/56/178
f 365/60/134 367/56/178 368/55/177
f 365/60/134 368/55/177 369/61/176
f 370/65/164 369/61/176 329/123/162
f 366/63/175 369/61/176 370/65/164
f 368/55/177 329/123/162 369/61/176
f 326/68/5 371/66/166 370/65/164
f 326/68/5 370/65/164 325/72/161
f 370/65/164 329/123/162 325/122/161
f 366/63/175 370/65/164 371/66/166
f 372/67/174 366/63/175 371/66/166
f 372/67/174 371/66/166 373/69/167
f 323/70/165 373/69/167 371/66/166
f 323/70/165 371/66/166 326/68/5
f 374/79/168 373/69/167 323/70/165
f 374/79/168 372/67/174 373/69/167
f 375/78/276 374/79/168 322/77/169
f 376/82/172 374/79/168 375/78/276
f 376/82/172 377/86/173 374/79/168
f 374/79/168 377/86/173 372/67/174
f 374/79/168 323/70/165 322/77/169
f 379/85/277 378/87/132 377/86/173
f 378/87/132 372/67/174 377/86/173
f 379/85/277 377/86/173 376/82/172
f 379/85/277 357/90/128 360/88/130
f 380/84/119 357/90/128 379/85/277
f 380/84/119 379/85/277 376/82/172
f 379/85/277 360/88/130 378/87/132
f 348/104/275 380/84/119 381/81/118
f 348/104/275 354/91/121 380/84/119
f 380/84/119 354/91/121 357/90/128
f 380/84/119 376/82/172 381/81/118
f 383/112/117 381/81/118 382/83/171
f 381/81/118 375/78/276 382/83/171
f 381/81/118 376/82/172 375/78/276
f 348/104/275 381/81/118 383/112/117
f 383/112/117 382/83/171 384/113/179
f 317/111/180 383/112/117 384/113/179
f 317/111/180 385/110/114 383/112/117
f 385/110/114 348/104/275 383/112/117
f 314/109/113 385/110/114 317/111/180
f 314/109/113 347/108/112 385/110/114
f 385/110/114 347/108/112 348/104/275
f 382/80/171 319/76/5 384/114/179
f 317/115/180 384/114/179 319/76/5
f 382/80/171 322/77/169 319/76/5
f 375/78/276 322/77/169 382/80/171
f 378/87/132 364/62/131 372/67/174
f 360/88/130 364/62/131 378/87/132
f 364/62/131 366/63/175 372/67/174
f 368/55/177 367/56/178 386/54/156
f 368/55/177 330/53/158 329/123/162
f 368/55/177 386/54/156 330/53/158
f 387/57/139 388/58/140 386/54/156
f 387/57/139 386/54/156 367/56/178
f 386/54/156 388/58/140 334/52/155
f 330/53/158 386/54/156 332/51/157
f 386/54/156 334/52/155 332/51/157
f 363/101/137 390/102/141 388/103/140
f 363/101/137 388/103/140 387/57/139
f 389/42/143 334/125/155 388/103/140
f 389/42/143 388/103/140 390/102/141
f 359/100/138 390/102/141 363/101/137
f 391/38/142 390/102/141 359/100/138
f 391/38/142 389/42/143 390/102/141
f 341/35/144 339/39/145 391/38/142
f 341/35/144 391/38/142 351/37/124
f 391/38/142 337/40/146 389/42/143
f 391/38/142 339/39/145 337/40/146
f 355/98/126 351/37/124 391/38/142
f 355/98/126 391/38/142 359/100/138
f 389/42/143 337/40/146 335/43/154
f 389/42/143 335/43/154 334/125/155
f 362/59/135 363/101/137 387/57/139
f 362/59/135 387/57/139 367/56/178
f 359/100/138 363/101/137 358/99/136
f 354/91/121 353/92/125 357/90/128
f 348/104/275 349/96/120 354/91/121
f 343/31/150 341/35/144 351/37/124
f 314/109/113 312/28/109 347/108/112
f 345/107/111 347/108/112 312/28/109
f 311/27/110 345/107/111 312/28/109
f 320/74/5 298/5/5 299/8/97
f 320/74/5 299/8/97 392/124/183
f 315/119/182 320/74/5 392/124/183
f 306/21/104 315/23/182 392/24/183
f 300/10/98 392/24/183 299/11/97
f 300/10/98 306/21/104 392/24/183
f 394/1/184 399/2/185 393/3/186
f 394/1/184 393/3/186 395/4/187
f 396/5/5 395/6/187 393/7/186
f 396/5/5 393/7/186 397/8/188
f 393/9/186 398/10/189 397/11/188
f 393/9/186 399/12/185 398/10/189
f 394/1/184 400/13/190 399/2/185
f 400/14/190 398/10/189 399/12/185
f 394/1/184 401/15/191 400/13/190
f 401/15/191 402/16/192 400/13/190
f 402/17/192 403/18/193 400/14/190
f 400/14/190 403/18/193 398/10/189
f 402/17/192 404/19/196 403/18/193
f 404/19/196 405/20/195 403/18/193
f 403/18/193 405/20/195 406/21/194
f 403/18/193 406/21/194 398/10/189
f 406/21/194 409/22/199 407/23/259
f 406/21/194 407/23/259 408/24/260
f 398/10/189 406/21/194 408/24/260
f 406/21/194 410/25/197 409/22/199
f 406/21/194 405/20/195 410/25/197
f 413/26/198 410/25/197 405/20/195
f 413/26/198 411/27/201 410/25/197
f 411/27/201 412/28/200 410/25/197
f 409/22/199 410/25/197 412/28/200
f 404/19/196 413/26/198 405/20/195
f 404/19/196 414/29/236 413/26/198
f 413/26/198 414/29/236 415/30/272
f 413/26/198 415/30/272 411/27/201
f 417/31/273 416/32/274 415/33/272
f 411/27/201 415/30/272 416/34/274
f 418/35/233 415/33/272 414/36/236
f 417/31/273 415/33/272 418/35/233
f 417/31/273 418/35/233 419/37/217
f 418/35/233 420/38/231 419/37/217
f 418/35/233 421/39/234 420/38/231
f 418/35/233 414/36/236 421/39/234
f 420/38/231 421/39/234 423/40/235
f 421/39/234 414/36/236 422/41/237
f 421/39/234 422/41/237 423/40/235
f 420/38/231 423/40/235 424/42/232
f 424/42/232 423/40/235 425/43/240
f 423/40/235 422/41/237 426/44/238
f 423/40/235 426/44/238 425/43/240
f 427/45/239 425/46/240 426/47/238
f 427/45/239 426/47/238 402/16/192
f 426/48/238 404/19/196 402/17/192
f 426/48/238 422/49/237 404/19/196
f 401/15/191 427/45/239 402/16/192
f 428/50/245 430/51/243 427/45/239
f 428/50/245 427/45/239 401/15/191
f 429/52/241 425/46/240 427/45/239
f 429/52/241 427/45/239 430/51/243
f 431/53/244 432/54/242 430/51/243
f 431/53/244 430/51/243 428/50/245
f 432/54/242 429/52/241 430/51/243
f 433/55/270 436/56/271 432/54/242
f 433/55/270 432/54/242 431/53/244
f 434/57/228 435/58/229 432/54/242
f 434/57/228 432/54/242 436/56/271
f 432/54/242 435/58/229 429/52/241
f 437/59/225 434/57/228 436/56/271
f 438/60/224 437/59/225 436/56/271
f 438/60/224 436/56/271 433/55/270
f 438/60/224 433/55/270 440/61/269
f 439/62/223 438/60/224 442/63/267
f 441/64/222 438/60/224 439/62/223
f 438/60/224 440/61/269 442/63/267
f 441/64/222 437/59/225 438/60/224
f 442/63/267 440/61/269 443/65/250
f 442/63/267 443/65/250 445/66/268
f 444/67/264 442/63/267 445/66/268
f 439/62/223 442/63/267 444/67/264
f 448/68/5 445/66/268 443/65/250
f 444/67/264 445/66/268 446/69/263
f 447/70/251 446/69/263 445/66/268
f 447/70/251 445/66/268 448/68/5
f 450/71/5 448/68/5 449/72/247
f 448/68/5 443/65/250 449/72/247
f 447/70/251 448/68/5 450/71/5
f 450/71/5 451/73/249 395/6/187
f 450/71/5 395/6/187 396/5/5
f 452/75/5 450/71/5 396/5/5
f 450/71/5 449/72/247 451/73/249
f 447/70/251 450/71/5 452/75/5
f 454/76/5 452/75/5 453/74/5
f 452/75/5 396/5/5 453/74/5
f 455/77/252 452/75/5 454/76/5
f 455/77/252 447/70/251 452/75/5
f 458/78/253 456/79/254 455/77/252
f 456/79/254 447/70/251 455/77/252
f 457/80/255 455/77/252 454/76/5
f 458/78/253 455/77/252 457/80/255
f 459/81/209 460/82/261 458/78/253
f 459/81/209 458/78/253 457/83/255
f 460/82/261 456/79/254 458/78/253
f 462/84/210 461/85/265 460/82/261
f 461/85/265 463/86/262 460/82/261
f 462/84/210 460/82/261 459/81/209
f 460/82/261 463/86/262 456/79/254
f 456/79/254 463/86/262 444/67/264
f 461/85/265 464/87/266 463/86/262
f 464/87/266 444/67/264 463/86/262
f 461/85/265 465/88/220 464/87/266
f 464/87/266 439/62/223 444/67/264
f 465/88/220 439/62/223 464/87/266
f 465/88/220 441/64/222 439/62/223
f 466/89/216 441/64/222 465/88/220
f 467/90/219 466/89/216 465/88/220
f 461/85/265 467/90/219 465/88/220
f 462/84/210 468/91/212 467/90/219
f 468/91/212 469/92/215 467/90/219
f 462/84/210 467/90/219 461/85/265
f 467/90/219 469/92/215 466/89/216
f 468/91/212 470/93/214 469/92/215
f 470/94/214 466/89/216 469/92/215
f 470/94/214 471/95/213 419/37/217
f 472/96/211 471/97/213 470/93/214
f 472/96/211 470/93/214 468/91/212
f 470/94/214 473/98/218 466/89/216
f 470/94/214 419/37/217 473/98/218
f 473/98/218 474/99/221 466/89/216
f 473/98/218 475/100/227 474/99/221
f 419/37/217 475/100/227 473/98/218
f 475/100/227 476/101/226 474/99/221
f 475/100/227 477/102/230 476/101/226
f 419/37/217 420/38/231 475/100/227
f 420/38/231 477/102/230 475/100/227
f 420/38/231 424/42/232 477/102/230
f 424/42/232 435/103/229 477/102/230
f 476/101/226 477/102/230 435/103/229
f 441/64/222 474/99/221 476/101/226
f 437/59/225 476/101/226 434/57/228
f 476/101/226 435/103/229 434/57/228
f 441/64/222 476/101/226 437/59/225
f 466/89/216 474/99/221 441/64/222
f 478/104/206 472/96/211 468/91/212
f 479/105/207 472/96/211 478/104/206
f 479/105/207 471/97/213 472/96/211
f 416/34/274 417/106/273 479/105/207
f 416/34/274 479/105/207 480/107/202
f 480/107/202 479/105/207 481/108/203
f 479/105/207 478/104/206 481/108/203
f 479/105/207 417/106/273 471/97/213
f 480/107/202 481/108/203 412/28/200
f 482/109/204 412/28/200 481/108/203
f 483/110/205 481/108/203 478/104/206
f 482/109/204 481/108/203 483/110/205
f 482/109/204 483/110/205 484/111/257
f 484/111/257 483/110/205 485/112/208
f 483/110/205 478/104/206 485/112/208
f 478/104/206 459/81/209 485/112/208
f 485/112/208 459/81/209 457/83/255
f 485/112/208 457/83/255 486/113/256
f 484/111/257 485/112/208 486/113/256
f 457/80/255 454/76/5 486/114/256
f 484/115/257 486/114/256 454/76/5
f 487/116/258 484/115/257 488/117/5
f 482/109/204 484/111/257 487/118/258
f 484/115/257 454/76/5 488/117/5
f 487/116/258 488/117/5 407/119/259
f 407/119/259 488/117/5 453/74/5
f 454/76/5 453/74/5 488/117/5
f 409/22/199 482/109/204 487/118/258
f 409/22/199 487/118/258 407/23/259
f 409/22/199 412/28/200 482/109/204
f 411/27/201 480/107/202 412/28/200
f 411/27/201 416/34/274 480/107/202
f 478/104/206 462/84/210 459/81/209
f 478/104/206 468/91/212 462/84/210
f 417/31/273 419/37/217 471/95/213
f 456/79/254 444/67/264 446/69/263
f 456/79/254 446/69/263 447/70/251
f 453/74/5 396/5/5 397/8/188
f 407/119/259 453/74/5 408/124/260
f 453/74/5 397/8/188 408/124/260
f 489/120/246 395/4/187 451/121/249
f 449/122/247 489/120/246 451/121/249
f 489/120/246 394/1/184 395/4/187
f 449/122/247 490/123/248 489/120/246
f 431/53/244 489/120/246 490/123/248
f 431/53/244 428/50/245 489/120/246
f 428/50/245 394/1/184 489/120/246
f 433/55/270 431/53/244 490/123/248
f 433/55/270 490/123/248 440/61/269
f 443/65/250 440/61/269 490/123/248
f 443/65/250 490/123/248 449/122/247
f 424/42/232 429/125/241 435/103/229
f 424/42/232 425/43/240 429/125/241
f 428/50/245 401/15/191 394/1/184
f 404/19/196 422/49/237 414/29/236
f 398/10/189 408/24/260 397/11/188
f 492/1/1 497/2/2 491/3/3
f 492/1/1 491/3/3 493/4/4
f 494/5/5 493/6/4 491/7/3
f 494/5/5 491/7/3 495/8/6
f 491/9/3 496/10/7 495/11/6
f 491/9/3 497/12/2 496/10/7
f 492/1/1 498/13/8 497/2/2
f 498/14/8 496/10/7 497/12/2
f 492/1/1 499/15/9 498/13/8
f 499/15/9 500/16/278 498/13/8
f 500/17/278 501/18/11 498/14/8
f 498/14/8 501/18/11 496/10/7
f 501/18/11 504/20/13 502/21/14
f 501/18/11 502/21/14 496/10/7
f 500/17/278 503/19/12 501/18/11
f 503/19/12 504/20/13 501/18/11
f 502/21/14 504/20/13 506/25/18
f 503/19/12 505/26/19 504/20/13
f 505/26/19 506/25/18 504/20/13
f 502/21/14 506/25/18 507/22/15
f 507/22/15 506/25/18 509/28/21
f 505/26/19 508/27/20 506/25/18
f 508/27/20 509/28/21 506/25/18
f 508/27/20 510/107/83 509/28/21
f 510/107/83 512/108/84 509/28/21
f 507/22/15 509/28/21 511/109/85
f 511/109/85 509/28/21 512/108/84
f 513/110/86 512/108/84 515/104/81
f 511/109/85 512/108/84 513/110/86
f 510/107/83 514/105/82 512/108/84
f 514/105/82 515/104/81 512/108/84
f 513/110/86 515/104/81 516/112/88
f 515/104/81 517/81/62 516/112/88
f 515/104/81 518/84/64 517/81/62
f 514/105/82 520/96/75 515/104/81
f 515/104/81 519/91/71 518/84/64
f 515/104/81 520/96/75 519/91/71
f 520/96/75 521/97/74 522/93/73
f 514/105/82 521/97/74 520/96/75
f 520/96/75 522/93/73 519/91/71
f 522/94/73 521/95/74 524/37/27
f 519/91/71 522/93/73 526/92/72
f 522/94/73 523/98/76 525/89/69
f 522/94/73 524/37/27 523/98/76
f 522/94/73 525/89/69 526/92/72
f 519/91/71 526/92/72 527/90/70
f 527/90/70 526/92/72 525/89/69
f 518/84/64 519/91/71 527/90/70
f 518/84/64 527/90/70 528/85/279
f 528/85/279 527/90/70 529/88/68
f 527/90/70 525/89/69 529/88/68
f 529/88/68 531/62/48 530/87/67
f 528/85/279 529/88/68 530/87/67
f 529/88/68 532/64/50 531/62/48
f 525/89/69 532/64/50 529/88/68
f 532/64/50 533/60/46 531/62/48
f 532/64/50 535/59/45 533/60/46
f 525/89/69 534/99/77 532/64/50
f 532/64/50 534/99/77 536/101/79
f 532/64/50 536/101/79 535/59/45
f 539/100/78 536/101/79 534/99/77
f 535/59/45 536/101/79 537/57/43
f 536/101/79 538/103/44 537/57/43
f 536/101/79 540/102/80 538/103/44
f 539/100/78 540/102/80 536/101/79
f 542/38/28 540/102/80 539/100/78
f 542/38/28 541/42/32 540/102/80
f 541/42/32 538/103/44 540/102/80
f 524/37/27 542/38/28 539/100/78
f 543/35/26 542/38/28 524/37/27
f 543/35/26 545/39/29 542/38/28
f 542/38/28 544/40/30 541/42/32
f 542/38/28 545/39/29 544/40/30
f 545/39/29 547/36/22 546/41/31
f 545/39/29 546/41/31 544/40/30
f 543/35/26 547/36/22 545/39/29
f 503/19/12 546/49/31 547/29/22
f 543/35/26 548/33/23 547/36/22
f 503/19/12 547/29/22 505/26/19
f 505/26/19 547/29/22 548/30/23
f 550/31/24 549/32/25 548/33/23
f 508/27/20 548/30/23 549/34/25
f 550/31/24 548/33/23 543/35/26
f 505/26/19 548/30/23 508/27/20
f 549/34/25 550/106/24 514/105/82
f 514/105/82 550/106/24 521/97/74
f 550/31/24 524/37/27 521/95/74
f 550/31/24 543/35/26 524/37/27
f 508/27/20 549/34/25 510/107/83
f 549/34/25 514/105/82 510/107/83
f 551/48/34 546/49/31 503/19/12
f 544/40/30 546/41/31 551/44/34
f 552/45/280 553/46/33 551/47/34
f 552/45/280 551/47/34 500/16/278
f 551/48/34 503/19/12 500/17/278
f 544/40/30 551/44/34 553/43/33
f 554/52/38 553/46/33 552/45/280
f 541/42/32 553/43/33 554/125/38
f 541/42/32 544/40/30 553/43/33
f 555/54/40 538/58/44 554/52/38
f 541/42/32 554/125/38 538/103/44
f 555/54/40 554/52/38 556/51/37
f 554/52/38 552/45/280 556/51/37
f 557/53/39 555/54/40 556/51/37
f 557/53/39 556/51/37 558/50/36
f 558/50/36 556/51/37 552/45/280
f 557/53/39 558/50/36 559/120/91
f 558/50/36 492/1/1 559/120/91
f 558/50/36 499/15/9 492/1/1
f 558/50/36 552/45/280 499/15/9
f 562/122/56 560/123/92 559/120/91
f 557/53/39 559/120/91 560/123/92
f 559/120/91 492/1/1 493/4/4
f 559/120/91 493/4/4 561/121/57
f 562/122/56 559/120/91 561/121/57
f 565/71/5 562/72/56 561/73/57
f 565/71/5 563/68/5 562/72/56
f 563/68/5 564/65/51 562/72/56
f 564/65/51 560/123/92 562/122/56
f 565/71/5 561/73/57 493/6/4
f 565/71/5 493/6/4 494/5/5
f 566/75/5 565/71/5 494/5/5
f 567/70/55 565/71/5 566/75/5
f 567/70/55 563/68/5 565/71/5
f 567/70/55 568/66/52 563/68/5
f 567/70/55 569/69/54 568/66/52
f 570/79/60 569/69/54 567/70/55
f 570/79/60 567/70/55 571/77/58
f 571/77/58 567/70/55 566/75/5
f 574/78/59 570/79/60 571/77/58
f 573/80/61 571/77/58 572/76/5
f 571/77/58 566/75/5 572/76/5
f 574/78/59 571/77/58 573/80/61
f 517/81/62 575/82/63 574/78/59
f 517/81/62 574/78/59 573/83/61
f 575/82/63 570/79/60 574/78/59
f 518/84/64 528/85/279 575/82/63
f 518/84/64 575/82/63 517/81/62
f 575/82/63 576/86/281 570/79/60
f 528/85/279 576/86/281 575/82/63
f 570/79/60 576/86/281 577/67/53
f 528/85/279 530/87/67 576/86/281
f 530/87/67 577/67/53 576/86/281
f 577/67/53 578/63/49 568/66/52
f 577/67/53 568/66/52 569/69/54
f 570/79/60 577/67/53 569/69/54
f 530/87/67 531/62/48 577/67/53
f 531/62/48 578/63/49 577/67/53
f 578/63/49 564/65/51 568/66/52
f 531/62/48 533/60/46 578/63/49
f 533/60/46 579/61/47 578/63/49
f 578/63/49 579/61/47 564/65/51
f 533/60/46 580/55/41 579/61/47
f 580/55/41 560/123/92 579/61/47
f 564/65/51 579/61/47 560/123/92
f 580/55/41 581/56/42 555/54/40
f 533/60/46 581/56/42 580/55/41
f 580/55/41 557/53/39 560/123/92
f 580/55/41 555/54/40 557/53/39
f 533/60/46 535/59/45 581/56/42
f 535/59/45 537/57/43 581/56/42
f 537/57/43 555/54/40 581/56/42
f 516/112/88 517/81/62 573/83/61
f 516/112/88 573/83/61 582/113/89
f 573/80/61 572/76/5 582/114/89
f 583/115/87 582/114/89 572/76/5
f 583/111/87 516/112/88 582/113/89
f 584/116/90 583/115/87 585/117/5
f 511/109/85 583/111/87 584/118/90
f 511/109/85 513/110/86 583/111/87
f 583/111/87 513/110/86 516/112/88
f 583/115/87 572/76/5 585/117/5
f 585/117/5 572/76/5 566/75/5
f 587/119/16 585/117/5 586/74/5
f 585/117/5 566/75/5 586/74/5
f 584/116/90 585/117/5 587/119/16
f 502/21/14 507/22/15 587/23/16
f 507/22/15 584/118/90 587/23/16
f 502/21/14 587/23/16 588/24/17
f 587/119/16 586/74/5 588/124/17
f 586/74/5 495/8/6 588/124/17
f 496/10/7 588/24/17 495/11/6
f 496/10/7 502/21/14 588/24/17
f 566/75/5 494/5/5 586/74/5
f 586/74/5 494/5/5 495/8/6
f 507/22/15 511/109/85 584/118/90
f 563/68/5 568/66/52 564/65/51
f 537/57/43 538/58/44 555/54/40
f 499/15/9 552/45/280 500/16/278
f 523/98/76 539/100/78 534/99/77
f 524/37/27 539/100/78 523/98/76
f 523/98/76 534/99/77 525/89/69
f 590/1/282 595/2/283 589/3/284
f 590/1/282 589/3/284 591/4/285
f 592/5/5 591/6/285 589/7/284
f 592/5/5 589/7/284 593/8/286
f 589/9/284 594/10/287 593/11/286
f 589/9/284 595/12/283 594/10/287
f 590/1/282 596/13/288 595/2/283
f 596/14/288 594/10/287 595/12/283
f 590/1/282 597/15/289 596/13/288
f 597/15/289 598/16/290 596/13/288
f 598/17/290 599/18/291 596/14/288
f 596/14/288 599/18/291 594/10/287
f 599/18/291 600/21/292 594/10/287
f 599/18/291 602/20/293 600/21/292
f 598/17/290 601/19/294 599/18/291
f 601/19/294 602/20/293 599/18/291
f 600/21/292 602/20/293 604/25/295
f 601/19/294 603/26/296 602/20/293
f 603/26/296 604/25/295 602/20/293
f 600/21/292 604/25/295 605/22/297
f 605/22/297 604/25/295 607/28/298
f 603/26/296 606/27/299 604/25/295
f 606/27/299 607/28/298 604/25/295
f 606/27/299 608/107/300 607/28/298
f 608/107/300 610/108/301 607/28/298
f 605/22/297 607/28/298 609/109/302
f 609/109/302 607/28/298 610/108/301
f 611/110/303 610/108/301 613/104/304
f 609/109/302 610/108/301 611/110/303
f 608/107/300 612/105/305 610/108/301
f 612/105/305 613/104/304 610/108/301
f 611/110/303 613/104/304 614/112/306
f 613/104/304 615/81/307 614/112/306
f 613/104/304 616/84/308 615/81/307
f 612/105/305 618/96/309 613/104/304
f 613/104/304 617/91/310 616/84/308
f 613/104/304 618/96/309 617/91/310
f 612/105/305 619/97/311 618/96/309
f 618/96/309 619/97/311 620/93/312
f 618/96/309 620/93/312 617/91/310
f 617/91/310 620/93/312 621/92/313
f 620/94/312 624/89/314 621/92/313
f 620/94/312 619/95/311 623/37/315
f 620/94/312 622/98/316 624/89/314
f 620/94/312 623/37/315 622/98/316
f 625/90/317 621/92/313 624/89/314
f 625/90/317 624/89/314 627/88/318
f 622/98/316 626/99/319 624/89/314
f 624/89/314 626/99/319 628/64/320
f 624/89/314 628/64/320 627/88/318
f 627/88/318 628/64/320 629/62/321
f 628/64/320 630/60/322 629/62/321
f 628/64/320 631/59/323 630/60/322
f 628/64/320 626/99/319 632/101/324
f 628/64/320 632/101/324 631/59/323
f 635/100/325 632/101/324 626/99/319
f 631/59/323 632/101/324 633/57/326
f 632/101/324 634/103/327 633/57/326
f 632/101/324 636/102/328 634/103/327
f 635/100/325 636/102/328 632/101/324
f 638/38/329 636/102/328 635/100/325
f 638/38/329 637/42/330 636/102/328
f 637/42/330 634/103/327 636/102/328
f 623/37/315 638/38/329 635/100/325
f 639/35/331 638/38/329 623/37/315
f 639/35/331 641/39/332 638/38/329
f 638/38/329 640/40/333 637/42/330
f 638/38/329 641/39/332 640/40/333
f 639/35/331 642/36/334 641/39/332
f 641/39/332 642/36/334 643/41/335
f 641/39/332 643/41/335 640/40/333
f 644/48/336 643/49/335 601/19/294
f 640/40/333 643/41/335 644/44/336
f 601/19/294 643/49/335 642/29/334
f 645/45/337 646/46/338 644/47/336
f 645/45/337 644/47/336 598/16/290
f 644/48/336 601/19/294 598/17/290
f 640/40/333 644/44/336 646/43/338
f 647/52/339 646/46/338 645/45/337
f 637/42/330 646/43/338 647/125/339
f 637/42/330 640/40/333 646/43/338
f 637/42/330 647/125/339 634/103/327
f 648/54/340 634/58/327 647/52/339
f 648/54/340 647/52/339 649/51/341
f 647/52/339 645/45/337 649/51/341
f 650/53/342 648/54/340 649/51/341
f 651/50/343 649/51/341 645/45/337
f 650/53/342 649/51/341 651/50/343
f 650/53/342 651/50/343 652/120/344
f 651/50/343 590/1/282 652/120/344
f 651/50/343 597/15/289 590/1/282
f 651/50/343 645/45/337 597/15/289
f 655/122/345 653/123/346 652/120/344
f 650/53/342 652/120/344 653/123/346
f 652/120/344 590/1/282 591/4/285
f 652/120/344 591/4/285 654/121/347
f 655/122/345 652/120/344 654/121/347
f 658/71/5 655/72/345 654/73/347
f 658/71/5 656/68/5 655/72/345
f 656/68/5 657/65/348 655/72/345
f 657/65/348 653/123/346 655/122/345
f 659/70/349 656/68/5 658/71/5
f 659/70/349 658/71/5 661/75/5
f 658/71/5 654/73/347 591/6/285
f 658/71/5 591/6/285 592/5/5
f 660/74/5 661/75/5 658/71/5
f 660/74/5 658/71/5 592/5/5
f 662/76/5 661/75/5 660/74/5
f 662/76/5 659/70/349 661/75/5
f 663/115/350 667/114/351 662/76/5
f 663/115/350 662/76/5 664/117/5
f 662/76/5 660/74/5 664/117/5
f 665/80/352 666/77/353 662/76/5
f 665/80/352 662/76/5 667/114/351
f 662/76/5 666/77/353 659/70/349
f 614/112/306 665/83/352 667/113/351
f 663/111/350 614/112/306 667/113/351
f 668/78/354 669/79/355 666/77/353
f 668/78/354 666/77/353 665/80/352
f 669/79/355 659/70/349 666/77/353
f 670/82/356 669/79/355 668/78/354
f 670/82/356 673/86/357 669/79/355
f 669/79/355 671/69/358 659/70/349
f 669/79/355 672/67/359 671/69/358
f 669/79/355 673/86/357 672/67/359
f 675/85/360 674/87/361 673/86/357
f 674/87/361 672/67/359 673/86/357
f 675/85/360 673/86/357 670/82/356
f 675/85/360 625/90/317 627/88/318
f 616/84/308 625/90/317 675/85/360
f 616/84/308 675/85/360 670/82/356
f 675/85/360 627/88/318 674/87/361
f 674/87/361 629/62/321 672/67/359
f 627/88/318 629/62/321 674/87/361
f 629/62/321 676/63/362 672/67/359
f 672/67/359 676/63/362 677/66/363
f 672/67/359 677/66/363 671/69/358
f 676/63/362 657/65/348 677/66/363
f 659/70/349 671/69/358 677/66/363
f 659/70/349 677/66/363 656/68/5
f 656/68/5 677/66/363 657/65/348
f 629/62/321 630/60/322 676/63/362
f 630/60/322 678/61/364 676/63/362
f 676/63/362 678/61/364 657/65/348
f 630/60/322 679/55/365 678/61/364
f 679/55/365 653/123/346 678/61/364
f 657/65/348 678/61/364 653/123/346
f 679/55/365 680/56/366 648/54/340
f 630/60/322 680/56/366 679/55/365
f 679/55/365 650/53/342 653/123/346
f 679/55/365 648/54/340 650/53/342
f 630/60/322 631/59/323 680/56/366
f 631/59/323 633/57/326 680/56/366
f 633/57/326 648/54/340 680/56/366
f 615/81/307 670/82/356 668/78/354
f 616/84/308 670/82/356 615/81/307
f 615/81/307 668/78/354 665/83/352
f 614/112/306 615/81/307 665/83/352
f 681/116/367 663/115/350 664/117/5
f 682/119/368 664/117/5 660/74/5
f 681/116/367 664/117/5 682/119/368
f 600/21/292 605/22/297 682/23/368
f 605/22/297 681/118/367 682/23/368
f 600/21/292 682/23/368 683/24/369
f 682/119/368 660/74/5 683/124/369
f 660/74/5 593/8/286 683/124/369
f 594/10/287 683/24/369 593/11/286
f 594/10/287 600/21/292 683/24/369
f 605/22/297 609/109/302 681/118/367
f 609/109/302 663/111/350 681/118/367
f 663/111/350 611/110/303 614/112/306
f 609/109/302 611/110/303 663/111/350
f 660/74/5 592/5/5 593/8/286
f 633/57/326 634/58/327 648/54/340
f 597/15/289 645/45/337 598/16/290
f 639/35/331 684/33/370 642/36/334
f 601/19/294 642/29/334 603/26/296
f 603/26/296 642/29/334 684/30/370
f 685/31/371 686/32/372 684/33/370
f 685/31/371 684/33/370 639/35/331
f 603/26/296 684/30/370 606/27/299
f 606/27/299 684/30/370 686/34/372
f 606/27/299 686/34/372 608/107/300
f 686/34/372 612/105/305 608/107/300
f 686/34/372 685/106/371 612/105/305
f 612/105/305 685/106/371 619/97/311
f 685/31/371 623/37/315 619/95/311
f 685/31/371 639/35/331 623/37/315
f 622/98/316 635/100/325 626/99/319
f 623/37/315 635/100/325 622/98/316
f 616/84/308 617/91/310 625/90/317
f 617/91/310 621/92/313 625/90/317
f 688/1/184 693/2/185 687/3/186
f 688/1/184 687/3/186 689/4/187
f 690/5/5 689/6/187 687/7/186
f 690/5/5 687/7/186 691/8/188
f 687/9/186 692/10/189 691/11/188
f 687/9/186 693/12/185 692/10/189
f 688/1/184 694/13/190 693/2/185
f 694/14/190 692/10/189 693/12/185
f 688/1/184 695/15/191 694/13/190
f 695/15/191 696/16/192 694/13/190
f 696/17/192 697/18/193 694/14/190
f 694/14/190 697/18/193 692/10/189
f 697/18/193 698/21/194 692/10/189
f 697/18/193 700/20/195 698/21/194
f 696/17/192 699/19/196 697/18/193
f 699/19/196 700/20/195 697/18/193
f 698/21/194 700/20/195 702/25/197
f 699/19/196 701/26/198 700/20/195
f 701/26/198 702/25/197 700/20/195
f 701/26/198 703/27/201 702/25/197
f 703/27/201 704/28/200 702/25/197
f 705/22/199 702/25/197 704/28/200
f 698/21/194 702/25/197 705/22/199
f 705/22/199 704/28/200 706/109/204
f 705/22/199 706/109/204 708/118/258
f 698/21/194 705/22/199 707/23/259
f 705/22/199 708/118/258 707/23/259
f 708/116/258 710/117/5 707/119/259
f 706/109/204 709/111/257 708/118/258
f 708/116/258 709/115/257 710/117/5
f 709/115/257 711/76/5 710/117/5
f 711/76/5 712/74/5 710/117/5
f 707/119/259 710/117/5 712/74/5
f 712/74/5 690/5/5 691/8/188
f 712/74/5 691/8/188 714/124/260
f 711/76/5 713/75/5 712/74/5
f 713/75/5 690/5/5 712/74/5
f 707/119/259 712/74/5 714/124/260
f 698/21/194 707/23/259 714/24/260
f 692/10/189 714/24/260 691/11/188
f 692/10/189 698/21/194 714/24/260
f 715/77/252 713/75/5 711/76/5
f 715/77/252 716/70/251 713/75/5
f 716/70/251 717/71/5 713/75/5
f 713/75/5 717/71/5 690/5/5
f 717/71/5 719/68/5 718/72/247
f 717/71/5 718/72/247 720/73/249
f 716/70/251 719/68/5 717/71/5
f 717/71/5 720/73/249 689/6/187
f 717/71/5 689/6/187 690/5/5
f 721/120/246 689/4/187 720/121/249
f 718/122/247 721/120/246 720/121/249
f 718/122/247 722/123/248 721/120/246
f 723/53/244 721/120/246 722/123/248
f 723/53/244 724/50/245 721/120/246
f 724/50/245 688/1/184 721/120/246
f 721/120/246 688/1/184 689/4/187
f 724/50/245 725/51/243 726/45/239
f 723/53/244 725/51/243 724/50/245
f 724/50/245 695/15/191 688/1/184
f 724/50/245 726/45/239 695/15/191
f 695/15/191 726/45/239 696/16/192
f 727/52/241 728/46/240 726/45/239
f 727/52/241 726/45/239 725/51/243
f 726/45/239 728/46/240 729/47/238
f 726/45/239 729/47/238 696/16/192
f 729/48/238 699/19/196 696/17/192
f 730/40/235 731/41/237 729/44/238
f 730/40/235 729/44/238 728/43/240
f 729/48/238 731/49/237 699/19/196
f 732/39/234 733/36/236 731/41/237
f 732/39/234 731/41/237 730/40/235
f 699/19/196 731/49/237 733/29/236
f 734/35/233 735/33/272 733/36/236
f 734/35/233 733/36/236 732/39/234
f 699/19/196 733/29/236 701/26/198
f 701/26/198 733/29/236 735/30/272
f 736/31/273 737/32/274 735/33/272
f 736/31/273 735/33/272 734/35/233
f 701/26/198 735/30/272 703/27/201
f 703/27/201 735/30/272 737/34/274
f 703/27/201 737/34/274 738/107/202
f 737/34/274 739/105/207 738/107/202
f 737/34/274 736/106/273 739/105/207
f 738/107/202 739/105/207 740/108/203
f 739/105/207 741/104/206 740/108/203
f 739/105/207 742/96/211 741/104/206
f 739/105/207 743/97/213 742/96/211
f 739/105/207 736/106/273 743/97/213
f 736/31/273 744/37/217 743/95/213
f 742/96/211 743/97/213 745/93/214
f 745/94/214 743/95/213 744/37/217
f 747/91/212 745/93/214 746/92/215
f 745/94/214 749/89/216 746/92/215
f 742/96/211 745/93/214 747/91/212
f 745/94/214 748/98/218 749/89/216
f 745/94/214 744/37/217 748/98/218
f 750/90/219 746/92/215 749/89/216
f 750/90/219 749/89/216 752/88/220
f 748/98/218 751/99/221 749/89/216
f 749/89/216 751/99/221 753/64/222
f 749/89/216 753/64/222 752/88/220
f 752/88/220 753/64/222 756/62/223
f 753/64/222 751/99/221 755/101/226
f 753/64/222 754/59/225 757/60/224
f 753/64/222 755/101/226 754/59/225
f 753/64/222 757/60/224 756/62/223
f 756/62/223 757/60/224 758/63/267
f 757/60/224 761/61/269 758/63/267
f 757/60/224 754/59/225 759/56/271
f 757/60/224 759/56/271 760/55/270
f 757/60/224 760/55/270 761/61/269
f 762/65/250 761/61/269 722/123/248
f 758/63/267 761/61/269 762/65/250
f 760/55/270 722/123/248 761/61/269
f 719/68/5 763/66/268 762/65/250
f 719/68/5 762/65/250 718/72/247
f 762/65/250 722/123/248 718/122/247
f 758/63/267 762/65/250 763/66/268
f 764/67/264 758/63/267 763/66/268
f 764/67/264 763/66/268 765/69/263
f 716/70/251 765/69/263 763/66/268
f 716/70/251 763/66/268 719/68/5
f 766/79/254 765/69/263 716/70/251
f 766/79/254 764/67/264 765/69/263
f 767/78/373 766/79/254 715/77/252
f 768/82/261 766/79/254 767/78/373
f 768/82/261 769/86/262 766/79/254
f 766/79/254 769/86/262 764/67/264
f 766/79/254 716/70/251 715/77/252
f 771/85/265 770/87/266 769/86/262
f 770/87/266 764/67/264 769/86/262
f 771/85/265 769/86/262 768/82/261
f 771/85/265 750/90/219 752/88/220
f 772/84/210 750/90/219 771/85/265
f 772/84/210 771/85/265 768/82/261
f 771/85/265 752/88/220 770/87/266
f 741/104/206 772/84/210 773/81/209
f 741/104/206 747/91/212 772/84/210
f 772/84/210 747/91/212 750/90/219
f 772/84/210 768/82/261 773/81/209
f 775/112/208 773/81/209 774/83/255
f 773/81/209 767/78/373 774/83/255
f 773/81/209 768/82/261 767/78/373
f 741/104/206 773/81/209 775/112/208
f 775/112/208 774/83/255 776/113/256
f 709/111/257 775/112/208 776/113/256
f 709/111/257 777/110/205 775/112/208
f 777/110/205 741/104/206 775/112/208
f 706/109/204 777/110/205 709/111/257
f 706/109/204 740/108/203 777/110/205
f 777/110/205 740/108/203 741/104/206
f 774/80/255 711/76/5 776/114/256
f 709/115/257 776/114/256 711/76/5
f 774/80/255 715/77/252 711/76/5
f 767/78/373 715/77/252 774/80/255
f 770/87/266 756/62/223 764/67/264
f 752/88/220 756/62/223 770/87/266
f 756/62/223 758/63/267 764/67/264
f 760/55/270 759/56/271 778/54/242
f 760/55/270 723/53/244 722/123/248
f 760/55/270 778/54/242 723/53/244
f 779/57/374 780/58/229 778/54/242
f 779/57/374 778/54/242 759/56/271
f 778/54/242 780/58/229 727/52/241
f 723/53/244 778/54/242 725/51/243
f 778/54/242 727/52/241 725/51/243
f 755/101/226 782/102/230 780/103/229
f 755/101/226 780/103/229 779/57/374
f 781/42/232 727/125/241 780/103/229
f 781/42/232 780/103/229 782/102/230
f 783/100/227 782/102/230 755/101/226
f 784/38/231 782/102/230 783/100/227
f 784/38/231 781/42/232 782/102/230
f 734/35/233 732/39/234 784/38/231
f 734/35/233 784/38/231 744/37/217
f 784/38/231 730/40/235 781/42/232
f 784/38/231 732/39/234 730/40/235
f 744/37/217 784/38/231 783/100/227
f 748/98/218 783/100/227 751/99/221
f 783/100/227 755/101/226 751/99/221
f 744/37/217 783/100/227 748/98/218
f 781/42/232 730/40/235 728/43/240
f 781/42/232 728/43/240 727/125/241
f 754/59/225 755/101/226 779/57/374
f 754/59/225 779/57/374 759/56/271
f 747/91/212 746/92/215 750/90/219
f 741/104/206 742/96/211 747/91/212
f 736/31/273 734/35/233 744/37/217
f 706/109/204 704/28/200 740/108/203
f 738/107/202 740/108/203 704/28/200
f 703/27/201 738/107/202 704/28/200
