# Blender 4.4.1
# www.blender.org
mtllib moji.mtl
o Cube.031
v 0.500000 -7.339329 -78.755493
v 0.500000 -10.447092 -79.195892
v 0.500000 -10.153922 -58.893791
v -0.500000 -7.339329 -78.755493
v -0.500000 -10.447092 -79.195892
v -0.500000 -10.153922 -58.893791
v -0.500000 -13.261683 -59.334190
v 0.500000 -13.261683 -59.334190
v 0.500000 -8.855532 -33.944492
v 0.500000 -9.708193 -35.899807
v 0.500000 -21.351917 -28.495150
v -0.500000 -8.855532 -33.944492
v -0.500000 -9.708193 -35.899807
v -0.500000 -21.351917 -28.495150
v -0.500000 -22.204578 -30.450460
v 0.500000 -22.204578 -30.450460
v 0.500000 -19.942694 -2.298883
v 0.500000 -21.112637 0.972741
v 0.500000 -6.856197 2.380883
v -0.500000 -19.942694 -2.298883
v -0.500000 -21.112637 0.972741
v -0.500000 -6.856197 2.380883
v -0.500000 -8.026139 5.652508
v 0.500000 -8.026139 5.652508
v 0.500000 11.195332 -9.757166
v 0.500000 11.409222 -11.277544
v 0.500000 2.592808 -10.967386
v -0.500000 11.195332 -9.757166
v -0.500000 11.409222 -11.277544
v -0.500000 2.592808 -10.967386
v -0.500000 2.806698 -12.487764
v 0.500000 2.806698 -12.487764
v 0.500000 -27.602684 11.818754
v 0.500000 -27.867283 15.283201
v 0.500000 10.291964 14.712971
v -0.500000 -27.602684 11.818754
v -0.500000 -27.867283 15.283201
v -0.500000 10.291964 14.712971
v -0.500000 10.027367 18.177416
v 0.500000 10.027367 18.177416
v 0.500000 -7.987995 26.942123
v 0.500000 -9.114775 23.655384
v 0.500000 -21.134951 31.449245
v -0.500000 -7.987995 26.942123
v -0.500000 -9.114775 23.655384
v -0.500000 -21.134951 31.449245
v -0.500000 -22.261730 28.162508
v 0.500000 -22.261730 28.162508
v 0.500000 4.659161 1.854647
v 0.500000 1.194343 1.595189
v 0.500000 2.551720 29.997601
v -0.500000 4.659161 1.854647
v -0.500000 1.194343 1.595189
v -0.500000 2.551720 29.997601
v -0.500000 -0.913099 29.738144
v 0.500000 -0.913099 29.738144
v 0.742714 -8.003805 -51.561142
v 0.569848 -8.854028 -49.641563
v 0.445500 -3.608253 -49.641026
v -0.272634 -8.027864 -51.663235
v -0.445500 -8.878084 -49.743656
v -0.569848 -3.632311 -49.743118
v -0.742714 -4.482531 -47.823540
v 0.272634 -4.458475 -47.721447
v 0.535922 13.915405 -27.347357
v 0.535922 12.862581 -28.497154
v -0.535922 13.915405 -27.347357
v 0.535922 12.445736 -26.001637
v 0.535922 10.976067 -24.655918
v 0.535922 11.392912 -27.151434
v -0.535922 12.445736 -26.001637
v -0.535922 10.976067 -24.655918
v -0.535922 11.392912 -27.151434
v -0.535922 12.862581 -28.497154
v -0.535922 9.923241 -25.805712
v -0.535922 8.453571 -24.459995
v 0.535922 9.923241 -25.805712
v 0.535922 8.453571 -24.459995
v 0.535922 6.983902 -23.114277
v 0.535922 9.506397 -23.310200
v 0.535922 8.036724 -21.964479
v -0.535922 9.506397 -23.310200
v -0.535922 8.036724 -21.964479
v -0.535922 6.567055 -20.618761
v -0.535922 6.983902 -23.114277
v -0.535922 5.514233 -21.768559
v 0.535922 5.514233 -21.768559
v 0.535922 6.567055 -20.618761
v 0.500000 14.432724 -12.560928
v 0.500000 13.450470 -13.633656
v 0.500000 7.576920 -6.283336
v -0.500000 14.432724 -12.560928
v -0.500000 13.450470 -13.633656
v -0.500000 7.576920 -6.283336
v -0.500000 6.594664 -7.356063
v 0.500000 6.594664 -7.356063
v 0.500000 -9.410729 -38.715229
v 0.500000 -8.066356 -40.371407
v 0.500000 -19.995365 -47.307121
v -0.500000 -9.410729 -38.715229
v -0.500000 -8.066356 -40.371407
v -0.500000 -19.995365 -47.307121
v -0.500000 -18.650990 -48.963299
v 0.500000 -18.650990 -48.963299
v 0.500000 3.085766 -31.281771
v 0.500000 2.103510 -32.354500
v -0.500000 3.085766 -31.281771
v 0.500000 1.714603 -30.026253
v 0.500000 0.343442 -28.770733
v 0.500000 0.732349 -31.098982
v -0.500000 1.714603 -30.026253
v -0.500000 0.343442 -28.770733
v -0.500000 0.732349 -31.098982
v -0.500000 2.103510 -32.354500
v -0.500000 -0.638813 -29.843462
v -0.500000 -2.009974 -28.587944
v 0.500000 -0.638813 -29.843462
v 0.500000 -2.009974 -28.587944
v 0.500000 -3.381135 -27.332424
v 0.500000 -1.027719 -27.515213
v 0.500000 -2.398881 -26.259695
v -0.500000 -1.027719 -27.515213
v -0.500000 -2.398881 -26.259695
v -0.500000 -3.770041 -25.004175
v -0.500000 -3.381135 -27.332424
v -0.500000 -4.752296 -26.076906
v 0.500000 -4.752296 -26.076906
v 0.500000 -3.770041 -25.004175
v 0.500000 3.420597 -27.215668
v 0.500000 1.980279 -27.418293
v 0.500000 2.958866 -23.933586
v -0.500000 3.420597 -27.215668
v -0.500000 1.980279 -27.418293
v -0.500000 2.958866 -23.933586
v -0.500000 1.518550 -24.136211
v 0.500000 1.518550 -24.136211
v 0.500000 0.647247 -13.878551
v 0.500000 0.861137 -15.398930
v 0.500000 -7.955279 -15.088772
v -0.500000 0.647247 -13.878551
v -0.500000 0.861137 -15.398930
v -0.500000 -7.955279 -15.088772
v -0.500000 -7.741389 -16.609148
v 0.500000 -7.741389 -16.609148
v 0.500000 -9.780507 -21.933796
v 0.500000 -11.896876 -24.245098
v 0.500000 -24.552036 -8.408085
v -0.500000 -9.780507 -21.933796
v -0.500000 -11.896876 -24.245098
v -0.500000 -24.552036 -8.408085
v -0.500000 -26.668406 -10.719389
v 0.500000 -26.668406 -10.719389
v 0.500000 -9.059076 -13.172962
v 0.500000 -12.162388 -13.609541
v 0.500000 -10.053920 -6.101385
v -0.500000 -9.059076 -13.172962
v -0.500000 -12.162388 -13.609541
v -0.500000 -10.053920 -6.101385
v -0.500000 -13.157230 -6.537964
v 0.500000 -13.157230 -6.537964
v 0.500000 3.884640 -16.682312
v 0.500000 2.902384 -17.755041
v 0.500000 -2.971167 -10.404718
v -0.500000 3.884640 -16.682312
v -0.500000 2.902384 -17.755041
v -0.500000 -2.971167 -10.404718
v -0.500000 -3.953423 -11.477446
v 0.500000 -3.953423 -11.477446
v 1.388390 -9.149162 -47.162777
v 1.076599 -9.988204 -45.270355
v 0.049581 -4.999559 -45.543552
v 0.262211 -9.397193 -47.458294
v -0.049581 -10.236237 -45.565868
v -1.076599 -5.247591 -45.839066
v -1.388390 -6.086634 -43.946648
v -0.262211 -5.838602 -43.651127
v 0.500000 13.968681 -23.094282
v 0.500000 12.528364 -23.296909
v 0.500000 13.506954 -19.812201
v -0.500000 13.968681 -23.094282
v -0.500000 12.528364 -23.296909
v -0.500000 13.506954 -19.812201
v -0.500000 12.066635 -20.014826
v 0.500000 12.066635 -20.014826
vn 0.9859 -0.0286 -0.1649
vn 0.9859 0.0286 0.1649
vn 0.9281 -0.1631 0.3347
vn -0.9281 0.1631 -0.3347
vn -0.9859 -0.0286 -0.1649
vn 0.9281 0.1631 -0.3347
vn -0.9859 0.0286 0.1649
vn -0.9281 -0.1631 0.3347
vn -0.9966 0.0760 0.0323
vn 0.9128 0.1389 -0.3841
vn -0.9128 0.1389 -0.3841
vn 0.9966 0.0760 0.0323
vn 0.9966 -0.0760 -0.0323
vn 0.9128 -0.1389 0.3841
vn -0.9966 -0.0760 -0.0323
vn -0.9587 0.0280 -0.2831
vn 0.9587 -0.1579 0.2366
vn -0.9587 -0.1579 0.2366
vn 0.9587 0.0280 -0.2830
vn 0.9587 -0.0280 0.2830
vn 0.9587 0.1579 -0.2366
vn -0.9587 0.1579 -0.2366
vn -0.9587 -0.0280 0.2831
vn 0.9860 0.0288 0.1644
vn 0.9860 -0.0288 -0.1644
vn 0.9280 0.1630 -0.3350
vn -0.9860 0.0288 0.1644
vn -0.9280 0.1630 -0.3350
vn 0.9280 -0.1630 0.3350
vn -0.9860 -0.0288 -0.1644
vn 0.9897 -0.0392 -0.1375
vn 0.9897 0.0392 0.1375
vn 0.9230 -0.1606 0.3496
vn -0.9897 -0.0392 -0.1375
vn -0.9230 -0.1606 0.3497
vn 0.9230 0.1606 -0.3496
vn -0.9897 0.0392 0.1375
vn 0.9964 0.0718 0.0443
vn 0.9964 -0.0718 -0.0443
vn 0.9130 0.1425 -0.3822
vn -0.9964 0.0718 0.0443
vn -0.9130 0.1425 -0.3822
vn 0.9130 -0.1425 0.3822
vn -0.9964 -0.0718 -0.0443
vn 0.9898 -0.0394 -0.1369
vn 0.9898 0.0394 0.1369
vn 0.9229 -0.1605 0.3499
vn -0.9229 0.1605 -0.3499
vn -0.9898 -0.0394 -0.1369
vn 0.9229 0.1605 -0.3499
vn -0.9898 0.0394 0.1369
vn -0.9229 -0.1605 0.3499
vn 0.9698 -0.1216 0.2114
vn 0.9439 0.2310 -0.2361
vn 0.7663 -0.0977 0.6351
vn -0.7663 0.0977 -0.6351
vn -0.9439 -0.2310 0.2361
vn 0.9838 0.0356 -0.1758
vn -0.9698 0.1216 -0.2114
vn -0.9838 -0.0356 0.1758
vn -0.9952 0.0957 -0.0210
vn 0.9150 0.1209 -0.3849
vn -0.9150 0.1209 -0.3849
vn 0.9952 0.0957 -0.0210
vn 0.9968 -0.0543 -0.0593
vn 0.9968 0.0543 0.0593
vn -0.9968 0.0543 0.0593
vn -0.9968 -0.0543 -0.0593
vn 0.9150 -0.1209 0.3849
vn -0.9952 -0.0957 0.0210
vn 0.9952 -0.0957 0.0210
vn 0.9924 0.1090 -0.0571
vn 0.9924 -0.1090 0.0571
vn 0.9192 0.1072 -0.3788
vn -0.9192 -0.1072 0.3788
vn -0.9924 0.1090 -0.0571
vn 0.9192 -0.1072 0.3788
vn -0.9924 -0.1090 0.0571
vn -0.9192 0.1072 -0.3788
vn -0.9280 -0.1630 0.3350
vn -0.9280 0.1630 -0.3349
vn -0.9280 -0.1630 0.3349
vn 0.9585 -0.1081 0.2639
vn 0.6044 0.5280 -0.5966
vn 0.1043 -0.1535 0.9826
vn -0.1043 0.1535 -0.9826
vn -0.6044 -0.5280 0.5966
vn 0.9938 0.0323 -0.1066
vn -0.9585 0.1081 -0.2639
vn -0.9938 -0.0323 0.1066
vn -0.9128 -0.1389 0.3841
vn -0.9230 0.1606 -0.3497
vn -0.9130 -0.1425 0.3822
vn -0.9150 -0.1209 0.3849
vt 0.267662 0.875000
vt 0.321331 0.928669
vt 0.267662 0.928669
vt 0.321331 0.821331
vt 0.267662 0.821331
vt 0.375000 0.875000
vt 0.321331 0.875000
vt 0.321331 0.767662
vt 0.267662 0.767662
vt 0.267662 0.982338
vt 0.213993 0.928669
vt 0.213993 0.875000
vt 0.125000 0.321331
vt 0.071331 0.375000
vt 0.071331 0.321331
vt 0.125000 0.375000
vt 0.071331 0.428669
vt 0.178669 0.375000
vt 0.125000 0.428669
vt 0.071331 0.267662
vt 0.071331 0.482338
vt 0.017662 0.428669
vt 0.017662 0.375000
vt 0.321331 0.321331
vt 0.267662 0.375000
vt 0.267662 0.321331
vt 0.321331 0.375000
vt 0.267662 0.428669
vt 0.375000 0.375000
vt 0.321331 0.428669
vt 0.321331 0.267662
vt 0.267662 0.267662
vt 0.267662 0.482338
vt 0.213993 0.428669
vt 0.213993 0.375000
vt 0.713993 0.125000
vt 0.660324 0.178669
vt 0.660324 0.125000
vt 0.713993 0.071331
vt 0.660324 0.071331
vt 0.767662 0.125000
vt 0.713993 0.178669
vt 0.660324 0.017662
vt 0.660324 0.232338
vt 0.606655 0.178669
vt 0.606655 0.125000
vt 0.910324 0.125000
vt 0.856655 0.178669
vt 0.856655 0.125000
vt 0.910324 0.071331
vt 0.856655 0.071331
vt 0.963993 0.125000
vt 0.910324 0.178669
vt 0.856655 0.017662
vt 0.856655 0.232338
vt 0.802986 0.178669
vt 0.802986 0.125000
vt 0.910324 0.375000
vt 0.856655 0.428669
vt 0.856655 0.375000
vt 0.910324 0.321331
vt 0.856655 0.321331
vt 0.963993 0.375000
vt 0.910324 0.428669
vt 0.856655 0.267662
vt 0.856655 0.482338
vt 0.802986 0.428669
vt 0.802986 0.375000
vt 0.660324 0.375000
vt 0.713993 0.428669
vt 0.660324 0.428669
vt 0.713993 0.321331
vt 0.660324 0.321331
vt 0.767662 0.375000
vt 0.713993 0.375000
vt 0.713993 0.267662
vt 0.660324 0.267662
vt 0.660324 0.482338
vt 0.606655 0.428669
vt 0.606655 0.375000
vt 0.856655 0.625000
vt 0.910324 0.678669
vt 0.856655 0.678669
vt 0.910324 0.571331
vt 0.856655 0.571331
vt 0.963993 0.625000
vt 0.910324 0.625000
vt 0.910324 0.517662
vt 0.856655 0.517662
vt 0.910324 0.732338
vt 0.856655 0.732338
vt 0.802986 0.625000
vt 0.802986 0.678669
vt 0.517662 0.071331
vt 0.463993 0.125000
vt 0.463993 0.071331
vt 0.517662 0.125000
vt 0.463993 0.135734
vt 0.571331 0.125000
vt 0.517662 0.135734
vt 0.463993 0.146468
vt 0.571331 0.135734
vt 0.517662 0.146468
vt 0.463993 0.060597
vt 0.463993 0.049863
vt 0.517662 0.060597
vt 0.410324 0.135734
vt 0.410324 0.125000
vt 0.410324 0.146468
vt 0.410324 0.157201
vt 0.463993 0.039130
vt 0.517662 0.049863
vt 0.463993 0.157201
vt 0.517662 0.157201
vt 0.463993 0.167935
vt 0.410324 0.167935
vt 0.571331 0.146468
vt 0.571331 0.157201
vt 0.517662 0.167935
vt 0.463993 0.028396
vt 0.517662 0.039130
vt 0.571331 0.167935
vt 0.517662 0.178669
vt 0.463993 0.017662
vt 0.517662 0.028396
vt 0.410324 0.178669
vt 0.463993 0.232338
vt 0.463993 0.178669
vt 0.517662 0.375000
vt 0.463993 0.428669
vt 0.463993 0.375000
vt 0.517662 0.321331
vt 0.463993 0.321331
vt 0.571331 0.375000
vt 0.517662 0.428669
vt 0.463993 0.267662
vt 0.463993 0.482338
vt 0.410324 0.428669
vt 0.410324 0.375000
vt 0.463993 0.625000
vt 0.517662 0.678669
vt 0.463993 0.678669
vt 0.517662 0.571331
vt 0.463993 0.571331
vt 0.571331 0.625000
vt 0.517662 0.625000
vt 0.517662 0.517662
vt 0.463993 0.517662
vt 0.463993 0.732338
vt 0.410324 0.678669
vt 0.410324 0.625000
vt 0.713993 0.571331
vt 0.660324 0.625000
vt 0.660324 0.571331
vt 0.713993 0.625000
vt 0.660324 0.635734
vt 0.767662 0.625000
vt 0.713993 0.635734
vt 0.660324 0.646468
vt 0.767662 0.635734
vt 0.713993 0.646468
vt 0.660324 0.560597
vt 0.660324 0.549863
vt 0.713993 0.560597
vt 0.606655 0.635734
vt 0.606655 0.625000
vt 0.606655 0.646468
vt 0.606655 0.657201
vt 0.660324 0.539130
vt 0.713993 0.549863
vt 0.660324 0.657201
vt 0.713993 0.657201
vt 0.660324 0.667935
vt 0.606655 0.667935
vt 0.767662 0.646468
vt 0.767662 0.657201
vt 0.713993 0.667935
vt 0.660324 0.528396
vt 0.713993 0.539130
vt 0.767662 0.667935
vt 0.713993 0.678669
vt 0.660324 0.517662
vt 0.713993 0.528396
vt 0.606655 0.678669
vt 0.660324 0.732338
vt 0.660324 0.678669
vt 0.463993 0.875000
vt 0.517662 0.928669
vt 0.463993 0.928669
vt 0.517662 0.821331
vt 0.463993 0.821331
vt 0.571331 0.875000
vt 0.517662 0.875000
vt 0.517662 0.767662
vt 0.463993 0.767662
vt 0.463993 0.982338
vt 0.410324 0.928669
vt 0.410324 0.875000
vt 0.125000 0.625000
vt 0.071331 0.678669
vt 0.071331 0.625000
vt 0.125000 0.571331
vt 0.071331 0.571331
vt 0.178669 0.625000
vt 0.125000 0.678669
vt 0.071331 0.517662
vt 0.071331 0.732338
vt 0.017662 0.678669
vt 0.017662 0.625000
vt 0.125000 0.125000
vt 0.071331 0.178669
vt 0.071331 0.125000
vt 0.125000 0.071331
vt 0.071331 0.071331
vt 0.178669 0.125000
vt 0.125000 0.178669
vt 0.071331 0.017662
vt 0.071331 0.232338
vt 0.017662 0.178669
vt 0.017662 0.125000
vt 0.267662 0.125000
vt 0.321331 0.178669
vt 0.267662 0.178669
vt 0.321331 0.071331
vt 0.267662 0.071331
vt 0.375000 0.125000
vt 0.321331 0.125000
vt 0.321331 0.017662
vt 0.267662 0.017662
vt 0.267662 0.232338
vt 0.213993 0.178669
vt 0.213993 0.125000
vt 0.125000 0.875000
vt 0.071331 0.928669
vt 0.071331 0.875000
vt 0.125000 0.821331
vt 0.071331 0.821331
vt 0.178669 0.875000
vt 0.125000 0.928669
vt 0.071331 0.767662
vt 0.071331 0.982338
vt 0.017662 0.928669
vt 0.017662 0.875000
vt 0.660324 0.875000
vt 0.713993 0.928669
vt 0.660324 0.928669
vt 0.713993 0.821331
vt 0.660324 0.821331
vt 0.767662 0.875000
vt 0.713993 0.875000
vt 0.713993 0.767662
vt 0.660324 0.767662
vt 0.713993 0.982338
vt 0.660324 0.982338
vt 0.606655 0.875000
vt 0.606655 0.928669
vt 0.267662 0.625000
vt 0.321331 0.678669
vt 0.267662 0.678669
vt 0.321331 0.571331
vt 0.267662 0.571331
vt 0.375000 0.625000
vt 0.321331 0.625000
vt 0.321331 0.517662
vt 0.267662 0.517662
vt 0.267662 0.732338
vt 0.213993 0.678669
vt 0.213993 0.625000
vt 0.375000 0.928669
vt 0.321331 0.982338
vt 0.178669 0.428669
vt 0.125000 0.267662
vt 0.125000 0.482338
vt 0.375000 0.428669
vt 0.321331 0.482338
vt 0.767662 0.178669
vt 0.713993 0.017662
vt 0.713993 0.232338
vt 0.963993 0.178669
vt 0.910324 0.017662
vt 0.910324 0.232338
vt 0.963993 0.428669
vt 0.910324 0.267662
vt 0.910324 0.482338
vt 0.767662 0.428669
vt 0.713993 0.482338
vt 0.963993 0.678669
vt 0.571331 0.178669
vt 0.517662 0.017662
vt 0.517662 0.232338
vt 0.571331 0.428669
vt 0.517662 0.267662
vt 0.517662 0.482338
vt 0.571331 0.678669
vt 0.517662 0.732338
vt 0.767662 0.678669
vt 0.713993 0.517662
vt 0.713993 0.732338
vt 0.571331 0.928669
vt 0.517662 0.982338
vt 0.178669 0.678669
vt 0.125000 0.517662
vt 0.125000 0.732338
vt 0.178669 0.178669
vt 0.125000 0.017662
vt 0.125000 0.232338
vt 0.375000 0.178669
vt 0.321331 0.232338
vt 0.178669 0.928669
vt 0.125000 0.767662
vt 0.125000 0.982338
vt 0.767662 0.928669
vt 0.375000 0.678669
vt 0.321331 0.732338
s 1
usemtl マテリアル.002
f 2/1/1 3/2/2 8/3/3
f 4/4/4 2/1/1 5/5/5
f 4/6/4 3/2/2 1/7/6
f 6/8/7 5/5/5 7/9/8
f 3/2/2 7/10/8 8/3/3
f 2/1/1 7/11/8 5/12/5
f 12/13/9 10/14/10 13/15/11
f 9/16/12 16/17/13 10/14/10
f 12/18/9 11/19/14 9/16/12
f 15/20/15 12/13/9 13/15/11
f 11/19/14 15/21/15 16/17/13
f 10/14/10 15/22/15 13/23/11
f 20/24/16 18/25/17 21/26/18
f 17/27/19 24/28/20 18/25/17
f 20/29/16 19/30/21 17/27/19
f 22/31/22 21/26/18 23/32/23
f 19/30/21 23/33/23 24/28/20
f 18/25/17 23/34/23 21/35/18
f 25/36/24 32/37/25 26/38/26
f 28/39/27 26/38/26 29/40/28
f 28/41/27 27/42/29 25/36/24
f 31/43/30 28/39/27 29/40/28
f 27/42/29 31/44/30 32/37/25
f 26/38/26 31/45/30 29/46/28
f 33/47/31 40/48/32 34/49/33
f 36/50/34 34/49/33 37/51/35
f 36/52/34 35/53/36 33/47/31
f 39/54/37 36/50/34 37/51/35
f 35/53/36 39/55/37 40/48/32
f 34/49/33 39/56/37 37/57/35
f 41/58/38 48/59/39 42/60/40
f 44/61/41 42/60/40 45/62/42
f 44/63/41 43/64/43 41/58/38
f 47/65/44 44/61/41 45/62/42
f 43/64/43 47/66/44 48/59/39
f 42/60/40 47/67/44 45/68/42
f 50/69/45 51/70/46 56/71/47
f 52/72/48 50/69/45 53/73/49
f 52/74/48 51/70/46 49/75/50
f 54/76/51 53/73/49 55/77/52
f 51/70/46 55/78/52 56/71/47
f 50/69/45 55/79/52 53/80/49
f 58/81/53 59/82/54 64/83/55
f 60/84/56 58/81/53 61/85/57
f 60/86/56 59/82/54 57/87/58
f 62/88/59 61/85/57 63/89/60
f 64/83/55 62/90/59 63/91/60
f 61/92/57 64/83/55 63/93/60
f 67/94/61 66/95/62 74/96/63
f 65/97/64 70/98/65 66/95/62
f 67/99/61 68/100/66 65/97/64
f 68/100/66 77/101/65 70/98/65
f 71/102/67 69/103/66 68/100/66
f 73/104/68 67/94/61 74/96/63
f 75/105/68 71/106/67 73/104/68
f 66/95/62 73/107/68 74/108/63
f 70/98/65 75/109/68 73/107/68
f 77/101/65 76/110/68 75/109/68
f 76/111/68 72/112/67 75/105/68
f 69/103/66 78/113/65 77/101/65
f 80/114/66 79/115/65 78/113/65
f 78/113/65 85/116/68 76/110/68
f 72/117/67 80/114/66 69/103/66
f 82/118/67 81/119/66 80/114/66
f 85/120/68 82/121/67 76/111/68
f 83/122/67 88/123/69 81/119/66
f 86/124/70 83/125/67 85/120/68
f 79/115/65 86/126/70 85/116/68
f 88/123/69 86/127/70 87/128/71
f 81/119/66 87/128/71 79/115/65
f 89/129/64 96/130/71 90/131/62
f 92/132/61 90/131/62 93/133/63
f 92/134/61 91/135/69 89/129/64
f 95/136/70 92/132/61 93/133/63
f 91/135/69 95/137/70 96/130/71
f 90/131/62 95/138/70 93/139/63
f 98/140/72 99/141/73 104/142/74
f 100/143/75 98/140/72 101/144/76
f 100/145/75 99/141/73 97/146/77
f 102/147/78 101/144/76 103/148/79
f 99/141/73 103/149/79 104/142/74
f 98/140/72 103/150/79 101/151/76
f 107/152/61 106/153/62 114/154/63
f 105/155/64 110/156/65 106/153/62
f 107/157/61 108/158/66 105/155/64
f 108/158/66 117/159/65 110/156/65
f 111/160/67 109/161/66 108/158/66
f 113/162/68 107/152/61 114/154/63
f 115/163/68 111/164/67 113/162/68
f 106/153/62 113/165/68 114/166/63
f 110/156/65 115/167/68 113/165/68
f 117/159/65 116/168/68 115/167/68
f 116/169/68 112/170/67 115/163/68
f 109/161/66 118/171/65 117/159/65
f 120/172/66 119/173/65 118/171/65
f 118/171/65 125/174/68 116/168/68
f 112/175/67 120/172/66 109/161/66
f 122/176/67 121/177/66 120/172/66
f 125/178/68 122/179/67 116/169/68
f 123/180/67 128/181/69 121/177/66
f 126/182/70 123/183/67 125/178/68
f 119/173/65 126/184/70 125/174/68
f 128/181/69 126/185/70 127/186/71
f 121/177/66 127/186/71 119/173/65
f 130/187/25 131/188/24 136/189/29
f 132/190/28 130/187/25 133/191/30
f 132/192/28 131/188/24 129/193/26
f 134/194/27 133/191/30 135/195/80
f 131/188/24 135/196/80 136/189/29
f 130/187/25 135/197/80 133/198/30
f 137/199/24 144/200/25 138/201/26
f 140/202/27 138/201/26 141/203/28
f 140/204/27 139/205/29 137/199/24
f 143/206/30 140/202/27 141/203/28
f 139/205/29 143/207/30 144/200/25
f 138/201/26 143/208/30 141/209/28
f 145/210/64 152/211/71 146/212/62
f 148/213/61 146/212/62 149/214/63
f 148/215/61 147/216/69 145/210/64
f 151/217/70 148/213/61 149/214/63
f 147/216/69 151/218/70 152/211/71
f 146/212/62 151/219/70 149/220/63
f 154/221/25 155/222/24 160/223/29
f 156/224/81 154/221/25 157/225/30
f 156/226/81 155/222/24 153/227/26
f 158/228/27 157/225/30 159/229/82
f 155/222/24 159/230/82 160/223/29
f 154/221/25 159/231/82 157/232/30
f 161/233/64 168/234/71 162/235/62
f 164/236/61 162/235/62 165/237/63
f 164/238/61 163/239/69 161/233/64
f 167/240/70 164/236/61 165/237/63
f 163/239/69 167/241/70 168/234/71
f 162/235/62 167/242/70 165/243/63
f 170/244/83 171/245/84 176/246/85
f 172/247/86 170/244/83 173/248/87
f 172/249/86 171/245/84 169/250/88
f 174/251/89 173/248/87 175/252/90
f 176/246/85 174/253/89 175/254/90
f 173/255/87 176/246/85 175/256/90
f 178/257/25 179/258/24 184/259/29
f 180/260/28 178/257/25 181/261/30
f 180/262/28 179/258/24 177/263/26
f 182/264/27 181/261/30 183/265/80
f 179/258/24 183/266/80 184/259/29
f 178/257/25 183/267/80 181/268/30
f 2/1/1 1/7/6 3/2/2
f 4/4/4 1/7/6 2/1/1
f 4/6/4 6/269/7 3/2/2
f 6/8/7 4/4/4 5/5/5
f 3/2/2 6/270/7 7/10/8
f 2/1/1 8/3/3 7/11/8
f 12/13/9 9/16/12 10/14/10
f 9/16/12 11/19/14 16/17/13
f 12/18/9 14/271/91 11/19/14
f 15/20/15 14/272/91 12/13/9
f 11/19/14 14/273/91 15/21/15
f 10/14/10 16/17/13 15/22/15
f 20/24/16 17/27/19 18/25/17
f 17/27/19 19/30/21 24/28/20
f 20/29/16 22/274/22 19/30/21
f 22/31/22 20/24/16 21/26/18
f 19/30/21 22/275/22 23/33/23
f 18/25/17 24/28/20 23/34/23
f 25/36/24 27/42/29 32/37/25
f 28/39/27 25/36/24 26/38/26
f 28/41/27 30/276/80 27/42/29
f 31/43/30 30/277/80 28/39/27
f 27/42/29 30/278/80 31/44/30
f 26/38/26 32/37/25 31/45/30
f 33/47/31 35/53/36 40/48/32
f 36/50/34 33/47/31 34/49/33
f 36/52/34 38/279/92 35/53/36
f 39/54/37 38/280/92 36/50/34
f 35/53/36 38/281/92 39/55/37
f 34/49/33 40/48/32 39/56/37
f 41/58/38 43/64/43 48/59/39
f 44/61/41 41/58/38 42/60/40
f 44/63/41 46/282/93 43/64/43
f 47/65/44 46/283/93 44/61/41
f 43/64/43 46/284/93 47/66/44
f 42/60/40 48/59/39 47/67/44
f 50/69/45 49/75/50 51/70/46
f 52/72/48 49/75/50 50/69/45
f 52/74/48 54/285/51 51/70/46
f 54/76/51 52/72/48 53/73/49
f 51/70/46 54/286/51 55/78/52
f 50/69/45 56/71/47 55/79/52
f 58/81/53 57/87/58 59/82/54
f 60/84/56 57/87/58 58/81/53
f 60/86/56 62/287/59 59/82/54
f 62/88/59 60/84/56 61/85/57
f 64/83/55 59/82/54 62/90/59
f 61/92/57 58/81/53 64/83/55
f 67/94/61 65/97/64 66/95/62
f 65/97/64 68/100/66 70/98/65
f 67/99/61 71/102/67 68/100/66
f 68/100/66 69/103/66 77/101/65
f 71/102/67 72/117/67 69/103/66
f 73/104/68 71/106/67 67/94/61
f 75/105/68 72/112/67 71/106/67
f 66/95/62 70/98/65 73/107/68
f 70/98/65 77/101/65 75/109/68
f 77/101/65 78/113/65 76/110/68
f 76/111/68 82/121/67 72/112/67
f 69/103/66 80/114/66 78/113/65
f 80/114/66 81/119/66 79/115/65
f 78/113/65 79/115/65 85/116/68
f 72/117/67 82/118/67 80/114/66
f 82/118/67 83/122/67 81/119/66
f 85/120/68 83/125/67 82/121/67
f 83/122/67 84/288/94 88/123/69
f 86/124/70 84/289/94 83/125/67
f 79/115/65 87/128/71 86/126/70
f 88/123/69 84/290/94 86/127/70
f 81/119/66 88/123/69 87/128/71
f 89/129/64 91/135/69 96/130/71
f 92/132/61 89/129/64 90/131/62
f 92/134/61 94/291/94 91/135/69
f 95/136/70 94/292/94 92/132/61
f 91/135/69 94/293/94 95/137/70
f 90/131/62 96/130/71 95/138/70
f 98/140/72 97/146/77 99/141/73
f 100/143/75 97/146/77 98/140/72
f 100/145/75 102/294/78 99/141/73
f 102/147/78 100/143/75 101/144/76
f 99/141/73 102/295/78 103/149/79
f 98/140/72 104/142/74 103/150/79
f 107/152/61 105/155/64 106/153/62
f 105/155/64 108/158/66 110/156/65
f 107/157/61 111/160/67 108/158/66
f 108/158/66 109/161/66 117/159/65
f 111/160/67 112/175/67 109/161/66
f 113/162/68 111/164/67 107/152/61
f 115/163/68 112/170/67 111/164/67
f 106/153/62 110/156/65 113/165/68
f 110/156/65 117/159/65 115/167/68
f 117/159/65 118/171/65 116/168/68
f 116/169/68 122/179/67 112/170/67
f 109/161/66 120/172/66 118/171/65
f 120/172/66 121/177/66 119/173/65
f 118/171/65 119/173/65 125/174/68
f 112/175/67 122/176/67 120/172/66
f 122/176/67 123/180/67 121/177/66
f 125/178/68 123/183/67 122/179/67
f 123/180/67 124/296/94 128/181/69
f 126/182/70 124/297/94 123/183/67
f 119/173/65 127/186/71 126/184/70
f 128/181/69 124/298/94 126/185/70
f 121/177/66 128/181/69 127/186/71
f 130/187/25 129/193/26 131/188/24
f 132/190/28 129/193/26 130/187/25
f 132/192/28 134/299/27 131/188/24
f 134/194/27 132/190/28 133/191/30
f 131/188/24 134/300/27 135/196/80
f 130/187/25 136/189/29 135/197/80
f 137/199/24 139/205/29 144/200/25
f 140/202/27 137/199/24 138/201/26
f 140/204/27 142/301/80 139/205/29
f 143/206/30 142/302/80 140/202/27
f 139/205/29 142/303/80 143/207/30
f 138/201/26 144/200/25 143/208/30
f 145/210/64 147/216/69 152/211/71
f 148/213/61 145/210/64 146/212/62
f 148/215/61 150/304/94 147/216/69
f 151/217/70 150/305/94 148/213/61
f 147/216/69 150/306/94 151/218/70
f 146/212/62 152/211/71 151/219/70
f 154/221/25 153/227/26 155/222/24
f 156/224/81 153/227/26 154/221/25
f 156/226/81 158/307/27 155/222/24
f 158/228/27 156/224/81 157/225/30
f 155/222/24 158/308/27 159/230/82
f 154/221/25 160/223/29 159/231/82
f 161/233/64 163/239/69 168/234/71
f 164/236/61 161/233/64 162/235/62
f 164/238/61 166/309/94 163/239/69
f 167/240/70 166/310/94 164/236/61
f 163/239/69 166/311/94 167/241/70
f 162/235/62 168/234/71 167/242/70
f 170/244/83 169/250/88 171/245/84
f 172/247/86 169/250/88 170/244/83
f 172/249/86 174/312/89 171/245/84
f 174/251/89 172/247/86 173/248/87
f 176/246/85 171/245/84 174/253/89
f 173/255/87 170/244/83 176/246/85
f 178/257/25 177/263/26 179/258/24
f 180/260/28 177/263/26 178/257/25
f 180/262/28 182/313/27 179/258/24
f 182/264/27 180/260/28 181/261/30
f 179/258/24 182/314/27 183/266/80
f 178/257/25 184/259/29 183/267/80
