# Blender 4.4.1
# www.blender.org
mtllib bird.mtl
o bird
v -1.308376 2.376963 16.275978
v 4.366778 3.959507 3.077203
v 3.438879 3.950644 13.265912
v 1.847886 4.689308 1.231973
v 1.400651 2.303612 16.915379
v -1.352359 3.707333 12.728749
v -0.385393 4.976065 6.041070
v -2.456342 2.353134 15.586678
v 8.392531 2.009849 0.942307
v 8.342930 1.713388 0.963874
v -8.738747 5.619051 0.038682
v -4.598136 3.589033 0.886754
v 2.294647 0.800543 1.309333
v -2.755499 2.241367 0.578008
v -1.863347 4.680901 0.941284
v 1.830404 4.335501 4.413414
v 2.736066 1.344875 2.001819
v 4.746204 5.154025 9.385254
v 7.858593 3.183861 0.849938
v 1.916023 0.559301 0.663175
v -5.746377 4.930971 0.038682
v 10.095700 1.175284 0.509359
v 5.004835 5.361255 9.385254
v -6.490891 1.585310 2.546880
v -0.165232 3.643869 2.964345
v -8.437354 5.275592 3.182378
v -0.454680 4.671223 9.385254
v -0.123910 1.160740 0.781210
v 1.854603 0.520422 0.038682
v 3.301380 3.834982 3.453324
v 5.116478 3.219383 2.122193
v -0.607524 4.834509 4.151810
v 4.722241 4.204144 2.724727
v -9.061641 5.778031 1.013814
v 3.701231 5.527372 6.041070
v -5.168926 3.588073 0.038682
v -3.133537 4.397976 2.037422
v 6.601937 1.032064 1.054967
v 2.978333 4.272148 13.231110
v -4.235507 4.700140 1.157827
v 2.072471 4.676085 6.041071
v 9.193667 2.198606 0.038682
v 1.549321 3.268927 2.916606
v -0.513453 3.585379 12.732013
v -3.615504 3.583998 1.963018
v 4.626890 2.105469 2.169473
v 1.958160 4.331211 11.173214
v -2.348104 1.883104 1.851213
v 3.730446 5.032216 11.228926
v 3.548215 4.414308 1.351877
v 2.028260 4.775227 11.190879
v 9.032530 1.192542 0.038682
v -2.529113 2.223083 1.614886
v 0.996037 5.211699 7.698106
v -3.676461 1.573725 1.743023
v 5.309447 3.946709 0.038682
v -8.602590 5.471474 2.563933
v 4.420417 4.728615 11.235192
v -6.797541 1.363831 1.305051
v 5.678819 3.759721 1.328804
v -2.440228 2.545170 2.095180
v 4.087563 4.289619 13.355047
v 0.287068 4.466360 4.368523
v 10.746113 0.542705 0.038682
v 4.322142 5.385652 6.041071
v -4.923927 2.010834 1.313491
v 4.225993 5.083680 6.041071
v -3.874206 1.913193 1.996425
v 0.512949 1.218317 1.418855
v 6.784275 2.714189 1.360974
v -0.887992 4.736473 6.041071
v -5.917171 4.889400 1.954499
v 0.107388 3.976978 12.898787
v -5.593081 4.142776 1.984489
v 0.462265 4.552294 11.169109
v -3.781353 1.872070 1.478316
v -4.989316 4.287780 2.201927
v 10.324620 1.452939 0.038682
v 4.223514 4.843544 4.228104
v -0.224696 4.772837 1.308915
v 7.708036 2.594025 1.118869
v -3.314529 4.006205 2.206724
v -7.042850 5.195786 1.261476
v 5.778581 2.216619 1.766370
v -6.397727 4.676888 0.716239
v 7.824875 1.144992 0.038682
v 0.371978 4.524054 9.385253
v 0.051146 4.180256 3.671466
v -0.425649 1.011683 0.038682
v 9.171501 1.251071 0.433041
v -1.080232 4.658091 4.178394
v 1.435424 3.772383 12.921592
v -2.505390 1.964811 0.038682
v 6.545874 0.539082 0.574350
v -0.630877 1.952929 2.208699
v -1.293498 1.692274 1.134909
v 3.596463 4.512702 0.038682
v -2.608520 2.146542 2.141803
v 2.398684 5.447340 6.041068
v -2.004949 4.448315 2.488599
v 4.978496 0.531294 1.171942
v 2.384284 3.068722 15.636298
v -0.882294 4.470448 9.385253
v 4.098124 4.536638 4.294539
v 4.836913 0.222975 0.622071
v -1.540299 2.304461 1.686220
v -1.681293 3.588871 12.695528
v 2.098434 5.121672 4.111476
v 1.696326 3.925951 3.696961
v 6.713542 1.841725 1.304046
v 1.016826 1.638525 2.092769
v 3.334177 3.077452 2.638464
v -9.008321 5.728493 1.681965
v -5.775026 4.900702 1.349118
v 3.788363 4.982246 7.698107
v -9.096996 5.678419 2.327211
v 4.168169 5.543871 9.385253
v -1.477716 2.833632 2.311831
v 7.195082 3.771664 0.038682
v 3.521904 4.837512 6.041071
v 7.888082 3.445627 0.038682
v 3.235113 4.334888 4.364632
v -4.426544 4.537640 1.991225
v -0.240243 2.739359 2.540438
v -5.635015 4.659510 2.384150
v -1.768376 4.256474 2.843675
v -5.081769 1.939011 2.437239
v 2.216224 4.693052 9.385253
v -4.957070 2.110400 2.217813
v 4.939754 5.027689 11.251235
v 5.503133 1.388258 1.606613
v 3.462892 5.100382 4.125753
v 0.506360 4.677664 6.041071
v -0.793876 4.661299 7.698106
v -3.716509 3.330320 1.553184
v -7.980133 5.220153 3.257045
v 1.444440 4.118244 13.019732
v 6.506345 0.440193 0.038682
v -6.684771 4.733603 1.606869
v 8.915840 2.112577 0.686661
v 1.846529 4.688490 0.038682
v -0.023275 4.780182 0.038682
v -1.822997 4.684652 0.038682
v -4.181486 4.697474 0.038682
v -7.580709 5.167013 0.038682
v -6.454209 4.701499 0.038682
v 4.831479 0.194681 0.038682
v 3.099439 2.202585 2.414150
v 3.568778 0.303595 0.038682
v 3.574027 0.306343 0.612338
v 3.805511 0.553486 1.225022
v 4.234169 1.224411 1.869150
v 7.703117 1.966847 1.126336
v 7.663334 1.480622 0.998670
v 7.780075 1.200341 0.512420
v 8.382198 1.279479 0.484891
v 8.324750 1.181615 0.038682
v 7.099176 3.394413 0.986602
v 0.600353 5.025316 4.139276
v 0.891466 5.231203 6.041069
v -0.405616 4.875946 7.698106
v 4.573671 5.173380 7.698107
v 4.663640 5.413857 7.698106
v 4.073093 5.626637 7.698106
v 2.587847 5.506056 7.698106
v 4.103716 4.968763 9.385253
v 2.508328 5.313953 9.385253
v 0.855698 5.009405 9.385253
v 2.204516 4.772383 7.698107
v 0.521441 4.683521 7.698107
v -0.047628 4.136438 11.139089
v -1.268314 4.111515 11.132521
v -0.817585 4.280977 11.138502
v 2.257257 2.953962 15.550795
v -2.199312 2.795097 14.552064
v -2.052177 2.857889 14.612635
v -0.508342 3.134321 14.888686
v 1.885757 3.118608 15.527414
v -2.302610 2.448257 15.579033
v -1.276436 2.439985 16.265944
v 1.304636 2.375719 16.805738
v -1.038411 2.843912 14.666453
v 0.800426 3.149988 15.198388
v 0.544004 2.399895 16.639065
v 0.532175 2.330133 16.703087
v 0.771879 2.948952 15.012889
v 3.471954 4.695024 2.620643
v 1.940083 4.869480 2.540974
v 0.238660 4.864910 2.639281
v -1.164427 4.607626 3.171199
v -1.311956 4.510313 3.356680
v 1.373544 2.448170 2.559044
v -4.050799 3.054468 0.038682
v -3.937876 3.134947 0.793572
v -2.950289 4.690603 0.038682
v -3.021084 4.683308 1.053010
v -1.752578 1.615026 0.038682
v -1.479181 1.632504 0.679506
v -3.807184 1.799759 1.912175
v -1.028314 1.514572 1.608149
v -3.098742 1.709711 1.792029
v -3.079701 2.269976 2.044656
v -3.161362 2.054552 1.556010
v -3.062390 2.030289 2.064271
v 6.084099 3.876014 0.038682
v 6.245924 3.604820 1.170092
v 6.049551 2.985144 1.664560
v -1.308376 2.376963 -16.198614
v 4.366778 3.959507 -2.999838
v 3.438879 3.950644 -13.188547
v 1.847886 4.689308 -1.154608
v 1.400651 2.303612 -16.838015
v -1.352359 3.707333 -12.651384
v -0.385393 4.976065 -5.963706
v -2.456342 2.353134 -15.509313
v 8.392531 2.009849 -0.864943
v 8.342930 1.713388 -0.886509
v -4.598136 3.589033 -0.809389
v 2.294647 0.800543 -1.231969
v -2.755499 2.241367 -0.500643
v -1.863347 4.680901 -0.863919
v 1.830404 4.335501 -4.336049
v 2.736066 1.344875 -1.924455
v 4.746204 5.154025 -9.307889
v 7.858593 3.183861 -0.772573
v 1.916023 0.559301 -0.585810
v 10.095700 1.175284 -0.431995
v 5.004835 5.361255 -9.307889
v -6.490891 1.585310 -2.469515
v -0.165232 3.643869 -2.886981
v -8.437354 5.275592 -3.105013
v -0.454680 4.671223 -9.307889
v -0.123910 1.160740 -0.703845
v 3.301380 3.834982 -3.375959
v 5.116478 3.219383 -2.044828
v -0.607524 4.834509 -4.074445
v 4.722241 4.204144 -2.647362
v -9.061641 5.778031 -0.936449
v 3.701231 5.527372 -5.963705
v -3.133537 4.397976 -1.960057
v 6.601937 1.032064 -0.977603
v 2.978333 4.272148 -13.153745
v -4.235507 4.700140 -1.080462
v 2.072471 4.676085 -5.963706
v 1.549321 3.268927 -2.839241
v -0.513453 3.585379 -12.654648
v -3.615504 3.583998 -1.885653
v 4.626890 2.105469 -2.092108
v 1.958160 4.331211 -11.095849
v -2.348104 1.883104 -1.773848
v 3.730446 5.032216 -11.151561
v 3.548215 4.414308 -1.274512
v 2.028260 4.775227 -11.113514
v -2.529113 2.223083 -1.537521
v 0.996037 5.211699 -7.620741
v -3.676461 1.573725 -1.665658
v -8.602590 5.471474 -2.486568
v 4.420417 4.728615 -11.157827
v -6.797541 1.363831 -1.227686
v 5.678819 3.759721 -1.251439
v -2.440228 2.545170 -2.017815
v 4.087563 4.289619 -13.277682
v 0.287068 4.466360 -4.291158
v 4.322142 5.385652 -5.963706
v -4.923927 2.010834 -1.236126
v 4.225993 5.083680 -5.963706
v -3.874206 1.913193 -1.919061
v 0.512949 1.218317 -1.341490
v 6.784275 2.714189 -1.283609
v -0.887992 4.736473 -5.963706
v -5.917171 4.889400 -1.877134
v 0.107388 3.976978 -12.821423
v -5.593081 4.142776 -1.907124
v 0.462265 4.552294 -11.091744
v -3.781353 1.872070 -1.400951
v -4.989316 4.287780 -2.124562
v 4.223514 4.843544 -4.150739
v -0.224696 4.772837 -1.231550
v 7.708036 2.594025 -1.041504
v -3.314529 4.006205 -2.129359
v -7.042850 5.195786 -1.184111
v 5.778581 2.216619 -1.689006
v -6.397727 4.676888 -0.638875
v 0.371978 4.524054 -9.307888
v 0.051146 4.180256 -3.594101
v 9.171501 1.251071 -0.355676
v -1.080232 4.658091 -4.101029
v 1.435424 3.772383 -12.844227
v 6.545874 0.539082 -0.496985
v -0.630877 1.952929 -2.131335
v -1.293498 1.692274 -1.057544
v -2.608520 2.146542 -2.064438
v 2.398684 5.447340 -5.963703
v -2.004949 4.448315 -2.411234
v 4.978496 0.531294 -1.094577
v 2.384284 3.068722 -15.558933
v -0.882294 4.470448 -9.307888
v 4.098124 4.536638 -4.217174
v 4.836913 0.222975 -0.544706
v -1.540299 2.304461 -1.608855
v -1.681293 3.588871 -12.618163
v 2.098434 5.121672 -4.034111
v 1.696326 3.925951 -3.619596
v 6.713542 1.841725 -1.226682
v 1.016826 1.638525 -2.015404
v 3.334177 3.077452 -2.561100
v -9.008321 5.728493 -1.604600
v -5.775026 4.900702 -1.271754
v 3.788363 4.982246 -7.620742
v -9.096996 5.678419 -2.249846
v 4.168169 5.543871 -9.307888
v -1.477716 2.833632 -2.234467
v 3.521904 4.837512 -5.963706
v 3.235113 4.334888 -4.287267
v -4.426544 4.537640 -1.913860
v -0.240243 2.739359 -2.463073
v -5.635015 4.659510 -2.306785
v -1.768376 4.256474 -2.766310
v -5.081769 1.939011 -2.359874
v 2.216224 4.693052 -9.307888
v -4.957070 2.110400 -2.140449
v 4.939754 5.027689 -11.173870
v 5.503133 1.388258 -1.529248
v 3.462892 5.100382 -4.048388
v 0.506360 4.677664 -5.963706
v -0.793876 4.661299 -7.620741
v -3.716509 3.330320 -1.475819
v -7.980133 5.220153 -3.179680
v 1.444440 4.118244 -12.942367
v -6.684771 4.733603 -1.529505
v 8.915840 2.112577 -0.609297
v 3.099439 2.202585 -2.336785
v 3.574027 0.306343 -0.534973
v 3.805511 0.553486 -1.147658
v 4.234169 1.224411 -1.791785
v 7.703117 1.966847 -1.048971
v 7.663334 1.480622 -0.921305
v 7.780075 1.200341 -0.435056
v 8.382198 1.279479 -0.407526
v 7.099176 3.394413 -0.909237
v 0.600353 5.025316 -4.061911
v 0.891466 5.231203 -5.963704
v -0.405616 4.875946 -7.620741
v 4.573671 5.173380 -7.620742
v 4.663640 5.413857 -7.620741
v 4.073093 5.626637 -7.620741
v 2.587847 5.506056 -7.620741
v 4.103716 4.968763 -9.307888
v 2.508328 5.313953 -9.307888
v 0.855698 5.009405 -9.307888
v 2.204516 4.772383 -7.620742
v 0.521441 4.683521 -7.620742
v -0.047628 4.136438 -11.061724
v -1.268314 4.111515 -11.055156
v -0.817585 4.280977 -11.061137
v 2.257257 2.953962 -15.473430
v -2.199312 2.795097 -14.474699
v -2.052177 2.857889 -14.535270
v -0.508342 3.134321 -14.811321
v 1.885757 3.118608 -15.450049
v -2.302610 2.448257 -15.501668
v -1.276436 2.439985 -16.188580
v 1.304636 2.375719 -16.728374
v -1.038411 2.843912 -14.589088
v 0.800426 3.149988 -15.121023
v 0.544004 2.399895 -16.561701
v 0.532175 2.330133 -16.625723
v 0.771879 2.948952 -14.935524
v 3.471954 4.695024 -2.543278
v 1.940083 4.869480 -2.463609
v 0.238660 4.864910 -2.561916
v -1.164427 4.607626 -3.093834
v -1.311956 4.510313 -3.279315
v 1.373544 2.448170 -2.481679
v -3.937876 3.134947 -0.716207
v -3.021084 4.683308 -0.975645
v -1.479181 1.632504 -0.602141
v -3.807184 1.799759 -1.834810
v -1.028314 1.514572 -1.530784
v -3.098742 1.709711 -1.714664
v -3.079701 2.269976 -1.967291
v -3.161362 2.054552 -1.478646
v -3.062390 2.030289 -1.986906
v 6.245924 3.604820 -1.092727
v 6.049551 2.985144 -1.587195
v 7.993485 2.350411 -0.967874
v 8.324195 2.712077 -0.700668
v 8.497684 2.863370 0.038682
v 8.322554 2.713740 0.778286
v 8.071655 2.283698 1.025075
vn -0.1703 0.5222 0.8357
vn -0.4838 0.8427 0.2360
vn 0.1892 -0.2944 0.9367
vn 0.2587 0.0270 0.9656
vn -0.2399 0.9653 0.1030
vn 0.2142 -0.0430 0.9758
vn 0.3705 0.3001 0.8790
vn 0.2573 0.0095 0.9663
vn -0.2170 -0.8988 0.3809
vn 0.3024 0.9508 0.0669
vn 0.0445 0.9990 -0.0000
vn 0.0445 0.9990 0.0063
vn 0.2162 -0.7678 0.6031
vn -0.0717 0.9968 -0.0354
vn 0.2233 0.9711 -0.0844
vn -0.3634 -0.9311 0.0315
vn 0.0098 1.0000 -0.0000
vn 0.0098 0.9999 0.0027
vn 0.0043 1.0000 0.0058
vn 0.0123 0.9999 -0.0000
vn -0.0760 -0.9967 0.0274
vn 0.0508 0.4647 0.8840
vn -0.3429 -0.9041 0.2550
vn 0.0293 -0.9944 -0.1012
vn -0.4364 -0.7826 0.4439
vn -0.4066 -0.8934 0.1910
vn -0.0116 -0.4622 0.8867
vn 0.4700 -0.8722 0.1357
vn -0.0616 0.7950 -0.6035
vn -0.2152 0.9757 0.0407
vn -0.3238 0.9391 -0.1153
vn 0.2552 0.9665 0.0279
vn -0.3821 -0.9241 -0.0000
vn -0.3821 -0.9241 -0.0014
vn 0.1476 -0.9494 -0.2771
vn 0.1495 -0.6263 -0.7651
vn 0.0431 -0.9853 0.1651
vn 0.7961 -0.0503 0.6031
vn 0.2974 -0.4508 0.8416
vn 0.2978 -0.4495 0.8422
vn 0.2976 -0.4503 0.8418
vn 0.1579 0.9821 -0.1023
vn 0.4840 -0.8689 -0.1039
vn -0.6183 0.6461 0.4475
vn 0.7472 0.3460 0.5675
vn 0.2795 0.9552 -0.0969
vn 0.1028 -0.2853 -0.9529
vn 0.1283 0.9902 -0.0556
vn 0.9301 -0.3191 -0.1821
vn 0.1213 -0.9910 0.0575
vn -0.0542 -0.1923 0.9798
vn 0.4364 0.5255 0.7304
vn -0.3926 0.9197 -0.0106
vn 0.0661 0.9662 0.2491
vn -0.4357 0.5878 0.6817
vn -0.4255 -0.8894 -0.1673
vn -0.4244 -0.8902 -0.1659
vn -0.4247 -0.8899 -0.1663
vn 0.3883 0.2380 0.8903
vn 0.1280 0.9909 0.0410
vn -0.2055 0.9405 0.2704
vn -0.1428 0.9435 0.2992
vn -0.1341 0.9466 0.2934
vn -0.1422 0.9437 0.2987
vn 0.1972 -0.5081 -0.8384
vn -0.3276 0.9147 -0.2367
vn -0.0305 -0.7904 0.6119
vn 0.5425 0.6951 0.4717
vn 0.9404 -0.3374 0.0434
vn -0.0543 0.9985 -0.0009
vn -0.0543 0.9985 -0.0000
vn 0.1394 0.9901 0.0160
vn 0.6728 0.6612 0.3319
vn 0.6780 0.6697 0.3031
vn 0.6785 0.6705 0.3000
vn -0.1137 -0.5112 0.8519
vn 0.2267 0.9713 0.0714
vn -0.4940 -0.8679 -0.0521
vn -0.1766 0.9821 -0.0661
vn 0.3764 -0.0790 0.9231
vn 0.2781 -0.4535 0.8467
vn -0.2980 -0.8423 0.4490
vn -0.3946 -0.9163 -0.0688
vn 0.1071 -0.9810 0.1619
vn 0.0727 -0.9951 -0.0675
vn 0.0207 -0.8732 0.4870
vn -0.2356 -0.9524 0.1935
vn -0.0570 -0.7952 0.6036
vn -0.1155 -0.6666 0.7364
vn -0.2361 -0.9127 0.3334
vn -0.0963 -0.9911 0.0924
vn 0.1197 -0.9368 -0.3288
vn 0.1081 -0.9526 -0.2845
vn -0.3677 -0.8928 0.2604
vn -0.5720 -0.8043 0.1612
vn 0.3749 -0.7124 0.5933
vn -0.0926 -0.0929 0.9914
vn -0.3349 -0.9069 0.2556
vn -0.2690 -0.9563 0.1150
vn 0.0788 -0.9505 -0.3006
vn 0.1336 -0.9451 -0.2983
vn -0.1625 0.9867 0.0027
vn 0.3209 0.9380 -0.1309
vn -0.0495 0.9795 0.1954
vn -0.3574 0.6051 0.7114
vn 0.1355 -0.6265 0.7675
vn -0.5743 -0.7874 0.2239
vn -0.0081 0.8635 0.5042
vn 0.5174 -0.8513 -0.0865
vn -0.4521 0.8879 0.0857
vn 0.2516 -0.8470 0.4682
vn 0.8185 -0.4018 0.4105
vn -0.0311 -0.8979 0.4390
vn 0.2219 -0.7899 0.5717
vn -0.0014 0.6689 -0.7434
vn -0.4619 -0.7504 0.4728
vn 0.0142 -0.9478 -0.3185
vn -0.3479 0.9130 0.2129
vn 0.1462 0.9737 -0.1750
vn -0.1205 -0.7698 0.6268
vn -0.1373 -0.7560 0.6401
vn -0.1164 -0.8787 0.4629
vn 0.3723 -0.1915 0.9082
vn -0.0206 0.9817 -0.1893
vn -0.0944 -0.7934 0.6013
vn 0.2786 -0.6689 0.6892
vn 0.0394 -0.7490 0.6614
vn 0.2571 0.9601 0.1098
vn 0.0688 0.7621 -0.6438
vn 0.2333 0.9636 -0.1303
vn 0.1109 0.6890 0.7162
vn 0.2730 -0.9469 -0.1697
vn -0.4258 -0.8891 -0.1678
vn -0.3134 0.3369 -0.8878
vn -0.1418 0.9602 0.2407
vn -0.3614 -0.7154 0.5980
vn -0.2867 -0.3699 0.8837
vn 0.2764 -0.9277 0.2510
vn 0.2817 -0.9594 0.0157
vn 0.1807 0.9729 0.1444
vn 0.0587 -0.9695 0.2380
vn -0.1953 -0.2972 0.9346
vn 0.1849 0.9697 0.1600
vn 0.3159 0.0854 0.9450
vn -0.0523 -0.4269 0.9028
vn 0.2067 0.9127 0.3526
vn 0.2698 0.9445 0.1874
vn -0.3174 -0.7065 0.6326
vn -0.2070 -0.3880 0.8981
vn 0.2138 -0.6169 0.7574
vn -0.3387 0.9372 -0.0835
vn 0.1531 -0.9745 -0.1637
vn -0.1633 0.8204 0.5480
vn 0.2637 0.6818 0.6824
vn -0.1823 0.9832 -0.0047
vn -0.0868 0.9863 0.1403
vn 0.5436 -0.8317 -0.1127
vn 0.0861 0.9688 0.2324
vn 0.2851 -0.3515 0.8917
vn -0.0453 0.8978 0.4380
vn -0.0263 0.9424 0.3336
vn 0.2853 0.9210 -0.2652
vn -0.0444 -0.9843 0.1708
vn -0.0135 -0.9997 -0.0205
vn -0.4535 0.8894 0.0572
vn -0.2212 -0.8039 0.5521
vn 0.0695 0.9562 0.2843
vn -0.1767 -0.8894 0.4216
vn 0.1643 -0.9808 0.1049
vn -0.3939 -0.9106 -0.1248
vn 0.2768 -0.0255 0.9606
vn 0.4032 0.2455 0.8816
vn 0.4162 0.2587 0.8717
vn 0.4143 0.2567 0.8732
vn -0.1332 0.9469 0.2928
vn 0.1859 -0.1528 0.9706
vn 0.2231 -0.1667 0.9604
vn -0.1372 -0.9896 0.0420
vn -0.1250 -0.9031 0.4109
vn -0.0393 -0.7265 0.6861
vn 0.0839 -0.4089 0.9087
vn -0.0051 -0.9829 0.1841
vn 0.3538 0.8707 0.3415
vn 0.2710 0.3541 0.8951
vn 0.0159 0.9943 -0.1059
vn -0.1038 0.9872 -0.1209
vn 0.7821 -0.6090 -0.1321
vn 0.2670 0.9637 0.0041
vn -0.1104 0.9906 0.0812
vn -0.1806 0.9782 0.1026
vn 0.2546 -0.9659 -0.0462
vn -0.1590 0.9606 0.2278
vn 0.1384 -0.9895 -0.0406
vn 0.0268 -0.9992 0.0296
vn 0.0940 -0.9775 -0.1888
vn 0.0316 -0.9790 -0.2015
vn -0.3866 0.9153 0.1132
vn -0.2273 0.9569 0.1806
vn 0.6515 -0.7571 0.0482
vn 0.0418 -0.9300 -0.3651
vn -0.3880 0.8837 0.2619
vn -0.1144 0.9233 0.3665
vn -0.2212 0.9158 0.3353
vn -0.2207 0.9161 0.3347
vn -0.2163 0.9193 0.3287
vn -0.0867 0.8990 0.4293
vn -0.2159 0.9195 0.3283
vn -0.1224 0.9143 0.3860
vn -0.0959 0.8847 0.4562
vn -0.1317 0.7354 0.6647
vn 0.1030 -0.9311 -0.3499
vn 0.1331 -0.9338 -0.3323
vn 0.3599 0.8985 -0.2513
vn 0.0727 0.9746 -0.2119
vn -0.0363 0.9912 -0.1271
vn -0.1856 0.9790 -0.0841
vn -0.4071 0.9133 -0.0117
vn -0.0726 -0.4027 0.9124
vn 0.0708 -0.3391 0.9381
vn -0.4617 -0.8539 0.2403
vn 0.0040 1.0000 0.0060
vn 0.0040 1.0000 -0.0000
vn -0.4253 -0.8762 0.2267
vn 0.0793 -0.6758 0.7328
vn 0.2957 -0.4568 0.8390
vn -0.3991 -0.8419 -0.3633
vn -0.0986 -0.7744 0.6250
vn -0.1646 0.1402 0.9763
vn 0.2328 -0.5589 -0.7959
vn -0.2638 0.8624 -0.4320
vn 0.0535 -0.6217 0.7814
vn 0.1777 0.9411 0.2878
vn 0.3784 0.4069 0.8314
vn 0.3784 -0.0108 0.9256
vn -0.1703 0.5222 -0.8357
vn -0.4838 0.8427 -0.2360
vn 0.1892 -0.2944 -0.9367
vn 0.2587 0.0270 -0.9656
vn -0.2399 0.9653 -0.1030
vn 0.2142 -0.0430 -0.9758
vn 0.3705 0.3001 -0.8790
vn 0.2573 0.0095 -0.9663
vn -0.2170 -0.8988 -0.3809
vn 0.3024 0.9508 -0.0669
vn 0.0445 0.9990 -0.0063
vn 0.2162 -0.7678 -0.6031
vn -0.0717 0.9968 0.0354
vn 0.2233 0.9711 0.0844
vn -0.3634 -0.9311 -0.0315
vn 0.0043 1.0000 -0.0058
vn 0.0098 0.9999 -0.0027
vn -0.0760 -0.9967 -0.0274
vn 0.0508 0.4647 -0.8840
vn -0.3429 -0.9041 -0.2550
vn 0.0293 -0.9944 0.1012
vn -0.4364 -0.7826 -0.4439
vn -0.4066 -0.8934 -0.1910
vn -0.0116 -0.4622 -0.8867
vn 0.4700 -0.8722 -0.1357
vn -0.0616 0.7950 0.6035
vn -0.2152 0.9757 -0.0407
vn -0.3238 0.9391 0.1153
vn 0.2552 0.9665 -0.0279
vn -0.3821 -0.9241 0.0014
vn 0.1476 -0.9494 0.2771
vn 0.1495 -0.6263 0.7651
vn 0.0431 -0.9853 -0.1651
vn 0.7961 -0.0503 -0.6031
vn 0.2974 -0.4508 -0.8416
vn 0.2976 -0.4503 -0.8418
vn 0.2978 -0.4495 -0.8422
vn 0.1579 0.9821 0.1023
vn 0.4840 -0.8689 0.1039
vn -0.6183 0.6461 -0.4475
vn 0.7472 0.3460 -0.5675
vn 0.2795 0.9552 0.0969
vn 0.1028 -0.2853 0.9529
vn 0.1283 0.9902 0.0556
vn 0.9301 -0.3191 0.1821
vn 0.1213 -0.9910 -0.0575
vn -0.0542 -0.1923 -0.9798
vn 0.4364 0.5255 -0.7304
vn -0.3926 0.9197 0.0106
vn 0.0661 0.9662 -0.2491
vn -0.4357 0.5878 -0.6817
vn -0.4254 -0.8894 0.1673
vn -0.4247 -0.8899 0.1663
vn -0.4244 -0.8902 0.1659
vn 0.3883 0.2380 -0.8903
vn 0.1280 0.9909 -0.0410
vn -0.2055 0.9405 -0.2704
vn -0.1429 0.9435 -0.2992
vn -0.1422 0.9437 -0.2987
vn -0.1341 0.9466 -0.2934
vn 0.1972 -0.5081 0.8384
vn -0.3276 0.9147 0.2367
vn -0.0305 -0.7904 -0.6119
vn 0.5425 0.6951 -0.4717
vn 0.9404 -0.3374 -0.0434
vn -0.0543 0.9985 0.0009
vn 0.1394 0.9901 -0.0160
vn 0.6728 0.6612 -0.3320
vn 0.6785 0.6705 -0.3001
vn 0.6780 0.6697 -0.3030
vn -0.1137 -0.5112 -0.8519
vn 0.2267 0.9713 -0.0714
vn -0.4940 -0.8679 0.0521
vn -0.1766 0.9821 0.0661
vn 0.3764 -0.0790 -0.9231
vn 0.2781 -0.4535 -0.8467
vn -0.2980 -0.8423 -0.4490
vn -0.3946 -0.9163 0.0688
vn 0.1071 -0.9810 -0.1619
vn 0.0727 -0.9951 0.0675
vn 0.0207 -0.8732 -0.4870
vn -0.2356 -0.9524 -0.1935
vn -0.0570 -0.7952 -0.6036
vn -0.1155 -0.6666 -0.7364
vn -0.2361 -0.9127 -0.3334
vn -0.0963 -0.9911 -0.0924
vn 0.1197 -0.9368 0.3288
vn 0.1081 -0.9526 0.2845
vn -0.3677 -0.8928 -0.2604
vn -0.5720 -0.8043 -0.1612
vn 0.3749 -0.7124 -0.5933
vn -0.0926 -0.0929 -0.9914
vn -0.3349 -0.9069 -0.2556
vn -0.2690 -0.9563 -0.1150
vn 0.0788 -0.9505 0.3006
vn 0.1336 -0.9451 0.2983
vn -0.1625 0.9867 -0.0027
vn 0.3209 0.9380 0.1309
vn -0.0495 0.9795 -0.1954
vn -0.3574 0.6051 -0.7114
vn 0.1355 -0.6265 -0.7675
vn -0.5743 -0.7874 -0.2239
vn -0.0081 0.8635 -0.5042
vn 0.5174 -0.8513 0.0865
vn -0.4521 0.8879 -0.0857
vn 0.2516 -0.8470 -0.4682
vn 0.8185 -0.4018 -0.4105
vn -0.0311 -0.8979 -0.4390
vn 0.2219 -0.7899 -0.5717
vn -0.0014 0.6689 0.7434
vn -0.4619 -0.7504 -0.4728
vn 0.0142 -0.9478 0.3185
vn -0.3479 0.9130 -0.2129
vn 0.1462 0.9737 0.1750
vn -0.1205 -0.7698 -0.6268
vn -0.1373 -0.7560 -0.6401
vn -0.1164 -0.8787 -0.4629
vn 0.3723 -0.1915 -0.9082
vn -0.0206 0.9817 0.1893
vn -0.0944 -0.7934 -0.6013
vn 0.2786 -0.6689 -0.6892
vn 0.0394 -0.7490 -0.6614
vn 0.2571 0.9601 -0.1098
vn 0.0688 0.7621 0.6438
vn 0.2333 0.9636 0.1303
vn 0.1109 0.6890 -0.7162
vn 0.2730 -0.9469 0.1697
vn -0.4258 -0.8891 0.1678
vn -0.3134 0.3369 0.8878
vn -0.1418 0.9602 -0.2407
vn -0.3614 -0.7154 -0.5980
vn -0.2867 -0.3699 -0.8837
vn 0.2764 -0.9277 -0.2510
vn 0.2817 -0.9594 -0.0157
vn 0.1807 0.9729 -0.1444
vn 0.0587 -0.9695 -0.2380
vn -0.1953 -0.2972 -0.9346
vn 0.1849 0.9697 -0.1600
vn 0.3159 0.0854 -0.9450
vn -0.0523 -0.4269 -0.9028
vn 0.2067 0.9127 -0.3526
vn 0.2698 0.9445 -0.1874
vn -0.3174 -0.7065 -0.6326
vn -0.2070 -0.3880 -0.8981
vn 0.2138 -0.6169 -0.7574
vn -0.3387 0.9372 0.0835
vn 0.1531 -0.9745 0.1637
vn -0.1633 0.8204 -0.5480
vn 0.2637 0.6818 -0.6824
vn -0.1823 0.9832 0.0047
vn -0.0868 0.9863 -0.1403
vn 0.5436 -0.8317 0.1127
vn 0.0861 0.9688 -0.2324
vn 0.2851 -0.3515 -0.8917
vn -0.0453 0.8978 -0.4380
vn -0.0263 0.9424 -0.3336
vn 0.2853 0.9210 0.2652
vn -0.0444 -0.9843 -0.1708
vn -0.0135 -0.9997 0.0205
vn -0.4535 0.8894 -0.0572
vn -0.2212 -0.8039 -0.5521
vn 0.0695 0.9562 -0.2843
vn -0.1767 -0.8894 -0.4216
vn 0.1643 -0.9808 -0.1049
vn -0.3939 -0.9106 0.1248
vn 0.2768 -0.0255 -0.9606
vn 0.4056 0.2454 -0.8805
vn 0.4156 0.2583 -0.8721
vn 0.4148 0.2573 -0.8728
vn -0.1332 0.9469 -0.2928
vn 0.1859 -0.1528 -0.9706
vn 0.2231 -0.1667 -0.9604
vn -0.1372 -0.9896 -0.0420
vn -0.1250 -0.9031 -0.4109
vn -0.0393 -0.7265 -0.6861
vn 0.0839 -0.4089 -0.9087
vn -0.0051 -0.9829 -0.1841
vn 0.3538 0.8707 -0.3415
vn 0.2710 0.3541 -0.8951
vn 0.0159 0.9943 0.1059
vn -0.1038 0.9872 0.1209
vn 0.7821 -0.6090 0.1321
vn 0.2670 0.9637 -0.0041
vn -0.1104 0.9906 -0.0812
vn -0.1806 0.9782 -0.1026
vn 0.2546 -0.9659 0.0462
vn -0.1590 0.9606 -0.2278
vn 0.1384 -0.9895 0.0406
vn 0.0268 -0.9992 -0.0296
vn 0.0940 -0.9775 0.1888
vn 0.0316 -0.9790 0.2015
vn -0.3866 0.9153 -0.1132
vn -0.2273 0.9569 -0.1806
vn 0.6515 -0.7571 -0.0482
vn 0.0418 -0.9300 0.3651
vn -0.3880 0.8837 -0.2619
vn -0.1144 0.9233 -0.3665
vn -0.2212 0.9158 -0.3353
vn -0.2163 0.9193 -0.3287
vn -0.2207 0.9161 -0.3347
vn -0.0867 0.8990 -0.4293
vn -0.2159 0.9195 -0.3283
vn -0.1224 0.9143 -0.3860
vn -0.0959 0.8847 -0.4562
vn -0.1317 0.7354 -0.6647
vn 0.1030 -0.9311 0.3499
vn 0.1331 -0.9338 0.3323
vn 0.3599 0.8985 0.2513
vn 0.0727 0.9746 0.2119
vn -0.0363 0.9912 0.1271
vn -0.1856 0.9790 0.0841
vn -0.4071 0.9133 0.0117
vn -0.0726 -0.4027 -0.9124
vn 0.0708 -0.3391 -0.9381
vn -0.4617 -0.8539 -0.2403
vn 0.0040 1.0000 -0.0060
vn -0.4253 -0.8762 -0.2267
vn 0.0793 -0.6758 -0.7328
vn 0.2957 -0.4568 -0.8390
vn -0.3991 -0.8419 0.3633
vn -0.0986 -0.7744 -0.6250
vn -0.1646 0.1402 -0.9763
vn 0.2328 -0.5589 0.7959
vn -0.2638 0.8624 0.4320
vn 0.0535 -0.6217 -0.7814
vn 0.1777 0.9411 -0.2878
vn 0.3784 0.4069 -0.8314
vn 0.3784 -0.0108 -0.9256
vn 0.4256 0.2712 -0.8633
vn 0.6832 0.6785 -0.2702
vn 0.6831 0.6785 0.2701
vn 0.4263 0.2689 0.8637
vt 0.654151 0.394336
vt 0.654108 0.392353
vt 0.700888 0.414833
vt 0.699666 0.417182
vt 0.618199 0.384884
vt 0.621033 0.389033
vt 0.607353 0.415974
vt 0.603151 0.413761
vt 0.149687 0.124305
vt 0.149706 0.093102
vt 0.163844 0.089654
vt 0.171427 0.117275
vt 0.150177 0.073487
vt 0.133868 0.024735
vt 0.158628 0.071181
vt 0.543623 0.627219
vt 0.514051 0.600448
vt 0.543948 0.563673
vt 0.571505 0.589058
vt 0.181770 0.085603
vt 0.194787 0.110312
vt 0.310993 0.071810
vt 0.296883 0.081069
vt 0.314993 0.029403
vt 0.169438 0.077986
vt 0.156250 0.290384
vt 0.137584 0.306777
vt 0.134058 0.250603
vt 0.153350 0.241712
vt 0.292659 0.175496
vt 0.330926 0.187250
vt 0.330928 0.237856
vt 0.294757 0.238819
vt 0.330928 0.339897
vt 0.296156 0.345222
vt 0.298412 0.287099
vt 0.330928 0.287188
vt 0.132188 0.090010
vt 0.131456 0.072491
vt 0.607752 0.684309
vt 0.569549 0.711623
vt 0.542505 0.687686
vt 0.576925 0.657041
vt 0.330920 0.583295
vt 0.304030 0.593062
vt 0.330924 0.497851
vt 0.116542 0.539171
vt 0.143475 0.583693
vt 0.116470 0.573684
vt 0.330926 0.454771
vt 0.298682 0.456678
vt 0.301718 0.423086
vt 0.330927 0.421096
vt 0.132342 0.173999
vt 0.132388 0.206909
vt 0.117232 0.207087
vt 0.117300 0.174152
vt 0.262978 0.478270
vt 0.261114 0.432039
vt 0.272325 0.426177
vt 0.274341 0.463417
vt 0.117545 0.053560
vt 0.117653 0.003992
vt 0.130152 0.049995
vt 0.481885 0.199155
vt 0.517568 0.192645
vt 0.520269 0.239408
vt 0.485878 0.244669
vt 0.132278 0.383973
vt 0.167597 0.353999
vt 0.163221 0.420852
vt 0.139401 0.423766
vt 0.142596 0.445838
vt 0.172742 0.478388
vt 0.206863 0.274057
vt 0.179928 0.279669
vt 0.178136 0.231648
vt 0.204614 0.223207
vt 0.131841 0.128268
vt 0.117393 0.129608
vt 0.117473 0.088420
vt 0.893446 0.438702
vt 0.921635 0.441309
vt 0.911173 0.460999
vt 0.885120 0.452572
vt 0.484202 0.635711
vt 0.511034 0.659725
vt 0.815312 0.450440
vt 0.844364 0.446053
vt 0.851511 0.506465
vt 0.295666 0.499136
vt 0.116612 0.505357
vt 0.135614 0.503631
vt 0.617580 0.336805
vt 0.561229 0.335118
vt 0.570029 0.282693
vt 0.638292 0.273985
vt 0.744073 0.556021
vt 0.786938 0.482696
vt 0.797632 0.486740
vt 0.778748 0.565660
vt 0.255872 0.208410
vt 0.240428 0.208944
vt 0.260476 0.176467
vt 0.820953 0.412223
vt 0.818481 0.414695
vt 0.808691 0.455268
vt 0.654569 0.271052
vt 0.637817 0.334708
vt 0.244409 0.368147
vt 0.260785 0.393892
vt 0.248789 0.388436
vt 0.238195 0.371261
vt 0.330914 0.003802
vt 0.330916 0.030777
vt 0.620749 0.695884
vt 0.582337 0.723782
vt 0.834854 0.409798
vt 0.622037 0.129232
vt 0.636060 0.173630
vt 0.629090 0.175054
vt 0.613263 0.129954
vt 0.606996 0.177841
vt 0.563406 0.184605
vt 0.551995 0.139433
vt 0.592439 0.132409
vt 0.850629 0.435327
vt 0.850908 0.431185
vt 0.873069 0.430120
vt 0.874714 0.436480
vt 0.298028 0.158763
vt 0.276052 0.154320
vt 0.444309 0.670432
vt 0.434303 0.660638
vt 0.472739 0.625389
vt 0.159837 0.512574
vt 0.200054 0.566062
vt 0.266764 0.499424
vt 0.258695 0.570925
vt 0.595826 0.542988
vt 0.568570 0.519019
vt 0.586688 0.473178
vt 0.620173 0.497801
vt 0.686523 0.543739
vt 0.665224 0.602880
vt 0.629025 0.571684
vt 0.650504 0.519875
vt 0.881466 0.406068
vt 0.889956 0.415250
vt 0.867618 0.420298
vt 0.864873 0.409107
vt 0.850202 0.449686
vt 0.867998 0.450125
vt 0.183924 0.463673
vt 0.203684 0.553638
vt 0.330918 0.067156
vt 0.598520 0.080035
vt 0.607855 0.079308
vt 0.330928 0.390032
vt 0.305245 0.391135
vt 0.330920 0.093169
vt 0.310026 0.095274
vt 0.177314 0.420637
vt 0.193585 0.416917
vt 0.282016 0.583805
vt 0.280512 0.506047
vt 0.469334 0.693399
vt 0.192361 0.143462
vt 0.210415 0.130940
vt 0.225575 0.160015
vt 0.198374 0.178530
vt 0.171569 0.154033
vt 0.148514 0.170116
vt 0.727457 0.446388
vt 0.749577 0.462682
vt 0.757810 0.520740
vt 0.158402 0.582613
vt 0.117505 0.073963
vt 0.570775 0.231302
vt 0.526556 0.074004
vt 0.568096 0.056931
vt 0.573975 0.085644
vt 0.535394 0.095493
vt 0.117137 0.252088
vt 0.117011 0.313423
vt 0.454162 0.109814
vt 0.441752 0.089955
vt 0.481662 0.085639
vt 0.492714 0.104531
vt 0.509040 0.148144
vt 0.471207 0.156469
vt 0.549146 0.399084
vt 0.498130 0.396324
vt 0.506884 0.337791
vt 0.514767 0.290058
vt 0.116929 0.352346
vt 0.134785 0.345847
vt 0.116777 0.425622
vt 0.116882 0.374620
vt 0.886310 0.428282
vt 0.939405 0.413754
vt 0.147331 0.341203
vt 0.158217 0.331188
vt 0.547624 0.449442
vt 0.495767 0.443280
vt 0.461677 0.428799
vt 0.465767 0.397131
vt 0.258853 0.243846
vt 0.174585 0.190311
vt 0.149960 0.201269
vt 0.116709 0.459040
vt 0.723372 0.425255
vt 0.719788 0.474799
vt 0.706833 0.468963
vt 0.719050 0.426557
vt 0.596888 0.409912
vt 0.591723 0.408759
vt 0.505117 0.592014
vt 0.534544 0.554567
vt 0.595439 0.041630
vt 0.607878 0.032267
vt 0.908121 0.484656
vt 0.474580 0.340280
vt 0.481138 0.294129
vt 0.558942 0.509768
vt 0.579246 0.466883
vt 0.262046 0.285164
vt 0.471537 0.062338
vt 0.516322 0.047523
vt 0.499790 0.721986
vt 0.528093 0.747294
vt 0.179167 0.325563
vt 0.604601 0.003241
vt 0.559669 0.026895
vt 0.126047 0.669907
vt 0.176350 0.585198
vt 0.884386 0.585349
vt 0.942631 0.526933
vt 0.909449 0.574072
vt 0.897382 0.608169
vt 0.747092 0.426594
vt 0.641212 0.220583
vt 0.622879 0.223419
vt 0.182200 0.571207
vt 0.894941 0.225480
vt 0.886981 0.250883
vt 0.840077 0.292708
vt 0.640394 0.651050
vt 0.605973 0.620166
vt 0.190283 0.356581
vt 0.225742 0.378452
vt 0.330928 0.166259
vt 0.203758 0.321653
vt 0.426520 0.076528
vt 0.230092 0.327341
vt 0.799981 0.531298
vt 0.810324 0.501129
vt 0.259889 0.330904
vt 0.650255 0.218946
vt 0.691356 0.624015
vt 0.658715 0.665935
vt 0.712438 0.560740
vt 0.545467 0.761573
vt 0.263523 0.582889
vt 0.904011 0.323459
vt 0.295085 0.093366
vt 0.229330 0.217258
vt 0.330924 0.136152
vt 0.303914 0.134708
vt 0.309331 0.113553
vt 0.330922 0.115888
vt 0.281809 0.132565
vt 0.293062 0.107373
vt 0.572136 0.452738
vt 0.644215 0.440673
vt 0.677674 0.457158
vt 0.526693 0.805027
vt 0.499356 0.779510
vt 0.466738 0.751471
vt 0.433673 0.717395
vt 0.413905 0.679939
vt 0.413596 0.672834
vt 0.232164 0.273236
vt 0.803514 0.493049
vt 0.914001 0.387145
vt 0.925127 0.396936
vt 0.851187 0.422969
vt 0.847462 0.412311
vt 0.252599 0.594438
vt 0.206422 0.620333
vt 0.205483 0.618733
vt 0.253100 0.593627
vt 0.290682 0.587080
vt 0.304430 0.614162
vt 0.300131 0.615600
vt 0.287513 0.590110
vt 0.085118 0.124174
vt 0.063408 0.117054
vt 0.071100 0.089472
vt 0.085225 0.092971
vt 0.084829 0.073353
vt 0.076380 0.071025
vt 0.101349 0.024662
vt 0.363345 0.821396
vt 0.334920 0.782430
vt 0.363153 0.758004
vt 0.393545 0.795269
vt 0.040076 0.109996
vt 0.053183 0.085338
vt 0.350844 0.071807
vt 0.346838 0.029401
vt 0.364956 0.081058
vt 0.062923 0.079381
vt 0.077867 0.290221
vt 0.080968 0.241561
vt 0.100222 0.250531
vt 0.096465 0.306691
vt 0.369194 0.175492
vt 0.367099 0.238817
vt 0.363444 0.287098
vt 0.365699 0.345222
vt 0.103557 0.072436
vt 0.102753 0.089947
vt 0.297049 0.878754
vt 0.329049 0.851068
vt 0.364013 0.883244
vt 0.335949 0.907524
vt 0.357809 0.593064
vt 0.089422 0.583580
vt 0.360137 0.423088
vt 0.363170 0.456680
vt 0.102259 0.173937
vt 0.102076 0.206845
vt 0.398872 0.478277
vt 0.387512 0.463421
vt 0.389530 0.426179
vt 0.400742 0.432043
vt 0.104954 0.049944
vt 0.683125 0.255575
vt 0.687118 0.210061
vt 0.721509 0.215322
vt 0.718808 0.262085
vt 0.101448 0.383908
vt 0.094161 0.423672
vt 0.070354 0.420660
vt 0.066255 0.353787
vt 0.090876 0.445731
vt 0.060595 0.478156
vt 0.027321 0.273685
vt 0.029782 0.222845
vt 0.056225 0.231394
vt 0.054232 0.279408
vt 0.102948 0.128212
vt 0.874956 0.358775
vt 0.883282 0.372645
vt 0.857226 0.381071
vt 0.846764 0.361378
vt 0.423997 0.831347
vt 0.396486 0.855149
vt 0.861780 0.535851
vt 0.900851 0.486767
vt 0.884583 0.539427
vt 0.366182 0.499137
vt 0.097618 0.503552
vt 0.818820 0.117924
vt 0.839531 0.180745
vt 0.771269 0.172036
vt 0.762469 0.119612
vt 0.801306 0.538448
vt 0.854865 0.607728
vt 0.844171 0.611772
vt 0.835981 0.528808
vt 0.405984 0.208406
vt 0.401378 0.176463
vt 0.421428 0.208940
vt 0.868247 0.573902
vt 0.854847 0.531508
vt 0.870445 0.569970
vt 0.839057 0.120022
vt 0.855809 0.183678
vt 0.417446 0.368148
vt 0.423659 0.371262
vt 0.413066 0.388436
vt 0.401070 0.393894
vt 0.284325 0.889762
vt 0.322571 0.919098
vt 0.888159 0.571449
vt 0.823278 0.325498
vt 0.814504 0.324776
vt 0.830330 0.279675
vt 0.837301 0.281099
vt 0.808236 0.276888
vt 0.793679 0.322321
vt 0.753236 0.315297
vt 0.764647 0.270125
vt 0.917770 0.355394
vt 0.893688 0.356553
vt 0.895329 0.350192
vt 0.917490 0.351253
vt 0.363824 0.158758
vt 0.385800 0.154315
vt 0.434825 0.821979
vt 0.473689 0.858528
vt 0.463999 0.867912
vt 0.073358 0.512394
vt 0.032919 0.565714
vt 0.395082 0.499432
vt 0.403139 0.570934
vt 0.310145 0.736662
vt 0.285549 0.692780
vt 0.320169 0.669234
vt 0.338290 0.713465
vt 0.217499 0.739136
vt 0.254487 0.715098
vt 0.275999 0.765384
vt 0.238615 0.796294
vt 0.886936 0.326139
vt 0.903530 0.329180
vt 0.900783 0.340369
vt 0.878447 0.335322
vt 0.918205 0.369751
vt 0.900407 0.370197
vt 0.029341 0.553275
vt 0.049475 0.463394
vt 0.809095 0.375422
vt 0.799760 0.374695
vt 0.356610 0.391137
vt 0.351817 0.095204
vt 0.040007 0.416600
vt 0.056263 0.420387
vt 0.381334 0.506052
vt 0.379816 0.583810
vt 0.438209 0.890697
vt 0.042365 0.143154
vt 0.036208 0.178195
vt 0.009083 0.159568
vt 0.024363 0.130558
vt 0.063114 0.153810
vt 0.086103 0.169986
vt 0.001881 0.590430
vt 0.030567 0.570541
vt 0.029100 0.608217
vt 0.074504 0.582438
vt 0.772015 0.223428
vt 0.727796 0.380726
vt 0.736634 0.359237
vt 0.775215 0.369086
vt 0.769336 0.397799
vt 0.655402 0.344915
vt 0.693954 0.350199
vt 0.682903 0.369090
vt 0.642992 0.364774
vt 0.672448 0.298261
vt 0.710280 0.306586
vt 0.750386 0.055646
vt 0.708124 0.116939
vt 0.699371 0.058406
vt 0.716007 0.164672
vt 0.099101 0.345770
vt 0.828999 0.333820
vt 0.882092 0.348355
vt 0.086574 0.341076
vt 0.075731 0.331016
vt 0.697007 0.011450
vt 0.748864 0.005288
vt 0.667007 0.057599
vt 0.662917 0.025931
vt 0.403003 0.243846
vt 0.084527 0.201132
vt 0.059948 0.190074
vt 0.182814 0.630348
vt 0.186926 0.630921
vt 0.198235 0.669295
vt 0.185464 0.676242
vt 0.792963 0.045971
vt 0.798128 0.044818
vt 0.372366 0.750033
vt 0.401910 0.788032
vt 0.796679 0.413100
vt 0.809118 0.422463
vt 0.860277 0.404728
vt 0.682378 0.160601
vt 0.675820 0.114450
vt 0.327876 0.663818
vt 0.348113 0.705192
vt 0.399809 0.285163
vt 0.717562 0.407207
vt 0.672776 0.392391
vt 0.406450 0.919221
vt 0.376786 0.944347
vt 0.054804 0.325304
vt 0.805841 0.451489
vt 0.760909 0.427835
vt 0.720072 0.533361
vt 0.781188 0.610474
vt 0.763772 0.615439
vt 0.786536 0.571204
vt 0.811599 0.582481
vt 0.844780 0.629619
vt 0.799532 0.548384
vt 0.035272 0.621120
vt 0.842451 0.234146
vt 0.824118 0.231311
vt 0.050752 0.570934
vt 0.910266 0.259709
vt 0.860385 0.038060
vt 0.903877 0.190197
vt 0.263551 0.844176
vt 0.299313 0.813236
vt 0.043560 0.356277
vt 0.008010 0.378001
vt 0.030229 0.321294
vt 0.627760 0.378201
vt 0.003871 0.326872
vt 0.857214 0.563171
vt 0.862013 0.490303
vt 0.401966 0.330904
vt 0.851494 0.235783
vt 0.245525 0.859772
vt 0.212144 0.818355
vt 0.191289 0.757142
vt 0.358490 0.956321
vt 0.398309 0.582898
vt 0.056542 0.584946
vt 0.884259 0.005385
vt 0.367191 0.096371
vt 0.005091 0.216793
vt 0.352513 0.113550
vt 0.357934 0.134703
vt 0.368781 0.107365
vt 0.380040 0.132559
vt 0.773376 0.001992
vt 0.261723 0.638430
vt 0.227752 0.656153
vt 0.404647 0.976945
vt 0.375768 0.998008
vt 0.439137 0.950106
vt 0.473962 0.916273
vt 0.494277 0.878659
vt 0.493998 0.871912
vt 0.002024 0.272759
vt 0.860747 0.601419
vt 0.843278 0.317005
vt 0.854403 0.307215
vt 0.920938 0.332381
vt 0.917216 0.343041
s 1
usemtl lambert3SG
f 180/1/1 1/2/1 185/3/1 184/4/1
f 8/5/2 179/6/2 176/7/2 175/8/2
f 38/9/3 154/10/3 153/11/3 110/12/3
f 54/16/5 161/17/5 27/18/5 168/19/5
f 110/12/6 153/11/6 81/20/6 70/21/6
f 390/25/8 153/11/8 9/15/8
f 69/26/9 28/27/9 20/28/9 13/29/9
f 60/30/10 56/31/10 97/32/10 50/33/10
f 142/34/11 80/35/12 4/36/12 141/37/11
f 10/13/13 154/10/13 155/38/13 156/39/13
f 164/40/14 35/41/14 99/42/14 165/43/14
f 11/44/15 34/45/15 21/46/15
f 145/47/16 34/48/16 11/49/16
f 144/50/17 40/51/18 196/52/19 195/53/20
f 105/54/21 150/55/21 149/56/21 147/57/21
f 77/58/22 82/59/22 37/60/22 123/61/22
f 134/65/24 170/66/24 87/67/24 103/68/24
f 14/69/25 106/70/25 135/71/25 194/72/25
f 12/73/26 194/72/26 135/71/26 74/74/26
f 192/75/27 111/76/27 17/77/27 148/78/27
f 155/38/28 94/79/28 138/80/28 86/81/28
f 7/86/30 161/17/30 54/16/30 160/87/30
f 114/91/32 21/46/32 34/45/32
f 146/92/33 85/93/34 34/48/34 145/47/33
f 3/94/35 92/95/35 47/96/35 58/97/35
f 33/102/38 2/103/38 31/104/38 60/30/38
f 58/97/43 130/108/43 62/109/43 3/94/43
f 190/110/44 100/111/44 126/112/44 191/113/44
f 163/116/46 65/117/46 35/41/46 164/40/46
f 65/119/49 163/120/49 162/121/49 67/122/49
f 115/123/50 169/124/50 41/125/50 120/126/50
f 206/131/52 60/30/52 31/104/52 207/132/52
f 7/86/53 32/133/53 91/134/53 71/135/53
f 123/61/54 37/60/54 196/52/54 40/51/54
f 8/5/55 1/2/55 180/1/55 179/6/55
f 139/136/56 74/74/57 26/137/58
f 125/138/59 136/139/59 77/58/59
f 4/36/60 50/33/60 97/32/60 141/37/60
f 75/140/61 173/141/61 6/142/61 73/143/61
f 39/144/62 49/145/62 51/146/63 137/147/64
f 74/74/67 77/154/67 136/155/67
f 67/122/69 104/157/69 79/158/69 65/119/69
f 80/35/70 142/34/71 143/159/71 15/160/70
f 21/46/72 114/91/72 40/51/72 144/50/72
f 42/156/73 388/161/74 389/162/75 140/22/73
f 77/154/76 74/74/76 45/163/76 82/164/76
f 114/91/77 57/165/77 72/166/77
f 12/73/78 74/74/78 139/136/78 85/93/78
f 32/133/79 7/86/79 160/87/79 159/167/79
f 84/168/80 207/169/80 31/170/80 46/171/80
f 131/172/81 101/173/81 38/9/81 110/12/81
f 85/174/82 83/175/82 34/176/82
f 139/136/83 113/177/83 85/93/83
f 155/38/84 86/81/84 157/178/84 156/39/84
f 87/67/85 170/66/85 169/124/85 128/179/85
f 109/180/86 30/181/86 122/182/86 16/183/86
f 29/184/87 20/28/87 28/27/87 89/185/87
f 91/186/90 191/187/90 88/188/90 63/189/90
f 63/189/91 133/190/91 71/191/91 91/186/91
f 186/192/92 182/193/92 44/194/92 92/95/92
f 44/194/93 171/195/93 47/96/93 92/95/93
f 197/196/94 89/185/94 28/27/94 198/197/94
f 14/69/95 194/72/95 193/198/95 93/199/95
f 154/10/96 38/9/96 94/79/96 155/38/96
f 96/202/98 198/197/98 28/27/98
f 28/27/99 69/26/99 200/203/99 96/202/99
f 182/193/100 186/192/100 185/204/100 1/205/100
f 182/193/101 1/205/101 8/206/101 175/207/101
f 54/16/102 165/43/102 99/42/102 160/87/102
f 50/33/103 187/208/103 33/102/103 60/30/103
f 15/160/104 196/52/104 37/60/104 100/111/104
f 82/59/105 126/112/105 100/111/105 37/60/105
f 101/173/106 131/172/106 152/209/106 151/210/106
f 36/211/107 12/73/107 85/93/107 146/92/107
f 5/212/108 102/213/108 178/214/108 181/215/108
f 3/94/109 62/109/109 102/216/109 174/217/109
f 27/18/110 161/17/110 134/218/110 103/219/110
f 122/182/111 30/181/111 2/220/111 104/157/111
f 33/221/112 79/158/112 104/157/112 2/220/112
f 150/55/113 105/54/113 101/173/113 151/210/113
f 94/79/114 38/9/114 101/173/114 105/54/114
f 14/69/116 198/197/116 96/202/116 106/70/116
f 171/195/117 44/194/117 107/223/117 172/224/117
f 6/142/118 173/141/118 172/225/118 107/226/118
f 187/208/119 50/33/119 4/36/119 188/227/119
f 13/29/120 17/77/120 111/76/120 69/26/120
f 88/188/121 25/228/121 43/229/121 109/180/121
f 16/183/122 63/189/122 88/188/122 109/180/122
f 84/168/123 131/172/123 110/12/123 70/21/123
f 108/230/124 99/42/124 35/41/124 132/231/124
f 95/232/125 200/203/125 69/26/125 111/76/125
f 31/233/126 2/220/126 30/181/126 112/234/126
f 109/180/127 43/229/127 112/234/127 30/181/127
f 114/235/128 113/177/128 116/236/128
f 85/237/129 113/238/129 83/239/129
f 114/240/130 83/239/130 113/238/130
f 114/241/131 34/176/131 83/175/131
f 18/242/132 58/97/132 166/243/132
f 139/136/56 26/137/58 57/244/133
f 114/245/134 139/246/134 57/247/134
f 117/248/135 167/249/135 51/146/135 49/145/135
f 45/163/136 135/71/136 106/70/136 118/250/136
f 126/251/137 82/164/137 45/163/137 118/250/137
f 120/126/138 122/182/138 104/157/138 67/122/138
f 67/122/139 162/121/139 115/123/139 120/126/139
f 205/252/140 56/31/140 60/30/140 206/131/140
f 122/182/141 120/126/141 41/125/141 16/183/141
f 118/250/142 95/232/142 124/253/142
f 123/61/143 40/51/143 114/91/143 72/166/143
f 125/138/144 77/58/144 123/61/144
f 95/232/145 111/76/145 192/75/145 124/253/145
f 125/138/146 123/61/146 72/166/146
f 72/166/147 57/165/147 136/139/147 125/138/147
f 25/228/148 88/188/148 191/187/148 126/254/148
f 126/251/149 118/250/149 124/253/149 25/255/149
f 128/179/152 166/243/152 58/97/152 47/96/152
f 100/111/155 190/110/155 189/258/155 80/35/155
f 15/160/156 100/111/156 80/35/156
f 130/108/157 58/97/157 18/242/157 23/259/157
f 117/248/158 49/145/158 130/260/158 23/261/158
f 46/171/159 152/209/159 131/172/159 84/168/159
f 39/144/160 178/214/160 102/213/160 62/262/160
f 130/260/161 49/145/161 39/144/161 62/262/161
f 35/41/162 65/117/162 79/263/162 132/231/162
f 133/190/163 63/189/163 16/183/163 41/125/163
f 133/190/164 170/66/164 134/65/164 71/191/164
f 134/218/165 161/17/165 7/86/165 71/135/165
f 74/74/166 135/71/166 45/163/166
f 57/165/167 26/264/167 136/139/167
f 74/74/168 136/155/168 26/137/168
f 94/79/169 105/54/169 147/57/169 138/80/169
f 139/136/170 116/236/170 113/177/170
f 114/245/171 116/265/171 139/246/171
f 140/22/172 389/162/173 390/266/174 9/23/172
f 75/140/175 73/143/175 137/147/64 51/146/63
f 153/11/176 154/10/176 10/13/176 9/15/176
f 46/171/177 31/170/177 112/267/177 148/78/177
f 150/55/178 20/28/178 29/184/178 149/56/178
f 13/29/179 20/28/179 150/55/179 151/210/179
f 152/209/180 17/77/180 13/29/180 151/210/180
f 46/171/181 148/78/181 17/77/181 152/209/181
f 119/268/183 158/269/183 19/270/183 121/271/183
f 19/270/184 158/269/184 70/272/184 81/273/184
f 188/227/185 4/36/185 80/35/185 189/258/185
f 159/167/186 160/87/186 99/42/186 108/230/186
f 162/121/187 163/120/187 23/259/187 18/242/187
f 117/248/188 23/261/188 163/116/188 164/40/188
f 117/248/189 164/40/189 165/43/189 167/249/189
f 54/16/190 168/19/190 167/249/190 165/43/190
f 115/123/191 162/121/191 18/242/191 166/243/191
f 167/249/192 168/19/192 75/140/192 51/146/192
f 115/123/193 166/243/193 128/179/193 169/124/193
f 41/125/194 169/124/194 170/66/194 133/190/194
f 47/96/195 171/195/195 87/67/195 128/179/195
f 103/68/196 87/67/196 171/195/196 172/224/196
f 173/141/197 27/18/197 103/219/197 172/225/197
f 75/140/198 168/19/198 27/18/198 173/141/198
f 102/216/199 5/274/199 174/217/199
f 44/194/200 182/193/200 175/207/200 107/223/200
f 176/7/201 6/142/201 107/226/201 175/8/201
f 177/275/202 183/276/202 137/147/202 73/143/202
f 180/1/203 177/275/204 176/7/205 179/6/203
f 177/275/206 180/1/206 184/4/206 183/276/206
f 177/275/204 73/143/207 6/142/207 176/7/205
f 39/144/208 137/147/208 183/276/208 178/214/208
f 184/4/209 181/215/209 178/214/209 183/276/209
f 185/3/210 5/212/210 181/215/210 184/4/210
f 174/217/211 5/274/211 185/204/211 186/192/211
f 92/95/212 3/94/212 174/217/212 186/192/212
f 79/263/213 33/277/213 187/278/213 132/231/213
f 108/230/214 132/231/214 187/278/214 188/279/214
f 108/230/215 188/279/215 189/280/215 159/167/215
f 190/281/216 32/133/216 159/167/216 189/280/216
f 32/133/217 190/281/217 191/282/217 91/134/217
f 43/283/218 25/255/218 124/253/218 192/75/218
f 148/78/219 112/267/219 43/283/219 192/75/219
f 194/72/220 12/73/220 36/211/220 193/198/220
f 196/52/19 15/160/221 143/159/222 195/53/20
f 93/199/223 197/196/223 198/197/223 14/69/223
f 119/268/232 205/252/232 206/131/232 158/269/232
f 70/272/233 158/269/233 206/131/233 207/132/233
f 84/168/234 70/21/234 207/169/234
f 362/289/235 366/290/235 367/291/235 208/292/235
f 215/293/236 357/294/236 358/295/236 361/296/236
f 241/297/237 304/298/237 336/299/237 337/300/237
f 255/304/239 350/305/239 232/306/239 343/307/239
f 304/298/240 269/308/240 279/309/240 336/299/240
f 336/299/242 386/313/242 216/302/242
f 268/314/243 219/315/243 226/316/243 233/317/243
f 260/318/244 252/319/244 97/32/244 56/31/244
f 142/34/11 141/37/11 211/320/245 278/321/245
f 217/301/246 339/322/246 338/323/246 337/300/246
f 346/324/247 347/325/247 293/326/247 239/327/247
f 11/44/248 21/46/248 238/328/248
f 145/47/249 11/49/249 238/329/249
f 144/50/17 195/53/20 376/330/250 243/331/251
f 299/332/252 147/57/252 149/56/252 333/333/252
f 276/334/253 315/335/253 240/336/253 280/337/253
f 326/339/255 297/340/255 284/341/255 352/342/255
f 220/343/256 375/344/256 327/345/256 300/346/256
f 218/347/257 273/348/257 327/345/257 375/344/257
f 374/349/258 332/350/258 223/351/258 305/352/258
f 338/323/259 86/81/259 138/80/259 289/353/259
f 214/358/261 342/359/261 255/304/261 343/307/261
f 308/363/263 238/328/263 21/46/263
f 146/92/33 145/47/33 238/329/264 283/364/264
f 210/365/265 258/366/265 249/367/265 288/368/265
f 237/373/268 260/318/268 235/374/268 209/375/268
f 258/366/273 210/365/273 262/379/273 322/380/273
f 372/381/274 373/382/274 318/383/274 294/384/274
f 345/385/276 346/324/276 239/327/276 264/386/276
f 264/388/279 266/389/279 344/390/279 345/391/279
f 309/392/280 313/393/280 244/394/280 351/395/280
f 384/400/282 385/401/282 235/374/282 260/318/282
f 214/358/283 270/402/283 287/403/283 236/404/283
f 315/335/284 243/331/284 376/330/284 240/336/284
f 215/293/285 361/296/285 362/289/285 208/292/285
f 330/405/286 231/406/287 273/348/288
f 317/407/289 276/334/289 328/408/289
f 211/320/290 141/37/290 97/32/290 252/319/290
f 274/409/291 272/410/291 213/411/291 355/412/291
f 242/413/292 329/414/293 253/415/294 251/416/292
f 273/348/297 328/423/297 276/424/297
f 266/389/299 264/388/299 277/425/299 298/426/299
f 278/321/300 221/427/300 143/159/71 142/34/71
f 21/46/301 144/50/301 243/331/301 308/363/301
f 42/156/302 331/310/302 387/428/303 388/161/304
f 276/424/305 280/429/305 247/430/305 273/348/305
f 308/363/306 271/431/306 257/432/306
f 218/347/307 283/364/307 330/405/307 273/348/307
f 236/404/308 341/433/308 342/359/308 214/358/308
f 282/434/309 248/435/309 235/436/309 385/437/309
f 323/438/310 304/298/310 241/297/310 295/439/310
f 283/440/311 238/441/311 281/442/311
f 330/405/312 283/364/312 307/443/312
f 338/323/313 339/322/313 157/178/313 86/81/313
f 284/341/314 320/444/314 351/395/314 352/342/314
f 303/445/315 222/446/315 314/447/315 234/448/315
f 29/184/316 89/185/316 233/317/316 226/316/316
f 287/449/319 263/450/319 285/451/319 373/452/319
f 263/450/320 287/449/320 270/453/320 325/454/320
f 368/455/321 288/368/321 246/456/321 364/457/321
f 246/456/322 288/368/322 249/367/322 353/458/322
f 197/196/323 377/459/323 233/317/323 89/185/323
f 220/343/324 93/199/324 193/198/324 375/344/324
f 337/300/325 338/323/325 289/353/325 241/297/325
f 291/462/327 233/317/327 377/459/327
f 233/317/328 291/462/328 379/463/328 268/314/328
f 364/457/329 208/464/329 367/465/329 368/455/329
f 364/457/330 357/466/330 215/467/330 208/464/330
f 255/304/331 342/359/331 293/326/331 347/325/331
f 252/319/332 260/318/332 237/373/332 369/468/332
f 221/427/333 294/384/333 240/336/333 376/330/333
f 280/337/334 240/336/334 294/384/334 318/383/334
f 295/439/335 334/469/335 335/470/335 323/438/335
f 36/211/336 146/92/336 283/364/336 218/347/336
f 212/471/337 363/472/337 360/473/337 296/474/337
f 210/365/338 356/475/338 296/476/338 262/379/338
f 232/306/339 297/477/339 326/478/339 343/307/339
f 314/447/340 298/426/340 209/479/340 234/448/340
f 237/480/341 209/479/341 298/426/341 277/425/341
f 333/333/342 334/469/342 295/439/342 299/332/342
f 289/353/343 299/332/343 295/439/343 241/297/343
f 220/343/345 300/346/345 291/462/345 377/459/345
f 353/458/346 354/482/346 301/483/346 246/456/346
f 213/411/347 301/484/347 354/485/347 355/412/347
f 369/468/348 370/486/348 211/320/348 252/319/348
f 219/315/349 268/314/349 305/352/349 223/351/349
f 285/451/350 303/445/350 245/487/350 230/488/350
f 222/446/351 303/445/351 285/451/351 263/450/351
f 282/434/352 269/308/352 304/298/352 323/438/352
f 302/489/353 324/490/353 239/327/353 293/326/353
f 290/491/354 305/352/354 268/314/354 379/463/354
f 235/492/355 306/493/355 234/448/355 209/479/355
f 303/445/356 234/448/356 306/493/356 245/487/356
f 308/494/357 310/495/357 307/496/357
f 283/497/358 281/498/358 307/499/358
f 308/500/359 307/499/359 281/498/359
f 308/501/360 281/442/360 238/441/360
f 224/502/361 348/503/361 258/366/361
f 330/405/286 257/504/362 231/406/287
f 308/505/363 257/506/363 330/507/363
f 311/508/364 251/416/364 253/415/364 349/509/364
f 247/430/365 312/510/365 300/346/365 327/345/365
f 318/511/366 312/510/366 247/430/366 280/429/366
f 313/393/367 266/389/367 298/426/367 314/447/367
f 266/389/368 313/393/368 309/392/368 344/390/368
f 205/252/369 384/400/369 260/318/369 56/31/369
f 314/447/370 222/446/370 244/394/370 313/393/370
f 312/510/371 316/512/371 290/491/371
f 315/335/372 271/431/372 308/363/372 243/331/372
f 317/407/373 315/335/373 276/334/373
f 290/491/374 316/512/374 374/349/374 305/352/374
f 317/407/375 271/431/375 315/335/375
f 271/431/376 317/407/376 328/408/376 257/432/376
f 230/488/377 318/513/377 373/452/377 285/451/377
f 318/511/378 230/514/378 316/512/378 312/510/378
f 320/444/381 249/367/381 258/366/381 348/503/381
f 294/384/384 278/321/384 371/517/384 372/381/384
f 221/427/385 278/321/385 294/384/385
f 322/380/386 228/518/386 224/502/386 258/366/386
f 311/508/387 228/519/387 322/520/387 251/416/387
f 248/435/388 282/434/388 323/438/388 335/470/388
f 242/413/389 262/521/389 296/474/389 360/473/389
f 322/520/390 262/521/390 242/413/390 251/416/390
f 239/327/391 324/490/391 277/522/391 264/386/391
f 325/454/392 244/394/392 222/446/392 263/450/392
f 325/454/393 270/453/393 326/339/393 352/342/393
f 326/478/394 270/402/394 214/358/394 343/307/394
f 273/348/395 247/430/395 327/345/395
f 257/432/396 328/408/396 231/523/396
f 273/348/397 231/406/397 328/423/397
f 289/353/398 138/80/398 147/57/398 299/332/398
f 330/405/399 307/443/399 310/524/399
f 308/505/400 330/507/400 310/525/400
f 331/310/401 216/312/401 386/526/402 387/428/403
f 274/409/404 253/415/294 329/414/293 272/410/404
f 336/299/405 216/302/405 217/301/405 337/300/405
f 248/435/406 332/350/406 306/527/406 235/436/406
f 333/333/407 149/56/407 29/184/407 226/316/407
f 219/315/408 334/469/408 333/333/408 226/316/408
f 335/470/409 334/469/409 219/315/409 223/351/409
f 248/435/410 335/470/410 223/351/410 332/350/410
f 119/268/412 121/271/412 225/528/412 340/529/412
f 225/528/413 279/530/413 269/531/413 340/529/413
f 370/486/414 371/517/414 278/321/414 211/320/414
f 341/433/415 302/489/415 293/326/415 342/359/415
f 344/390/416 224/502/416 228/518/416 345/391/416
f 311/508/417 346/324/417 345/385/417 228/519/417
f 311/508/418 349/509/418 347/325/418 346/324/418
f 255/304/419 347/325/419 349/509/419 350/305/419
f 309/392/420 348/503/420 224/502/420 344/390/420
f 349/509/421 253/415/421 274/409/421 350/305/421
f 309/392/422 351/395/422 320/444/422 348/503/422
f 244/394/423 325/454/423 352/342/423 351/395/423
f 249/367/424 320/444/424 284/341/424 353/458/424
f 297/340/425 354/482/425 353/458/425 284/341/425
f 355/412/426 354/485/426 297/477/426 232/306/426
f 274/409/427 355/412/427 232/306/427 350/305/427
f 296/476/428 356/475/428 212/532/428
f 246/456/429 301/483/429 357/466/429 364/457/429
f 358/295/430 357/294/430 301/484/430 213/411/430
f 359/533/431 272/410/431 329/414/431 365/534/431
f 362/289/432 361/296/432 358/295/433 359/533/434
f 359/533/435 365/534/435 366/290/435 362/289/435
f 359/533/434 358/295/433 213/411/436 272/410/436
f 242/413/437 360/473/437 365/534/437 329/414/437
f 366/290/438 365/534/438 360/473/438 363/472/438
f 367/291/439 366/290/439 363/472/439 212/471/439
f 356/475/440 368/455/440 367/465/440 212/532/440
f 288/368/441 368/455/441 356/475/441 210/365/441
f 277/522/442 324/490/442 369/535/442 237/536/442
f 302/489/443 370/537/443 369/535/443 324/490/443
f 302/489/444 341/433/444 371/538/444 370/537/444
f 372/539/445 371/538/445 341/433/445 236/404/445
f 236/404/446 287/403/446 373/540/446 372/539/446
f 245/541/447 374/349/447 316/512/447 230/514/447
f 332/350/448 374/349/448 245/541/448 306/527/448
f 375/344/449 193/198/449 36/211/449 218/347/449
f 376/330/250 195/53/20 143/159/222 221/427/450
f 93/199/451 220/343/451 377/459/451 197/196/451
f 119/268/460 340/529/460 384/400/460 205/252/460
f 269/531/461 385/401/461 384/400/461 340/529/461
f 282/434/462 385/437/462 269/308/462
f 279/309/242 386/313/242 336/299/242
f 388/161/304 387/428/303 225/528/464 121/271/464
f 389/162/75 388/161/74 121/271/465 19/270/465
f 81/20/8 153/11/8 390/25/8
usemtl lambert4SG
f 10/13/4 22/14/4 9/15/4
f 140/22/7 9/23/7 22/24/7
f 52/62/23 64/63/23 90/64/23
f 64/114/45 78/115/45 22/24/45
f 140/22/68 22/24/68 78/115/68 42/156/68
f 10/13/88 156/39/88 90/64/88 22/14/88
f 22/14/89 90/64/89 64/63/89
f 52/62/182 90/64/182 156/39/182 157/178/182
f 217/301/238 216/302/238 227/303/238
f 331/310/241 227/311/241 216/312/241
f 52/62/254 286/338/254 64/63/254
f 64/114/275 227/311/275 78/115/275
f 331/310/298 42/156/298 78/115/298 227/311/298
f 217/301/317 227/303/317 286/338/317 339/322/317
f 227/303/318 64/63/318 286/338/318
f 52/62/411 157/178/411 339/322/411 286/338/411
usemtl lambert5SG
f 61/82/29 118/83/29 106/84/29 53/85/29
f 129/88/31 66/89/31 59/90/31
f 59/98/36 76/99/36 55/100/36
f 59/98/37 55/100/37 24/101/37
f 199/105/39 68/106/40 127/107/41
f 129/88/42 68/106/42 66/89/42
f 66/89/47 76/118/47 59/90/47
f 66/89/48 68/106/48 76/118/48
f 68/127/51 199/128/51 204/129/51 202/130/51
f 53/148/65 48/149/65 201/150/65 203/151/65
f 76/152/66 68/127/66 202/130/66 203/153/66
f 118/83/97 61/82/97 98/200/97 95/201/97
f 53/85/115 106/84/115 96/222/115
f 55/100/150 127/256/150 24/101/150
f 129/88/151 59/90/151 24/257/151
f 127/107/153 129/88/153 24/257/153
f 68/106/154 129/88/154 127/107/154
f 98/200/224 204/129/224 201/150/224 48/149/224
f 55/100/225 199/284/39 127/256/41
f 48/149/226 53/148/226 96/285/226 200/286/226
f 95/201/227 98/200/227 48/149/227 200/286/227
f 204/129/228 98/200/228 61/82/228 202/130/228
f 201/150/229 55/287/229 76/288/229 203/151/229
f 202/130/230 61/82/230 53/85/230 203/153/230
f 204/129/231 199/128/231 55/287/231 201/150/231
f 261/354/260 254/355/260 300/356/260 312/357/260
f 321/360/262 259/361/262 265/362/262
f 259/369/266 256/370/266 275/371/266
f 259/369/267 229/372/267 256/370/267
f 378/376/269 319/377/270 267/378/271
f 321/360/272 265/362/272 267/378/272
f 265/362/277 259/361/277 275/387/277
f 265/362/278 275/387/278 267/378/278
f 267/396/281 381/397/281 383/398/281 378/399/281
f 254/417/295 382/418/295 380/419/295 250/420/295
f 275/421/296 382/422/296 381/397/296 267/396/296
f 312/357/326 290/460/326 292/461/326 261/354/326
f 254/355/344 291/481/344 300/356/344
f 256/370/379 229/372/379 319/515/379
f 321/360/380 229/516/380 259/361/380
f 319/377/382 229/516/382 321/360/382
f 267/378/383 319/377/383 321/360/383
f 292/461/452 250/420/452 380/419/452 383/398/452
f 256/370/453 319/515/270 378/542/269
f 250/420/454 379/543/454 291/544/454 254/417/454
f 290/460/455 379/543/455 250/420/455 292/461/455
f 383/398/456 381/397/456 261/354/456 292/461/456
f 380/419/457 382/418/457 275/545/457 256/546/457
f 381/397/458 382/422/458 254/355/458 261/354/458
f 383/398/459 380/419/459 256/546/459 378/399/459
usemtl lambert6SG
f 387/428/403 386/526/402 279/530/463 225/528/463
f 390/266/174 389/162/173 19/270/466 81/273/466
