# Blender 4.4.1
# www.blender.org
mtllib stone3.mtl
o 立方体.022
v -43.404911 -0.079491 -54.940784
v -42.162384 -0.079491 -51.029140
v -44.213295 0.442739 -54.568554
v -46.838093 -0.079491 -57.584957
v -50.354103 -0.079491 -58.986805
v -47.128479 0.442739 -56.015980
v -48.197037 -0.079491 -52.315388
v -49.272228 -0.079491 -48.591816
v -51.920605 -0.079491 -53.390575
v -52.995796 -0.079491 -49.667004
v -55.644173 -0.079491 -54.465763
v -54.182350 -0.079491 -59.437363
v -56.719364 -0.079491 -50.742203
v -60.519501 -0.079491 -55.765156
v -58.299175 -0.079491 -59.241554
v -62.802002 -0.079491 -52.198376
v -60.303925 0.442739 -56.082806
v -58.056232 0.442739 -58.691086
v -61.490093 0.442739 -51.708736
v -58.970638 0.964969 -55.426296
v -56.532734 0.964969 -57.276699
v -60.690674 0.964969 -51.939564
v -57.677162 1.487198 -54.600048
v -56.790058 1.487198 -56.405186
v -58.784958 1.487198 -51.819450
v -57.405201 1.739290 -53.707737
v -56.884613 1.643855 -55.477123
v -57.687923 1.593564 -51.010643
v -55.023647 2.051955 -53.126331
v -54.626045 1.746066 -55.753426
v -55.715759 2.110415 -50.452412
v -51.920605 1.934815 -53.390575
v -51.797131 1.698511 -55.155151
v -52.995796 2.114414 -49.667004
v -49.146767 1.848551 -51.690830
v -49.845406 1.780790 -52.785515
v -50.056114 1.861424 -48.818161
v -48.170841 1.772014 -50.611813
v -48.080410 1.655808 -52.492702
v -48.418262 1.749665 -48.345234
v -46.387787 1.487198 -50.746387
v -47.854095 1.487198 -52.868008
v -47.723999 1.453273 -47.606148
v -46.023266 0.964969 -51.068417
v -45.531364 0.964969 -53.614082
v -45.945759 0.964969 -47.631290
v -44.473473 0.442739 -51.240189
v -45.548664 0.442739 -47.516628
v -46.623856 0.442739 -43.793056
v -42.945946 -0.079491 -46.741394
v -45.153477 -0.079491 -43.175545
v -47.705681 -0.079491 -40.046520
v -50.347424 -0.079491 -44.868252
v -51.528336 -0.079491 -39.960407
v -54.070992 -0.079491 -45.943439
v -55.603062 -0.079491 -40.490452
v -57.794556 -0.079491 -47.018635
v -59.116394 -0.079491 -42.130405
v -63.353119 -0.041883 -48.306755
v -62.599945 -0.079491 -44.347290
v -62.155514 0.442739 -47.931522
v -61.522057 0.442739 -44.979477
v -61.121029 0.964969 -47.979164
v -60.802589 0.964969 -45.509598
v -59.740734 1.369238 -48.445408
v -59.353031 1.487198 -46.520790
v -58.247387 1.688563 -48.593208
v -58.554611 1.629606 -46.629635
v -56.587307 1.894498 -47.615963
v -56.665257 1.740707 -46.388973
v -53.384495 1.944321 -47.195484
v -53.781162 1.748147 -45.168964
v -51.465546 1.868808 -47.331150
v -52.200706 1.765129 -44.894840
v -49.556938 1.775403 -44.639996
v -50.363995 1.670323 -43.975273
v -48.532803 1.487198 -44.344273
v -49.959782 1.487198 -43.186405
v -47.675076 0.964969 -44.649185
v -49.074909 0.964969 -42.292759
v -48.635010 0.442739 -41.168919
v -50.791992 0.964969 -41.108852
v -55.221214 0.964969 -42.185589
v -52.047066 1.487198 -43.416519
v -51.431057 0.442739 -40.733093
v -55.317276 0.442739 -41.668095
v -59.375942 0.442739 -42.672241
v -59.180931 0.964969 -43.722118
v -56.969410 1.487198 -45.297520
v -54.998608 1.487198 -44.217583
v -47.128479 0.964969 -56.015980
v -50.852043 0.964969 -57.091167
v -49.268116 1.487198 -54.409111
v -51.842323 1.487198 -55.990635
v -54.372974 1.487198 -56.470921
v -54.575611 0.964969 -58.166367
v -54.575611 0.442739 -58.166367
v -50.852043 0.442739 -57.091167
v 43.659000 -0.079491 -35.884415
v 41.380077 -0.079491 -39.297821
v 44.332390 0.442739 -36.466290
v 47.690971 -0.079491 -34.296463
v 51.457870 -0.079491 -33.925045
v 47.534691 0.442739 -35.884411
v 47.534691 -0.079491 -39.736198
v 47.534691 -0.079491 -43.611889
v 51.410381 -0.079491 -39.736198
v 51.410381 -0.079491 -43.611881
v 55.286076 -0.079491 -39.736195
v 55.260857 -0.079491 -34.554199
v 55.286076 -0.079491 -43.611881
v 60.330524 -0.079491 -39.840321
v 59.161762 -0.079491 -35.884415
v 61.533936 -0.079491 -43.900311
v 60.211517 0.442739 -39.475334
v 58.775646 0.442739 -36.345875
v 60.137684 0.442739 -44.006779
v 58.748447 0.964969 -39.736198
v 56.919567 0.964969 -37.282097
v 59.433678 0.964969 -43.563236
v 57.276516 1.487198 -40.171177
v 56.925018 1.487198 -38.190788
v 57.569447 1.487198 -43.149956
v 56.767693 1.739290 -40.953018
v 56.758392 1.643855 -39.108658
v 56.291088 1.593564 -43.622677
v 54.318321 1.895968 -40.850910
v 54.665127 1.746066 -38.216625
v 55.286076 1.880284 -43.611881
v 51.410381 1.934815 -39.736198
v 51.781281 1.698511 -38.006622
v 51.410381 2.114414 -43.611881
v 48.273884 1.848551 -40.599705
v 48.791492 1.780790 -38.461132
v 48.350597 1.861424 -43.611881
v 47.036915 1.772014 -41.365627
v 47.471832 1.655808 -39.533482
v 46.645840 1.749664 -43.611885
v 45.361187 1.487198 -40.741680
v 47.358517 1.487198 -39.110130
v 45.773785 1.453273 -44.129356
v 45.100315 0.964969 -40.331169
v 45.333935 0.964969 -37.748959
v 44.072319 0.964969 -43.611889
v 43.659000 0.442739 -39.736191
v 43.659004 0.442739 -43.611889
v 43.658997 0.442739 -47.487576
v 40.943375 -0.079491 -43.634636
v 42.075020 -0.079491 -47.672939
v 43.659000 -0.079491 -51.387177
v 47.534691 -0.079491 -47.487576
v 47.307720 -0.079491 -52.530380
v 51.410385 -0.079491 -47.487579
v 51.369556 -0.079491 -53.151558
v 55.286072 -0.079491 -47.487579
v 55.199944 -0.079491 -52.550644
v 60.983807 -0.041883 -47.792065
v 59.161762 -0.079491 -51.387177
v 59.729118 0.442739 -47.820339
v 58.301571 0.442739 -50.480778
v 58.748444 0.964969 -47.487576
v 57.757397 0.964969 -49.771873
v 57.551666 1.369238 -46.656712
v 56.645256 1.487198 -48.398232
v 56.157951 1.688563 -46.100430
v 55.908379 1.629606 -48.072166
v 54.291920 1.894498 -46.578777
v 54.026428 1.740707 -47.779236
v 51.098175 1.944321 -46.094234
v 50.917076 1.748147 -48.151249
v 49.292187 1.868808 -45.431534
v 49.322609 1.765129 -47.976170
v 46.711906 1.775403 -47.487576
v 47.302887 1.670322 -48.350101
v 45.645943 1.487198 -47.487576
v 46.695686 1.487198 -48.995869
v 44.906460 0.964969 -46.956680
v 45.597637 0.964969 -49.608963
v 44.863228 0.442739 -50.566654
v 46.918888 0.964969 -51.222752
v 51.472961 0.964969 -51.417019
v 48.764889 1.487198 -49.353836
v 47.428619 0.442739 -51.761051
v 51.421688 0.442739 -51.940857
v 55.599617 0.442739 -52.102081
v 55.703518 0.964969 -51.039310
v 54.015850 1.487198 -48.912228
v 51.822811 1.487198 -49.403034
v 47.534691 0.964969 -35.884411
v 51.410378 0.964969 -35.884411
v 49.144562 1.487198 -38.021790
v 52.056484 1.487198 -37.216476
v 54.621040 1.487198 -37.457085
v 55.286072 0.964969 -35.884418
v 55.286072 0.442739 -35.884418
v 51.410378 0.442739 -35.884411
v 34.085587 -0.079491 -62.897591
v 37.812546 -0.079491 -64.616501
v 34.555374 0.442739 -62.141727
v 31.888462 -0.079491 -59.162491
v 30.934322 -0.079491 -55.499554
v 33.481361 0.442739 -59.069290
v 37.286045 -0.079491 -58.468792
v 41.114346 -0.079491 -57.864567
v 36.681820 -0.079491 -54.640495
v 40.510120 -0.079491 -54.036270
v 36.077595 -0.079491 -50.812195
v 30.962891 -0.079491 -51.644989
v 39.905895 -0.079491 -50.207970
v 35.394005 -0.079491 -45.813190
v 31.668682 -0.079491 -47.584393
v 39.216736 -0.079491 -43.991531
v 35.052040 0.442739 -45.987640
v 32.184700 0.442739 -47.893845
v 39.539585 0.442739 -45.354118
v 35.537807 0.964969 -47.392159
v 33.398834 0.964969 -49.581264
v 39.211224 0.964969 -46.118656
v 36.196938 1.487198 -48.778275
v 34.295567 1.487198 -49.434216
v 39.093632 1.487198 -48.024525
v 37.048546 1.739290 -49.158989
v 35.228191 1.643855 -49.455704
v 39.759865 1.593564 -49.213554
v 37.329552 2.051955 -51.594322
v 34.673412 1.746066 -51.662449
v 40.068752 2.110415 -51.239799
v 36.681820 1.934815 -54.640495
v 34.915569 1.698511 -54.543770
v 40.510120 2.114414 -54.036270
v 38.023758 1.848551 -57.604023
v 37.024361 1.780790 -56.774792
v 40.987144 1.861424 -57.058643
v 38.973160 1.772014 -58.706455
v 37.095608 1.655808 -58.562489
v 41.252922 1.749664 -58.742565
v 38.618092 1.487198 -60.458969
v 36.695091 1.487198 -58.740414
v 41.900017 1.453273 -59.523262
v 38.253265 0.964969 -60.780651
v 35.666214 0.964969 -60.952454
v 41.654137 0.964969 -61.284603
v 37.890274 0.442739 -62.297092
v 41.718575 0.442739 -61.692867
v 45.546875 0.442739 -61.088642
v 42.164410 -0.079491 -64.371742
v 45.976913 -0.079491 -62.624355
v 49.398788 -0.079491 -60.480686
v 44.942646 -0.079491 -57.260342
v 49.959183 -0.079491 -56.698357
v 44.338421 -0.079491 -53.432041
v 49.939514 -0.079491 -52.589340
v 43.734196 -0.079491 -49.603741
v 48.748779 -0.079491 -48.899479
v 43.146679 -0.041883 -43.928204
v 46.981888 -0.079491 -45.167488
v 43.370216 0.442739 -45.163147
v 46.220676 0.442739 -46.158474
v 43.194408 0.964969 -46.183704
v 45.605270 0.964969 -46.806511
v 42.560280 1.369238 -47.495380
v 44.421814 1.487198 -48.119198
v 42.228085 1.688563 -48.958782
v 44.214615 1.629606 -48.897907
v 42.991497 1.894498 -50.727421
v 44.218666 1.740707 -50.802517
v 43.010792 1.944321 -53.957653
v 45.070889 1.748147 -53.815845
v 42.637753 1.868808 -55.844879
v 45.146530 1.765129 -55.418118
v 45.070919 1.775403 -58.073055
v 45.830765 1.670322 -57.354843
v 45.237106 1.487198 -59.126011
v 46.563293 1.487198 -57.853951
v 44.827984 0.964969 -59.939201
v 47.340080 0.964969 -58.842991
v 48.400562 0.442739 -59.419117
v 48.728149 0.964969 -57.286301
v 48.210060 0.964969 -52.757629
v 46.594299 1.487198 -55.754234
v 49.180405 0.442739 -56.698883
v 48.735481 0.442739 -52.726597
v 48.243389 0.442739 -48.574623
v 47.177422 0.964969 -48.637676
v 45.339455 1.487198 -50.636330
v 46.166157 1.487198 -52.726040
v 33.481361 0.964969 -59.069290
v 32.877132 0.964969 -55.240993
v 35.341614 1.487198 -57.145878
v 34.092178 1.487198 -54.395119
v 33.930031 1.487198 -51.824413
v 32.272907 0.964969 -51.412693
v 32.272907 0.442739 -51.412693
v 32.877132 0.442739 -55.240993
v 17.753674 -0.079491 -48.512684
v 15.474749 -0.079491 -51.926090
v 18.427063 0.442739 -49.094563
v 21.785643 -0.079491 -46.924732
v 25.552546 -0.079491 -46.553314
v 21.629360 0.442739 -48.512684
v 21.629362 -0.079491 -52.364468
v 21.629364 -0.079491 -56.240158
v 25.505049 -0.079491 -52.364468
v 25.505051 -0.079491 -56.240158
v 29.380745 -0.079491 -52.364468
v 29.355526 -0.079491 -47.182472
v 29.380745 -0.079491 -56.240154
v 34.425194 -0.079491 -52.468594
v 33.256435 -0.079491 -48.512688
v 35.628605 -0.079491 -56.528584
v 34.306190 0.442739 -52.103611
v 32.870316 0.442739 -48.974148
v 34.232353 0.442739 -56.635052
v 32.843109 0.964969 -52.364471
v 31.014240 0.964969 -49.910370
v 33.528351 0.964969 -56.191509
v 31.371185 1.487198 -52.799446
v 31.019688 1.487198 -50.819065
v 31.664116 1.487198 -55.778225
v 30.862362 1.739290 -53.581287
v 30.853065 1.643855 -51.736927
v 30.385759 1.593564 -56.250950
v 28.412994 1.895968 -53.479183
v 28.759796 1.746066 -50.844902
v 29.380745 1.880284 -56.240154
v 25.505049 1.934815 -52.364468
v 25.875954 1.698511 -50.634892
v 25.505051 2.114414 -56.240158
v 22.368553 1.848551 -53.227978
v 22.886164 1.780790 -51.089405
v 22.445271 1.861424 -56.240158
v 21.131588 1.772014 -53.993904
v 21.566505 1.655808 -52.161751
v 20.740513 1.749664 -56.240154
v 19.455860 1.487198 -53.369953
v 21.453188 1.487198 -51.738400
v 19.868458 1.453273 -56.757626
v 19.194984 0.964969 -52.959442
v 19.428604 0.964969 -50.377232
v 18.166990 0.964969 -56.240158
v 17.753674 0.442739 -52.364464
v 17.753672 0.442739 -56.240162
v 17.753674 0.442739 -60.115845
v 15.038050 -0.079491 -56.262909
v 16.169695 -0.079491 -60.301216
v 17.753672 -0.079491 -64.015442
v 21.629364 -0.079491 -60.115849
v 21.402391 -0.079491 -65.158653
v 25.505056 -0.079491 -60.115856
v 25.464228 -0.079491 -65.779831
v 29.380745 -0.079491 -60.115845
v 29.294617 -0.079491 -65.178917
v 35.078480 -0.041883 -60.420334
v 33.256435 -0.079491 -64.015457
v 33.823792 0.442739 -60.448616
v 32.396244 0.442739 -63.109055
v 32.843117 0.964969 -60.115845
v 31.852066 0.964969 -62.400143
v 31.646339 1.369238 -59.284988
v 30.739933 1.487198 -61.026501
v 30.252623 1.688563 -58.728695
v 30.003048 1.629606 -60.700436
v 28.386593 1.894498 -59.207047
v 28.121098 1.740707 -60.407501
v 25.192848 1.944321 -58.722504
v 25.011749 1.748147 -60.779514
v 23.386860 1.868808 -58.059807
v 23.417278 1.765129 -60.604446
v 20.806581 1.775403 -60.115852
v 21.397558 1.670322 -60.978378
v 19.740610 1.487198 -60.115845
v 20.790359 1.487198 -61.624138
v 19.001133 0.964969 -59.584949
v 19.692307 0.964969 -62.237236
v 18.957899 0.442739 -63.194923
v 21.013557 0.964969 -63.851021
v 25.567631 0.964969 -64.045296
v 22.859560 1.487198 -61.982113
v 21.523293 0.442739 -64.389320
v 25.516357 0.442739 -64.569138
v 29.694296 0.442739 -64.730354
v 29.798191 0.964969 -63.667583
v 28.110521 1.487198 -61.540497
v 25.917482 1.487198 -62.031303
v 21.629360 0.964969 -48.512684
v 25.505051 0.964969 -48.512684
v 23.239237 1.487198 -50.650059
v 26.151154 1.487198 -49.844746
v 28.715714 1.487198 -50.085361
v 29.380747 0.964969 -48.512688
v 29.380747 0.442739 -48.512688
v 25.505051 0.442739 -48.512684
v 3.636601 -0.079491 -64.649559
v 7.363562 -0.079491 -66.368462
v 4.106387 0.442739 -63.893692
v 1.439475 -0.079491 -60.914452
v 0.485337 -0.079491 -57.251514
v 3.032376 0.442739 -60.821255
v 6.837059 -0.079491 -60.220760
v 10.665361 -0.079491 -59.616531
v 6.232834 -0.079491 -56.392460
v 10.061136 -0.079491 -55.788231
v 5.628608 -0.079491 -52.564156
v 0.513908 -0.079491 -53.396950
v 9.456909 -0.079491 -51.959927
v 4.945026 -0.079491 -47.565151
v 1.219699 -0.079491 -49.336349
v 8.767757 -0.079491 -45.743496
v 4.603054 0.442739 -47.739597
v 1.735714 0.442739 -49.645809
v 9.090601 0.442739 -47.106083
v 5.088820 0.964969 -49.144119
v 2.949857 0.964969 -51.333229
v 8.762238 0.964969 -47.870621
v 5.747958 1.487198 -50.530235
v 3.846584 1.487198 -51.186180
v 8.644650 1.487198 -49.776489
v 6.599564 1.739290 -50.910954
v 4.779209 1.643855 -51.207668
v 9.310886 1.593564 -50.965515
v 6.880565 2.051955 -53.346287
v 4.224432 1.746066 -53.414410
v 9.619764 2.110415 -52.991760
v 6.232834 1.934815 -56.392460
v 4.466587 1.698511 -56.295734
v 10.061136 2.114414 -55.788231
v 7.574777 1.848551 -59.355988
v 6.575377 1.780790 -58.526752
v 10.538160 1.861424 -58.810596
v 8.524179 1.772014 -60.458416
v 6.646623 1.655808 -60.314449
v 10.803936 1.749664 -60.494518
v 8.169106 1.487198 -62.210934
v 6.246112 1.487198 -60.492382
v 11.451029 1.453273 -61.275227
v 7.804285 0.964969 -62.532619
v 5.217227 0.964969 -62.704418
v 11.205150 0.964969 -63.036564
v 7.441285 0.442739 -64.049057
v 11.269587 0.442739 -63.444828
v 15.097887 0.442739 -62.840603
v 11.715430 -0.079491 -66.123695
v 15.527927 -0.079491 -64.376312
v 18.949806 -0.079491 -62.232651
v 14.493662 -0.079491 -59.012306
v 19.510197 -0.079491 -58.450325
v 13.889437 -0.079491 -55.184006
v 19.490528 -0.079491 -54.341305
v 13.285212 -0.079491 -51.355701
v 18.299801 -0.079491 -50.651440
v 12.697695 -0.041883 -45.680164
v 16.532906 -0.079491 -46.919449
v 12.921230 0.442739 -46.915112
v 15.771694 0.442739 -47.910435
v 12.745422 0.964969 -47.935665
v 15.156290 0.964969 -48.558472
v 12.111300 1.369238 -49.247341
v 13.972834 1.487198 -49.871159
v 11.779099 1.688563 -50.710747
v 13.765635 1.629606 -50.649868
v 12.542513 1.894498 -52.479385
v 13.769685 1.740707 -52.554482
v 12.561803 1.944321 -55.709618
v 14.621904 1.748147 -55.567810
v 12.188766 1.868808 -57.596840
v 14.697544 1.765129 -57.170082
v 14.621935 1.775403 -59.825024
v 15.381781 1.670322 -59.106812
v 14.788122 1.487198 -60.877968
v 16.114315 1.487198 -59.605904
v 14.379005 0.964969 -61.691158
v 16.891098 0.964969 -60.594952
v 17.951574 0.442739 -61.171078
v 18.279167 0.964969 -59.038265
v 17.761082 0.964969 -54.509586
v 16.145321 1.487198 -57.506199
v 18.731415 0.442739 -58.450840
v 18.286503 0.442739 -54.478561
v 17.794405 0.442739 -50.326588
v 16.728439 0.964969 -50.389637
v 14.890471 1.487198 -52.388294
v 15.717180 1.487198 -54.478001
v 3.032376 0.964969 -60.821255
v 2.428151 0.964969 -56.992954
v 4.892631 1.487198 -58.897842
v 3.643197 1.487198 -56.147083
v 3.481049 1.487198 -53.576370
v 1.823925 0.964969 -53.164650
v 1.823925 0.442739 -53.164650
v 2.428151 0.442739 -56.992954
v -4.458222 -0.079491 -66.779907
v -0.523062 -0.079491 -65.613998
v -4.603602 0.442739 -65.901894
v -8.573144 -0.079491 -65.421318
v -11.706134 -0.079491 -63.297195
v -7.437243 0.442739 -64.300713
v -4.973345 -0.079491 -61.340065
v -2.494155 -0.079491 -58.361038
v -7.952371 -0.079491 -58.860874
v -5.473174 -0.079491 -55.881847
v -10.931395 -0.079491 -56.381680
v -14.226816 -0.079491 -60.380924
v -8.452200 -0.079491 -53.402660
v -14.742168 -0.079491 -53.074818
v -16.374315 -0.079491 -56.863132
v -13.070080 -0.079491 -49.184345
v -14.884174 0.442739 -53.431488
v -15.782344 0.442739 -56.755428
v -11.928755 0.442739 -49.995663
v -13.592725 0.964969 -54.166874
v -13.756797 0.964969 -57.223095
v -11.671351 0.964969 -50.786919
v -12.183087 1.487198 -54.774090
v -13.179721 1.487198 -56.521152
v -10.502784 1.487198 -52.297096
v -11.291856 1.739290 -54.498631
v -12.464506 1.643855 -55.922215
v -9.217798 1.593564 -52.751480
v -9.474482 2.051955 -56.143913
v -11.426142 1.746066 -57.946888
v -7.649275 2.110415 -54.070869
v -7.952371 1.934815 -58.860874
v -9.343830 1.698510 -59.953037
v -5.473174 2.114413 -55.881847
v -4.989147 1.848551 -60.203487
v -6.287282 1.780790 -60.239288
v -3.121295 1.861424 -57.839123
v -3.548423 1.772013 -60.406025
v -5.054703 1.655808 -61.536098
v -1.810942 1.749664 -58.929623
v -2.659508 1.487198 -61.957546
v -5.238417 1.487198 -61.933983
v -0.809634 1.453273 -59.089706
v -2.721584 0.964969 -62.439960
v -4.552935 0.964968 -64.275314
v 0.167175 0.964969 -60.575844
v -1.994320 0.442739 -63.819260
v 0.484871 0.442739 -60.840237
v 2.964064 0.442739 -57.861206
v 2.586768 -0.079491 -62.559872
v 4.300147 -0.079491 -58.731968
v 5.458550 -0.079491 -54.863811
v -0.014960 -0.079491 -55.382019
v 3.385272 -0.079491 -51.651081
v -2.993984 -0.079491 -52.902828
v 0.660519 -0.079491 -48.575352
v -5.973010 -0.079491 -50.423630
v -2.668075 -0.079491 -46.587029
v -10.157756 -0.041883 -46.544876
v -6.457543 -0.079491 -44.947037
v -9.175262 0.442739 -47.325737
v -6.376163 0.442739 -46.193981
v -8.634336 0.964969 -48.208832
v -6.411366 0.964969 -47.086975
v -8.245927 1.369238 -49.613014
v -6.435211 1.487198 -48.854221
v -7.530495 1.688563 -50.932133
v -6.077390 1.629606 -49.576218
v -5.790198 1.894498 -51.758118
v -4.818221 1.740707 -51.005219
v -3.645299 1.944321 -54.173519
v -2.190270 1.748146 -52.708248
v -2.681048 1.868808 -55.838146
v -1.076687 1.765129 -53.862774
v 0.617465 1.775402 -55.908333
v 0.714951 1.670322 -54.867321
v 1.436819 1.487198 -56.590214
v 1.594753 1.487198 -54.759373
v 1.665609 0.964969 -57.471302
v 2.830945 0.964968 -54.990524
v 4.008062 0.442739 -54.724182
v 2.847678 0.964969 -52.904922
v -0.528505 0.964969 -49.842453
v 0.233265 1.487198 -53.160603
v 2.800218 0.442739 -52.165096
v -0.154011 0.442739 -49.472610
v -3.262219 0.442739 -46.676163
v -4.021910 0.964968 -47.426582
v -4.085340 1.487198 -50.141121
v -2.085715 1.487198 -51.166702
v -7.437243 0.964969 -64.300713
v -10.416266 0.964969 -61.821522
v -7.307437 1.487198 -61.628040
v -10.060804 1.487198 -60.384342
v -11.878118 1.487198 -58.558903
v -13.395291 0.964969 -59.342327
v -13.395291 0.442739 -59.342327
v -10.416266 0.442739 -61.821522
v -44.613525 -0.079491 -65.476669
v -40.886566 -0.079491 -67.195572
v -44.143738 0.442739 -64.720802
v -46.810650 -0.079491 -61.741558
v -47.764790 -0.079491 -58.078625
v -45.217751 0.442739 -61.648365
v -41.413067 -0.079491 -61.047867
v -37.584766 -0.079491 -60.443642
v -42.017292 -0.079491 -57.219563
v -38.188992 -0.079491 -56.615337
v -42.621517 -0.079491 -53.391262
v -47.736217 -0.079491 -54.224056
v -38.793217 -0.079491 -52.787037
v -43.305099 -0.079491 -48.392262
v -47.030426 -0.079491 -50.163460
v -39.482368 -0.079491 -46.570602
v -43.647068 0.442739 -48.566708
v -46.514412 0.442739 -50.472919
v -39.159523 0.442739 -47.933186
v -43.161308 0.964969 -49.971226
v -45.300270 0.964969 -52.160336
v -39.487888 0.964969 -48.697727
v -42.502167 1.487198 -51.357346
v -44.403542 1.487198 -52.013290
v -39.605476 1.487198 -50.603596
v -41.650562 1.739290 -51.738060
v -43.470917 1.643855 -52.034779
v -38.939243 1.593564 -51.792625
v -41.369560 2.051955 -54.173389
v -44.025696 1.746066 -54.241520
v -38.630363 2.110415 -53.818871
v -42.017292 1.934815 -57.219563
v -43.783539 1.698510 -57.122841
v -38.188992 2.114413 -56.615337
v -40.675350 1.848551 -60.183094
v -41.674747 1.780790 -59.353863
v -37.711967 1.861424 -59.637707
v -39.725945 1.772013 -61.285522
v -41.603504 1.655808 -61.141560
v -37.446190 1.749664 -61.321629
v -40.081020 1.487198 -63.038036
v -42.004013 1.487198 -61.319492
v -36.799095 1.453273 -62.102341
v -40.445843 0.964969 -63.359718
v -43.032894 0.964968 -63.531528
v -37.044975 0.964969 -63.863678
v -40.808842 0.442739 -64.876175
v -36.980541 0.442739 -64.271942
v -33.152233 0.442739 -63.667717
v -36.534695 -0.079491 -66.950806
v -32.722198 -0.079491 -65.203430
v -29.300320 -0.079491 -63.059765
v -33.756462 -0.079491 -59.839417
v -28.739925 -0.079491 -59.277431
v -34.360687 -0.079491 -56.011112
v -28.759596 -0.079491 -55.168411
v -34.964912 -0.079491 -52.182812
v -29.950329 -0.079491 -51.478546
v -35.552433 -0.041883 -46.507275
v -31.717220 -0.079491 -47.746555
v -35.328896 0.442739 -47.742218
v -32.478428 0.442739 -48.737545
v -35.504700 0.964969 -48.762775
v -33.093842 0.964969 -49.385578
v -36.138824 1.369238 -50.074448
v -34.277290 1.487198 -50.698269
v -36.471024 1.688563 -51.537853
v -34.484489 1.629606 -51.476974
v -35.707607 1.894498 -53.306492
v -34.480442 1.740707 -53.381584
v -35.688324 1.944321 -56.536728
v -33.628220 1.748146 -56.394913
v -36.061359 1.868808 -58.423946
v -33.552582 1.765129 -57.997189
v -33.628189 1.775402 -60.652130
v -32.868343 1.670322 -59.933918
v -33.462002 1.487198 -61.705074
v -32.135811 1.487198 -60.433014
v -33.871124 0.964969 -62.518272
v -31.359028 0.964968 -61.422058
v -30.298550 0.442739 -61.998180
v -29.970957 0.964969 -59.865376
v -30.489040 0.964969 -55.336697
v -32.104809 1.487198 -58.333305
v -29.518707 0.442739 -59.277950
v -29.963623 0.442739 -55.305668
v -30.455715 0.442739 -51.153690
v -31.521688 0.964968 -51.216743
v -33.359650 1.487198 -53.215401
v -32.532948 1.487198 -55.305111
v -45.217751 0.964969 -61.648365
v -45.821976 0.964969 -57.820061
v -43.357494 1.487198 -59.724949
v -44.606930 1.487198 -56.974194
v -44.769077 1.487198 -54.403481
v -46.426201 0.964969 -53.991760
v -46.426201 0.442739 -53.991760
v -45.821976 0.442739 -57.820061
v -13.085250 -0.079491 -60.692776
v -11.842724 -0.079491 -56.781132
v -13.893633 0.442739 -60.320545
v -16.518433 -0.079491 -63.336945
v -20.034443 -0.079491 -64.738800
v -16.808819 0.442739 -61.767967
v -17.877377 -0.079491 -58.067375
v -18.952568 -0.079491 -54.343807
v -21.600941 -0.079491 -59.142563
v -22.676132 -0.079491 -55.418991
v -25.324509 -0.079491 -60.217754
v -23.862694 -0.079491 -65.189362
v -26.399700 -0.079491 -56.494190
v -30.199844 -0.079491 -61.517147
v -27.979517 -0.079491 -64.993546
v -32.482338 -0.079491 -57.950363
v -29.984261 0.442739 -61.834793
v -27.736574 0.442739 -64.443077
v -31.170429 0.442739 -57.460728
v -28.650976 0.964969 -61.178288
v -26.213074 0.964969 -63.028690
v -30.371014 0.964969 -57.691555
v -27.357498 1.487198 -60.352039
v -26.470394 1.487198 -62.157177
v -28.465298 1.487198 -57.571438
v -27.085537 1.739290 -59.459724
v -26.564949 1.643855 -61.229111
v -27.368259 1.593564 -56.762630
v -24.703989 2.051955 -58.878323
v -24.306377 1.746066 -61.505417
v -25.396097 2.110415 -56.204399
v -21.600941 1.934815 -59.142563
v -21.477468 1.698511 -60.907139
v -22.676132 2.114414 -55.418991
v -18.827106 1.848551 -57.442818
v -19.525745 1.780790 -58.537502
v -19.736452 1.861424 -54.570148
v -17.851177 1.772014 -56.363800
v -17.760746 1.655809 -58.244686
v -18.098600 1.749664 -54.097221
v -16.068125 1.487198 -56.498375
v -17.534433 1.487198 -58.619995
v -17.404337 1.453273 -53.358135
v -15.703604 0.964969 -56.820404
v -15.211704 0.964969 -59.366066
v -15.626098 0.964969 -53.383278
v -14.153810 0.442739 -56.992176
v -15.229002 0.442739 -53.268616
v -16.304195 0.442739 -49.545048
v -12.626286 -0.079491 -52.493385
v -14.833813 -0.079491 -48.927532
v -17.386019 -0.079491 -45.798508
v -20.027761 -0.079491 -50.620235
v -21.208672 -0.079491 -45.712395
v -23.751328 -0.079491 -51.695431
v -25.283403 -0.079491 -46.242435
v -27.474892 -0.079491 -52.770622
v -28.796741 -0.079491 -47.882393
v -33.033455 -0.041883 -54.058750
v -32.280285 -0.079491 -50.099274
v -31.835857 0.442739 -53.683510
v -31.202396 0.442739 -50.731461
v -30.801363 0.964969 -53.731148
v -30.482922 0.964969 -51.261585
v -29.421062 1.369238 -54.197392
v -29.033365 1.487198 -52.272778
v -27.927727 1.688563 -54.345196
v -28.234945 1.629606 -52.381618
v -26.267643 1.894498 -53.367954
v -26.345596 1.740707 -52.140965
v -23.064833 1.944321 -52.947475
v -23.461500 1.748147 -50.920956
v -21.145882 1.868808 -53.083138
v -21.881046 1.765129 -50.646828
v -19.237274 1.775403 -50.391987
v -20.044334 1.670323 -49.727264
v -18.213142 1.487198 -50.096260
v -19.640120 1.487198 -48.938393
v -17.355412 0.964969 -50.401176
v -18.755249 0.964969 -48.044746
v -18.315348 0.442739 -46.920902
v -20.472336 0.964969 -46.860836
v -24.901554 0.964969 -47.937580
v -21.727406 1.487198 -49.168507
v -21.111395 0.442739 -46.485077
v -24.997614 0.442739 -47.420086
v -29.056284 0.442739 -48.424225
v -28.861277 0.964969 -49.474102
v -26.649748 1.487198 -51.049507
v -24.678947 1.487198 -49.969574
v -16.808819 0.964969 -61.767967
v -20.532383 0.964969 -62.843159
v -18.948452 1.487198 -60.161098
v -21.522665 1.487198 -61.742622
v -24.053310 1.487198 -62.222912
v -24.255949 0.964969 -63.918346
v -24.255949 0.442739 -63.918346
v -20.532383 0.442739 -62.843159
vn 0.1862 -0.9754 -0.1181
vn 0.2613 -0.9652 -0.0137
vn 0.3440 0.9175 -0.1996
vn 0.0999 -0.9767 -0.1901
vn 0.0567 -0.9731 -0.2234
vn 0.2219 0.8615 -0.4568
vn -0.0000 -1.0000 -0.0000
vn 0.0158 -0.9797 -0.2001
vn -0.0012 -1.0000 0.0006
vn -0.1297 -0.9892 -0.0677
vn -0.0858 -0.9801 -0.1788
vn -0.1938 -0.9787 -0.0672
vn -0.5187 0.8078 -0.2800
vn -0.1567 0.8966 -0.4141
vn -0.4700 0.8747 -0.1184
vn -0.2685 0.9432 -0.1959
vn -0.1727 0.9053 -0.3882
vn -0.3503 0.9320 -0.0932
vn -0.3296 0.9330 -0.1447
vn -0.1385 0.9572 -0.2542
vn -0.1964 0.9795 -0.0438
vn -0.1756 0.9821 -0.0684
vn -0.1300 0.9815 -0.1405
vn -0.1245 0.9921 -0.0162
vn -0.0302 0.9973 -0.0668
vn -0.0139 0.9831 -0.1824
vn -0.0703 0.9975 0.0082
vn 0.0565 0.9952 -0.0805
vn 0.0875 0.9803 -0.1769
vn 0.0262 0.9994 0.0213
vn 0.0857 0.9954 -0.0431
vn 0.1056 0.9858 -0.1309
vn 0.0653 0.9973 0.0348
vn 0.1118 0.9937 -0.0044
vn 0.1601 0.9791 -0.1253
vn 0.1250 0.9913 0.0408
vn 0.3129 0.9488 -0.0421
vn 0.2579 0.9498 -0.1774
vn 0.3017 0.9465 0.1146
vn 0.4229 0.9059 0.0210
vn 0.2834 0.9560 -0.0761
vn 0.5117 0.8456 0.1521
vn 0.2921 0.9557 0.0370
vn 0.2934 0.9515 0.0924
vn 0.3142 0.9361 0.1583
vn 0.2510 -0.9627 0.1012
vn 0.1846 -0.9762 0.1138
vn 0.1088 -0.9718 0.2090
vn -0.0099 -0.9839 0.1785
vn -0.0547 -0.9805 0.1889
vn -0.0022 -1.0000 -0.0015
vn -0.0689 -0.9870 0.1451
vn -0.2209 -0.9753 0.0014
vn -0.1782 -0.9785 0.1036
vn -0.4209 0.9071 0.0080
vn -0.3904 0.8979 0.2033
vn -0.3591 0.9333 0.0019
vn -0.3273 0.9325 0.1526
vn -0.2570 0.9663 -0.0157
vn -0.1904 0.9770 0.0961
vn -0.1248 0.9920 -0.0184
vn -0.1146 0.9897 0.0853
vn -0.0944 0.9933 0.0672
vn -0.0792 0.9894 0.1220
vn 0.0017 0.9971 0.0760
vn -0.0447 0.9902 0.1326
vn 0.0414 0.9981 0.0460
vn -0.0164 0.9941 0.1072
vn 0.0775 0.9928 0.0915
vn 0.0217 0.9804 0.1960
vn 0.2885 0.9416 0.1737
vn 0.0820 0.9691 0.2326
vn 0.4113 0.8882 0.2049
vn 0.3003 0.9064 0.2969
vn 0.2246 0.8973 0.3801
vn 0.0530 0.9189 0.3908
vn -0.1079 0.9289 0.3543
vn -0.0454 0.9741 0.2216
vn -0.0325 0.7534 0.6567
vn -0.1456 0.8078 0.5712
vn -0.2831 0.8183 0.5003
vn -0.1840 0.9446 0.2717
vn -0.1023 0.9729 0.2072
vn -0.0858 0.9735 0.2118
vn 0.2649 0.8956 -0.3573
vn 0.1682 0.8321 -0.5286
vn 0.1338 0.9745 -0.1802
vn 0.1057 0.9551 -0.2766
vn 0.0110 0.9503 -0.3111
vn -0.0464 0.8198 -0.5708
vn 0.0813 0.8247 -0.5597
vn 0.1467 0.8399 -0.5226
vn -0.1461 -0.9754 0.1651
vn -0.2472 -0.9652 0.0857
vn -0.2751 0.9175 0.2872
vn -0.0433 -0.9767 0.2104
vn 0.0075 -0.9731 0.2304
vn -0.0865 0.8615 0.5004
vn 0.0403 -0.9797 0.1966
vn 0.0009 -1.0000 -0.0009
vn 0.1434 -0.9892 0.0290
vn 0.1320 -0.9801 0.1480
vn 0.2049 -0.9787 0.0108
vn 0.5760 0.8078 0.1251
vn 0.2655 0.8966 0.3544
vn 0.4845 0.8747 -0.0166
vn 0.3123 0.9432 0.1137
vn 0.2736 0.9053 0.3250
vn 0.3624 0.9320 -0.0077
vn 0.3568 0.9330 0.0475
vn 0.2036 0.9572 0.2058
vn 0.2009 0.9795 -0.0124
vn 0.1488 0.9888 0.0146
vn 0.1638 0.9815 0.0989
vn 0.1399 0.9901 -0.0136
vn 0.0508 0.9980 0.0364
vn 0.0568 0.9882 0.1423
vn 0.1102 0.9939 -0.0095
vn -0.0025 0.9975 0.0705
vn -0.0126 0.9771 0.2126
vn -0.0093 0.9999 -0.0074
vn -0.0758 0.9963 0.0403
vn -0.0985 0.9805 0.1699
vn -0.0724 0.9973 -0.0153
vn -0.1062 0.9937 0.0353
vn -0.1843 0.9675 0.1734
vn -0.1314 0.9913 -0.0045
vn -0.2890 0.9488 0.1273
vn -0.1986 0.9498 0.2419
vn -0.3217 0.9465 -0.0264
vn -0.4122 0.9059 0.0971
vn -0.2511 0.9560 0.1517
vn -0.5338 0.8456 -0.0042
vn -0.2909 0.9557 0.0455
vn -0.3075 0.9515 -0.0074
vn -0.3458 0.9361 -0.0649
vn -0.2693 -0.9627 -0.0276
vn -0.2090 -0.9762 -0.0581
vn -0.1625 -0.9718 -0.1706
vn -0.0400 -0.9839 -0.1742
vn 0.0001 -0.9805 -0.1967
vn 0.0025 -1.0000 0.0008
vn 0.0259 -0.9870 -0.1585
vn 0.2119 -0.9753 -0.0626
vn 0.1424 -0.9785 -0.1489
vn 0.4021 0.9071 -0.1244
vn 0.3186 0.8979 -0.3036
vn 0.3444 0.9333 -0.1015
vn 0.2721 0.9325 -0.2374
vn 0.2513 0.9663 -0.0562
vn 0.1563 0.9770 -0.1452
vn 0.1467 0.9885 -0.0362
vn 0.0865 0.9897 -0.1137
vn 0.0617 0.9948 -0.0806
vn 0.0423 0.9894 -0.1391
vn -0.0222 0.9972 -0.0721
vn 0.0062 0.9902 -0.1398
vn -0.0526 0.9981 -0.0327
vn -0.0139 0.9941 -0.1076
vn -0.0999 0.9928 -0.0664
vn -0.0752 0.9804 -0.1823
vn -0.3254 0.9416 -0.0868
vn -0.1433 0.9691 -0.2008
vn -0.4520 0.8882 -0.0828
vn -0.3709 0.9064 -0.2019
vn -0.3213 0.8973 -0.3028
vn -0.1593 0.9189 -0.3608
vn 0.0053 0.9289 -0.3703
vn -0.0179 0.9741 -0.2255
vn -0.1509 0.7534 -0.6400
vn -0.0185 0.8078 -0.5892
vn 0.1332 0.8183 -0.5592
vn 0.1014 0.9446 -0.3120
vn 0.0408 0.9729 -0.2274
vn 0.0237 0.9735 -0.2273
vn -0.1554 0.8956 0.4168
vn -0.0150 0.8321 0.5545
vn -0.1108 0.9458 0.3054
vn -0.0248 0.9551 0.2951
vn 0.0758 0.9503 0.3020
vn 0.2029 0.8198 0.5355
vn 0.0772 0.8247 0.5603
vn 0.0041 0.8399 0.5428
vn -0.1403 -0.9754 -0.1700
vn -0.0461 -0.9652 -0.2575
vn -0.2408 0.9175 -0.3166
vn -0.2011 -0.9767 -0.0755
vn -0.2287 -0.9731 -0.0285
vn -0.4808 0.8615 -0.1634
vn -0.2005 -0.9797 0.0092
vn 0.0007 -1.0000 0.0011
vn -0.0510 -0.9892 0.1371
vn -0.1667 -0.9801 0.1073
vn -0.0426 -0.9787 0.2007
vn -0.2134 0.8078 0.5494
vn -0.3915 0.8966 0.2070
vn -0.0591 0.8747 0.4811
vn -0.1610 0.9432 0.2908
vn -0.3637 0.9053 0.2196
vn -0.0489 0.9320 0.3592
vn -0.1026 0.9330 0.3451
vn -0.2351 0.9572 0.1690
vn -0.0190 0.9795 0.2003
vn -0.0461 0.9821 0.1827
vn -0.1232 0.9815 0.1464
vn -0.0006 0.9921 0.1256
vn -0.0626 0.9973 0.0382
vn -0.1792 0.9831 0.0365
vn 0.0169 0.9975 0.0687
vn -0.0869 0.9952 -0.0461
vn -0.1864 0.9803 -0.0648
vn 0.0179 0.9994 -0.0286
vn -0.0534 0.9954 -0.0797
vn -0.1430 0.9858 -0.0885
vn 0.0264 0.9973 -0.0692
vn -0.0183 0.9937 -0.1104
vn -0.1443 0.9791 -0.1433
vn 0.0250 0.9913 -0.1291
vn -0.0806 0.9488 -0.3053
vn -0.2080 0.9498 -0.2338
vn 0.0762 0.9465 -0.3136
vn -0.0317 0.9059 -0.4223
vn -0.1107 0.9560 -0.2717
vn 0.0874 0.8456 -0.5266
vn 0.0004 0.9557 -0.2944
vn 0.0553 0.9515 -0.3026
vn 0.1180 0.9361 -0.3315
vn 0.0693 -0.9627 -0.2617
vn 0.0900 -0.9762 -0.1973
vn 0.1939 -0.9718 -0.1339
vn 0.1783 -0.9839 -0.0124
vn 0.1943 -0.9805 0.0308
vn -0.0012 -1.0000 0.0024
vn 0.1525 -0.9870 0.0503
vn 0.0288 -0.9753 0.2190
vn 0.1249 -0.9785 0.1639
vn 0.0602 0.9071 0.4166
vn 0.2503 0.8979 0.3621
vn 0.0465 0.9333 0.3560
vn 0.1921 0.9325 0.3058
vn 0.0163 0.9663 0.2570
vn 0.1190 0.9770 0.1770
vn -0.0028 0.9920 0.1261
vn 0.0989 0.9897 0.1031
vn 0.0784 0.9933 0.0853
vn 0.1309 0.9894 0.0634
vn 0.0752 0.9971 -0.0112
vn 0.1371 0.9902 0.0279
vn 0.0405 0.9981 -0.0468
vn 0.1084 0.9941 0.0030
vn 0.0812 0.9928 -0.0883
vn 0.1918 0.9804 -0.0459
vn 0.1365 0.9416 -0.3078
vn 0.2206 0.9691 -0.1103
vn 0.1522 0.8882 -0.4336
vn 0.2573 0.9064 -0.3349
vn 0.3492 0.8973 -0.2701
vn 0.3812 0.9189 -0.1011
vn 0.3649 0.9289 0.0630
vn 0.2255 0.9741 0.0175
vn 0.6557 0.7534 -0.0493
vn 0.5849 0.8078 0.0735
vn 0.5316 0.8183 0.2188
vn 0.2924 0.9446 0.1488
vn 0.2183 0.9729 0.0758
vn 0.2208 0.9735 0.0589
vn -0.3874 0.8956 -0.2185
vn -0.5454 0.8321 -0.1012
vn -0.1954 0.9745 -0.1104
vn -0.2876 0.9551 -0.0705
vn -0.3101 0.9503 0.0278
vn -0.5606 0.8198 0.1169
vn -0.5655 0.8247 -0.0111
vn -0.5368 0.8399 -0.0806
vn 0.0067 -0.9754 -0.2203
vn 0.1352 -0.9652 -0.2240
vn 0.0277 0.9175 -0.3968
vn -0.1013 -0.9767 -0.1894
vn -0.1531 -0.9731 -0.1723
vn -0.2536 0.8615 -0.4399
vn -0.1568 -0.9797 -0.1253
vn -0.0002 -1.0000 0.0013
vn -0.1288 -0.9892 0.0694
vn -0.1961 -0.9801 -0.0293
vn -0.1644 -0.9787 0.1227
vn -0.5227 0.8078 0.2723
vn -0.4308 0.8966 -0.1026
vn -0.3617 0.8747 0.3227
vn -0.3128 0.9432 0.1124
vn -0.4182 0.9053 -0.0748
vn -0.2736 0.9320 0.2377
vn -0.3047 0.9330 0.1917
vn -0.2881 0.9572 -0.0280
vn -0.1464 0.9795 0.1380
vn -0.1551 0.9821 0.1070
vn -0.1892 0.9815 0.0288
vn -0.0833 0.9921 0.0940
vn -0.0722 0.9973 -0.0125
vn -0.1588 0.9831 -0.0908
vn -0.0326 0.9975 0.0628
vn -0.0349 0.9952 -0.0919
vn -0.0973 0.9803 -0.1716
vn 0.0323 0.9994 -0.0097
vn 0.0124 0.9954 -0.0951
vn -0.0491 0.9858 -0.1608
vn 0.0655 0.9973 -0.0345
vn 0.0591 0.9937 -0.0950
vn -0.0139 0.9791 -0.2028
vn 0.1039 0.9913 -0.0806
vn 0.1407 0.9488 -0.2827
vn -0.0021 0.9498 -0.3130
vn 0.2641 0.9465 -0.1855
vn 0.2547 0.9059 -0.3383
vn 0.0960 0.9560 -0.2773
vn 0.4130 0.8456 -0.3382
vn 0.1945 0.9557 -0.2210
vn 0.2411 0.9515 -0.1910
vn 0.3073 0.9361 -0.1713
vn 0.2246 -0.9627 -0.1510
vn 0.1978 -0.9762 -0.0890
vn 0.2340 -0.9718 0.0272
vn 0.1422 -0.9839 0.1083
vn 0.1257 -0.9805 0.1513
vn -0.0025 -1.0000 0.0010
vn 0.0815 -0.9870 0.1384
vn -0.1228 -0.9753 0.1836
vn -0.0142 -0.9785 0.2056
vn -0.2295 0.9071 0.3528
vn -0.0507 0.8979 0.4372
vn -0.1998 0.9333 0.2983
vn -0.0573 0.9325 0.3565
vn -0.1572 0.9663 0.2039
vn -0.0273 0.9770 0.2116
vn -0.0853 0.9920 0.0930
vn 0.0063 0.9897 0.1427
vn 0.0026 0.9933 0.1158
vn 0.0565 0.9894 0.1340
vn 0.0639 0.9971 0.0412
vn 0.0847 0.9902 0.1114
vn 0.0613 0.9981 -0.0085
vn 0.0795 0.9941 0.0738
vn 0.1192 0.9928 -0.0128
vn 0.1744 0.9804 0.0920
vn 0.3056 0.9416 -0.1414
vn 0.2386 0.9691 0.0626
vn 0.4004 0.8882 -0.2255
vn 0.4143 0.9064 -0.0820
vn 0.4407 0.8973 0.0273
vn 0.3532 0.9189 0.1754
vn 0.2328 0.9289 0.2880
vn 0.1580 0.9741 0.1619
vn 0.5254 0.7534 0.3954
vn 0.3911 0.8078 0.4410
vn 0.2553 0.8183 0.5150
vn 0.1217 0.9446 0.3047
vn 0.1141 0.9729 0.2009
vn 0.1272 0.9735 0.1899
vn -0.1471 0.8956 -0.4198
vn -0.3432 0.8321 -0.4358
vn -0.0741 0.9745 -0.2119
vn -0.1697 0.9551 -0.2427
vn -0.2514 0.9503 -0.1836
vn -0.4985 0.8198 -0.2818
vn -0.4178 0.8247 -0.3813
vn -0.3503 0.8399 -0.4146
vn -0.1567 0.8966 -0.4142
vt 0.375000 0.000000
vt 0.437500 0.062114
vt 0.375000 0.062114
vt 0.187500 0.687886
vt 0.125000 0.750000
vt 0.125000 0.687886
vt 0.437500 0.937500
vt 0.375000 1.000000
vt 0.375000 0.937500
vt 0.250000 0.687886
vt 0.187500 0.750000
vt 0.437500 0.875000
vt 0.375000 0.875000
vt 0.187500 0.625386
vt 0.125000 0.625386
vt 0.250000 0.625386
vt 0.312500 0.750000
vt 0.250000 0.750000
vt 0.312500 0.625386
vt 0.312500 0.687886
vt 0.375000 0.750000
vt 0.375000 0.687886
vt 0.437500 0.687886
vt 0.437500 0.625386
vt 0.375000 0.625386
vt 0.500000 0.687886
vt 0.437500 0.750000
vt 0.500000 0.625386
vt 0.562500 0.750000
vt 0.500000 0.750000
vt 0.562500 0.625386
vt 0.562500 0.687886
vt 0.625000 0.750000
vt 0.625000 0.687886
vt 0.687500 0.750000
vt 0.687500 0.625386
vt 0.625000 0.625386
vt 0.750000 0.687886
vt 0.687500 0.687886
vt 0.750000 0.625386
vt 0.812500 0.750000
vt 0.750000 0.750000
vt 0.812500 0.687886
vt 0.875000 0.750000
vt 0.812500 0.625386
vt 0.875000 0.687886
vt 0.625000 0.000000
vt 0.562500 0.062114
vt 0.562500 0.000000
vt 0.625000 0.124614
vt 0.562500 0.124614
vt 0.500000 0.062114
vt 0.500000 0.000000
vt 0.500000 0.124614
vt 0.437500 0.000000
vt 0.437500 0.124614
vt 0.375000 0.124614
vt 0.375000 0.187114
vt 0.500000 0.187114
vt 0.437500 0.187114
vt 0.125000 0.562886
vt 0.125000 0.500000
vt 0.187500 0.562886
vt 0.375000 0.250000
vt 0.187500 0.500000
vt 0.250000 0.562886
vt 0.312500 0.500000
vt 0.250000 0.500000
vt 0.312500 0.562886
vt 0.375000 0.500000
vt 0.375000 0.562886
vt 0.437500 0.500000
vt 0.500000 0.500000
vt 0.437500 0.562886
vt 0.500000 0.562886
vt 0.562500 0.562886
vt 0.562500 0.500000
vt 0.625000 0.562886
vt 0.687500 0.500000
vt 0.625000 0.500000
vt 0.687500 0.562886
vt 0.750000 0.562886
vt 0.812500 0.500000
vt 0.750000 0.500000
vt 0.812500 0.562886
vt 0.875000 0.562886
vt 0.875000 0.625386
vt 0.562500 0.187114
vt 0.625000 0.250000
vt 0.562500 0.250000
vt 0.625000 0.187114
vt 0.500000 0.250000
vt 0.437500 0.250000
vt 0.500000 0.312500
vt 0.437500 0.312500
vt 0.500000 0.375000
vt 0.437500 0.375000
vt 0.562500 0.312500
vt 0.375000 0.312500
vt 0.375000 0.375000
vt 0.375000 0.437500
vt 0.437500 0.437500
vt 0.500000 0.437500
vt 0.562500 0.437500
vt 0.562500 0.375000
vt 0.625000 0.437500
vt 0.625000 0.375000
vt 0.500000 1.000000
vt 0.437500 1.000000
vt 0.500000 0.937500
vt 0.562500 1.000000
vt 0.500000 0.875000
vt 0.562500 0.937500
vt 0.625000 1.000000
vt 0.625000 0.875000
vt 0.562500 0.875000
vt 0.562500 0.812500
vt 0.500000 0.812500
vt 0.437500 0.812500
vt 0.375000 0.812500
vt 0.625000 0.062114
vt 0.875000 0.500000
vt 0.625000 0.312500
vt 0.625000 0.937500
vt 0.625000 0.812500
s 1
f 1/1/1 47/2/43 2/3/2
f 7/4/7 1/5/1 2/6/2
f 6/7/6 1/8/1 4/9/4
f 9/10/7 4/11/4 7/4/7
f 98/12/92 4/9/4 5/13/5
f 8/14/7 2/6/2 50/15/46
f 10/16/7 7/4/7 8/14/7
f 9/10/7 12/17/8 5/18/5
f 13/19/9 9/10/7 10/16/7
f 11/20/7 15/21/11 12/17/8
f 13/19/9 14/22/10 11/20/7
f 17/23/13 15/21/11 14/22/10
f 19/24/15 14/22/10 16/25/12
f 20/26/16 18/27/14 17/23/13
f 22/28/18 17/23/13 19/24/15
f 20/26/16 24/29/20 21/30/17
f 25/31/21 20/26/16 22/28/18
f 23/32/19 27/33/23 24/29/20
f 25/31/21 26/34/22 23/32/19
f 26/34/22 30/35/26 27/33/23
f 31/36/27 26/34/22 28/37/24
f 32/38/28 30/35/26 29/39/25
f 34/40/30 29/39/25 31/36/27
f 32/38/28 36/41/32 33/42/29
f 34/40/30 35/43/31 32/38/28
f 35/43/31 39/44/35 36/41/32
f 37/45/33 38/46/34 35/43/31
f 39/47/35 41/48/37 42/49/38
f 41/48/37 40/50/36 43/51/39
f 42/49/38 44/52/40 45/53/41
f 41/48/37 46/54/42 44/52/40
f 45/53/41 47/2/43 3/55/3
f 44/52/40 48/56/44 47/2/43
f 47/2/43 50/57/46 2/3/2
f 48/56/44 51/58/47 50/57/46
f 48/56/44 79/59/73 49/60/45
f 51/61/47 8/14/7 50/15/46
f 52/62/48 53/63/7 51/61/47
f 49/60/45 52/64/48 51/58/47
f 54/65/49 55/66/7 53/63/7
f 53/63/7 10/16/7 8/14/7
f 58/67/52 55/66/7 56/68/50
f 57/69/51 10/16/7 55/66/7
f 60/70/54 57/69/51 58/67/52
f 59/71/53 13/19/9 57/69/51
f 62/72/56 59/71/53 60/70/54
f 59/71/53 19/24/15 16/25/12
f 64/73/58 61/74/55 62/72/56
f 63/75/57 19/24/15 61/74/55
f 64/73/58 65/76/59 63/75/57
f 65/76/59 22/28/18 63/75/57
f 66/77/60 67/78/61 65/76/59
f 67/78/61 25/31/21 65/76/59
f 70/79/64 67/78/61 68/80/62
f 69/81/63 28/37/24 67/78/61
f 70/79/64 71/82/65 69/81/63
f 71/82/65 31/36/27 69/81/63
f 74/83/68 71/82/65 72/84/66
f 73/85/67 34/40/30 71/82/65
f 74/83/68 75/86/69 73/85/67
f 73/85/67 40/87/36 37/45/33
f 77/88/71 76/89/70 78/90/72
f 43/51/39 75/91/69 77/88/71
f 77/88/71 80/92/74 79/59/73
f 43/51/39 79/59/73 46/54/42
f 49/60/45 80/92/74 81/93/75
f 78/90/72 82/94/76 80/92/74
f 81/93/75 82/94/76 85/95/79
f 85/95/79 83/96/77 86/97/80
f 84/98/78 83/96/77 82/94/76
f 81/93/75 54/99/49 52/64/48
f 54/99/49 86/97/80 56/100/50
f 86/97/80 58/101/52 56/100/50
f 83/96/77 87/102/81 86/97/80
f 88/103/82 62/72/56 87/102/81
f 87/102/81 60/70/54 58/101/52
f 88/103/82 66/77/60 64/73/58
f 83/96/77 89/104/83 88/103/82
f 89/104/83 68/80/62 66/77/60
f 90/105/84 70/106/64 89/104/83
f 84/98/78 72/107/66 90/105/84
f 76/89/70 84/98/78 78/90/72
f 6/7/6 45/108/41 3/109/3
f 91/110/85 42/111/38 45/108/41
f 92/112/86 6/7/6 98/12/92
f 92/112/86 93/113/87 91/110/85
f 93/113/87 39/114/35 42/111/38
f 33/115/29 93/113/87 94/116/88
f 95/117/89 33/115/29 94/116/88
f 96/118/90 94/116/88 92/112/86
f 27/33/23 95/117/89 24/29/20
f 21/30/17 95/117/89 96/118/90
f 21/30/17 97/119/91 18/27/14
f 96/118/90 98/12/92 97/119/91
f 15/21/11 97/119/91 12/120/8
f 12/120/8 98/12/92 5/13/5
f 99/1/93 145/2/134 100/3/94
f 105/4/7 99/5/93 100/6/94
f 104/7/98 99/8/93 102/9/96
f 107/10/7 102/11/96 105/4/7
f 196/12/183 102/9/96 103/13/97
f 106/14/7 100/6/94 148/15/137
f 108/16/7 105/4/7 106/14/7
f 107/10/7 110/17/99 103/18/97
f 111/19/100 107/10/7 108/16/7
f 109/20/7 113/21/102 110/17/99
f 111/19/100 112/22/101 109/20/7
f 115/23/104 113/21/102 112/22/101
f 117/24/106 112/22/101 114/25/103
f 118/26/107 116/27/105 115/23/104
f 120/28/109 115/23/104 117/24/106
f 118/26/107 122/29/111 119/30/108
f 123/31/112 118/26/107 120/28/109
f 121/32/110 125/33/114 122/29/111
f 123/31/112 124/34/113 121/32/110
f 124/34/113 128/35/117 125/33/114
f 129/36/118 124/34/113 126/37/115
f 130/38/119 128/35/117 127/39/116
f 132/40/121 127/39/116 129/36/118
f 130/38/119 134/41/123 131/42/120
f 132/40/121 133/43/122 130/38/119
f 133/43/122 137/44/126 134/41/123
f 135/45/124 136/46/125 133/43/122
f 137/47/126 139/48/128 140/49/129
f 139/48/128 138/50/127 141/51/130
f 140/49/129 142/52/131 143/53/132
f 139/48/128 144/54/133 142/52/131
f 143/53/132 145/2/134 101/55/95
f 142/52/131 146/56/135 145/2/134
f 145/2/134 148/57/137 100/3/94
f 146/56/135 149/58/138 148/57/137
f 146/56/135 177/59/164 147/60/136
f 149/61/138 106/14/7 148/15/137
f 150/62/139 151/63/7 149/61/138
f 147/60/136 150/64/139 149/58/138
f 152/65/140 153/66/7 151/63/7
f 151/63/7 108/16/7 106/14/7
f 156/67/143 153/66/7 154/68/141
f 155/69/142 108/16/7 153/66/7
f 158/70/145 155/69/142 156/67/143
f 157/71/144 111/19/100 155/69/142
f 160/72/147 157/71/144 158/70/145
f 157/71/144 117/24/106 114/25/103
f 162/73/149 159/74/146 160/72/147
f 161/75/148 117/24/106 159/74/146
f 162/73/149 163/76/150 161/75/148
f 163/76/150 120/28/109 161/75/148
f 164/77/151 165/78/152 163/76/150
f 165/78/152 123/31/112 163/76/150
f 168/79/155 165/78/152 166/80/153
f 165/78/152 129/36/118 126/37/115
f 168/79/155 169/82/156 167/81/154
f 167/81/154 132/40/121 129/36/118
f 172/83/159 169/82/156 170/84/157
f 171/85/158 132/40/121 169/82/156
f 172/83/159 173/86/160 171/85/158
f 171/85/158 138/87/127 135/45/124
f 175/88/162 174/89/161 176/90/163
f 141/51/130 173/91/160 175/88/162
f 175/88/162 178/92/165 177/59/164
f 141/51/130 177/59/164 144/54/133
f 147/60/136 178/92/165 179/93/166
f 176/90/163 180/94/167 178/92/165
f 179/93/166 180/94/167 183/95/170
f 183/95/170 181/96/168 184/97/171
f 182/98/169 181/96/168 180/94/167
f 179/93/166 152/99/140 150/64/139
f 152/99/140 184/97/171 154/100/141
f 184/97/171 156/101/143 154/100/141
f 181/96/168 185/102/172 184/97/171
f 186/103/173 160/72/147 185/102/172
f 185/102/172 158/70/145 156/101/143
f 186/103/173 164/77/151 162/73/149
f 181/96/168 187/104/174 186/103/173
f 187/104/174 166/80/153 164/77/151
f 188/105/175 168/106/155 187/104/174
f 182/98/169 170/107/157 188/105/175
f 174/89/161 182/98/169 176/90/163
f 104/7/98 143/108/132 101/109/95
f 189/110/176 140/111/129 143/108/132
f 190/112/177 104/7/98 196/12/183
f 190/112/177 191/113/178 189/110/176
f 191/113/178 137/114/126 140/111/129
f 131/115/120 191/113/178 192/116/179
f 193/117/180 131/115/120 192/116/179
f 194/118/181 192/116/179 190/112/177
f 125/33/114 193/117/180 122/29/111
f 119/30/108 193/117/180 194/118/181
f 119/30/108 195/119/182 116/27/105
f 194/118/181 196/12/183 195/119/182
f 113/21/102 195/119/182 110/120/99
f 110/120/99 196/12/183 103/13/97
f 197/1/184 243/2/225 198/3/185
f 203/4/7 197/5/184 198/6/185
f 202/7/189 197/8/184 200/9/187
f 205/10/7 200/11/187 203/4/7
f 294/12/274 200/9/187 201/13/188
f 204/14/7 198/6/185 246/15/228
f 206/16/7 203/4/7 204/14/7
f 205/10/7 208/17/190 201/18/188
f 209/19/191 205/10/7 206/16/7
f 207/20/7 211/21/193 208/17/190
f 209/19/191 210/22/192 207/20/7
f 213/23/195 211/21/193 210/22/192
f 215/24/197 210/22/192 212/25/194
f 216/26/198 214/27/196 213/23/195
f 218/28/200 213/23/195 215/24/197
f 216/26/198 220/29/202 217/30/199
f 221/31/203 216/26/198 218/28/200
f 219/32/201 223/33/205 220/29/202
f 221/31/203 222/34/204 219/32/201
f 222/34/204 226/35/208 223/33/205
f 227/36/209 222/34/204 224/37/206
f 228/38/210 226/35/208 225/39/207
f 230/40/212 225/39/207 227/36/209
f 228/38/210 232/41/214 229/42/211
f 230/40/212 231/43/213 228/38/210
f 231/43/213 235/44/217 232/41/214
f 233/45/215 234/46/216 231/43/213
f 235/47/217 237/48/219 238/49/220
f 237/48/219 236/50/218 239/51/221
f 238/49/220 240/52/222 241/53/223
f 237/48/219 242/54/224 240/52/222
f 241/53/223 243/2/225 199/55/186
f 240/52/222 244/56/226 243/2/225
f 243/2/225 246/57/228 198/3/185
f 244/56/226 247/58/229 246/57/228
f 244/56/226 275/59/255 245/60/227
f 247/61/229 204/14/7 246/15/228
f 248/62/230 249/63/7 247/61/229
f 245/60/227 248/64/230 247/58/229
f 250/65/231 251/66/7 249/63/7
f 251/66/7 204/14/7 249/63/7
f 254/67/234 251/66/7 252/68/232
f 253/69/233 206/16/7 251/66/7
f 256/70/236 253/69/233 254/67/234
f 255/71/235 209/19/191 253/69/233
f 258/72/238 255/71/235 256/70/236
f 255/71/235 215/24/197 212/25/194
f 260/73/240 257/74/237 258/72/238
f 259/75/239 215/24/197 257/74/237
f 260/73/240 261/76/241 259/75/239
f 261/76/241 218/28/200 259/75/239
f 262/77/242 263/78/243 261/76/241
f 263/78/243 221/31/203 261/76/241
f 266/79/246 263/78/243 264/80/244
f 265/81/245 224/37/206 263/78/243
f 266/79/246 267/82/247 265/81/245
f 267/82/247 227/36/209 265/81/245
f 270/83/250 267/82/247 268/84/248
f 269/85/249 230/40/212 267/82/247
f 270/83/250 271/86/251 269/85/249
f 269/85/249 236/87/218 233/45/215
f 273/88/253 272/89/252 274/90/254
f 239/51/221 271/91/251 273/88/253
f 273/88/253 276/92/256 275/59/255
f 239/51/221 275/59/255 242/54/224
f 245/60/227 276/92/256 277/93/257
f 274/90/254 278/94/258 276/92/256
f 277/93/257 278/94/258 281/95/261
f 281/95/261 279/96/259 282/97/262
f 280/98/260 279/96/259 278/94/258
f 277/93/257 250/99/231 248/64/230
f 250/99/231 282/97/262 252/100/232
f 282/97/262 254/101/234 252/100/232
f 279/96/259 283/102/263 282/97/262
f 284/103/264 258/72/238 283/102/263
f 283/102/263 256/70/236 254/101/234
f 284/103/264 262/77/242 260/73/240
f 279/96/259 285/104/265 284/103/264
f 285/104/265 264/80/244 262/77/242
f 286/105/266 266/106/246 285/104/265
f 280/98/260 268/107/248 286/105/266
f 272/89/252 280/98/260 274/90/254
f 202/7/189 241/108/223 199/109/186
f 287/110/267 238/111/220 241/108/223
f 288/112/268 202/7/189 294/12/274
f 288/112/268 289/113/269 287/110/267
f 289/113/269 235/114/217 238/111/220
f 229/115/211 289/113/269 290/116/270
f 291/117/271 229/115/211 290/116/270
f 292/118/272 290/116/270 288/112/268
f 223/33/205 291/117/271 220/29/202
f 217/30/199 291/117/271 292/118/272
f 217/30/199 293/119/273 214/27/196
f 292/118/272 294/12/274 293/119/273
f 211/21/193 293/119/273 208/120/190
f 208/120/190 294/12/274 201/13/188
f 295/1/93 341/2/134 296/3/94
f 301/4/7 295/5/93 296/6/94
f 300/7/98 295/8/93 298/9/96
f 303/10/7 298/11/96 301/4/7
f 392/12/183 298/9/96 299/13/97
f 302/14/7 296/6/94 344/15/137
f 302/14/7 303/10/7 301/4/7
f 303/10/7 306/17/99 299/18/97
f 307/19/100 303/10/7 304/16/7
f 305/20/7 309/21/102 306/17/99
f 307/19/100 308/22/101 305/20/7
f 311/23/104 309/21/102 308/22/101
f 313/24/106 308/22/101 310/25/103
f 314/26/107 312/27/105 311/23/104
f 316/28/109 311/23/104 313/24/106
f 314/26/107 318/29/111 315/30/108
f 319/31/112 314/26/107 316/28/109
f 317/32/110 321/33/114 318/29/111
f 319/31/112 320/34/113 317/32/110
f 320/34/113 324/35/117 321/33/114
f 325/36/118 320/34/113 322/37/115
f 326/38/119 324/35/117 323/39/116
f 328/40/121 323/39/116 325/36/118
f 326/38/119 330/41/123 327/42/120
f 328/40/121 329/43/122 326/38/119
f 329/43/122 333/44/126 330/41/123
f 331/45/124 332/46/125 329/43/122
f 333/47/126 335/48/128 336/49/129
f 335/48/128 334/50/127 337/51/130
f 336/49/129 338/52/131 339/53/132
f 335/48/128 340/54/133 338/52/131
f 339/53/132 341/2/134 297/55/95
f 338/52/131 342/56/135 341/2/134
f 341/2/134 344/57/137 296/3/94
f 342/56/135 345/58/138 344/57/137
f 342/56/135 373/59/164 343/60/136
f 345/61/138 302/14/7 344/15/137
f 346/62/139 347/63/7 345/61/138
f 343/60/136 346/64/139 345/58/138
f 348/65/140 349/66/7 347/63/7
f 347/63/7 304/16/7 302/14/7
f 352/67/143 349/66/7 350/68/141
f 351/69/142 304/16/7 349/66/7
f 354/70/145 351/69/142 352/67/143
f 353/71/144 307/19/100 351/69/142
f 356/72/147 353/71/144 354/70/145
f 353/71/144 313/24/106 310/25/103
f 358/73/149 355/74/146 356/72/147
f 357/75/148 313/24/106 355/74/146
f 358/73/149 359/76/150 357/75/148
f 359/76/150 316/28/109 357/75/148
f 360/77/151 361/78/152 359/76/150
f 361/78/152 319/31/112 359/76/150
f 364/79/155 361/78/152 362/80/153
f 361/78/152 325/36/118 322/37/115
f 364/79/155 365/82/156 363/81/154
f 363/81/154 328/40/121 325/36/118
f 368/83/159 365/82/156 366/84/157
f 367/85/158 328/40/121 365/82/156
f 368/83/159 369/86/160 367/85/158
f 367/85/158 334/87/127 331/45/124
f 371/88/162 370/89/161 372/90/163
f 337/51/130 369/91/160 371/88/162
f 371/88/162 374/92/165 373/59/164
f 337/51/130 373/59/164 340/54/133
f 343/60/136 374/92/165 375/93/166
f 372/90/163 376/94/167 374/92/165
f 375/93/166 376/94/167 379/95/170
f 379/95/170 377/96/168 380/97/171
f 378/98/169 377/96/168 376/94/167
f 375/93/166 348/99/140 346/64/139
f 348/99/140 380/97/171 350/100/141
f 380/97/171 352/101/143 350/100/141
f 377/96/168 381/102/172 380/97/171
f 382/103/173 356/72/147 381/102/172
f 381/102/172 354/70/145 352/101/143
f 382/103/173 360/77/151 358/73/149
f 377/96/168 383/104/174 382/103/173
f 383/104/174 362/80/153 360/77/151
f 384/105/175 364/106/155 383/104/174
f 378/98/169 366/107/157 384/105/175
f 370/89/161 378/98/169 372/90/163
f 300/7/98 339/108/132 297/109/95
f 385/110/176 336/111/129 339/108/132
f 386/112/177 300/7/98 392/12/183
f 386/112/177 387/113/178 385/110/176
f 387/113/178 333/114/126 336/111/129
f 327/115/120 387/113/178 388/116/179
f 389/117/180 327/115/120 388/116/179
f 390/118/181 388/116/179 386/112/177
f 321/33/114 389/117/180 318/29/111
f 315/30/108 389/117/180 390/118/181
f 315/30/108 391/119/182 312/27/105
f 390/118/181 392/12/183 391/119/182
f 309/21/102 391/119/182 306/120/99
f 306/120/99 392/12/183 299/13/97
f 393/1/184 439/2/225 394/3/185
f 399/4/7 393/5/184 394/6/185
f 398/7/189 393/8/184 396/9/187
f 401/10/7 396/11/187 399/4/7
f 490/12/274 396/9/187 397/13/188
f 400/14/7 394/6/185 442/15/228
f 402/16/7 399/4/7 400/14/7
f 401/10/7 404/17/190 397/18/188
f 405/19/191 401/10/7 402/16/7
f 403/20/7 407/21/193 404/17/190
f 405/19/191 406/22/192 403/20/7
f 409/23/195 407/21/193 406/22/192
f 411/24/197 406/22/192 408/25/194
f 412/26/198 410/27/196 409/23/195
f 414/28/200 409/23/195 411/24/197
f 412/26/198 416/29/202 413/30/199
f 417/31/203 412/26/198 414/28/200
f 415/32/201 419/33/205 416/29/202
f 417/31/203 418/34/204 415/32/201
f 418/34/204 422/35/208 419/33/205
f 423/36/209 418/34/204 420/37/206
f 424/38/210 422/35/208 421/39/207
f 426/40/212 421/39/207 423/36/209
f 424/38/210 428/41/214 425/42/211
f 426/40/212 427/43/213 424/38/210
f 427/43/213 431/44/217 428/41/214
f 429/45/215 430/46/216 427/43/213
f 431/47/217 433/48/219 434/49/220
f 433/48/219 432/50/218 435/51/221
f 434/49/220 436/52/222 437/53/223
f 433/48/219 438/54/224 436/52/222
f 437/53/223 439/2/225 395/55/186
f 436/52/222 440/56/226 439/2/225
f 439/2/225 442/57/228 394/3/185
f 440/56/226 443/58/229 442/57/228
f 440/56/226 471/59/255 441/60/227
f 443/61/229 400/14/7 442/15/228
f 444/62/230 445/63/7 443/61/229
f 441/60/227 444/64/230 443/58/229
f 446/65/231 447/66/7 445/63/7
f 447/66/7 400/14/7 445/63/7
f 450/67/234 447/66/7 448/68/232
f 449/69/233 402/16/7 447/66/7
f 452/70/236 449/69/233 450/67/234
f 451/71/235 405/19/191 449/69/233
f 454/72/238 451/71/235 452/70/236
f 451/71/235 411/24/197 408/25/194
f 456/73/240 453/74/237 454/72/238
f 455/75/239 411/24/197 453/74/237
f 456/73/240 457/76/241 455/75/239
f 457/76/241 414/28/200 455/75/239
f 458/77/242 459/78/243 457/76/241
f 459/78/243 417/31/203 457/76/241
f 462/79/246 459/78/243 460/80/244
f 461/81/245 420/37/206 459/78/243
f 462/79/246 463/82/247 461/81/245
f 463/82/247 423/36/209 461/81/245
f 466/83/250 463/82/247 464/84/248
f 465/85/249 426/40/212 463/82/247
f 466/83/250 467/86/251 465/85/249
f 465/85/249 432/87/218 429/45/215
f 469/88/253 468/89/252 470/90/254
f 435/51/221 467/91/251 469/88/253
f 469/88/253 472/92/256 471/59/255
f 435/51/221 471/59/255 438/54/224
f 441/60/227 472/92/256 473/93/257
f 470/90/254 474/94/258 472/92/256
f 473/93/257 474/94/258 477/95/261
f 477/95/261 475/96/259 478/97/262
f 476/98/260 475/96/259 474/94/258
f 473/93/257 446/99/231 444/64/230
f 446/99/231 478/97/262 448/100/232
f 478/97/262 450/101/234 448/100/232
f 475/96/259 479/102/263 478/97/262
f 480/103/264 454/72/238 479/102/263
f 479/102/263 452/70/236 450/101/234
f 480/103/264 458/77/242 456/73/240
f 475/96/259 481/104/265 480/103/264
f 481/104/265 460/80/244 458/77/242
f 482/105/266 462/106/246 481/104/265
f 476/98/260 464/107/248 482/105/266
f 468/89/252 476/98/260 470/90/254
f 398/7/189 437/108/223 395/109/186
f 483/110/267 434/111/220 437/108/223
f 484/112/268 398/7/189 490/12/274
f 484/112/268 485/113/269 483/110/267
f 485/113/269 431/114/217 434/111/220
f 425/115/211 485/113/269 486/116/270
f 487/117/271 425/115/211 486/116/270
f 488/118/272 486/116/270 484/112/268
f 419/33/205 487/117/271 416/29/202
f 413/30/199 487/117/271 488/118/272
f 413/30/199 489/119/273 410/27/196
f 488/118/272 490/12/274 489/119/273
f 407/21/193 489/119/273 404/120/190
f 404/120/190 490/12/274 397/13/188
f 491/1/275 537/2/316 492/3/276
f 497/4/7 491/5/275 492/6/276
f 496/7/280 491/8/275 494/9/278
f 499/10/7 494/11/278 497/4/7
f 588/12/365 494/9/278 495/13/279
f 498/14/7 492/6/276 540/15/319
f 498/14/7 499/10/7 497/4/7
f 499/10/7 502/17/281 495/18/279
f 503/19/282 499/10/7 500/16/7
f 501/20/7 505/21/284 502/17/281
f 503/19/282 504/22/283 501/20/7
f 507/23/286 505/21/284 504/22/283
f 509/24/288 504/22/283 506/25/285
f 510/26/289 508/27/287 507/23/286
f 512/28/291 507/23/286 509/24/288
f 510/26/289 514/29/293 511/30/290
f 515/31/294 510/26/289 512/28/291
f 513/32/292 517/33/296 514/29/293
f 515/31/294 516/34/295 513/32/292
f 516/34/295 520/35/299 517/33/296
f 521/36/300 516/34/295 518/37/297
f 522/38/301 520/35/299 519/39/298
f 524/40/303 519/39/298 521/36/300
f 522/38/301 526/41/305 523/42/302
f 524/40/303 525/43/304 522/38/301
f 525/43/304 529/44/308 526/41/305
f 527/45/306 528/46/307 525/43/304
f 529/47/308 531/48/310 532/49/311
f 531/48/310 530/50/309 533/51/312
f 532/49/311 534/52/313 535/53/314
f 531/48/310 536/54/315 534/52/313
f 535/53/314 537/2/316 493/55/277
f 534/52/313 538/56/317 537/2/316
f 537/2/316 540/57/319 492/3/276
f 538/56/317 541/58/320 540/57/319
f 538/56/317 569/59/346 539/60/318
f 541/61/320 498/14/7 540/15/319
f 542/62/321 543/63/7 541/61/320
f 539/60/318 542/64/321 541/58/320
f 544/65/322 545/66/7 543/63/7
f 545/66/7 498/14/7 543/63/7
f 548/67/325 545/66/7 546/68/323
f 545/66/7 503/19/282 500/16/7
f 550/70/327 547/69/324 548/67/325
f 549/71/326 503/19/282 547/69/324
f 552/72/329 549/71/326 550/70/327
f 549/71/326 509/24/288 506/25/285
f 554/73/331 551/74/328 552/72/329
f 553/75/330 509/24/288 551/74/328
f 554/73/331 555/76/332 553/75/330
f 555/76/332 512/28/291 553/75/330
f 556/77/333 557/78/334 555/76/332
f 557/78/334 515/31/294 555/76/332
f 560/79/337 557/78/334 558/80/335
f 559/81/336 518/37/297 557/78/334
f 560/79/337 561/82/338 559/81/336
f 561/82/338 521/36/300 559/81/336
f 564/83/341 561/82/338 562/84/339
f 563/85/340 524/40/303 561/82/338
f 564/83/341 565/86/342 563/85/340
f 563/85/340 530/87/309 527/45/306
f 567/88/344 566/89/343 568/90/345
f 533/51/312 565/91/342 567/88/344
f 567/88/344 570/92/347 569/59/346
f 533/51/312 569/59/346 536/54/315
f 539/60/318 570/92/347 571/93/348
f 568/90/345 572/94/349 570/92/347
f 571/93/348 572/94/349 575/95/352
f 575/95/352 573/96/350 576/97/353
f 574/98/351 573/96/350 572/94/349
f 571/93/348 544/99/322 542/64/321
f 544/99/322 576/97/353 546/100/323
f 576/97/353 548/101/325 546/100/323
f 573/96/350 577/102/354 576/97/353
f 578/103/355 552/72/329 577/102/354
f 577/102/354 550/70/327 548/101/325
f 578/103/355 556/77/333 554/73/331
f 573/96/350 579/104/356 578/103/355
f 579/104/356 558/80/335 556/77/333
f 580/105/357 560/106/337 579/104/356
f 574/98/351 562/107/339 580/105/357
f 566/89/343 574/98/351 568/90/345
f 496/7/280 535/108/314 493/109/277
f 581/110/358 532/111/311 535/108/314
f 582/112/359 496/7/280 588/12/365
f 582/112/359 583/113/360 581/110/358
f 583/113/360 529/114/308 532/111/311
f 523/115/302 583/113/360 584/116/361
f 585/117/362 523/115/302 584/116/361
f 586/118/363 584/116/361 582/112/359
f 517/33/296 585/117/362 514/29/293
f 511/30/290 585/117/362 586/118/363
f 511/30/290 587/119/364 508/27/287
f 586/118/363 588/12/365 587/119/364
f 505/21/284 587/119/364 502/120/281
f 502/120/281 588/12/365 495/13/279
f 589/1/184 635/2/225 590/3/185
f 595/4/7 589/5/184 590/6/185
f 594/7/189 589/8/184 592/9/187
f 597/10/7 592/11/187 595/4/7
f 686/12/274 592/9/187 593/13/188
f 596/14/7 590/6/185 638/15/228
f 598/16/7 595/4/7 596/14/7
f 597/10/7 600/17/190 593/18/188
f 601/19/191 597/10/7 598/16/7
f 599/20/7 603/21/193 600/17/190
f 601/19/191 602/22/192 599/20/7
f 605/23/195 603/21/193 602/22/192
f 607/24/197 602/22/192 604/25/194
f 608/26/198 606/27/196 605/23/195
f 610/28/200 605/23/195 607/24/197
f 608/26/198 612/29/202 609/30/199
f 613/31/203 608/26/198 610/28/200
f 611/32/201 615/33/205 612/29/202
f 613/31/203 614/34/204 611/32/201
f 614/34/204 618/35/208 615/33/205
f 619/36/209 614/34/204 616/37/206
f 620/38/210 618/35/208 617/39/207
f 622/40/212 617/39/207 619/36/209
f 620/38/210 624/41/214 621/42/211
f 622/40/212 623/43/213 620/38/210
f 623/43/213 627/44/217 624/41/214
f 625/45/215 626/46/216 623/43/213
f 627/47/217 629/48/219 630/49/220
f 629/48/219 628/50/218 631/51/221
f 630/49/220 632/52/222 633/53/223
f 629/48/219 634/54/224 632/52/222
f 633/53/223 635/2/225 591/55/186
f 632/52/222 636/56/226 635/2/225
f 635/2/225 638/57/228 590/3/185
f 636/56/226 639/58/229 638/57/228
f 636/56/226 667/59/255 637/60/227
f 639/61/229 596/14/7 638/15/228
f 640/62/230 641/63/7 639/61/229
f 637/60/227 640/64/230 639/58/229
f 642/65/231 643/66/7 641/63/7
f 643/66/7 596/14/7 641/63/7
f 646/67/234 643/66/7 644/68/232
f 645/69/233 598/16/7 643/66/7
f 648/70/236 645/69/233 646/67/234
f 647/71/235 601/19/191 645/69/233
f 650/72/238 647/71/235 648/70/236
f 647/71/235 607/24/197 604/25/194
f 652/73/240 649/74/237 650/72/238
f 651/75/239 607/24/197 649/74/237
f 652/73/240 653/76/241 651/75/239
f 653/76/241 610/28/200 651/75/239
f 654/77/242 655/78/243 653/76/241
f 655/78/243 613/31/203 653/76/241
f 658/79/246 655/78/243 656/80/244
f 657/81/245 616/37/206 655/78/243
f 658/79/246 659/82/247 657/81/245
f 659/82/247 619/36/209 657/81/245
f 662/83/250 659/82/247 660/84/248
f 661/85/249 622/40/212 659/82/247
f 662/83/250 663/86/251 661/85/249
f 661/85/249 628/87/218 625/45/215
f 665/88/253 664/89/252 666/90/254
f 631/51/221 663/91/251 665/88/253
f 665/88/253 668/92/256 667/59/255
f 631/51/221 667/59/255 634/54/224
f 637/60/227 668/92/256 669/93/257
f 666/90/254 670/94/258 668/92/256
f 669/93/257 670/94/258 673/95/261
f 673/95/261 671/96/259 674/97/262
f 672/98/260 671/96/259 670/94/258
f 669/93/257 642/99/231 640/64/230
f 642/99/231 674/97/262 644/100/232
f 674/97/262 646/101/234 644/100/232
f 671/96/259 675/102/263 674/97/262
f 676/103/264 650/72/238 675/102/263
f 675/102/263 648/70/236 646/101/234
f 676/103/264 654/77/242 652/73/240
f 671/96/259 677/104/265 676/103/264
f 677/104/265 656/80/244 654/77/242
f 678/105/266 658/106/246 677/104/265
f 672/98/260 660/107/248 678/105/266
f 664/89/252 672/98/260 666/90/254
f 594/7/189 633/108/223 591/109/186
f 679/110/267 630/111/220 633/108/223
f 680/112/268 594/7/189 686/12/274
f 680/112/268 681/113/269 679/110/267
f 681/113/269 627/114/217 630/111/220
f 621/115/211 681/113/269 682/116/270
f 683/117/271 621/115/211 682/116/270
f 684/118/272 682/116/270 680/112/268
f 615/33/205 683/117/271 612/29/202
f 609/30/199 683/117/271 684/118/272
f 609/30/199 685/119/273 606/27/196
f 684/118/272 686/12/274 685/119/273
f 603/21/193 685/119/273 600/120/190
f 600/120/190 686/12/274 593/13/188
f 687/1/1 733/2/43 688/3/2
f 693/4/7 687/5/1 688/6/2
f 692/7/6 687/8/1 690/9/4
f 695/10/7 690/11/4 693/4/7
f 784/12/92 690/9/4 691/13/5
f 694/14/7 688/6/2 736/15/46
f 694/14/7 695/10/7 693/4/7
f 695/10/7 698/17/8 691/18/5
f 699/19/9 695/10/7 696/16/7
f 697/20/7 701/21/11 698/17/8
f 699/19/9 700/22/10 697/20/7
f 703/23/13 701/21/11 700/22/10
f 705/24/15 700/22/10 702/25/12
f 706/26/16 704/27/366 703/23/13
f 708/28/18 703/23/13 705/24/15
f 706/26/16 710/29/20 707/30/17
f 711/31/21 706/26/16 708/28/18
f 709/32/19 713/33/23 710/29/20
f 711/31/21 712/34/22 709/32/19
f 712/34/22 716/35/26 713/33/23
f 717/36/27 712/34/22 714/37/24
f 718/38/28 716/35/26 715/39/25
f 720/40/30 715/39/25 717/36/27
f 718/38/28 722/41/32 719/42/29
f 720/40/30 721/43/31 718/38/28
f 721/43/31 725/44/35 722/41/32
f 723/45/33 724/46/34 721/43/31
f 725/47/35 727/48/37 728/49/38
f 727/48/37 726/50/36 729/51/39
f 728/49/38 730/52/40 731/53/41
f 727/48/37 732/54/42 730/52/40
f 731/53/41 733/2/43 689/55/3
f 730/52/40 734/56/44 733/2/43
f 733/2/43 736/57/46 688/3/2
f 734/56/44 737/58/47 736/57/46
f 734/56/44 765/59/73 735/60/45
f 737/61/47 694/14/7 736/15/46
f 738/62/48 739/63/7 737/61/47
f 735/60/45 738/64/48 737/58/47
f 740/65/49 741/66/7 739/63/7
f 741/66/7 694/14/7 739/63/7
f 744/67/52 741/66/7 742/68/50
f 743/69/51 696/16/7 741/66/7
f 746/70/54 743/69/51 744/67/52
f 745/71/53 699/19/9 743/69/51
f 748/72/56 745/71/53 746/70/54
f 745/71/53 705/24/15 702/25/12
f 750/73/58 747/74/55 748/72/56
f 749/75/57 705/24/15 747/74/55
f 750/73/58 751/76/59 749/75/57
f 751/76/59 708/28/18 749/75/57
f 752/77/60 753/78/61 751/76/59
f 753/78/61 711/31/21 751/76/59
f 756/79/64 753/78/61 754/80/62
f 755/81/63 714/37/24 753/78/61
f 756/79/64 757/82/65 755/81/63
f 757/82/65 717/36/27 755/81/63
f 760/83/68 757/82/65 758/84/66
f 759/85/67 720/40/30 757/82/65
f 760/83/68 761/86/69 759/85/67
f 759/85/67 726/87/36 723/45/33
f 763/88/71 762/89/70 764/90/72
f 729/51/39 761/91/69 763/88/71
f 763/88/71 766/92/74 765/59/73
f 729/51/39 765/59/73 732/54/42
f 735/60/45 766/92/74 767/93/75
f 764/90/72 768/94/76 766/92/74
f 767/93/75 768/94/76 771/95/79
f 771/95/79 769/96/77 772/97/80
f 770/98/78 769/96/77 768/94/76
f 767/93/75 740/99/49 738/64/48
f 740/99/49 772/97/80 742/100/50
f 772/97/80 744/101/52 742/100/50
f 769/96/77 773/102/81 772/97/80
f 774/103/82 748/72/56 773/102/81
f 773/102/81 746/70/54 744/101/52
f 774/103/82 752/77/60 750/73/58
f 769/96/77 775/104/83 774/103/82
f 775/104/83 754/80/62 752/77/60
f 776/105/84 756/106/64 775/104/83
f 770/98/78 758/107/66 776/105/84
f 762/89/70 770/98/78 764/90/72
f 692/7/6 731/108/41 689/109/3
f 777/110/85 728/111/38 731/108/41
f 778/112/86 692/7/6 784/12/92
f 778/112/86 779/113/87 777/110/85
f 779/113/87 725/114/35 728/111/38
f 719/115/29 779/113/87 780/116/88
f 781/117/89 719/115/29 780/116/88
f 782/118/90 780/116/88 778/112/86
f 713/33/23 781/117/89 710/29/20
f 707/30/17 781/117/89 782/118/90
f 707/30/17 783/119/91 704/27/366
f 782/118/90 784/12/92 783/119/91
f 701/21/11 783/119/91 698/120/8
f 698/120/8 784/12/92 691/13/5
f 1/1/1 3/55/3 47/2/43
f 7/4/7 4/11/4 1/5/1
f 6/7/6 3/109/3 1/8/1
f 9/10/7 5/18/5 4/11/4
f 98/12/92 6/7/6 4/9/4
f 8/14/7 7/4/7 2/6/2
f 10/16/7 9/10/7 7/4/7
f 9/10/7 11/20/7 12/17/8
f 13/19/9 11/20/7 9/10/7
f 11/20/7 14/22/10 15/21/11
f 13/19/9 16/25/12 14/22/10
f 17/23/13 18/27/14 15/21/11
f 19/24/15 17/23/13 14/22/10
f 20/26/16 21/30/17 18/27/14
f 22/28/18 20/26/16 17/23/13
f 20/26/16 23/32/19 24/29/20
f 25/31/21 23/32/19 20/26/16
f 23/32/19 26/34/22 27/33/23
f 25/31/21 28/37/24 26/34/22
f 26/34/22 29/39/25 30/35/26
f 31/36/27 29/39/25 26/34/22
f 32/38/28 33/42/29 30/35/26
f 34/40/30 32/38/28 29/39/25
f 32/38/28 35/43/31 36/41/32
f 34/40/30 37/45/33 35/43/31
f 35/43/31 38/46/34 39/44/35
f 37/45/33 40/87/36 38/46/34
f 39/47/35 38/121/34 41/48/37
f 41/48/37 38/121/34 40/50/36
f 42/49/38 41/48/37 44/52/40
f 41/48/37 43/51/39 46/54/42
f 45/53/41 44/52/40 47/2/43
f 44/52/40 46/54/42 48/56/44
f 47/2/43 48/56/44 50/57/46
f 48/56/44 49/60/45 51/58/47
f 48/56/44 46/54/42 79/59/73
f 51/61/47 53/63/7 8/14/7
f 52/62/48 54/65/49 53/63/7
f 49/60/45 81/93/75 52/64/48
f 54/65/49 56/68/50 55/66/7
f 53/63/7 55/66/7 10/16/7
f 58/67/52 57/69/51 55/66/7
f 57/69/51 13/19/9 10/16/7
f 60/70/54 59/71/53 57/69/51
f 59/71/53 16/25/12 13/19/9
f 62/72/56 61/74/55 59/71/53
f 59/71/53 61/74/55 19/24/15
f 64/73/58 63/75/57 61/74/55
f 63/75/57 22/28/18 19/24/15
f 64/73/58 66/77/60 65/76/59
f 65/76/59 25/31/21 22/28/18
f 66/77/60 68/80/62 67/78/61
f 67/78/61 28/37/24 25/31/21
f 70/79/64 69/81/63 67/78/61
f 69/81/63 31/36/27 28/37/24
f 70/79/64 72/84/66 71/82/65
f 71/82/65 34/40/30 31/36/27
f 74/83/68 73/85/67 71/82/65
f 73/85/67 37/45/33 34/40/30
f 74/83/68 76/122/70 75/86/69
f 73/85/67 75/86/69 40/87/36
f 77/88/71 75/91/69 76/89/70
f 43/51/39 40/50/36 75/91/69
f 77/88/71 78/90/72 80/92/74
f 43/51/39 77/88/71 79/59/73
f 49/60/45 79/59/73 80/92/74
f 78/90/72 84/98/78 82/94/76
f 81/93/75 80/92/74 82/94/76
f 85/95/79 82/94/76 83/96/77
f 84/98/78 90/105/84 83/96/77
f 81/93/75 85/95/79 54/99/49
f 54/99/49 85/95/79 86/97/80
f 86/97/80 87/102/81 58/101/52
f 83/96/77 88/103/82 87/102/81
f 88/103/82 64/73/58 62/72/56
f 87/102/81 62/72/56 60/70/54
f 88/103/82 89/104/83 66/77/60
f 83/96/77 90/105/84 89/104/83
f 89/104/83 70/106/64 68/80/62
f 90/105/84 72/107/66 70/106/64
f 84/98/78 74/123/68 72/107/66
f 76/89/70 74/123/68 84/98/78
f 6/7/6 91/110/85 45/108/41
f 91/110/85 93/113/87 42/111/38
f 92/112/86 91/110/85 6/7/6
f 92/112/86 94/116/88 93/113/87
f 93/113/87 36/124/32 39/114/35
f 33/115/29 36/124/32 93/113/87
f 95/117/89 30/125/26 33/115/29
f 96/118/90 95/117/89 94/116/88
f 27/33/23 30/125/26 95/117/89
f 21/30/17 24/29/20 95/117/89
f 21/30/17 96/118/90 97/119/91
f 96/118/90 92/112/86 98/12/92
f 15/21/11 18/27/14 97/119/91
f 12/120/8 97/119/91 98/12/92
f 99/1/93 101/55/95 145/2/134
f 105/4/7 102/11/96 99/5/93
f 104/7/98 101/109/95 99/8/93
f 107/10/7 103/18/97 102/11/96
f 196/12/183 104/7/98 102/9/96
f 106/14/7 105/4/7 100/6/94
f 108/16/7 107/10/7 105/4/7
f 107/10/7 109/20/7 110/17/99
f 111/19/100 109/20/7 107/10/7
f 109/20/7 112/22/101 113/21/102
f 111/19/100 114/25/103 112/22/101
f 115/23/104 116/27/105 113/21/102
f 117/24/106 115/23/104 112/22/101
f 118/26/107 119/30/108 116/27/105
f 120/28/109 118/26/107 115/23/104
f 118/26/107 121/32/110 122/29/111
f 123/31/112 121/32/110 118/26/107
f 121/32/110 124/34/113 125/33/114
f 123/31/112 126/37/115 124/34/113
f 124/34/113 127/39/116 128/35/117
f 129/36/118 127/39/116 124/34/113
f 130/38/119 131/42/120 128/35/117
f 132/40/121 130/38/119 127/39/116
f 130/38/119 133/43/122 134/41/123
f 132/40/121 135/45/124 133/43/122
f 133/43/122 136/46/125 137/44/126
f 135/45/124 138/87/127 136/46/125
f 137/47/126 136/121/125 139/48/128
f 139/48/128 136/121/125 138/50/127
f 140/49/129 139/48/128 142/52/131
f 139/48/128 141/51/130 144/54/133
f 143/53/132 142/52/131 145/2/134
f 142/52/131 144/54/133 146/56/135
f 145/2/134 146/56/135 148/57/137
f 146/56/135 147/60/136 149/58/138
f 146/56/135 144/54/133 177/59/164
f 149/61/138 151/63/7 106/14/7
f 150/62/139 152/65/140 151/63/7
f 147/60/136 179/93/166 150/64/139
f 152/65/140 154/68/141 153/66/7
f 151/63/7 153/66/7 108/16/7
f 156/67/143 155/69/142 153/66/7
f 155/69/142 111/19/100 108/16/7
f 158/70/145 157/71/144 155/69/142
f 157/71/144 114/25/103 111/19/100
f 160/72/147 159/74/146 157/71/144
f 157/71/144 159/74/146 117/24/106
f 162/73/149 161/75/148 159/74/146
f 161/75/148 120/28/109 117/24/106
f 162/73/149 164/77/151 163/76/150
f 163/76/150 123/31/112 120/28/109
f 164/77/151 166/80/153 165/78/152
f 165/78/152 126/37/115 123/31/112
f 168/79/155 167/81/154 165/78/152
f 165/78/152 167/81/154 129/36/118
f 168/79/155 170/84/157 169/82/156
f 167/81/154 169/82/156 132/40/121
f 172/83/159 171/85/158 169/82/156
f 171/85/158 135/45/124 132/40/121
f 172/83/159 174/122/161 173/86/160
f 171/85/158 173/86/160 138/87/127
f 175/88/162 173/91/160 174/89/161
f 141/51/130 138/50/127 173/91/160
f 175/88/162 176/90/163 178/92/165
f 141/51/130 175/88/162 177/59/164
f 147/60/136 177/59/164 178/92/165
f 176/90/163 182/98/169 180/94/167
f 179/93/166 178/92/165 180/94/167
f 183/95/170 180/94/167 181/96/168
f 182/98/169 188/105/175 181/96/168
f 179/93/166 183/95/170 152/99/140
f 152/99/140 183/95/170 184/97/171
f 184/97/171 185/102/172 156/101/143
f 181/96/168 186/103/173 185/102/172
f 186/103/173 162/73/149 160/72/147
f 185/102/172 160/72/147 158/70/145
f 186/103/173 187/104/174 164/77/151
f 181/96/168 188/105/175 187/104/174
f 187/104/174 168/106/155 166/80/153
f 188/105/175 170/107/157 168/106/155
f 182/98/169 172/123/159 170/107/157
f 174/89/161 172/123/159 182/98/169
f 104/7/98 189/110/176 143/108/132
f 189/110/176 191/113/178 140/111/129
f 190/112/177 189/110/176 104/7/98
f 190/112/177 192/116/179 191/113/178
f 191/113/178 134/124/123 137/114/126
f 131/115/120 134/124/123 191/113/178
f 193/117/180 128/125/117 131/115/120
f 194/118/181 193/117/180 192/116/179
f 125/33/114 128/125/117 193/117/180
f 119/30/108 122/29/111 193/117/180
f 119/30/108 194/118/181 195/119/182
f 194/118/181 190/112/177 196/12/183
f 113/21/102 116/27/105 195/119/182
f 110/120/99 195/119/182 196/12/183
f 197/1/184 199/55/186 243/2/225
f 203/4/7 200/11/187 197/5/184
f 202/7/189 199/109/186 197/8/184
f 205/10/7 201/18/188 200/11/187
f 294/12/274 202/7/189 200/9/187
f 204/14/7 203/4/7 198/6/185
f 206/16/7 205/10/7 203/4/7
f 205/10/7 207/20/7 208/17/190
f 209/19/191 207/20/7 205/10/7
f 207/20/7 210/22/192 211/21/193
f 209/19/191 212/25/194 210/22/192
f 213/23/195 214/27/196 211/21/193
f 215/24/197 213/23/195 210/22/192
f 216/26/198 217/30/199 214/27/196
f 218/28/200 216/26/198 213/23/195
f 216/26/198 219/32/201 220/29/202
f 221/31/203 219/32/201 216/26/198
f 219/32/201 222/34/204 223/33/205
f 221/31/203 224/37/206 222/34/204
f 222/34/204 225/39/207 226/35/208
f 227/36/209 225/39/207 222/34/204
f 228/38/210 229/42/211 226/35/208
f 230/40/212 228/38/210 225/39/207
f 228/38/210 231/43/213 232/41/214
f 230/40/212 233/45/215 231/43/213
f 231/43/213 234/46/216 235/44/217
f 233/45/215 236/87/218 234/46/216
f 235/47/217 234/121/216 237/48/219
f 237/48/219 234/121/216 236/50/218
f 238/49/220 237/48/219 240/52/222
f 237/48/219 239/51/221 242/54/224
f 241/53/223 240/52/222 243/2/225
f 240/52/222 242/54/224 244/56/226
f 243/2/225 244/56/226 246/57/228
f 244/56/226 245/60/227 247/58/229
f 244/56/226 242/54/224 275/59/255
f 247/61/229 249/63/7 204/14/7
f 248/62/230 250/65/231 249/63/7
f 245/60/227 277/93/257 248/64/230
f 250/65/231 252/68/232 251/66/7
f 251/66/7 206/16/7 204/14/7
f 254/67/234 253/69/233 251/66/7
f 253/69/233 209/19/191 206/16/7
f 256/70/236 255/71/235 253/69/233
f 255/71/235 212/25/194 209/19/191
f 258/72/238 257/74/237 255/71/235
f 255/71/235 257/74/237 215/24/197
f 260/73/240 259/75/239 257/74/237
f 259/75/239 218/28/200 215/24/197
f 260/73/240 262/77/242 261/76/241
f 261/76/241 221/31/203 218/28/200
f 262/77/242 264/80/244 263/78/243
f 263/78/243 224/37/206 221/31/203
f 266/79/246 265/81/245 263/78/243
f 265/81/245 227/36/209 224/37/206
f 266/79/246 268/84/248 267/82/247
f 267/82/247 230/40/212 227/36/209
f 270/83/250 269/85/249 267/82/247
f 269/85/249 233/45/215 230/40/212
f 270/83/250 272/122/252 271/86/251
f 269/85/249 271/86/251 236/87/218
f 273/88/253 271/91/251 272/89/252
f 239/51/221 236/50/218 271/91/251
f 273/88/253 274/90/254 276/92/256
f 239/51/221 273/88/253 275/59/255
f 245/60/227 275/59/255 276/92/256
f 274/90/254 280/98/260 278/94/258
f 277/93/257 276/92/256 278/94/258
f 281/95/261 278/94/258 279/96/259
f 280/98/260 286/105/266 279/96/259
f 277/93/257 281/95/261 250/99/231
f 250/99/231 281/95/261 282/97/262
f 282/97/262 283/102/263 254/101/234
f 279/96/259 284/103/264 283/102/263
f 284/103/264 260/73/240 258/72/238
f 283/102/263 258/72/238 256/70/236
f 284/103/264 285/104/265 262/77/242
f 279/96/259 286/105/266 285/104/265
f 285/104/265 266/106/246 264/80/244
f 286/105/266 268/107/248 266/106/246
f 280/98/260 270/123/250 268/107/248
f 272/89/252 270/123/250 280/98/260
f 202/7/189 287/110/267 241/108/223
f 287/110/267 289/113/269 238/111/220
f 288/112/268 287/110/267 202/7/189
f 288/112/268 290/116/270 289/113/269
f 289/113/269 232/124/214 235/114/217
f 229/115/211 232/124/214 289/113/269
f 291/117/271 226/125/208 229/115/211
f 292/118/272 291/117/271 290/116/270
f 223/33/205 226/125/208 291/117/271
f 217/30/199 220/29/202 291/117/271
f 217/30/199 292/118/272 293/119/273
f 292/118/272 288/112/268 294/12/274
f 211/21/193 214/27/196 293/119/273
f 208/120/190 293/119/273 294/12/274
f 295/1/93 297/55/95 341/2/134
f 301/4/7 298/11/96 295/5/93
f 300/7/98 297/109/95 295/8/93
f 303/10/7 299/18/97 298/11/96
f 392/12/183 300/7/98 298/9/96
f 302/14/7 301/4/7 296/6/94
f 302/14/7 304/16/7 303/10/7
f 303/10/7 305/20/7 306/17/99
f 307/19/100 305/20/7 303/10/7
f 305/20/7 308/22/101 309/21/102
f 307/19/100 310/25/103 308/22/101
f 311/23/104 312/27/105 309/21/102
f 313/24/106 311/23/104 308/22/101
f 314/26/107 315/30/108 312/27/105
f 316/28/109 314/26/107 311/23/104
f 314/26/107 317/32/110 318/29/111
f 319/31/112 317/32/110 314/26/107
f 317/32/110 320/34/113 321/33/114
f 319/31/112 322/37/115 320/34/113
f 320/34/113 323/39/116 324/35/117
f 325/36/118 323/39/116 320/34/113
f 326/38/119 327/42/120 324/35/117
f 328/40/121 326/38/119 323/39/116
f 326/38/119 329/43/122 330/41/123
f 328/40/121 331/45/124 329/43/122
f 329/43/122 332/46/125 333/44/126
f 331/45/124 334/87/127 332/46/125
f 333/47/126 332/121/125 335/48/128
f 335/48/128 332/121/125 334/50/127
f 336/49/129 335/48/128 338/52/131
f 335/48/128 337/51/130 340/54/133
f 339/53/132 338/52/131 341/2/134
f 338/52/131 340/54/133 342/56/135
f 341/2/134 342/56/135 344/57/137
f 342/56/135 343/60/136 345/58/138
f 342/56/135 340/54/133 373/59/164
f 345/61/138 347/63/7 302/14/7
f 346/62/139 348/65/140 347/63/7
f 343/60/136 375/93/166 346/64/139
f 348/65/140 350/68/141 349/66/7
f 347/63/7 349/66/7 304/16/7
f 352/67/143 351/69/142 349/66/7
f 351/69/142 307/19/100 304/16/7
f 354/70/145 353/71/144 351/69/142
f 353/71/144 310/25/103 307/19/100
f 356/72/147 355/74/146 353/71/144
f 353/71/144 355/74/146 313/24/106
f 358/73/149 357/75/148 355/74/146
f 357/75/148 316/28/109 313/24/106
f 358/73/149 360/77/151 359/76/150
f 359/76/150 319/31/112 316/28/109
f 360/77/151 362/80/153 361/78/152
f 361/78/152 322/37/115 319/31/112
f 364/79/155 363/81/154 361/78/152
f 361/78/152 363/81/154 325/36/118
f 364/79/155 366/84/157 365/82/156
f 363/81/154 365/82/156 328/40/121
f 368/83/159 367/85/158 365/82/156
f 367/85/158 331/45/124 328/40/121
f 368/83/159 370/122/161 369/86/160
f 367/85/158 369/86/160 334/87/127
f 371/88/162 369/91/160 370/89/161
f 337/51/130 334/50/127 369/91/160
f 371/88/162 372/90/163 374/92/165
f 337/51/130 371/88/162 373/59/164
f 343/60/136 373/59/164 374/92/165
f 372/90/163 378/98/169 376/94/167
f 375/93/166 374/92/165 376/94/167
f 379/95/170 376/94/167 377/96/168
f 378/98/169 384/105/175 377/96/168
f 375/93/166 379/95/170 348/99/140
f 348/99/140 379/95/170 380/97/171
f 380/97/171 381/102/172 352/101/143
f 377/96/168 382/103/173 381/102/172
f 382/103/173 358/73/149 356/72/147
f 381/102/172 356/72/147 354/70/145
f 382/103/173 383/104/174 360/77/151
f 377/96/168 384/105/175 383/104/174
f 383/104/174 364/106/155 362/80/153
f 384/105/175 366/107/157 364/106/155
f 378/98/169 368/123/159 366/107/157
f 370/89/161 368/123/159 378/98/169
f 300/7/98 385/110/176 339/108/132
f 385/110/176 387/113/178 336/111/129
f 386/112/177 385/110/176 300/7/98
f 386/112/177 388/116/179 387/113/178
f 387/113/178 330/124/123 333/114/126
f 327/115/120 330/124/123 387/113/178
f 389/117/180 324/125/117 327/115/120
f 390/118/181 389/117/180 388/116/179
f 321/33/114 324/125/117 389/117/180
f 315/30/108 318/29/111 389/117/180
f 315/30/108 390/118/181 391/119/182
f 390/118/181 386/112/177 392/12/183
f 309/21/102 312/27/105 391/119/182
f 306/120/99 391/119/182 392/12/183
f 393/1/184 395/55/186 439/2/225
f 399/4/7 396/11/187 393/5/184
f 398/7/189 395/109/186 393/8/184
f 401/10/7 397/18/188 396/11/187
f 490/12/274 398/7/189 396/9/187
f 400/14/7 399/4/7 394/6/185
f 402/16/7 401/10/7 399/4/7
f 401/10/7 403/20/7 404/17/190
f 405/19/191 403/20/7 401/10/7
f 403/20/7 406/22/192 407/21/193
f 405/19/191 408/25/194 406/22/192
f 409/23/195 410/27/196 407/21/193
f 411/24/197 409/23/195 406/22/192
f 412/26/198 413/30/199 410/27/196
f 414/28/200 412/26/198 409/23/195
f 412/26/198 415/32/201 416/29/202
f 417/31/203 415/32/201 412/26/198
f 415/32/201 418/34/204 419/33/205
f 417/31/203 420/37/206 418/34/204
f 418/34/204 421/39/207 422/35/208
f 423/36/209 421/39/207 418/34/204
f 424/38/210 425/42/211 422/35/208
f 426/40/212 424/38/210 421/39/207
f 424/38/210 427/43/213 428/41/214
f 426/40/212 429/45/215 427/43/213
f 427/43/213 430/46/216 431/44/217
f 429/45/215 432/87/218 430/46/216
f 431/47/217 430/121/216 433/48/219
f 433/48/219 430/121/216 432/50/218
f 434/49/220 433/48/219 436/52/222
f 433/48/219 435/51/221 438/54/224
f 437/53/223 436/52/222 439/2/225
f 436/52/222 438/54/224 440/56/226
f 439/2/225 440/56/226 442/57/228
f 440/56/226 441/60/227 443/58/229
f 440/56/226 438/54/224 471/59/255
f 443/61/229 445/63/7 400/14/7
f 444/62/230 446/65/231 445/63/7
f 441/60/227 473/93/257 444/64/230
f 446/65/231 448/68/232 447/66/7
f 447/66/7 402/16/7 400/14/7
f 450/67/234 449/69/233 447/66/7
f 449/69/233 405/19/191 402/16/7
f 452/70/236 451/71/235 449/69/233
f 451/71/235 408/25/194 405/19/191
f 454/72/238 453/74/237 451/71/235
f 451/71/235 453/74/237 411/24/197
f 456/73/240 455/75/239 453/74/237
f 455/75/239 414/28/200 411/24/197
f 456/73/240 458/77/242 457/76/241
f 457/76/241 417/31/203 414/28/200
f 458/77/242 460/80/244 459/78/243
f 459/78/243 420/37/206 417/31/203
f 462/79/246 461/81/245 459/78/243
f 461/81/245 423/36/209 420/37/206
f 462/79/246 464/84/248 463/82/247
f 463/82/247 426/40/212 423/36/209
f 466/83/250 465/85/249 463/82/247
f 465/85/249 429/45/215 426/40/212
f 466/83/250 468/122/252 467/86/251
f 465/85/249 467/86/251 432/87/218
f 469/88/253 467/91/251 468/89/252
f 435/51/221 432/50/218 467/91/251
f 469/88/253 470/90/254 472/92/256
f 435/51/221 469/88/253 471/59/255
f 441/60/227 471/59/255 472/92/256
f 470/90/254 476/98/260 474/94/258
f 473/93/257 472/92/256 474/94/258
f 477/95/261 474/94/258 475/96/259
f 476/98/260 482/105/266 475/96/259
f 473/93/257 477/95/261 446/99/231
f 446/99/231 477/95/261 478/97/262
f 478/97/262 479/102/263 450/101/234
f 475/96/259 480/103/264 479/102/263
f 480/103/264 456/73/240 454/72/238
f 479/102/263 454/72/238 452/70/236
f 480/103/264 481/104/265 458/77/242
f 475/96/259 482/105/266 481/104/265
f 481/104/265 462/106/246 460/80/244
f 482/105/266 464/107/248 462/106/246
f 476/98/260 466/123/250 464/107/248
f 468/89/252 466/123/250 476/98/260
f 398/7/189 483/110/267 437/108/223
f 483/110/267 485/113/269 434/111/220
f 484/112/268 483/110/267 398/7/189
f 484/112/268 486/116/270 485/113/269
f 485/113/269 428/124/214 431/114/217
f 425/115/211 428/124/214 485/113/269
f 487/117/271 422/125/208 425/115/211
f 488/118/272 487/117/271 486/116/270
f 419/33/205 422/125/208 487/117/271
f 413/30/199 416/29/202 487/117/271
f 413/30/199 488/118/272 489/119/273
f 488/118/272 484/112/268 490/12/274
f 407/21/193 410/27/196 489/119/273
f 404/120/190 489/119/273 490/12/274
f 491/1/275 493/55/277 537/2/316
f 497/4/7 494/11/278 491/5/275
f 496/7/280 493/109/277 491/8/275
f 499/10/7 495/18/279 494/11/278
f 588/12/365 496/7/280 494/9/278
f 498/14/7 497/4/7 492/6/276
f 498/14/7 500/16/7 499/10/7
f 499/10/7 501/20/7 502/17/281
f 503/19/282 501/20/7 499/10/7
f 501/20/7 504/22/283 505/21/284
f 503/19/282 506/25/285 504/22/283
f 507/23/286 508/27/287 505/21/284
f 509/24/288 507/23/286 504/22/283
f 510/26/289 511/30/290 508/27/287
f 512/28/291 510/26/289 507/23/286
f 510/26/289 513/32/292 514/29/293
f 515/31/294 513/32/292 510/26/289
f 513/32/292 516/34/295 517/33/296
f 515/31/294 518/37/297 516/34/295
f 516/34/295 519/39/298 520/35/299
f 521/36/300 519/39/298 516/34/295
f 522/38/301 523/42/302 520/35/299
f 524/40/303 522/38/301 519/39/298
f 522/38/301 525/43/304 526/41/305
f 524/40/303 527/45/306 525/43/304
f 525/43/304 528/46/307 529/44/308
f 527/45/306 530/87/309 528/46/307
f 529/47/308 528/121/307 531/48/310
f 531/48/310 528/121/307 530/50/309
f 532/49/311 531/48/310 534/52/313
f 531/48/310 533/51/312 536/54/315
f 535/53/314 534/52/313 537/2/316
f 534/52/313 536/54/315 538/56/317
f 537/2/316 538/56/317 540/57/319
f 538/56/317 539/60/318 541/58/320
f 538/56/317 536/54/315 569/59/346
f 541/61/320 543/63/7 498/14/7
f 542/62/321 544/65/322 543/63/7
f 539/60/318 571/93/348 542/64/321
f 544/65/322 546/68/323 545/66/7
f 545/66/7 500/16/7 498/14/7
f 548/67/325 547/69/324 545/66/7
f 545/66/7 547/69/324 503/19/282
f 550/70/327 549/71/326 547/69/324
f 549/71/326 506/25/285 503/19/282
f 552/72/329 551/74/328 549/71/326
f 549/71/326 551/74/328 509/24/288
f 554/73/331 553/75/330 551/74/328
f 553/75/330 512/28/291 509/24/288
f 554/73/331 556/77/333 555/76/332
f 555/76/332 515/31/294 512/28/291
f 556/77/333 558/80/335 557/78/334
f 557/78/334 518/37/297 515/31/294
f 560/79/337 559/81/336 557/78/334
f 559/81/336 521/36/300 518/37/297
f 560/79/337 562/84/339 561/82/338
f 561/82/338 524/40/303 521/36/300
f 564/83/341 563/85/340 561/82/338
f 563/85/340 527/45/306 524/40/303
f 564/83/341 566/122/343 565/86/342
f 563/85/340 565/86/342 530/87/309
f 567/88/344 565/91/342 566/89/343
f 533/51/312 530/50/309 565/91/342
f 567/88/344 568/90/345 570/92/347
f 533/51/312 567/88/344 569/59/346
f 539/60/318 569/59/346 570/92/347
f 568/90/345 574/98/351 572/94/349
f 571/93/348 570/92/347 572/94/349
f 575/95/352 572/94/349 573/96/350
f 574/98/351 580/105/357 573/96/350
f 571/93/348 575/95/352 544/99/322
f 544/99/322 575/95/352 576/97/353
f 576/97/353 577/102/354 548/101/325
f 573/96/350 578/103/355 577/102/354
f 578/103/355 554/73/331 552/72/329
f 577/102/354 552/72/329 550/70/327
f 578/103/355 579/104/356 556/77/333
f 573/96/350 580/105/357 579/104/356
f 579/104/356 560/106/337 558/80/335
f 580/105/357 562/107/339 560/106/337
f 574/98/351 564/123/341 562/107/339
f 566/89/343 564/123/341 574/98/351
f 496/7/280 581/110/358 535/108/314
f 581/110/358 583/113/360 532/111/311
f 582/112/359 581/110/358 496/7/280
f 582/112/359 584/116/361 583/113/360
f 583/113/360 526/124/305 529/114/308
f 523/115/302 526/124/305 583/113/360
f 585/117/362 520/125/299 523/115/302
f 586/118/363 585/117/362 584/116/361
f 517/33/296 520/125/299 585/117/362
f 511/30/290 514/29/293 585/117/362
f 511/30/290 586/118/363 587/119/364
f 586/118/363 582/112/359 588/12/365
f 505/21/284 508/27/287 587/119/364
f 502/120/281 587/119/364 588/12/365
f 589/1/184 591/55/186 635/2/225
f 595/4/7 592/11/187 589/5/184
f 594/7/189 591/109/186 589/8/184
f 597/10/7 593/18/188 592/11/187
f 686/12/274 594/7/189 592/9/187
f 596/14/7 595/4/7 590/6/185
f 598/16/7 597/10/7 595/4/7
f 597/10/7 599/20/7 600/17/190
f 601/19/191 599/20/7 597/10/7
f 599/20/7 602/22/192 603/21/193
f 601/19/191 604/25/194 602/22/192
f 605/23/195 606/27/196 603/21/193
f 607/24/197 605/23/195 602/22/192
f 608/26/198 609/30/199 606/27/196
f 610/28/200 608/26/198 605/23/195
f 608/26/198 611/32/201 612/29/202
f 613/31/203 611/32/201 608/26/198
f 611/32/201 614/34/204 615/33/205
f 613/31/203 616/37/206 614/34/204
f 614/34/204 617/39/207 618/35/208
f 619/36/209 617/39/207 614/34/204
f 620/38/210 621/42/211 618/35/208
f 622/40/212 620/38/210 617/39/207
f 620/38/210 623/43/213 624/41/214
f 622/40/212 625/45/215 623/43/213
f 623/43/213 626/46/216 627/44/217
f 625/45/215 628/87/218 626/46/216
f 627/47/217 626/121/216 629/48/219
f 629/48/219 626/121/216 628/50/218
f 630/49/220 629/48/219 632/52/222
f 629/48/219 631/51/221 634/54/224
f 633/53/223 632/52/222 635/2/225
f 632/52/222 634/54/224 636/56/226
f 635/2/225 636/56/226 638/57/228
f 636/56/226 637/60/227 639/58/229
f 636/56/226 634/54/224 667/59/255
f 639/61/229 641/63/7 596/14/7
f 640/62/230 642/65/231 641/63/7
f 637/60/227 669/93/257 640/64/230
f 642/65/231 644/68/232 643/66/7
f 643/66/7 598/16/7 596/14/7
f 646/67/234 645/69/233 643/66/7
f 645/69/233 601/19/191 598/16/7
f 648/70/236 647/71/235 645/69/233
f 647/71/235 604/25/194 601/19/191
f 650/72/238 649/74/237 647/71/235
f 647/71/235 649/74/237 607/24/197
f 652/73/240 651/75/239 649/74/237
f 651/75/239 610/28/200 607/24/197
f 652/73/240 654/77/242 653/76/241
f 653/76/241 613/31/203 610/28/200
f 654/77/242 656/80/244 655/78/243
f 655/78/243 616/37/206 613/31/203
f 658/79/246 657/81/245 655/78/243
f 657/81/245 619/36/209 616/37/206
f 658/79/246 660/84/248 659/82/247
f 659/82/247 622/40/212 619/36/209
f 662/83/250 661/85/249 659/82/247
f 661/85/249 625/45/215 622/40/212
f 662/83/250 664/122/252 663/86/251
f 661/85/249 663/86/251 628/87/218
f 665/88/253 663/91/251 664/89/252
f 631/51/221 628/50/218 663/91/251
f 665/88/253 666/90/254 668/92/256
f 631/51/221 665/88/253 667/59/255
f 637/60/227 667/59/255 668/92/256
f 666/90/254 672/98/260 670/94/258
f 669/93/257 668/92/256 670/94/258
f 673/95/261 670/94/258 671/96/259
f 672/98/260 678/105/266 671/96/259
f 669/93/257 673/95/261 642/99/231
f 642/99/231 673/95/261 674/97/262
f 674/97/262 675/102/263 646/101/234
f 671/96/259 676/103/264 675/102/263
f 676/103/264 652/73/240 650/72/238
f 675/102/263 650/72/238 648/70/236
f 676/103/264 677/104/265 654/77/242
f 671/96/259 678/105/266 677/104/265
f 677/104/265 658/106/246 656/80/244
f 678/105/266 660/107/248 658/106/246
f 672/98/260 662/123/250 660/107/248
f 664/89/252 662/123/250 672/98/260
f 594/7/189 679/110/267 633/108/223
f 679/110/267 681/113/269 630/111/220
f 680/112/268 679/110/267 594/7/189
f 680/112/268 682/116/270 681/113/269
f 681/113/269 624/124/214 627/114/217
f 621/115/211 624/124/214 681/113/269
f 683/117/271 618/125/208 621/115/211
f 684/118/272 683/117/271 682/116/270
f 615/33/205 618/125/208 683/117/271
f 609/30/199 612/29/202 683/117/271
f 609/30/199 684/118/272 685/119/273
f 684/118/272 680/112/268 686/12/274
f 603/21/193 606/27/196 685/119/273
f 600/120/190 685/119/273 686/12/274
f 687/1/1 689/55/3 733/2/43
f 693/4/7 690/11/4 687/5/1
f 692/7/6 689/109/3 687/8/1
f 695/10/7 691/18/5 690/11/4
f 784/12/92 692/7/6 690/9/4
f 694/14/7 693/4/7 688/6/2
f 694/14/7 696/16/7 695/10/7
f 695/10/7 697/20/7 698/17/8
f 699/19/9 697/20/7 695/10/7
f 697/20/7 700/22/10 701/21/11
f 699/19/9 702/25/12 700/22/10
f 703/23/13 704/27/366 701/21/11
f 705/24/15 703/23/13 700/22/10
f 706/26/16 707/30/17 704/27/366
f 708/28/18 706/26/16 703/23/13
f 706/26/16 709/32/19 710/29/20
f 711/31/21 709/32/19 706/26/16
f 709/32/19 712/34/22 713/33/23
f 711/31/21 714/37/24 712/34/22
f 712/34/22 715/39/25 716/35/26
f 717/36/27 715/39/25 712/34/22
f 718/38/28 719/42/29 716/35/26
f 720/40/30 718/38/28 715/39/25
f 718/38/28 721/43/31 722/41/32
f 720/40/30 723/45/33 721/43/31
f 721/43/31 724/46/34 725/44/35
f 723/45/33 726/87/36 724/46/34
f 725/47/35 724/121/34 727/48/37
f 727/48/37 724/121/34 726/50/36
f 728/49/38 727/48/37 730/52/40
f 727/48/37 729/51/39 732/54/42
f 731/53/41 730/52/40 733/2/43
f 730/52/40 732/54/42 734/56/44
f 733/2/43 734/56/44 736/57/46
f 734/56/44 735/60/45 737/58/47
f 734/56/44 732/54/42 765/59/73
f 737/61/47 739/63/7 694/14/7
f 738/62/48 740/65/49 739/63/7
f 735/60/45 767/93/75 738/64/48
f 740/65/49 742/68/50 741/66/7
f 741/66/7 696/16/7 694/14/7
f 744/67/52 743/69/51 741/66/7
f 743/69/51 699/19/9 696/16/7
f 746/70/54 745/71/53 743/69/51
f 745/71/53 702/25/12 699/19/9
f 748/72/56 747/74/55 745/71/53
f 745/71/53 747/74/55 705/24/15
f 750/73/58 749/75/57 747/74/55
f 749/75/57 708/28/18 705/24/15
f 750/73/58 752/77/60 751/76/59
f 751/76/59 711/31/21 708/28/18
f 752/77/60 754/80/62 753/78/61
f 753/78/61 714/37/24 711/31/21
f 756/79/64 755/81/63 753/78/61
f 755/81/63 717/36/27 714/37/24
f 756/79/64 758/84/66 757/82/65
f 757/82/65 720/40/30 717/36/27
f 760/83/68 759/85/67 757/82/65
f 759/85/67 723/45/33 720/40/30
f 760/83/68 762/122/70 761/86/69
f 759/85/67 761/86/69 726/87/36
f 763/88/71 761/91/69 762/89/70
f 729/51/39 726/50/36 761/91/69
f 763/88/71 764/90/72 766/92/74
f 729/51/39 763/88/71 765/59/73
f 735/60/45 765/59/73 766/92/74
f 764/90/72 770/98/78 768/94/76
f 767/93/75 766/92/74 768/94/76
f 771/95/79 768/94/76 769/96/77
f 770/98/78 776/105/84 769/96/77
f 767/93/75 771/95/79 740/99/49
f 740/99/49 771/95/79 772/97/80
f 772/97/80 773/102/81 744/101/52
f 769/96/77 774/103/82 773/102/81
f 774/103/82 750/73/58 748/72/56
f 773/102/81 748/72/56 746/70/54
f 774/103/82 775/104/83 752/77/60
f 769/96/77 776/105/84 775/104/83
f 775/104/83 756/106/64 754/80/62
f 776/105/84 758/107/66 756/106/64
f 770/98/78 760/123/68 758/107/66
f 762/89/70 760/123/68 770/98/78
f 692/7/6 777/110/85 731/108/41
f 777/110/85 779/113/87 728/111/38
f 778/112/86 777/110/85 692/7/6
f 778/112/86 780/116/88 779/113/87
f 779/113/87 722/124/32 725/114/35
f 719/115/29 722/124/32 779/113/87
f 781/117/89 716/125/26 719/115/29
f 782/118/90 781/117/89 780/116/88
f 713/33/23 716/125/26 781/117/89
f 707/30/17 710/29/20 781/117/89
f 707/30/17 782/118/90 783/119/91
f 782/118/90 778/112/86 784/12/92
f 701/21/11 704/27/366 783/119/91
f 698/120/8 783/119/91 784/12/92
