# Blender 4.4.1
# www.blender.org
mtllib map.mtl
o 立方体.003
v -41.000000 -1.000000 -1.000000
v -41.000000 -1.000000 1.000000
v -41.000000 41.000000 -1.000000
v -41.000000 41.000000 1.000000
v -39.000000 -1.000000 -1.000000
v -39.000000 -1.000000 1.000000
v -39.000000 41.000000 -1.000000
v -39.000000 41.000000 1.000000
v -41.000000 -1.000000 -1.000000
v -41.000000 1.000000 -1.000000
v -41.000000 -1.000000 1.000000
v 41.000000 -1.000000 -1.000000
v 41.000000 1.000000 -1.000000
v 41.000000 -1.000000 1.000000
v 41.000000 1.000000 1.000000
v -41.000000 1.000000 1.000000
v -41.000000 39.000000 -1.000000
v -41.000000 41.000000 -1.000000
v -41.000000 39.000000 1.000000
v 41.000000 39.000000 -1.000000
v 41.000000 41.000000 -1.000000
v 41.000000 39.000000 1.000000
v 41.000000 41.000000 1.000000
v -41.000000 41.000000 1.000000
v 39.000000 -1.000000 -1.000000
v 39.000000 41.000000 -1.000000
v 39.000000 -1.000000 1.000000
v 41.000000 -1.000000 -1.000000
v 41.000000 41.000000 -1.000000
v 41.000000 -1.000000 1.000000
v 41.000000 41.000000 1.000000
v 39.000000 41.000000 1.000000
vn -1.0000 -0.0000 -0.0000
vn -0.0000 1.0000 -0.0000
vn 1.0000 -0.0000 -0.0000
vn -0.0000 -1.0000 -0.0000
vn -0.0000 -0.0000 -1.0000
vn -0.0000 -0.0000 1.0000
vt 0.040064 0.286319
vt 0.070505 0.316759
vt 0.040064 0.316759
vt 0.070505 0.286319
vt 0.100945 0.255878
vt 0.100945 0.286319
vt 0.070505 0.255878
vt 0.040064 0.225438
vt 0.070505 0.225438
vt 0.040064 0.255878
vt 0.009624 0.286319
vt 0.009624 0.255878
vt 0.040064 0.194997
vt 0.070505 0.194997
vt 0.064499 0.052987
vt 0.948038 0.934476
vt 0.947013 0.935501
vt 0.969562 0.912952
vt 0.992112 0.933451
vt 0.991087 0.934476
vt 0.087048 0.030437
vt 0.065524 0.051962
vt 0.088074 0.029412
vt 0.065524 0.008913
vt 0.066549 0.007888
vt 0.970587 0.911927
vt 0.109598 0.007888
vt 0.992112 0.890402
vt 0.007888 0.109598
vt 0.891427 0.991087
vt 0.890402 0.992112
vt 0.912951 0.969563
vt 0.935501 0.990062
vt 0.934476 0.991087
vt 0.030437 0.087048
vt 0.008913 0.108573
vt 0.031462 0.086023
vt 0.008913 0.065524
vt 0.009938 0.064499
vt 0.913976 0.968538
vt 0.052987 0.064499
vt 0.935501 0.947013
vt 0.286319 0.039211
vt 0.255878 0.008770
vt 0.286319 0.008770
vt 0.255878 0.100092
vt 0.286319 0.130533
vt 0.255878 0.130533
vt 0.255878 0.069652
vt 0.225438 0.100092
vt 0.225438 0.069652
vt 0.286319 0.069652
vt 0.255878 0.039211
vt 0.286319 0.100092
vt 0.316759 0.069652
vt 0.316759 0.100092
s 0
usemtl マテリアル.005
f 2/1/1 3/2/1 1/3/1
f 4/4/2 7/5/2 3/6/2
f 8/7/3 5/8/3 7/9/3
f 6/10/4 1/11/4 5/12/4
f 7/9/5 1/13/5 3/14/5
f 4/4/6 6/10/6 8/7/6
f 13/15/5 9/16/5 10/17/5
f 11/18/1 10/19/1 9/20/1
f 14/21/4 9/16/4 12/22/4
f 15/23/3 12/24/3 13/25/3
f 16/26/6 14/21/6 15/23/6
f 16/26/2 13/27/2 10/28/2
f 21/29/5 17/30/5 18/31/5
f 19/32/1 18/33/1 17/34/1
f 22/35/4 17/30/4 20/36/4
f 23/37/3 20/38/3 21/39/3
f 24/40/6 22/35/6 23/37/6
f 24/40/2 21/41/2 18/42/2
f 29/43/5 25/44/5 26/45/5
f 27/46/1 26/47/1 25/48/1
f 30/49/4 25/50/4 28/51/4
f 31/52/3 28/53/3 29/43/3
f 32/54/6 30/49/6 31/52/6
f 32/54/2 29/55/2 26/56/2
f 2/1/1 4/4/1 3/2/1
f 4/4/2 8/7/2 7/5/2
f 8/7/3 6/10/3 5/8/3
f 6/10/4 2/1/4 1/11/4
f 7/9/5 5/8/5 1/13/5
f 4/4/6 2/1/6 6/10/6
f 13/15/5 12/22/5 9/16/5
f 11/18/1 16/26/1 10/19/1
f 14/21/4 11/18/4 9/16/4
f 15/23/3 14/21/3 12/24/3
f 16/26/6 11/18/6 14/21/6
f 16/26/2 15/23/2 13/27/2
f 21/29/5 20/36/5 17/30/5
f 19/32/1 24/40/1 18/33/1
f 22/35/4 19/32/4 17/30/4
f 23/37/3 22/35/3 20/38/3
f 24/40/6 19/32/6 22/35/6
f 24/40/2 23/37/2 21/41/2
f 29/43/5 28/53/5 25/44/5
f 27/46/1 32/54/1 26/47/1
f 30/49/4 27/46/4 25/50/4
f 31/52/3 30/49/3 28/53/3
f 32/54/6 27/46/6 30/49/6
f 32/54/2 31/52/2 29/55/2
