# Blender 4.4.3
# www.blender.org
mtllib mountain.mtl
o 円錐
v -60.775417 0.001543 31.929708
v -53.100723 0.001543 32.407215
v -45.666653 0.001543 34.372799
v -38.758896 0.001543 37.750935
v -32.642906 0.001543 42.411789
v -27.553722 0.001543 48.176266
v -23.686920 0.001543 54.822823
v -21.191097 0.001543 62.096050
v -20.162163 0.001543 69.716438
v -20.639668 0.001543 77.391121
v -22.605255 0.001543 84.825195
v -25.983387 0.001543 91.732956
v -30.644245 0.001543 97.848946
v -36.408718 0.001543 102.938133
v -43.055283 0.001543 106.804932
v -50.328503 0.001543 109.300758
v -57.948891 0.001543 110.329689
v -65.623581 0.001543 109.852188
v -73.057648 0.001543 107.886597
v -79.965408 0.001543 104.508469
v -86.081398 0.001543 99.847603
v -91.170578 0.001543 94.083130
v -95.037376 0.001543 87.436569
v -97.533203 0.001543 80.163338
v -98.562134 0.001543 72.542969
v -98.084633 0.001543 64.868271
v -96.119041 0.001543 57.434196
v -92.740913 0.001543 50.526440
v -88.080055 0.001543 44.410446
v -82.315582 0.001543 39.321270
v -75.669022 0.001543 35.454464
v -68.395798 0.001543 32.958641
v -50.125237 33.578674 70.796684
v -66.409164 32.938145 76.214935
v -56.435429 30.602036 63.274765
v -57.314587 32.978710 79.781548
v -65.355576 32.682205 65.553398
v -50.439243 32.914387 72.572533
v -67.203835 32.594433 74.714081
v -54.849522 27.579006 63.818913
v -59.033611 33.467472 80.242538
v -64.185219 33.364429 64.445984
v -50.999329 33.254723 74.245659
v -67.670349 32.966614 73.095932
v -53.262417 30.600082 64.573692
v -60.800640 33.313145 80.025696
v -62.709084 32.823044 63.807465
v -51.773376 33.334507 75.813919
v -67.904076 33.104198 71.437660
v -52.031483 33.042114 65.839775
v -62.480030 32.885323 79.497658
v -61.248573 32.836254 63.158760
v -52.846577 33.437706 77.191811
v -67.771645 33.234837 69.769882
v -51.098633 32.512390 67.352509
v -64.042892 33.118073 78.712837
v -54.195171 33.099247 78.290001
v -67.121277 32.775200 68.238663
v -59.658009 32.690559 62.923515
v -50.402618 32.923317 69.009315
v -65.329323 32.834923 77.543228
v -58.044304 32.349640 62.979752
v -55.677444 33.279663 79.190895
v -66.403137 32.646843 66.783607
v -56.808411 24.262617 55.336617
v -55.572514 16.175592 47.693481
v -54.336620 8.088568 40.050346
v -52.014267 24.262617 55.986938
v -49.322079 16.175592 48.761444
v -46.629883 8.088568 41.535954
v -50.826866 21.395226 57.301918
v -46.804211 13.308202 50.784924
v -42.781551 5.221178 44.267929
v -48.193703 24.262617 56.643269
v -43.038826 16.175592 51.102791
v -37.883945 8.088568 45.562317
v -45.912045 24.262617 61.423901
v -39.792603 16.175592 57.008018
v -33.673164 8.088568 52.592144
v -44.245705 24.262617 64.220085
v -37.392776 16.175592 61.087666
v -30.539846 8.088568 57.955246
v -43.099735 24.262617 67.280998
v -35.796856 16.175592 65.552681
v -28.493975 8.088568 63.824368
v -42.634468 24.262617 70.526619
v -35.143700 16.175592 70.256561
v -27.652931 8.088568 69.986496
v -42.989349 24.262617 73.777176
v -35.539455 16.175592 74.981827
v -28.089561 8.088568 76.186485
v -43.900810 24.262617 76.890541
v -36.802288 16.175592 79.535431
v -29.703773 8.088568 82.180321
v -45.325878 24.262617 79.793678
v -38.878376 16.175592 83.773445
v -32.430882 8.088568 87.753197
v -47.295990 24.262617 82.356102
v -41.745407 16.175592 87.520386
v -36.194824 8.088568 92.684654
v -49.748558 24.262617 84.452034
v -45.301945 16.175592 90.614067
v -40.855328 8.088568 96.776100
v -52.521900 24.262617 86.094406
v -49.366364 16.175592 92.997910
v -46.210819 8.088568 99.901421
v -55.568066 24.262617 87.161354
v -53.821548 16.175592 94.541153
v -52.075024 8.088568 101.920952
v -58.762432 24.262617 87.764320
v -58.491249 16.175592 95.286118
v -58.220070 8.088568 102.807899
v -62.006371 24.262617 87.482315
v -63.212112 16.175592 94.938942
v -64.417847 8.088568 102.395561
v -65.124435 24.262617 86.594894
v -67.768837 16.175592 93.692131
v -70.413246 8.088568 100.789368
v -68.023529 24.262617 85.161751
v -72.004150 16.175592 91.610657
v -75.984779 8.088568 98.059555
v -70.517342 24.262617 83.119316
v -75.705360 16.175592 88.695412
v -80.893379 8.088568 94.271507
v -72.599518 24.262617 80.681984
v -78.789871 16.175592 85.149033
v -84.980225 8.088568 89.616074
v -74.162224 24.262617 77.894699
v -81.120605 16.175592 81.075325
v -88.079002 8.088568 84.255943
v -75.136055 24.262617 74.862793
v -82.601776 16.175592 76.629639
v -90.067497 8.088568 78.396492
v -75.568588 24.262617 71.713989
v -83.233109 16.175592 71.990311
v -90.897621 8.088568 72.266640
v -75.349892 24.262617 68.544479
v -82.928139 16.175592 67.319069
v -90.506386 8.088568 66.093674
v -74.370720 24.262617 65.537552
v -81.620163 16.175592 62.836433
v -88.869606 8.088568 60.135315
v -72.987579 24.262617 62.719311
v -79.572029 16.175592 58.655022
v -86.156471 8.088568 54.590725
v -71.036697 24.262617 60.267662
v -76.717812 16.175592 54.981922
v -82.398933 8.088568 49.696182
v -68.717804 24.262617 58.164806
v -73.250397 16.175592 51.883625
v -77.782997 8.088568 45.602448
v -65.949066 24.262617 56.719215
v -69.189064 16.175592 49.630966
v -72.429039 8.088568 42.542713
v -63.035381 24.262617 55.608730
v -64.822189 16.175592 48.058701
v -66.608994 8.088568 40.508671
v -60.496067 8.088568 39.678162
v -60.216713 16.175592 47.426613
v -59.937363 24.262617 55.175064
v -50.017189 25.556175 70.962357
v -66.301125 24.915649 76.380608
v -56.327389 24.785109 63.440437
v -57.206543 24.956213 79.947220
v -65.247528 24.659708 65.719070
v -50.331200 24.891891 72.738205
v -67.095795 24.571938 74.879745
v -54.741482 25.268385 63.984585
v -58.925568 25.444975 80.408211
v -64.077164 25.341932 64.611656
v -50.891289 25.232227 74.411331
v -67.562302 24.944118 73.261612
v -53.154381 24.975197 64.739365
v -60.692596 25.290648 80.191376
v -62.601040 24.800547 63.973145
v -51.665329 25.312012 75.979599
v -67.796036 25.081703 71.603333
v -51.923439 25.019619 66.005455
v -62.371979 24.862827 79.663330
v -61.140530 24.813759 63.324436
v -52.738529 25.415209 77.357491
v -67.663597 25.212341 69.935555
v -50.990597 24.489893 67.518181
v -63.934853 25.095577 78.878517
v -54.087124 25.076752 78.455681
v -67.013237 24.752705 68.404350
v -59.549965 24.668062 63.089191
v -50.294579 24.900820 69.174988
v -65.221283 24.812428 77.708900
v -57.936264 24.327145 63.145432
v -55.569401 25.257170 79.356560
v -66.295097 24.624348 66.949272
vn -0.0337 -0.3732 -0.9271
vn 0.1481 -0.3733 -0.9158
vn 0.3880 -0.3614 -0.8479
vn 0.3689 -0.3447 -0.8632
vn 0.6515 -0.4153 -0.6349
vn 0.7502 -0.3792 -0.5417
vn 0.8411 -0.3797 -0.3852
vn 0.9000 -0.3803 -0.2132
vn 0.9242 -0.3806 -0.0333
vn 0.9131 -0.3796 0.1488
vn 0.8671 -0.3785 0.3238
vn 0.7877 -0.3781 0.4863
vn 0.6777 -0.3781 0.6307
vn 0.5416 -0.3778 0.7509
vn 0.3850 -0.3778 0.8420
vn 0.2144 -0.3785 0.9004
vn 0.0333 -0.3796 0.9245
vn -0.1483 -0.3791 0.9134
vn -0.3236 -0.3785 0.8672
vn -0.4863 -0.3781 0.7877
vn -0.6314 -0.3774 0.6774
vn -0.7514 -0.3766 0.5418
vn -0.8428 -0.3762 0.3848
vn -0.9020 -0.3756 0.2130
vn -0.9262 -0.3755 0.0334
vn -0.9150 -0.3753 -0.1481
vn -0.8685 -0.3741 -0.3251
vn -0.7894 -0.3735 -0.4873
vn -0.6791 -0.3733 -0.6321
vn -0.5429 -0.3733 -0.7523
vn -0.3855 -0.3727 -0.8441
vn -0.2138 -0.3730 -0.9029
vn -0.2172 0.9761 0.0109
vn 0.1977 0.9572 -0.2113
vn 0.5304 0.6263 0.5713
vn -0.0848 0.9298 -0.3583
vn 0.1265 0.9184 0.3749
vn -0.3570 0.9335 -0.0350
vn 0.3122 0.9441 -0.1060
vn -0.2566 0.4894 0.8335
vn 0.0777 0.9708 -0.2268
vn 0.0940 0.9776 0.1885
vn -0.2415 0.9468 -0.2128
vn 0.3212 0.9445 0.0691
vn -0.7876 0.6000 -0.1401
vn -0.0828 0.9477 -0.3081
vn 0.2637 0.9189 0.2933
vn -0.2257 0.9543 -0.1960
vn 0.2837 0.9566 0.0672
vn -0.3474 0.9357 -0.0617
vn 0.0903 0.9405 -0.3277
vn 0.1164 0.9617 0.2480
vn -0.2394 0.9605 -0.1421
vn 0.2463 0.9683 -0.0416
vn -0.2963 0.9341 0.1989
vn 0.1315 0.9662 -0.2218
vn -0.2251 0.9400 -0.2564
vn 0.3676 0.9299 0.0147
vn 0.1522 0.9459 0.2866
vn -0.3455 0.9230 -0.1695
vn 0.2159 0.9443 -0.2485
vn 0.3761 0.8628 0.3377
vn -0.1476 0.9595 -0.2401
vn 0.2554 0.9562 0.1429
vn 0.0845 0.7119 -0.6972
vn 0.0805 0.6898 -0.7195
vn 0.0949 0.6865 -0.7209
vn 0.6210 0.6928 -0.3666
vn 0.5258 0.6739 -0.5190
vn 0.4732 0.6557 -0.5884
vn 0.3369 0.6520 -0.6793
vn 0.3330 0.6491 -0.6839
vn 0.2482 0.7129 -0.6559
vn 0.0515 0.6911 -0.7209
vn 0.2034 0.6641 -0.7195
vn 0.3264 0.6850 -0.6514
vn 0.6115 0.7049 -0.3594
vn 0.6413 0.6769 -0.3613
vn 0.6345 0.6684 -0.3883
vn 0.6624 0.6784 -0.3179
vn 0.6629 0.6814 -0.3104
vn 0.6645 0.6815 -0.3066
vn 0.7155 0.6733 -0.1863
vn 0.7117 0.6805 -0.1743
vn 0.7127 0.6804 -0.1707
vn 0.7428 0.6694 -0.0126
vn 0.7324 0.6806 -0.0206
vn 0.7325 0.6804 -0.0245
vn 0.7275 0.6708 0.1444
vn 0.7200 0.6818 0.1292
vn 0.7212 0.6820 0.1216
vn 0.6950 0.6673 0.2677
vn 0.6825 0.6832 0.2597
vn 0.6834 0.6833 0.2569
vn 0.6353 0.6643 0.3938
vn 0.6205 0.6838 0.3841
vn 0.6208 0.6837 0.3836
vn 0.5394 0.6664 0.5148
vn 0.5318 0.6841 0.4992
vn 0.5333 0.6841 0.4977
vn 0.4323 0.6691 0.6044
vn 0.4254 0.6844 0.5922
vn 0.4261 0.6845 0.5915
vn 0.3127 0.6698 0.6735
vn 0.3052 0.6844 0.6622
vn 0.3039 0.6844 0.6628
vn 0.1918 0.6708 0.7164
vn 0.1785 0.6832 0.7081
vn 0.1723 0.6835 0.7093
vn 0.0395 0.6684 0.7428
vn 0.0305 0.6825 0.7303
vn 0.0277 0.6821 0.7307
vn -0.1381 0.6674 0.7317
vn -0.1239 0.6824 0.7204
vn -0.1194 0.6825 0.7211
vn -0.2663 0.6724 0.6906
vn -0.2588 0.6833 0.6827
vn -0.2564 0.6834 0.6835
vn -0.4005 0.6742 0.6205
vn -0.3881 0.6842 0.6174
vn -0.3849 0.6841 0.6196
vn -0.5156 0.6757 0.5269
vn -0.5025 0.6852 0.5272
vn -0.4985 0.6854 0.5308
vn -0.6038 0.6786 0.4182
vn -0.5928 0.6864 0.4212
vn -0.5909 0.6864 0.4239
vn -0.6699 0.6825 0.2924
vn -0.6630 0.6873 0.2967
vn -0.6616 0.6873 0.3000
vn -0.7159 0.6783 0.1655
vn -0.7070 0.6879 0.1641
vn -0.7065 0.6880 0.1659
vn -0.7382 0.6741 0.0262
vn -0.7250 0.6883 0.0255
vn -0.7250 0.6882 0.0259
vn -0.7209 0.6782 -0.1426
vn -0.7138 0.6892 -0.1250
vn -0.7150 0.6890 -0.1189
vn -0.6761 0.6834 -0.2756
vn -0.6743 0.6903 -0.2623
vn -0.6762 0.6907 -0.2564
vn -0.6155 0.6856 -0.3888
vn -0.6129 0.6916 -0.3822
vn -0.6141 0.6915 -0.3804
vn -0.5313 0.6851 -0.4984
vn -0.5277 0.6918 -0.4929
vn -0.5282 0.6920 -0.4922
vn -0.4176 0.6852 -0.5967
vn -0.4183 0.6926 -0.5877
vn -0.4210 0.6923 -0.5861
vn -0.3005 0.6829 -0.6659
vn -0.2979 0.6927 -0.6569
vn -0.2989 0.6931 -0.6560
vn -0.1797 0.6842 -0.7068
vn -0.1716 0.6927 -0.7005
vn -0.1680 0.6926 -0.7015
vn -0.0270 0.6920 -0.7214
vn -0.0286 0.6920 -0.7214
vn -0.0289 0.6880 -0.7251
vn -0.9882 0.1525 -0.0120
vn 0.6080 0.6821 -0.4062
vn -0.3482 0.6168 0.7059
vn -0.2158 0.6915 -0.6894
vn 0.4522 0.7636 0.4610
vn -0.5929 0.7643 -0.2537
vn 0.2319 0.9687 -0.0887
vn -0.3825 0.5999 0.7027
vn -0.0418 0.3301 -0.9430
vn 0.5371 0.1766 0.8248
vn -0.6966 0.6498 -0.3042
vn 0.7367 0.6589 -0.1520
vn -0.2839 0.8365 0.4688
vn 0.1418 0.3714 -0.9176
vn 0.3164 0.7087 0.6306
vn -0.7099 0.5396 -0.4526
vn 0.8608 0.5089 -0.0097
vn -0.6331 0.4724 0.6132
vn 0.2547 0.6881 -0.6795
vn 0.2523 0.5485 0.7971
vn -0.6922 0.3098 -0.6519
vn 0.9256 0.3227 0.1978
vn -0.5224 0.7979 0.3007
vn 0.5320 0.3186 -0.7845
vn -0.4415 0.6722 -0.5943
vn 0.6421 0.7194 0.2649
vn 0.1232 0.4983 0.8582
vn -0.8686 0.4668 0.1660
vn 0.5117 0.7312 -0.4511
vn -0.0903 0.7391 0.6675
vn -0.4234 0.2647 -0.8664
vn 0.4948 0.8159 0.2991
vt 0.416140 0.563312
vt 0.417644 0.487664
vt 0.436418 0.559242
vt 0.432806 0.492162
vt 0.466612 0.552096
vt 0.455974 0.495449
vt 0.488327 0.551093
vt 0.467932 0.304000
vt 0.476432 0.238065
vt 0.500087 0.247187
vt 0.443924 0.303804
vt 0.442718 0.235700
vt 0.414071 0.306160
vt 0.421403 0.231794
vt 0.399507 0.230435
vt 0.401791 0.307305
vt 0.377425 0.232200
vt 0.376864 0.311809
vt 0.355897 0.237395
vt 0.335247 0.245023
vt 0.366456 0.317882
vt 0.315614 0.254916
vt 0.356191 0.323594
vt 0.297425 0.267305
vt 0.337049 0.337441
vt 0.281108 0.282039
vt 0.266613 0.298554
vt 0.322100 0.355637
vt 0.254371 0.316846
vt 0.243937 0.336424
vt 0.313874 0.378566
vt 0.237068 0.357555
vt 0.309608 0.389949
vt 0.232903 0.379256
vt 0.231405 0.401216
vt 0.309903 0.413583
vt 0.233208 0.423060
vt 0.237569 0.444384
vt 0.315146 0.436076
vt 0.244653 0.464876
vt 0.254410 0.484139
vt 0.322151 0.445264
vt 0.266339 0.502083
vt 0.328925 0.454252
vt 0.280586 0.518232
vt 0.344599 0.470763
vt 0.297166 0.531794
vt 0.353267 0.477367
vt 0.314806 0.543590
vt 0.333918 0.552634
vt 0.363198 0.481633
vt 0.353881 0.559476
vt 0.385362 0.486327
vt 0.374610 0.562945
vt 0.528596 0.575573
vt 0.564977 0.206189
vt 0.934361 0.242571
vt 0.395937 0.487675
vt 0.395387 0.564722
vt 0.406681 0.487866
vt 0.613841 0.790452
vt 0.602658 0.841397
vt 0.602633 0.787702
vt 0.399528 0.789047
vt 0.438910 0.710619
vt 0.450725 0.784480
vt 0.397923 0.714247
vt 0.427257 0.636900
vt 0.396401 0.639504
vt 0.348257 0.786593
vt 0.356840 0.712139
vt 0.365477 0.637630
vt 0.316344 0.704866
vt 0.297853 0.777235
vt 0.334908 0.632347
vt 0.249225 0.761212
vt 0.277247 0.691950
vt 0.305407 0.622462
vt 0.240146 0.674061
vt 0.203201 0.738874
vt 0.277278 0.608989
vt 0.205786 0.651305
vt 0.160567 0.710630
vt 0.251245 0.591711
vt 0.174539 0.624364
vt 0.122062 0.676993
vt 0.227310 0.571482
vt 0.147266 0.593341
vt 0.088329 0.638572
vt 0.206533 0.547873
vt 0.059987 0.596055
vt 0.124332 0.558976
vt 0.189089 0.521683
vt 0.106023 0.521921
vt 0.037453 0.550218
vt 0.175040 0.493473
vt 0.092732 0.482751
vt 0.021110 0.501819
vt 0.164831 0.463600
vt 0.084669 0.442146
vt 0.011231 0.451691
vt 0.158604 0.432583
vt 0.081878 0.400796
vt 0.007973 0.400692
vt 0.156289 0.400949
vt 0.084643 0.359401
vt 0.011374 0.349689
vt 0.158415 0.369221
vt 0.092698 0.318677
vt 0.021378 0.299543
vt 0.164507 0.337970
vt 0.105954 0.279297
vt 0.037815 0.251098
vt 0.174557 0.307692
vt 0.060422 0.205213
vt 0.124519 0.242144
vt 0.189084 0.279322
vt 0.088784 0.162684
vt 0.147536 0.207629
vt 0.206744 0.252877
vt 0.122405 0.124222
vt 0.174833 0.176416
vt 0.227669 0.228987
vt 0.205892 0.148942
vt 0.160716 0.090416
vt 0.251377 0.207863
vt 0.240308 0.125780
vt 0.203139 0.061856
vt 0.277708 0.190085
vt 0.277462 0.107317
vt 0.248967 0.039060
vt 0.306128 0.175913
vt 0.316692 0.093758
vt 0.297428 0.022455
vt 0.336084 0.165330
vt 0.357384 0.085359
vt 0.347688 0.012351
vt 0.367150 0.158541
vt 0.398871 0.008947
vt 0.398853 0.082652
vt 0.398847 0.156415
vt 0.450098 0.012320
vt 0.440296 0.085554
vt 0.430402 0.158689
vt 0.500486 0.022464
vt 0.481030 0.093874
vt 0.461198 0.164995
vt 0.549095 0.039193
vt 0.505763 0.173582
vt 0.534803 0.105539
vt 0.595603 0.060842
vt 0.535678 0.182999
vt 0.571739 0.117950
vt 0.548971 0.754471
vt 0.564786 0.678721
vt 0.595603 0.732608
vt 0.528558 0.685189
vt 0.526818 0.614478
vt 0.498145 0.617493
vt 0.478988 0.701463
vt 0.500860 0.772896
vt 0.457379 0.630171
vt 0.638035 0.113710
vt 0.713148 0.029532
vt 0.703372 0.115614
vt 0.482969 0.803229
vt 0.493735 0.845044
vt 0.482738 0.842172
vt 0.525920 0.787862
vt 0.536689 0.837886
vt 0.525945 0.841557
vt 0.826087 0.803550
vt 0.813898 0.841202
vt 0.813873 0.787507
vt 0.636690 0.789393
vt 0.625281 0.842122
vt 0.625256 0.788427
vt 0.742255 0.786985
vt 0.730589 0.840089
vt 0.730564 0.786394
vt 0.591476 0.840232
vt 0.591451 0.786537
vt 0.718934 0.788693
vt 0.718959 0.842388
vt 0.802074 0.791349
vt 0.802099 0.845044
vt 0.515251 0.841515
vt 0.515227 0.787820
vt 0.580300 0.839145
vt 0.580275 0.785450
vt 0.707353 0.841178
vt 0.707328 0.787483
vt 0.790010 0.842592
vt 0.789986 0.788897
vt 0.504480 0.788911
vt 0.504504 0.842605
vt 0.569104 0.788377
vt 0.569129 0.842071
vt 0.695673 0.789435
vt 0.695697 0.843130
vt 0.777810 0.838486
vt 0.777786 0.784791
vt 0.683812 0.839775
vt 0.683788 0.786080
vt 0.558237 0.789104
vt 0.558262 0.842799
vt 0.671862 0.786929
vt 0.671886 0.840624
vt 0.765803 0.789457
vt 0.765828 0.843152
vt 0.660031 0.789572
vt 0.660056 0.843267
vt 0.547453 0.842492
vt 0.547428 0.788797
vt 0.472167 0.823682
vt 0.471452 0.839182
vt 0.648389 0.841466
vt 0.648364 0.787771
vt 0.753988 0.841061
vt 0.753963 0.787367
vt 0.613865 0.844147
vt 0.493710 0.791349
vt 0.536665 0.784191
vt 0.838256 0.823520
vt 0.825716 0.841208
vt 0.636715 0.843088
vt 0.742280 0.840680
vt 0.425331 0.310905
vt 0.389711 0.311717
vt 0.346853 0.330714
vt 0.329992 0.346785
vt 0.318119 0.367357
vt 0.310034 0.401772
vt 0.312884 0.424685
vt 0.336894 0.462164
vt 0.374844 0.482171
vt 0.962945 0.285350
vt 0.982635 0.332885
vt 0.992672 0.383347
vt 0.992672 0.434798
vt 0.982634 0.485260
vt 0.962945 0.532794
vt 0.934361 0.575573
vt 0.897979 0.611955
vt 0.855200 0.640539
vt 0.807665 0.660228
vt 0.757203 0.670266
vt 0.705752 0.670265
vt 0.655291 0.660228
vt 0.607756 0.640539
vt 0.564977 0.611954
vt 0.500011 0.532793
vt 0.480322 0.485259
vt 0.470285 0.434797
vt 0.470285 0.383346
vt 0.480322 0.332884
vt 0.500012 0.285350
vt 0.528596 0.242570
vt 0.607757 0.177605
vt 0.655291 0.157915
vt 0.705754 0.147878
vt 0.757204 0.147878
vt 0.807666 0.157916
vt 0.855200 0.177605
vt 0.897980 0.206190
vt 0.613517 0.063089
vt 0.614039 0.051078
vt 0.663850 0.008340
vt 0.613517 0.038229
vt 0.622106 0.028641
vt 0.631032 0.020128
vt 0.641010 0.012752
vt 0.651929 0.008229
vt 0.675476 0.009410
vt 0.686539 0.012014
vt 0.696920 0.015778
vt 0.706074 0.021513
vt 0.722674 0.035711
vt 0.724930 0.047199
vt 0.728224 0.057499
vt 0.728692 0.068379
vt 0.729656 0.079887
vt 0.725406 0.090280
vt 0.719342 0.099748
vt 0.713254 0.109551
vt 0.693242 0.121004
vt 0.682376 0.125569
vt 0.670571 0.125541
vt 0.658451 0.125327
vt 0.646875 0.122334
vt 0.628845 0.106280
vt 0.622731 0.096342
vt 0.616538 0.086233
vt 0.614066 0.074790
vt 0.837435 0.839015
s 1
usemtl Material
f 160/1/160 62/2/62 65/3/65
f 65/3/65 35/4/35 68/5/68
f 68/5/68 40/6/40 71/7/71
f 40/8/40 74/9/74 71/10/71
f 45/11/45 77/12/77 74/9/74
f 77/12/77 55/13/55 80/14/80
f 55/13/55 83/15/83 80/14/80
f 60/16/60 86/17/86 83/15/83
f 86/17/86 38/18/38 89/19/89
f 38/18/38 92/20/92 89/19/89
f 43/21/43 95/22/95 92/20/92
f 48/23/48 98/24/98 95/22/95
f 98/24/98 57/25/57 101/26/101
f 57/25/57 104/27/104 101/26/101
f 104/27/104 36/28/36 107/29/107
f 36/28/36 110/30/110 107/29/107
f 110/30/110 46/31/46 113/32/113
f 113/32/113 51/33/51 116/34/116
f 51/33/51 119/35/119 116/34/116
f 119/35/119 61/36/61 122/37/122
f 61/36/61 125/38/125 122/37/122
f 125/38/125 39/39/39 128/40/128
f 39/39/39 131/41/131 128/40/128
f 44/42/44 134/43/134 131/41/131
f 49/44/49 137/45/137 134/43/134
f 137/45/137 58/46/58 140/47/140
f 140/47/140 64/48/64 143/49/143
f 64/48/64 146/50/146 143/49/143
f 37/51/37 149/52/149 146/50/146
f 149/52/149 47/53/47 152/54/152
f 16/55/16 24/56/24 32/57/32
f 152/54/152 52/58/52 155/59/155
f 155/59/155 59/60/59 160/1/160
f 39/61/39 172/62/172 44/63/44
f 32/64/32 158/65/158 1/66/1
f 157/67/157 159/68/159 158/65/158
f 156/69/156 160/1/160 159/68/159
f 31/70/31 157/67/157 32/64/32
f 154/71/154 156/69/156 157/67/157
f 153/72/153 155/59/155 156/69/156
f 151/73/151 31/70/31 30/74/30
f 150/75/150 154/71/154 151/73/151
f 149/52/149 153/72/153 150/75/150
f 29/76/29 151/73/151 30/74/30
f 148/77/148 150/75/150 151/73/151
f 147/78/147 149/52/149 150/75/150
f 145/79/145 29/76/29 28/80/28
f 144/81/144 148/77/148 145/79/145
f 143/49/143 147/78/147 144/81/144
f 142/82/142 28/80/28 27/83/27
f 141/84/141 145/79/145 142/82/142
f 140/47/140 144/81/144 141/84/141
f 139/85/139 27/83/27 26/86/26
f 138/87/138 142/82/142 139/85/139
f 137/45/137 141/84/141 138/87/138
f 136/88/136 26/86/26 25/89/25
f 135/90/135 139/85/139 136/88/136
f 134/43/134 138/87/138 135/90/135
f 24/91/24 136/88/136 25/89/25
f 133/92/133 135/90/135 136/88/136
f 132/93/132 134/43/134 135/90/135
f 130/94/130 24/91/24 23/95/23
f 129/96/129 133/92/133 130/94/130
f 128/40/128 132/93/132 129/96/129
f 127/97/127 23/95/23 22/98/22
f 126/99/126 130/94/130 127/97/127
f 125/38/125 129/96/129 126/99/126
f 124/100/124 22/98/22 21/101/21
f 123/102/123 127/97/127 124/100/124
f 122/37/122 126/99/126 123/102/123
f 121/103/121 21/101/21 20/104/20
f 120/105/120 124/100/124 121/103/121
f 119/35/119 123/102/123 120/105/120
f 118/106/118 20/104/20 19/107/19
f 117/108/117 121/103/121 118/106/118
f 116/34/116 120/105/120 117/108/117
f 115/109/115 19/107/19 18/110/18
f 114/111/114 118/106/118 115/109/115
f 113/32/113 117/108/117 114/111/114
f 112/112/112 18/110/18 17/113/17
f 111/114/111 115/109/115 112/112/112
f 110/30/110 114/111/114 111/114/111
f 16/115/16 112/112/112 17/113/17
f 109/116/109 111/114/111 112/112/112
f 108/117/108 110/30/110 111/114/111
f 15/118/15 109/116/109 16/115/16
f 106/119/106 108/117/108 109/116/109
f 105/120/105 107/29/107 108/117/108
f 14/121/14 106/119/106 15/118/15
f 103/122/103 105/120/105 106/119/106
f 102/123/102 104/27/104 105/120/105
f 100/124/100 14/121/14 13/125/13
f 99/126/99 103/122/103 100/124/100
f 98/24/98 102/123/102 99/126/99
f 97/127/97 13/125/13 12/128/12
f 96/129/96 100/124/100 97/127/97
f 95/22/95 99/126/99 96/129/96
f 94/130/94 12/128/12 11/131/11
f 93/132/93 97/127/97 94/130/94
f 92/20/92 96/129/96 93/132/93
f 91/133/91 11/131/11 10/134/10
f 90/135/90 94/130/94 91/133/91
f 89/19/89 93/132/93 90/135/90
f 88/136/88 10/134/10 9/137/9
f 87/138/87 91/133/91 88/136/88
f 86/17/86 90/135/90 87/138/87
f 8/139/8 88/136/88 9/137/9
f 85/140/85 87/138/87 88/136/88
f 84/141/84 86/17/86 87/138/87
f 7/142/7 85/140/85 8/139/8
f 82/143/82 84/141/84 85/140/85
f 81/144/81 83/15/83 84/141/84
f 6/145/6 82/143/82 7/142/7
f 79/146/79 81/144/81 82/143/82
f 78/147/78 80/14/80 81/144/81
f 5/148/5 79/146/79 6/145/6
f 75/149/75 79/146/79 76/150/76
f 74/9/74 78/147/78 75/149/75
f 4/151/4 76/150/76 5/148/5
f 72/152/72 76/150/76 73/153/73
f 71/10/71 75/149/75 72/152/72
f 3/154/3 73/155/73 4/156/4
f 70/157/70 72/158/72 73/155/73
f 69/159/69 71/7/71 72/158/72
f 67/160/67 3/154/3 2/161/2
f 67/160/67 69/159/69 70/157/70
f 66/162/66 68/5/68 69/159/69
f 1/66/1 67/160/67 2/161/2
f 158/65/158 66/162/66 67/160/67
f 159/68/159 65/3/65 66/162/66
f 164/163/164 175/164/175 162/165/162
f 35/166/35 190/167/190 163/168/163
f 47/169/47 170/170/170 175/171/175
f 45/172/45 178/173/178 50/174/50
f 61/175/61 162/176/162 34/177/34
f 48/178/48 181/179/181 53/180/53
f 44/63/44 177/181/177 49/182/49
f 57/183/57 181/179/181 185/184/185
f 55/185/55 178/173/178 183/186/183
f 47/169/47 180/187/180 52/188/52
f 49/182/49 182/189/182 54/190/54
f 57/183/57 191/191/191 63/192/63
f 55/185/55 188/193/188 60/194/60
f 59/195/59 180/187/180 187/196/187
f 58/197/58 182/189/182 186/198/186
f 36/199/36 191/191/191 164/200/164
f 60/194/60 161/201/161 33/202/33
f 36/199/36 169/203/169 41/204/41
f 64/205/64 186/198/186 192/206/192
f 46/207/46 169/203/169 174/208/174
f 38/209/38 161/201/161 166/210/166
f 51/211/51 174/208/174 179/212/179
f 64/205/64 165/213/165 37/214/37
f 40/215/40 163/168/163 168/216/168
f 51/211/51 184/217/184 56/218/56
f 38/209/38 171/219/171 43/220/43
f 39/61/39 162/176/162 167/221/167
f 62/222/62 187/196/187 190/167/190
f 37/214/37 170/170/170 42/223/42
f 40/224/40 173/225/173 45/172/45
f 61/175/61 184/217/184 189/226/189
f 43/220/43 176/227/176 48/178/48
f 160/1/160 59/60/59 62/2/62
f 65/3/65 62/2/62 35/4/35
f 68/5/68 35/4/35 40/6/40
f 40/8/40 45/11/45 74/9/74
f 45/11/45 50/228/50 77/12/77
f 77/12/77 50/228/50 55/13/55
f 55/13/55 60/16/60 83/15/83
f 60/16/60 33/229/33 86/17/86
f 86/17/86 33/229/33 38/18/38
f 38/18/38 43/21/43 92/20/92
f 43/21/43 48/23/48 95/22/95
f 48/23/48 53/230/53 98/24/98
f 98/24/98 53/230/53 57/25/57
f 57/25/57 63/231/63 104/27/104
f 104/27/104 63/231/63 36/28/36
f 36/28/36 41/232/41 110/30/110
f 110/30/110 41/232/41 46/31/46
f 113/32/113 46/31/46 51/33/51
f 51/33/51 56/233/56 119/35/119
f 119/35/119 56/233/56 61/36/61
f 61/36/61 34/234/34 125/38/125
f 125/38/125 34/234/34 39/39/39
f 39/39/39 44/42/44 131/41/131
f 44/42/44 49/44/49 134/43/134
f 49/44/49 54/235/54 137/45/137
f 137/45/137 54/235/54 58/46/58
f 140/47/140 58/46/58 64/48/64
f 64/48/64 37/51/37 146/50/146
f 37/51/37 42/236/42 149/52/149
f 149/52/149 42/236/42 47/53/47
f 32/57/32 1/237/1 2/238/2
f 2/238/2 3/239/3 4/240/4
f 4/240/4 5/241/5 6/242/6
f 6/242/6 7/243/7 4/240/4
f 7/243/7 8/244/8 4/240/4
f 8/244/8 9/245/9 10/246/10
f 10/246/10 11/247/11 8/244/8
f 11/247/11 12/248/12 8/244/8
f 12/248/12 13/249/13 14/250/14
f 14/250/14 15/251/15 12/248/12
f 15/251/15 16/55/16 12/248/12
f 16/55/16 17/252/17 18/253/18
f 18/253/18 19/254/19 16/55/16
f 19/254/19 20/255/20 16/55/16
f 20/255/20 21/256/21 22/257/22
f 22/257/22 23/258/23 24/56/24
f 24/56/24 25/259/25 26/260/26
f 26/260/26 27/261/27 28/262/28
f 28/262/28 29/263/29 30/264/30
f 30/264/30 31/265/31 28/262/28
f 31/265/31 32/57/32 28/262/28
f 32/57/32 2/238/2 8/244/8
f 2/238/2 4/240/4 8/244/8
f 20/255/20 22/257/22 16/55/16
f 22/257/22 24/56/24 16/55/16
f 24/56/24 26/260/26 28/262/28
f 8/244/8 12/248/12 16/55/16
f 24/56/24 28/262/28 32/57/32
f 32/57/32 8/244/8 16/55/16
f 152/54/152 47/53/47 52/58/52
f 155/59/155 52/58/52 59/60/59
f 39/61/39 167/221/167 172/62/172
f 32/64/32 157/67/157 158/65/158
f 157/67/157 156/69/156 159/68/159
f 156/69/156 155/59/155 160/1/160
f 31/70/31 154/71/154 157/67/157
f 154/71/154 153/72/153 156/69/156
f 153/72/153 152/54/152 155/59/155
f 151/73/151 154/71/154 31/70/31
f 150/75/150 153/72/153 154/71/154
f 149/52/149 152/54/152 153/72/153
f 29/76/29 148/77/148 151/73/151
f 148/77/148 147/78/147 150/75/150
f 147/78/147 146/50/146 149/52/149
f 145/79/145 148/77/148 29/76/29
f 144/81/144 147/78/147 148/77/148
f 143/49/143 146/50/146 147/78/147
f 142/82/142 145/79/145 28/80/28
f 141/84/141 144/81/144 145/79/145
f 140/47/140 143/49/143 144/81/144
f 139/85/139 142/82/142 27/83/27
f 138/87/138 141/84/141 142/82/142
f 137/45/137 140/47/140 141/84/141
f 136/88/136 139/85/139 26/86/26
f 135/90/135 138/87/138 139/85/139
f 134/43/134 137/45/137 138/87/138
f 24/91/24 133/92/133 136/88/136
f 133/92/133 132/93/132 135/90/135
f 132/93/132 131/41/131 134/43/134
f 130/94/130 133/92/133 24/91/24
f 129/96/129 132/93/132 133/92/133
f 128/40/128 131/41/131 132/93/132
f 127/97/127 130/94/130 23/95/23
f 126/99/126 129/96/129 130/94/130
f 125/38/125 128/40/128 129/96/129
f 124/100/124 127/97/127 22/98/22
f 123/102/123 126/99/126 127/97/127
f 122/37/122 125/38/125 126/99/126
f 121/103/121 124/100/124 21/101/21
f 120/105/120 123/102/123 124/100/124
f 119/35/119 122/37/122 123/102/123
f 118/106/118 121/103/121 20/104/20
f 117/108/117 120/105/120 121/103/121
f 116/34/116 119/35/119 120/105/120
f 115/109/115 118/106/118 19/107/19
f 114/111/114 117/108/117 118/106/118
f 113/32/113 116/34/116 117/108/117
f 112/112/112 115/109/115 18/110/18
f 111/114/111 114/111/114 115/109/115
f 110/30/110 113/32/113 114/111/114
f 16/115/16 109/116/109 112/112/112
f 109/116/109 108/117/108 111/114/111
f 108/117/108 107/29/107 110/30/110
f 15/118/15 106/119/106 109/116/109
f 106/119/106 105/120/105 108/117/108
f 105/120/105 104/27/104 107/29/107
f 14/121/14 103/122/103 106/119/106
f 103/122/103 102/123/102 105/120/105
f 102/123/102 101/26/101 104/27/104
f 100/124/100 103/122/103 14/121/14
f 99/126/99 102/123/102 103/122/103
f 98/24/98 101/26/101 102/123/102
f 97/127/97 100/124/100 13/125/13
f 96/129/96 99/126/99 100/124/100
f 95/22/95 98/24/98 99/126/99
f 94/130/94 97/127/97 12/128/12
f 93/132/93 96/129/96 97/127/97
f 92/20/92 95/22/95 96/129/96
f 91/133/91 94/130/94 11/131/11
f 90/135/90 93/132/93 94/130/94
f 89/19/89 92/20/92 93/132/93
f 88/136/88 91/133/91 10/134/10
f 87/138/87 90/135/90 91/133/91
f 86/17/86 89/19/89 90/135/90
f 8/139/8 85/140/85 88/136/88
f 85/140/85 84/141/84 87/138/87
f 84/141/84 83/15/83 86/17/86
f 7/142/7 82/143/82 85/140/85
f 82/143/82 81/144/81 84/141/84
f 81/144/81 80/14/80 83/15/83
f 6/145/6 79/146/79 82/143/82
f 79/146/79 78/147/78 81/144/81
f 78/147/78 77/12/77 80/14/80
f 5/148/5 76/150/76 79/146/79
f 75/149/75 78/147/78 79/146/79
f 74/9/74 77/12/77 78/147/78
f 4/151/4 73/153/73 76/150/76
f 72/152/72 75/149/75 76/150/76
f 71/10/71 74/9/74 75/149/75
f 3/154/3 70/157/70 73/155/73
f 70/157/70 69/159/69 72/158/72
f 69/159/69 68/5/68 71/7/71
f 67/160/67 70/157/70 3/154/3
f 67/160/67 66/162/66 69/159/69
f 66/162/66 65/3/65 68/5/68
f 1/66/1 158/65/158 67/160/67
f 158/65/158 159/68/159 66/162/66
f 159/68/159 160/1/160 65/3/65
f 171/266/171 166/267/166 168/268/168
f 166/267/166 161/269/161 188/270/188
f 183/271/183 166/267/166 188/270/188
f 183/271/183 178/272/178 168/268/168
f 178/272/178 173/273/173 168/268/168
f 168/268/168 163/274/163 171/266/171
f 183/271/183 168/268/168 166/267/166
f 163/274/163 190/275/190 171/266/171
f 190/275/190 187/276/187 175/164/175
f 187/276/187 180/277/180 175/164/175
f 175/164/175 170/278/170 165/279/165
f 165/279/165 192/280/192 186/281/186
f 186/281/186 182/282/182 177/283/177
f 177/283/177 172/284/172 186/281/186
f 172/284/172 167/285/167 162/165/162
f 186/281/186 172/284/172 162/165/162
f 162/165/162 189/286/189 164/163/164
f 186/281/186 162/165/162 175/164/175
f 189/286/189 184/287/184 179/288/179
f 179/288/179 174/289/174 164/163/164
f 174/289/174 169/290/169 164/163/164
f 164/163/164 191/291/191 185/292/185
f 179/288/179 164/163/164 189/286/189
f 185/292/185 181/293/181 176/294/176
f 171/266/171 185/292/185 176/294/176
f 190/275/190 175/164/175 185/292/185
f 171/266/171 190/275/190 185/292/185
f 175/164/175 165/279/165 186/281/186
f 175/164/175 164/163/164 185/292/185
f 35/166/35 62/222/62 190/167/190
f 47/169/47 42/223/42 170/170/170
f 45/172/45 173/225/173 178/173/178
f 61/175/61 189/226/189 162/176/162
f 48/178/48 176/227/176 181/179/181
f 44/63/44 172/62/172 177/181/177
f 57/183/57 53/180/53 181/179/181
f 55/185/55 50/174/50 178/173/178
f 47/169/47 175/171/175 180/187/180
f 49/182/49 177/181/177 182/189/182
f 57/183/57 185/184/185 191/191/191
f 55/185/55 183/186/183 188/193/188
f 59/195/59 52/188/52 180/187/180
f 58/197/58 54/190/54 182/189/182
f 36/199/36 63/192/63 191/191/191
f 60/194/60 188/193/188 161/201/161
f 36/199/36 164/200/164 169/203/169
f 64/205/64 58/197/58 186/198/186
f 46/207/46 41/204/41 169/203/169
f 38/209/38 33/202/33 161/201/161
f 51/211/51 46/207/46 174/208/174
f 64/205/64 192/206/192 165/213/165
f 40/215/40 35/166/35 163/168/163
f 51/211/51 179/212/179 184/217/184
f 38/209/38 166/210/166 171/219/171
f 39/61/39 34/177/34 162/176/162
f 62/222/62 59/195/59 187/196/187
f 37/214/37 165/213/165 170/170/170
f 40/224/40 168/295/168 173/225/173
f 61/175/61 56/218/56 184/217/184
f 43/220/43 171/219/171 176/227/176
