# Blender 4.4.1
# www.blender.org
mtllib smallFish.mtl
o 立方体.003
v -0.238119 0.145463 -0.245402
v -0.324257 0.226887 -0.096205
v -0.238119 -0.180579 -0.245402
v -0.324257 -0.262003 -0.096205
v -0.191806 0.145463 -0.218663
v -0.277945 0.226887 -0.069467
v -0.191806 -0.180579 -0.218663
v -0.277945 -0.262003 -0.069467
v 0.215139 -0.174311 -0.531678
v 0.215139 0.132223 -0.531678
v 0.093038 0.045017 0.503400
v 0.093038 -0.021200 0.503400
v 0.093038 -0.087418 0.503400
v -0.092725 0.045017 0.503400
v -0.092725 -0.021200 0.503400
v -0.092725 -0.087418 0.503400
v -0.214826 0.132223 -0.531678
v -0.214826 -0.174311 -0.531678
v -0.046284 -0.142005 0.503400
v 0.000157 -0.153635 0.503400
v 0.046597 -0.142005 0.503400
v 0.046772 0.100215 0.503400
v 0.000157 0.111888 0.503400
v -0.046458 0.100215 0.503400
v 0.107648 -0.300659 -0.531678
v -0.107335 -0.300659 -0.531678
v -0.107335 0.258571 -0.531678
v 0.107648 0.258571 -0.531678
v -0.074961 -0.128151 -0.681581
v 0.075275 -0.128151 -0.681581
v -0.074961 0.086063 -0.681581
v 0.075275 0.086063 -0.681581
v -0.241333 -0.193209 -0.383839
v -0.241333 0.151120 -0.383839
v 0.241647 -0.193209 -0.383839
v 0.241647 0.151120 -0.383839
v -0.120588 0.293047 -0.383839
v 0.120902 0.293047 -0.383839
v 0.120902 -0.335135 -0.383839
v -0.120588 -0.335135 -0.383839
v 0.241647 -0.193209 0.150045
v 0.241647 0.151120 0.150045
v -0.241333 -0.193209 0.150045
v -0.241333 0.151120 0.150045
v -0.120588 0.293047 0.150045
v 0.120902 0.293047 0.150045
v 0.120902 -0.335135 0.150045
v -0.120588 -0.335135 0.150045
v 0.093387 -0.021044 0.717740
v -0.093073 -0.021044 0.717740
v 0.000157 -0.322854 0.717740
v 0.000157 0.280766 0.717740
v -0.029841 0.439699 0.037901
v -0.029841 0.267422 0.119325
v -0.029841 0.439699 -0.288142
v -0.029841 0.267422 -0.369566
v 0.023636 0.439699 0.037901
v 0.023636 0.267422 0.119325
v 0.023636 0.439699 -0.288142
v 0.023636 0.267422 -0.369566
v 0.192537 0.145463 -0.218663
v 0.278675 0.226887 -0.069467
v 0.192537 -0.180579 -0.218663
v 0.278675 -0.262003 -0.069467
v 0.238849 0.145463 -0.245402
v 0.324988 0.226887 -0.096205
v 0.238849 -0.180579 -0.245402
v 0.324988 -0.262003 -0.096205
vn -0.8660 -0.0000 -0.5000
vn 0.2137 -0.9041 -0.3701
vn 0.8660 -0.0000 0.5000
vn 0.2137 0.9041 -0.3701
vn 0.5000 -0.0000 -0.8660
vn -0.5000 -0.0000 0.8660
vn 0.6773 0.5762 -0.4574
vn -0.7617 0.6480 -0.0000
vn -0.5633 -0.4792 0.6731
vn 0.7617 -0.6480 -0.0000
vn 0.7440 0.6329 0.2143
vn -0.5633 0.4792 0.6731
vn 0.7312 -0.0000 0.6822
vn -0.0000 -0.9739 0.2271
vn 0.6824 -0.5719 -0.4553
vn 0.9218 -0.0000 -0.3877
vn -0.0000 0.6559 0.7548
vn -0.0000 -0.0000 1.0000
vn -0.7312 -0.0000 0.6822
vn 0.5633 0.4792 0.6731
vn -0.0000 -0.6559 0.7548
vn -0.0000 0.9739 0.2271
vn -0.6776 -0.5764 -0.4567
vn -0.9843 -0.0000 0.1765
vn 0.5633 -0.4792 0.6731
vn 1.0000 -0.0000 -0.0000
vn -1.0000 -0.0000 -0.0000
vn -0.7440 -0.6329 0.2143
vn -0.0000 1.0000 -0.0000
vn -0.7617 -0.6480 -0.0000
vn -0.7440 0.6329 0.2143
vn -0.0000 -1.0000 -0.0000
vn -0.6773 0.5762 -0.4574
vn 0.7617 0.6480 -0.0000
vn 0.7440 -0.6329 0.2143
vn 0.2244 -0.8962 -0.3828
vn -0.2100 0.8387 -0.5025
vn 0.9843 -0.0000 0.1765
vn -0.9218 -0.0000 -0.3877
vn -0.9176 -0.0000 -0.3976
vn 0.9306 -0.2875 0.2265
vn 0.2178 0.8696 -0.4432
vn -0.0000 -0.0000 -1.0000
vn -0.7116 0.6054 0.3566
vn -0.0000 0.4273 -0.9041
vn -0.0000 0.4273 0.9041
vn -0.8660 -0.0000 0.5000
vn -0.2137 -0.9041 -0.3701
vn 0.8660 -0.0000 -0.5000
vn -0.2137 0.9041 -0.3701
vn -0.5000 -0.0000 -0.8660
vn 0.5000 -0.0000 0.8660
vn 0.6772 -0.5761 -0.4578
vn -0.6813 -0.5710 -0.4580
vn -0.2101 -0.8390 -0.5019
vn -0.0000 -0.8778 -0.4790
vn 0.2244 0.8959 -0.3835
vn -0.0000 0.8775 -0.4796
vn -0.1930 -0.7707 0.6072
vn -0.9555 -0.2951 0.0018
vn -0.7177 -0.6016 0.3507
vn 0.2176 -0.8690 -0.4443
vn 0.9345 -0.3561 0.0018
vn 0.9305 0.2874 0.2269
vn 0.9334 0.3588 0.0013
vn -0.9555 0.2951 0.0013
vn -0.1929 0.7701 0.6080
vt 0.625000 0.000000
vt 0.375000 0.250000
vt 0.375000 0.000000
vt 0.625000 0.250000
vt 0.375000 0.500000
vt 0.625000 0.500000
vt 0.375000 0.750000
vt 0.625000 0.750000
vt 0.375000 1.000000
vt 0.125000 0.750000
vt 0.125000 0.500000
vt 0.875000 0.500000
vt 0.437500 0.500000
vt 0.312500 0.562500
vt 0.312500 0.500000
vt 0.437500 0.125000
vt 0.187500 0.562500
vt 0.187500 0.625000
vt 0.562500 0.937500
vt 0.625000 0.937500
vt 0.562500 1.000000
vt 0.562500 0.562500
vt 0.687500 0.625000
vt 0.562500 0.625000
vt 0.437500 0.625000
vt 0.312500 0.750000
vt 0.312500 0.625000
vt 0.375000 0.937500
vt 0.437500 0.937500
vt 0.437500 1.000000
vt 0.562500 0.750000
vt 0.437500 0.812500
vt 0.437500 0.750000
vt 0.812500 0.750000
vt 0.812500 0.625000
vt 0.687500 0.562500
vt 0.562500 0.500000
vt 0.687500 0.500000
vt 0.437500 0.562500
vt 0.500000 0.500000
vt 0.375000 0.812500
vt 0.000000 0.000000
vt 0.625000 0.812500
vt 0.562500 0.812500
vt 0.187500 0.750000
vt 0.812500 0.500000
vt 0.562500 0.187500
vt 0.812500 0.562500
vt 0.562500 0.000000
vt 0.437500 0.000000
vt 0.562500 0.125000
vt 0.437500 0.187500
vt 0.187500 0.500000
vt 0.437500 0.250000
vt 0.687500 0.750000
vt 0.750000 0.500000
vt 0.250000 0.500000
vt 0.500000 0.250000
vt 0.562500 0.250000
vt 0.625000 1.000000
vt 0.875000 0.750000
s 0
f 2/1/1 1/3/1 3/2/1
f 4/4/2 3/2/2 7/5/2
f 8/6/3 7/5/3 5/7/3
f 6/8/4 5/7/4 1/9/4
f 7/5/5 3/11/5 1/10/5
f 4/12/6 8/6/6 6/8/6
f 16/13/7 19/15/7 48/14/7
f 35/16/8 39/18/8 47/17/8
f 32/19/9 10/21/9 28/20/9
f 44/22/10 34/24/10 37/23/10
f 33/25/11 40/27/11 26/26/11
f 25/28/12 9/30/12 30/29/12
f 17/31/13 18/33/13 29/32/13
f 28/34/14 38/35/14 37/23/14
f 45/36/15 24/38/15 14/37/15
f 43/39/16 15/40/16 16/13/16
f 30/29/17 29/32/17 26/41/17
f 29/42/18 30/42/18 32/42/18
f 10/21/19 32/19/19 30/29/19
f 18/33/20 26/41/20 29/32/20
f 27/43/21 31/44/21 32/19/21
f 40/27/22 39/18/22 25/45/22
f 22/46/23 46/48/23 42/47/23
f 10/49/24 9/50/24 35/16/24
f 17/31/25 31/44/25 27/43/25
f 44/22/26 43/39/26 33/25/26
f 36/51/27 35/16/27 41/52/27
f 10/49/28 36/51/28 38/35/28
f 48/14/29 47/17/29 39/18/29
f 36/51/30 42/47/30 46/48/30
f 9/50/31 25/45/31 39/18/31
f 45/36/32 37/23/32 38/35/32
f 21/53/33 13/54/33 41/52/33
f 43/39/34 48/14/34 40/27/34
f 27/55/35 37/23/35 34/24/35
f 23/56/36 24/38/36 46/48/36
f 47/17/37 20/57/37 21/53/37
f 17/31/38 34/24/38 33/25/38
f 12/58/39 41/52/39 13/54/39
f 11/59/40 12/58/40 52/42/40
f 50/42/41 23/56/41 52/42/41
f 19/15/42 50/42/42 20/57/42
f 51/42/43 50/42/43 52/42/43
f 21/53/44 51/42/44 13/54/44
f 53/3/27 55/2/27 56/4/27
f 55/2/45 59/5/45 60/6/45
f 59/5/26 57/7/26 58/8/26
f 57/7/46 53/9/46 54/60/46
f 59/5/29 55/11/29 53/10/29
f 60/6/32 58/8/32 54/61/32
f 62/1/47 61/3/47 63/2/47
f 64/4/48 63/2/48 67/5/48
f 68/6/49 67/5/49 65/7/49
f 65/7/50 61/9/50 62/60/50
f 67/5/51 63/11/51 61/10/51
f 64/12/52 68/6/52 66/8/52
f 2/1/1 3/2/1 4/4/1
f 4/4/2 7/5/2 8/6/2
f 8/6/3 5/7/3 6/8/3
f 6/8/4 1/9/4 2/60/4
f 7/5/5 1/10/5 5/7/5
f 4/12/6 6/8/6 2/61/6
f 16/13/7 48/14/7 43/39/7
f 35/16/8 47/17/8 41/52/8
f 44/22/10 37/23/10 45/36/10
f 33/25/11 26/26/11 18/33/11
f 17/31/13 29/32/13 31/44/13
f 28/34/14 37/23/14 27/55/14
f 45/36/53 14/37/53 44/22/53
f 15/40/16 44/22/16 14/37/16
f 44/22/16 15/40/16 43/39/16
f 30/29/17 26/41/17 25/28/17
f 29/42/18 32/42/18 31/42/18
f 10/21/19 30/29/19 9/30/19
f 27/43/21 32/19/21 28/20/21
f 40/27/22 25/45/22 26/26/22
f 22/46/54 42/47/54 11/59/54
f 10/49/24 35/16/24 36/51/24
f 44/22/26 33/25/26 34/24/26
f 36/51/27 41/52/27 42/47/27
f 10/49/28 38/35/28 28/34/28
f 48/14/29 39/18/29 40/27/29
f 36/51/30 46/48/30 38/35/30
f 9/50/31 39/18/31 35/16/31
f 45/36/32 38/35/32 46/48/32
f 21/53/33 41/52/33 47/17/33
f 43/39/34 40/27/34 33/25/34
f 27/55/35 34/24/35 17/31/35
f 23/56/55 46/48/55 22/46/55
f 46/48/56 24/38/56 45/36/56
f 20/57/57 47/17/57 19/15/57
f 19/15/58 47/17/58 48/14/58
f 17/31/38 33/25/38 18/33/38
f 41/52/39 12/58/39 42/47/39
f 42/47/39 12/58/39 11/59/39
f 22/46/59 52/42/59 23/56/59
f 52/42/60 12/58/60 49/42/60
f 11/59/61 52/42/61 22/46/61
f 23/56/62 50/42/62 24/38/62
f 24/38/43 15/40/43 14/37/43
f 50/42/63 15/40/63 24/38/63
f 15/40/43 19/15/43 16/13/43
f 20/57/64 50/42/64 51/42/64
f 15/40/65 50/42/65 19/15/65
f 51/42/43 52/42/43 49/42/43
f 13/54/40 51/42/40 12/58/40
f 12/58/66 51/42/66 49/42/66
f 51/42/67 21/53/67 20/57/67
f 53/3/27 56/4/27 54/1/27
f 55/2/45 60/6/45 56/4/45
f 59/5/26 58/8/26 60/6/26
f 57/7/46 54/60/46 58/8/46
f 59/5/29 53/10/29 57/7/29
f 60/6/32 54/61/32 56/12/32
f 62/1/47 63/2/47 64/4/47
f 64/4/48 67/5/48 68/6/48
f 68/6/49 65/7/49 66/8/49
f 65/7/50 62/60/50 66/8/50
f 67/5/51 61/10/51 65/7/51
f 64/12/52 66/8/52 62/61/52
