# Blender 4.4.1
# www.blender.org
mtllib pikopiko.mtl
o Cube.011
v -1.457072 -0.533437 -0.100000
v -0.457072 -0.533437 -0.100000
v -1.457072 -0.333512 -0.100000
v -0.457072 -0.333511 -0.100000
v -1.457072 -0.533437 0.100000
v -0.457072 -0.533437 0.100000
v -1.457072 -0.333512 0.100000
v -0.457072 -0.333511 0.100000
v 2.875402 1.042255 -0.100000
v 2.920355 -0.503515 -0.100000
v 3.074980 1.048079 -0.100000
v 3.119934 -0.497692 -0.100000
v 2.875402 1.042255 0.100000
v 2.920355 -0.503515 0.100000
v 3.074980 1.048079 0.100000
v 3.119934 -0.497692 0.100000
v 1.953431 0.363456 -0.100000
v 2.940159 0.363456 -0.100000
v 1.953431 0.563380 -0.100000
v 2.940159 0.563380 -0.100000
v 1.953431 0.363456 0.100000
v 2.940159 0.363456 0.100000
v 1.953431 0.563380 0.100000
v 2.940159 0.563380 0.100000
v 1.951837 -0.503699 -0.100000
v 2.951837 -0.503699 -0.100000
v 1.951837 -0.303774 -0.100000
v 2.951837 -0.303774 -0.100000
v 1.951837 -0.503699 0.100000
v 2.951837 -0.503699 0.100000
v 1.951837 -0.303774 0.100000
v 2.951837 -0.303774 0.100000
v 1.656194 0.928808 -0.100000
v 1.654660 0.676736 -0.100000
v 1.705320 0.928508 -0.100000
v 1.703786 0.676436 -0.100000
v 1.656194 0.928808 0.100000
v 1.654660 0.676736 0.100000
v 1.705320 0.928508 0.100000
v 1.703785 0.676436 0.100000
v 1.676644 0.673601 -0.100000
v 1.922691 0.673601 -0.100000
v 1.676644 0.722792 -0.100000
v 1.922691 0.722792 -0.100000
v 1.676643 0.673601 0.100000
v 1.922690 0.673601 0.100000
v 1.676643 0.722792 0.100000
v 1.922690 0.722792 0.100000
v 1.677036 0.886962 -0.100000
v 1.919817 0.886962 -0.100000
v 1.677036 0.936152 -0.100000
v 1.919817 0.936152 -0.100000
v 1.677036 0.886962 0.100000
v 1.919817 0.886962 0.100000
v 1.677036 0.936152 0.100000
v 1.919817 0.936152 0.100000
v 1.902224 0.929953 -0.100000
v 1.909552 0.677983 -0.100000
v 1.951330 0.931386 -0.100000
v 1.958658 0.679416 -0.100000
v 1.902224 0.929953 0.100000
v 1.909552 0.677983 0.100000
v 1.951330 0.931386 0.100000
v 1.958658 0.679416 0.100000
v 0.323889 -0.510347 -0.100000
v 1.323889 -0.510347 -0.100000
v 0.323889 -0.310422 -0.100000
v 1.323889 -0.310422 -0.100000
v 0.323889 -0.510347 0.100000
v 1.323889 -0.510347 0.100000
v 0.323889 -0.310422 0.100000
v 1.323889 -0.310422 0.100000
v 0.325483 0.356808 -0.100000
v 1.312212 0.356808 -0.100000
v 0.325483 0.556732 -0.100000
v 1.312212 0.556732 -0.100000
v 0.325483 0.356808 0.100000
v 1.312212 0.356808 0.100000
v 0.325483 0.556732 0.100000
v 1.312212 0.556732 0.100000
v 0.257569 0.530230 -0.100000
v 0.287630 -0.503453 -0.100000
v 0.457147 0.536054 -0.100000
v 0.487208 -0.497629 -0.100000
v 0.257569 0.530230 0.100000
v 0.287630 -0.503453 0.100000
v 0.457147 0.536054 0.100000
v 0.487208 -0.497629 0.100000
v -3.151340 0.500493 -0.100000
v -3.121279 -0.533190 -0.100000
v -2.951761 0.506317 -0.100000
v -2.921700 -0.527367 -0.100000
v -3.151340 0.500493 0.100000
v -3.121279 -0.533190 0.100000
v -2.951761 0.506317 0.100000
v -2.921700 -0.527367 0.100000
v -1.752714 0.899071 -0.100000
v -1.754248 0.646999 -0.100000
v -1.703588 0.898771 -0.100000
v -1.705123 0.646699 -0.100000
v -1.752714 0.899071 0.100000
v -1.754249 0.646999 0.100000
v -1.703588 0.898771 0.100000
v -1.705123 0.646699 0.100000
v -1.732265 0.643863 -0.100000
v -1.486218 0.643864 -0.100000
v -1.732265 0.693054 -0.100000
v -1.486218 0.693055 -0.100000
v -1.732265 0.643863 0.100000
v -1.486218 0.643864 0.100000
v -1.732265 0.693054 0.100000
v -1.486218 0.693055 0.100000
v -1.731873 0.857224 -0.100000
v -1.489091 0.857224 -0.100000
v -1.731873 0.906415 -0.100000
v -1.489091 0.906415 -0.100000
v -1.731873 0.857224 0.100000
v -1.489091 0.857224 0.100000
v -1.731873 0.906415 0.100000
v -1.489091 0.906415 0.100000
v -1.506684 0.900215 -0.100000
v -1.499357 0.648246 -0.100000
v -1.457579 0.901648 -0.100000
v -1.450251 0.649679 -0.100000
v -1.506684 0.900215 0.100000
v -1.499357 0.648246 0.100000
v -1.457579 0.901648 0.100000
v -1.450251 0.649679 0.100000
v -3.083425 0.327071 -0.100000
v -2.096697 0.327071 -0.100000
v -3.083425 0.526995 -0.100000
v -2.096697 0.526995 -0.100000
v -3.083425 0.327071 0.100000
v -2.096697 0.327071 0.100000
v -3.083425 0.526995 0.100000
v -2.096697 0.526995 0.100000
v -3.085019 -0.540084 -0.100000
v -2.085019 -0.540084 -0.100000
v -3.085019 -0.340159 -0.100000
v -2.085019 -0.340159 -0.100000
v -3.085019 -0.540084 0.100000
v -2.085019 -0.540084 0.100000
v -3.085019 -0.340159 0.100000
v -2.085019 -0.340159 0.100000
v -1.455478 0.333719 -0.100000
v -0.468750 0.333719 -0.100000
v -1.455478 0.533643 -0.100000
v -0.468750 0.533643 -0.100000
v -1.455478 0.333719 0.100000
v -0.468750 0.333719 0.100000
v -1.455478 0.533643 0.100000
v -0.468750 0.533643 0.100000
v -0.533506 1.012518 -0.100000
v -0.488553 -0.533252 -0.100000
v -0.333928 1.018342 -0.100000
v -0.288975 -0.527429 -0.100000
v -0.533506 1.012518 0.100000
v -0.488553 -0.533252 0.100000
v -0.333928 1.018342 0.100000
v -0.288975 -0.527429 0.100000
vn -1.0000 -0.0000 -0.0000
vn -0.0000 1.0000 -0.0000
vn -0.0000 -0.0000 1.0000
vn 1.0000 -0.0000 -0.0000
vn -0.0000 -0.0000 -1.0000
vn -0.0000 -1.0000 -0.0000
vn -0.0292 0.9996 -0.0000
vn 0.9996 0.0291 -0.0000
vn 0.0292 -0.9996 -0.0000
vn -0.9996 -0.0291 -0.0000
vn 0.0061 1.0000 -0.0000
vn 1.0000 -0.0061 -0.0000
vn -0.0061 -1.0000 -0.0000
vn -1.0000 0.0061 -0.0000
vt 0.875000 0.500000
vt 0.625000 0.750000
vt 0.625000 0.500000
vt 0.375000 1.000000
vt 0.375000 0.750000
vt 0.625000 0.000000
vt 0.375000 0.250000
vt 0.375000 0.000000
vt 0.375000 0.500000
vt 0.125000 0.750000
vt 0.125000 0.500000
vt 0.625000 0.250000
vt 0.875000 0.750000
vt 0.625000 1.000000
s 0
usemtl Material.018
f 5/1/1 3/2/1 1/3/1
f 3/2/2 8/4/2 4/5/2
f 7/6/3 6/7/3 8/8/3
f 2/9/4 8/10/4 6/11/4
f 1/3/5 4/5/5 2/9/5
f 5/12/6 2/9/6 6/7/6
f 5/1/1 7/13/1 3/2/1
f 3/2/2 7/14/2 8/4/2
f 7/6/3 5/12/3 6/7/3
f 2/9/4 4/5/4 8/10/4
f 1/3/5 3/2/5 4/5/5
f 5/12/6 1/3/6 2/9/6
usemtl Material
f 13/1/7 11/2/7 9/3/7
f 11/2/8 16/4/8 12/5/8
f 16/8/3 13/12/3 14/7/3
f 10/9/9 16/10/9 14/11/9
f 9/3/5 12/5/5 10/9/5
f 13/12/10 10/9/10 14/7/10
f 13/1/7 15/13/7 11/2/7
f 11/2/8 15/14/8 16/4/8
f 16/8/3 15/6/3 13/12/3
f 10/9/9 12/5/9 16/10/9
f 9/3/5 11/2/5 12/5/5
f 13/12/10 9/3/10 10/9/10
usemtl Material.001
f 21/1/1 19/2/1 17/3/1
f 19/2/2 24/4/2 20/5/2
f 23/6/3 22/7/3 24/8/3
f 18/9/4 24/10/4 22/11/4
f 17/3/5 20/5/5 18/9/5
f 21/12/6 18/9/6 22/7/6
f 21/1/1 23/13/1 19/2/1
f 19/2/2 23/14/2 24/4/2
f 23/6/3 21/12/3 22/7/3
f 18/9/4 20/5/4 24/10/4
f 17/3/5 19/2/5 20/5/5
f 21/12/6 17/3/6 18/9/6
usemtl Material.002
f 29/1/1 27/2/1 25/3/1
f 27/2/2 32/4/2 28/5/2
f 31/6/3 30/7/3 32/8/3
f 26/9/4 32/10/4 30/11/4
f 25/3/5 28/5/5 26/9/5
f 29/12/6 26/9/6 30/7/6
f 29/1/1 31/13/1 27/2/1
f 27/2/2 31/14/2 32/4/2
f 31/6/3 29/12/3 30/7/3
f 26/9/4 28/5/4 32/10/4
f 25/3/5 27/2/5 28/5/5
f 29/12/6 25/3/6 26/9/6
usemtl Material.006
f 37/1/11 35/2/11 33/3/11
f 35/2/12 40/4/12 36/5/12
f 39/6/3 38/7/3 40/8/3
f 34/9/13 40/10/13 38/11/13
f 34/9/5 35/2/5 36/5/5
f 37/12/14 34/9/14 38/7/14
f 37/1/11 39/13/11 35/2/11
f 35/2/12 39/14/12 40/4/12
f 39/6/3 37/12/3 38/7/3
f 34/9/13 36/5/13 40/10/13
f 34/9/5 33/3/5 35/2/5
f 37/12/14 33/3/14 34/9/14
usemtl Material.003
f 45/1/1 43/2/1 41/3/1
f 43/2/2 48/4/2 44/5/2
f 47/6/3 46/7/3 48/8/3
f 42/9/4 48/10/4 46/11/4
f 41/3/5 44/5/5 42/9/5
f 45/12/6 42/9/6 46/7/6
f 45/1/1 47/13/1 43/2/1
f 43/2/2 47/14/2 48/4/2
f 47/6/3 45/12/3 46/7/3
f 42/9/4 44/5/4 48/10/4
f 41/3/5 43/2/5 44/5/5
f 45/12/6 41/3/6 42/9/6
usemtl Material.004
f 53/1/1 51/2/1 49/3/1
f 51/2/2 56/4/2 52/5/2
f 55/6/3 54/7/3 56/8/3
f 50/9/4 56/10/4 54/11/4
f 49/3/5 52/5/5 50/9/5
f 53/12/6 50/9/6 54/7/6
f 53/1/1 55/13/1 51/2/1
f 51/2/2 55/14/2 56/4/2
f 55/6/3 53/12/3 54/7/3
f 50/9/4 52/5/4 56/10/4
f 49/3/5 51/2/5 52/5/5
f 53/12/6 49/3/6 50/9/6
usemtl Material.005
f 61/1/7 59/2/7 57/3/7
f 59/2/8 64/4/8 60/5/8
f 64/8/3 61/12/3 62/7/3
f 58/9/9 64/10/9 62/11/9
f 57/3/5 60/5/5 58/9/5
f 61/12/10 58/9/10 62/7/10
f 61/1/7 63/13/7 59/2/7
f 59/2/8 63/14/8 64/4/8
f 64/8/3 63/6/3 61/12/3
f 58/9/9 60/5/9 64/10/9
f 57/3/5 59/2/5 60/5/5
f 61/12/10 57/3/10 58/9/10
usemtl Material.007
f 69/1/1 67/2/1 65/3/1
f 67/2/2 72/4/2 68/5/2
f 71/6/3 70/7/3 72/8/3
f 66/9/4 72/10/4 70/11/4
f 65/3/5 68/5/5 66/9/5
f 69/12/6 66/9/6 70/7/6
f 69/1/1 71/13/1 67/2/1
f 67/2/2 71/14/2 72/4/2
f 71/6/3 69/12/3 70/7/3
f 66/9/4 68/5/4 72/10/4
f 65/3/5 67/2/5 68/5/5
f 69/12/6 65/3/6 66/9/6
usemtl Material.008
f 77/1/1 75/2/1 73/3/1
f 75/2/2 80/4/2 76/5/2
f 79/6/3 78/7/3 80/8/3
f 74/9/4 80/10/4 78/11/4
f 73/3/5 76/5/5 74/9/5
f 77/12/6 74/9/6 78/7/6
f 77/1/1 79/13/1 75/2/1
f 75/2/2 79/14/2 80/4/2
f 79/6/3 77/12/3 78/7/3
f 74/9/4 76/5/4 80/10/4
f 73/3/5 75/2/5 76/5/5
f 77/12/6 73/3/6 74/9/6
usemtl Material.010
f 85/1/7 83/2/7 81/3/7
f 83/2/8 88/4/8 84/5/8
f 88/8/3 85/12/3 86/7/3
f 82/9/9 88/10/9 86/11/9
f 81/3/5 84/5/5 82/9/5
f 85/12/10 82/9/10 86/7/10
f 85/1/7 87/13/7 83/2/7
f 83/2/8 87/14/8 88/4/8
f 88/8/3 87/6/3 85/12/3
f 82/9/9 84/5/9 88/10/9
f 81/3/5 83/2/5 84/5/5
f 85/12/10 81/3/10 82/9/10
usemtl Material.011
f 93/1/7 91/2/7 89/3/7
f 91/2/8 96/4/8 92/5/8
f 96/8/3 93/12/3 94/7/3
f 90/9/9 96/10/9 94/11/9
f 89/3/5 92/5/5 90/9/5
f 93/12/10 90/9/10 94/7/10
f 93/1/7 95/13/7 91/2/7
f 91/2/8 95/14/8 96/4/8
f 96/8/3 95/6/3 93/12/3
f 90/9/9 92/5/9 96/10/9
f 89/3/5 91/2/5 92/5/5
f 93/12/10 89/3/10 90/9/10
usemtl Material.012
f 101/1/11 99/2/11 97/3/11
f 99/2/12 104/4/12 100/5/12
f 103/6/3 102/7/3 104/8/3
f 98/9/13 104/10/13 102/11/13
f 98/9/5 99/2/5 100/5/5
f 101/12/14 98/9/14 102/7/14
f 101/1/11 103/13/11 99/2/11
f 99/2/12 103/14/12 104/4/12
f 103/6/3 101/12/3 102/7/3
f 98/9/13 100/5/13 104/10/13
f 98/9/5 97/3/5 99/2/5
f 101/12/14 97/3/14 98/9/14
usemtl Material.013
f 109/1/1 107/2/1 105/3/1
f 107/2/2 112/4/2 108/5/2
f 111/6/3 110/7/3 112/8/3
f 106/9/4 112/10/4 110/11/4
f 105/3/5 108/5/5 106/9/5
f 109/12/6 106/9/6 110/7/6
f 109/1/1 111/13/1 107/2/1
f 107/2/2 111/14/2 112/4/2
f 111/6/3 109/12/3 110/7/3
f 106/9/4 108/5/4 112/10/4
f 105/3/5 107/2/5 108/5/5
f 109/12/6 105/3/6 106/9/6
usemtl Material.014
f 117/1/1 115/2/1 113/3/1
f 115/2/2 120/4/2 116/5/2
f 119/6/3 118/7/3 120/8/3
f 114/9/4 120/10/4 118/11/4
f 113/3/5 116/5/5 114/9/5
f 117/12/6 114/9/6 118/7/6
f 117/1/1 119/13/1 115/2/1
f 115/2/2 119/14/2 120/4/2
f 119/6/3 117/12/3 118/7/3
f 114/9/4 116/5/4 120/10/4
f 113/3/5 115/2/5 116/5/5
f 117/12/6 113/3/6 114/9/6
usemtl Material.015
f 125/1/7 123/2/7 121/3/7
f 123/2/8 128/4/8 124/5/8
f 128/8/3 125/12/3 126/7/3
f 122/9/9 128/10/9 126/11/9
f 121/3/5 124/5/5 122/9/5
f 125/12/10 122/9/10 126/7/10
f 125/1/7 127/13/7 123/2/7
f 123/2/8 127/14/8 128/4/8
f 128/8/3 127/6/3 125/12/3
f 122/9/9 124/5/9 128/10/9
f 121/3/5 123/2/5 124/5/5
f 125/12/10 121/3/10 122/9/10
usemtl Material.016
f 133/1/1 131/2/1 129/3/1
f 131/2/2 136/4/2 132/5/2
f 135/6/3 134/7/3 136/8/3
f 130/9/4 136/10/4 134/11/4
f 129/3/5 132/5/5 130/9/5
f 133/12/6 130/9/6 134/7/6
f 133/1/1 135/13/1 131/2/1
f 131/2/2 135/14/2 136/4/2
f 135/6/3 133/12/3 134/7/3
f 130/9/4 132/5/4 136/10/4
f 129/3/5 131/2/5 132/5/5
f 133/12/6 129/3/6 130/9/6
usemtl Material.017
f 141/1/1 139/2/1 137/3/1
f 139/2/2 144/4/2 140/5/2
f 143/6/3 142/7/3 144/8/3
f 138/9/4 144/10/4 142/11/4
f 137/3/5 140/5/5 138/9/5
f 141/12/6 138/9/6 142/7/6
f 141/1/1 143/13/1 139/2/1
f 139/2/2 143/14/2 144/4/2
f 143/6/3 141/12/3 142/7/3
f 138/9/4 140/5/4 144/10/4
f 137/3/5 139/2/5 140/5/5
f 141/12/6 137/3/6 138/9/6
usemtl Material.019
f 149/1/1 147/2/1 145/3/1
f 147/2/2 152/4/2 148/5/2
f 151/6/3 150/7/3 152/8/3
f 146/9/4 152/10/4 150/11/4
f 145/3/5 148/5/5 146/9/5
f 149/12/6 146/9/6 150/7/6
f 149/1/1 151/13/1 147/2/1
f 147/2/2 151/14/2 152/4/2
f 151/6/3 149/12/3 150/7/3
f 146/9/4 148/5/4 152/10/4
f 145/3/5 147/2/5 148/5/5
f 149/12/6 145/3/6 146/9/6
usemtl Material.020
f 157/1/7 155/2/7 153/3/7
f 155/2/8 160/4/8 156/5/8
f 160/8/3 157/12/3 158/7/3
f 154/9/9 160/10/9 158/11/9
f 153/3/5 156/5/5 154/9/5
f 157/12/10 154/9/10 158/7/10
f 157/1/7 159/13/7 155/2/7
f 155/2/8 159/14/8 160/4/8
f 160/8/3 159/6/3 157/12/3
f 154/9/9 156/5/9 160/10/9
f 153/3/5 155/2/5 156/5/5
f 157/12/10 153/3/10 154/9/10
