{
	"asset":{
		"generator":"Khronos glTF Blender I/O v4.4.56",
		"version":"2.0"
	},
	"scene":0,
	"scenes":[
		{
			"name":"Scene",
			"nodes":[
				0,
				1,
				2,
				3,
				4,
				5,
				6,
				7,
				8
			]
		}
	],
	"nodes":[
		{
			"mesh":0,
			"name":"\u7403.029"
		},
		{
			"mesh":1,
			"name":"\u7403.007",
			"rotation":[
				0,
				-0.3742488920688629,
				0,
				0.9273284077644348
			],
			"translation":[
				-5.705289840698242,
				0.0008215320413000882,
				-5.364352703094482
			]
		},
		{
			"mesh":2,
			"name":"\u7403.016"
		},
		{
			"mesh":3,
			"name":"\u7403.017"
		},
		{
			"mesh":4,
			"name":"\u7403.024",
			"rotation":[
				0,
				-0.430317223072052,
				0,
				0.9026777148246765
			],
			"translation":[
				5.923879623413086,
				0.0008215238340198994,
				5.364349842071533
			]
		},
		{
			"mesh":5,
			"name":"\u7403.037",
			"rotation":[
				0,
				-0.3868334889411926,
				0,
				0.9221497178077698
			],
			"translation":[
				5.925451278686523,
				0.0008215238340198994,
				-5.362790107727051
			]
		},
		{
			"mesh":6,
			"name":"\u7403.044"
		},
		{
			"mesh":7,
			"name":"\u7403.002",
			"rotation":[
				0,
				-0.3799192011356354,
				0,
				0.9250198006629944
			],
			"translation":[
				-5.706827640533447,
				0.0008215238340198994,
				5.362744331359863
			]
		},
		{
			"mesh":8,
			"name":"\u7403.014"
		}
	],
	"animations":[
		{
			"channels":[
				{
					"sampler":0,
					"target":{
						"node":0,
						"path":"translation"
					}
				},
				{
					"sampler":1,
					"target":{
						"node":0,
						"path":"rotation"
					}
				},
				{
					"sampler":2,
					"target":{
						"node":0,
						"path":"scale"
					}
				}
			],
			"name":"\u7403.029\u30a2\u30af\u30b7\u30e7\u30f3",
			"samplers":[
				{
					"input":36,
					"interpolation":"LINEAR",
					"output":37
				},
				{
					"input":36,
					"interpolation":"LINEAR",
					"output":38
				},
				{
					"input":36,
					"interpolation":"LINEAR",
					"output":39
				}
			]
		},
		{
			"channels":[
				{
					"sampler":0,
					"target":{
						"node":1,
						"path":"translation"
					}
				},
				{
					"sampler":1,
					"target":{
						"node":1,
						"path":"rotation"
					}
				},
				{
					"sampler":2,
					"target":{
						"node":1,
						"path":"scale"
					}
				}
			],
			"name":"\u7403.007\u30a2\u30af\u30b7\u30e7\u30f3",
			"samplers":[
				{
					"input":40,
					"interpolation":"STEP",
					"output":41
				},
				{
					"input":42,
					"interpolation":"LINEAR",
					"output":43
				},
				{
					"input":40,
					"interpolation":"STEP",
					"output":44
				}
			]
		},
		{
			"channels":[
				{
					"sampler":0,
					"target":{
						"node":2,
						"path":"translation"
					}
				},
				{
					"sampler":1,
					"target":{
						"node":2,
						"path":"rotation"
					}
				},
				{
					"sampler":2,
					"target":{
						"node":2,
						"path":"scale"
					}
				}
			],
			"name":"\u7403.016\u30a2\u30af\u30b7\u30e7\u30f3",
			"samplers":[
				{
					"input":36,
					"interpolation":"LINEAR",
					"output":45
				},
				{
					"input":36,
					"interpolation":"LINEAR",
					"output":46
				},
				{
					"input":36,
					"interpolation":"LINEAR",
					"output":47
				}
			]
		},
		{
			"channels":[
				{
					"sampler":0,
					"target":{
						"node":3,
						"path":"translation"
					}
				},
				{
					"sampler":1,
					"target":{
						"node":3,
						"path":"rotation"
					}
				},
				{
					"sampler":2,
					"target":{
						"node":3,
						"path":"scale"
					}
				}
			],
			"name":"\u7403.017\u30a2\u30af\u30b7\u30e7\u30f3",
			"samplers":[
				{
					"input":48,
					"interpolation":"LINEAR",
					"output":49
				},
				{
					"input":48,
					"interpolation":"LINEAR",
					"output":50
				},
				{
					"input":48,
					"interpolation":"LINEAR",
					"output":51
				}
			]
		},
		{
			"channels":[
				{
					"sampler":0,
					"target":{
						"node":4,
						"path":"translation"
					}
				},
				{
					"sampler":1,
					"target":{
						"node":4,
						"path":"rotation"
					}
				},
				{
					"sampler":2,
					"target":{
						"node":4,
						"path":"scale"
					}
				}
			],
			"name":"\u7403.024\u30a2\u30af\u30b7\u30e7\u30f3",
			"samplers":[
				{
					"input":40,
					"interpolation":"STEP",
					"output":52
				},
				{
					"input":42,
					"interpolation":"LINEAR",
					"output":53
				},
				{
					"input":40,
					"interpolation":"STEP",
					"output":54
				}
			]
		},
		{
			"channels":[
				{
					"sampler":0,
					"target":{
						"node":5,
						"path":"translation"
					}
				},
				{
					"sampler":1,
					"target":{
						"node":5,
						"path":"rotation"
					}
				},
				{
					"sampler":2,
					"target":{
						"node":5,
						"path":"scale"
					}
				}
			],
			"name":"\u7403.037\u30a2\u30af\u30b7\u30e7\u30f3",
			"samplers":[
				{
					"input":40,
					"interpolation":"STEP",
					"output":55
				},
				{
					"input":42,
					"interpolation":"LINEAR",
					"output":56
				},
				{
					"input":40,
					"interpolation":"STEP",
					"output":57
				}
			]
		},
		{
			"channels":[
				{
					"sampler":0,
					"target":{
						"node":6,
						"path":"translation"
					}
				},
				{
					"sampler":1,
					"target":{
						"node":6,
						"path":"rotation"
					}
				},
				{
					"sampler":2,
					"target":{
						"node":6,
						"path":"scale"
					}
				}
			],
			"name":"\u7403.044\u30a2\u30af\u30b7\u30e7\u30f3",
			"samplers":[
				{
					"input":36,
					"interpolation":"LINEAR",
					"output":58
				},
				{
					"input":36,
					"interpolation":"LINEAR",
					"output":59
				},
				{
					"input":36,
					"interpolation":"LINEAR",
					"output":60
				}
			]
		},
		{
			"channels":[
				{
					"sampler":0,
					"target":{
						"node":7,
						"path":"translation"
					}
				},
				{
					"sampler":1,
					"target":{
						"node":7,
						"path":"rotation"
					}
				},
				{
					"sampler":2,
					"target":{
						"node":7,
						"path":"scale"
					}
				}
			],
			"name":"\u7403.002\u30a2\u30af\u30b7\u30e7\u30f3",
			"samplers":[
				{
					"input":40,
					"interpolation":"STEP",
					"output":61
				},
				{
					"input":42,
					"interpolation":"LINEAR",
					"output":62
				},
				{
					"input":40,
					"interpolation":"STEP",
					"output":63
				}
			]
		},
		{
			"channels":[
				{
					"sampler":0,
					"target":{
						"node":8,
						"path":"translation"
					}
				},
				{
					"sampler":1,
					"target":{
						"node":8,
						"path":"rotation"
					}
				},
				{
					"sampler":2,
					"target":{
						"node":8,
						"path":"scale"
					}
				}
			],
			"name":"\u7403.014\u30a2\u30af\u30b7\u30e7\u30f3",
			"samplers":[
				{
					"input":36,
					"interpolation":"LINEAR",
					"output":64
				},
				{
					"input":36,
					"interpolation":"LINEAR",
					"output":65
				},
				{
					"input":36,
					"interpolation":"LINEAR",
					"output":66
				}
			]
		}
	],
	"materials":[
		{
			"doubleSided":true,
			"name":"\u30de\u30c6\u30ea\u30a2\u30eb.001",
			"pbrMetallicRoughness":{
				"baseColorTexture":{
					"index":0
				},
				"metallicFactor":0,
				"roughnessFactor":0.5
			}
		}
	],
	"meshes":[
		{
			"name":"\u7403.029",
			"primitives":[
				{
					"attributes":{
						"POSITION":0,
						"NORMAL":1,
						"TEXCOORD_0":2
					},
					"indices":3,
					"material":0
				}
			]
		},
		{
			"name":"\u7403.121",
			"primitives":[
				{
					"attributes":{
						"POSITION":4,
						"NORMAL":5,
						"TEXCOORD_0":6
					},
					"indices":7
				}
			]
		},
		{
			"name":"\u7403.130",
			"primitives":[
				{
					"attributes":{
						"POSITION":8,
						"NORMAL":9,
						"TEXCOORD_0":10
					},
					"indices":11
				}
			]
		},
		{
			"name":"\u7403.143",
			"primitives":[
				{
					"attributes":{
						"POSITION":12,
						"NORMAL":13,
						"TEXCOORD_0":14
					},
					"indices":15
				}
			]
		},
		{
			"name":"\u7403.150",
			"primitives":[
				{
					"attributes":{
						"POSITION":16,
						"NORMAL":17,
						"TEXCOORD_0":18
					},
					"indices":19
				}
			]
		},
		{
			"name":"\u7403.162",
			"primitives":[
				{
					"attributes":{
						"POSITION":20,
						"NORMAL":21,
						"TEXCOORD_0":22
					},
					"indices":23
				}
			]
		},
		{
			"name":"\u7403.169",
			"primitives":[
				{
					"attributes":{
						"POSITION":24,
						"NORMAL":25,
						"TEXCOORD_0":26
					},
					"indices":27
				}
			]
		},
		{
			"name":"\u7403.172",
			"primitives":[
				{
					"attributes":{
						"POSITION":28,
						"NORMAL":29,
						"TEXCOORD_0":30
					},
					"indices":31
				}
			]
		},
		{
			"name":"\u7403.182",
			"primitives":[
				{
					"attributes":{
						"POSITION":32,
						"NORMAL":33,
						"TEXCOORD_0":34
					},
					"indices":35
				}
			]
		}
	],
	"textures":[
		{
			"sampler":0,
			"source":0
		}
	],
	"images":[
		{
			"mimeType":"image/png",
			"name":"body",
			"uri":"body.png"
		}
	],
	"accessors":[
		{
			"bufferView":0,
			"componentType":5126,
			"count":219,
			"max":[
				6.482752799987793,
				2.162215232849121,
				2.0420281887054443
			],
			"min":[
				-5.986676216125488,
				-1.6444172859191895,
				-2.0420289039611816
			],
			"type":"VEC3"
		},
		{
			"bufferView":1,
			"componentType":5126,
			"count":219,
			"type":"VEC3"
		},
		{
			"bufferView":2,
			"componentType":5126,
			"count":219,
			"type":"VEC2"
		},
		{
			"bufferView":3,
			"componentType":5123,
			"count":576,
			"type":"SCALAR"
		},
		{
			"bufferView":4,
			"componentType":5126,
			"count":884,
			"max":[
				1.9551234245300293,
				0.8072949647903442,
				1.9542784690856934
			],
			"min":[
				-1.9546847343444824,
				-0.8089380264282227,
				-1.955531120300293
			],
			"type":"VEC3"
		},
		{
			"bufferView":5,
			"componentType":5126,
			"count":884,
			"type":"VEC3"
		},
		{
			"bufferView":6,
			"componentType":5126,
			"count":884,
			"type":"VEC2"
		},
		{
			"bufferView":7,
			"componentType":5123,
			"count":2700,
			"type":"SCALAR"
		},
		{
			"bufferView":8,
			"componentType":5126,
			"count":468,
			"max":[
				-1.7641441822052002,
				0.764822244644165,
				-1.418168306350708
			],
			"min":[
				-8.691761016845703,
				-0.7585543394088745,
				-8.345788955688477
			],
			"type":"VEC3"
		},
		{
			"bufferView":9,
			"componentType":5126,
			"count":468,
			"type":"VEC3"
		},
		{
			"bufferView":10,
			"componentType":5126,
			"count":468,
			"type":"VEC2"
		},
		{
			"bufferView":11,
			"componentType":5123,
			"count":1176,
			"type":"SCALAR"
		},
		{
			"bufferView":12,
			"componentType":5126,
			"count":468,
			"max":[
				-1.760646104812622,
				0.764822244644165,
				8.349212646484375
			],
			"min":[
				-8.68826675415039,
				-0.7585543394088745,
				1.4215953350067139
			],
			"type":"VEC3"
		},
		{
			"bufferView":13,
			"componentType":5126,
			"count":468,
			"type":"VEC3"
		},
		{
			"bufferView":14,
			"componentType":5126,
			"count":468,
			"type":"VEC2"
		},
		{
			"bufferView":15,
			"componentType":5123,
			"count":1176,
			"type":"SCALAR"
		},
		{
			"bufferView":16,
			"componentType":5126,
			"count":881,
			"max":[
				1.9546780586242676,
				0.8072949051856995,
				1.9555325508117676
			],
			"min":[
				-1.9551293849945068,
				-0.8089380860328674,
				-1.9542760848999023
			],
			"type":"VEC3"
		},
		{
			"bufferView":17,
			"componentType":5126,
			"count":881,
			"type":"VEC3"
		},
		{
			"bufferView":18,
			"componentType":5126,
			"count":881,
			"type":"VEC2"
		},
		{
			"bufferView":19,
			"componentType":5123,
			"count":2700,
			"type":"SCALAR"
		},
		{
			"bufferView":20,
			"componentType":5126,
			"count":881,
			"max":[
				1.9555315971374512,
				0.8072949051856995,
				1.955122947692871
			],
			"min":[
				-1.9542770385742188,
				-0.8089380860328674,
				-1.9546842575073242
			],
			"type":"VEC3"
		},
		{
			"bufferView":21,
			"componentType":5126,
			"count":881,
			"type":"VEC3"
		},
		{
			"bufferView":22,
			"componentType":5126,
			"count":881,
			"type":"VEC2"
		},
		{
			"bufferView":23,
			"componentType":5123,
			"count":2700,
			"type":"SCALAR"
		},
		{
			"bufferView":24,
			"componentType":5126,
			"count":468,
			"max":[
				8.906888961791992,
				0.764822244644165,
				-1.421644926071167
			],
			"min":[
				1.9792680740356445,
				-0.7585543394088745,
				-8.349261283874512
			],
			"type":"VEC3"
		},
		{
			"bufferView":25,
			"componentType":5126,
			"count":468,
			"type":"VEC3"
		},
		{
			"bufferView":26,
			"componentType":5126,
			"count":468,
			"type":"VEC2"
		},
		{
			"bufferView":27,
			"componentType":5123,
			"count":1176,
			"type":"SCALAR"
		},
		{
			"bufferView":28,
			"componentType":5126,
			"count":884,
			"max":[
				1.9542760848999023,
				0.8072949051856995,
				1.954681396484375
			],
			"min":[
				-1.955533504486084,
				-0.8089380860328674,
				-1.9551267623901367
			],
			"type":"VEC3"
		},
		{
			"bufferView":29,
			"componentType":5126,
			"count":884,
			"type":"VEC3"
		},
		{
			"bufferView":30,
			"componentType":5126,
			"count":884,
			"type":"VEC2"
		},
		{
			"bufferView":31,
			"componentType":5123,
			"count":2700,
			"type":"SCALAR"
		},
		{
			"bufferView":32,
			"componentType":5126,
			"count":468,
			"max":[
				8.910346031188965,
				0.764822244644165,
				8.34578800201416
			],
			"min":[
				1.9827289581298828,
				-0.7585543394088745,
				1.4181675910949707
			],
			"type":"VEC3"
		},
		{
			"bufferView":33,
			"componentType":5126,
			"count":468,
			"type":"VEC3"
		},
		{
			"bufferView":34,
			"componentType":5126,
			"count":468,
			"type":"VEC2"
		},
		{
			"bufferView":35,
			"componentType":5123,
			"count":1176,
			"type":"SCALAR"
		},
		{
			"bufferView":36,
			"componentType":5126,
			"count":1,
			"max":[
				0.20833333333333334
			],
			"min":[
				0.20833333333333334
			],
			"type":"SCALAR"
		},
		{
			"bufferView":37,
			"componentType":5126,
			"count":1,
			"type":"VEC3"
		},
		{
			"bufferView":38,
			"componentType":5126,
			"count":1,
			"type":"VEC4"
		},
		{
			"bufferView":39,
			"componentType":5126,
			"count":1,
			"type":"VEC3"
		},
		{
			"bufferView":40,
			"componentType":5126,
			"count":2,
			"max":[
				0.5833333333333334
			],
			"min":[
				0
			],
			"type":"SCALAR"
		},
		{
			"bufferView":41,
			"componentType":5126,
			"count":2,
			"type":"VEC3"
		},
		{
			"bufferView":42,
			"componentType":5126,
			"count":15,
			"max":[
				0.5833333333333334
			],
			"min":[
				0
			],
			"type":"SCALAR"
		},
		{
			"bufferView":43,
			"componentType":5126,
			"count":15,
			"type":"VEC4"
		},
		{
			"bufferView":44,
			"componentType":5126,
			"count":2,
			"type":"VEC3"
		},
		{
			"bufferView":45,
			"componentType":5126,
			"count":1,
			"type":"VEC3"
		},
		{
			"bufferView":46,
			"componentType":5126,
			"count":1,
			"type":"VEC4"
		},
		{
			"bufferView":47,
			"componentType":5126,
			"count":1,
			"type":"VEC3"
		},
		{
			"bufferView":48,
			"componentType":5126,
			"count":1,
			"max":[
				0
			],
			"min":[
				0
			],
			"type":"SCALAR"
		},
		{
			"bufferView":49,
			"componentType":5126,
			"count":1,
			"type":"VEC3"
		},
		{
			"bufferView":50,
			"componentType":5126,
			"count":1,
			"type":"VEC4"
		},
		{
			"bufferView":51,
			"componentType":5126,
			"count":1,
			"type":"VEC3"
		},
		{
			"bufferView":52,
			"componentType":5126,
			"count":2,
			"type":"VEC3"
		},
		{
			"bufferView":53,
			"componentType":5126,
			"count":15,
			"type":"VEC4"
		},
		{
			"bufferView":54,
			"componentType":5126,
			"count":2,
			"type":"VEC3"
		},
		{
			"bufferView":55,
			"componentType":5126,
			"count":2,
			"type":"VEC3"
		},
		{
			"bufferView":56,
			"componentType":5126,
			"count":15,
			"type":"VEC4"
		},
		{
			"bufferView":57,
			"componentType":5126,
			"count":2,
			"type":"VEC3"
		},
		{
			"bufferView":58,
			"componentType":5126,
			"count":1,
			"type":"VEC3"
		},
		{
			"bufferView":59,
			"componentType":5126,
			"count":1,
			"type":"VEC4"
		},
		{
			"bufferView":60,
			"componentType":5126,
			"count":1,
			"type":"VEC3"
		},
		{
			"bufferView":61,
			"componentType":5126,
			"count":2,
			"type":"VEC3"
		},
		{
			"bufferView":62,
			"componentType":5126,
			"count":15,
			"type":"VEC4"
		},
		{
			"bufferView":63,
			"componentType":5126,
			"count":2,
			"type":"VEC3"
		},
		{
			"bufferView":64,
			"componentType":5126,
			"count":1,
			"type":"VEC3"
		},
		{
			"bufferView":65,
			"componentType":5126,
			"count":1,
			"type":"VEC4"
		},
		{
			"bufferView":66,
			"componentType":5126,
			"count":1,
			"type":"VEC3"
		}
	],
	"bufferViews":[
		{
			"buffer":0,
			"byteLength":2628,
			"byteOffset":0,
			"target":34962
		},
		{
			"buffer":0,
			"byteLength":2628,
			"byteOffset":2628,
			"target":34962
		},
		{
			"buffer":0,
			"byteLength":1752,
			"byteOffset":5256,
			"target":34962
		},
		{
			"buffer":0,
			"byteLength":1152,
			"byteOffset":7008,
			"target":34963
		},
		{
			"buffer":0,
			"byteLength":10608,
			"byteOffset":8160,
			"target":34962
		},
		{
			"buffer":0,
			"byteLength":10608,
			"byteOffset":18768,
			"target":34962
		},
		{
			"buffer":0,
			"byteLength":7072,
			"byteOffset":29376,
			"target":34962
		},
		{
			"buffer":0,
			"byteLength":5400,
			"byteOffset":36448,
			"target":34963
		},
		{
			"buffer":0,
			"byteLength":5616,
			"byteOffset":41848,
			"target":34962
		},
		{
			"buffer":0,
			"byteLength":5616,
			"byteOffset":47464,
			"target":34962
		},
		{
			"buffer":0,
			"byteLength":3744,
			"byteOffset":53080,
			"target":34962
		},
		{
			"buffer":0,
			"byteLength":2352,
			"byteOffset":56824,
			"target":34963
		},
		{
			"buffer":0,
			"byteLength":5616,
			"byteOffset":59176,
			"target":34962
		},
		{
			"buffer":0,
			"byteLength":5616,
			"byteOffset":64792,
			"target":34962
		},
		{
			"buffer":0,
			"byteLength":3744,
			"byteOffset":70408,
			"target":34962
		},
		{
			"buffer":0,
			"byteLength":2352,
			"byteOffset":74152,
			"target":34963
		},
		{
			"buffer":0,
			"byteLength":10572,
			"byteOffset":76504,
			"target":34962
		},
		{
			"buffer":0,
			"byteLength":10572,
			"byteOffset":87076,
			"target":34962
		},
		{
			"buffer":0,
			"byteLength":7048,
			"byteOffset":97648,
			"target":34962
		},
		{
			"buffer":0,
			"byteLength":5400,
			"byteOffset":104696,
			"target":34963
		},
		{
			"buffer":0,
			"byteLength":10572,
			"byteOffset":110096,
			"target":34962
		},
		{
			"buffer":0,
			"byteLength":10572,
			"byteOffset":120668,
			"target":34962
		},
		{
			"buffer":0,
			"byteLength":7048,
			"byteOffset":131240,
			"target":34962
		},
		{
			"buffer":0,
			"byteLength":5400,
			"byteOffset":138288,
			"target":34963
		},
		{
			"buffer":0,
			"byteLength":5616,
			"byteOffset":143688,
			"target":34962
		},
		{
			"buffer":0,
			"byteLength":5616,
			"byteOffset":149304,
			"target":34962
		},
		{
			"buffer":0,
			"byteLength":3744,
			"byteOffset":154920,
			"target":34962
		},
		{
			"buffer":0,
			"byteLength":2352,
			"byteOffset":158664,
			"target":34963
		},
		{
			"buffer":0,
			"byteLength":10608,
			"byteOffset":161016,
			"target":34962
		},
		{
			"buffer":0,
			"byteLength":10608,
			"byteOffset":171624,
			"target":34962
		},
		{
			"buffer":0,
			"byteLength":7072,
			"byteOffset":182232,
			"target":34962
		},
		{
			"buffer":0,
			"byteLength":5400,
			"byteOffset":189304,
			"target":34963
		},
		{
			"buffer":0,
			"byteLength":5616,
			"byteOffset":194704,
			"target":34962
		},
		{
			"buffer":0,
			"byteLength":5616,
			"byteOffset":200320,
			"target":34962
		},
		{
			"buffer":0,
			"byteLength":3744,
			"byteOffset":205936,
			"target":34962
		},
		{
			"buffer":0,
			"byteLength":2352,
			"byteOffset":209680,
			"target":34963
		},
		{
			"buffer":0,
			"byteLength":4,
			"byteOffset":212032
		},
		{
			"buffer":0,
			"byteLength":12,
			"byteOffset":212036
		},
		{
			"buffer":0,
			"byteLength":16,
			"byteOffset":212048
		},
		{
			"buffer":0,
			"byteLength":12,
			"byteOffset":212064
		},
		{
			"buffer":0,
			"byteLength":8,
			"byteOffset":212076
		},
		{
			"buffer":0,
			"byteLength":24,
			"byteOffset":212084
		},
		{
			"buffer":0,
			"byteLength":60,
			"byteOffset":212108
		},
		{
			"buffer":0,
			"byteLength":240,
			"byteOffset":212168
		},
		{
			"buffer":0,
			"byteLength":24,
			"byteOffset":212408
		},
		{
			"buffer":0,
			"byteLength":12,
			"byteOffset":212432
		},
		{
			"buffer":0,
			"byteLength":16,
			"byteOffset":212444
		},
		{
			"buffer":0,
			"byteLength":12,
			"byteOffset":212460
		},
		{
			"buffer":0,
			"byteLength":4,
			"byteOffset":212472
		},
		{
			"buffer":0,
			"byteLength":12,
			"byteOffset":212476
		},
		{
			"buffer":0,
			"byteLength":16,
			"byteOffset":212488
		},
		{
			"buffer":0,
			"byteLength":12,
			"byteOffset":212504
		},
		{
			"buffer":0,
			"byteLength":24,
			"byteOffset":212516
		},
		{
			"buffer":0,
			"byteLength":240,
			"byteOffset":212540
		},
		{
			"buffer":0,
			"byteLength":24,
			"byteOffset":212780
		},
		{
			"buffer":0,
			"byteLength":24,
			"byteOffset":212804
		},
		{
			"buffer":0,
			"byteLength":240,
			"byteOffset":212828
		},
		{
			"buffer":0,
			"byteLength":24,
			"byteOffset":213068
		},
		{
			"buffer":0,
			"byteLength":12,
			"byteOffset":213092
		},
		{
			"buffer":0,
			"byteLength":16,
			"byteOffset":213104
		},
		{
			"buffer":0,
			"byteLength":12,
			"byteOffset":213120
		},
		{
			"buffer":0,
			"byteLength":24,
			"byteOffset":213132
		},
		{
			"buffer":0,
			"byteLength":240,
			"byteOffset":213156
		},
		{
			"buffer":0,
			"byteLength":24,
			"byteOffset":213396
		},
		{
			"buffer":0,
			"byteLength":12,
			"byteOffset":213420
		},
		{
			"buffer":0,
			"byteLength":16,
			"byteOffset":213432
		},
		{
			"buffer":0,
			"byteLength":12,
			"byteOffset":213448
		}
	],
	"samplers":[
		{
			"magFilter":9729,
			"minFilter":9987
		}
	],
	"buffers":[
		{
			"byteLength":213460,
			"uri":"drone.bin"
		}
	]
}
