# Blender 4.4.1
# www.blender.org
mtllib normalAttack.mtl
o Cube
v 0.873214 0.631739 -0.935728
v 0.772787 -0.504219 -0.932823
v 0.883032 0.623126 0.913974
v 0.238971 -0.333897 1.000000
v -1.175051 0.631739 -0.643731
v -1.175051 -0.595851 -0.634885
v -1.096659 0.623126 0.743618
v -1.096659 -0.632976 0.689375
v -1.569502 -0.595851 -0.182823
v -1.569502 -0.610571 0.000000
v -1.569502 -0.610571 0.122242
v 1.000000 0.677078 -0.750000
v 0.929730 0.632279 -0.500000
v 1.000000 0.677078 -0.250000
v 0.936386 0.638457 0.000000
v 1.000000 0.677078 0.250000
v 0.916321 0.639049 0.500000
v 1.000000 0.677078 0.750000
v -1.569502 0.623126 0.176485
v -1.569502 0.616283 0.000000
v -1.569502 0.616283 -0.250000
v 0.238971 -0.333897 0.750000
v 0.155292 -0.333897 0.500000
v 0.238971 -0.333897 0.250000
v 0.175356 -0.333897 -0.000000
v 0.238971 -0.333897 -0.250000
v 0.702517 -0.585446 -0.500000
v 0.772787 -0.585446 -0.750000
v 0.250000 -0.595851 -0.932823
v 0.000000 -0.595851 -0.932823
v -0.530466 -0.595851 -0.932823
v 0.250000 0.623126 0.926485
v 0.000000 0.623126 0.926485
v -0.530466 0.623126 0.926485
v -0.530466 -0.650069 0.872242
v 0.000000 -0.650306 0.872242
v 0.169550 -0.505375 0.949417
v -0.530466 0.631739 -0.941669
v -0.000000 0.631739 -0.941669
v 0.250000 0.631739 -0.941669
v 0.250000 -0.677078 -0.750000
v 0.000000 -0.677078 -0.750000
v -0.530466 -0.677078 -0.750000
v 0.250000 -0.677078 -0.500000
v 0.000000 -0.677078 -0.500000
v -0.530466 -0.677078 -0.500000
v 0.169550 -0.505375 -0.250000
v 0.000000 -0.677078 -0.250000
v -0.530466 -0.677078 -0.250000
v 0.169550 -0.505375 -0.000000
v 0.000000 -0.677078 0.000000
v -0.530466 -0.677078 0.000000
v 0.169550 -0.505375 0.250000
v 0.000000 -0.677078 0.250000
v -0.530466 -0.677078 0.250000
v 0.169550 -0.505375 0.500000
v 0.000000 -0.677078 0.500000
v -0.530466 -0.677078 0.500000
v 0.169550 -0.505375 0.750000
v 0.000000 -0.677078 0.750000
v -0.530466 -0.677078 0.750000
v -0.530466 0.677078 -0.750000
v 0.000000 0.677078 -0.750000
v 0.250000 0.677078 -0.750000
v -0.530466 0.677078 -0.500000
v 0.000000 0.677078 -0.500000
v 0.250000 0.632279 -0.500000
v -0.530466 0.677078 -0.250000
v 0.000000 0.677078 -0.250000
v 0.250000 0.677078 -0.250000
v -0.530466 0.677078 0.000000
v 0.000000 0.677078 0.000000
v 0.250000 0.638457 0.000000
v -0.530466 0.677078 0.250000
v 0.000000 0.677078 0.250000
v 0.250000 0.677078 0.250000
v -0.530466 0.677078 0.500000
v 0.000000 0.677078 0.500000
v 0.250000 0.639049 0.500000
v -0.530466 0.677078 0.750000
v 0.000000 0.677078 0.750000
v 0.250000 0.677078 0.750000
v 0.873214 0.500206 -0.994059
v 0.873214 0.330936 -0.994059
v 0.873214 0.161667 -0.994059
v 0.873214 -0.007603 -0.994059
v 0.873214 -0.176872 -0.994059
v 0.873214 -0.346142 -0.994059
v -1.096659 -0.346142 0.817134
v -1.096659 -0.176872 0.817134
v -1.096659 -0.007603 0.817134
v -1.096659 0.161667 0.817134
v -1.096659 0.330936 0.817134
v -1.096659 0.500206 0.817134
v 0.883032 0.500206 0.987489
v 0.883032 0.330936 0.987489
v 0.883032 0.161667 0.987489
v 0.883032 -0.007603 0.987489
v 0.883032 -0.176872 0.987489
v 0.883032 -0.346142 0.987489
v -1.175051 0.500206 -0.702062
v -1.175051 0.330936 -0.702062
v -1.175051 0.161667 -0.702062
v -1.175051 -0.007603 -0.702062
v -1.175051 -0.176872 -0.702062
v -1.175051 -0.346142 -0.702062
v 1.000000 0.500206 -0.750000
v 1.000000 0.330936 -0.750000
v 1.000000 0.161667 -0.750000
v 1.000000 -0.007603 -0.750000
v 1.000000 -0.176872 -0.750000
v 1.000000 -0.346142 -0.750000
v 0.929730 0.500206 -0.500000
v 0.929730 0.330936 -0.500000
v 0.929730 0.161667 -0.500000
v 0.929730 -0.007603 -0.500000
v 0.929730 -0.176872 -0.500000
v 0.929730 -0.346142 -0.500000
v 1.000000 0.500206 -0.250000
v 1.000000 0.330936 -0.250000
v 1.000000 0.161667 -0.250000
v 1.000000 -0.007603 -0.250000
v 1.000000 -0.176872 -0.250000
v 1.000000 -0.346142 -0.250000
v 0.936386 0.500206 0.000000
v 0.936386 0.330936 0.000000
v 0.936386 0.161667 0.000000
v 0.936386 -0.007603 0.000000
v 0.936386 -0.176872 0.000000
v 0.936386 -0.346142 0.000000
v 1.000000 0.500206 0.250000
v 1.000000 0.330936 0.250000
v 1.000000 0.161667 0.250000
v 1.000000 -0.007603 0.250000
v 1.000000 -0.176872 0.250000
v 1.000000 -0.346142 0.250000
v 0.916321 0.500206 0.500000
v 0.916321 0.330936 0.500000
v 0.916321 0.161667 0.500000
v 0.916321 -0.007603 0.500000
v 0.916321 -0.176872 0.500000
v 0.916321 -0.346142 0.500000
v 1.000000 0.500206 0.750000
v 1.000000 0.330936 0.750000
v 1.000000 0.161667 0.750000
v 1.000000 -0.007603 0.750000
v 1.000000 -0.176872 0.750000
v 1.000000 -0.346142 0.750000
v -1.569502 0.500206 0.250000
v -1.569502 0.330936 0.250000
v -1.569502 0.161667 0.250000
v -1.569502 -0.007603 0.250000
v -1.569502 -0.176872 0.250000
v -1.569502 -0.346142 0.250000
v -1.569502 0.500206 0.000000
v -1.569502 0.330936 0.000000
v -1.569502 0.161667 0.000000
v -1.569502 -0.007603 0.000000
v -1.569502 -0.176872 0.000000
v -1.569502 -0.346142 0.000000
v -1.569502 0.500206 -0.250000
v -1.569502 0.330936 -0.250000
v -1.569502 0.161667 -0.250000
v -1.569502 -0.007603 -0.250000
v -1.569502 -0.176872 -0.250000
v -1.569502 -0.346142 -0.250000
v -0.530466 0.500206 -1.000000
v -0.530466 0.330936 -1.000000
v -0.530466 0.161667 -1.000000
v -0.530466 -0.007603 -1.000000
v -0.530466 -0.176872 -1.000000
v -0.530466 -0.346142 -1.000000
v 0.000000 0.500206 -1.000000
v 0.000000 0.330936 -1.000000
v 0.000000 0.161667 -1.000000
v 0.000000 -0.007603 -1.000000
v 0.000000 -0.176872 -1.000000
v 0.000000 -0.346142 -1.000000
v 0.250000 0.500206 -1.000000
v 0.250000 0.330936 -1.000000
v 0.250000 0.161667 -1.000000
v 0.250000 -0.007603 -1.000000
v 0.250000 -0.176872 -1.000000
v 0.250000 0.500206 1.000000
v 0.250000 0.330936 1.000000
v 0.250000 0.161667 1.000000
v 0.250000 -0.007603 1.000000
v 0.250000 -0.176872 1.000000
v 0.000000 0.500206 1.000000
v 0.000000 0.330936 1.000000
v 0.000000 0.161667 1.000000
v 0.000000 -0.007603 1.000000
v 0.000000 -0.176872 1.000000
v 0.000000 -0.302277 1.000000
v -0.530466 0.500206 1.000000
v -0.530466 0.330936 1.000000
v -0.530466 0.161667 1.000000
v -0.530466 -0.007603 1.000000
v -0.530466 -0.176872 1.000000
v -0.530466 -0.346142 1.000000
vn 0.3360 0.7175 -0.6101
vn 0.3548 -0.6758 -0.6461
vn 0.3435 0.7069 0.6183
vn 0.2237 -0.5743 0.7875
vn -0.3518 0.8361 -0.4209
vn -0.3942 -0.7850 -0.4779
vn -0.3321 0.8393 0.4305
vn -0.3486 -0.8291 0.4372
vn -0.6277 -0.7429 -0.2325
vn -0.5832 -0.8117 -0.0327
vn -0.6105 -0.7741 0.1678
vn 0.5799 0.8095 -0.0921
vn 0.5557 0.8314 -0.0000
vn 0.5646 0.8252 -0.0137
vn 0.5529 0.8332 -0.0000
vn 0.5730 0.8193 0.0172
vn 0.5277 0.8494 -0.0000
vn 0.5814 0.8063 0.1088
vn -0.5926 0.7917 0.1488
vn -0.6010 0.7991 -0.0155
vn -0.6232 0.7414 -0.2489
vn 0.4054 -0.9119 -0.0647
vn 0.5853 -0.8108 -0.0000
vn 0.3767 -0.9263 0.0132
vn 0.5533 -0.8330 -0.0000
vn 0.3582 -0.8599 0.3636
vn 0.3214 -0.8800 0.3498
vn 0.4346 -0.8931 -0.1166
vn 0.0708 -0.6996 -0.7110
vn -0.0000 -0.6994 -0.7148
vn -0.1566 -0.6721 -0.7237
vn 0.0057 0.8167 0.5770
vn -0.0000 0.8176 0.5758
vn -0.0935 0.8015 0.5906
vn -0.1017 -0.8015 0.5892
vn 0.2796 -0.8239 0.4929
vn 0.5313 -0.6126 0.5852
vn -0.1327 0.7896 -0.5991
vn -0.0000 0.8162 -0.5777
vn 0.0028 0.8157 -0.5785
vn 0.0875 -0.9779 -0.1899
vn -0.0000 -0.9801 -0.1983
vn -0.0775 -0.9758 -0.2043
vn 0.1960 -0.9474 0.2529
vn -0.0000 -1.0000 -0.0000
vn -0.0623 -0.9981 -0.0000
vn 0.8280 -0.4691 0.3073
vn 0.2525 -0.9632 0.0918
vn -0.0471 -0.9989 -0.0068
vn 0.9061 -0.4230 -0.0000
vn 0.3402 -0.9403 -0.0000
vn -0.0350 -0.9994 -0.0022
vn 0.8754 -0.4833 0.0095
vn -0.0341 -0.9994 0.0019
vn 0.9274 -0.3740 -0.0000
vn -0.0388 -0.9992 -0.0000
vn 0.8457 -0.5330 -0.0269
vn 0.3254 -0.9405 0.0979
vn -0.0443 -0.9930 0.1098
vn -0.0446 0.9919 -0.1190
vn -0.0000 0.9935 -0.1141
vn 0.0232 0.9985 -0.0487
vn -0.0351 0.9994 -0.0000
vn 0.0439 0.9990 -0.0000
vn 0.0860 0.9963 -0.0000
vn -0.0311 0.9995 -0.0017
vn -0.0000 1.0000 -0.0000
vn 0.0416 0.9991 -0.0087
vn -0.0277 0.9996 -0.0010
vn 0.0381 0.9993 -0.0000
vn 0.0749 0.9972 -0.0000
vn -0.0322 0.9995 0.0057
vn 0.0383 0.9993 -0.0008
vn -0.0474 0.9989 -0.0000
vn 0.0375 0.9993 -0.0000
vn 0.0738 0.9973 -0.0000
vn -0.0472 0.9886 0.1433
vn -0.0000 0.9895 0.1442
vn 0.0208 0.9958 0.0887
vn 0.4970 0.1802 -0.8488
vn 0.5232 -0.0000 -0.8522
vn 0.5004 -0.3052 -0.8102
vn -0.5419 -0.1752 0.8220
vn -0.5598 -0.0000 0.8286
vn -0.5311 0.2329 0.8147
vn 0.4997 0.2337 0.8341
vn 0.5367 -0.0000 0.8438
vn 0.3475 -0.7562 0.5544
vn -0.5823 0.1723 -0.7945
vn -0.5997 -0.0000 -0.8002
vn -0.5908 -0.1065 -0.7997
vn 0.9926 0.0252 -0.1184
vn 0.9947 -0.0000 -0.1024
vn 0.9261 -0.3675 -0.0856
vn 1.0000 -0.0000 -0.0000
vn 0.9094 -0.4160 -0.0000
vn 0.9999 -0.0000 -0.0124
vn 0.7263 -0.6788 0.1081
vn 0.4822 -0.8760 -0.0000
vn 0.9993 -0.0000 0.0369
vn 0.6138 -0.7891 0.0227
vn 0.4590 -0.8884 -0.0000
vn 0.9955 0.0338 0.0883
vn 0.9977 -0.0000 0.0673
vn 0.6314 -0.7743 0.0427
vn -0.9206 0.1189 0.3719
vn -0.9402 -0.0000 0.3405
vn -0.9262 -0.0911 0.3659
vn -1.0000 -0.0000 -0.0000
vn -0.9314 0.0167 -0.3636
vn -0.9363 -0.0000 -0.3511
vn -0.9286 -0.0513 -0.3676
vn -0.2066 0.2040 -0.9569
vn -0.2148 -0.0000 -0.9767
vn -0.2106 -0.1279 -0.9692
vn -0.0000 0.2120 -0.9773
vn -0.0000 -0.0000 -1.0000
vn 0.0300 -0.1354 -0.9903
vn 0.0047 0.2119 -0.9773
vn 0.0048 -0.0000 -1.0000
vn 0.0154 -0.0602 -0.9981
vn 0.0095 0.2762 0.9611
vn 0.0099 -0.0000 1.0000
vn 0.0100 -0.0003 1.0000
vn -0.0000 0.2765 0.9610
vn -0.0000 -0.0000 1.0000
vn -0.0094 -0.1493 0.9887
vn -0.1474 0.2691 0.9518
vn -0.1556 -0.0000 0.9878
vn -0.1467 -0.1984 0.9691
vt 0.450913 0.323822
vt 0.505664 0.380229
vt 0.438488 0.351838
vt 0.660867 0.404140
vt 0.721193 0.459943
vt 0.650065 0.434017
vt 0.265883 0.239673
vt 0.299021 0.232651
vt 0.293019 0.255231
vt 0.910140 0.488198
vt 0.977114 0.543162
vt 0.900468 0.518947
vt 0.079121 0.114951
vt 0.092923 0.149546
vt 0.062215 0.133886
vt 0.133062 0.142725
vt 0.121880 0.164440
vt 0.150788 0.179315
vt 0.191221 0.171402
vt 0.179469 0.194111
vt 0.208089 0.208950
vt 0.249265 0.201572
vt 0.237181 0.224228
vt 0.517168 0.351913
vt 0.590814 0.412650
vt 0.617137 0.364407
vt 0.631007 0.393488
vt 0.601566 0.383356
vt 0.638124 0.372890
vt 0.317391 0.174058
vt 0.381806 0.238134
vt 0.294453 0.199547
vt 0.423955 0.221335
vt 0.394195 0.208229
vt 0.486089 0.248699
vt 0.411171 0.250777
vt 0.499173 0.219653
vt 0.539578 0.307200
vt 0.407891 0.179004
vt 0.321018 0.140102
vt 0.437042 0.191983
vt 0.341659 0.113760
vt 0.450113 0.162623
vt 0.420459 0.149287
vt 0.512255 0.190477
vt 0.624418 0.265653
vt 0.633776 0.245090
vt 0.434341 0.120183
vt 0.347752 0.080907
vt 0.525361 0.161406
vt 0.463400 0.133342
vt 0.646855 0.215941
vt 0.369357 0.054789
vt 0.476695 0.104046
vt 0.446985 0.090323
vt 0.538499 0.132318
vt 0.461513 0.061229
vt 0.375000 0.021262
vt 0.551568 0.103507
vt 0.490387 0.074871
vt 0.621368 0.149315
vt 0.400072 0.005260
vt 0.501422 0.051385
vt 0.472467 0.037805
vt 0.562818 0.080196
vt 0.522919 0.758392
vt 0.596612 0.757309
vt 0.580232 0.778546
vt 0.623279 0.813940
vt 0.563986 0.799100
vt 0.647109 0.837639
vt 0.605673 0.832812
vt 0.666734 0.857284
vt 0.626529 0.857831
vt 0.641638 0.793606
vt 0.667354 0.817393
vt 0.690641 0.838759
vt 0.612827 0.735726
vt 0.523238 0.689191
vt 0.529888 0.679192
vt 0.660454 0.771818
vt 0.686421 0.795915
vt 0.705431 0.814197
vt 0.539132 0.664266
vt 0.680601 0.748863
vt 0.628295 0.713667
vt 0.707401 0.775286
vt 0.724263 0.797806
vt 0.695912 0.721937
vt 0.643229 0.690213
vt 0.722056 0.735626
vt 0.766947 0.754784
vt 0.591602 0.641557
vt 0.710401 0.695963
vt 0.657336 0.666479
vt 0.734982 0.710585
vt 0.783316 0.735741
vt 0.723867 0.673139
vt 0.667745 0.644327
vt 0.748941 0.689727
vt 0.798187 0.718525
vt 0.731776 0.430479
vt 0.805548 0.488996
vt 0.821837 0.434133
vt 0.879467 0.478568
vt 0.815389 0.459170
vt 0.887131 0.453669
vt 0.597558 0.843020
vt 0.555095 0.809810
vt 0.648763 0.883951
vt 0.608112 0.871973
vt 0.349849 0.312632
vt 0.279831 0.281232
vt 0.362297 0.283837
vt 0.401289 0.273610
vt 0.391106 0.296413
vt 0.298659 0.226746
vt 0.371898 0.260802
vt 0.473136 0.277692
vt 0.462225 0.302054
vt 0.515259 0.851818
vt 0.573828 0.905516
vt 0.616006 0.911777
vt 0.484591 0.879354
vt 0.353046 0.382072
vt 0.401400 0.437669
vt 0.340214 0.410712
vt 0.365763 0.353568
vt 0.413828 0.408826
vt 0.378389 0.325094
vt 0.426175 0.380206
vt 0.324539 0.369231
vt 0.311530 0.397694
vt 0.337336 0.340903
vt 0.253277 0.336021
vt 0.239764 0.364044
vt 0.266635 0.308355
vt 0.917963 0.463250
vt 0.986820 0.512341
vt 0.750827 0.629953
vt 0.770452 0.596049
vt 0.807393 0.619611
vt 0.682390 0.599446
vt 0.850237 0.570411
vt 0.870995 0.611024
vt 0.840250 0.601050
vt 0.860112 0.539845
vt 0.880895 0.580302
vt 0.869833 0.509306
vt 0.890727 0.549625
vt 0.691205 0.562831
vt 0.785533 0.549179
vt 0.775281 0.579539
vt 0.795632 0.518988
vt 0.736125 0.405261
vt 0.587958 0.595808
vt 0.580763 0.558952
vt 0.700039 0.519578
vt 0.689361 0.549649
vt 0.710642 0.489669
vt 0.668245 0.383581
vt 0.493080 0.653442
vt 0.460091 0.630296
vt 0.516366 0.627752
vt 0.598505 0.482565
vt 0.617283 0.523491
vt 0.587342 0.512343
vt 0.609517 0.452907
vt 0.628297 0.493587
vt 0.620351 0.423290
vt 0.639223 0.463789
vt 0.439118 0.671204
vt 0.476749 0.684120
vt 0.568860 0.471419
vt 0.557541 0.501006
vt 0.579970 0.441969
vt 0.530535 0.331809
vt 0.436294 0.790994
vt 0.474165 0.781320
vt 0.482425 0.437661
vt 0.470570 0.466795
vt 0.494130 0.408794
vt 0.744139 0.924003
vt 0.773584 0.953913
vt 0.720611 0.950079
vt 0.194610 0.306886
vt 0.210044 0.349455
vt 0.180597 0.334714
vt 0.208634 0.279208
vt 0.223862 0.321568
vt 0.222776 0.251684
vt 0.237643 0.293939
vt 0.251533 0.266643
vt 0.789657 0.865736
vt 0.802808 0.922656
vt 0.773181 0.898594
vt 0.165340 0.292032
vt 0.151216 0.319847
vt 0.179488 0.264296
vt 0.193719 0.236624
vt 0.826893 0.885297
vt 0.136670 0.277410
vt 0.122487 0.305230
vt 0.150876 0.249629
vt 0.165136 0.221874
vt 0.809999 0.830695
vt 0.847221 0.845587
vt 0.107974 0.262744
vt 0.093760 0.290575
vt 0.122207 0.234931
vt 0.136476 0.207126
vt 0.816500 0.790981
vt 0.860208 0.799439
vt 0.079065 0.247961
vt 0.064837 0.275804
vt 0.093309 0.220123
vt 0.107578 0.192283
vt 0.830425 0.750611
vt 0.868854 0.754437
vt 0.050140 0.233171
vt 0.035907 0.261023
vt 0.064384 0.205316
vt 0.078645 0.177451
vt 0.866214 0.705472
vt 0.828443 0.715071
vt 0.019492 0.217508
vt 0.005260 0.245366
vt 0.033729 0.189645
vt 0.047973 0.161772
vt 0.693232 0.960748
vt 0.947747 0.635544
vt 0.957573 0.604755
vt 0.967366 0.573962
vt 0.737122 0.983771
vt 0.491788 0.597317
vt 0.281841 0.211302
vt 0.107968 0.120459
vt 0.165771 0.150243
vt 0.223225 0.179971
vt 0.463801 0.300496
vt 0.599153 0.951133
vt 0.692149 0.994737
vt 0.558878 0.932195
vt 0.994741 0.487375
s 1
usemtl Material
f 195/1/128 93/2/84 196/3/129
f 161/4/110 102/5/90 162/6/111
f 143/7/103 3/8/3 95/9/86
f 179/10/119 84/11/81 180/12/120
f 1/13/1 107/14/92 83/15/80
f 107/14/92 13/16/13 113/17/95
f 13/16/13 119/18/97 113/17/95
f 119/18/97 15/19/15 125/20/95
f 15/19/15 131/21/100 125/20/95
f 131/21/100 17/22/17 137/23/95
f 17/22/17 143/7/103 137/23/95
f 94/24/85 150/25/107 93/2/84
f 19/26/19 155/27/109 149/28/106
f 20/29/20 161/4/110 155/27/109
f 17/30/17 82/31/79 18/32/18
f 78/33/75 82/31/79 79/34/76
f 77/35/74 81/36/78 78/33/75
f 77/35/74 74/37/72 7/38/7
f 76/39/73 17/30/17 16/40/16
f 76/39/73 78/33/75 79/34/76
f 74/37/72 78/33/75 75/41/67
f 15/42/15 76/39/73 16/40/16
f 72/43/70 76/39/73 73/44/71
f 71/45/69 75/41/67 72/43/70
f 19/46/19 71/45/69 20/47/20
f 70/48/68 15/42/15 14/49/14
f 70/48/68 72/43/70 73/44/71
f 68/50/66 72/43/70 69/51/67
f 20/47/20 68/50/66 21/52/21
f 13/53/13 70/48/68 14/49/14
f 66/54/64 70/48/68 67/55/65
f 65/56/63 69/51/67 66/54/64
f 64/57/62 13/53/13 12/58/12
f 64/57/62 66/54/64 67/55/65
f 62/59/60 66/54/64 63/60/61
f 65/56/63 62/59/60 5/61/5
f 1/62/1 64/57/62 12/58/12
f 39/63/39 64/57/62 40/64/40
f 38/65/38 63/60/61 39/63/39
f 8/66/8 55/67/54 58/68/56
f 57/69/51 61/70/59 58/68/56
f 56/71/55 60/72/58 57/69/51
f 23/73/23 59/74/57 56/71/55
f 54/75/51 58/68/56 55/67/54
f 53/76/53 57/69/51 54/75/51
f 23/73/23 53/76/53 24/77/24
f 52/78/52 11/79/11 10/80/10
f 51/81/51 55/67/54 52/78/52
f 50/82/50 54/75/51 51/81/51
f 25/83/25 53/76/53 50/82/50
f 9/84/9 52/78/52 10/80/10
f 48/85/48 52/78/52 49/86/49
f 47/87/47 51/81/51 48/85/48
f 25/83/25 47/87/47 26/88/26
f 45/89/45 49/86/49 46/90/46
f 44/91/44 48/85/48 45/89/45
f 26/88/26 44/91/44 27/92/27
f 46/90/46 49/86/49 6/93/6
f 42/94/42 46/90/46 43/95/43
f 41/96/41 45/89/45 42/94/42
f 27/92/27 41/96/41 28/97/28
f 30/98/30 43/95/43 31/99/31
f 29/100/29 42/94/42 30/98/30
f 28/97/28 29/100/29 2/101/2
f 101/102/89 168/103/114 102/5/90
f 38/104/38 173/105/116 167/106/113
f 39/107/39 179/10/119 173/105/116
f 61/70/59 36/108/36 35/109/35
f 59/74/57 36/108/36 60/72/58
f 22/110/22 37/111/37 59/74/57
f 95/9/86 185/112/123 96/113/87
f 184/114/122 33/115/33 189/116/125
f 33/115/33 195/1/128 189/116/125
f 82/31/79 3/117/3 18/32/18
f 82/31/79 33/115/33 32/118/32
f 80/119/77 33/115/33 81/36/78
f 34/120/34 94/24/85 195/1/128
f 36/108/36 200/121/130 35/109/35
f 194/122/127 37/111/37 4/123/4
f 194/122/127 199/124/129 200/121/130
f 192/125/126 199/126/129 193/127/126
f 191/128/126 198/129/129 192/125/126
f 190/130/126 197/131/129 191/128/126
f 189/116/125 196/3/129 190/130/126
f 187/132/123 193/127/126 188/133/124
f 186/134/123 192/125/126 187/132/123
f 185/112/123 191/128/126 186/134/123
f 184/114/122 190/130/126 185/112/123
f 32/118/32 95/9/86 3/8/3
f 98/135/87 188/133/124 99/136/87
f 97/137/87 187/132/123 98/135/87
f 96/113/87 186/134/123 97/137/87
f 40/138/40 83/139/80 179/10/119
f 178/140/118 177/141/117 183/142/121
f 172/143/115 30/98/30 31/99/31
f 176/144/117 183/145/121 177/146/117
f 175/147/117 182/148/120 176/144/117
f 174/149/117 181/150/120 175/147/117
f 173/105/116 180/12/120 174/149/117
f 171/151/114 178/140/118 172/143/115
f 170/152/114 177/146/117 171/153/114
f 169/154/114 176/144/117 170/152/114
f 168/103/114 175/147/117 169/154/114
f 167/106/113 174/149/117 168/103/114
f 38/104/38 101/102/89 5/155/5
f 106/156/91 31/99/31 6/93/6
f 105/157/90 172/143/115 106/156/91
f 104/158/90 171/153/114 105/159/90
f 103/160/90 170/152/114 104/158/90
f 102/5/90 169/154/114 103/160/90
f 5/155/5 161/4/110 21/161/21
f 160/162/109 9/84/9 10/80/10
f 11/79/11 160/162/109 10/80/10
f 159/163/109 166/164/112 160/162/109
f 158/165/109 165/166/111 159/167/109
f 157/168/109 164/169/111 158/165/109
f 156/170/109 163/171/111 157/168/109
f 155/27/109 162/6/111 156/170/109
f 153/172/107 160/162/109 154/173/108
f 152/174/107 159/167/109 153/175/107
f 151/176/107 158/165/109 152/174/107
f 150/25/107 157/168/109 151/176/107
f 149/28/106 156/170/109 150/25/107
f 7/177/7 149/28/106 94/24/85
f 8/66/8 154/173/108 11/79/11
f 90/178/84 154/173/108 89/179/83
f 91/180/84 153/175/107 90/181/84
f 92/182/84 152/174/107 91/180/84
f 93/2/84 151/176/107 92/182/84
f 142/183/102 22/110/22 23/73/23
f 24/77/24 142/183/102 23/73/23
f 141/184/95 148/185/105 142/183/102
f 140/186/95 147/187/104 141/188/95
f 139/189/95 146/190/104 140/186/95
f 138/191/95 145/192/104 139/189/95
f 137/23/95 144/193/104 138/191/95
f 130/194/99 24/77/24 25/83/25
f 135/195/100 142/183/102 136/196/101
f 134/197/100 141/188/95 135/198/100
f 133/199/100 140/186/95 134/197/100
f 132/200/100 139/189/95 133/199/100
f 131/21/100 138/191/95 132/200/100
f 26/88/26 130/194/99 25/83/25
f 129/201/95 136/196/101 130/194/99
f 128/202/95 135/198/100 129/203/95
f 127/204/95 134/197/100 128/202/95
f 126/205/95 133/199/100 127/204/95
f 125/20/95 132/200/100 126/205/95
f 27/92/27 124/206/98 26/88/26
f 123/207/97 130/194/99 124/206/98
f 122/208/97 129/203/95 123/209/97
f 121/210/97 128/202/95 122/208/97
f 120/211/97 127/204/95 121/210/97
f 119/18/97 126/205/95 120/211/97
f 28/97/28 118/212/96 27/92/27
f 117/213/95 124/206/98 118/212/96
f 116/214/95 123/209/97 117/215/95
f 115/216/95 122/208/97 116/214/95
f 114/217/95 121/210/97 115/216/95
f 113/17/95 120/211/97 114/217/95
f 2/101/2 112/218/94 28/97/28
f 111/219/93 118/212/96 112/218/94
f 110/220/93 117/215/95 111/221/93
f 109/222/93 116/214/95 110/220/93
f 108/223/93 115/216/95 109/222/93
f 107/14/92 114/217/95 108/223/93
f 87/224/81 112/218/94 88/225/82
f 86/226/81 111/221/93 87/227/81
f 85/228/81 110/220/93 86/226/81
f 84/229/81 109/222/93 85/228/81
f 83/15/80 108/223/93 84/229/81
f 22/110/22 100/230/88 4/123/4
f 182/148/120 87/231/81 183/145/121
f 181/150/120 86/232/81 182/148/120
f 180/12/120 85/233/81 181/150/120
f 147/234/104 100/230/88 148/185/105
f 146/190/104 99/136/87 147/187/104
f 145/192/104 98/135/87 146/190/104
f 144/193/104 97/137/87 145/192/104
f 143/7/103 96/113/87 144/193/104
f 166/164/112 6/93/6 9/84/9
f 165/235/111 106/156/91 166/164/112
f 164/169/111 105/159/90 165/166/111
f 163/171/111 104/158/90 164/169/111
f 162/6/111 103/160/90 163/171/111
f 89/179/83 35/109/35 200/121/130
f 199/124/129 89/179/83 200/121/130
f 198/129/129 90/181/84 199/126/129
f 197/131/129 91/180/84 198/129/129
f 196/3/129 92/182/84 197/131/129
f 195/1/128 94/24/85 93/2/84
f 161/4/110 101/102/89 102/5/90
f 143/7/103 18/236/18 3/8/3
f 179/10/119 83/139/80 84/11/81
f 1/13/1 12/237/12 107/14/92
f 107/14/92 12/237/12 13/16/13
f 13/16/13 14/238/14 119/18/97
f 119/18/97 14/238/14 15/19/15
f 15/19/15 16/239/16 131/21/100
f 131/21/100 16/239/16 17/22/17
f 17/22/17 18/236/18 143/7/103
f 94/24/85 149/28/106 150/25/107
f 19/26/19 20/29/20 155/27/109
f 20/29/20 21/161/21 161/4/110
f 17/30/17 79/34/76 82/31/79
f 78/33/75 81/36/78 82/31/79
f 77/35/74 80/119/77 81/36/78
f 74/37/72 19/46/19 7/38/7
f 7/38/7 34/240/34 80/119/77
f 80/119/77 77/35/74 7/38/7
f 76/39/73 79/34/76 17/30/17
f 76/39/73 75/41/67 78/33/75
f 74/37/72 77/35/74 78/33/75
f 15/42/15 73/44/71 76/39/73
f 72/43/70 75/41/67 76/39/73
f 71/45/69 74/37/72 75/41/67
f 19/46/19 74/37/72 71/45/69
f 70/48/68 73/44/71 15/42/15
f 70/48/68 69/51/67 72/43/70
f 68/50/66 71/45/69 72/43/70
f 20/47/20 71/45/69 68/50/66
f 13/53/13 67/55/65 70/48/68
f 66/54/64 69/51/67 70/48/68
f 65/56/63 68/50/66 69/51/67
f 64/57/62 67/55/65 13/53/13
f 64/57/62 63/60/61 66/54/64
f 62/59/60 65/56/63 66/54/64
f 38/65/38 5/61/5 62/59/60
f 5/61/5 21/52/21 68/50/66
f 65/56/63 5/61/5 68/50/66
f 1/62/1 40/64/40 64/57/62
f 39/63/39 63/60/61 64/57/62
f 38/65/38 62/59/60 63/60/61
f 8/66/8 11/79/11 55/67/54
f 58/68/56 61/70/59 8/66/8
f 61/70/59 35/109/35 8/66/8
f 57/69/51 60/72/58 61/70/59
f 56/71/55 59/74/57 60/72/58
f 23/73/23 22/110/22 59/74/57
f 54/75/51 57/69/51 58/68/56
f 53/76/53 56/71/55 57/69/51
f 23/73/23 56/71/55 53/76/53
f 52/78/52 55/67/54 11/79/11
f 51/81/51 54/75/51 55/67/54
f 50/82/50 53/76/53 54/75/51
f 25/83/25 24/77/24 53/76/53
f 9/84/9 49/86/49 52/78/52
f 48/85/48 51/81/51 52/78/52
f 47/87/47 50/82/50 51/81/51
f 25/83/25 50/82/50 47/87/47
f 45/89/45 48/85/48 49/86/49
f 44/91/44 47/87/47 48/85/48
f 26/88/26 47/87/47 44/91/44
f 9/84/9 6/93/6 49/86/49
f 6/93/6 31/99/31 43/95/43
f 46/90/46 6/93/6 43/95/43
f 42/94/42 45/89/45 46/90/46
f 41/96/41 44/91/44 45/89/45
f 27/92/27 44/91/44 41/96/41
f 30/98/30 42/94/42 43/95/43
f 29/100/29 41/96/41 42/94/42
f 28/97/28 41/96/41 29/100/29
f 101/102/89 167/106/113 168/103/114
f 38/104/38 39/107/39 173/105/116
f 39/107/39 40/138/40 179/10/119
f 61/70/59 60/72/58 36/108/36
f 59/74/57 37/111/37 36/108/36
f 22/110/22 4/123/4 37/111/37
f 95/9/86 184/114/122 185/112/123
f 184/114/122 32/118/32 33/115/33
f 33/115/33 34/120/34 195/1/128
f 82/31/79 32/118/32 3/117/3
f 82/31/79 81/36/78 33/115/33
f 80/119/77 34/240/34 33/115/33
f 34/120/34 7/177/7 94/24/85
f 36/108/36 194/122/127 200/121/130
f 4/123/4 100/230/88 188/241/124
f 100/230/88 99/242/87 188/241/124
f 188/241/124 193/243/126 194/122/127
f 194/122/127 36/108/36 37/111/37
f 188/241/124 194/122/127 4/123/4
f 194/122/127 193/243/126 199/124/129
f 192/125/126 198/129/129 199/126/129
f 191/128/126 197/131/129 198/129/129
f 190/130/126 196/3/129 197/131/129
f 189/116/125 195/1/128 196/3/129
f 187/132/123 192/125/126 193/127/126
f 186/134/123 191/128/126 192/125/126
f 185/112/123 190/130/126 191/128/126
f 184/114/122 189/116/125 190/130/126
f 32/118/32 184/114/122 95/9/86
f 98/135/87 187/132/123 188/133/124
f 97/137/87 186/134/123 187/132/123
f 96/113/87 185/112/123 186/134/123
f 40/138/40 1/244/1 83/139/80
f 87/224/81 88/225/82 183/142/121
f 88/225/82 2/101/2 183/142/121
f 2/101/2 29/100/29 183/142/121
f 29/100/29 30/98/30 178/140/118
f 183/142/121 29/100/29 178/140/118
f 172/143/115 178/140/118 30/98/30
f 176/144/117 182/148/120 183/145/121
f 175/147/117 181/150/120 182/148/120
f 174/149/117 180/12/120 181/150/120
f 173/105/116 179/10/119 180/12/120
f 171/151/114 177/141/117 178/140/118
f 170/152/114 176/144/117 177/146/117
f 169/154/114 175/147/117 176/144/117
f 168/103/114 174/149/117 175/147/117
f 167/106/113 173/105/116 174/149/117
f 38/104/38 167/106/113 101/102/89
f 106/156/91 172/143/115 31/99/31
f 105/157/90 171/151/114 172/143/115
f 104/158/90 170/152/114 171/153/114
f 103/160/90 169/154/114 170/152/114
f 102/5/90 168/103/114 169/154/114
f 5/155/5 101/102/89 161/4/110
f 160/162/109 166/164/112 9/84/9
f 11/79/11 154/173/108 160/162/109
f 159/163/109 165/235/111 166/164/112
f 158/165/109 164/169/111 165/166/111
f 157/168/109 163/171/111 164/169/111
f 156/170/109 162/6/111 163/171/111
f 155/27/109 161/4/110 162/6/111
f 153/172/107 159/163/109 160/162/109
f 152/174/107 158/165/109 159/167/109
f 151/176/107 157/168/109 158/165/109
f 150/25/107 156/170/109 157/168/109
f 149/28/106 155/27/109 156/170/109
f 7/177/7 19/26/19 149/28/106
f 8/66/8 89/179/83 154/173/108
f 90/178/84 153/172/107 154/173/108
f 91/180/84 152/174/107 153/175/107
f 92/182/84 151/176/107 152/174/107
f 93/2/84 150/25/107 151/176/107
f 142/183/102 148/185/105 22/110/22
f 24/77/24 136/196/101 142/183/102
f 141/184/95 147/234/104 148/185/105
f 140/186/95 146/190/104 147/187/104
f 139/189/95 145/192/104 146/190/104
f 138/191/95 144/193/104 145/192/104
f 137/23/95 143/7/103 144/193/104
f 130/194/99 136/196/101 24/77/24
f 135/195/100 141/184/95 142/183/102
f 134/197/100 140/186/95 141/188/95
f 133/199/100 139/189/95 140/186/95
f 132/200/100 138/191/95 139/189/95
f 131/21/100 137/23/95 138/191/95
f 26/88/26 124/206/98 130/194/99
f 129/201/95 135/195/100 136/196/101
f 128/202/95 134/197/100 135/198/100
f 127/204/95 133/199/100 134/197/100
f 126/205/95 132/200/100 133/199/100
f 125/20/95 131/21/100 132/200/100
f 27/92/27 118/212/96 124/206/98
f 123/207/97 129/201/95 130/194/99
f 122/208/97 128/202/95 129/203/95
f 121/210/97 127/204/95 128/202/95
f 120/211/97 126/205/95 127/204/95
f 119/18/97 125/20/95 126/205/95
f 28/97/28 112/218/94 118/212/96
f 117/213/95 123/207/97 124/206/98
f 116/214/95 122/208/97 123/209/97
f 115/216/95 121/210/97 122/208/97
f 114/217/95 120/211/97 121/210/97
f 113/17/95 119/18/97 120/211/97
f 2/101/2 88/225/82 112/218/94
f 111/219/93 117/213/95 118/212/96
f 110/220/93 116/214/95 117/215/95
f 109/222/93 115/216/95 116/214/95
f 108/223/93 114/217/95 115/216/95
f 107/14/92 113/17/95 114/217/95
f 87/224/81 111/219/93 112/218/94
f 86/226/81 110/220/93 111/221/93
f 85/228/81 109/222/93 110/220/93
f 84/229/81 108/223/93 109/222/93
f 83/15/80 107/14/92 108/223/93
f 22/110/22 148/185/105 100/230/88
f 182/148/120 86/232/81 87/231/81
f 181/150/120 85/233/81 86/232/81
f 180/12/120 84/11/81 85/233/81
f 147/234/104 99/242/87 100/230/88
f 146/190/104 98/135/87 99/136/87
f 145/192/104 97/137/87 98/135/87
f 144/193/104 96/113/87 97/137/87
f 143/7/103 95/9/86 96/113/87
f 166/164/112 106/156/91 6/93/6
f 165/235/111 105/157/90 106/156/91
f 164/169/111 104/158/90 105/159/90
f 163/171/111 103/160/90 104/158/90
f 162/6/111 102/5/90 103/160/90
f 89/179/83 8/66/8 35/109/35
f 199/124/129 90/178/84 89/179/83
f 198/129/129 91/180/84 90/181/84
f 197/131/129 92/182/84 91/180/84
f 196/3/129 93/2/84 92/182/84
