# Blender 4.4.3
# www.blender.org
mtllib wave.mtl
o 円錐.005
v -1.579645 0.127328 0.165431
v -1.543345 0.165608 0.156305
v -1.955889 1.412903 1.955888
v -1.588771 0.089048 0.201731
v -1.570373 0.052239 0.263810
v -1.525157 0.018315 0.349281
v -1.454862 -0.011419 0.454861
v -1.362188 -0.035821 0.576492
v -1.250697 -0.053954 0.709500
v -1.124674 -0.065120 0.848774
v -0.988961 -0.068890 0.988961
v -0.848774 -0.065120 1.124673
v -0.709501 -0.053954 1.250697
v -0.576493 -0.035821 1.362188
v -0.454862 -0.011419 1.454861
v -0.349282 0.018315 1.525157
v -0.263810 0.052239 1.570373
v -0.201731 0.089048 1.588771
v -0.165432 0.127328 1.579645
v -0.156306 0.165608 1.543345
v -0.174704 0.202418 1.481266
v -0.219920 0.236341 1.395795
v -0.290215 0.266075 1.290215
v -0.382889 0.290478 1.168584
v -0.494380 0.308610 1.035576
v -0.620403 0.319776 0.896302
v -0.756116 0.323546 0.756115
v -0.896302 0.319776 0.620403
v -1.035576 0.308610 0.494379
v -1.168584 0.290478 0.382889
v -1.290215 0.266075 0.290215
v -1.395795 0.236341 0.219919
v -1.481267 0.202418 0.174704
v -1.233956 0.127328 -1.000000
v -1.201835 0.165609 -0.980785
v -1.170948 0.202418 -0.923880
v -1.142483 0.236341 -0.831470
v -1.117533 0.266075 -0.707107
v -1.097057 0.290478 -0.555570
v -1.081842 0.308610 -0.382683
v -1.072473 0.319776 -0.195090
v -1.069309 0.323546 0.000000
v -1.072473 0.319776 0.195090
v -1.081842 0.308610 0.382683
v -1.097057 0.290478 0.555570
v -1.117533 0.266075 0.707107
v -1.142483 0.236341 0.831470
v -1.170948 0.202418 0.923879
v -1.201835 0.165609 0.980785
v -1.233956 0.127328 1.000000
v -1.266076 0.089048 0.980785
v -1.296963 0.052239 0.923879
v -1.325428 0.018315 0.831470
v -1.350378 -0.011419 0.707107
v -1.370854 -0.035821 0.555570
v -1.386069 -0.053954 0.382683
v -1.395439 -0.065120 0.195090
v -1.398602 -0.068890 0.000000
v -1.395439 -0.065120 -0.195090
v -1.386069 -0.053954 -0.382683
v -1.370854 -0.035821 -0.555570
v -1.350378 -0.011419 -0.707107
v -1.325428 0.018315 -0.831470
v -1.296963 0.052239 -0.923880
v -1.266076 0.089048 -0.980785
v -2.766044 1.412903 0.000000
v -1.000000 0.127328 -1.233956
v -0.980785 0.089048 -1.266077
v 0.000000 1.412904 -2.766045
v -0.980785 0.165609 -1.201835
v -0.923880 0.202418 -1.170948
v -0.831470 0.236341 -1.142483
v -0.707107 0.266076 -1.117533
v -0.555570 0.290478 -1.097057
v -0.382683 0.308610 -1.081842
v -0.195090 0.319776 -1.072473
v 0.000000 0.323547 -1.069309
v 0.195091 0.319776 -1.072473
v 0.382684 0.308610 -1.081842
v 0.555570 0.290478 -1.097057
v 0.707107 0.266076 -1.117533
v 0.831470 0.236341 -1.142483
v 0.923880 0.202418 -1.170948
v 0.980785 0.165609 -1.201835
v 1.000000 0.127328 -1.233956
v 0.980785 0.089048 -1.266077
v 0.923880 0.052239 -1.296963
v 0.831470 0.018315 -1.325428
v 0.707107 -0.011419 -1.350378
v 0.555570 -0.035821 -1.370854
v 0.382684 -0.053954 -1.386069
v 0.195090 -0.065120 -1.395439
v 0.000000 -0.068890 -1.398602
v -0.195090 -0.065120 -1.395438
v -0.382683 -0.053954 -1.386069
v -0.555570 -0.035821 -1.370854
v -0.707107 -0.011419 -1.350378
v -0.831470 0.018315 -1.325428
v -0.923879 0.052239 -1.296963
v 1.233956 0.127329 -1.000000
v 1.266077 0.089048 -0.980785
v 2.766045 1.412904 0.000000
v 1.201835 0.165609 -0.980785
v 1.170948 0.202418 -0.923880
v 1.142483 0.236341 -0.831470
v 1.117533 0.266076 -0.707107
v 1.097057 0.290478 -0.555570
v 1.081842 0.308610 -0.382683
v 1.072473 0.319776 -0.195090
v 1.069309 0.323547 0.000000
v 1.072473 0.319776 0.195090
v 1.081842 0.308610 0.382683
v 1.097057 0.290478 0.555570
v 1.117533 0.266076 0.707107
v 1.142483 0.236341 0.831470
v 1.170948 0.202418 0.923879
v 1.201835 0.165609 0.980785
v 1.233956 0.127329 1.000000
v 1.266077 0.089048 0.980785
v 1.296963 0.052239 0.923879
v 1.325428 0.018316 0.831470
v 1.350379 -0.011419 0.707107
v 1.370854 -0.035821 0.555570
v 1.386069 -0.053953 0.382683
v 1.395439 -0.065119 0.195090
v 1.398602 -0.068890 0.000000
v 1.395439 -0.065119 -0.195090
v 1.386069 -0.053953 -0.382683
v 1.370854 -0.035821 -0.555570
v 1.350379 -0.011419 -0.707107
v 1.325428 0.018316 -0.831470
v 1.296963 0.052239 -0.923880
v -1.000000 0.127328 1.233956
v -0.980785 0.165609 1.201835
v 0.000000 1.412904 2.766044
v -0.980785 0.089048 1.266077
v -0.923880 0.052239 1.296963
v -0.831470 0.018315 1.325428
v -0.707107 -0.011419 1.350378
v -0.555570 -0.035821 1.370854
v -0.382684 -0.053954 1.386069
v -0.195090 -0.065120 1.395439
v 0.000000 -0.068890 1.398602
v 0.195090 -0.065120 1.395438
v 0.382684 -0.053954 1.386069
v 0.555570 -0.035821 1.370854
v 0.707107 -0.011419 1.350378
v 0.831470 0.018316 1.325428
v 0.923880 0.052239 1.296963
v 0.980785 0.089048 1.266077
v 1.000000 0.127329 1.233956
v 0.980785 0.165609 1.201835
v 0.923880 0.202418 1.170948
v 0.831470 0.236342 1.142483
v 0.707107 0.266076 1.117533
v 0.555570 0.290478 1.097057
v 0.382684 0.308610 1.081842
v 0.195090 0.319776 1.072473
v 0.000000 0.323547 1.069309
v -0.195090 0.319776 1.072473
v -0.382683 0.308610 1.081842
v -0.555570 0.290478 1.097057
v -0.707107 0.266075 1.117533
v -0.831470 0.236341 1.142483
v -0.923880 0.202418 1.170948
v -1.579645 0.127328 -0.165432
v -1.588771 0.089048 -0.201732
v -1.955889 1.412904 -1.955889
v -1.543346 0.165608 -0.156306
v -1.481267 0.202418 -0.174704
v -1.395795 0.236341 -0.219920
v -1.290215 0.266075 -0.290215
v -1.168584 0.290478 -0.382889
v -1.035576 0.308610 -0.494380
v -0.896302 0.319776 -0.620403
v -0.756116 0.323546 -0.756116
v -0.620403 0.319776 -0.896303
v -0.494380 0.308610 -1.035576
v -0.382889 0.290478 -1.168584
v -0.290215 0.266076 -1.290215
v -0.219919 0.236341 -1.395795
v -0.174704 0.202418 -1.481267
v -0.156306 0.165609 -1.543346
v -0.165432 0.127328 -1.579646
v -0.201731 0.089048 -1.588771
v -0.263810 0.052239 -1.570373
v -0.349282 0.018315 -1.525157
v -0.454862 -0.011419 -1.454862
v -0.576493 -0.035821 -1.362188
v -0.709501 -0.053954 -1.250697
v -0.848774 -0.065120 -1.124674
v -0.988961 -0.068890 -0.988961
v -1.124674 -0.065120 -0.848775
v -1.250697 -0.053954 -0.709501
v -1.362188 -0.035821 -0.576493
v -1.454862 -0.011419 -0.454862
v -1.525157 0.018315 -0.349282
v -1.570373 0.052239 -0.263810
v 0.165432 0.127328 -1.579645
v 0.201731 0.089048 -1.588771
v 1.955889 1.412904 -1.955889
v 0.156305 0.165609 -1.543345
v 0.174704 0.202418 -1.481267
v 0.219920 0.236341 -1.395795
v 0.290215 0.266076 -1.290215
v 0.382889 0.290478 -1.168584
v 0.494380 0.308610 -1.035576
v 0.620403 0.319776 -0.896303
v 0.756116 0.323547 -0.756116
v 0.896302 0.319776 -0.620403
v 1.035576 0.308610 -0.494380
v 1.168584 0.290478 -0.382889
v 1.290215 0.266076 -0.290215
v 1.395795 0.236341 -0.219920
v 1.481267 0.202418 -0.174704
v 1.543345 0.165609 -0.156306
v 1.579645 0.127329 -0.165432
v 1.588771 0.089048 -0.201732
v 1.570373 0.052239 -0.263810
v 1.525157 0.018316 -0.349282
v 1.454862 -0.011419 -0.454862
v 1.362188 -0.035821 -0.576493
v 1.250697 -0.053953 -0.709501
v 1.124674 -0.065119 -0.848775
v 0.988961 -0.068890 -0.988961
v 0.848774 -0.065119 -1.124674
v 0.709501 -0.053953 -1.250697
v 0.576493 -0.035821 -1.362188
v 0.454862 -0.011419 -1.454862
v 0.349282 0.018315 -1.525157
v 0.263810 0.052239 -1.570373
v 0.165432 0.127328 1.579645
v 0.156306 0.165609 1.543345
v 1.955889 1.412904 1.955889
v 0.201731 0.089048 1.588771
v 0.263810 0.052239 1.570373
v 0.349282 0.018315 1.525157
v 0.454862 -0.011419 1.454861
v 0.576493 -0.035821 1.362188
v 0.709501 -0.053954 1.250697
v 0.848774 -0.065119 1.124673
v 0.988961 -0.068890 0.988961
v 1.124674 -0.065120 0.848774
v 1.250697 -0.053954 0.709500
v 1.362188 -0.035821 0.576492
v 1.454862 -0.011419 0.454861
v 1.525157 0.018316 0.349281
v 1.570373 0.052239 0.263810
v 1.588771 0.089048 0.201731
v 1.579645 0.127329 0.165431
v 1.543345 0.165609 0.156305
v 1.481267 0.202418 0.174704
v 1.395795 0.236342 0.219919
v 1.290215 0.266076 0.290215
v 1.168584 0.290478 0.382889
v 1.035576 0.308610 0.494379
v 0.896302 0.319776 0.620403
v 0.756116 0.323547 0.756115
v 0.620403 0.319776 0.896302
v 0.494380 0.308610 1.035576
v 0.382889 0.290478 1.168584
v 0.290215 0.266076 1.290215
v 0.219919 0.236341 1.395795
v 0.174704 0.202418 1.481267
vn 0.5417 -0.6428 -0.5417
vn -0.6793 0.5210 -0.5168
vn -0.9750 0.0227 -0.2212
vn -0.9340 -0.3505 0.0690
vn -0.8234 -0.5189 0.2297
vn -0.7350 -0.5971 0.3212
vn -0.6690 -0.6377 0.3818
vn -0.6175 -0.6602 0.4276
vn -0.5748 -0.6725 0.4662
vn -0.5372 -0.6780 0.5018
vn -0.5018 -0.6780 0.5372
vn -0.4662 -0.6725 0.5748
vn -0.4276 -0.6602 0.6175
vn -0.3818 -0.6377 0.6690
vn -0.3212 -0.5971 0.7350
vn -0.2297 -0.5189 0.8234
vn -0.0690 -0.3505 0.9340
vn 0.2212 0.0227 0.9750
vn 0.5168 0.5210 0.6793
vn 0.5895 0.7593 0.2755
vn 0.5668 0.8234 0.0270
vn 0.5310 0.8392 -0.1172
vn 0.4964 0.8425 -0.2092
vn 0.4639 0.8424 -0.2740
vn 0.4322 0.8417 -0.3236
vn 0.3996 0.8412 -0.3642
vn 0.3642 0.8412 -0.3996
vn 0.3236 0.8417 -0.4322
vn 0.2740 0.8424 -0.4639
vn 0.2092 0.8425 -0.4964
vn 0.1172 0.8392 -0.5310
vn -0.0270 0.8234 -0.5668
vn -0.2755 0.7593 -0.5895
vn -0.1149 0.5210 -0.8458
vn 0.2220 0.7593 -0.6117
vn 0.3817 0.8234 -0.4199
vn 0.4583 0.8392 -0.2926
vn 0.4990 0.8425 -0.2031
vn 0.5218 0.8424 -0.1343
vn 0.5344 0.8417 -0.0768
vn 0.5401 0.8412 -0.0250
vn 0.5401 0.8412 0.0250
vn 0.5344 0.8417 0.0768
vn 0.5218 0.8424 0.1343
vn 0.4990 0.8425 0.2031
vn 0.4583 0.8392 0.2926
vn 0.3817 0.8234 0.4199
vn 0.2220 0.7593 0.6117
vn -0.1149 0.5210 0.8458
vn -0.5330 0.0227 0.8458
vn -0.7093 -0.3505 0.6117
vn -0.7446 -0.5189 0.4199
vn -0.7469 -0.5971 0.2926
vn -0.7430 -0.6377 0.2031
vn -0.7390 -0.6602 0.1343
vn -0.7361 -0.6725 0.0768
vn -0.7347 -0.6780 0.0250
vn -0.7347 -0.6780 -0.0250
vn -0.7361 -0.6725 -0.0768
vn -0.7390 -0.6602 -0.1343
vn -0.7430 -0.6377 -0.2031
vn -0.7469 -0.5971 -0.2926
vn -0.7446 -0.5189 -0.4199
vn 0.7660 -0.6428 -0.0000
vn -0.7093 -0.3505 -0.6117
vn -0.5330 0.0227 -0.8458
vn -0.0000 -0.6428 0.7660
vn -0.8458 0.0227 -0.5330
vn -0.8458 0.5210 -0.1149
vn -0.6117 0.7593 0.2220
vn -0.4199 0.8234 0.3817
vn -0.2926 0.8392 0.4583
vn -0.2031 0.8425 0.4990
vn -0.1343 0.8424 0.5218
vn -0.0768 0.8417 0.5344
vn -0.0250 0.8412 0.5401
vn 0.0250 0.8412 0.5401
vn 0.0768 0.8417 0.5344
vn 0.1343 0.8424 0.5218
vn 0.2031 0.8425 0.4990
vn 0.2926 0.8392 0.4583
vn 0.4199 0.8234 0.3817
vn 0.6117 0.7593 0.2220
vn 0.8458 0.5210 -0.1149
vn 0.8458 0.0227 -0.5330
vn 0.6117 -0.3505 -0.7093
vn 0.4199 -0.5189 -0.7446
vn 0.2926 -0.5971 -0.7469
vn 0.2031 -0.6377 -0.7430
vn 0.1343 -0.6602 -0.7390
vn 0.0768 -0.6725 -0.7361
vn 0.0250 -0.6780 -0.7347
vn -0.0250 -0.6780 -0.7347
vn -0.0768 -0.6725 -0.7361
vn -0.1343 -0.6602 -0.7390
vn -0.2031 -0.6377 -0.7430
vn -0.2926 -0.5971 -0.7469
vn -0.4199 -0.5189 -0.7446
vn -0.6117 -0.3505 -0.7093
vn -0.7660 -0.6428 -0.0000
vn 0.5330 0.0227 -0.8458
vn 0.1149 0.5210 -0.8458
vn -0.2220 0.7593 -0.6117
vn -0.3817 0.8234 -0.4199
vn -0.4583 0.8392 -0.2926
vn -0.4990 0.8425 -0.2031
vn -0.5218 0.8424 -0.1343
vn -0.5344 0.8417 -0.0768
vn -0.5401 0.8412 -0.0250
vn -0.5401 0.8412 0.0250
vn -0.5344 0.8417 0.0768
vn -0.5218 0.8424 0.1343
vn -0.4990 0.8425 0.2031
vn -0.4583 0.8392 0.2926
vn -0.3817 0.8234 0.4199
vn -0.2220 0.7593 0.6117
vn 0.1149 0.5210 0.8458
vn 0.5330 0.0227 0.8458
vn 0.7093 -0.3505 0.6117
vn 0.7446 -0.5189 0.4199
vn 0.7469 -0.5971 0.2926
vn 0.7430 -0.6377 0.2031
vn 0.7390 -0.6602 0.1343
vn 0.7361 -0.6725 0.0768
vn 0.7347 -0.6780 0.0250
vn 0.7347 -0.6780 -0.0250
vn 0.7361 -0.6725 -0.0768
vn 0.7390 -0.6602 -0.1343
vn 0.7430 -0.6377 -0.2031
vn 0.7469 -0.5971 -0.2926
vn 0.7446 -0.5189 -0.4199
vn 0.7093 -0.3505 -0.6117
vn -0.0000 -0.6428 -0.7660
vn -0.8458 0.5210 0.1149
vn -0.8458 0.0227 0.5330
vn -0.6117 -0.3505 0.7093
vn -0.4199 -0.5189 0.7446
vn -0.2926 -0.5971 0.7469
vn -0.2031 -0.6377 0.7430
vn -0.1343 -0.6602 0.7390
vn -0.0768 -0.6725 0.7361
vn -0.0250 -0.6780 0.7347
vn 0.0250 -0.6780 0.7347
vn 0.0768 -0.6725 0.7361
vn 0.1343 -0.6602 0.7390
vn 0.2031 -0.6377 0.7430
vn 0.2926 -0.5971 0.7469
vn 0.4199 -0.5189 0.7446
vn 0.6117 -0.3505 0.7093
vn 0.8458 0.0227 0.5330
vn 0.8458 0.5210 0.1149
vn 0.6117 0.7593 -0.2220
vn 0.4199 0.8234 -0.3817
vn 0.2926 0.8392 -0.4583
vn 0.2031 0.8425 -0.4990
vn 0.1343 0.8424 -0.5218
vn 0.0768 0.8417 -0.5344
vn 0.0250 0.8412 -0.5401
vn -0.0250 0.8412 -0.5401
vn -0.0768 0.8417 -0.5344
vn -0.1343 0.8424 -0.5218
vn -0.2031 0.8425 -0.4990
vn -0.2926 0.8392 -0.4583
vn -0.4199 0.8234 -0.3817
vn -0.6117 0.7593 -0.2220
vn 0.5417 -0.6428 0.5417
vn -0.9750 0.0227 0.2212
vn -0.6793 0.5210 0.5168
vn -0.2755 0.7593 0.5895
vn -0.0270 0.8234 0.5668
vn 0.1172 0.8392 0.5310
vn 0.2092 0.8425 0.4964
vn 0.2740 0.8424 0.4639
vn 0.3236 0.8417 0.4322
vn 0.3642 0.8412 0.3996
vn 0.3996 0.8412 0.3642
vn 0.4322 0.8417 0.3236
vn 0.4639 0.8424 0.2740
vn 0.4964 0.8425 0.2092
vn 0.5310 0.8392 0.1172
vn 0.5668 0.8234 -0.0270
vn 0.5895 0.7593 -0.2755
vn 0.5168 0.5210 -0.6793
vn 0.2212 0.0227 -0.9750
vn -0.0690 -0.3505 -0.9340
vn -0.2297 -0.5189 -0.8234
vn -0.3212 -0.5971 -0.7350
vn -0.3818 -0.6377 -0.6690
vn -0.4276 -0.6602 -0.6175
vn -0.4662 -0.6725 -0.5748
vn -0.5018 -0.6780 -0.5372
vn -0.5372 -0.6780 -0.5018
vn -0.5748 -0.6725 -0.4662
vn -0.6175 -0.6602 -0.4276
vn -0.6690 -0.6377 -0.3818
vn -0.7350 -0.5971 -0.3212
vn -0.8234 -0.5189 -0.2297
vn -0.9340 -0.3505 -0.0690
vn -0.5417 -0.6428 0.5417
vn -0.2212 0.0227 -0.9750
vn -0.5168 0.5210 -0.6793
vn -0.5895 0.7593 -0.2755
vn -0.5668 0.8234 -0.0270
vn -0.5310 0.8392 0.1172
vn -0.4964 0.8425 0.2092
vn -0.4639 0.8424 0.2740
vn -0.4322 0.8417 0.3236
vn -0.3996 0.8412 0.3642
vn -0.3642 0.8412 0.3996
vn -0.3236 0.8417 0.4322
vn -0.2740 0.8424 0.4639
vn -0.2092 0.8425 0.4964
vn -0.1172 0.8392 0.5310
vn 0.0270 0.8234 0.5668
vn 0.2755 0.7593 0.5895
vn 0.6793 0.5210 0.5168
vn 0.9750 0.0227 0.2212
vn 0.9340 -0.3505 -0.0690
vn 0.8234 -0.5189 -0.2297
vn 0.7350 -0.5971 -0.3212
vn 0.6690 -0.6377 -0.3818
vn 0.6175 -0.6602 -0.4276
vn 0.5748 -0.6725 -0.4662
vn 0.5372 -0.6780 -0.5018
vn 0.5018 -0.6780 -0.5372
vn 0.4662 -0.6725 -0.5748
vn 0.4276 -0.6602 -0.6175
vn 0.3818 -0.6377 -0.6690
vn 0.3212 -0.5971 -0.7350
vn 0.2297 -0.5189 -0.8234
vn 0.0690 -0.3505 -0.9340
vn -0.5417 -0.6428 -0.5417
vn -0.5168 0.5210 0.6793
vn -0.2212 0.0227 0.9750
vn 0.0690 -0.3505 0.9340
vn 0.2297 -0.5189 0.8234
vn 0.3212 -0.5971 0.7350
vn 0.3818 -0.6377 0.6690
vn 0.4276 -0.6602 0.6175
vn 0.4662 -0.6725 0.5748
vn 0.5018 -0.6780 0.5372
vn 0.5372 -0.6780 0.5018
vn 0.5748 -0.6725 0.4662
vn 0.6175 -0.6602 0.4276
vn 0.6690 -0.6377 0.3818
vn 0.7350 -0.5971 0.3212
vn 0.8234 -0.5189 0.2297
vn 0.9340 -0.3505 0.0690
vn 0.9750 0.0227 -0.2212
vn 0.6793 0.5210 -0.5168
vn 0.2755 0.7593 -0.5895
vn 0.0270 0.8234 -0.5668
vn -0.1172 0.8392 -0.5310
vn -0.2092 0.8425 -0.4964
vn -0.2740 0.8424 -0.4639
vn -0.3236 0.8417 -0.4322
vn -0.3642 0.8412 -0.3996
vn -0.3996 0.8412 -0.3642
vn -0.4322 0.8417 -0.3236
vn -0.4639 0.8424 -0.2740
vn -0.4964 0.8425 -0.2092
vn -0.5310 0.8392 -0.1172
vn -0.5668 0.8234 0.0270
vn -0.5895 0.7593 0.2755
vt 0.053840 0.632157
vt 0.059063 0.643727
vt 0.063764 0.659548
vt 0.067761 0.679012
vt 0.070902 0.701370
vt 0.073066 0.725765
vt 0.074168 0.751257
vt 0.074168 0.776868
vt 0.073066 0.801613
vt 0.070902 0.824541
vt 0.067761 0.844772
vt 0.063764 0.861527
vt 0.059063 0.874163
vt 0.053840 0.882195
vt 0.048296 0.885313
vt 0.042642 0.883397
vt 0.037098 0.876523
vt 0.031875 0.864952
vt 0.027174 0.849131
vt 0.023177 0.829667
vt 0.020036 0.807309
vt 0.017872 0.782914
vt 0.016769 0.757422
vt 0.016770 0.731811
vt 0.017872 0.707066
vt 0.020036 0.684138
vt 0.023177 0.663907
vt 0.027174 0.647152
vt 0.031875 0.634516
vt 0.037098 0.626484
vt 0.042642 0.623366
vt 0.048296 0.625282
vt 0.424714 0.710772
vt 0.568202 0.879131
vt 0.425110 0.723461
vt 0.425655 0.701990
vt 0.428652 0.696828
vt 0.434635 0.694667
vt 0.444210 0.694961
vt 0.457475 0.697374
vt 0.474160 0.701657
vt 0.493762 0.707564
vt 0.515617 0.714826
vt 0.538950 0.723140
vt 0.562915 0.732171
vt 0.586638 0.741568
vt 0.609251 0.750972
vt 0.629931 0.760032
vt 0.647942 0.768425
vt 0.662668 0.775877
vt 0.673672 0.782207
vt 0.680788 0.787438
vt 0.684424 0.792172
vt 0.686059 0.798319
vt 0.687210 0.807830
vt 0.688437 0.821257
vt 0.689880 0.838421
vt 0.691553 0.858826
vt 0.693416 0.881781
vt 0.439959 0.857197
vt 0.442988 0.881781
vt 0.436853 0.831775
vt 0.433803 0.806442
vt 0.430950 0.782119
vt 0.428441 0.759680
vt 0.426434 0.739912
vt 0.818660 0.252326
vt 0.907681 0.146975
vt 0.828229 0.259718
vt 0.838409 0.266244
vt 0.849122 0.271853
vt 0.860284 0.276502
vt 0.871811 0.280155
vt 0.883613 0.282785
vt 0.895601 0.284371
vt 0.907681 0.284901
vt 0.862299 0.016729
vt 0.851065 0.021204
vt 0.840267 0.026646
vt 0.829987 0.033013
vt 0.820305 0.040256
vt 0.811293 0.048318
vt 0.803023 0.057140
vt 0.795557 0.066651
vt 0.788953 0.076780
vt 0.783261 0.087449
vt 0.778525 0.098575
vt 0.774783 0.110073
vt 0.772061 0.121855
vt 0.770382 0.133830
vt 0.769759 0.145905
vt 0.770195 0.157989
vt 0.771688 0.169989
vt 0.774226 0.181811
vt 0.777790 0.193366
vt 0.782353 0.204564
vt 0.787878 0.215320
vt 0.794325 0.225550
vt 0.801642 0.235176
vt 0.740928 0.883687
vt 0.749478 0.875137
vt 0.759532 0.868419
vt 0.770703 0.863792
vt 0.782563 0.861433
vt 0.794655 0.861433
vt 0.806514 0.863792
vt 0.817686 0.868419
vt 0.827740 0.875137
vt 0.836290 0.883687
vt 0.843008 0.893742
vt 0.847635 0.904913
vt 0.849994 0.916772
vt 0.849994 0.928864
vt 0.847635 0.940724
vt 0.843008 0.951895
vt 0.836290 0.961949
vt 0.827740 0.970500
vt 0.817686 0.977217
vt 0.806514 0.981845
vt 0.794655 0.984204
vt 0.782563 0.984204
vt 0.770703 0.981845
vt 0.759532 0.977217
vt 0.749478 0.970500
vt 0.740928 0.961949
vt 0.734210 0.951895
vt 0.729582 0.940724
vt 0.727223 0.928864
vt 0.727223 0.916772
vt 0.729582 0.904913
vt 0.734210 0.893741
vt 0.809775 0.244125
vt 0.030341 0.193543
vt 0.034255 0.190196
vt 0.038246 0.193194
vt 0.042160 0.202420
vt 0.045847 0.217521
vt 0.049165 0.237916
vt 0.051987 0.262820
vt 0.054204 0.291278
vt 0.055731 0.322195
vt 0.056509 0.354383
vt 0.056509 0.386606
vt 0.055731 0.417625
vt 0.054204 0.446247
vt 0.051987 0.471374
vt 0.049165 0.492039
vt 0.045847 0.507449
vt 0.042160 0.517010
vt 0.038246 0.520357
vt 0.034255 0.517359
vt 0.030341 0.508133
vt 0.026654 0.493032
vt 0.023336 0.472637
vt 0.020515 0.447733
vt 0.018297 0.419275
vt 0.016770 0.388358
vt 0.015992 0.356170
vt 0.015992 0.323947
vt 0.016770 0.292928
vt 0.018297 0.264306
vt 0.020515 0.239179
vt 0.023336 0.218514
vt 0.026654 0.203104
vt 0.302260 0.018025
vt 0.499166 0.369866
vt 0.297265 0.016773
vt 0.310562 0.024033
vt 0.322689 0.034102
vt 0.338552 0.047643
vt 0.357714 0.064048
vt 0.379529 0.082640
vt 0.403218 0.102680
vt 0.427911 0.123382
vt 0.452691 0.143940
vt 0.306162 0.446161
vt 0.293579 0.474443
vt 0.317561 0.419992
vt 0.327328 0.396909
vt 0.335077 0.377755
vt 0.340504 0.363189
vt 0.343402 0.353595
vt 0.343726 0.348614
vt 0.342069 0.343738
vt 0.339257 0.333884
vt 0.335553 0.318563
vt 0.331148 0.298176
vt 0.326237 0.273435
vt 0.321027 0.245249
vt 0.315737 0.214674
vt 0.310584 0.182866
vt 0.305785 0.151028
vt 0.301542 0.120366
vt 0.298043 0.092037
vt 0.295453 0.067107
vt 0.293919 0.046502
vt 0.293579 0.030961
vt 0.294595 0.020991
vt 0.739780 0.824094
vt 0.736132 0.822798
vt 0.732696 0.819183
vt 0.729604 0.813387
vt 0.726974 0.805633
vt 0.724907 0.796219
vt 0.723484 0.785508
vt 0.722759 0.773909
vt 0.722759 0.761870
vt 0.723484 0.749853
vt 0.724907 0.738319
vt 0.726974 0.727713
vt 0.729604 0.718441
vt 0.732696 0.710859
vt 0.736132 0.705260
vt 0.739780 0.701859
vt 0.743499 0.700785
vt 0.747147 0.702081
vt 0.750584 0.705696
vt 0.753676 0.711492
vt 0.756306 0.719246
vt 0.758372 0.728660
vt 0.759796 0.739372
vt 0.760521 0.750970
vt 0.760521 0.763009
vt 0.759796 0.775026
vt 0.758372 0.786560
vt 0.756306 0.797167
vt 0.753676 0.806439
vt 0.750583 0.814020
vt 0.747147 0.819619
vt 0.743499 0.823021
vt 0.194717 0.017983
vt 0.261356 0.492102
vt 0.191066 0.016697
vt 0.198236 0.019596
vt 0.202933 0.021275
vt 0.209306 0.022867
vt 0.217371 0.024280
vt 0.226938 0.025447
vt 0.237709 0.026317
vt 0.249318 0.026853
vt 0.261356 0.027035
vt 0.026102 0.090534
vt 0.015972 0.097040
vt 0.035680 0.083953
vt 0.044371 0.077531
vt 0.051882 0.071492
vt 0.057987 0.066036
vt 0.062562 0.061321
vt 0.065665 0.057417
vt 0.067804 0.054190
vt 0.070227 0.051171
vt 0.074037 0.047952
vt 0.079589 0.044441
vt 0.086867 0.040690
vt 0.095688 0.036807
vt 0.105770 0.032917
vt 0.116766 0.029157
vt 0.128286 0.025660
vt 0.139917 0.022552
vt 0.151242 0.019945
vt 0.161858 0.017929
vt 0.171400 0.016574
vt 0.179562 0.015920
vt 0.186131 0.015973
vt 0.104510 0.642979
vt 0.100823 0.633417
vt 0.097505 0.618008
vt 0.094683 0.597343
vt 0.092466 0.572216
vt 0.090939 0.543593
vt 0.090160 0.512575
vt 0.090160 0.480352
vt 0.090939 0.448164
vt 0.092466 0.417247
vt 0.094683 0.388789
vt 0.097505 0.363884
vt 0.100823 0.343490
vt 0.104510 0.328389
vt 0.108424 0.319163
vt 0.112414 0.316165
vt 0.116328 0.319511
vt 0.120015 0.329073
vt 0.123333 0.344482
vt 0.126155 0.365148
vt 0.128372 0.390274
vt 0.129899 0.418897
vt 0.130678 0.449916
vt 0.130678 0.482138
vt 0.129899 0.514327
vt 0.128372 0.545244
vt 0.126155 0.573702
vt 0.123333 0.598606
vt 0.120015 0.619001
vt 0.116328 0.634101
vt 0.112414 0.643328
vt 0.108424 0.646325
vt 0.689811 0.684735
vt 0.337970 0.487829
vt 0.683803 0.676433
vt 0.691062 0.689730
vt 0.686845 0.692400
vt 0.676874 0.693416
vt 0.661334 0.693076
vt 0.640728 0.691543
vt 0.615798 0.688953
vt 0.587470 0.685453
vt 0.556807 0.681211
vt 0.524969 0.676411
vt 0.493161 0.671259
vt 0.462587 0.665968
vt 0.434401 0.660759
vt 0.409659 0.655847
vt 0.389273 0.651442
vt 0.373951 0.647739
vt 0.364097 0.644927
vt 0.359221 0.643270
vt 0.354241 0.643593
vt 0.344647 0.646491
vt 0.330081 0.651918
vt 0.310926 0.659668
vt 0.287843 0.669434
vt 0.261675 0.680833
vt 0.233393 0.693416
vt 0.584453 0.559085
vt 0.563895 0.534304
vt 0.605155 0.583777
vt 0.625195 0.607466
vt 0.643787 0.629282
vt 0.660192 0.648443
vt 0.673733 0.664307
vt 0.878851 0.326064
vt 0.884396 0.319190
vt 0.890049 0.317274
vt 0.895594 0.320392
vt 0.900817 0.328424
vt 0.905517 0.341060
vt 0.909515 0.357815
vt 0.912655 0.378046
vt 0.914819 0.400974
vt 0.915922 0.425719
vt 0.915922 0.451330
vt 0.914819 0.476822
vt 0.912655 0.501216
vt 0.909515 0.523575
vt 0.905517 0.543039
vt 0.900817 0.558860
vt 0.895594 0.570430
vt 0.890049 0.577305
vt 0.884396 0.579220
vt 0.878851 0.576102
vt 0.873628 0.568071
vt 0.868927 0.555435
vt 0.864930 0.538680
vt 0.861789 0.518449
vt 0.859626 0.495521
vt 0.858523 0.470776
vt 0.858523 0.445165
vt 0.859626 0.419673
vt 0.861789 0.395278
vt 0.864930 0.372920
vt 0.868927 0.353456
vt 0.873628 0.337635
vt 0.392033 0.698999
vt 0.248545 0.867358
vt 0.391093 0.690217
vt 0.391638 0.711688
vt 0.390313 0.728139
vt 0.388306 0.747908
vt 0.385798 0.770346
vt 0.382945 0.794669
vt 0.379895 0.820002
vt 0.376789 0.845424
vt 0.373760 0.870008
vt 0.125194 0.847053
vt 0.123331 0.870008
vt 0.126867 0.826649
vt 0.128311 0.809484
vt 0.129537 0.796058
vt 0.130688 0.786547
vt 0.132323 0.780399
vt 0.135959 0.775665
vt 0.143076 0.770434
vt 0.154079 0.764104
vt 0.168806 0.756652
vt 0.186816 0.748259
vt 0.207497 0.739199
vt 0.230109 0.729795
vt 0.253832 0.720398
vt 0.277798 0.711367
vt 0.301131 0.703054
vt 0.322986 0.695791
vt 0.342588 0.689884
vt 0.359273 0.685601
vt 0.372537 0.683188
vt 0.382113 0.682894
vt 0.388095 0.685056
vt 0.180487 0.432540
vt 0.184010 0.431881
vt 0.187466 0.435953
vt 0.190722 0.444601
vt 0.193652 0.457491
vt 0.196143 0.474128
vt 0.198101 0.493872
vt 0.199450 0.515966
vt 0.200137 0.539559
vt 0.200137 0.563746
vt 0.199450 0.587597
vt 0.198101 0.610194
vt 0.196144 0.630671
vt 0.193652 0.648239
vt 0.190722 0.662224
vt 0.187467 0.672088
vt 0.184010 0.677453
vt 0.180487 0.678112
vt 0.177031 0.674039
vt 0.173775 0.665392
vt 0.170845 0.652502
vt 0.168354 0.635865
vt 0.166396 0.616121
vt 0.165047 0.594027
vt 0.164360 0.570433
vt 0.164360 0.546247
vt 0.165047 0.522396
vt 0.166396 0.499799
vt 0.168353 0.479322
vt 0.170845 0.461754
vt 0.173775 0.447768
vt 0.177031 0.437904
vt 0.789400 0.309624
vt 0.364741 0.016645
vt 0.792308 0.307527
vt 0.783025 0.309350
vt 0.772777 0.307650
vt 0.758727 0.305050
vt 0.741275 0.301843
vt 0.721022 0.298246
vt 0.698704 0.294453
vt 0.675150 0.290646
vt 0.651240 0.286998
vt 0.739383 0.030266
vt 0.758660 0.016645
vt 0.721462 0.043258
vt 0.705585 0.055158
vt 0.692357 0.065550
vt 0.682278 0.074103
vt 0.675715 0.080606
vt 0.672858 0.085120
vt 0.673565 0.088634
vt 0.677146 0.093916
vt 0.683062 0.102455
vt 0.690976 0.114352
vt 0.700543 0.129296
vt 0.711374 0.146783
vt 0.723037 0.166186
vt 0.735070 0.186789
vt 0.747001 0.207829
vt 0.758359 0.228520
vt 0.768693 0.248094
vt 0.777590 0.265829
vt 0.784685 0.281082
vt 0.789670 0.293325
vt 0.792289 0.302186
vt 0.875080 0.857577
vt 0.871624 0.852212
vt 0.868369 0.842348
vt 0.865439 0.828362
vt 0.862947 0.810794
vt 0.860989 0.790318
vt 0.859641 0.767720
vt 0.858954 0.743869
vt 0.858954 0.719683
vt 0.859641 0.696089
vt 0.860989 0.673996
vt 0.862947 0.654251
vt 0.865439 0.637614
vt 0.868369 0.624724
vt 0.871624 0.616077
vt 0.875080 0.612004
vt 0.878604 0.612663
vt 0.882060 0.618028
vt 0.885316 0.627892
vt 0.888245 0.641877
vt 0.890737 0.659446
vt 0.892695 0.679922
vt 0.894043 0.702520
vt 0.894731 0.726370
vt 0.894731 0.750557
vt 0.894043 0.774150
vt 0.892695 0.796244
vt 0.890737 0.815989
vt 0.888246 0.832626
vt 0.885316 0.845515
vt 0.882060 0.854163
vt 0.878604 0.858235
vt 0.532292 0.311139
vt 0.825271 0.735798
vt 0.532567 0.317515
vt 0.534390 0.308232
vt 0.539731 0.308250
vt 0.548592 0.310869
vt 0.560835 0.315854
vt 0.576088 0.322949
vt 0.593822 0.331846
vt 0.613396 0.342180
vt 0.634088 0.353538
vt 0.655127 0.365469
vt 0.675731 0.377502
vt 0.695133 0.389165
vt 0.712620 0.399996
vt 0.727564 0.409563
vt 0.739461 0.417477
vt 0.748000 0.423393
vt 0.753282 0.426974
vt 0.756796 0.427681
vt 0.761310 0.424824
vt 0.767814 0.418261
vt 0.776366 0.408182
vt 0.786759 0.394954
vt 0.798658 0.379077
vt 0.811651 0.361156
vt 0.825271 0.341879
vt 0.551271 0.425390
vt 0.554919 0.449300
vt 0.547464 0.401835
vt 0.543670 0.379517
vt 0.540074 0.359264
vt 0.536867 0.341812
vt 0.534266 0.327762
s 0
usemtl マテリアル.001
f 1/1/1 2/2/1 33/3/1 32/4/1 31/5/1 30/6/1 29/7/1 28/8/1 27/9/1 26/10/1 25/11/1 24/12/1 23/13/1 22/14/1 21/15/1 20/16/1 19/17/1 18/18/1 17/19/1 16/20/1 15/21/1 14/22/1 13/23/1 12/24/1 11/25/1 10/26/1 9/27/1 8/28/1 7/29/1 6/30/1 5/31/1 4/32/1
f 1/33/2 3/34/2 2/35/2
f 4/36/3 3/34/3 1/33/3
f 5/37/4 3/34/4 4/36/4
f 6/38/5 3/34/5 5/37/5
f 7/39/6 3/34/6 6/38/6
f 8/40/7 3/34/7 7/39/7
f 9/41/8 3/34/8 8/40/8
f 10/42/9 3/34/9 9/41/9
f 11/43/10 3/34/10 10/42/10
f 12/44/11 3/34/11 11/43/11
f 13/45/12 3/34/12 12/44/12
f 14/46/13 3/34/13 13/45/13
f 15/47/14 3/34/14 14/46/14
f 16/48/15 3/34/15 15/47/15
f 17/49/16 3/34/16 16/48/16
f 18/50/17 3/34/17 17/49/17
f 19/51/18 3/34/18 18/50/18
f 20/52/19 3/34/19 19/51/19
f 21/53/20 3/34/20 20/52/20
f 22/54/21 3/34/21 21/53/21
f 23/55/22 3/34/22 22/54/22
f 24/56/23 3/34/23 23/55/23
f 25/57/24 3/34/24 24/56/24
f 26/58/25 3/34/25 25/57/25
f 27/59/26 3/34/26 26/58/26
f 28/60/27 3/34/27 27/61/27
f 29/62/28 3/34/28 28/60/28
f 30/63/29 3/34/29 29/62/29
f 31/64/30 3/34/30 30/63/30
f 32/65/31 3/34/31 31/64/31
f 33/66/32 3/34/32 32/65/32
f 2/35/33 3/34/33 33/66/33
f 34/67/34 66/68/34 35/69/34
f 35/69/35 66/68/35 36/70/35
f 36/70/36 66/68/36 37/71/36
f 37/71/37 66/68/37 38/72/37
f 38/72/38 66/68/38 39/73/38
f 39/73/39 66/68/39 40/74/39
f 40/74/40 66/68/40 41/75/40
f 41/75/41 66/68/41 42/76/41
f 42/77/42 66/68/42 43/78/42
f 43/78/43 66/68/43 44/79/43
f 44/79/44 66/68/44 45/80/44
f 45/80/45 66/68/45 46/81/45
f 46/81/46 66/68/46 47/82/46
f 47/82/47 66/68/47 48/83/47
f 48/83/48 66/68/48 49/84/48
f 49/84/49 66/68/49 50/85/49
f 50/85/50 66/68/50 51/86/50
f 51/86/51 66/68/51 52/87/51
f 52/87/52 66/68/52 53/88/52
f 53/88/53 66/68/53 54/89/53
f 54/89/54 66/68/54 55/90/54
f 55/90/55 66/68/55 56/91/55
f 56/91/56 66/68/56 57/92/56
f 57/92/57 66/68/57 58/93/57
f 58/93/58 66/68/58 59/94/58
f 59/94/59 66/68/59 60/95/59
f 60/95/60 66/68/60 61/96/60
f 61/96/61 66/68/61 62/97/61
f 62/97/62 66/68/62 63/98/62
f 63/98/63 66/68/63 64/99/63
f 34/100/64 35/101/64 36/102/64 37/103/64 38/104/64 39/105/64 40/106/64 41/107/64 42/108/64 43/109/64 44/110/64 45/111/64 46/112/64 47/113/64 48/114/64 49/115/64 50/116/64 51/117/64 52/118/64 53/119/64 54/120/64 55/121/64 56/122/64 57/123/64 58/124/64 59/125/64 60/126/64 61/127/64 62/128/64 63/129/64 64/130/64 65/131/64
f 64/99/65 66/68/65 65/132/65
f 65/132/66 66/68/66 34/67/66
f 67/133/67 68/134/67 99/135/67 98/136/67 97/137/67 96/138/67 95/139/67 94/140/67 93/141/67 92/142/67 91/143/67 90/144/67 89/145/67 88/146/67 87/147/67 86/148/67 85/149/67 84/150/67 83/151/67 82/152/67 81/153/67 80/154/67 79/155/67 78/156/67 77/157/67 76/158/67 75/159/67 74/160/67 73/161/67 72/162/67 71/163/67 70/164/67
f 67/165/68 69/166/68 68/167/68
f 70/168/69 69/166/69 67/165/69
f 71/169/70 69/166/70 70/168/70
f 72/170/71 69/166/71 71/169/71
f 73/171/72 69/166/72 72/170/72
f 74/172/73 69/166/73 73/171/73
f 75/173/74 69/166/74 74/172/74
f 76/174/75 69/166/75 75/173/75
f 77/175/76 69/166/76 76/174/76
f 78/176/77 69/166/77 77/177/77
f 79/178/78 69/166/78 78/176/78
f 80/179/79 69/166/79 79/178/79
f 81/180/80 69/166/80 80/179/80
f 82/181/81 69/166/81 81/180/81
f 83/182/82 69/166/82 82/181/82
f 84/183/83 69/166/83 83/182/83
f 85/184/84 69/166/84 84/183/84
f 86/185/85 69/166/85 85/184/85
f 87/186/86 69/166/86 86/185/86
f 88/187/87 69/166/87 87/186/87
f 89/188/88 69/166/88 88/187/88
f 90/189/89 69/166/89 89/188/89
f 91/190/90 69/166/90 90/189/90
f 92/191/91 69/166/91 91/190/91
f 93/192/92 69/166/92 92/191/92
f 94/193/93 69/166/93 93/192/93
f 95/194/94 69/166/94 94/193/94
f 96/195/95 69/166/95 95/194/95
f 97/196/96 69/166/96 96/195/96
f 98/197/97 69/166/97 97/196/97
f 99/198/98 69/166/98 98/197/98
f 68/167/99 69/166/99 99/198/99
f 100/199/100 101/200/100 132/201/100 131/202/100 130/203/100 129/204/100 128/205/100 127/206/100 126/207/100 125/208/100 124/209/100 123/210/100 122/211/100 121/212/100 120/213/100 119/214/100 118/215/100 117/216/100 116/217/100 115/218/100 114/219/100 113/220/100 112/221/100 111/222/100 110/223/100 109/224/100 108/225/100 107/226/100 106/227/100 105/228/100 104/229/100 103/230/100
f 100/231/101 102/232/101 101/233/101
f 103/234/102 102/232/102 100/231/102
f 104/235/103 102/232/103 103/234/103
f 105/236/104 102/232/104 104/235/104
f 106/237/105 102/232/105 105/236/105
f 107/238/106 102/232/106 106/237/106
f 108/239/107 102/232/107 107/238/107
f 109/240/108 102/232/108 108/239/108
f 110/241/109 102/232/109 109/240/109
f 111/242/110 102/232/110 110/243/110
f 112/244/111 102/232/111 111/242/111
f 113/245/112 102/232/112 112/244/112
f 114/246/113 102/232/113 113/245/113
f 115/247/114 102/232/114 114/246/114
f 116/248/115 102/232/115 115/247/115
f 117/249/116 102/232/116 116/248/116
f 118/250/117 102/232/117 117/249/117
f 119/251/118 102/232/118 118/250/118
f 120/252/119 102/232/119 119/251/119
f 121/253/120 102/232/120 120/252/120
f 122/254/121 102/232/121 121/253/121
f 123/255/122 102/232/122 122/254/122
f 124/256/123 102/232/123 123/255/123
f 125/257/124 102/232/124 124/256/124
f 126/258/125 102/232/125 125/257/125
f 127/259/126 102/232/126 126/258/126
f 128/260/127 102/232/127 127/259/127
f 129/261/128 102/232/128 128/260/128
f 130/262/129 102/232/129 129/261/129
f 131/263/130 102/232/130 130/262/130
f 132/264/131 102/232/131 131/263/131
f 101/233/132 102/232/132 132/264/132
f 133/265/133 134/266/133 165/267/133 164/268/133 163/269/133 162/270/133 161/271/133 160/272/133 159/273/133 158/274/133 157/275/133 156/276/133 155/277/133 154/278/133 153/279/133 152/280/133 151/281/133 150/282/133 149/283/133 148/284/133 147/285/133 146/286/133 145/287/133 144/288/133 143/289/133 142/290/133 141/291/133 140/292/133 139/293/133 138/294/133 137/295/133 136/296/133
f 133/297/134 135/298/134 134/299/134
f 136/300/135 135/298/135 133/297/135
f 137/301/136 135/298/136 136/300/136
f 138/302/137 135/298/137 137/301/137
f 139/303/138 135/298/138 138/302/138
f 140/304/139 135/298/139 139/303/139
f 141/305/140 135/298/140 140/304/140
f 142/306/141 135/298/141 141/305/141
f 143/307/142 135/298/142 142/306/142
f 144/308/143 135/298/143 143/307/143
f 145/309/144 135/298/144 144/308/144
f 146/310/145 135/298/145 145/309/145
f 147/311/146 135/298/146 146/310/146
f 148/312/147 135/298/147 147/311/147
f 149/313/148 135/298/148 148/312/148
f 150/314/149 135/298/149 149/313/149
f 151/315/150 135/298/150 150/314/150
f 152/316/151 135/298/151 151/315/151
f 153/317/152 135/298/152 152/316/152
f 154/318/153 135/298/153 153/317/153
f 155/319/154 135/298/154 154/318/154
f 156/320/155 135/298/155 155/319/155
f 157/321/156 135/298/156 156/320/156
f 158/322/157 135/298/157 157/321/157
f 159/323/158 135/298/158 158/322/158
f 160/324/159 135/298/159 159/325/159
f 161/326/160 135/298/160 160/324/160
f 162/327/161 135/298/161 161/326/161
f 163/328/162 135/298/162 162/327/162
f 164/329/163 135/298/163 163/328/163
f 165/330/164 135/298/164 164/329/164
f 134/299/165 135/298/165 165/330/165
f 166/331/166 167/332/166 198/333/166 197/334/166 196/335/166 195/336/166 194/337/166 193/338/166 192/339/166 191/340/166 190/341/166 189/342/166 188/343/166 187/344/166 186/345/166 185/346/166 184/347/166 183/348/166 182/349/166 181/350/166 180/351/166 179/352/166 178/353/166 177/354/166 176/355/166 175/356/166 174/357/166 173/358/166 172/359/166 171/360/166 170/361/166 169/362/166
f 166/363/167 168/364/167 167/365/167
f 169/366/168 168/364/168 166/363/168
f 170/367/169 168/364/169 169/366/169
f 171/368/170 168/364/170 170/367/170
f 172/369/171 168/364/171 171/368/171
f 173/370/172 168/364/172 172/369/172
f 174/371/173 168/364/173 173/370/173
f 175/372/174 168/364/174 174/371/174
f 176/373/175 168/364/175 175/372/175
f 177/374/176 168/364/176 176/375/176
f 178/376/177 168/364/177 177/374/177
f 179/377/178 168/364/178 178/376/178
f 180/378/179 168/364/179 179/377/179
f 181/379/180 168/364/180 180/378/180
f 182/380/181 168/364/181 181/379/181
f 183/381/182 168/364/182 182/380/182
f 184/382/183 168/364/183 183/381/183
f 185/383/184 168/364/184 184/382/184
f 186/384/185 168/364/185 185/383/185
f 187/385/186 168/364/186 186/384/186
f 188/386/187 168/364/187 187/385/187
f 189/387/188 168/364/188 188/386/188
f 190/388/189 168/364/189 189/387/189
f 191/389/190 168/364/190 190/388/190
f 192/390/191 168/364/191 191/389/191
f 193/391/192 168/364/192 192/390/192
f 194/392/193 168/364/193 193/391/193
f 195/393/194 168/364/194 194/392/194
f 196/394/195 168/364/195 195/393/195
f 197/395/196 168/364/196 196/394/196
f 198/396/197 168/364/197 197/395/197
f 167/365/198 168/364/198 198/396/198
f 199/397/199 200/398/199 231/399/199 230/400/199 229/401/199 228/402/199 227/403/199 226/404/199 225/405/199 224/406/199 223/407/199 222/408/199 221/409/199 220/410/199 219/411/199 218/412/199 217/413/199 216/414/199 215/415/199 214/416/199 213/417/199 212/418/199 211/419/199 210/420/199 209/421/199 208/422/199 207/423/199 206/424/199 205/425/199 204/426/199 203/427/199 202/428/199
f 199/429/200 201/430/200 200/431/200
f 202/432/201 201/430/201 199/429/201
f 203/433/202 201/430/202 202/432/202
f 204/434/203 201/430/203 203/433/203
f 205/435/204 201/430/204 204/434/204
f 206/436/205 201/430/205 205/435/205
f 207/437/206 201/430/206 206/436/206
f 208/438/207 201/430/207 207/437/207
f 209/439/208 201/430/208 208/438/208
f 210/440/209 201/430/209 209/441/209
f 211/442/210 201/430/210 210/440/210
f 212/443/211 201/430/211 211/442/211
f 213/444/212 201/430/212 212/443/212
f 214/445/213 201/430/213 213/444/213
f 215/446/214 201/430/214 214/445/214
f 216/447/215 201/430/215 215/446/215
f 217/448/216 201/430/216 216/447/216
f 218/449/217 201/430/217 217/448/217
f 219/450/218 201/430/218 218/449/218
f 220/451/219 201/430/219 219/450/219
f 221/452/220 201/430/220 220/451/220
f 222/453/221 201/430/221 221/452/221
f 223/454/222 201/430/222 222/453/222
f 224/455/223 201/430/223 223/454/223
f 225/456/224 201/430/224 224/455/224
f 226/457/225 201/430/225 225/456/225
f 227/458/226 201/430/226 226/457/226
f 228/459/227 201/430/227 227/458/227
f 229/460/228 201/430/228 228/459/228
f 230/461/229 201/430/229 229/460/229
f 231/462/230 201/430/230 230/461/230
f 200/431/231 201/430/231 231/462/231
f 232/463/232 233/464/232 264/465/232 263/466/232 262/467/232 261/468/232 260/469/232 259/470/232 258/471/232 257/472/232 256/473/232 255/474/232 254/475/232 253/476/232 252/477/232 251/478/232 250/479/232 249/480/232 248/481/232 247/482/232 246/483/232 245/484/232 244/485/232 243/486/232 242/487/232 241/488/232 240/489/232 239/490/232 238/491/232 237/492/232 236/493/232 235/494/232
f 232/495/233 234/496/233 233/497/233
f 235/498/234 234/496/234 232/495/234
f 236/499/235 234/496/235 235/498/235
f 237/500/236 234/496/236 236/499/236
f 238/501/237 234/496/237 237/500/237
f 239/502/238 234/496/238 238/501/238
f 240/503/239 234/496/239 239/502/239
f 241/504/240 234/496/240 240/503/240
f 242/505/241 234/496/241 241/504/241
f 243/506/242 234/496/242 242/505/242
f 244/507/243 234/496/243 243/506/243
f 245/508/244 234/496/244 244/507/244
f 246/509/245 234/496/245 245/508/245
f 247/510/246 234/496/246 246/509/246
f 248/511/247 234/496/247 247/510/247
f 249/512/248 234/496/248 248/511/248
f 250/513/249 234/496/249 249/512/249
f 251/514/250 234/496/250 250/513/250
f 252/515/251 234/496/251 251/514/251
f 253/516/252 234/496/252 252/515/252
f 254/517/253 234/496/253 253/516/253
f 255/518/254 234/496/254 254/517/254
f 256/519/255 234/496/255 255/518/255
f 257/520/256 234/496/256 256/519/256
f 258/521/257 234/496/257 257/520/257
f 259/522/258 234/496/258 258/523/258
f 260/524/259 234/496/259 259/522/259
f 261/525/260 234/496/260 260/524/260
f 262/526/261 234/496/261 261/525/261
f 263/527/262 234/496/262 262/526/262
f 264/528/263 234/496/263 263/527/263
f 233/497/264 234/496/264 264/528/264
