# Blender 4.4.1
# www.blender.org
mtllib zako.mtl
o 円柱.006
v -0.083490 1.357445 0.001333
v -0.082085 1.357451 0.015779
v -0.085470 0.971898 0.001681
v -0.082049 1.357425 -0.013111
v -0.077818 1.357391 -0.026995
v -0.084029 0.971877 -0.012762
v -0.079798 0.971843 -0.026647
v -0.072940 0.971796 -0.039439
v -0.063718 0.971738 -0.050648
v -0.070960 1.357344 -0.039788
v -0.061738 1.357286 -0.050996
v -0.050507 1.357221 -0.060190
v -0.037697 1.357149 -0.067017
v -0.052487 0.971672 -0.059842
v -0.039678 0.971600 -0.066668
v -0.025783 0.971525 -0.070864
v -0.011336 0.971450 -0.072269
v -0.023802 1.357073 -0.071213
v -0.009356 1.356998 -0.072617
v 0.005087 1.356925 -0.071177
v 0.018972 1.356858 -0.066946
v 0.003107 0.971377 -0.070828
v 0.016991 0.971310 -0.066597
v 0.029784 0.971250 -0.059739
v 0.040992 0.971201 -0.050517
v 0.031764 1.356798 -0.060088
v 0.042972 1.356749 -0.050865
v 0.052167 1.356712 -0.039634
v 0.058993 1.356688 -0.026824
v 0.050186 0.971164 -0.039285
v 0.057013 0.971140 -0.026476
v 0.061209 0.971131 -0.012580
v 0.062613 0.971137 0.001866
v 0.063189 1.356679 -0.012929
v 0.064593 1.356685 0.001518
v 0.063153 1.356706 0.015961
v 0.058922 1.356740 0.029845
v 0.061173 0.971158 0.016310
v 0.056942 0.971192 0.030194
v 0.050084 0.971239 0.042987
v 0.040862 0.971296 0.054195
v 0.052064 1.356787 0.042638
v 0.042842 1.356844 0.053847
v 0.031611 1.356910 0.063041
v 0.018801 1.356982 0.069867
v 0.029630 0.971362 0.063389
v 0.016821 0.971434 0.070216
v 0.002926 0.971509 0.074412
v -0.011520 0.971585 0.075816
v 0.004906 1.357057 0.074063
v -0.009540 1.357133 0.075468
v -0.023983 1.357206 0.074027
v -0.037868 1.357273 0.069796
v -0.025964 0.971658 0.074376
v -0.039848 0.971725 0.070145
v -0.052640 0.971785 0.063287
v -0.063849 0.971834 0.054064
v -0.050660 1.357333 0.062938
v -0.061869 1.357382 0.053716
v -0.071063 1.357419 0.042484
v -0.077889 1.357442 0.029674
v -0.073043 0.971871 0.042833
v -0.079869 0.971894 0.030023
v -0.084065 0.971903 0.016128
v -0.571672 0.065617 -0.002387
v -0.573259 0.066315 -0.020258
v -0.896325 -0.665139 -0.002125
v -0.573303 0.066348 0.015479
v -0.578088 0.068480 0.032653
v -0.897956 -0.664408 0.015741
v -0.902740 -0.662276 0.032914
v -0.910495 -0.658826 0.048736
v -0.920921 -0.654188 0.062599
v -0.585842 0.071930 0.048475
v -0.596269 0.076568 0.062337
v -0.608967 0.082213 0.073707
v -0.623448 0.088650 0.082147
v -0.933619 -0.648543 0.073968
v -0.948101 -0.642106 0.082408
v -0.963809 -0.635126 0.087594
v -0.980141 -0.627869 0.089327
v -0.639157 0.095630 0.087333
v -0.655488 0.102887 0.089066
v -0.671816 0.110140 0.087279
v -0.687511 0.117111 0.082041
v -0.996468 -0.620616 0.087540
v -1.012164 -0.613645 0.082302
v -1.026624 -0.607224 0.073815
v -1.039294 -0.601599 0.062403
v -0.701972 0.123532 0.073553
v -0.714641 0.129157 0.062142
v -0.725033 0.133769 0.048245
v -0.732749 0.137191 0.032398
v -1.049686 -0.596987 0.048507
v -1.057401 -0.593565 0.032659
v -1.062143 -0.591465 0.015470
v -1.063729 -0.590767 -0.002401
v -0.737490 0.139291 0.015208
v -0.739076 0.139989 -0.002663
v -0.737446 0.139259 -0.020529
v -0.732661 0.137127 -0.037703
v -1.062098 -0.591497 -0.020267
v -1.057314 -0.593629 -0.037441
v -1.049559 -0.597080 -0.053263
v -1.039133 -0.601717 -0.067125
v -0.724907 0.133676 -0.053525
v -0.714480 0.129039 -0.067387
v -0.701782 0.123393 -0.078756
v -0.687300 0.116957 -0.087196
v -1.026434 -0.607363 -0.078495
v -1.011953 -0.613799 -0.086935
v -0.996244 -0.620780 -0.092121
v -0.979913 -0.628036 -0.093854
v -0.671592 0.109976 -0.092382
v -0.655260 0.102720 -0.094115
v -0.638933 0.095467 -0.092328
v -0.623238 0.088496 -0.087091
v -0.963586 -0.635289 -0.092067
v -0.947890 -0.642260 -0.086829
v -0.933430 -0.648682 -0.078341
v -0.920760 -0.654306 -0.066930
v -0.608777 0.082074 -0.078603
v -0.596108 0.076450 -0.067191
v -0.585715 0.071838 -0.053295
v -0.578000 0.068416 -0.037447
v -0.910368 -0.658918 -0.053034
v -0.902653 -0.662340 -0.037186
v -0.897911 -0.664441 -0.019996
v 0.737557 0.179442 0.007529
v 0.735950 0.178762 -0.010341
v 1.039433 -0.561013 0.008579
v 0.735905 0.178794 0.025396
v 0.731058 0.176842 0.042573
v 1.037781 -0.561661 0.026446
v 1.032933 -0.563613 0.043624
v 1.025076 -0.566794 0.059452
v 1.014511 -0.571082 0.073322
v 0.723200 0.173661 0.058401
v 0.712635 0.169374 0.072271
v 0.699769 0.164144 0.083651
v 0.685095 0.158174 0.092102
v 1.001644 -0.576311 0.084701
v 0.986971 -0.582281 0.093152
v 0.971054 -0.588763 0.098350
v 0.954506 -0.595507 0.100096
v 0.669179 0.151692 0.097300
v 0.652630 0.144948 0.099045
v 0.636086 0.138201 0.097271
v 0.620182 0.131710 0.092045
v 0.937962 -0.602254 0.098321
v 0.922058 -0.608746 0.093095
v 0.907405 -0.614731 0.084619
v 0.894567 -0.619982 0.073217
v 0.605530 0.125724 0.083568
v 0.592692 0.120474 0.072166
v 0.582161 0.116161 0.058278
v 0.574344 0.112951 0.042436
v 0.884037 -0.624294 0.059328
v 0.876219 -0.627504 0.043487
v 0.871414 -0.629487 0.026301
v 0.869807 -0.630168 0.008431
v 0.569539 0.110968 0.025250
v 0.567931 0.110287 0.007380
v 0.569583 0.110935 -0.010487
v 0.574431 0.112887 -0.027664
v 0.871459 -0.629520 -0.009436
v 0.876306 -0.627568 -0.026614
v 0.884164 -0.624387 -0.042442
v 0.894729 -0.620100 -0.056312
v 0.582288 0.116068 -0.043492
v 0.592853 0.120356 -0.057362
v 0.605720 0.125585 -0.068741
v 0.620393 0.131555 -0.077192
v 0.907595 -0.614870 -0.067691
v 0.922269 -0.608900 -0.076142
v 0.938185 -0.602418 -0.081340
v 0.954734 -0.595674 -0.083086
v 0.636310 0.138037 -0.082391
v 0.652858 0.144781 -0.084136
v 0.669402 0.151529 -0.082362
v 0.685306 0.158020 -0.077136
v 0.971278 -0.588927 -0.081311
v 0.987182 -0.582435 -0.076085
v 1.001834 -0.576450 -0.067609
v 1.014672 -0.571200 -0.056207
v 0.699959 0.164006 -0.068659
v 0.712797 0.169256 -0.057257
v 0.723327 0.173569 -0.043369
v 0.731145 0.176778 -0.027527
v 1.025203 -0.566887 -0.042318
v 1.033020 -0.563677 -0.026477
v 1.037825 -0.561694 -0.009291
v 0.481756 -0.478420 -0.496292
v 0.555823 -0.275514 -0.569317
v 0.278125 -0.550374 -0.569413
v 0.554060 -0.551541 -0.292785
v 0.590137 -0.588093 0.003944
v 0.296511 -0.706295 -0.312472
v 0.711458 -0.295588 -0.312329
v 0.763815 -0.312554 0.003909
v 0.765941 0.020278 -0.329532
v 0.823203 0.020285 0.003680
v 0.714706 0.336718 -0.312901
v 0.594027 0.020911 -0.606175
v 0.558870 0.317778 -0.569854
v 0.317818 0.022173 -0.778781
v 0.302393 0.338461 -0.726249
v 0.299145 -0.293844 -0.725677
v -0.015246 0.023831 -0.836875
v -0.013607 0.357020 -0.779499
v -0.017029 -0.309252 -0.778896
v -0.348454 0.025594 -0.779614
v -0.329913 0.341708 -0.727040
v -0.333160 -0.290598 -0.726468
v -0.625092 0.027171 -0.607699
v -0.590026 -0.269630 -0.570750
v -0.586979 0.323662 -0.571286
v -0.797695 0.028307 -0.331487
v -0.743254 0.344204 -0.314724
v -0.746501 -0.288102 -0.314152
v -0.855786 0.028907 0.001581
v -0.796398 0.361746 0.001352
v -0.799820 -0.304525 0.001954
v -0.798524 0.028914 0.334793
v -0.744041 0.344780 0.317590
v -0.747289 -0.287526 0.318162
v -0.626610 0.028281 0.611436
v -0.588406 0.324706 0.574578
v -0.591453 -0.268586 0.575115
v -0.350401 0.027019 0.784042
v -0.331728 0.343036 0.730938
v -0.334976 -0.289269 0.731510
v -0.017337 0.025361 0.842136
v -0.015554 0.358444 0.784157
v -0.018976 -0.307828 0.784760
v 0.315871 0.023598 0.784875
v 0.300577 0.339790 0.731729
v 0.297330 -0.292516 0.732301
v 0.592509 0.022021 0.612960
v 0.554396 -0.274470 0.576547
v 0.557443 0.318822 0.576010
v 0.765112 0.020885 0.336748
v 0.713918 0.337294 0.319412
v 0.710671 -0.295012 0.319984
v 0.553321 -0.551001 0.300514
v 0.480511 -0.477509 0.503707
v 0.295724 -0.705719 0.319842
v 0.312829 -0.758933 0.003754
v -0.020722 -0.756919 0.336478
v 0.276698 -0.549330 0.576452
v -0.020181 -0.584408 0.612749
v -0.316593 -0.546284 0.575710
v -0.519475 -0.472374 0.502457
v -0.336582 -0.702473 0.319051
v -0.353443 -0.755512 0.002921
v -0.592528 -0.545117 0.299082
v -0.628981 -0.581834 0.002420
v -0.591789 -0.545657 -0.294217
v -0.518230 -0.473285 -0.497542
v -0.335794 -0.703049 -0.313262
v -0.019892 -0.757526 -0.329802
v -0.315166 -0.547328 -0.570154
v -0.018663 -0.585519 -0.606385
v -0.020603 -0.814899 0.003390
v 0.767237 0.353718 0.003306
v 0.559206 0.594849 0.299478
v 0.596398 0.631026 0.002841
v 0.485647 0.522477 0.502803
v 0.303211 0.752241 0.318523
v 0.320860 0.804704 0.002340
v -0.012691 0.806718 0.335063
v 0.282583 0.596520 0.575415
v -0.013920 0.634711 0.611646
v -0.310708 0.599566 0.574673
v -0.514339 0.527612 0.501553
v -0.329094 0.755487 0.317732
v -0.345412 0.808125 0.001507
v -0.586643 0.600733 0.298046
v -0.622720 0.637285 0.001317
v -0.585904 0.600193 -0.295254
v -0.513094 0.526701 -0.498446
v -0.328307 0.754911 -0.314581
v -0.011861 0.806111 -0.331217
v -0.309281 0.598522 -0.571191
v -0.012402 0.633600 -0.607488
v 0.284010 0.595476 -0.570449
v 0.486892 0.521566 -0.497196
v 0.303999 0.751665 -0.313791
v 0.559945 0.594309 -0.293821
v -0.011980 0.864091 0.001871
v 0.303942 -0.999640 -0.008636
v 0.306981 -0.999697 -0.051350
v 0.449592 -0.563337 -0.008729
v 0.306901 -0.999623 0.034089
v 0.315742 -0.999647 0.075182
v 0.330128 -0.999711 0.113066
v 0.349504 -0.999811 0.146283
v 0.373127 -0.999946 0.173558
v 0.400088 -1.000108 0.193842
v 0.429351 -1.000292 0.206355
v 0.459792 -1.000491 0.210617
v 0.490240 -1.000698 0.206465
v 0.519527 -1.000903 0.194057
v 0.546525 -1.001100 0.173870
v 0.570199 -1.001281 0.146681
v 0.589637 -1.001439 0.113534
v 0.604094 -1.001568 0.075702
v 0.613012 -1.001662 0.034641
v 0.616051 -1.001719 -0.008073
v 0.613092 -1.001736 -0.050798
v 0.604250 -1.001712 -0.091892
v 0.589865 -1.001648 -0.129775
v 0.570488 -1.001548 -0.162992
v 0.546866 -1.001414 -0.190267
v 0.519905 -1.001251 -0.210551
v 0.490642 -1.001067 -0.223064
v 0.460201 -1.000868 -0.227327
v 0.429753 -1.000661 -0.223174
v 0.400466 -1.000456 -0.210766
v 0.373468 -1.000259 -0.190580
v 0.349794 -1.000078 -0.163390
v 0.330356 -0.999920 -0.130243
v 0.315899 -0.999791 -0.092412
v -0.626960 -1.001222 0.005386
v -0.623973 -1.001284 -0.037328
v -0.483753 -0.565271 0.005293
v -0.624051 -1.001210 0.048111
v -0.615358 -1.001251 0.089205
v -0.601215 -1.001341 0.127088
v -0.582165 -1.001477 0.160305
v -0.558940 -1.001655 0.187580
v -0.532432 -1.001867 0.207864
v -0.503662 -1.002105 0.220377
v -0.473733 -1.002361 0.224640
v -0.443797 -1.002623 0.220487
v -0.415003 -1.002883 0.208079
v -0.388459 -1.003130 0.187893
v -0.365184 -1.003355 0.160703
v -0.346073 -1.003548 0.127556
v -0.331860 -1.003704 0.089724
v -0.323091 -1.003815 0.048663
v -0.320103 -1.003877 0.005949
v -0.323012 -1.003888 -0.036776
v -0.331705 -1.003848 -0.077870
v -0.345849 -1.003758 -0.115753
v -0.364899 -1.003622 -0.148970
v -0.388124 -1.003444 -0.176245
v -0.414631 -1.003232 -0.196529
v -0.443402 -1.002993 -0.209042
v -0.473330 -1.002738 -0.213305
v -0.503267 -1.002475 -0.209152
v -0.532060 -1.002216 -0.196744
v -0.558605 -1.001969 -0.176557
v -0.581880 -1.001744 -0.149368
v -0.600991 -1.001550 -0.116221
v -0.615204 -1.001395 -0.078389
v 0.188292 0.990042 0.002006
v 0.184505 0.990026 -0.036943
v 0.187022 0.742821 0.002229
v 0.184408 0.990097 0.040945
v 0.173001 0.990189 0.078379
v 0.183138 0.742876 0.041169
v 0.171732 0.742968 0.078602
v 0.153242 0.743095 0.113091
v 0.128379 0.743250 0.143310
v 0.154512 0.990315 0.112868
v 0.129649 0.990470 0.143087
v 0.099368 0.990648 0.167874
v 0.064833 0.990842 0.186278
v 0.098098 0.743428 0.168098
v 0.063564 0.743622 0.186502
v 0.026102 0.743824 0.197815
v -0.012846 0.744028 0.201602
v 0.027372 0.991045 0.197591
v -0.011576 0.991249 0.201378
v -0.050516 0.991445 0.197494
v -0.087949 0.991627 0.186087
v -0.051785 0.744224 0.197718
v -0.089218 0.744406 0.186311
v -0.123707 0.744567 0.167821
v -0.153926 0.744699 0.142957
v -0.122437 0.991787 0.167597
v -0.152656 0.991920 0.142734
v -0.177444 0.992020 0.112453
v -0.195847 0.992083 0.077918
v -0.178713 0.744799 0.112676
v -0.197117 0.744862 0.078141
v -0.208430 0.744887 0.040679
v -0.212217 0.744871 0.001730
v -0.207160 0.992107 0.040456
v -0.210947 0.992092 0.001507
v -0.207063 0.992036 -0.037433
v -0.195657 0.991944 -0.074866
v -0.208333 0.744816 -0.037209
v -0.196927 0.744723 -0.074643
v -0.178437 0.744597 -0.109132
v -0.153574 0.744442 -0.139351
v -0.177167 0.991818 -0.109355
v -0.152304 0.991663 -0.139574
v -0.122024 0.991485 -0.164362
v -0.087489 0.991291 -0.182766
v -0.123294 0.744264 -0.164139
v -0.088759 0.744070 -0.182542
v -0.051298 0.743867 -0.193855
v -0.012349 0.743664 -0.197642
v -0.050028 0.991088 -0.194079
v -0.011079 0.990885 -0.197866
v 0.027860 0.990688 -0.193981
v 0.065293 0.990506 -0.182575
v 0.026590 0.743468 -0.193758
v 0.064023 0.743286 -0.182351
v 0.098512 0.743125 -0.163861
v 0.128731 0.742993 -0.138998
v 0.099782 0.990346 -0.164085
v 0.130000 0.990213 -0.139222
v 0.154788 0.990113 -0.108940
v 0.173192 0.990050 -0.074405
v 0.153518 0.742893 -0.108717
v 0.171922 0.742829 -0.074182
v 0.183235 0.742805 -0.036720
vn -0.7244 0.6894 -0.0015
vn -0.7105 0.6895 0.1405
vn -0.7314 -0.6819 -0.0003
vn -0.7102 0.6892 -0.1435
vn -0.6686 0.6889 -0.2800
vn -0.7173 -0.6821 -0.1423
vn -0.6757 -0.6825 -0.2788
vn -0.6083 -0.6829 -0.4045
vn -0.5176 -0.6835 -0.5147
vn -0.6012 0.6884 -0.4058
vn -0.5105 0.6879 -0.5160
vn -0.4001 0.6872 -0.6064
vn -0.2742 0.6865 -0.6734
vn -0.4072 -0.6842 -0.6051
vn -0.2812 -0.6849 -0.6722
vn -0.1446 -0.6856 -0.7134
vn -0.0026 -0.6863 -0.7273
vn -0.1376 0.6858 -0.7147
vn 0.0044 0.6851 -0.7285
vn 0.1464 0.6843 -0.7144
vn 0.2829 0.6837 -0.6727
vn 0.1394 -0.6870 -0.7131
vn 0.2759 -0.6877 -0.6715
vn 0.4016 -0.6883 -0.6041
vn 0.5118 -0.6888 -0.5134
vn 0.4087 0.6830 -0.6053
vn 0.5188 0.6826 -0.5147
vn 0.6093 0.6822 -0.4043
vn 0.6763 0.6820 -0.2784
vn 0.6022 -0.6892 -0.4030
vn 0.6693 -0.6894 -0.2771
vn 0.7105 -0.6895 -0.1405
vn 0.7243 -0.6894 0.0015
vn 0.7176 0.6819 -0.1417
vn 0.7314 0.6819 0.0003
vn 0.7173 0.6821 0.1423
vn 0.6756 0.6825 0.2788
vn 0.7102 -0.6892 0.1435
vn 0.6686 -0.6889 0.2800
vn 0.6012 -0.6885 0.4058
vn 0.5105 -0.6879 0.5160
vn 0.6083 0.6829 0.4045
vn 0.5176 0.6835 0.5147
vn 0.4072 0.6842 0.6051
vn 0.2812 0.6849 0.6722
vn 0.4001 -0.6872 0.6063
vn 0.2742 -0.6865 0.6735
vn 0.1376 -0.6858 0.7147
vn -0.0044 -0.6850 0.7285
vn 0.1446 0.6856 0.7135
vn 0.0026 0.6863 0.7273
vn -0.1394 0.6871 0.7131
vn -0.2759 0.6878 0.6715
vn -0.1464 -0.6843 0.7143
vn -0.2829 -0.6836 0.6728
vn -0.4087 -0.6831 0.6053
vn -0.5189 -0.6826 0.5147
vn -0.4016 0.6883 0.6041
vn -0.5118 0.6888 0.5134
vn -0.6022 0.6891 0.4030
vn -0.6693 0.6894 0.2771
vn -0.6093 -0.6822 0.4043
vn -0.6764 -0.6819 0.2783
vn -0.7176 -0.6819 0.1417
vn 0.9436 0.3311 0.0009
vn 0.9310 0.3367 -0.1412
vn 0.3868 -0.9222 0.0013
vn 0.9306 0.3369 0.1429
vn 0.8926 0.3539 0.2793
vn 0.3738 -0.9164 0.1433
vn 0.3358 -0.8994 0.2798
vn 0.2742 -0.8720 0.4055
vn 0.1913 -0.8351 0.5157
vn 0.8310 0.3813 0.4051
vn 0.7481 0.4181 0.5152
vn 0.6472 0.4630 0.6056
vn 0.5321 0.5142 0.6727
vn 0.0904 -0.7903 0.6061
vn -0.0247 -0.7391 0.6731
vn -0.1495 -0.6836 0.7143
vn -0.2793 -0.6260 0.7281
vn 0.4073 0.5696 0.7139
vn 0.2775 0.6273 0.7277
vn 0.1477 0.6849 0.7135
vn 0.0230 0.7403 0.6718
vn -0.4091 -0.5683 0.7139
vn -0.5338 -0.5129 0.6723
vn -0.6487 -0.4619 0.6048
vn -0.7494 -0.4172 0.5141
vn -0.0919 0.7914 0.6044
vn -0.1926 0.8361 0.5137
vn -0.2752 0.8727 0.4033
vn -0.3365 0.8999 0.2773
vn -0.8320 -0.3805 0.4037
vn -0.8933 -0.3533 0.2778
vn -0.9310 -0.3366 0.1412
vn -0.9436 -0.3311 -0.0009
vn -0.3742 0.9166 0.1407
vn -0.3868 0.9222 -0.0013
vn -0.3738 0.9164 -0.1433
vn -0.3358 0.8994 -0.2798
vn -0.9306 -0.3369 -0.1429
vn -0.8926 -0.3538 -0.2793
vn -0.8310 -0.3813 -0.4051
vn -0.7481 -0.4181 -0.5152
vn -0.2742 0.8720 -0.4055
vn -0.1913 0.8351 -0.5157
vn -0.0904 0.7903 -0.6061
vn 0.0247 0.7391 -0.6731
vn -0.6472 -0.4630 -0.6056
vn -0.5321 -0.5141 -0.6727
vn -0.4073 -0.5696 -0.7139
vn -0.2775 -0.6273 -0.7277
vn 0.1495 0.6837 -0.7143
vn 0.2793 0.6260 -0.7281
vn 0.4091 0.5683 -0.7139
vn 0.5338 0.5129 -0.6723
vn -0.1477 -0.6849 -0.7135
vn -0.0230 -0.7403 -0.6719
vn 0.0919 -0.7914 -0.6044
vn 0.1926 -0.8361 -0.5137
vn 0.6487 0.4619 -0.6048
vn 0.7494 0.4172 -0.5141
vn 0.8320 0.3805 -0.4037
vn 0.8933 0.3534 -0.2778
vn 0.2752 -0.8727 -0.4033
vn 0.3365 -0.8999 -0.2773
vn 0.3742 -0.9166 -0.1407
vn 0.4152 0.9097 -0.0003
vn 0.4024 0.9043 -0.1423
vn 0.9329 -0.3602 0.0015
vn 0.4021 0.9046 0.1417
vn 0.3635 0.8891 0.2782
vn 0.9198 -0.3653 0.1435
vn 0.8812 -0.3808 0.2800
vn 0.8188 -0.4061 0.4058
vn 0.7348 -0.4402 0.5160
vn 0.3011 0.8638 0.4040
vn 0.2171 0.8297 0.5142
vn 0.1149 0.7882 0.6047
vn -0.0018 0.7407 0.6718
vn 0.6326 -0.4817 0.6064
vn 0.5160 -0.5292 0.6736
vn 0.3895 -0.5807 0.7149
vn 0.2580 -0.6343 0.7288
vn -0.1283 0.6892 0.7131
vn -0.2598 0.6356 0.7270
vn -0.3912 0.5820 0.7129
vn -0.5176 0.5304 0.6713
vn 0.1265 -0.6879 0.7147
vn 0.0001 -0.7395 0.6732
vn -0.1163 -0.7871 0.6058
vn -0.2184 -0.8288 0.5152
vn -0.6341 0.4828 0.6040
vn -0.7361 0.4411 0.5134
vn -0.8198 0.4068 0.4030
vn -0.8819 0.3813 0.2771
vn -0.3021 -0.8631 0.4048
vn -0.3642 -0.8886 0.2789
vn -0.4024 -0.9043 0.1423
vn -0.4152 -0.9097 0.0003
vn -0.9201 0.3656 0.1405
vn -0.9329 0.3602 -0.0015
vn -0.9198 0.3653 -0.1435
vn -0.8812 0.3808 -0.2800
vn -0.4020 -0.9046 -0.1417
vn -0.3635 -0.8891 -0.2782
vn -0.3011 -0.8638 -0.4040
vn -0.2171 -0.8297 -0.5142
vn -0.8188 0.4061 -0.4058
vn -0.7348 0.4402 -0.5160
vn -0.6326 0.4817 -0.6065
vn -0.5160 0.5292 -0.6736
vn -0.1149 -0.7882 -0.6047
vn 0.0017 -0.7407 -0.6718
vn 0.1283 -0.6892 -0.7131
vn 0.2598 -0.6356 -0.7270
vn -0.3895 0.5807 -0.7149
vn -0.2580 0.6343 -0.7288
vn -0.1265 0.6879 -0.7147
vn -0.0001 0.7395 -0.6732
vn 0.3912 -0.5820 -0.7129
vn 0.5176 -0.5304 -0.6714
vn 0.6341 -0.4829 -0.6040
vn 0.7361 -0.4411 -0.5134
vn 0.1164 0.7871 -0.6058
vn 0.2184 0.8288 -0.5152
vn 0.3021 0.8631 -0.4048
vn 0.3642 0.8886 -0.2789
vn 0.8198 -0.4068 -0.4030
vn 0.8819 -0.3813 -0.2771
vn 0.9201 -0.3656 -0.1405
vn 0.5751 -0.5808 -0.5761
vn 0.6730 -0.3079 -0.6726
vn 0.3012 -0.6758 -0.6727
vn 0.6706 -0.6774 -0.3024
vn 0.7035 -0.7107 0.0015
vn 0.3321 -0.8818 -0.3350
vn 0.8784 -0.3410 -0.3348
vn 0.9329 -0.3601 0.0015
vn 0.9352 -0.0051 -0.3541
vn 1.0000 -0.0051 0.0013
vn 0.8819 0.3314 -0.3354
vn 0.7080 -0.0043 -0.7062
vn 0.6761 0.2997 -0.6731
vn 0.3565 -0.0027 -0.9343
vn 0.3390 0.3337 -0.8796
vn 0.3356 -0.3387 -0.8790
vn 0.0012 -0.0009 -1.0000
vn 0.0030 0.3544 -0.9351
vn -0.0007 -0.3562 -0.9344
vn -0.3541 0.0010 -0.9352
vn -0.3334 0.3371 -0.8805
vn -0.3368 -0.3353 -0.8799
vn -0.7062 0.0030 -0.7080
vn -0.6744 -0.3010 -0.6742
vn -0.6713 0.3067 -0.6748
vn -0.9343 0.0045 -0.3565
vn -0.8776 0.3404 -0.3376
vn -0.8810 -0.3320 -0.3370
vn -1.0000 0.0051 -0.0013
vn -0.9329 0.3601 -0.0015
vn -0.9366 -0.3505 -0.0008
vn -0.9352 0.0051 0.3541
vn -0.8784 0.3410 0.3348
vn -0.8819 -0.3314 0.3354
vn -0.7080 0.0043 0.7062
vn -0.6730 0.3079 0.6726
vn -0.6761 -0.2997 0.6731
vn -0.3565 0.0027 0.9343
vn -0.3356 0.3387 0.8790
vn -0.3390 -0.3337 0.8796
vn -0.0012 0.0009 1.0000
vn 0.0007 0.3562 0.9344
vn -0.0030 -0.3544 0.9351
vn 0.3541 -0.0010 0.9352
vn 0.3368 0.3353 0.8799
vn 0.3334 -0.3371 0.8805
vn 0.7062 -0.0030 0.7080
vn 0.6713 -0.3067 0.6748
vn 0.6744 0.3010 0.6742
vn 0.9343 -0.0045 0.3565
vn 0.8810 0.3320 0.3370
vn 0.8776 -0.3404 0.3376
vn 0.6698 -0.6769 0.3053
vn 0.5737 -0.5798 0.5786
vn 0.3313 -0.8812 0.3374
vn 0.3505 -0.9366 0.0013
vn -0.0052 -0.9344 0.3561
vn 0.2995 -0.6746 0.6747
vn -0.0045 -0.7065 0.7077
vn -0.3081 -0.6715 0.6739
vn -0.5810 -0.5739 0.5771
vn -0.3411 -0.8777 0.3366
vn -0.3601 -0.9329 0.0004
vn -0.6775 -0.6699 0.3036
vn -0.7107 -0.7035 -0.0002
vn -0.6768 -0.6705 -0.3041
vn -0.5796 -0.5749 -0.5775
vn -0.3403 -0.8783 -0.3358
vn -0.0044 -0.9351 -0.3545
vn -0.3064 -0.6727 -0.6735
vn -0.0028 -0.7077 -0.7065
vn -0.0051 -1.0000 0.0009
vn 0.9366 0.3505 0.0008
vn 0.6768 0.6705 0.3041
vn 0.7107 0.7035 0.0002
vn 0.5796 0.5749 0.5775
vn 0.3403 0.8783 0.3358
vn 0.3601 0.9329 -0.0004
vn 0.0044 0.9351 0.3545
vn 0.3064 0.6727 0.6735
vn 0.0028 0.7077 0.7065
vn -0.3012 0.6758 0.6727
vn -0.5751 0.5808 0.5761
vn -0.3321 0.8818 0.3350
vn -0.3505 0.9366 -0.0013
vn -0.6706 0.6774 0.3024
vn -0.7035 0.7107 -0.0015
vn -0.6698 0.6769 -0.3053
vn -0.5737 0.5798 -0.5786
vn -0.3313 0.8812 -0.3374
vn 0.0052 0.9344 -0.3561
vn -0.2995 0.6746 -0.6747
vn 0.0045 0.7065 -0.7077
vn 0.3081 0.6715 -0.6739
vn 0.5810 0.5739 -0.5772
vn 0.3411 0.8777 -0.3366
vn 0.6775 0.6699 -0.3036
vn 0.0051 1.0000 -0.0009
vn -0.8250 -0.5652 -0.0003
vn -0.8176 -0.5636 -0.1181
vn -0.0204 0.9998 -0.0009
vn -0.8178 -0.5634 0.1174
vn -0.7947 -0.5583 0.2381
vn -0.7519 -0.5499 0.3637
vn -0.6823 -0.5384 0.4946
vn -0.5767 -0.5246 0.6263
vn -0.4262 -0.5104 0.7469
vn -0.2299 -0.4991 0.8355
vn -0.0029 -0.4940 0.8694
vn 0.2247 -0.4967 0.8383
vn 0.4227 -0.5058 0.7520
vn 0.5756 -0.5179 0.6328
vn 0.6838 -0.5301 0.5014
vn 0.7557 -0.5404 0.3699
vn 0.8004 -0.5479 0.2430
vn 0.8247 -0.5525 0.1208
vn 0.8324 -0.5542 0.0013
vn 0.8249 -0.5528 -0.1182
vn 0.8009 -0.5484 -0.2404
vn 0.7565 -0.5411 -0.3673
vn 0.6850 -0.5311 -0.4987
vn 0.5773 -0.5192 -0.6302
vn 0.4250 -0.5072 -0.7497
vn 0.2276 -0.4983 -0.8366
vn 0.0002 -0.4955 -0.8686
vn -0.2270 -0.5004 -0.8355
vn -0.4239 -0.5115 -0.7475
vn -0.5750 -0.5254 -0.6271
vn -0.6811 -0.5391 -0.4954
vn -0.7511 -0.5504 -0.3645
vn -0.7943 -0.5587 -0.2387
vn -0.8240 -0.5666 -0.0003
vn -0.8170 -0.5649 -0.1159
vn -0.0199 0.9998 -0.0009
vn -0.8171 -0.5648 0.1153
vn -0.7950 -0.5596 0.2340
vn -0.7537 -0.5510 0.3583
vn -0.6859 -0.5392 0.4886
vn -0.5819 -0.5249 0.6211
vn -0.4319 -0.5102 0.7437
vn -0.2341 -0.4985 0.8347
vn -0.0037 -0.4935 0.8697
vn 0.2272 -0.4968 0.8376
vn 0.4268 -0.5067 0.7491
vn 0.5793 -0.5198 0.6279
vn 0.6860 -0.5326 0.4957
vn 0.7561 -0.5434 0.3647
vn 0.7994 -0.5512 0.2391
vn 0.8227 -0.5560 0.1187
vn 0.8301 -0.5576 0.0013
vn 0.8229 -0.5562 -0.1162
vn 0.7998 -0.5517 -0.2366
vn 0.7569 -0.5441 -0.3621
vn 0.6871 -0.5336 -0.4930
vn 0.5810 -0.5210 -0.6253
vn 0.4291 -0.5082 -0.7468
vn 0.2301 -0.4983 -0.8359
vn -0.0007 -0.4950 -0.8689
vn -0.2312 -0.4999 -0.8347
vn -0.4296 -0.5113 -0.7443
vn -0.5803 -0.5258 -0.6219
vn -0.6848 -0.5399 -0.4894
vn -0.7529 -0.5515 -0.3590
vn -0.7946 -0.5600 -0.2347
vn 0.7314 0.6820 0.0003
vn 0.7244 -0.6894 0.0015
vn 0.7172 0.6821 0.1423
vn 0.6012 -0.6884 0.4058
vn 0.5105 -0.6879 0.5159
vn 0.6082 0.6829 0.4045
vn 0.4001 -0.6872 0.6064
vn 0.0026 0.6864 0.7272
vn -0.1394 0.6870 0.7131
vn -0.2759 0.6877 0.6715
vn -0.5188 -0.6826 0.5147
vn -0.6022 0.6892 0.4030
vn -0.6092 -0.6822 0.4043
vn -0.6763 -0.6820 0.2783
vn -0.7243 0.6894 -0.0015
vn -0.7172 -0.6822 -0.1423
vn -0.6082 -0.6830 -0.4045
vn -0.4001 0.6872 -0.6063
vn -0.4071 -0.6842 -0.6051
vn 0.0044 0.6850 -0.7285
vn 0.2829 0.6836 -0.6728
vn 0.1394 -0.6871 -0.7131
vn 0.4087 0.6831 -0.6053
vn 0.5189 0.6826 -0.5147
vn 0.6092 0.6822 -0.4043
vn 0.6763 0.6820 -0.2783
vt 0.283328 0.085172
vt 0.221360 0.082839
vt 0.283328 0.082839
vt 0.191922 0.184640
vt 0.175817 0.179755
vt 0.180702 0.163650
vt 0.221360 0.012852
vt 0.283328 0.010519
vt 0.283328 0.012852
vt 0.283328 0.015185
vt 0.034580 0.426781
vt 0.031936 0.418065
vt 0.055623 0.420398
vt 0.221360 0.017518
vt 0.283328 0.017518
vt 0.283328 0.019851
vt 0.221360 0.022184
vt 0.283328 0.022184
vt 0.221360 0.024517
vt 0.283328 0.024517
vt 0.283328 0.026849
vt 0.283327 0.029182
vt 0.221360 0.026849
vt 0.221360 0.031515
vt 0.283328 0.031515
vt 0.221360 0.033848
vt 0.283328 0.033848
vt 0.283328 0.036181
vt 0.221360 0.038514
vt 0.283328 0.038514
vt 0.283328 0.040847
vt 0.221360 0.043180
vt 0.283328 0.043180
vt 0.283328 0.045513
vt 0.283328 0.047846
vt 0.221360 0.045513
vt 0.221360 0.050178
vt 0.283328 0.050178
vt 0.221360 0.052511
vt 0.283328 0.052511
vt 0.283328 0.054844
vt 0.221360 0.057177
vt 0.283328 0.057177
vt 0.283328 0.059510
vt 0.283328 0.061843
vt 0.221360 0.059510
vt 0.221360 0.064176
vt 0.283328 0.064176
vt 0.283327 0.066509
vt 0.221360 0.068842
vt 0.283328 0.068842
vt 0.221360 0.071175
vt 0.283328 0.071175
vt 0.283328 0.073508
vt 0.221360 0.075840
vt 0.283328 0.075840
vt 0.221360 0.078173
vt 0.283328 0.078173
vt 0.221360 0.080506
vt 0.283328 0.080506
vt 0.094113 0.380218
vt 0.110205 0.367011
vt 0.123413 0.383104
vt 0.195860 0.010536
vt 0.198746 0.139056
vt 0.195860 0.139056
vt 0.192974 0.010536
vt 0.192974 0.139056
vt 0.190089 0.010536
vt 0.190089 0.139056
vt 0.172288 0.386228
vt 0.170247 0.406946
vt 0.149529 0.404905
vt 0.187203 0.139056
vt 0.184317 0.139056
vt 0.187203 0.010536
vt 0.181431 0.010536
vt 0.181431 0.139056
vt 0.178545 0.010536
vt 0.178545 0.139056
vt 0.175660 0.010536
vt 0.175660 0.139056
vt 0.172774 0.010536
vt 0.172774 0.139056
vt 0.169888 0.010536
vt 0.169888 0.139056
vt 0.167002 0.139056
vt 0.164116 0.010536
vt 0.164116 0.139056
vt 0.161231 0.139056
vt 0.158345 0.010536
vt 0.158345 0.139056
vt 0.155459 0.010536
vt 0.155459 0.139056
vt 0.152573 0.010536
vt 0.152573 0.139056
vt 0.149687 0.139056
vt 0.146802 0.010536
vt 0.146802 0.139056
vt 0.143916 0.139056
vt 0.141030 0.139056
vt 0.143916 0.010536
vt 0.138144 0.139056
vt 0.141030 0.010536
vt 0.135258 0.010536
vt 0.135258 0.139056
vt 0.132373 0.139056
vt 0.129487 0.010536
vt 0.129487 0.139056
vt 0.126601 0.139056
vt 0.123715 0.010536
vt 0.123715 0.139056
vt 0.120829 0.139056
vt 0.117944 0.139056
vt 0.120829 0.010536
vt 0.115058 0.139056
vt 0.117944 0.010536
vt 0.112172 0.010536
vt 0.112172 0.139056
vt 0.109286 0.010536
vt 0.109286 0.139056
vt 0.201632 0.010536
vt 0.201632 0.139056
vt 0.424328 0.097686
vt 0.422287 0.118404
vt 0.401569 0.116363
vt 0.030409 0.170451
vt 0.033295 0.298971
vt 0.030409 0.298971
vt 0.027523 0.170451
vt 0.027523 0.298971
vt 0.024637 0.298971
vt 0.127235 0.165173
vt 0.147954 0.167214
vt 0.145912 0.187932
vt 0.021752 0.170451
vt 0.021752 0.298971
vt 0.018866 0.170451
vt 0.018866 0.298971
vt 0.015980 0.298971
vt 0.013094 0.298971
vt 0.015980 0.170451
vt 0.010208 0.170451
vt 0.010208 0.298971
vt 0.099668 0.170451
vt 0.102554 0.298971
vt 0.099668 0.298971
vt 0.096782 0.170451
vt 0.096782 0.298971
vt 0.093897 0.170451
vt 0.093897 0.298971
vt 0.091011 0.298971
vt 0.088125 0.170451
vt 0.088125 0.298971
vt 0.085239 0.170451
vt 0.085239 0.298971
vt 0.082353 0.170451
vt 0.082353 0.298971
vt 0.079468 0.298971
vt 0.076582 0.170451
vt 0.076582 0.298971
vt 0.073696 0.298971
vt 0.070810 0.170451
vt 0.070810 0.298971
vt 0.067924 0.170451
vt 0.067924 0.298971
vt 0.065039 0.170451
vt 0.065039 0.298971
vt 0.062153 0.298971
vt 0.059267 0.298971
vt 0.062153 0.170451
vt 0.056381 0.170451
vt 0.056381 0.298971
vt 0.053495 0.170451
vt 0.053496 0.298971
vt 0.050610 0.170451
vt 0.050610 0.298971
vt 0.047724 0.170451
vt 0.047724 0.298971
vt 0.044838 0.298971
vt 0.041952 0.170451
vt 0.041952 0.298971
vt 0.039066 0.298971
vt 0.036181 0.298971
vt 0.039066 0.170451
vt 0.036181 0.170451
vt 0.873163 0.322003
vt 0.854335 0.374407
vt 0.837218 0.329140
vt 0.636028 0.064559
vt 0.627269 0.009568
vt 0.661262 0.023262
vt 0.928271 0.314009
vt 0.896348 0.350384
vt 0.887329 0.288204
vt 0.954742 0.269726
vt 0.601623 0.103003
vt 0.599213 0.033145
vt 0.637327 0.166620
vt 0.658356 0.095644
vt 0.684702 0.140001
vt 0.700538 0.071919
vt 0.728544 0.111395
vt 0.644562 0.189233
vt 0.702884 0.234821
vt 0.651956 0.243069
vt 0.698590 0.183409
vt 0.751004 0.229655
vt 0.805661 0.391511
vt 0.790404 0.341434
vt 0.744689 0.357331
vt 0.755720 0.404453
vt 0.684502 0.509607
vt 0.692840 0.583161
vt 0.650829 0.548694
vt 0.766120 0.572686
vt 0.726070 0.540164
vt 0.509099 0.661924
vt 0.461578 0.605166
vt 0.513106 0.607731
vt 0.450983 0.707774
vt 0.455046 0.656343
vt 0.292503 0.611484
vt 0.309791 0.543756
vt 0.336313 0.584238
vt 0.225572 0.591331
vt 0.266755 0.565904
vt 0.133526 0.314977
vt 0.193754 0.350454
vt 0.142805 0.362481
vt 0.212968 0.460293
vt 0.215616 0.390443
vt 0.249890 0.429004
vt 0.257088 0.355330
vt 0.290980 0.397807
vt 0.179795 0.300787
vt 0.245699 0.334497
vt 0.330522 0.364669
vt 0.277477 0.267640
vt 0.296628 0.315546
vt 0.300533 0.322689
vt 0.369227 0.335615
vt 0.322828 0.250742
vt 0.344375 0.294082
vt 0.390308 0.268971
vt 0.413126 0.315242
vt 0.439609 0.246117
vt 0.461019 0.296062
vt 0.369743 0.221656
vt 0.507935 0.274601
vt 0.470069 0.178649
vt 0.490156 0.226169
vt 0.552960 0.256855
vt 0.523485 0.164727
vt 0.540016 0.210217
vt 0.588485 0.190437
vt 0.590965 0.198191
vt 0.600691 0.248857
vt 0.566994 0.143535
vt 0.531725 0.102439
vt 0.564101 0.138412
vt 0.508898 0.131108
vt 0.953996 0.172838
vt 0.977388 0.223371
vt 0.933414 0.203160
vt 0.908716 0.244785
vt 0.944907 0.659995
vt 0.877031 0.689534
vt 0.897665 0.639263
vt 0.990202 0.677041
vt 0.927881 0.708696
vt 0.421141 0.195011
vt 0.453641 0.133127
vt 0.476521 0.176413
vt 0.437948 0.918713
vt 0.372049 0.942022
vt 0.390936 0.897463
vt 0.348101 0.178368
vt 0.415330 0.197502
vt 0.052316 0.619918
vt 0.031847 0.568132
vt 0.068000 0.574133
vt 0.308538 0.216996
vt 0.363674 0.224786
vt 0.459133 0.868672
vt 0.408497 0.848952
vt 0.101504 0.635480
vt 0.115177 0.584947
vt 0.224245 0.264771
vt 0.272034 0.213760
vt 0.275762 0.262012
vt 0.161370 0.599397
vt 0.151829 0.646843
vt 0.175312 0.214857
vt 0.172678 0.263181
vt 0.195617 0.612443
vt 0.200185 0.648805
vt 0.138890 0.218919
vt 0.125369 0.252980
vt 0.428370 0.801342
vt 0.477371 0.817484
vt 0.444593 0.755746
vt 0.491639 0.767116
vt 0.501948 0.715792
vt 0.246553 0.634942
vt 0.805271 0.601136
vt 0.827382 0.667446
vt 0.781065 0.643049
vt 0.736785 0.615125
vt 0.849480 0.620827
vt 0.595826 0.302792
vt 0.652416 0.261761
vt 0.643079 0.313271
vt 0.560596 0.292698
vt 0.601309 0.254708
vt 0.594589 0.306392
vt 0.614002 0.373542
vt 0.569355 0.347689
vt 0.532540 0.316275
vt 0.554937 0.358608
vt 0.543465 0.431739
vt 0.512102 0.387363
vt 0.527022 0.319074
vt 0.484783 0.342707
vt 0.432174 0.359732
vt 0.478415 0.345436
vt 0.491919 0.396014
vt 0.389920 0.365861
vt 0.426342 0.361799
vt 0.423708 0.410123
vt 0.502432 0.449328
vt 0.441558 0.407210
vt 0.411646 0.460285
vt 0.376399 0.399923
vt 0.334333 0.369151
vt 0.372939 0.398336
vt 0.304201 0.411029
vt 0.347945 0.439785
vt 0.319805 0.479164
vt 0.349840 0.492933
vt 0.361308 0.445911
vt 0.296725 0.507631
vt 0.277704 0.455295
vt 0.395401 0.509252
vt 0.343336 0.528999
vt 0.458561 0.508952
vt 0.448835 0.458285
vt 0.509826 0.503163
vt 0.465125 0.556901
vt 0.372120 0.551680
vt 0.513502 0.555383
vt 0.647100 0.478894
vt 0.577357 0.474215
vt 0.616899 0.441078
vt 0.612643 0.512885
vt 0.710870 0.371449
vt 0.660667 0.395542
vt 0.680265 0.351291
vt 0.707449 0.407937
vt 0.586910 0.399097
vt 0.638301 0.327174
vt 0.702747 0.273095
vt 0.727535 0.322957
vt 0.691003 0.320044
vt 0.252357 0.846345
vt 0.210279 0.907131
vt 0.246615 0.842550
vt 0.268312 0.122424
vt 0.270199 0.128658
vt 0.223969 0.125373
vt 0.257929 0.850387
vt 0.263215 0.854594
vt 0.268107 0.858893
vt 0.272515 0.863227
vt 0.276369 0.867560
vt 0.279630 0.871892
vt 0.282286 0.876264
vt 0.135637 0.882417
vt 0.134506 0.887226
vt 0.137347 0.877783
vt 0.139672 0.873230
vt 0.142628 0.868689
vt 0.146206 0.864132
vt 0.150371 0.859571
vt 0.155056 0.855052
vt 0.160172 0.850643
vt 0.165611 0.846426
vt 0.171258 0.842490
vt 0.176993 0.838919
vt 0.182706 0.835791
vt 0.188304 0.833171
vt 0.193725 0.831109
vt 0.198944 0.829637
vt 0.203985 0.828771
vt 0.208919 0.828514
vt 0.213846 0.828863
vt 0.218870 0.829808
vt 0.224069 0.831334
vt 0.229476 0.833415
vt 0.235079 0.836015
vt 0.240821 0.839081
vt 0.049473 0.133723
vt 0.010418 0.071161
vt 0.055235 0.129959
vt 0.350056 0.099775
vt 0.351910 0.106004
vt 0.306454 0.102826
vt 0.043558 0.137243
vt 0.037614 0.140442
vt 0.031752 0.143249
vt 0.026064 0.145602
vt 0.020611 0.147449
vt 0.015407 0.148753
vt 0.010418 0.149486
vt 0.063264 0.012954
vt 0.059384 0.010029
vt 0.066749 0.016338
vt 0.069917 0.020257
vt 0.072829 0.024757
vt 0.075515 0.029844
vt 0.077980 0.035478
vt 0.080208 0.041580
vt 0.082173 0.048036
vt 0.083840 0.054713
vt 0.085177 0.061464
vt 0.086152 0.068145
vt 0.086737 0.074618
vt 0.086910 0.080770
vt 0.086650 0.086522
vt 0.085936 0.091839
vt 0.084743 0.096738
vt 0.083036 0.101287
vt 0.080777 0.105588
vt 0.077930 0.109746
vt 0.074476 0.113845
vt 0.070424 0.117929
vt 0.065815 0.122000
vt 0.060720 0.126028
vt 0.282453 0.945733
vt 0.261017 0.911690
vt 0.266797 0.909212
vt 0.071109 0.369076
vt 0.027689 0.382248
vt 0.014517 0.338828
vt 0.272578 0.906734
vt 0.278359 0.904256
vt 0.288234 0.943255
vt 0.406564 0.063167
vt 0.361409 0.067615
vt 0.356962 0.022459
vt 0.299795 0.938299
vt 0.284140 0.901778
vt 0.289921 0.899300
vt 0.295702 0.896822
vt 0.305576 0.935821
vt 0.317138 0.930865
vt 0.301483 0.894344
vt 0.322919 0.928387
vt 0.307264 0.891866
vt 0.328700 0.925909
vt 0.313044 0.889388
vt 0.318825 0.886910
vt 0.324606 0.884432
vt 0.334481 0.923431
vt 0.346042 0.918475
vt 0.330387 0.881954
vt 0.351823 0.915997
vt 0.336168 0.879476
vt 0.341949 0.876998
vt 0.363385 0.911041
vt 0.347730 0.874519
vt 0.168523 0.951339
vt 0.178397 0.990338
vt 0.162742 0.953817
vt 0.189959 0.985382
vt 0.174303 0.948861
vt 0.180084 0.946383
vt 0.201521 0.980426
vt 0.185865 0.943905
vt 0.191646 0.941427
vt 0.197427 0.938949
vt 0.207301 0.977948
vt 0.218863 0.972992
vt 0.203208 0.936471
vt 0.208989 0.933993
vt 0.214770 0.931515
vt 0.224644 0.970514
vt 0.236206 0.965558
vt 0.220550 0.929037
vt 0.226331 0.926559
vt 0.247767 0.960602
vt 0.232112 0.924081
vt 0.237893 0.921603
vt 0.259329 0.955646
vt 0.243674 0.919125
vt 0.265110 0.953168
vt 0.249455 0.916646
vt 0.255236 0.914168
vt 0.276672 0.948211
vt 0.221360 0.085172
vt 0.182858 0.162757
vt 0.185146 0.162302
vt 0.187479 0.162302
vt 0.189767 0.162757
vt 0.191922 0.163649
vt 0.193862 0.164946
vt 0.195511 0.166595
vt 0.196808 0.168535
vt 0.197700 0.170690
vt 0.198155 0.172978
vt 0.198155 0.175311
vt 0.197700 0.177599
vt 0.196808 0.179755
vt 0.195512 0.181694
vt 0.193862 0.183344
vt 0.189767 0.185533
vt 0.182858 0.185533
vt 0.187479 0.185988
vt 0.185146 0.185988
vt 0.180702 0.184640
vt 0.178763 0.183344
vt 0.177113 0.181695
vt 0.174924 0.177600
vt 0.174469 0.175311
vt 0.174469 0.172979
vt 0.174924 0.170690
vt 0.175817 0.168535
vt 0.177113 0.166595
vt 0.178763 0.164946
vt 0.221360 0.010519
vt 0.221360 0.015185
vt 0.032391 0.415777
vt 0.033284 0.413622
vt 0.034580 0.411682
vt 0.036230 0.410033
vt 0.038170 0.408736
vt 0.040325 0.407844
vt 0.042613 0.407389
vt 0.044946 0.407389
vt 0.047234 0.407844
vt 0.052979 0.411682
vt 0.049389 0.408736
vt 0.051329 0.410033
vt 0.054275 0.413622
vt 0.055167 0.415777
vt 0.055623 0.418065
vt 0.055168 0.422686
vt 0.051329 0.428431
vt 0.054275 0.424842
vt 0.052979 0.426781
vt 0.049389 0.429727
vt 0.047234 0.430620
vt 0.044946 0.431075
vt 0.042613 0.431075
vt 0.040325 0.430620
vt 0.038170 0.429727
vt 0.036230 0.428431
vt 0.033284 0.424842
vt 0.032391 0.422686
vt 0.031936 0.420398
vt 0.221360 0.019851
vt 0.221360 0.029182
vt 0.221360 0.036181
vt 0.221360 0.040847
vt 0.221360 0.047846
vt 0.221360 0.054844
vt 0.221360 0.061843
vt 0.221360 0.066509
vt 0.221360 0.073508
vt 0.122850 0.385934
vt 0.121745 0.388600
vt 0.120142 0.391000
vt 0.118101 0.393040
vt 0.115702 0.394643
vt 0.107320 0.396311
vt 0.113036 0.395748
vt 0.110206 0.396311
vt 0.104489 0.395748
vt 0.101823 0.394644
vt 0.099424 0.393040
vt 0.097383 0.391000
vt 0.095780 0.388600
vt 0.094676 0.385934
vt 0.094113 0.383104
vt 0.094676 0.377388
vt 0.095780 0.374722
vt 0.097383 0.372322
vt 0.099424 0.370281
vt 0.101823 0.368678
vt 0.104489 0.367574
vt 0.107320 0.367011
vt 0.113036 0.367574
vt 0.115702 0.368678
vt 0.118101 0.370281
vt 0.120142 0.372322
vt 0.121745 0.374721
vt 0.122850 0.377388
vt 0.123413 0.380218
vt 0.198746 0.010536
vt 0.147926 0.402506
vt 0.146822 0.399840
vt 0.146259 0.397009
vt 0.146259 0.394123
vt 0.146822 0.391293
vt 0.151570 0.384187
vt 0.147926 0.388627
vt 0.149529 0.386228
vt 0.153969 0.382584
vt 0.156636 0.381479
vt 0.159466 0.380917
vt 0.162352 0.380917
vt 0.165182 0.381480
vt 0.167848 0.382584
vt 0.170248 0.384187
vt 0.173891 0.388627
vt 0.174996 0.391293
vt 0.175559 0.394124
vt 0.175559 0.397010
vt 0.174996 0.399840
vt 0.173891 0.402506
vt 0.172288 0.404906
vt 0.167848 0.408549
vt 0.159466 0.410217
vt 0.165182 0.409654
vt 0.162351 0.410217
vt 0.156635 0.409653
vt 0.153969 0.408549
vt 0.151570 0.406946
vt 0.184317 0.010536
vt 0.167002 0.010536
vt 0.161231 0.010536
vt 0.149687 0.010536
vt 0.138144 0.010536
vt 0.132373 0.010536
vt 0.126601 0.010536
vt 0.115058 0.010536
vt 0.399966 0.113964
vt 0.398299 0.105581
vt 0.398861 0.111298
vt 0.398299 0.108467
vt 0.398861 0.102751
vt 0.399966 0.100085
vt 0.401569 0.097686
vt 0.403610 0.095645
vt 0.406009 0.094042
vt 0.408675 0.092937
vt 0.411506 0.092374
vt 0.414392 0.092374
vt 0.417222 0.092937
vt 0.419888 0.094042
vt 0.422287 0.095645
vt 0.425931 0.100085
vt 0.427036 0.102751
vt 0.427599 0.105582
vt 0.427599 0.108467
vt 0.427036 0.111298
vt 0.425931 0.113964
vt 0.424328 0.116363
vt 0.419888 0.120007
vt 0.417222 0.121111
vt 0.414391 0.121674
vt 0.411506 0.121674
vt 0.408675 0.121111
vt 0.406009 0.120007
vt 0.403610 0.118404
vt 0.033295 0.170451
vt 0.024638 0.170451
vt 0.125194 0.185891
vt 0.123591 0.183492
vt 0.122487 0.180826
vt 0.121924 0.177995
vt 0.121924 0.175109
vt 0.122487 0.172279
vt 0.123591 0.169613
vt 0.125195 0.167213
vt 0.129635 0.163570
vt 0.132301 0.162465
vt 0.135131 0.161903
vt 0.138017 0.161903
vt 0.140848 0.162466
vt 0.143514 0.163570
vt 0.145913 0.165173
vt 0.149557 0.169614
vt 0.151224 0.177996
vt 0.150661 0.172280
vt 0.151224 0.175110
vt 0.150661 0.180826
vt 0.149556 0.183492
vt 0.147953 0.185892
vt 0.143513 0.189535
vt 0.140847 0.190640
vt 0.138016 0.191203
vt 0.135131 0.191203
vt 0.132300 0.190639
vt 0.129634 0.189535
vt 0.127235 0.187932
vt 0.013094 0.170451
vt 0.102554 0.170451
vt 0.091011 0.170451
vt 0.079468 0.170451
vt 0.073696 0.170451
vt 0.059267 0.170451
vt 0.044838 0.170451
vt 0.564120 0.066478
vt 0.612099 0.118490
vt 0.750895 0.181255
vt 0.177989 0.426840
vt 0.228238 0.283038
vt 0.990432 0.176766
vt 0.977982 0.723874
vt 0.406647 0.144708
vt 0.472366 0.128195
vt 0.414394 0.965464
vt 0.388893 0.152318
vt 0.009568 0.597229
vt 0.331618 0.188529
vt 0.223651 0.212425
vt 0.260753 0.500626
vt 0.747265 0.292075
vt 0.271160 0.135345
vt 0.271160 0.142228
vt 0.221121 0.138673
vt 0.270199 0.149044
vt 0.221121 0.145557
vt 0.268313 0.155528
vt 0.222083 0.152244
vt 0.265574 0.161434
vt 0.223969 0.158478
vt 0.262090 0.166533
vt 0.226707 0.164019
vt 0.257992 0.170630
vt 0.230192 0.168654
vt 0.253439 0.173567
vt 0.234290 0.172206
vt 0.248605 0.175231
vt 0.243677 0.175559
vt 0.238843 0.174537
vt 0.222083 0.131858
vt 0.226707 0.119468
vt 0.230192 0.114369
vt 0.265574 0.116883
vt 0.234289 0.110272
vt 0.262089 0.112247
vt 0.238843 0.107335
vt 0.257992 0.108696
vt 0.243676 0.105671
vt 0.248605 0.105343
vt 0.253438 0.106364
vt 0.352856 0.112689
vt 0.352856 0.119571
vt 0.303654 0.116131
vt 0.351910 0.126388
vt 0.303654 0.123014
vt 0.350056 0.132877
vt 0.304600 0.129698
vt 0.347364 0.138788
vt 0.306454 0.135928
vt 0.343937 0.143895
vt 0.309146 0.141462
vt 0.339908 0.148000
vt 0.312573 0.146089
vt 0.335431 0.150948
vt 0.316602 0.149631
vt 0.330678 0.152623
vt 0.321079 0.151952
vt 0.325832 0.152962
vt 0.304600 0.109315
vt 0.309147 0.096915
vt 0.312573 0.091808
vt 0.347364 0.094241
vt 0.316602 0.087702
vt 0.343937 0.089613
vt 0.321079 0.084755
vt 0.339908 0.086071
vt 0.325832 0.083080
vt 0.335431 0.083751
vt 0.330678 0.082741
vt 0.067615 0.374306
vt 0.052127 0.384655
vt 0.063167 0.378753
vt 0.057938 0.382248
vt 0.045958 0.385882
vt 0.039668 0.385882
vt 0.033500 0.384655
vt 0.022459 0.378753
vt 0.018012 0.374306
vt 0.014517 0.369076
vt 0.012110 0.363266
vt 0.010883 0.357097
vt 0.010883 0.350807
vt 0.012110 0.344638
vt 0.018012 0.333598
vt 0.022459 0.329150
vt 0.027689 0.325656
vt 0.033500 0.323249
vt 0.039668 0.322022
vt 0.045958 0.322022
vt 0.052127 0.323249
vt 0.057938 0.325656
vt 0.063167 0.329150
vt 0.067615 0.333598
vt 0.071109 0.338827
vt 0.073516 0.344638
vt 0.074743 0.350807
vt 0.074743 0.357097
vt 0.073516 0.363265
vt 0.294015 0.940777
vt 0.402117 0.018012
vt 0.406565 0.022459
vt 0.410059 0.027689
vt 0.412466 0.033500
vt 0.413693 0.039668
vt 0.413693 0.045958
vt 0.412466 0.052127
vt 0.410059 0.057938
vt 0.402117 0.067615
vt 0.396888 0.071109
vt 0.391077 0.073516
vt 0.384908 0.074743
vt 0.378618 0.074743
vt 0.372449 0.073516
vt 0.366639 0.071109
vt 0.356962 0.063167
vt 0.353467 0.057938
vt 0.351060 0.052127
vt 0.349833 0.045958
vt 0.349833 0.039668
vt 0.351060 0.033500
vt 0.353467 0.027689
vt 0.361409 0.018012
vt 0.366639 0.014517
vt 0.372450 0.012110
vt 0.378618 0.010883
vt 0.384908 0.010883
vt 0.391077 0.012110
vt 0.396888 0.014517
vt 0.311357 0.933343
vt 0.340261 0.920953
vt 0.357604 0.913519
vt 0.184178 0.987860
vt 0.195740 0.982904
vt 0.213082 0.975470
vt 0.230425 0.968036
vt 0.241987 0.963080
vt 0.253548 0.958124
vt 0.270891 0.950689
s 1
usemtl Material
f 1/1/1 64/2/64 2/3/2
f 36/4/36 20/5/20 4/6/4
f 6/7/6 1/8/1 4/9/4
f 5/10/5 6/7/6 4/9/4
f 55/11/55 63/12/63 31/13/31
f 8/14/8 5/10/5 10/15/10
f 11/16/11 8/14/8 10/15/10
f 14/17/14 11/16/11 12/18/12
f 15/19/15 12/18/12 13/20/13
f 18/21/18 15/19/15 13/20/13
f 19/22/19 16/23/16 18/21/18
f 22/24/22 19/22/19 20/25/20
f 23/26/23 20/25/20 21/27/21
f 26/28/26 23/26/23 21/27/21
f 25/29/25 26/28/26 27/30/27
f 28/31/28 25/29/25 27/30/27
f 31/32/31 28/31/28 29/33/29
f 34/34/34 31/32/31 29/33/29
f 35/35/35 32/36/32 34/34/34
f 38/37/38 35/35/35 36/38/36
f 39/39/39 36/38/36 37/40/37
f 42/41/42 39/39/39 37/40/37
f 41/42/41 42/41/42 43/43/43
f 44/44/44 41/42/41 43/43/43
f 45/45/45 46/46/46 44/44/44
f 48/47/48 45/45/45 50/48/50
f 51/49/51 48/47/48 50/48/50
f 54/50/54 51/49/51 52/51/52
f 55/52/55 52/51/52 53/53/53
f 58/54/58 55/52/55 53/53/53
f 57/55/57 58/54/58 59/56/59
f 62/57/62 59/56/59 60/58/60
f 63/59/63 60/58/60 61/60/61
f 64/2/64 61/60/61 2/3/2
f 100/61/100 84/62/84 68/63/68
f 67/64/67 66/65/66 65/66/65
f 70/67/70 65/66/65 68/68/68
f 71/69/71 68/68/68 69/70/69
f 95/71/95 111/72/111 127/73/127
f 74/74/74 71/69/71 69/70/69
f 75/75/75 72/76/72 74/74/74
f 78/77/78 75/75/75 76/78/76
f 79/79/79 76/78/76 77/80/77
f 80/81/80 77/80/77 82/82/82
f 81/83/81 82/82/82 83/84/83
f 86/85/86 83/84/83 84/86/84
f 85/87/85 86/85/86 84/86/84
f 88/88/88 85/87/85 90/89/90
f 91/90/91 88/88/88 90/89/90
f 94/91/94 91/90/91 92/92/92
f 95/93/95 92/92/92 93/94/93
f 96/95/96 93/94/93 98/96/98
f 99/97/99 96/95/96 98/96/98
f 102/98/102 99/97/99 100/99/100
f 101/100/101 102/98/102 100/99/100
f 106/101/106 103/102/103 101/100/101
f 107/103/107 104/104/104 106/101/106
f 110/105/110 107/103/107 108/106/108
f 109/107/109 110/105/110 108/106/108
f 112/108/112 109/107/109 114/109/114
f 115/110/115 112/108/112 114/109/114
f 118/111/118 115/110/115 116/112/116
f 117/113/117 118/111/118 116/112/116
f 122/114/122 119/115/119 117/113/117
f 123/116/123 120/117/120 122/114/122
f 126/118/126 123/116/123 124/119/124
f 127/120/127 124/119/124 125/121/125
f 66/65/66 127/122/127 125/123/125
f 164/124/164 148/125/148 132/126/132
f 131/127/131 130/128/130 129/129/129
f 134/130/134 129/129/129 132/131/132
f 133/132/133 134/130/134 132/131/132
f 143/133/143 159/134/159 175/135/175
f 136/136/136 133/132/133 138/137/138
f 137/138/137 138/137/138 139/139/139
f 140/140/140 137/138/137 139/139/139
f 141/141/141 142/142/142 140/140/140
f 144/143/144 141/141/141 146/144/146
f 145/145/145 146/146/146 147/147/147
f 150/148/150 147/147/147 148/149/148
f 151/150/151 148/149/148 149/151/149
f 154/152/154 151/150/151 149/151/149
f 153/153/153 154/152/154 155/154/155
f 158/155/158 155/154/155 156/156/156
f 159/157/159 156/156/156 157/158/157
f 162/159/162 159/157/159 157/158/157
f 161/160/161 162/159/162 163/161/163
f 164/162/164 161/160/161 163/161/163
f 167/163/167 164/162/164 165/164/165
f 168/165/168 165/164/165 170/166/170
f 169/167/169 170/166/170 171/168/171
f 172/169/172 169/167/169 171/168/171
f 173/170/173 174/171/174 172/169/172
f 176/172/176 173/170/173 178/173/178
f 177/174/177 178/173/178 179/175/179
f 182/176/182 179/175/179 180/177/180
f 183/178/183 180/177/180 181/179/181
f 186/180/186 183/178/183 181/179/181
f 185/181/185 186/180/186 187/182/187
f 188/183/188 185/181/185 187/182/187
f 189/184/189 190/185/190 188/183/188
f 130/128/130 191/186/191 189/184/189
f 193/187/193 208/188/208 194/189/194
f 199/190/199 193/191/193 194/192/194
f 193/187/193 198/193/198 195/194/195
f 196/195/196 248/196/248 198/193/198
f 200/197/200 196/198/196 199/190/199
f 202/199/202 199/200/199 201/201/201
f 201/201/201 194/202/194 204/203/204
f 202/204/202 203/205/203 265/206/265
f 201/207/201 205/208/205 203/205/203
f 194/189/194 206/209/206 204/210/204
f 205/211/205 206/209/206 207/212/207
f 207/213/207 209/214/209 210/215/210
f 208/216/208 209/214/209 206/217/206
f 209/218/209 213/219/213 210/220/210
f 209/218/209 214/221/214 212/222/212
f 212/223/212 217/224/217 213/225/213
f 212/223/212 216/226/216 215/227/215
f 216/228/216 218/229/218 215/230/215
f 217/231/217 218/232/218 219/233/219
f 219/233/219 221/234/221 222/235/222
f 220/236/220 221/237/221 218/229/218
f 221/234/221 225/238/225 222/235/222
f 221/237/221 226/239/226 224/240/224
f 224/241/224 228/242/228 225/238/225
f 224/240/224 229/243/229 227/244/227
f 228/242/228 230/245/230 231/246/231
f 229/243/229 230/245/230 227/244/227
f 231/246/231 233/247/233 234/248/234
f 232/249/232 233/247/233 230/245/230
f 233/247/233 237/250/237 234/248/234
f 233/247/233 238/251/238 236/252/236
f 236/252/236 241/253/241 237/250/237
f 236/252/236 240/254/240 239/255/239
f 240/254/240 242/256/242 239/255/239
f 241/253/241 242/257/242 243/258/243
f 243/258/243 202/204/202 265/206/265
f 244/259/244 202/199/202 242/256/242
f 245/260/245 200/197/200 244/261/244
f 246/262/246 244/261/244 240/254/240
f 246/263/246 247/264/247 245/265/245
f 245/265/245 248/196/248 197/266/197
f 247/267/247 264/268/264 248/269/248
f 250/270/250 249/271/249 247/267/247
f 235/272/235 250/273/250 238/251/238
f 238/274/238 246/262/246 240/254/240
f 249/275/249 252/276/252 254/277/254
f 252/278/252 235/279/235 232/249/232
f 254/280/254 253/281/253 256/282/256
f 253/283/253 232/284/232 229/243/229
f 264/285/264 254/277/254 255/286/255
f 255/287/255 256/282/256 257/288/257
f 223/289/223 256/290/256 226/291/226
f 226/291/226 253/283/253 229/243/229
f 255/287/255 258/292/258 260/293/260
f 258/294/258 223/289/223 220/295/220
f 260/293/260 259/296/259 262/297/262
f 259/298/259 220/295/220 216/299/216
f 264/285/264 260/300/260 261/301/261
f 261/301/261 262/302/262 263/303/263
f 211/304/211 262/302/262 214/221/214
f 214/305/214 259/296/259 216/226/216
f 195/306/195 261/307/261 263/308/263
f 195/306/195 211/309/211 208/216/208
f 198/310/198 264/268/264 261/307/261
f 266/311/266 265/312/265 267/313/267
f 268/314/268 243/315/243 266/311/266
f 266/316/266 270/317/270 269/318/269
f 268/314/268 269/318/269 272/319/272
f 269/320/269 290/321/290 271/322/271
f 272/323/272 271/322/271 273/324/273
f 237/250/237 268/314/268 272/319/272
f 234/248/234 272/323/272 273/324/273
f 274/325/274 234/248/234 273/326/273
f 271/327/271 274/325/274 273/326/273
f 275/328/275 231/246/231 274/329/274
f 276/330/276 275/328/275 274/329/274
f 290/331/290 276/332/276 271/327/271
f 277/333/277 278/334/278 276/330/276
f 225/335/225 275/328/275 278/336/278
f 222/337/222 278/336/278 279/338/279
f 280/339/280 222/337/222 279/338/279
f 277/333/277 280/340/280 279/341/279
f 281/342/281 219/343/219 280/339/280
f 282/344/282 281/345/281 280/340/280
f 290/331/290 282/346/282 277/347/277
f 283/348/283 284/349/284 282/346/282
f 213/225/213 281/345/281 284/350/284
f 210/220/210 284/349/284 285/351/285
f 286/352/286 283/353/283 288/354/288
f 286/352/286 210/215/210 285/355/285
f 287/356/287 288/357/288 289/358/289
f 287/356/287 207/212/207 286/359/286
f 288/354/288 290/321/290 270/360/270
f 289/358/289 270/317/270 267/361/267
f 203/362/203 287/363/287 289/364/289
f 265/312/265 289/364/289 267/313/267
f 291/365/291 293/366/293 292/367/292
f 296/368/296 295/369/295 307/370/307
f 294/371/294 293/366/293 291/365/291
f 295/372/295 293/366/293 294/371/294
f 296/373/296 293/366/293 295/372/295
f 297/374/297 293/366/293 296/373/296
f 298/375/298 293/366/293 297/374/297
f 299/376/299 293/366/293 298/375/298
f 300/377/300 293/366/293 299/376/299
f 301/378/301 293/366/293 300/379/300
f 302/380/302 293/366/293 301/378/301
f 303/381/303 293/366/293 302/380/302
f 304/382/304 293/366/293 303/381/303
f 305/383/305 293/366/293 304/382/304
f 306/384/306 293/366/293 305/383/305
f 307/385/307 293/366/293 306/384/306
f 308/386/308 293/366/293 307/385/307
f 309/387/309 293/366/293 308/386/308
f 310/388/310 293/366/293 309/387/309
f 311/389/311 293/366/293 310/388/310
f 312/390/312 293/366/293 311/389/311
f 313/391/313 293/366/293 312/390/312
f 314/392/314 293/366/293 313/391/313
f 315/393/315 293/366/293 314/392/314
f 316/394/316 293/366/293 315/393/315
f 317/395/317 293/366/293 316/394/316
f 318/396/318 293/366/293 317/395/317
f 319/397/319 293/366/293 318/396/318
f 320/398/320 293/366/293 319/397/319
f 321/399/321 293/366/293 320/398/320
f 322/400/322 293/366/293 321/399/321
f 323/401/323 293/366/293 322/400/322
f 292/367/292 293/366/293 323/401/323
f 324/402/324 326/403/326 325/404/325
f 329/405/329 328/406/328 340/407/340
f 327/408/327 326/403/326 324/402/324
f 328/409/328 326/403/326 327/408/327
f 329/410/329 326/403/326 328/409/328
f 330/411/330 326/403/326 329/410/329
f 331/412/331 326/403/326 330/411/330
f 332/413/332 326/403/326 331/412/331
f 333/414/333 326/403/326 332/413/332
f 334/415/334 326/403/326 333/416/333
f 335/417/335 326/403/326 334/415/334
f 336/418/336 326/403/326 335/417/335
f 337/419/337 326/403/326 336/418/336
f 338/420/338 326/403/326 337/419/337
f 339/421/339 326/403/326 338/420/338
f 340/422/340 326/403/326 339/421/339
f 341/423/341 326/403/326 340/422/340
f 342/424/342 326/403/326 341/423/341
f 343/425/343 326/403/326 342/424/342
f 344/426/344 326/403/326 343/425/343
f 345/427/345 326/403/326 344/426/344
f 346/428/346 326/403/326 345/427/345
f 347/429/347 326/403/326 346/428/346
f 348/430/348 326/403/326 347/429/347
f 349/431/349 326/403/326 348/430/348
f 350/432/350 326/403/326 349/431/349
f 351/433/351 326/403/326 350/432/350
f 352/434/352 326/403/326 351/433/351
f 353/435/353 326/403/326 352/434/352
f 354/436/354 326/403/326 353/435/353
f 355/437/355 326/403/326 354/436/354
f 356/438/356 326/403/326 355/437/355
f 325/404/325 326/403/326 356/438/356
f 359/439/358 358/440/34 357/441/357
f 360/442/359 408/443/20 392/444/4
f 360/445/359 359/439/358 357/441/357
f 361/446/37 362/447/38 360/445/359
f 371/448/47 387/449/370 403/450/15
f 364/451/360 361/446/37 366/452/362
f 367/453/43 364/451/360 366/452/362
f 368/454/44 365/455/361 367/453/43
f 371/456/47 368/454/44 369/457/45
f 372/458/48 369/457/45 374/459/50
f 373/460/49 374/459/50 375/461/364
f 376/462/365 373/460/49 375/461/364
f 377/463/366 378/464/54 376/462/365
f 380/465/56 377/463/366 382/466/58
f 381/467/367 382/466/58 383/468/59
f 384/469/368 381/467/367 383/468/59
f 387/470/370 384/469/368 385/471/61
f 390/472/2 387/473/370 385/474/61
f 389/475/3 390/472/2 391/476/371
f 392/477/4 389/475/3 391/476/371
f 395/478/7 392/477/4 393/479/5
f 398/480/10 395/478/7 393/479/5
f 399/481/11 396/482/373 398/480/10
f 402/483/375 399/481/11 400/484/374
f 401/485/13 402/483/375 400/484/374
f 406/486/18 403/487/15 401/485/13
f 405/488/17 406/486/18 407/489/376
f 408/490/20 405/488/17 407/489/376
f 411/491/23 408/490/20 409/492/377
f 414/493/379 411/491/23 409/492/377
f 413/494/25 414/493/379 415/495/380
f 418/496/30 415/495/380 416/497/381
f 417/498/382 418/496/30 416/497/381
f 420/499/32 417/498/382 358/440/34
f 1/1/1 3/500/3 64/2/64
f 4/6/4 1/501/1 2/502/2
f 2/502/2 61/503/61 60/504/60
f 60/504/60 59/505/59 58/506/58
f 58/506/58 53/507/53 52/508/52
f 52/508/52 51/509/51 50/510/50
f 50/510/50 45/511/45 52/508/52
f 45/511/45 44/512/44 52/508/52
f 44/512/44 43/513/43 36/4/36
f 43/513/43 42/514/42 36/4/36
f 42/514/42 37/515/37 36/4/36
f 36/4/36 35/516/35 28/517/28
f 35/516/35 34/518/34 28/517/28
f 34/518/34 29/519/29 28/517/28
f 28/517/28 27/520/27 20/5/20
f 27/520/27 26/521/26 20/5/20
f 26/521/26 21/522/21 20/5/20
f 20/5/20 19/523/19 18/524/18
f 18/524/18 13/525/13 12/526/12
f 12/526/12 11/527/11 4/6/4
f 11/527/11 10/528/10 4/6/4
f 10/528/10 5/529/5 4/6/4
f 4/6/4 2/502/2 60/504/60
f 60/504/60 58/506/58 4/6/4
f 58/506/58 52/508/52 4/6/4
f 20/5/20 18/524/18 12/526/12
f 52/508/52 44/512/44 4/6/4
f 44/512/44 36/4/36 4/6/4
f 36/4/36 28/517/28 20/5/20
f 20/5/20 12/526/12 4/6/4
f 6/7/6 3/530/3 1/8/1
f 5/10/5 7/531/7 6/7/6
f 63/12/63 64/532/64 3/533/3
f 3/533/3 6/534/6 63/12/63
f 6/534/6 7/535/7 63/12/63
f 7/535/7 8/536/8 9/537/9
f 9/537/9 14/538/14 15/539/15
f 15/539/15 16/540/16 23/541/23
f 16/540/16 17/542/17 23/541/23
f 17/542/17 22/543/22 23/541/23
f 23/541/23 24/544/24 25/545/25
f 25/545/25 30/546/30 23/541/23
f 30/546/30 31/13/31 23/541/23
f 31/13/31 32/547/32 39/548/39
f 32/547/32 33/549/33 39/548/39
f 33/549/33 38/550/38 39/548/39
f 39/548/39 40/551/40 41/552/41
f 41/552/41 46/553/46 47/554/47
f 47/554/47 48/555/48 55/11/55
f 48/555/48 49/556/49 55/11/55
f 49/556/49 54/557/54 55/11/55
f 55/11/55 56/558/56 57/559/57
f 57/559/57 62/560/62 63/12/63
f 7/535/7 9/537/9 15/539/15
f 39/548/39 41/552/41 47/554/47
f 55/11/55 57/559/57 63/12/63
f 63/12/63 7/535/7 31/13/31
f 7/535/7 15/539/15 31/13/31
f 15/539/15 23/541/23 31/13/31
f 31/13/31 39/548/39 47/554/47
f 47/554/47 55/11/55 31/13/31
f 8/14/8 7/531/7 5/10/5
f 11/16/11 9/561/9 8/14/8
f 14/17/14 9/561/9 11/16/11
f 15/19/15 14/17/14 12/18/12
f 18/21/18 16/23/16 15/19/15
f 19/22/19 17/562/17 16/23/16
f 22/24/22 17/562/17 19/22/19
f 23/26/23 22/24/22 20/25/20
f 26/28/26 24/563/24 23/26/23
f 25/29/25 24/563/24 26/28/26
f 28/31/28 30/564/30 25/29/25
f 31/32/31 30/564/30 28/31/28
f 34/34/34 32/36/32 31/32/31
f 35/35/35 33/565/33 32/36/32
f 38/37/38 33/565/33 35/35/35
f 39/39/39 38/37/38 36/38/36
f 42/41/42 40/566/40 39/39/39
f 41/42/41 40/566/40 42/41/42
f 44/44/44 46/46/46 41/42/41
f 45/45/45 47/567/47 46/46/46
f 48/47/48 47/567/47 45/45/45
f 51/49/51 49/568/49 48/47/48
f 54/50/54 49/568/49 51/49/51
f 55/52/55 54/50/54 52/51/52
f 58/54/58 56/569/56 55/52/55
f 57/55/57 56/569/56 58/54/58
f 62/57/62 57/55/57 59/56/59
f 63/59/63 62/57/62 60/58/60
f 64/2/64 63/59/63 61/60/61
f 68/63/68 65/570/65 66/571/66
f 66/571/66 125/572/125 124/573/124
f 124/573/124 123/574/123 116/575/116
f 123/574/123 122/576/122 116/575/116
f 122/576/122 117/577/117 116/575/116
f 116/575/116 115/578/115 114/579/114
f 114/579/114 109/580/109 116/575/116
f 109/580/109 108/581/108 116/575/116
f 108/581/108 107/582/107 106/583/106
f 106/583/106 101/584/101 100/61/100
f 100/61/100 99/585/99 98/586/98
f 98/586/98 93/587/93 92/588/92
f 92/588/92 91/589/91 90/590/90
f 90/590/90 85/591/85 92/588/92
f 85/591/85 84/62/84 92/588/92
f 84/62/84 83/592/83 82/593/82
f 82/593/82 77/594/77 76/595/76
f 76/595/76 75/596/75 74/597/74
f 74/597/74 69/598/69 68/63/68
f 68/63/68 66/571/66 124/573/124
f 108/581/108 106/583/106 100/61/100
f 100/61/100 98/586/98 84/62/84
f 98/586/98 92/588/92 84/62/84
f 84/62/84 82/593/82 76/595/76
f 76/595/76 74/597/74 84/62/84
f 74/597/74 68/63/68 84/62/84
f 68/63/68 124/573/124 116/575/116
f 116/575/116 108/581/108 68/63/68
f 108/581/108 100/61/100 68/63/68
f 67/64/67 128/599/128 66/65/66
f 70/67/70 67/64/67 65/66/65
f 71/69/71 70/67/70 68/68/68
f 127/73/127 128/600/128 67/601/67
f 67/601/67 70/602/70 127/73/127
f 70/602/70 71/603/71 127/73/127
f 71/603/71 72/604/72 79/605/79
f 72/604/72 73/606/73 79/605/79
f 73/606/73 78/607/78 79/605/79
f 79/605/79 80/608/80 81/609/81
f 81/609/81 86/610/86 79/605/79
f 86/610/86 87/611/87 79/605/79
f 87/611/87 88/612/88 89/613/89
f 89/613/89 94/614/94 87/611/87
f 94/614/94 95/71/95 87/611/87
f 95/71/95 96/615/96 97/616/97
f 97/616/97 102/617/102 95/71/95
f 102/617/102 103/618/103 95/71/95
f 103/618/103 104/619/104 111/72/111
f 104/619/104 105/620/105 111/72/111
f 105/620/105 110/621/110 111/72/111
f 111/72/111 112/622/112 119/623/119
f 112/622/112 113/624/113 119/623/119
f 113/624/113 118/625/118 119/623/119
f 119/623/119 120/626/120 121/627/121
f 121/627/121 126/628/126 119/623/119
f 126/628/126 127/73/127 119/623/119
f 127/73/127 71/603/71 95/71/95
f 71/603/71 79/605/79 95/71/95
f 79/605/79 87/611/87 95/71/95
f 95/71/95 103/618/103 111/72/111
f 111/72/111 119/623/119 127/73/127
f 74/74/74 72/76/72 71/69/71
f 75/75/75 73/629/73 72/76/72
f 78/77/78 73/629/73 75/75/75
f 79/79/79 78/77/78 76/78/76
f 80/81/80 79/79/79 77/80/77
f 81/83/81 80/81/80 82/82/82
f 86/85/86 81/83/81 83/84/83
f 85/87/85 87/630/87 86/85/86
f 88/88/88 87/630/87 85/87/85
f 91/90/91 89/631/89 88/88/88
f 94/91/94 89/631/89 91/90/91
f 95/93/95 94/91/94 92/92/92
f 96/95/96 95/93/95 93/94/93
f 99/97/99 97/632/97 96/95/96
f 102/98/102 97/632/97 99/97/99
f 101/100/101 103/102/103 102/98/102
f 106/101/106 104/104/104 103/102/103
f 107/103/107 105/633/105 104/104/104
f 110/105/110 105/633/105 107/103/107
f 109/107/109 111/634/111 110/105/110
f 112/108/112 111/634/111 109/107/109
f 115/110/115 113/635/113 112/108/112
f 118/111/118 113/635/113 115/110/115
f 117/113/117 119/115/119 118/111/118
f 122/114/122 120/117/120 119/115/119
f 123/116/123 121/636/121 120/117/120
f 126/118/126 121/636/121 123/116/123
f 127/120/127 126/118/126 124/119/124
f 66/65/66 128/599/128 127/122/127
f 132/126/132 129/637/129 188/638/188
f 129/637/129 130/639/130 188/638/188
f 130/639/130 189/640/189 188/638/188
f 188/638/188 187/641/187 186/642/186
f 186/642/186 181/643/181 188/638/188
f 181/643/181 180/644/180 188/638/188
f 180/644/180 179/645/179 178/646/178
f 178/646/178 173/647/173 172/648/172
f 172/648/172 171/649/171 170/650/170
f 170/650/170 165/651/165 172/648/172
f 165/651/165 164/124/164 172/648/172
f 164/124/164 163/652/163 162/653/162
f 162/653/162 157/654/157 156/655/156
f 156/655/156 155/656/155 154/657/154
f 154/657/154 149/658/149 148/125/148
f 148/125/148 147/659/147 146/660/146
f 146/660/146 141/661/141 148/125/148
f 141/661/141 140/662/140 148/125/148
f 140/662/140 139/663/139 132/126/132
f 139/663/139 138/664/138 132/126/132
f 138/664/138 133/665/133 132/126/132
f 180/644/180 178/646/178 172/648/172
f 164/124/164 162/653/162 156/655/156
f 156/655/156 154/657/154 164/124/164
f 154/657/154 148/125/148 164/124/164
f 132/126/132 188/638/188 180/644/180
f 180/644/180 172/648/172 132/126/132
f 172/648/172 164/124/164 132/126/132
f 148/125/148 140/662/140 132/126/132
f 131/127/131 192/666/192 130/128/130
f 134/130/134 131/127/131 129/129/129
f 133/132/133 135/667/135 134/130/134
f 191/668/191 192/669/192 131/670/131
f 131/670/131 134/671/134 191/668/191
f 134/671/134 135/672/135 191/668/191
f 135/672/135 136/673/136 137/674/137
f 137/674/137 142/675/142 143/133/143
f 143/133/143 144/676/144 145/677/145
f 145/677/145 150/678/150 151/679/151
f 151/679/151 152/680/152 153/681/153
f 153/681/153 158/682/158 151/679/151
f 158/682/158 159/134/159 151/679/151
f 159/134/159 160/683/160 167/684/167
f 160/683/160 161/685/161 167/684/167
f 161/685/161 166/686/166 167/684/167
f 167/684/167 168/687/168 175/135/175
f 168/687/168 169/688/169 175/135/175
f 169/688/169 174/689/174 175/135/175
f 175/135/175 176/690/176 177/691/177
f 177/691/177 182/692/182 175/135/175
f 182/692/182 183/693/183 175/135/175
f 183/693/183 184/694/184 185/695/185
f 185/695/185 190/696/190 191/668/191
f 135/672/135 137/674/137 191/668/191
f 137/674/137 143/133/143 191/668/191
f 143/133/143 145/677/145 151/679/151
f 183/693/183 185/695/185 175/135/175
f 185/695/185 191/668/191 175/135/175
f 143/133/143 151/679/151 159/134/159
f 159/134/159 167/684/167 175/135/175
f 191/668/191 143/133/143 175/135/175
f 136/136/136 135/667/135 133/132/133
f 137/138/137 136/136/136 138/137/138
f 140/140/140 142/142/142 137/138/137
f 141/141/141 143/697/143 142/142/142
f 144/143/144 143/697/143 141/141/141
f 145/145/145 144/698/144 146/146/146
f 150/148/150 145/145/145 147/147/147
f 151/150/151 150/148/150 148/149/148
f 154/152/154 152/699/152 151/150/151
f 153/153/153 152/699/152 154/152/154
f 158/155/158 153/153/153 155/154/155
f 159/157/159 158/155/158 156/156/156
f 162/159/162 160/700/160 159/157/159
f 161/160/161 160/700/160 162/159/162
f 164/162/164 166/701/166 161/160/161
f 167/163/167 166/701/166 164/162/164
f 168/165/168 167/163/167 165/164/165
f 169/167/169 168/165/168 170/166/170
f 172/169/172 174/171/174 169/167/169
f 173/170/173 175/702/175 174/171/174
f 176/172/176 175/702/175 173/170/173
f 177/174/177 176/172/176 178/173/178
f 182/176/182 177/174/177 179/175/179
f 183/178/183 182/176/182 180/177/180
f 186/180/186 184/703/184 183/178/183
f 185/181/185 184/703/184 186/180/186
f 188/183/188 190/185/190 185/181/185
f 189/184/189 191/186/191 190/185/190
f 130/128/130 192/666/192 191/186/191
f 193/187/193 195/194/195 208/188/208
f 199/190/199 196/198/196 193/191/193
f 193/187/193 196/195/196 198/193/198
f 196/195/196 197/266/197 248/196/248
f 200/197/200 197/704/197 196/198/196
f 202/199/202 200/705/200 199/200/199
f 201/201/201 199/200/199 194/202/194
f 202/204/202 201/207/201 203/205/203
f 201/207/201 204/706/204 205/208/205
f 194/189/194 208/188/208 206/209/206
f 205/211/205 204/210/204 206/209/206
f 207/213/207 206/217/206 209/214/209
f 208/216/208 211/309/211 209/214/209
f 209/218/209 212/222/212 213/219/213
f 209/218/209 211/304/211 214/221/214
f 212/223/212 215/227/215 217/224/217
f 212/223/212 214/305/214 216/226/216
f 216/228/216 220/236/220 218/229/218
f 217/231/217 215/707/215 218/232/218
f 219/233/219 218/232/218 221/234/221
f 220/236/220 223/708/223 221/237/221
f 221/234/221 224/241/224 225/238/225
f 221/237/221 223/708/223 226/239/226
f 224/241/224 227/244/227 228/242/228
f 224/240/224 226/239/226 229/243/229
f 228/242/228 227/244/227 230/245/230
f 229/243/229 232/284/232 230/245/230
f 231/246/231 230/245/230 233/247/233
f 232/249/232 235/279/235 233/247/233
f 233/247/233 236/252/236 237/250/237
f 233/247/233 235/272/235 238/251/238
f 236/252/236 239/255/239 241/253/241
f 236/252/236 238/274/238 240/254/240
f 240/254/240 244/259/244 242/256/242
f 241/253/241 239/255/239 242/257/242
f 243/258/243 242/257/242 202/204/202
f 244/259/244 200/705/200 202/199/202
f 245/260/245 197/704/197 200/197/200
f 246/262/246 245/260/245 244/261/244
f 246/263/246 250/709/250 247/264/247
f 245/265/245 247/264/247 248/196/248
f 247/267/247 249/271/249 264/268/264
f 250/270/250 251/710/251 249/271/249
f 235/272/235 251/711/251 250/273/250
f 238/274/238 250/712/250 246/262/246
f 249/275/249 251/713/251 252/276/252
f 252/278/252 251/714/251 235/279/235
f 254/280/254 252/715/252 253/281/253
f 253/283/253 252/716/252 232/284/232
f 264/285/264 249/275/249 254/277/254
f 255/287/255 254/280/254 256/282/256
f 223/289/223 257/717/257 256/290/256
f 226/291/226 256/290/256 253/283/253
f 255/287/255 257/288/257 258/292/258
f 258/294/258 257/717/257 223/289/223
f 260/293/260 258/292/258 259/296/259
f 259/298/259 258/294/258 220/295/220
f 264/285/264 255/286/255 260/300/260
f 261/301/261 260/300/260 262/302/262
f 211/304/211 263/303/263 262/302/262
f 214/305/214 262/297/262 259/296/259
f 195/306/195 198/310/198 261/307/261
f 195/306/195 263/308/263 211/309/211
f 198/310/198 248/269/248 264/268/264
f 266/311/266 243/315/243 265/312/265
f 268/314/268 241/253/241 243/315/243
f 266/316/266 267/361/267 270/317/270
f 268/314/268 266/316/266 269/318/269
f 269/320/269 270/360/270 290/321/290
f 272/323/272 269/320/269 271/322/271
f 237/250/237 241/253/241 268/314/268
f 234/248/234 237/250/237 272/323/272
f 274/325/274 231/246/231 234/248/234
f 271/327/271 276/332/276 274/325/274
f 275/328/275 228/242/228 231/246/231
f 276/330/276 278/334/278 275/328/275
f 290/331/290 277/347/277 276/332/276
f 277/333/277 279/341/279 278/334/278
f 225/335/225 228/242/228 275/328/275
f 222/337/222 225/335/225 278/336/278
f 280/339/280 219/343/219 222/337/222
f 277/333/277 282/344/282 280/340/280
f 281/342/281 217/718/217 219/343/219
f 282/344/282 284/350/284 281/345/281
f 290/331/290 283/348/283 282/346/282
f 283/348/283 285/351/285 284/349/284
f 213/225/213 217/224/217 281/345/281
f 210/220/210 213/219/213 284/349/284
f 286/352/286 285/355/285 283/353/283
f 286/352/286 207/213/207 210/215/210
f 287/356/287 286/359/286 288/357/288
f 287/356/287 205/211/205 207/212/207
f 288/354/288 283/353/283 290/321/290
f 289/358/289 288/357/288 270/317/270
f 203/362/203 205/719/205 287/363/287
f 265/312/265 203/362/203 289/364/289
f 294/720/294 291/721/291 309/722/309
f 291/721/291 292/723/292 310/724/310
f 292/723/292 323/725/323 311/726/311
f 323/725/323 322/727/322 312/728/312
f 292/723/292 311/726/311 310/724/310
f 322/727/322 321/729/321 313/730/313
f 321/729/321 320/731/320 314/732/314
f 320/731/320 319/733/319 315/734/315
f 319/733/319 318/735/318 315/734/315
f 320/731/320 315/734/315 314/732/314
f 318/735/318 317/736/317 316/737/316
f 316/737/316 315/734/315 318/735/318
f 314/732/314 313/730/313 321/729/321
f 313/730/313 312/728/312 322/727/322
f 312/728/312 311/726/311 323/725/323
f 310/724/310 309/722/309 291/721/291
f 309/722/309 308/738/308 294/720/294
f 308/738/308 307/370/307 295/369/295
f 307/370/307 306/739/306 296/368/296
f 308/738/308 295/369/295 294/720/294
f 306/739/306 305/740/305 297/741/297
f 305/740/305 304/742/304 298/743/298
f 304/742/304 303/744/303 299/745/299
f 303/744/303 302/746/302 299/745/299
f 304/742/304 299/745/299 298/743/298
f 302/746/302 301/747/301 300/748/300
f 300/748/300 299/745/299 302/746/302
f 298/743/298 297/741/297 305/740/305
f 297/741/297 296/368/296 306/739/306
f 327/749/327 324/750/324 342/751/342
f 324/750/324 325/752/325 343/753/343
f 325/752/325 356/754/356 344/755/344
f 356/754/356 355/756/355 345/757/345
f 325/752/325 344/755/344 343/753/343
f 355/756/355 354/758/354 346/759/346
f 354/758/354 353/760/353 347/761/347
f 353/760/353 352/762/352 348/763/348
f 352/762/352 351/764/351 349/765/349
f 353/760/353 348/763/348 347/761/347
f 351/764/351 350/766/350 349/765/349
f 349/765/349 348/763/348 352/762/352
f 347/761/347 346/759/346 354/758/354
f 346/759/346 345/757/345 355/756/355
f 345/757/345 344/755/344 356/754/356
f 343/753/343 342/751/342 324/750/324
f 342/751/342 341/767/341 327/749/327
f 341/767/341 340/407/340 328/406/328
f 340/407/340 339/768/339 329/405/329
f 341/767/341 328/406/328 327/749/327
f 339/768/339 338/769/338 330/770/330
f 338/769/338 337/771/337 331/772/331
f 337/771/337 336/773/336 332/774/332
f 336/773/336 335/775/335 333/776/333
f 337/771/337 332/774/332 331/772/331
f 335/775/335 334/777/334 333/776/333
f 333/776/333 332/774/332 336/773/336
f 331/772/331 330/770/330 338/769/338
f 330/770/330 329/405/329 339/768/339
f 359/439/358 420/499/32 358/440/34
f 360/442/359 357/778/357 416/779/381
f 357/778/357 358/780/34 416/779/381
f 358/780/34 417/781/382 416/779/381
f 416/779/381 415/782/380 408/443/20
f 415/782/380 414/783/379 408/443/20
f 414/783/379 409/784/377 408/443/20
f 408/443/20 407/785/376 406/786/18
f 406/786/18 401/787/13 408/443/20
f 401/787/13 400/788/374 408/443/20
f 400/788/374 399/789/11 398/790/10
f 398/790/10 393/791/5 392/444/4
f 392/444/4 391/792/371 390/793/2
f 390/793/2 385/794/61 384/795/368
f 384/795/368 383/796/59 382/797/58
f 382/797/58 377/798/366 384/795/368
f 377/798/366 376/799/365 384/795/368
f 376/799/365 375/800/364 374/801/50
f 374/801/50 369/802/45 376/799/365
f 369/802/45 368/803/44 376/799/365
f 368/803/44 367/804/43 366/805/362
f 366/805/362 361/806/37 360/442/359
f 400/788/374 398/790/10 408/443/20
f 398/790/10 392/444/4 408/443/20
f 392/444/4 390/793/2 384/795/368
f 368/803/44 366/805/362 376/799/365
f 366/805/362 360/442/359 376/799/365
f 360/442/359 416/779/381 408/443/20
f 392/444/4 384/795/368 360/442/359
f 384/795/368 376/799/365 360/442/359
f 360/445/359 362/447/38 359/439/358
f 361/446/37 363/807/39 362/447/38
f 419/808/31 420/809/32 359/810/358
f 359/810/358 362/811/38 419/808/31
f 362/811/38 363/812/39 419/808/31
f 363/812/39 364/813/360 371/448/47
f 364/813/360 365/814/361 371/448/47
f 365/814/361 370/815/363 371/448/47
f 371/448/47 372/816/48 373/817/49
f 373/817/49 378/818/54 371/448/47
f 378/818/54 379/819/55 371/448/47
f 379/819/55 380/820/56 381/821/367
f 381/821/367 386/822/369 379/819/55
f 386/822/369 387/449/370 379/819/55
f 387/449/370 388/823/64 389/824/3
f 389/824/3 394/825/372 395/826/7
f 395/826/7 396/827/373 403/450/15
f 396/827/373 397/828/9 403/450/15
f 397/828/9 402/829/375 403/450/15
f 403/450/15 404/830/16 405/831/17
f 405/831/17 410/832/378 411/833/23
f 411/833/23 412/834/24 413/835/25
f 413/835/25 418/836/30 411/833/23
f 418/836/30 419/808/31 411/833/23
f 387/449/370 389/824/3 403/450/15
f 389/824/3 395/826/7 403/450/15
f 403/450/15 405/831/17 419/808/31
f 405/831/17 411/833/23 419/808/31
f 419/808/31 363/812/39 371/448/47
f 371/448/47 379/819/55 387/449/370
f 419/808/31 371/448/47 403/450/15
f 364/451/360 363/807/39 361/446/37
f 367/453/43 365/455/361 364/451/360
f 368/454/44 370/837/363 365/455/361
f 371/456/47 370/837/363 368/454/44
f 372/458/48 371/456/47 369/457/45
f 373/460/49 372/458/48 374/459/50
f 376/462/365 378/464/54 373/460/49
f 377/463/366 379/838/55 378/464/54
f 380/465/56 379/838/55 377/463/366
f 381/467/367 380/465/56 382/466/58
f 384/469/368 386/839/369 381/467/367
f 387/470/370 386/839/369 384/469/368
f 390/472/2 388/840/64 387/473/370
f 389/475/3 388/840/64 390/472/2
f 392/477/4 394/841/372 389/475/3
f 395/478/7 394/841/372 392/477/4
f 398/480/10 396/482/373 395/478/7
f 399/481/11 397/842/9 396/482/373
f 402/483/375 397/842/9 399/481/11
f 401/485/13 403/487/15 402/483/375
f 406/486/18 404/843/16 403/487/15
f 405/488/17 404/843/16 406/486/18
f 408/490/20 410/844/378 405/488/17
f 411/491/23 410/844/378 408/490/20
f 414/493/379 412/845/24 411/491/23
f 413/494/25 412/845/24 414/493/379
f 418/496/30 413/494/25 415/495/380
f 417/498/382 419/846/31 418/496/30
f 420/499/32 419/846/31 417/498/382
